<svg width="50" height="50" viewBox="0 0 50 50" fill="none" xmlns="http://www.w3.org/2000/svg">
<path d="M37.5001 6.25C39.7102 6.25 41.8298 7.12797 43.3926 8.69078C44.9554 10.2536 45.8334 12.3732 45.8334 14.5833V31.25C45.8334 33.4601 44.9554 35.5798 43.3926 37.1426C41.8298 38.7054 39.7102 39.5833 37.5001 39.5833H27.6584L17.7376 45.5354C17.4388 45.7147 17.0998 45.8162 16.7517 45.8306C16.4035 45.845 16.0574 45.7719 15.7448 45.6179C15.4322 45.4639 15.1633 45.2339 14.9626 44.9491C14.7619 44.6643 14.6358 44.3337 14.5959 43.9875L14.5834 43.75V39.5833H12.5001C10.3621 39.5833 8.30586 38.7616 6.75672 37.2881C5.20759 35.8146 4.28407 33.802 4.17716 31.6667L4.16675 31.25V14.5833C4.16675 12.3732 5.04472 10.2536 6.60753 8.69078C8.17033 7.12797 10.2899 6.25 12.5001 6.25H37.5001ZM29.1667 25H16.6667C16.1142 25 15.5843 25.2195 15.1936 25.6102C14.8029 26.0009 14.5834 26.5308 14.5834 27.0833C14.5834 27.6359 14.8029 28.1658 15.1936 28.5565C15.5843 28.9472 16.1142 29.1667 16.6667 29.1667H29.1667C29.7193 29.1667 30.2492 28.9472 30.6399 28.5565C31.0306 28.1658 31.2501 27.6359 31.2501 27.0833C31.2501 26.5308 31.0306 26.0009 30.6399 25.6102C30.2492 25.2195 29.7193 25 29.1667 25ZM33.3334 16.6667H16.6667C16.1142 16.6667 15.5843 16.8862 15.1936 17.2769C14.8029 17.6676 14.5834 18.1975 14.5834 18.75C14.5834 19.3025 14.8029 19.8324 15.1936 20.2231C15.5843 20.6138 16.1142 20.8333 16.6667 20.8333H33.3334C33.886 20.8333 34.4159 20.6138 34.8066 20.2231C35.1973 19.8324 35.4167 19.3025 35.4167 18.75C35.4167 18.1975 35.1973 17.6676 34.8066 17.2769C34.4159 16.8862 33.886 16.6667 33.3334 16.6667Z" fill="#9A9898"/>
</svg>
