<svg width="50" height="50" viewBox="0 0 50 50" fill="none" xmlns="http://www.w3.org/2000/svg">
<path d="M37.5 6.25C39.7101 6.25 41.8297 7.12797 43.3925 8.69078C44.9553 10.2536 45.8333 12.3732 45.8333 14.5833V31.25C45.8333 33.4601 44.9553 35.5798 43.3925 37.1426C41.8297 38.7054 39.7101 39.5833 37.5 39.5833H27.6583L17.7375 45.5354C17.4387 45.7147 17.0997 45.8162 16.7516 45.8306C16.4034 45.845 16.0572 45.7719 15.7447 45.6179C15.4321 45.4639 15.1632 45.2339 14.9624 44.9491C14.7617 44.6643 14.6357 44.3337 14.5958 43.9875L14.5833 43.75V39.5833H12.5C10.362 39.5833 8.30573 38.7616 6.7566 37.2881C5.20747 35.8146 4.28394 33.802 4.17704 31.6667L4.16663 31.25V14.5833C4.16663 12.3732 5.0446 10.2536 6.6074 8.69078C8.17021 7.12797 10.2898 6.25 12.5 6.25H37.5ZM29.1666 25H16.6666C16.1141 25 15.5842 25.2195 15.1935 25.6102C14.8028 26.0009 14.5833 26.5308 14.5833 27.0833C14.5833 27.6359 14.8028 28.1658 15.1935 28.5565C15.5842 28.9472 16.1141 29.1667 16.6666 29.1667H29.1666C29.7192 29.1667 30.2491 28.9472 30.6398 28.5565C31.0305 28.1658 31.25 27.6359 31.25 27.0833C31.25 26.5308 31.0305 26.0009 30.6398 25.6102C30.2491 25.2195 29.7192 25 29.1666 25ZM33.3333 16.6667H16.6666C16.1141 16.6667 15.5842 16.8862 15.1935 17.2769C14.8028 17.6676 14.5833 18.1975 14.5833 18.75C14.5833 19.3025 14.8028 19.8324 15.1935 20.2231C15.5842 20.6138 16.1141 20.8333 16.6666 20.8333H33.3333C33.8858 20.8333 34.4157 20.6138 34.8064 20.2231C35.1971 19.8324 35.4166 19.3025 35.4166 18.75C35.4166 18.1975 35.1971 17.6676 34.8064 17.2769C34.4157 16.8862 33.8858 16.6667 33.3333 16.6667Z" fill="#2AB673"/>
</svg>
