<svg width="18" height="18" viewBox="0 0 18 18" fill="none" xmlns="http://www.w3.org/2000/svg">
<path d="M3 4.5V2.7C3 2.58065 3.04741 2.46619 3.1318 2.3818C3.21619 2.29741 3.33065 2.25 3.45 2.25H14.55C14.6693 2.25 14.7838 2.29741 14.8682 2.3818C14.9526 2.46619 15 2.58065 15 2.7V4.5M3 13.5V15.3C3 15.4193 3.04741 15.5338 3.1318 15.6182C3.21619 15.7026 3.33065 15.75 3.45 15.75H14.55C14.6693 15.75 14.7838 15.7026 14.8682 15.6182C14.9526 15.5338 15 15.4193 15 15.3V13.5" stroke="#9A9898" stroke-width="1.5" stroke-linecap="round"/>
<path d="M11.625 11.25V6.75H13.875M11.625 9H13.125M9 11.25V6.75M6.375 6.75H4.125V11.25H6.375V9.45" stroke="#9A9898" stroke-width="1.5" stroke-linecap="round" stroke-linejoin="round"/>
</svg>
