<svg width="50" height="50" viewBox="0 0 50 50" fill="none" xmlns="http://www.w3.org/2000/svg">
<path fill-rule="evenodd" clip-rule="evenodd" d="M23.5271 6.86046C23.9178 6.4699 24.4476 6.25049 25 6.25049C25.5525 6.25049 26.0823 6.4699 26.4729 6.86046L38.9729 19.3605L43.1396 23.5271C43.5191 23.92 43.7291 24.4463 43.7244 24.9925C43.7196 25.5388 43.5005 26.0613 43.1142 26.4476C42.728 26.8338 42.2054 27.0529 41.6592 27.0577C41.113 27.0624 40.5867 26.8525 40.1938 26.473L39.5834 25.8625V39.5834C39.5834 40.6884 39.1444 41.7483 38.363 42.5297C37.5816 43.3111 36.5218 43.75 35.4167 43.75H29.1667C28.6142 43.75 28.0843 43.5305 27.6936 43.1399C27.3029 42.7491 27.0834 42.2192 27.0834 41.6667V35.4167H22.9167V41.6667C22.9167 42.2192 22.6972 42.7491 22.3065 43.1399C21.9158 43.5305 21.3859 43.75 20.8334 43.75H14.5834C13.4783 43.75 12.4185 43.3111 11.6371 42.5297C10.8557 41.7483 10.4167 40.6884 10.4167 39.5834V25.8625L9.80628 26.473C9.41336 26.8525 8.88711 27.0624 8.34086 27.0577C7.79462 27.0529 7.2721 26.8338 6.88583 26.4476C6.49956 26.0613 6.28046 25.5388 6.27571 24.9925C6.27097 24.4463 6.48095 23.92 6.86045 23.5271L11.0271 19.3605L23.5271 6.86046Z" fill="#2AB673"/>
</svg>
