<svg width="24" height="24" viewBox="0 0 24 24" fill="none" xmlns="http://www.w3.org/2000/svg">
<g clip-path="url(#clip0_1818_10726)">
<path d="M1.49998 11.9969C1.49264 9.2946 2.52777 6.69355 4.3899 4.7352C6.25202 2.77684 8.79766 1.61208 11.4969 1.48336C14.1962 1.35464 16.8411 2.27188 18.8812 4.04415C20.9212 5.81642 22.1991 8.30717 22.449 10.9979C22.1462 10.9156 21.8416 10.8401 21.5355 10.7714C19.9163 10.3997 18.2447 10.3139 16.596 10.5179C15.941 10.5999 15.3215 10.7289 14.7375 10.9049C14.6601 10.7365 14.5796 10.5694 14.496 10.4039C14.3923 10.2005 14.2937 9.9944 14.2005 9.78593C14.0685 9.48593 13.9245 9.09593 13.95 8.68193C13.98 8.20193 14.223 7.81193 14.6145 7.51793C15.09 7.16093 15.6885 6.34343 16.2045 5.51693C16.4535 5.12243 16.665 4.75193 16.815 4.48193L16.8495 4.41893C15.4018 3.48968 13.7172 2.99704 11.997 2.99993H11.925C12.0615 3.26993 12.2115 3.59243 12.3465 3.95093C12.7125 4.91993 13.0425 6.33893 12.453 7.59293C11.9115 8.74793 10.977 9.04793 10.278 9.22793L10.1775 9.25343C9.49798 9.42893 9.21748 9.50093 9.01348 9.80843C8.82448 10.0964 8.85898 10.4579 9.07348 11.1584L9.12298 11.3159C9.20848 11.5889 9.31048 11.9129 9.36298 12.2189C9.42898 12.5999 9.44698 13.0769 9.20698 13.5389C9.00331 13.9523 8.67764 14.2932 8.27398 14.5154C7.96182 14.6751 7.6252 14.7816 7.27798 14.8304L7.17598 14.8484C6.63898 14.9429 6.36598 14.9909 6.10348 15.2714C5.89798 15.4919 5.77048 15.8744 5.69698 16.4294C5.66798 16.6544 5.64548 16.8824 5.62948 17.1134L5.61898 17.2364C5.60224 17.5034 5.56766 17.769 5.51548 18.0314L5.47798 18.1964C6.40575 19.1739 7.54118 19.9305 8.80048 20.4104C8.51848 20.8304 8.25648 21.2644 8.01448 21.7124C6.08742 20.9218 4.43905 19.5759 3.27902 17.8459C2.11899 16.1158 1.49972 14.0799 1.49998 11.9969ZM23.8875 13.1069C23.8205 12.998 23.7267 12.908 23.6151 12.8456C23.5036 12.7831 23.3779 12.7502 23.25 12.7499H23.238L23.199 12.7454L23.0625 12.7184C22.912 12.6833 22.7624 12.6443 22.614 12.6014L22.4715 12.5624C22.0542 12.4413 21.6335 12.3322 21.21 12.2354C19.7587 11.9009 18.2601 11.8232 16.782 12.0059C14.979 12.2309 13.6005 12.8429 12.66 13.7189C11.715 14.6024 11.25 15.7244 11.25 16.8689C11.251 17.1439 11.27 17.4039 11.307 17.6489C12.882 16.2749 14.8245 15.1634 16.971 14.3039C17.0625 14.2673 17.1603 14.249 17.2589 14.2502C17.3574 14.2514 17.4548 14.2719 17.5454 14.3107C17.636 14.3495 17.7181 14.4058 17.7869 14.4763C17.8558 14.5468 17.9101 14.6302 17.9467 14.7217C17.9834 14.8132 18.0016 14.911 18.0005 15.0096C17.9993 15.1081 17.9787 15.2055 17.9399 15.2961C17.9011 15.3867 17.8449 15.4688 17.7744 15.5376C17.7039 15.6065 17.6205 15.6608 17.529 15.6974C16.3335 16.1759 15.228 16.7279 14.232 17.3504C11.754 18.7964 10.2105 20.6534 9.07948 22.9154C9.0318 23.0038 9.00237 23.1009 8.99293 23.2009C8.98349 23.3009 8.99423 23.4018 9.02452 23.4976C9.05481 23.5933 9.10402 23.682 9.16924 23.7584C9.23446 23.8348 9.31436 23.8973 9.4042 23.9422C9.49404 23.9872 9.59199 24.0136 9.69223 24.0199C9.79247 24.0263 9.89296 24.0124 9.98775 23.9792C10.0825 23.9459 10.1697 23.894 10.244 23.8265C10.3183 23.7589 10.3784 23.6771 10.4205 23.5859C10.9965 22.4369 11.685 21.4034 12.5925 20.4839C12.6225 20.5409 12.6575 20.6029 12.6975 20.6699C12.8625 20.9489 13.1175 21.3224 13.4655 21.6989C14.163 22.4489 15.2865 23.2499 16.875 23.2499C17.853 23.2499 18.666 23.0009 19.332 22.5659C19.992 22.1369 20.469 21.5534 20.826 20.9414C21.378 19.9964 21.6945 18.8714 21.9285 18.0374C21.9875 17.8264 22.042 17.6379 22.092 17.4719C22.3515 16.6259 22.731 15.8669 23.082 15.2459C23.261 14.9359 23.4235 14.6654 23.5695 14.4344L23.5935 14.3954C23.7105 14.2137 23.8196 14.0271 23.9205 13.8359C23.9775 13.7217 24.0044 13.5947 23.9986 13.4671C23.9928 13.3396 23.9546 13.2156 23.8875 13.1069Z" fill="black"/>
</g>
<defs>
<clipPath id="clip0_1818_10726">
<rect width="24" height="24" fill="white"/>
</clipPath>
</defs>
</svg>
