<svg width="24" height="24" viewBox="0 0 24 24" fill="none" xmlns="http://www.w3.org/2000/svg">
<path d="M17.7853 1.12817L16.47 5.22538L17.7951 5.50386L17.6499 6.22349L15.2007 8.46613L12.7866 6.44464L11.6895 6.25278C12.0747 5.58106 12.3778 4.71669 12.4585 3.92806C12.9282 3.82119 14.0954 3.66205 14.6191 3.45655C14.3849 2.97444 13.2037 2.66408 12.3363 2.69174C12.2551 1.72081 11.9201 1.32983 10.7353 1.38383C9.5505 1.43778 9.18975 1.69325 9.32156 3.09116C8.43722 3.28461 7.53577 3.68253 7.45875 4.36072C7.82766 4.34633 9.00375 4.22497 9.36769 4.21958C9.39862 4.88052 9.57394 5.52491 9.83503 5.92466L8.187 5.63755L4.96875 9.18392L8.59425 11.8031L8.67042 12.5926L7.06777 22.7059H8.86659L10.6626 14.7723L12.9067 22.7059H14.6631L14.496 21.9368L15.2973 22.7059L18.2533 7.58722C18.4882 7.37441 18.6876 7.18967 18.8202 7.05697C18.8285 6.56305 18.7013 6.16906 18.5814 5.90853L18.627 5.67875L19.9037 5.94706L20.2995 1.58221L19.2286 4.80631L18.7201 4.70056L19.0312 1.29472L18.0202 4.55488L17.4944 4.44552L17.7853 1.12817ZM19.0312 1.29472L19.0312 1.29425H19.0312V1.29472ZM8.57081 7.19024L8.58694 10.1947L7.11038 9.08141L8.57081 7.19024ZM12.6973 8.18642L15.082 10.3397C15.082 10.3397 16.1598 9.42772 17.1855 8.53358L14.4931 21.9193L12.4863 12.6601L12.6973 8.18642Z" fill="black"/>
</svg>
