<svg width="24" height="24" viewBox="0 0 24 24" fill="none" xmlns="http://www.w3.org/2000/svg">
<g clip-path="url(#clip0_1818_10724)">
<path fill-rule="evenodd" clip-rule="evenodd" d="M9.25 2.5C7.384 2.5 5.621 2.6185 4.308 2.74C3.89946 2.77464 3.51701 2.95509 3.2305 3.24839C2.944 3.54168 2.77256 3.92826 2.7475 4.3375C2.628 6.008 2.5 8.596 2.5 12C2.5 16.1765 2.596 19.345 2.663 21.0455C2.673 21.297 2.878 21.5 3.144 21.5H6.5125C6.505 21.0805 6.5 20.5845 6.5 20C6.5 18.8885 6.5175 18.097 6.5395 17.5425C6.572 16.7175 7.0445 15.953 7.937 15.83C8.2805 15.7825 8.712 15.75 9.25 15.75C9.7885 15.75 10.22 15.7825 10.563 15.83C11.4555 15.953 11.928 16.7175 11.9605 17.5425C11.9825 18.0965 12 18.888 12 20C12 20.5845 11.995 21.0805 11.9875 21.5H15.361C15.4836 21.5022 15.6021 21.4564 15.6914 21.3725C15.7807 21.2885 15.8337 21.173 15.839 21.0505C15.906 19.39 16 16.288 16 12C16 8.5105 15.875 5.9515 15.757 4.315C15.7316 3.91092 15.5615 3.52951 15.2778 3.24057C14.9942 2.95162 14.616 2.77446 14.2125 2.7415C12.8975 2.62 11.1255 2.5 9.25 2.5ZM4.1245 0.748C5.477 0.623 7.3045 0.5 9.25 0.5C11.2055 0.5 13.042 0.625 14.397 0.75C15.2723 0.82667 16.0914 1.21358 16.7066 1.84095C17.3218 2.46832 17.6925 3.29486 17.752 4.1715C17.829 5.243 17.9085 6.6885 17.956 8.509C18.951 8.528 19.8475 8.574 20.596 8.626C22.082 8.7295 23.2335 9.899 23.336 11.3815C23.421 12.5995 23.499 14.2115 23.499 16C23.499 18.336 23.4325 20.496 23.379 21.842C23.3608 22.289 23.1699 22.7114 22.8467 23.0206C22.5234 23.3298 22.0928 23.5017 21.6455 23.5H3.144C2.50369 23.5017 1.88765 23.2551 1.42529 22.8122C0.962932 22.3692 0.69024 21.7643 0.6645 21.1245C0.597 19.4015 0.5 16.2065 0.5 12C0.5 8.546 0.63 5.91 0.7525 4.195C0.811674 3.31291 1.1839 2.48094 1.80212 1.84897C2.42034 1.21699 3.24392 0.826561 4.1245 0.748ZM7.5 6C7.5 5.73478 7.39464 5.48043 7.20711 5.29289C7.01957 5.10536 6.76522 5 6.5 5C6.23478 5 5.98043 5.10536 5.79289 5.29289C5.60536 5.48043 5.5 5.73478 5.5 6V7C5.5 7.26522 5.60536 7.51957 5.79289 7.70711C5.98043 7.89464 6.23478 8 6.5 8C6.76522 8 7.01957 7.89464 7.20711 7.70711C7.39464 7.51957 7.5 7.26522 7.5 7V6ZM6.5 10.5C6.76522 10.5 7.01957 10.6054 7.20711 10.7929C7.39464 10.9804 7.5 11.2348 7.5 11.5V12.5C7.5 12.7652 7.39464 13.0196 7.20711 13.2071C7.01957 13.3946 6.76522 13.5 6.5 13.5C6.23478 13.5 5.98043 13.3946 5.79289 13.2071C5.60536 13.0196 5.5 12.7652 5.5 12.5V11.5C5.5 11.2348 5.60536 10.9804 5.79289 10.7929C5.98043 10.6054 6.23478 10.5 6.5 10.5ZM13 6C13 5.73478 12.8946 5.48043 12.7071 5.29289C12.5196 5.10536 12.2652 5 12 5C11.7348 5 11.4804 5.10536 11.2929 5.29289C11.1054 5.48043 11 5.73478 11 6V7C11 7.26522 11.1054 7.51957 11.2929 7.70711C11.4804 7.89464 11.7348 8 12 8C12.2652 8 12.5196 7.89464 12.7071 7.70711C12.8946 7.51957 13 7.26522 13 7V6ZM12 10.5C12.2652 10.5 12.5196 10.6054 12.7071 10.7929C12.8946 10.9804 13 11.2348 13 11.5V12.5C13 12.7652 12.8946 13.0196 12.7071 13.2071C12.5196 13.3946 12.2652 13.5 12 13.5C11.7348 13.5 11.4804 13.3946 11.2929 13.2071C11.1054 13.0196 11 12.7652 11 12.5V11.5C11 11.2348 11.1054 10.9804 11.2929 10.7929C11.4804 10.6054 11.7348 10.5 12 10.5Z" fill="black"/>
</g>
<defs>
<clipPath id="clip0_1818_10724">
<rect width="24" height="24" fill="white"/>
</clipPath>
</defs>
</svg>
