<svg width="1728" height="894" viewBox="0 0 1728 894" fill="none" xmlns="http://www.w3.org/2000/svg">
<path d="M842.938 203.928C483.816 -85.5643 46.5887 -4.61414 -127.135 72.0527L-489 893.898H1760.79V219.225C1604.47 334.748 1202.06 493.42 842.938 203.928Z" fill="url(#paint0_linear_3102_13920)"/>
<mask id="mask0_3102_13920" style="mask-type:luminance" maskUnits="userSpaceOnUse" x="220" y="443" width="93" height="51">
<path d="M220.92 443.989H312.208V493.965H220.92V443.989Z" fill="white"/>
</mask>
<g mask="url(#mask0_3102_13920)">
<path d="M223.561 490.994C224.103 491.324 224.671 491.403 225.278 491.258C225.886 491.099 226.348 490.756 226.678 490.214C242.276 464.249 269.654 448.757 299.912 448.757C302.315 448.757 304.759 448.85 307.149 449.061C307.77 449.114 308.325 448.942 308.813 448.533C309.289 448.123 309.553 447.608 309.606 446.987C309.659 446.353 309.487 445.799 309.077 445.323C308.668 444.835 308.153 444.57 307.519 444.531C305.01 444.32 302.447 444.214 299.912 444.214C296.042 444.214 292.185 444.452 288.355 444.953C284.512 445.442 280.735 446.182 276.997 447.172C273.246 448.15 269.588 449.378 266.009 450.831C262.43 452.283 258.956 453.974 255.588 455.876C252.221 457.778 248.998 459.891 245.908 462.215C242.804 464.54 239.885 467.049 237.112 469.757C234.338 472.451 231.763 475.317 229.359 478.354C226.969 481.392 224.776 484.562 222.782 487.877C222.465 488.418 222.373 488.986 222.531 489.594C222.676 490.201 223.02 490.677 223.561 490.994Z" fill="url(#paint1_linear_3102_13920)"/>
</g>
<mask id="mask1_3102_13920" style="mask-type:luminance" maskUnits="userSpaceOnUse" x="210" y="493" width="180" height="132">
<path d="M210 493.965H389.974V624.029H210V493.965Z" fill="white"/>
</mask>
<g mask="url(#mask1_3102_13920)">
<path d="M389.829 534.128C389.829 530.047 389.551 525.979 389.01 521.924C388.917 521.304 388.627 520.802 388.138 520.432C387.636 520.049 387.068 519.904 386.448 519.983C385.827 520.062 385.325 520.366 384.955 520.855C384.572 521.357 384.427 521.911 384.506 522.532C385.021 526.388 385.286 530.245 385.286 534.128C385.286 535.779 385.233 537.403 385.14 539.028H307.614V537.324C308.75 537.073 309.82 536.624 310.824 536.003C311.814 535.383 312.686 534.603 313.412 533.692C314.152 532.781 314.707 531.764 315.103 530.654C315.486 529.545 315.684 528.409 315.684 527.234C315.684 522.704 312.012 509.061 305.343 509.061C298.66 509.061 294.988 522.717 294.988 527.234C294.988 528.409 295.186 529.545 295.583 530.654C295.966 531.764 296.534 532.781 297.26 533.692C298 534.617 298.858 535.383 299.862 536.003C300.852 536.624 301.922 537.073 303.071 537.324V539.028H284.357V537.324C285.506 537.073 286.575 536.624 287.566 536.003C288.556 535.383 289.428 534.617 290.154 533.692C290.894 532.781 291.462 531.764 291.845 530.654C292.241 529.545 292.426 528.409 292.426 527.234C292.426 522.717 288.768 509.061 282.085 509.061C275.402 509.061 271.744 522.717 271.744 527.234C271.744 528.409 271.942 529.545 272.325 530.654C272.721 531.764 273.276 532.781 274.015 533.692C274.742 534.617 275.613 535.383 276.604 536.003C277.594 536.624 278.664 537.073 279.813 537.324V539.028H270.251L246.729 515.519C246.28 515.07 245.752 514.845 245.118 514.845C244.497 514.845 243.956 515.07 243.52 515.519L240.02 519.019L226.668 505.68C226.219 505.231 225.69 505.006 225.056 505.006C224.436 505.006 223.894 505.231 223.458 505.68L217.542 511.596C218.796 506.974 220.447 502.497 222.468 498.152C222.745 497.584 222.772 496.989 222.56 496.395C222.349 495.801 221.953 495.378 221.372 495.101C220.804 494.837 220.223 494.81 219.628 495.035C219.034 495.259 218.611 495.655 218.347 496.237C215.138 503.131 212.84 510.315 211.466 517.804C211.215 518.253 211.136 518.728 211.215 519.243C210.397 524.17 209.987 529.136 210 534.128C210 536.584 210.093 539.028 210.291 541.445C210.291 541.497 210.304 541.537 210.304 541.577C210.529 544.363 210.898 547.124 211.387 549.871C211.876 552.618 212.483 555.339 213.223 558.02C213.962 560.714 214.834 563.355 215.825 565.97C216.802 568.572 217.911 571.134 219.14 573.644C220.368 576.14 221.702 578.583 223.155 580.974C224.607 583.351 226.166 585.662 227.843 587.894C229.507 590.126 231.277 592.279 233.139 594.353C235.015 596.426 236.969 598.407 239.03 600.296C241.077 602.184 243.216 603.967 245.435 605.658C247.654 607.348 249.939 608.933 252.303 610.412C254.68 611.892 257.11 613.252 259.593 614.507C262.089 615.748 264.638 616.884 267.24 617.901C269.829 618.918 272.47 619.803 275.151 620.569C277.832 621.335 280.553 621.982 283.287 622.497C286.034 623.012 288.794 623.395 291.568 623.659C294.341 623.923 297.128 624.042 299.915 624.042C302.701 624.042 305.488 623.91 308.261 623.659C311.035 623.395 313.795 623.012 316.542 622.497C319.276 621.982 321.997 621.335 324.678 620.569C327.359 619.803 330 618.905 332.589 617.901C335.191 616.884 337.74 615.748 340.236 614.493C342.719 613.252 345.149 611.892 347.526 610.412C349.89 608.933 352.175 607.348 354.394 605.658C356.613 603.967 358.752 602.184 360.799 600.296C362.86 598.407 364.814 596.426 366.69 594.353C368.552 592.279 370.322 590.126 371.986 587.894C373.65 585.649 375.222 583.351 376.674 580.96C378.127 578.583 379.461 576.14 380.689 573.63C381.918 571.134 383.014 568.572 384.004 565.97C384.995 563.355 385.853 560.701 386.593 558.02C387.333 555.325 387.953 552.618 388.442 549.871C388.931 547.124 389.287 544.35 389.525 541.577C389.525 541.537 389.525 541.497 389.525 541.458C389.723 539.028 389.829 536.584 389.829 534.128ZM299.532 527.234C299.532 525.477 300.298 521.819 301.711 518.504C303.243 514.938 304.748 513.604 305.343 513.604C305.924 513.604 307.429 514.938 308.961 518.504C310.375 521.819 311.141 525.477 311.141 527.234C311.141 528.396 310.824 529.466 310.176 530.43C309.529 531.407 308.684 532.12 307.614 532.569V523.324C307.614 522.69 307.39 522.162 306.941 521.713C306.505 521.277 305.963 521.053 305.343 521.053C304.709 521.053 304.18 521.277 303.731 521.713C303.282 522.162 303.071 522.69 303.071 523.324V532.569C302.001 532.12 301.143 531.407 300.496 530.43C299.862 529.466 299.532 528.396 299.532 527.234ZM276.274 527.234C276.274 525.477 277.04 521.819 278.466 518.504C279.985 514.938 281.491 513.604 282.085 513.604C282.679 513.604 284.185 514.938 285.704 518.504C287.13 521.819 287.883 525.477 287.883 527.234C287.883 528.396 287.566 529.466 286.919 530.43C286.285 531.407 285.426 532.12 284.357 532.569V523.324C284.357 522.69 284.132 522.162 283.696 521.713C283.247 521.277 282.706 521.053 282.085 521.053C281.451 521.053 280.923 521.277 280.474 521.713C280.038 522.162 279.813 522.69 279.813 523.324V532.569C278.743 532.12 277.885 531.407 277.251 530.43C276.604 529.466 276.287 528.396 276.287 527.234H276.274ZM383.965 549.131H358.449L356.283 543.571H384.757C384.559 545.446 384.282 547.295 383.965 549.131ZM380.993 560.859C380.927 560.859 380.861 560.859 380.808 560.859H362.992L360.205 553.674H383.027C382.446 556.118 381.772 558.508 380.993 560.859ZM375.063 574.608H368.328L364.748 565.402H379.355C378.114 568.559 376.674 571.623 375.063 574.608ZM370.969 581.409L370.097 579.151H372.422C371.946 579.904 371.458 580.657 370.969 581.409ZM363.547 590.971H326.316L324.784 579.151H365.211L367.812 585.821C366.452 587.59 365.039 589.307 363.547 590.971ZM329.327 614.282L326.897 595.515H359.175C350.551 603.862 340.593 610.122 329.327 614.282ZM240.641 595.515H272.919L270.502 614.282C259.223 610.122 249.278 603.862 240.641 595.515ZM236.269 590.971C234.79 589.307 233.364 587.59 232.017 585.821L234.605 579.151H275.045L273.513 590.971H236.269ZM216.802 553.674H239.611L236.837 560.859H219.021C218.955 560.859 218.889 560.859 218.836 560.859C218.057 558.508 217.37 556.118 216.802 553.674ZM279.642 543.571L278.928 549.131H246.254L248.407 543.571H279.642ZM315.605 543.571L316.318 549.131H283.498L284.224 543.571H315.605ZM351.409 543.571L353.575 549.131H320.901L320.174 543.571H351.409ZM277.41 560.859H241.711L244.484 553.674H278.334L277.41 560.859ZM282.917 553.674H316.912L317.837 560.859H281.992L282.917 553.674ZM276.815 565.402L275.627 574.608H236.375L239.941 565.402H276.815ZM281.398 565.402H318.418L319.62 574.608H280.209L281.398 565.402ZM323.001 565.402H359.875L363.454 574.608H324.189L323.001 565.402ZM322.42 560.859L321.495 553.674H355.332L358.118 560.859H322.42ZM241.38 549.131H215.864C215.534 547.309 215.27 545.446 215.059 543.571H243.546L241.38 549.131ZM235.067 565.402L231.502 574.608H224.766C223.141 571.623 221.715 568.559 220.474 565.402H235.067ZM227.407 579.151H229.732L228.86 581.409C228.358 580.657 227.883 579.904 227.407 579.151ZM279.615 579.151H320.201L321.733 590.971H278.096L279.615 579.151ZM225.056 510.487L236.798 522.228L231.911 527.128C231.449 527.564 231.224 528.105 231.224 528.739C231.211 529.373 231.436 529.915 231.885 530.364C232.334 530.813 232.875 531.024 233.509 531.024C234.143 531.024 234.684 530.786 235.12 530.337L245.118 520.34L263.819 539.028H214.676C214.583 537.403 214.544 535.779 214.544 534.128C214.53 529.334 214.927 524.566 215.719 519.825L225.056 510.487ZM274.887 615.761L277.502 595.515H322.314L324.942 615.761C316.78 618.257 308.446 619.499 299.915 619.499C291.383 619.499 283.036 618.257 274.887 615.761Z" fill="url(#paint2_linear_3102_13920)"/>
</g>
<mask id="mask2_3102_13920" style="mask-type:luminance" maskUnits="userSpaceOnUse" x="302" y="443" width="88" height="89">
<path d="M302.064 443.989H389.971V531.156H302.064V443.989Z" fill="white"/>
</mask>
<g mask="url(#mask2_3102_13920)">
<path d="M314.387 453.538L305.723 462.202C305.287 462.638 305.062 463.179 305.062 463.8C305.062 464.434 305.287 464.962 305.723 465.411L330.116 489.805C329.549 490.452 329.113 491.179 328.809 491.997C328.518 492.816 328.386 493.648 328.413 494.52C328.426 495.378 328.611 496.21 328.954 497.003C329.298 497.809 329.773 498.508 330.394 499.116L331.041 499.776L326.775 504.042C326.128 503.791 325.468 503.659 324.781 503.646C324.081 503.633 323.407 503.739 322.76 503.976C322.113 504.201 321.519 504.544 320.99 504.98C320.462 505.429 320.026 505.957 319.696 506.552C319.353 507.159 319.128 507.793 319.022 508.48C318.917 509.167 318.93 509.84 319.075 510.514C319.207 511.201 319.471 511.821 319.841 512.416C320.211 512.997 320.66 513.499 321.215 513.908C321.77 514.331 322.377 514.634 323.037 514.833C323.698 515.031 324.371 515.11 325.058 515.057C325.745 515.017 326.405 514.846 327.039 514.568C327.673 514.278 328.228 513.895 328.716 513.406C329.522 512.601 330.037 511.636 330.275 510.514C330.499 509.404 330.407 508.321 329.984 507.252L334.25 502.986L334.911 503.646C335.518 504.254 336.231 504.742 337.024 505.072C337.816 505.416 338.648 505.601 339.52 505.627C340.378 505.654 341.224 505.521 342.042 505.218C342.848 504.927 343.575 504.491 344.222 503.91L368.615 528.304C369.064 528.753 369.593 528.964 370.227 528.964C370.847 528.964 371.389 528.753 371.825 528.304L389.152 510.976C389.601 510.54 389.826 509.999 389.826 509.378C389.826 508.744 389.601 508.216 389.152 507.767L364.759 483.373C365.34 482.726 365.776 482 366.079 481.181C366.37 480.375 366.502 479.53 366.476 478.658C366.463 477.8 366.278 476.968 365.934 476.175C365.591 475.37 365.102 474.67 364.495 474.062L359.965 469.532C359.357 468.924 358.657 468.449 357.851 468.106C357.059 467.762 356.227 467.577 355.368 467.551C354.497 467.525 353.665 467.657 352.846 467.96C352.027 468.251 351.301 468.687 350.654 469.268L326.26 444.874C325.824 444.438 325.283 444.214 324.662 444.214C324.028 444.214 323.5 444.438 323.051 444.874L314.387 453.538ZM325.507 510.184C325.269 510.408 324.992 510.527 324.675 510.527C324.358 510.527 324.081 510.408 323.843 510.184C323.619 509.959 323.5 509.682 323.5 509.365C323.5 509.035 323.619 508.757 323.843 508.533C324.081 508.295 324.358 508.189 324.675 508.189C325.005 508.189 325.283 508.295 325.507 508.533C325.732 508.757 325.851 509.035 325.851 509.365C325.851 509.682 325.732 509.959 325.507 510.184ZM315.998 458.359L321.453 463.8L315.998 469.255L310.543 463.8L315.998 458.359ZM338.767 463.8L333.313 469.255L327.871 463.8L333.313 458.359L338.767 463.8ZM330.103 472.464L324.662 477.919L319.207 472.464L324.662 467.023L330.103 472.464ZM333.326 486.582L327.871 481.128L333.326 475.673L338.767 481.128L333.326 486.582ZM375.681 500.714L370.227 506.169L364.772 500.714L370.227 495.273L375.681 500.714ZM356.121 509.378L361.563 503.923L367.017 509.378L361.563 514.833L356.121 509.378ZM361.563 497.505L356.121 492.05L361.563 486.609L367.017 492.05L361.563 497.505ZM352.912 495.26L358.353 500.714L352.912 506.169L347.457 500.714L352.912 495.26ZM370.227 523.483L364.785 518.042L370.227 512.587L375.681 518.042L370.227 523.483ZM378.89 514.833L373.436 509.378L378.89 503.923L384.345 509.378L378.89 514.833ZM355.17 472.094C355.791 472.081 356.319 472.305 356.768 472.755L361.285 477.271C361.721 477.707 361.946 478.249 361.946 478.869C361.946 479.49 361.721 480.018 361.285 480.454L359.965 481.775V481.788L341.316 500.437C340.867 500.873 340.339 501.097 339.718 501.097C339.097 501.097 338.569 500.873 338.12 500.437L333.603 495.907C333.167 495.471 332.943 494.943 332.943 494.322C332.943 493.688 333.167 493.16 333.603 492.724L343.588 482.739L352.238 474.075L353.572 472.755C354.008 472.305 354.536 472.081 355.17 472.094ZM341.976 477.919L336.535 472.464L341.976 467.023L347.431 472.464L341.976 477.919ZM324.662 449.695L330.103 455.149L324.662 460.591L319.207 455.149L324.662 449.695Z" fill="url(#paint3_linear_3102_13920)"/>
</g>
<path d="M207.296 719.087V713.774C208.259 714.582 209.305 715.191 210.434 715.601C211.562 715.999 212.702 716.198 213.854 716.198C214.529 716.198 215.115 716.137 215.613 716.016C216.122 715.894 216.543 715.728 216.875 715.518C217.218 715.296 217.473 715.042 217.639 714.754C217.805 714.455 217.888 714.134 217.888 713.791C217.888 713.326 217.755 712.911 217.489 712.546C217.224 712.181 216.858 711.843 216.394 711.533C215.94 711.223 215.397 710.924 214.767 710.637C214.136 710.349 213.455 710.056 212.725 709.757C210.865 708.982 209.476 708.036 208.558 706.918C207.65 705.8 207.196 704.45 207.196 702.867C207.196 701.628 207.445 700.565 207.943 699.68C208.441 698.783 209.117 698.047 209.969 697.472C210.832 696.896 211.828 696.476 212.957 696.21C214.086 695.933 215.281 695.795 216.543 695.795C217.783 695.795 218.878 695.872 219.83 696.027C220.793 696.171 221.678 696.398 222.486 696.708V701.672C222.088 701.395 221.651 701.152 221.175 700.941C220.71 700.731 220.229 700.56 219.73 700.427C219.232 700.283 218.734 700.178 218.236 700.111C217.749 700.045 217.285 700.012 216.842 700.012C216.233 700.012 215.68 700.073 215.182 700.194C214.684 700.305 214.263 700.465 213.92 700.676C213.577 700.886 213.311 701.141 213.123 701.439C212.935 701.727 212.841 702.054 212.841 702.419C212.841 702.817 212.946 703.177 213.156 703.498C213.367 703.808 213.665 704.107 214.053 704.395C214.44 704.671 214.91 704.948 215.464 705.225C216.017 705.49 216.643 705.767 217.34 706.055C218.292 706.453 219.144 706.879 219.896 707.333C220.66 707.776 221.313 708.279 221.855 708.844C222.398 709.408 222.813 710.056 223.101 710.786C223.388 711.506 223.532 712.347 223.532 713.31C223.532 714.638 223.278 715.756 222.769 716.663C222.271 717.56 221.59 718.29 220.727 718.854C219.863 719.408 218.856 719.806 217.705 720.05C216.565 720.293 215.359 720.415 214.086 720.415C212.78 720.415 211.535 720.304 210.351 720.083C209.177 719.862 208.159 719.53 207.296 719.087ZM241.08 720H236.116V717.56H236.05C234.91 719.463 233.222 720.415 230.986 720.415C229.337 720.415 228.037 719.95 227.085 719.021C226.144 718.08 225.674 716.829 225.674 715.269C225.674 711.97 227.627 710.067 231.534 709.558L236.149 708.943C236.149 707.084 235.142 706.154 233.128 706.154C231.103 706.154 229.177 706.757 227.351 707.964V704.013C228.081 703.636 229.077 703.304 230.339 703.017C231.612 702.729 232.768 702.585 233.809 702.585C238.656 702.585 241.08 705.003 241.08 709.84V720ZM236.149 713.094V711.948L233.062 712.347C231.357 712.568 230.505 713.337 230.505 714.654C230.505 715.252 230.71 715.744 231.119 716.132C231.54 716.508 232.104 716.696 232.812 716.696C233.798 716.696 234.6 716.359 235.22 715.684C235.84 714.997 236.149 714.134 236.149 713.094ZM255.507 719.801C254.732 720.21 253.564 720.415 252.004 720.415C248.307 720.415 246.459 718.495 246.459 714.654V706.868H243.703V703H246.459V699.331L251.688 697.837V703H255.507V706.868H251.688V713.741C251.688 715.512 252.391 716.397 253.797 716.397C254.35 716.397 254.92 716.237 255.507 715.916V719.801ZM273.619 712.994H262.529C262.706 715.462 264.261 716.696 267.194 716.696C269.065 716.696 270.708 716.254 272.125 715.368V719.153C270.553 719.994 268.511 720.415 265.999 720.415C263.254 720.415 261.124 719.657 259.607 718.141C258.091 716.613 257.333 714.488 257.333 711.766C257.333 708.943 258.152 706.708 259.79 705.059C261.428 703.41 263.442 702.585 265.833 702.585C268.312 702.585 270.227 703.321 271.577 704.793C272.938 706.265 273.619 708.263 273.619 710.786V712.994ZM268.755 709.773C268.755 707.339 267.77 706.121 265.8 706.121C264.959 706.121 264.228 706.47 263.608 707.167C263 707.864 262.629 708.733 262.496 709.773H268.755ZM281.986 720H276.74V694.832H281.986V720ZM291.648 720H286.402V694.832H291.648V720ZM298.721 700.311C297.835 700.311 297.11 700.05 296.546 699.53C295.981 698.999 295.699 698.352 295.699 697.588C295.699 696.802 295.981 696.16 296.546 695.662C297.11 695.164 297.835 694.915 298.721 694.915C299.617 694.915 300.342 695.164 300.896 695.662C301.46 696.16 301.742 696.802 301.742 697.588C301.742 698.385 301.46 699.038 300.896 699.547C300.342 700.056 299.617 700.311 298.721 700.311ZM301.311 720H296.064V703H301.311V720ZM316.003 719.801C315.228 720.21 314.061 720.415 312.5 720.415C308.803 720.415 306.955 718.495 306.955 714.654V706.868H304.199V703H306.955V699.331L312.185 697.837V703H316.003V706.868H312.185V713.741C312.185 715.512 312.887 716.397 314.293 716.397C314.846 716.397 315.416 716.237 316.003 715.916V719.801ZM334.115 712.994H323.025C323.202 715.462 324.757 716.696 327.69 716.696C329.561 716.696 331.204 716.254 332.621 715.368V719.153C331.049 719.994 329.007 720.415 326.495 720.415C323.75 720.415 321.62 719.657 320.104 718.141C318.587 716.613 317.829 714.488 317.829 711.766C317.829 708.943 318.648 706.708 320.286 705.059C321.924 703.41 323.938 702.585 326.329 702.585C328.808 702.585 330.723 703.321 332.073 704.793C333.435 706.265 334.115 708.263 334.115 710.786V712.994ZM329.251 709.773C329.251 707.339 328.266 706.121 326.296 706.121C325.455 706.121 324.724 706.47 324.104 707.167C323.496 707.864 323.125 708.733 322.992 709.773H329.251ZM347.147 720V696.193H355.581C364.037 696.193 368.265 700.062 368.265 707.798C368.265 711.506 367.108 714.466 364.795 716.68C362.493 718.893 359.422 720 355.581 720H347.147ZM352.51 700.56V715.65H355.166C357.49 715.65 359.311 714.953 360.628 713.559C361.956 712.164 362.62 710.266 362.62 707.864C362.62 705.595 361.962 703.813 360.645 702.519C359.339 701.213 357.501 700.56 355.133 700.56H352.51ZM385.846 720H380.882V717.56H380.815C379.675 719.463 377.988 720.415 375.752 720.415C374.103 720.415 372.802 719.95 371.851 719.021C370.91 718.08 370.439 716.829 370.439 715.269C370.439 711.97 372.393 710.067 376.3 709.558L380.915 708.943C380.915 707.084 379.908 706.154 377.894 706.154C375.868 706.154 373.942 706.757 372.116 707.964V704.013C372.847 703.636 373.843 703.304 375.104 703.017C376.377 702.729 377.534 702.585 378.574 702.585C383.422 702.585 385.846 705.003 385.846 709.84V720ZM380.915 713.094V711.948L377.827 712.347C376.123 712.568 375.271 713.337 375.271 714.654C375.271 715.252 375.475 715.744 375.885 716.132C376.305 716.508 376.87 716.696 377.578 716.696C378.563 716.696 379.366 716.359 379.985 715.684C380.605 714.997 380.915 714.134 380.915 713.094ZM400.272 719.801C399.498 720.21 398.33 720.415 396.77 720.415C393.073 720.415 391.225 718.495 391.225 714.654V706.868H388.469V703H391.225V699.331L396.454 697.837V703H400.272V706.868H396.454V713.741C396.454 715.512 397.157 716.397 398.562 716.397C399.116 716.397 399.686 716.237 400.272 715.916V719.801ZM417.389 720H412.425V717.56H412.358C411.218 719.463 409.531 720.415 407.295 720.415C405.646 720.415 404.345 719.95 403.394 719.021C402.453 718.08 401.982 716.829 401.982 715.269C401.982 711.97 403.936 710.067 407.843 709.558L412.458 708.943C412.458 707.084 411.451 706.154 409.437 706.154C407.411 706.154 405.485 706.757 403.659 707.964V704.013C404.39 703.636 405.386 703.304 406.647 703.017C407.92 702.729 409.077 702.585 410.117 702.585C414.965 702.585 417.389 705.003 417.389 709.84V720ZM412.458 713.094V711.948L409.37 712.347C407.666 712.568 406.813 713.337 406.813 714.654C406.813 715.252 407.018 715.744 407.428 716.132C407.848 716.508 408.413 716.696 409.121 716.696C410.106 716.696 410.909 716.359 411.528 715.684C412.148 714.997 412.458 714.134 412.458 713.094Z" fill="black"/>
<path d="M773.579 557H767.735L766.042 551.704H757.575L755.898 557H750.088L758.754 533.193H765.112L773.579 557ZM764.813 547.587L762.257 539.585C762.069 538.987 761.936 538.273 761.858 537.443H761.726C761.67 538.141 761.532 538.832 761.311 539.519L758.721 547.587H764.813ZM783.905 533.193V537.344H781.913V552.85H783.905V557H774.559V552.85H776.551V537.344H774.559V533.193H783.905ZM802.101 548.799V557H796.738V533.193H805.139C811.137 533.193 814.137 535.722 814.137 540.78C814.137 543.171 813.273 545.108 811.547 546.591C809.831 548.063 807.535 548.799 804.657 548.799H802.101ZM802.101 537.311V544.731H804.209C807.064 544.731 808.492 543.481 808.492 540.979C808.492 538.534 807.064 537.311 804.209 537.311H802.101ZM828.198 544.731C827.567 544.388 826.831 544.217 825.99 544.217C824.85 544.217 823.959 544.637 823.317 545.479C822.675 546.309 822.354 547.443 822.354 548.882V557H817.108V540H822.354V543.154H822.421C823.251 540.852 824.745 539.701 826.903 539.701C827.457 539.701 827.888 539.768 828.198 539.9V544.731ZM838.624 557.415C835.791 557.415 833.561 556.624 831.934 555.041C830.318 553.447 829.51 551.289 829.51 548.566C829.51 545.755 830.351 543.558 832.033 541.976C833.715 540.382 835.99 539.585 838.856 539.585C841.679 539.585 843.892 540.382 845.497 541.976C847.102 543.558 847.904 545.656 847.904 548.268C847.904 551.09 847.074 553.32 845.414 554.958C843.765 556.596 841.502 557.415 838.624 557.415ZM838.757 543.603C837.517 543.603 836.554 544.029 835.868 544.881C835.182 545.733 834.839 546.939 834.839 548.5C834.839 551.765 836.156 553.397 838.79 553.397C841.302 553.397 842.559 551.721 842.559 548.367C842.559 545.191 841.291 543.603 838.757 543.603ZM864.19 556.386C863.006 557.072 861.296 557.415 859.061 557.415C856.449 557.415 854.335 556.624 852.719 555.041C851.103 553.458 850.295 551.416 850.295 548.915C850.295 546.026 851.158 543.752 852.885 542.092C854.622 540.421 856.941 539.585 859.841 539.585C861.844 539.585 863.294 539.851 864.19 540.382V544.831C863.095 544.012 861.872 543.603 860.521 543.603C859.016 543.603 857.821 544.045 856.936 544.931C856.061 545.805 855.624 547.017 855.624 548.566C855.624 550.072 856.045 551.256 856.886 552.119C857.727 552.971 858.883 553.397 860.355 553.397C861.661 553.397 862.94 552.988 864.19 552.169V556.386ZM882.917 549.994H871.827C872.004 552.462 873.559 553.696 876.492 553.696C878.363 553.696 880.006 553.254 881.423 552.368V556.153C879.851 556.994 877.809 557.415 875.297 557.415C872.552 557.415 870.422 556.657 868.905 555.141C867.389 553.613 866.631 551.488 866.631 548.766C866.631 545.943 867.45 543.708 869.088 542.059C870.726 540.41 872.74 539.585 875.131 539.585C877.61 539.585 879.525 540.321 880.875 541.793C882.236 543.265 882.917 545.263 882.917 547.786V549.994ZM878.053 546.773C878.053 544.339 877.068 543.121 875.098 543.121C874.257 543.121 873.526 543.47 872.906 544.167C872.298 544.864 871.927 545.733 871.794 546.773H878.053ZM884.926 556.552V552.302C885.789 552.822 886.647 553.209 887.499 553.464C888.362 553.718 889.176 553.846 889.939 553.846C890.869 553.846 891.6 553.718 892.131 553.464C892.673 553.209 892.944 552.822 892.944 552.302C892.944 551.97 892.823 551.693 892.579 551.472C892.336 551.25 892.02 551.057 891.633 550.891C891.257 550.725 890.841 550.575 890.388 550.442C889.934 550.31 889.497 550.16 889.076 549.994C888.401 549.74 887.803 549.468 887.283 549.181C886.774 548.882 886.342 548.539 885.988 548.151C885.645 547.764 885.38 547.316 885.191 546.807C885.014 546.298 884.926 545.694 884.926 544.997C884.926 544.045 885.131 543.226 885.54 542.54C885.961 541.854 886.514 541.295 887.2 540.863C887.897 540.421 888.689 540.1 889.574 539.9C890.471 539.69 891.4 539.585 892.363 539.585C893.116 539.585 893.88 539.646 894.654 539.768C895.429 539.878 896.193 540.044 896.945 540.266V544.316C896.281 543.929 895.567 543.641 894.804 543.453C894.051 543.254 893.31 543.154 892.579 543.154C892.236 543.154 891.91 543.188 891.6 543.254C891.301 543.309 891.035 543.398 890.803 543.52C890.57 543.63 890.388 543.78 890.255 543.968C890.122 544.145 890.056 544.35 890.056 544.582C890.056 544.892 890.155 545.158 890.354 545.379C890.554 545.6 890.814 545.794 891.135 545.96C891.456 546.115 891.81 546.259 892.197 546.392C892.596 546.513 892.989 546.641 893.376 546.773C894.073 547.017 894.704 547.283 895.269 547.57C895.833 547.858 896.314 548.196 896.713 548.583C897.122 548.97 897.432 549.424 897.643 549.944C897.864 550.465 897.975 551.084 897.975 551.804C897.975 552.811 897.753 553.674 897.311 554.394C896.879 555.102 896.298 555.683 895.567 556.137C894.848 556.579 894.012 556.9 893.061 557.1C892.12 557.31 891.14 557.415 890.122 557.415C888.252 557.415 886.52 557.127 884.926 556.552ZM899.9 556.552V552.302C900.764 552.822 901.621 553.209 902.474 553.464C903.337 553.718 904.15 553.846 904.914 553.846C905.844 553.846 906.574 553.718 907.105 553.464C907.648 553.209 907.919 552.822 907.919 552.302C907.919 551.97 907.797 551.693 907.554 551.472C907.31 551.25 906.995 551.057 906.607 550.891C906.231 550.725 905.816 550.575 905.362 550.442C904.909 550.31 904.471 550.16 904.051 549.994C903.376 549.74 902.778 549.468 902.258 549.181C901.749 548.882 901.317 548.539 900.963 548.151C900.62 547.764 900.354 547.316 900.166 546.807C899.989 546.298 899.9 545.694 899.9 544.997C899.9 544.045 900.105 543.226 900.515 542.54C900.935 541.854 901.489 541.295 902.175 540.863C902.872 540.421 903.663 540.1 904.549 539.9C905.445 539.69 906.375 539.585 907.338 539.585C908.09 539.585 908.854 539.646 909.629 539.768C910.404 539.878 911.167 540.044 911.92 540.266V544.316C911.256 543.929 910.542 543.641 909.778 543.453C909.026 543.254 908.284 543.154 907.554 543.154C907.211 543.154 906.884 543.188 906.574 543.254C906.275 543.309 906.01 543.398 905.777 543.52C905.545 543.63 905.362 543.78 905.229 543.968C905.097 544.145 905.03 544.35 905.03 544.582C905.03 544.892 905.13 545.158 905.329 545.379C905.528 545.6 905.788 545.794 906.109 545.96C906.43 546.115 906.785 546.259 907.172 546.392C907.57 546.513 907.963 546.641 908.351 546.773C909.048 547.017 909.679 547.283 910.243 547.57C910.808 547.858 911.289 548.196 911.688 548.583C912.097 548.97 912.407 549.424 912.617 549.944C912.839 550.465 912.949 551.084 912.949 551.804C912.949 552.811 912.728 553.674 912.285 554.394C911.854 555.102 911.272 555.683 910.542 556.137C909.823 556.579 908.987 556.9 908.035 557.1C907.094 557.31 906.115 557.415 905.097 557.415C903.226 557.415 901.494 557.127 899.9 556.552ZM918.644 537.311C917.758 537.311 917.033 537.05 916.469 536.53C915.904 535.999 915.622 535.352 915.622 534.588C915.622 533.802 915.904 533.16 916.469 532.662C917.033 532.164 917.758 531.915 918.644 531.915C919.54 531.915 920.265 532.164 920.818 532.662C921.383 533.16 921.665 533.802 921.665 534.588C921.665 535.385 921.383 536.038 920.818 536.547C920.265 537.056 919.54 537.311 918.644 537.311ZM921.233 557H915.987V540H921.233V557ZM942.068 557H936.839V547.554C936.839 544.92 935.898 543.603 934.017 543.603C933.109 543.603 932.362 543.951 931.775 544.648C931.189 545.346 930.896 546.231 930.896 547.305V557H925.649V540H930.896V542.689H930.962C932.213 540.62 934.033 539.585 936.424 539.585C940.187 539.585 942.068 541.92 942.068 546.591V557ZM962.903 555.058C962.903 558.212 961.99 560.652 960.164 562.379C958.338 564.117 955.693 564.985 952.229 564.985C949.938 564.985 948.122 564.659 946.783 564.006V559.59C948.532 560.608 950.297 561.117 952.079 561.117C953.85 561.117 955.222 560.647 956.196 559.706C957.17 558.776 957.657 557.509 957.657 555.904V554.56H957.591C956.396 556.463 954.63 557.415 952.295 557.415C950.126 557.415 948.405 556.651 947.132 555.124C945.859 553.597 945.223 551.549 945.223 548.981C945.223 546.104 945.931 543.818 947.348 542.125C948.764 540.432 950.629 539.585 952.942 539.585C955.012 539.585 956.562 540.382 957.591 541.976H957.657V540H962.903V555.058ZM957.724 548.832V547.487C957.724 546.414 957.403 545.501 956.761 544.748C956.13 543.984 955.305 543.603 954.287 543.603C953.125 543.603 952.212 544.056 951.548 544.964C950.884 545.871 950.552 547.15 950.552 548.799C950.552 550.215 950.867 551.339 951.498 552.169C952.129 552.988 952.992 553.397 954.088 553.397C955.173 553.397 956.047 552.982 956.711 552.152C957.386 551.311 957.724 550.204 957.724 548.832Z" fill="black"/>
<path d="M1287.55 700.56H1279.15V706.403H1286.87V710.753H1279.15V720H1273.79V696.193H1287.55V700.56ZM1304.09 720H1299.12V717.56H1299.06C1297.92 719.463 1296.23 720.415 1293.99 720.415C1292.35 720.415 1291.04 719.95 1290.09 719.021C1289.15 718.08 1288.68 716.829 1288.68 715.269C1288.68 711.97 1290.64 710.067 1294.54 709.558L1299.16 708.943C1299.16 707.084 1298.15 706.154 1296.14 706.154C1294.11 706.154 1292.18 706.757 1290.36 707.964V704.013C1291.09 703.636 1292.08 703.304 1293.35 703.017C1294.62 702.729 1295.78 702.585 1296.82 702.585C1301.66 702.585 1304.09 705.003 1304.09 709.84V720ZM1299.16 713.094V711.948L1296.07 712.347C1294.36 712.568 1293.51 713.337 1293.51 714.654C1293.51 715.252 1293.72 715.744 1294.13 716.132C1294.55 716.508 1295.11 716.696 1295.82 716.696C1296.81 716.696 1297.61 716.359 1298.23 715.684C1298.85 714.997 1299.16 714.134 1299.16 713.094ZM1319.33 707.731C1318.7 707.388 1317.96 707.217 1317.12 707.217C1315.98 707.217 1315.09 707.637 1314.45 708.479C1313.81 709.309 1313.48 710.443 1313.48 711.882V720H1308.24V703H1313.48V706.154H1313.55C1314.38 703.852 1315.88 702.701 1318.03 702.701C1318.59 702.701 1319.02 702.768 1319.33 702.9V707.731ZM1348.88 720H1343.65V710.305C1343.65 707.837 1342.74 706.603 1340.93 706.603C1340.06 706.603 1339.36 706.973 1338.82 707.715C1338.28 708.456 1338 709.381 1338 710.487V720H1332.76V710.205C1332.76 707.803 1331.87 706.603 1330.09 706.603C1329.19 706.603 1328.47 706.957 1327.93 707.665C1327.4 708.373 1327.13 709.336 1327.13 710.554V720H1321.88V703H1327.13V705.656H1327.2C1327.74 704.749 1328.5 704.013 1329.47 703.448C1330.46 702.873 1331.53 702.585 1332.69 702.585C1335.09 702.585 1336.74 703.642 1337.62 705.756C1338.92 703.642 1340.82 702.585 1343.33 702.585C1347.03 702.585 1348.88 704.865 1348.88 709.425V720ZM1368.3 712.994H1357.21C1357.39 715.462 1358.94 716.696 1361.88 716.696C1363.75 716.696 1365.39 716.254 1366.81 715.368V719.153C1365.24 719.994 1363.19 720.415 1360.68 720.415C1357.94 720.415 1355.81 719.657 1354.29 718.141C1352.77 716.613 1352.02 714.488 1352.02 711.766C1352.02 708.943 1352.84 706.708 1354.47 705.059C1356.11 703.41 1358.13 702.585 1360.52 702.585C1363 702.585 1364.91 703.321 1366.26 704.793C1367.62 706.265 1368.3 708.263 1368.3 710.786V712.994ZM1363.44 709.773C1363.44 707.339 1362.45 706.121 1360.48 706.121C1359.64 706.121 1358.91 706.47 1358.29 707.167C1357.68 707.864 1357.31 708.733 1357.18 709.773H1363.44ZM1382.51 707.731C1381.88 707.388 1381.15 707.217 1380.31 707.217C1379.17 707.217 1378.27 707.637 1377.63 708.479C1376.99 709.309 1376.67 710.443 1376.67 711.882V720H1371.42V703H1376.67V706.154H1376.74C1377.57 703.852 1379.06 702.701 1381.22 702.701C1381.77 702.701 1382.2 702.768 1382.51 702.9V707.731ZM1402.24 696.193V700.344H1400.24V715.85H1402.24V720H1392.89V715.85H1394.88V700.344H1392.89V696.193H1402.24ZM1421.58 720H1416.35V710.554C1416.35 707.92 1415.41 706.603 1413.53 706.603C1412.62 706.603 1411.87 706.951 1411.28 707.648C1410.7 708.346 1410.4 709.231 1410.4 710.305V720H1405.16V703H1410.4V705.689H1410.47C1411.72 703.62 1413.54 702.585 1415.93 702.585C1419.7 702.585 1421.58 704.92 1421.58 709.591V720ZM1424.63 719.552V715.302C1425.5 715.822 1426.35 716.209 1427.21 716.464C1428.07 716.718 1428.88 716.846 1429.65 716.846C1430.58 716.846 1431.31 716.718 1431.84 716.464C1432.38 716.209 1432.65 715.822 1432.65 715.302C1432.65 714.97 1432.53 714.693 1432.29 714.472C1432.04 714.25 1431.73 714.057 1431.34 713.891C1430.96 713.725 1430.55 713.575 1430.09 713.442C1429.64 713.31 1429.2 713.16 1428.78 712.994C1428.11 712.74 1427.51 712.468 1426.99 712.181C1426.48 711.882 1426.05 711.539 1425.69 711.151C1425.35 710.764 1425.09 710.316 1424.9 709.807C1424.72 709.298 1424.63 708.694 1424.63 707.997C1424.63 707.045 1424.84 706.226 1425.25 705.54C1425.67 704.854 1426.22 704.295 1426.91 703.863C1427.6 703.421 1428.39 703.1 1429.28 702.9C1430.18 702.69 1431.11 702.585 1432.07 702.585C1432.82 702.585 1433.59 702.646 1434.36 702.768C1435.14 702.878 1435.9 703.044 1436.65 703.266V707.316C1435.99 706.929 1435.27 706.641 1434.51 706.453C1433.76 706.254 1433.02 706.154 1432.29 706.154C1431.94 706.154 1431.62 706.188 1431.31 706.254C1431.01 706.309 1430.74 706.398 1430.51 706.52C1430.28 706.63 1430.09 706.78 1429.96 706.968C1429.83 707.145 1429.76 707.35 1429.76 707.582C1429.76 707.892 1429.86 708.158 1430.06 708.379C1430.26 708.6 1430.52 708.794 1430.84 708.96C1431.16 709.115 1431.52 709.259 1431.9 709.392C1432.3 709.513 1432.69 709.641 1433.08 709.773C1433.78 710.017 1434.41 710.283 1434.97 710.57C1435.54 710.858 1436.02 711.196 1436.42 711.583C1436.83 711.97 1437.14 712.424 1437.35 712.944C1437.57 713.465 1437.68 714.084 1437.68 714.804C1437.68 715.811 1437.46 716.674 1437.02 717.394C1436.58 718.102 1436 718.683 1435.27 719.137C1434.55 719.579 1433.72 719.9 1432.77 720.1C1431.83 720.31 1430.85 720.415 1429.83 720.415C1427.96 720.415 1426.23 720.127 1424.63 719.552ZM1443.38 700.311C1442.49 700.311 1441.76 700.05 1441.2 699.53C1440.64 698.999 1440.35 698.352 1440.35 697.588C1440.35 696.802 1440.64 696.16 1441.2 695.662C1441.76 695.164 1442.49 694.915 1443.38 694.915C1444.27 694.915 1445 695.164 1445.55 695.662C1446.11 696.16 1446.4 696.802 1446.4 697.588C1446.4 698.385 1446.11 699.038 1445.55 699.547C1445 700.056 1444.27 700.311 1443.38 700.311ZM1445.96 720H1440.72V703H1445.96V720ZM1467.05 718.058C1467.05 721.212 1466.14 723.652 1464.31 725.379C1462.48 727.117 1459.84 727.985 1456.37 727.985C1454.08 727.985 1452.27 727.659 1450.93 727.006V722.59C1452.68 723.608 1454.44 724.117 1456.22 724.117C1458 724.117 1459.37 723.647 1460.34 722.706C1461.32 721.776 1461.8 720.509 1461.8 718.904V717.56H1461.74C1460.54 719.463 1458.78 720.415 1456.44 720.415C1454.27 720.415 1452.55 719.651 1451.28 718.124C1450 716.597 1449.37 714.549 1449.37 711.981C1449.37 709.104 1450.08 706.818 1451.49 705.125C1452.91 703.432 1454.77 702.585 1457.09 702.585C1459.16 702.585 1460.71 703.382 1461.74 704.976H1461.8V703H1467.05V718.058ZM1461.87 711.832V710.487C1461.87 709.414 1461.55 708.501 1460.91 707.748C1460.28 706.984 1459.45 706.603 1458.43 706.603C1457.27 706.603 1456.36 707.056 1455.69 707.964C1455.03 708.871 1454.7 710.15 1454.7 711.799C1454.7 713.215 1455.01 714.339 1455.64 715.169C1456.27 715.988 1457.14 716.397 1458.23 716.397C1459.32 716.397 1460.19 715.982 1460.86 715.152C1461.53 714.311 1461.87 713.204 1461.87 711.832ZM1487.75 720H1482.52V710.338C1482.52 707.848 1481.61 706.603 1479.8 706.603C1478.87 706.603 1478.12 706.951 1477.54 707.648C1476.97 708.346 1476.68 709.231 1476.68 710.305V720H1471.43V694.832H1476.68V705.523H1476.74C1478.03 703.564 1479.77 702.585 1481.97 702.585C1485.83 702.585 1487.75 704.909 1487.75 709.558V720ZM1502.19 719.801C1501.42 720.21 1500.25 720.415 1498.69 720.415C1494.99 720.415 1493.15 718.495 1493.15 714.654V706.868H1490.39V703H1493.15V699.331L1498.38 697.837V703H1502.19V706.868H1498.38V713.741C1498.38 715.512 1499.08 716.397 1500.48 716.397C1501.04 716.397 1501.61 716.237 1502.19 715.916V719.801ZM1504.05 719.552V715.302C1504.92 715.822 1505.77 716.209 1506.63 716.464C1507.49 716.718 1508.3 716.846 1509.07 716.846C1510 716.846 1510.73 716.718 1511.26 716.464C1511.8 716.209 1512.07 715.822 1512.07 715.302C1512.07 714.97 1511.95 714.693 1511.71 714.472C1511.46 714.25 1511.15 714.057 1510.76 713.891C1510.38 713.725 1509.97 713.575 1509.52 713.442C1509.06 713.31 1508.62 713.16 1508.2 712.994C1507.53 712.74 1506.93 712.468 1506.41 712.181C1505.9 711.882 1505.47 711.539 1505.12 711.151C1504.77 710.764 1504.51 710.316 1504.32 709.807C1504.14 709.298 1504.05 708.694 1504.05 707.997C1504.05 707.045 1504.26 706.226 1504.67 705.54C1505.09 704.854 1505.64 704.295 1506.33 703.863C1507.03 703.421 1507.82 703.1 1508.7 702.9C1509.6 702.69 1510.53 702.585 1511.49 702.585C1512.24 702.585 1513.01 702.646 1513.78 702.768C1514.56 702.878 1515.32 703.044 1516.07 703.266V707.316C1515.41 706.929 1514.7 706.641 1513.93 706.453C1513.18 706.254 1512.44 706.154 1511.71 706.154C1511.36 706.154 1511.04 706.188 1510.73 706.254C1510.43 706.309 1510.16 706.398 1509.93 706.52C1509.7 706.63 1509.52 706.78 1509.38 706.968C1509.25 707.145 1509.18 707.35 1509.18 707.582C1509.18 707.892 1509.28 708.158 1509.48 708.379C1509.68 708.6 1509.94 708.794 1510.26 708.96C1510.58 709.115 1510.94 709.259 1511.33 709.392C1511.72 709.513 1512.12 709.641 1512.5 709.773C1513.2 710.017 1513.83 710.283 1514.4 710.57C1514.96 710.858 1515.44 711.196 1515.84 711.583C1516.25 711.97 1516.56 712.424 1516.77 712.944C1516.99 713.465 1517.1 714.084 1517.1 714.804C1517.1 715.811 1516.88 716.674 1516.44 717.394C1516.01 718.102 1515.43 718.683 1514.7 719.137C1513.98 719.579 1513.14 719.9 1512.19 720.1C1511.25 720.31 1510.27 720.415 1509.25 720.415C1507.38 720.415 1505.65 720.127 1504.05 719.552Z" fill="black"/>
<path d="M818.006 673.43L806.227 705.705H810.712L813.329 698.485H827.537L830.153 705.705H834.643L822.912 673.43H818.006ZM814.547 695.038L820.435 678.647L826.322 695.038H814.547Z" fill="url(#paint4_linear_3102_13920)"/>
<path d="M839.783 673.242H844.035V705.705H839.783V673.242Z" fill="url(#paint5_linear_3102_13920)"/>
<mask id="mask3_3102_13920" style="mask-type:luminance" maskUnits="userSpaceOnUse" x="740" y="623" width="161" height="133">
<path d="M740 623.924H900.929V755.022H740V623.924Z" fill="white"/>
</mask>
<g mask="url(#mask3_3102_13920)">
<path d="M895.409 708.584C893.009 708.584 890.961 710.121 890.204 712.259H873.752L866.368 704.904H854.016V697.009H881.107C881.753 699.331 883.891 701.044 886.422 701.044C889.468 701.044 891.942 698.575 891.942 695.541C891.942 692.511 889.468 690.042 886.422 690.042C883.891 690.042 881.753 691.751 881.107 694.073H854.016V684.869H881.107C881.753 687.192 883.891 688.901 886.422 688.901C889.468 688.901 891.942 686.435 891.942 683.402C891.942 680.368 889.468 677.902 886.422 677.902C883.891 677.902 881.753 679.611 881.107 681.934H854.016V674.039H866.368L873.752 666.683H890.094C890.74 669.006 892.878 670.715 895.409 670.715C898.455 670.715 900.929 668.249 900.929 665.215C900.929 662.182 898.455 659.716 895.409 659.716C892.878 659.716 890.74 661.425 890.094 663.748H872.529L865.145 671.107H854.016V666.565C854.016 663.326 851.37 660.689 848.116 660.689H838.859V651.895L849.866 640.925H869.217C869.863 643.247 872.006 644.96 874.537 644.96C877.579 644.96 880.056 642.491 880.056 639.457C880.056 636.427 877.579 633.958 874.537 633.958C872.006 633.958 869.863 635.671 869.217 637.989H848.647L835.915 650.68V660.693H826.655V638.856C828.973 638.206 830.678 636.08 830.678 633.565C830.678 630.531 828.2 628.062 825.158 628.062C822.112 628.062 819.638 630.531 819.638 633.565C819.638 636.096 821.364 638.234 823.707 638.868V660.693H818.04V646.391C818.04 640.393 815.697 634.755 811.441 630.515C807.184 626.275 801.526 623.937 795.507 623.937C786.345 623.937 778.204 629.452 774.737 637.674C774.672 637.768 774.614 637.871 774.569 637.981C774.361 638.517 774.177 639.056 774.013 639.604C763.146 639.989 754.429 648.914 754.429 659.835C754.429 661.004 754.527 662.165 754.727 663.306C750.418 666.25 746.82 670.175 744.273 674.717C741.48 679.706 740 685.381 740 691.129C740 698.207 742.167 704.949 746.268 710.681C745.871 712.464 745.667 714.295 745.667 716.139C745.667 722.305 747.948 728.225 752.09 732.805C755.97 737.102 761.191 739.898 766.883 740.761C766.997 740.945 767.149 741.096 767.324 741.211C769.532 745.132 772.697 748.456 776.532 750.864C780.845 753.575 785.834 755.006 790.957 755.006C798.189 755.006 804.993 752.201 810.108 747.103C815.223 742.008 818.04 735.229 818.04 728.021V718.253H823.707V740.074C821.364 740.712 819.638 742.85 819.638 745.381C819.638 748.415 822.112 750.881 825.154 750.881C828.2 750.881 830.674 748.415 830.674 745.381C830.674 742.867 828.973 740.741 826.655 740.091V718.253H835.915V728.266L848.647 740.953H868.78C869.426 743.276 871.564 744.989 874.099 744.989C877.141 744.989 879.619 742.519 879.619 739.486C879.619 736.456 877.141 733.986 874.099 733.986C871.564 733.986 869.426 735.699 868.78 738.018H849.866L838.859 727.052V718.253H848.116C851.37 718.253 854.016 715.616 854.016 712.378V707.839H865.145L872.529 715.195H890.004C890.523 717.697 892.751 719.582 895.409 719.582C898.455 719.582 900.929 717.117 900.929 714.083C900.929 711.049 898.455 708.584 895.409 708.584ZM886.426 692.977C887.845 692.977 888.998 694.13 888.998 695.545C888.998 696.96 887.845 698.108 886.426 698.108C885.004 698.108 883.851 696.955 883.851 695.545C883.851 694.13 885.004 692.977 886.426 692.977ZM886.426 680.838C887.845 680.838 888.998 681.987 888.998 683.402C888.998 684.816 887.845 685.965 886.426 685.965C885.004 685.965 883.851 684.816 883.851 683.402C883.851 681.987 885.004 680.838 886.426 680.838ZM895.409 662.652C896.832 662.652 897.985 663.805 897.985 665.215C897.985 666.63 896.828 667.783 895.409 667.783C893.99 667.783 892.837 666.63 892.837 665.215C892.837 663.805 893.99 662.652 895.409 662.652ZM874.537 636.893C875.955 636.893 877.112 638.046 877.112 639.457C877.112 640.872 875.955 642.025 874.537 642.025C873.118 642.025 871.965 640.872 871.965 639.457C871.965 638.046 873.118 636.893 874.537 636.893ZM822.582 633.565C822.582 632.151 823.739 630.998 825.158 630.998C826.577 630.998 827.73 632.151 827.73 633.565C827.73 634.976 826.577 636.129 825.158 636.129C823.739 636.129 822.582 634.98 822.582 633.565ZM827.73 745.381C827.73 746.796 826.577 747.949 825.158 747.949C823.739 747.949 822.582 746.796 822.582 745.381C822.582 743.967 823.739 742.818 825.158 742.818C826.577 742.818 827.73 743.967 827.73 745.381ZM874.099 736.922C875.518 736.922 876.675 738.071 876.675 739.486C876.675 740.9 875.518 742.053 874.099 742.053C872.68 742.053 871.527 740.9 871.527 739.486C871.527 738.071 872.68 736.922 874.099 736.922ZM815.096 723.564C809.989 723.683 805.152 725.605 801.334 729.064C797.135 732.866 794.673 738.071 794.399 743.721C794.363 744.531 794.988 745.218 795.802 745.259C795.826 745.259 795.851 745.259 795.871 745.259C796.656 745.259 797.306 744.645 797.343 743.86C797.801 734.285 805.631 726.766 815.096 726.5V728.021C815.096 741.285 804.269 752.074 790.961 752.074C781.761 752.074 773.486 746.98 769.365 738.778L769.23 738.516C768.077 734.183 768.547 729.64 770.595 725.609C772.807 721.262 776.581 718.032 781.226 716.516C781.998 716.262 782.42 715.436 782.166 714.663C781.913 713.895 781.083 713.474 780.31 713.727C774.917 715.489 770.534 719.234 767.97 724.28C765.848 728.454 765.182 733.103 766.016 737.625C755.954 735.483 748.615 726.606 748.615 716.139C748.615 714.304 748.84 712.484 749.289 710.726L749.461 710.047L749.04 709.487C745.054 704.152 742.948 697.802 742.948 691.129C742.948 680.605 748.259 670.919 757.16 665.219L758.027 664.663L757.798 663.662C757.516 662.419 757.373 661.131 757.373 659.835C757.373 650.758 764.421 643.292 773.347 642.581C772.766 646.485 773.302 650.484 774.937 654.184C775.6 655.677 776.417 657.071 777.378 658.346C772.734 658.952 768.449 661.053 765.096 664.418C761.097 668.429 758.902 673.752 758.922 679.407C758.922 680.217 759.58 680.871 760.394 680.871H760.398C761.212 680.871 761.87 680.208 761.866 679.399C761.833 669.427 769.88 661.278 779.852 661.106C781.81 662.93 784.12 664.385 786.692 665.379C786.868 665.448 787.048 665.481 787.228 665.481C787.817 665.481 788.373 665.125 788.598 664.545C788.892 663.788 788.516 662.938 787.759 662.644C783.201 660.881 779.607 657.455 777.632 652.999C775.939 649.168 775.616 644.964 776.683 640.974C779.091 632.649 786.762 626.872 795.507 626.872C806.31 626.872 815.096 635.63 815.096 646.391V650.312C805.606 652.398 796.023 646.673 793.479 637.225C793.267 636.444 792.457 635.978 791.672 636.19C790.887 636.399 790.421 637.204 790.634 637.985C792.106 643.448 795.622 648.015 800.536 650.84C803.811 652.721 807.442 653.681 811.122 653.681C812.442 653.681 813.771 653.559 815.096 653.305V660.693H802.147C798.897 660.693 796.251 663.326 796.251 666.569V712.378C796.251 715.616 798.897 718.253 802.147 718.253H815.096V723.564ZM851.068 712.378C851.068 714.001 849.747 715.318 848.116 715.318H802.147C800.52 715.318 799.195 714.001 799.195 712.378V666.569C799.195 664.946 800.52 663.625 802.147 663.625H848.116C849.743 663.625 851.068 664.946 851.068 666.569V712.378ZM895.409 716.646C893.99 716.646 892.837 715.497 892.837 714.083C892.837 712.668 893.99 711.519 895.409 711.519C896.832 711.519 897.985 712.668 897.985 714.083C897.985 715.497 896.828 716.646 895.409 716.646Z" fill="url(#paint6_linear_3102_13920)"/>
</g>
<path d="M789.138 698.652C784.583 696.89 780.985 693.468 779.011 689.007C777.04 684.551 776.93 679.595 778.696 675.053C778.99 674.296 778.614 673.446 777.858 673.152C777.097 672.861 776.247 673.233 775.952 673.99C773.933 679.17 774.027 684.816 776.202 689.919C771.279 690.389 766.72 692.532 763.192 696.072C759.189 700.083 756.997 705.407 757.014 711.065C757.018 711.875 757.676 712.525 758.486 712.525C758.49 712.525 758.49 712.525 758.49 712.525C759.303 712.525 759.962 711.863 759.958 711.053C759.929 701.175 767.828 693.08 777.674 692.769C780.086 696.686 783.7 699.699 788.075 701.392C788.251 701.457 788.431 701.49 788.607 701.49C789.195 701.49 789.751 701.134 789.98 700.554C790.275 699.797 789.899 698.947 789.138 698.652Z" fill="url(#paint7_linear_3102_13920)"/>
<mask id="mask4_3102_13920" style="mask-type:luminance" maskUnits="userSpaceOnUse" x="900" y="673" width="89" height="83">
<path d="M900.771 673.041H988.305V755.104H900.771V673.041Z" fill="white"/>
</mask>
<g mask="url(#mask4_3102_13920)">
<path d="M986.258 675.707C985.783 675.494 974.388 670.584 963.926 675.752C955.196 680.066 944.059 692.045 947.645 704.119C946.496 706.564 945.637 709.119 945.04 711.765C944.043 708.11 939.189 692.904 926.412 687.229C911.861 680.773 902.089 689.016 901.692 689.367C901.034 689.936 900.756 690.823 900.973 691.665C901.046 691.939 908.034 718.008 935.943 718.008C937.611 718.008 939.357 717.918 941.197 717.718C941.258 717.718 941.303 717.685 941.364 717.685C942.419 719.509 943.217 721.451 943.63 723.471C942.358 739.457 943.11 752.631 943.11 752.782C943.188 754.004 944.198 754.941 945.408 754.941C945.453 754.941 945.498 754.941 945.547 754.941C946.815 754.863 947.784 753.776 947.706 752.508C947.706 752.34 946.708 734.915 948.99 715.972C949.313 713.327 949.942 710.804 950.875 708.355C950.936 708.355 950.997 708.383 951.075 708.383C951.136 708.383 951.198 708.383 951.259 708.383C951.627 708.355 988.617 705.247 987.668 677.694C987.636 676.823 987.1 676.03 986.307 675.678L986.258 675.707ZM905.887 692.017C908.508 690.393 915.324 687.319 924.56 691.42C931.744 694.601 936.078 701.699 938.437 707.022C931.041 700.141 922.172 696.101 921.575 695.84C920.427 695.32 919.061 695.84 918.542 697.005C918.018 698.166 918.542 699.511 919.703 700.03C919.858 700.108 931.102 705.219 938.208 713.372C915.524 714.598 907.727 697.307 905.887 692.017ZM953.156 703.583C956.803 697.34 962.715 691.8 971.019 686.861C972.107 686.219 972.459 684.796 971.817 683.709C971.171 682.621 969.748 682.269 968.66 682.911C961.337 687.274 955.699 692.107 951.688 697.463C952.804 689.539 960.785 682.425 965.978 679.853C968.811 678.463 971.784 677.989 974.495 677.989C978.142 677.989 981.327 678.827 983.044 679.395C982.521 697.953 960.434 702.557 953.144 703.567L953.156 703.583Z" fill="url(#paint8_linear_3102_13920)"/>
</g>
<path d="M1366.27 588.874H1380.29V593.686H1366.27V588.874Z" fill="url(#paint9_linear_3102_13920)"/>
<mask id="mask5_3102_13920" style="mask-type:luminance" maskUnits="userSpaceOnUse" x="1274" y="424" width="210" height="209">
<path d="M1274 424H1484V632.25H1274V424Z" fill="white"/>
</mask>
<g mask="url(#mask5_3102_13920)">
<path d="M1473.99 489.99C1479.5 489.944 1483.95 485.46 1484 479.963V434.026C1484 428.493 1479.53 424.045 1473.99 424.009H1403.1C1397.56 424.009 1393.05 428.493 1393.05 434.026V465.371H1297.82C1293.11 465.417 1289.34 469.181 1289.3 473.875V546.582L1276.01 561.092L1275.89 561.256C1274.68 562.824 1274 564.747 1274 566.707V631.53H1278.82V566.707C1278.82 565.823 1279.14 564.984 1279.66 564.264L1289.3 553.719V579.577C1286.17 581.865 1283.76 585.064 1282.43 588.719L1286.93 590.396C1287.49 588.874 1288.3 587.47 1289.3 586.194C1290.59 584.544 1292.23 583.186 1294.12 582.302L1294.4 582.184L1295.01 581.983L1299.7 576.45L1304.52 570.836L1310.83 563.499H1310.87C1312.48 561.493 1315.57 561.174 1317.78 562.697C1318.83 563.426 1319.55 564.547 1319.75 565.786C1319.95 566.907 1319.63 568.074 1318.94 568.949L1312.88 577.371L1309.46 582.184L1306.21 586.713L1306.41 587.716C1306.41 587.789 1307.58 594.087 1306.98 599.738C1306.86 600.941 1306.61 602.144 1306.26 603.302C1306.13 603.749 1306.01 604.15 1305.85 604.551C1302.76 613.483 1297.62 615.771 1293.84 617.493L1293.24 617.74L1295.25 622.142L1295.81 621.868C1300.07 619.945 1307.18 616.737 1310.87 604.751C1310.91 604.669 1310.91 604.633 1310.91 604.551H1334.49C1334.29 605.389 1334.05 606.228 1333.76 607.075C1332.04 612.845 1327.26 617.211 1321.36 618.414L1319.31 618.742V631.53H1324.13V622.707C1330.96 620.665 1336.3 615.37 1338.39 608.561C1338.79 607.312 1339.11 605.954 1339.43 604.551H1388.43L1388.96 604.988H1389.04L1417.96 625.551V632.204H1422.78V623.108L1396.63 604.551L1391.97 601.224C1391.45 600.777 1391 600.303 1390.6 599.738C1389.8 598.736 1389.16 597.496 1389.6 596.73C1392.25 591.881 1397.76 593.85 1398.6 594.206L1409.69 599.738L1419.29 604.551L1422.86 606.31V604.551L1422.78 599.738L1422.54 582.184V577.371L1422.22 555.204C1422.22 554.202 1422.58 553.281 1423.26 552.561C1423.94 551.878 1424.86 551.476 1425.83 551.476H1429.05C1431.1 551.476 1432.79 553.163 1432.79 555.204L1432.9 577.371V592H1437.73V581.7L1448.33 581.819V592H1453.15V581.901L1459.22 581.983H1463.03V591.963H1467.85V582.065H1468.85C1469.33 582.065 1469.85 582.101 1470.34 582.184C1474.59 582.986 1477.65 586.668 1477.69 590.961V632.25H1482.51V590.997C1482.47 584.025 1477.25 578.21 1470.34 577.371V489.99H1473.99ZM1397.88 434.026C1397.88 431.146 1400.21 428.822 1403.1 428.822H1473.99C1476.85 428.858 1479.18 431.182 1479.18 434.026V479.963C1479.18 482.807 1476.85 485.141 1473.99 485.177H1465.36C1464.63 485.177 1463.96 485.496 1463.51 486.061L1459.22 491.266L1454.4 497.199L1453.67 498.12V487.583C1453.67 486.262 1452.58 485.177 1451.26 485.177H1403.1C1400.21 485.141 1397.91 482.853 1397.88 479.963V434.026ZM1294.12 575.566V473.875C1294.12 471.824 1295.77 470.184 1297.82 470.184H1393.05V474.878H1299.7V569.077L1294.12 575.566ZM1417.92 598.453L1400.68 589.84H1400.53C1396.99 588.318 1389.28 587.315 1385.38 594.443C1384.38 596.247 1384.5 598.098 1385.11 599.775H1311.8C1312.08 595.81 1311.92 591.845 1311.32 587.917L1315.37 582.184H1417.68L1417.92 598.453ZM1437.73 576.888L1437.61 555.168C1437.56 550.474 1433.74 546.664 1429.05 546.664H1425.83C1421.14 546.664 1417.32 550.474 1417.32 555.168C1417.32 555.204 1417.32 555.241 1417.32 555.286L1417.64 577.371H1318.83L1322.85 571.756C1324.29 569.797 1324.89 567.391 1324.53 564.984C1324.13 562.46 1322.68 560.172 1320.55 558.732C1316.26 555.724 1310.39 556.444 1307.18 560.418L1304.52 563.462V479.681H1393.05V479.963C1393.1 485.496 1397.56 489.944 1403.1 489.99H1448.85V504.855C1448.85 505.858 1449.46 506.779 1450.41 507.143L1451.26 507.262C1451.98 507.262 1452.66 506.943 1453.11 506.378L1454.4 504.819V577.088L1437.73 576.888ZM1459.22 498.885L1465.52 491.193V577.253L1459.22 577.171V498.885Z" fill="url(#paint10_linear_3102_13920)"/>
</g>
<path d="M1465.2 476.436H1430.97L1435.71 470.903L1443.7 475.999L1448.93 471.387L1450.54 473.875L1464.07 468.78L1462.34 464.295L1452.51 468.023L1449.97 464.049L1443.23 469.983L1434.75 464.569L1428.97 471.35L1422.94 466.975L1414.46 473.875V465.653H1409.64V481.249H1465.2V476.436ZM1423.14 473.027L1427.8 476.436H1418.97L1423.14 473.027ZM1414.46 474.914L1415.67 476.436H1414.46V474.914Z" fill="url(#paint11_linear_3102_13920)"/>
<path d="M1458.21 438.838H1463.03V462.445H1458.21V438.838Z" fill="url(#paint12_linear_3102_13920)"/>
<path d="M1429.13 432.066H1433.94V462.445H1429.13V432.066Z" fill="url(#paint13_linear_3102_13920)"/>
<path d="M1415.19 454.115H1420.01V462.126H1415.19V454.115Z" fill="url(#paint14_linear_3102_13920)"/>
<path d="M1444.47 445.811H1449.29V462.491H1444.47V445.811Z" fill="url(#paint15_linear_3102_13920)"/>
<path d="M1372.09 520.733C1371.61 520.651 1360.04 518.408 1351 524.944C1348.43 526.821 1346.22 529.109 1344.41 531.716V516.358C1349.75 517.205 1355.22 515.838 1359.51 512.557C1368.11 505.739 1368.27 496.324 1368.27 495.923C1368.27 494.793 1367.51 493.79 1366.39 493.553C1365.94 493.471 1356.38 491.429 1348.91 497.363C1345.98 499.724 1343.61 502.731 1342 506.14C1340.44 502.731 1338.07 499.724 1335.13 497.363C1327.66 491.429 1318.06 493.471 1317.66 493.553C1316.54 493.79 1315.74 494.793 1315.77 495.923C1315.77 496.324 1315.94 505.739 1324.53 512.557C1327.9 515.237 1332.12 516.686 1336.46 516.604C1337.5 516.604 1338.55 516.522 1339.59 516.358V531.716C1337.78 529.109 1335.58 526.785 1333.01 524.944C1324 518.408 1312.44 520.651 1311.92 520.733C1310.8 520.97 1309.98 521.936 1309.98 523.093C1309.98 523.54 1310.18 534.204 1320.75 541.815C1325.62 545.388 1330.96 546.263 1335.1 546.263C1336.58 546.263 1338.1 546.144 1339.59 545.944V557.565H1330.03V562.377H1354.01V557.565H1344.41V545.944C1345.9 546.144 1347.43 546.263 1348.91 546.263C1353.09 546.263 1358.39 545.388 1363.3 541.815C1373.86 534.204 1374.01 523.54 1374.01 523.093C1374.06 521.936 1373.21 520.933 1372.09 520.733ZM1323.57 537.932C1317.54 533.557 1315.65 528.106 1315.09 525.181C1318.42 524.944 1324.97 525.062 1330.19 528.826C1335.41 532.6 1337.95 538.169 1338.9 541.177C1335.58 541.66 1329.11 541.933 1323.57 537.932ZM1351.88 501.127C1355.7 498.083 1360.48 497.846 1363.17 498.001C1362.33 502.294 1359.96 506.104 1356.51 508.783C1352.37 512.074 1347.71 512.028 1345.06 511.636C1345.86 508.984 1347.75 504.418 1351.88 501.127ZM1327.54 508.783C1324.08 506.104 1321.71 502.294 1320.88 498.001C1323.57 497.846 1328.3 498.083 1332.12 501.127C1335.93 504.181 1338.18 508.948 1338.99 511.636C1336.33 511.992 1331.64 512.074 1327.54 508.783ZM1360.48 537.932C1354.89 541.933 1348.47 541.66 1345.14 541.177C1346.1 538.169 1348.47 532.718 1353.85 528.826C1359.23 524.944 1365.58 524.944 1368.96 525.181C1368.35 528.143 1366.47 533.602 1360.48 537.932Z" fill="url(#paint16_linear_3102_13920)"/>
<path d="M1429.65 504.454C1428.8 498.083 1423.54 493.152 1417.15 493.152C1413.22 493.152 1409.52 495.039 1407.19 498.202C1405.95 497.719 1404.62 497.445 1403.26 497.445C1397.88 497.445 1393.37 501.328 1392.29 506.624C1388.92 508.629 1386.87 512.229 1386.87 516.121C1386.87 522.137 1391.57 526.986 1397.36 526.986H1429.4C1429.77 526.986 1430.09 526.904 1430.41 526.785C1434.43 524.98 1437.2 520.332 1437.2 515.483C1437.2 510.634 1434.15 506.059 1429.65 504.454ZM1428.85 522.173H1397.36C1394.22 522.173 1391.69 519.448 1391.69 516.121C1391.65 513.678 1393.14 511.436 1395.39 510.47C1396.23 510.151 1396.79 509.349 1396.87 508.465C1397.19 504.938 1399.93 502.249 1403.26 502.249C1404.5 502.249 1405.71 502.65 1406.72 503.333C1407.27 503.734 1408 503.853 1408.68 503.698C1409.36 503.497 1409.93 503.051 1410.24 502.413C1411.49 499.724 1414.18 497.965 1417.15 497.965C1421.46 497.965 1424.95 501.647 1424.95 506.223V506.341C1424.95 507.508 1425.79 508.547 1426.96 508.702C1430.05 509.23 1432.38 512.156 1432.38 515.483C1432.38 518.81 1430.9 521.016 1428.85 522.173Z" fill="url(#paint17_linear_3102_13920)"/>
<path d="M1430.77 531.269C1429.69 530.476 1428.2 530.713 1427.4 531.798L1420.97 540.612C1420.17 541.696 1420.41 543.182 1421.49 543.984C1421.89 544.257 1422.42 544.421 1422.91 544.421C1423.66 544.421 1424.43 544.057 1424.87 543.419L1431.3 534.642C1432.1 533.557 1431.86 532.071 1430.77 531.269Z" fill="url(#paint18_linear_3102_13920)"/>
<path d="M1408.64 531.27C1407.64 530.477 1406.15 530.668 1405.39 531.716C1405.35 531.753 1405.35 531.798 1405.31 531.798L1398.84 540.612C1398.08 541.697 1398.32 543.182 1399.36 543.984C1399.81 544.258 1400.28 544.422 1400.81 544.422C1401.57 544.422 1402.3 544.057 1402.74 543.419L1409.16 534.642C1409.96 533.557 1409.73 532.072 1408.64 531.27Z" fill="url(#paint19_linear_3102_13920)"/>
<path d="M1418.84 531.27C1417.8 530.477 1416.31 530.668 1415.51 531.716C1415.51 531.753 1415.47 531.753 1415.47 531.798L1412.26 536.2C1411.46 537.285 1411.69 538.771 1412.78 539.573C1413.18 539.855 1413.7 540.01 1414.18 540.01C1414.95 540.01 1415.67 539.655 1416.15 539.053L1419.37 534.642C1420.17 533.557 1419.92 532.072 1418.84 531.27Z" fill="url(#paint20_linear_3102_13920)"/>
<path d="M1398.31 531.27C1397.28 530.477 1395.79 530.668 1394.99 531.716C1394.99 531.753 1394.94 531.753 1394.94 531.798L1391.73 536.2C1390.93 537.285 1391.17 538.771 1392.25 539.573C1392.65 539.855 1393.17 540.01 1393.66 540.01C1394.42 540.01 1395.14 539.655 1395.63 539.053L1398.84 534.642C1399.6 533.557 1399.36 532.072 1398.31 531.27Z" fill="url(#paint21_linear_3102_13920)"/>
<path d="M1327.42 455.956L1330.35 459.765C1333.85 457.077 1338.55 456.995 1341.8 459.565L1344.77 455.792C1339.79 451.863 1332.64 451.909 1327.42 455.956Z" fill="url(#paint22_linear_3102_13920)"/>
<path d="M1351.97 448.181C1343.69 439.641 1329.67 439.723 1320.75 448.381L1324.13 451.827C1331.11 445.009 1342.09 444.891 1348.51 451.544L1351.97 448.181Z" fill="url(#paint23_linear_3102_13920)"/>
<path d="M1336.42 436.551C1343.69 436.432 1350.68 439.276 1355.74 444.49L1359.19 441.126C1353.29 435.074 1345.14 431.666 1336.66 431.748H1336.38C1327.62 431.866 1319.23 435.311 1312.96 441.445L1316.34 444.891C1321.68 439.604 1328.91 436.633 1336.42 436.551Z" fill="url(#paint24_linear_3102_13920)"/>
<path d="M708.842 674.814C709.844 674.35 710.279 673.16 709.814 672.158L702.24 655.83C701.775 654.828 700.586 654.392 699.584 654.857C698.582 655.322 698.146 656.511 698.611 657.513L705.344 672.027L690.83 678.76C689.828 679.225 689.392 680.414 689.857 681.416C690.322 682.418 691.511 682.854 692.513 682.389L708.842 674.814ZM394 558L393.312 559.878L397.05 561.247L397.738 559.369L398.426 557.491L394.688 556.122L394 558ZM405.214 562.107L404.526 563.985L412.003 566.723L412.69 564.845L413.378 562.967L405.902 560.229L405.214 562.107ZM420.167 567.583L419.479 569.461L426.955 572.199L427.643 570.321L428.331 568.443L420.854 565.705L420.167 567.583ZM435.119 573.06L434.431 574.938L441.907 577.676L442.595 575.798L443.283 573.92L435.807 571.182L435.119 573.06ZM450.071 578.536L449.384 580.414L456.86 583.152L457.548 581.274L458.235 579.396L450.759 576.658L450.071 578.536ZM465.024 584.012L464.336 585.89L471.812 588.628L472.5 586.75L473.188 584.872L465.712 582.134L465.024 584.012ZM479.976 589.488L479.288 591.366L486.765 594.104L487.452 592.226L488.14 590.348L480.664 587.61L479.976 589.488ZM494.929 594.964L494.241 596.842L501.717 599.58L502.405 597.702L503.093 595.824L495.616 593.086L494.929 594.964ZM509.881 600.44L509.193 602.318L516.669 605.057L517.357 603.179L518.045 601.301L510.569 598.562L509.881 600.44ZM524.833 605.917L524.146 607.795L531.622 610.533L532.31 608.655L532.997 606.777L525.521 604.039L524.833 605.917ZM539.786 611.393L539.098 613.271L546.574 616.009L547.262 614.131L547.95 612.253L540.474 609.515L539.786 611.393ZM554.738 616.869L554.05 618.747L561.526 621.485L562.214 619.607L562.902 617.729L555.426 614.991L554.738 616.869ZM569.691 622.345L569.003 624.223L576.479 626.961L577.167 625.083L577.854 623.205L570.378 620.467L569.691 622.345ZM584.643 627.821L583.955 629.699L591.431 632.438L592.119 630.56L592.807 628.682L585.331 625.943L584.643 627.821ZM599.595 633.298L598.907 635.176L606.384 637.914L607.071 636.036L607.759 634.158L600.283 631.42L599.595 633.298ZM614.548 638.774L613.86 640.652L621.336 643.39L622.024 641.512L622.712 639.634L615.235 636.896L614.548 638.774ZM629.5 644.25L628.812 646.128L636.288 648.866L636.976 646.988L637.664 645.11L630.188 642.372L629.5 644.25ZM644.452 649.726L643.765 651.604L651.241 654.342L651.929 652.464L652.616 650.586L645.14 647.848L644.452 649.726ZM659.405 655.202L658.717 657.08L666.193 659.819L666.881 657.94L667.569 656.062L660.093 653.324L659.405 655.202ZM674.357 660.679L673.669 662.557L681.146 665.295L681.833 663.417L682.521 661.539L675.045 658.801L674.357 660.679ZM689.31 666.155L688.622 668.033L696.098 670.771L696.786 668.893L697.474 667.015L689.997 664.277L689.31 666.155ZM704.262 671.631L703.574 673.509L707.312 674.878L708 673L708.688 671.122L704.95 669.753L704.262 671.631Z" fill="#28C878"/>
<path d="M1256.91 562.578C1257.23 561.521 1256.64 560.405 1255.58 560.085L1238.35 554.883C1237.29 554.563 1236.17 555.162 1235.85 556.219C1235.53 557.277 1236.13 558.393 1237.19 558.712L1252.51 563.337L1247.88 578.654C1247.56 579.711 1248.16 580.827 1249.22 581.146C1250.28 581.466 1251.39 580.867 1251.71 579.81L1256.91 562.578ZM951 725L951.945 726.763L955.4 724.91L954.455 723.148L953.509 721.385L950.055 723.237L951 725ZM961.364 719.443L962.309 721.206L969.218 717.501L968.273 715.739L967.328 713.976L960.419 717.681L961.364 719.443ZM975.182 712.034L976.127 713.797L983.036 710.092L982.091 708.33L981.146 706.567L974.237 710.271L975.182 712.034ZM989 704.625L989.945 706.388L996.854 702.683L995.909 700.92L994.964 699.158L988.055 702.862L989 704.625ZM1002.82 697.216L1003.76 698.979L1010.67 695.274L1009.73 693.511L1008.78 691.749L1001.87 695.453L1002.82 697.216ZM1016.64 689.807L1017.58 691.569L1024.49 687.865L1023.55 686.102L1022.6 684.34L1015.69 688.044L1016.64 689.807ZM1030.45 682.398L1031.4 684.16L1038.31 680.456L1037.36 678.693L1036.42 676.931L1029.51 680.635L1030.45 682.398ZM1044.27 674.989L1045.22 676.751L1052.13 673.047L1051.18 671.284L1050.24 669.521L1043.33 673.226L1044.27 674.989ZM1058.09 667.58L1059.04 669.342L1065.95 665.638L1065 663.875L1064.05 662.112L1057.15 665.817L1058.09 667.58ZM1071.91 660.17L1072.85 661.933L1079.76 658.229L1078.82 656.466L1077.87 654.703L1070.96 658.408L1071.91 660.17ZM1085.73 652.761L1086.67 654.524L1093.58 650.819L1092.64 649.057L1091.69 647.294L1084.78 650.999L1085.73 652.761ZM1099.55 645.352L1100.49 647.115L1107.4 643.41L1106.45 641.648L1105.51 639.885L1098.6 643.59L1099.55 645.352ZM1113.36 637.943L1114.31 639.706L1121.22 636.001L1120.27 634.239L1119.33 632.476L1112.42 636.181L1113.36 637.943ZM1127.18 630.534L1128.13 632.297L1135.04 628.592L1134.09 626.83L1133.15 625.067L1126.24 628.772L1127.18 630.534ZM1141 623.125L1141.95 624.888L1148.85 621.183L1147.91 619.42L1146.96 617.658L1140.05 621.362L1141 623.125ZM1154.82 615.716L1155.76 617.479L1162.67 613.774L1161.73 612.011L1160.78 610.249L1153.87 613.953L1154.82 615.716ZM1168.64 608.307L1169.58 610.069L1176.49 606.365L1175.55 604.602L1174.6 602.84L1167.69 606.544L1168.64 608.307ZM1182.45 600.898L1183.4 602.66L1190.31 598.956L1189.36 597.193L1188.42 595.431L1181.51 599.135L1182.45 600.898ZM1196.27 593.489L1197.22 595.251L1204.13 591.547L1203.18 589.784L1202.24 588.022L1195.33 591.726L1196.27 593.489ZM1210.09 586.08L1211.04 587.842L1217.95 584.138L1217 582.375L1216.05 580.612L1209.15 584.317L1210.09 586.08ZM1223.91 578.67L1224.85 580.433L1231.76 576.729L1230.82 574.966L1229.87 573.203L1222.96 576.908L1223.91 578.67ZM1237.73 571.261L1238.67 573.024L1245.58 569.319L1244.64 567.557L1243.69 565.794L1236.78 569.499L1237.73 571.261ZM1251.55 563.852L1252.49 565.615L1255.95 563.763L1255 562L1254.05 560.237L1250.6 562.09L1251.55 563.852Z" fill="#28C878"/>
<defs>
<linearGradient id="paint0_linear_3102_13920" x1="647.763" y1="-160.891" x2="635.894" y2="893.898" gradientUnits="userSpaceOnUse">
<stop stop-color="#F1F2F8"/>
<stop offset="1" stop-color="white"/>
</linearGradient>
<linearGradient id="paint1_linear_3102_13920" x1="266.035" y1="444.214" x2="266.035" y2="491.327" gradientUnits="userSpaceOnUse">
<stop stop-color="#2AB673"/>
<stop offset="1" stop-color="#86D72F"/>
</linearGradient>
<linearGradient id="paint2_linear_3102_13920" x1="299.914" y1="494.883" x2="299.914" y2="624.042" gradientUnits="userSpaceOnUse">
<stop stop-color="#2AB673"/>
<stop offset="1" stop-color="#86D72F"/>
</linearGradient>
<linearGradient id="paint3_linear_3102_13920" x1="347.444" y1="444.214" x2="347.444" y2="528.964" gradientUnits="userSpaceOnUse">
<stop stop-color="#2AB673"/>
<stop offset="1" stop-color="#86D72F"/>
</linearGradient>
<linearGradient id="paint4_linear_3102_13920" x1="820.435" y1="673.43" x2="820.435" y2="705.705" gradientUnits="userSpaceOnUse">
<stop stop-color="#2AB673"/>
<stop offset="1" stop-color="#86D72F"/>
</linearGradient>
<linearGradient id="paint5_linear_3102_13920" x1="841.909" y1="673.242" x2="841.909" y2="705.705" gradientUnits="userSpaceOnUse">
<stop stop-color="#2AB673"/>
<stop offset="1" stop-color="#86D72F"/>
</linearGradient>
<linearGradient id="paint6_linear_3102_13920" x1="820.464" y1="623.937" x2="820.464" y2="755.006" gradientUnits="userSpaceOnUse">
<stop stop-color="#2AB673"/>
<stop offset="1" stop-color="#86D72F"/>
</linearGradient>
<linearGradient id="paint7_linear_3102_13920" x1="773.547" y1="673.053" x2="773.547" y2="712.525" gradientUnits="userSpaceOnUse">
<stop stop-color="#2AB673"/>
<stop offset="1" stop-color="#86D72F"/>
</linearGradient>
<linearGradient id="paint8_linear_3102_13920" x1="944.293" y1="673.395" x2="944.293" y2="754.941" gradientUnits="userSpaceOnUse">
<stop stop-color="#28C878"/>
<stop offset="1" stop-color="#C4E930"/>
</linearGradient>
<linearGradient id="paint9_linear_3102_13920" x1="1373.28" y1="588.874" x2="1373.28" y2="593.686" gradientUnits="userSpaceOnUse">
<stop stop-color="#28C878"/>
<stop offset="1" stop-color="#C4E930"/>
</linearGradient>
<linearGradient id="paint10_linear_3102_13920" x1="1379" y1="424.009" x2="1379" y2="632.25" gradientUnits="userSpaceOnUse">
<stop stop-color="#28C878"/>
<stop offset="1" stop-color="#C4E930"/>
</linearGradient>
<linearGradient id="paint11_linear_3102_13920" x1="1437.42" y1="464.049" x2="1437.42" y2="481.249" gradientUnits="userSpaceOnUse">
<stop stop-color="#28C878"/>
<stop offset="1" stop-color="#C4E930"/>
</linearGradient>
<linearGradient id="paint12_linear_3102_13920" x1="1460.62" y1="438.838" x2="1460.62" y2="462.445" gradientUnits="userSpaceOnUse">
<stop stop-color="#28C878"/>
<stop offset="1" stop-color="#C4E930"/>
</linearGradient>
<linearGradient id="paint13_linear_3102_13920" x1="1431.54" y1="432.066" x2="1431.54" y2="462.445" gradientUnits="userSpaceOnUse">
<stop stop-color="#28C878"/>
<stop offset="1" stop-color="#C4E930"/>
</linearGradient>
<linearGradient id="paint14_linear_3102_13920" x1="1417.6" y1="454.115" x2="1417.6" y2="462.126" gradientUnits="userSpaceOnUse">
<stop stop-color="#28C878"/>
<stop offset="1" stop-color="#C4E930"/>
</linearGradient>
<linearGradient id="paint15_linear_3102_13920" x1="1446.88" y1="445.811" x2="1446.88" y2="462.491" gradientUnits="userSpaceOnUse">
<stop stop-color="#28C878"/>
<stop offset="1" stop-color="#C4E930"/>
</linearGradient>
<linearGradient id="paint16_linear_3102_13920" x1="1342" y1="493.148" x2="1342" y2="562.377" gradientUnits="userSpaceOnUse">
<stop stop-color="#28C878"/>
<stop offset="1" stop-color="#C4E930"/>
</linearGradient>
<linearGradient id="paint17_linear_3102_13920" x1="1412.03" y1="493.152" x2="1412.03" y2="526.986" gradientUnits="userSpaceOnUse">
<stop stop-color="#28C878"/>
<stop offset="1" stop-color="#C4E930"/>
</linearGradient>
<linearGradient id="paint18_linear_3102_13920" x1="1426.14" y1="530.8" x2="1426.14" y2="544.421" gradientUnits="userSpaceOnUse">
<stop stop-color="#28C878"/>
<stop offset="1" stop-color="#C4E930"/>
</linearGradient>
<linearGradient id="paint19_linear_3102_13920" x1="1404.02" y1="530.782" x2="1404.02" y2="544.422" gradientUnits="userSpaceOnUse">
<stop stop-color="#28C878"/>
<stop offset="1" stop-color="#C4E930"/>
</linearGradient>
<linearGradient id="paint20_linear_3102_13920" x1="1415.81" y1="530.782" x2="1415.81" y2="540.01" gradientUnits="userSpaceOnUse">
<stop stop-color="#28C878"/>
<stop offset="1" stop-color="#C4E930"/>
</linearGradient>
<linearGradient id="paint21_linear_3102_13920" x1="1395.27" y1="530.782" x2="1395.27" y2="540.01" gradientUnits="userSpaceOnUse">
<stop stop-color="#28C878"/>
<stop offset="1" stop-color="#C4E930"/>
</linearGradient>
<linearGradient id="paint22_linear_3102_13920" x1="1336.1" y1="452.882" x2="1336.1" y2="459.765" gradientUnits="userSpaceOnUse">
<stop stop-color="#28C878"/>
<stop offset="1" stop-color="#C4E930"/>
</linearGradient>
<linearGradient id="paint23_linear_3102_13920" x1="1336.36" y1="441.831" x2="1336.36" y2="451.827" gradientUnits="userSpaceOnUse">
<stop stop-color="#28C878"/>
<stop offset="1" stop-color="#C4E930"/>
</linearGradient>
<linearGradient id="paint24_linear_3102_13920" x1="1336.07" y1="431.746" x2="1336.07" y2="444.891" gradientUnits="userSpaceOnUse">
<stop stop-color="#28C878"/>
<stop offset="1" stop-color="#C4E930"/>
</linearGradient>
</defs>
</svg>
