<svg width="249" height="133" viewBox="0 0 249 133" fill="none" xmlns="http://www.w3.org/2000/svg">
<path d="M78.0059 50.4297L66.2266 82.7054H70.7118L73.3285 75.4849H87.5365L90.1533 82.7054H94.6426L82.9123 50.4297H78.0059ZM74.5469 72.0381L80.4346 55.6468L86.3222 72.0381H74.5469Z" fill="url(#paint0_linear_3328_12137)"/>
<path d="M99.7832 50.2417H104.035V82.7055H99.7832V50.2417Z" fill="url(#paint1_linear_3328_12137)"/>
<mask id="mask0_3328_12137" style="mask-type:luminance" maskUnits="userSpaceOnUse" x="0" y="0" width="161" height="133">
<path d="M0 0.924316H160.929V132.022H0V0.924316Z" fill="white"/>
</mask>
<g mask="url(#mask0_3328_12137)">
<path d="M155.409 85.5836C153.009 85.5836 150.961 87.1209 150.204 89.2593H133.752L126.368 81.9038H114.016V74.0087H141.107C141.753 76.331 143.891 78.0441 146.422 78.0441C149.468 78.0441 151.942 75.5746 151.942 72.5408C151.942 69.5111 149.468 67.0416 146.422 67.0416C143.891 67.0416 141.753 68.7507 141.107 71.073H114.016V61.8695H141.107C141.753 64.1918 143.891 65.9009 146.422 65.9009C149.468 65.9009 151.942 63.4354 151.942 60.4017C151.942 57.3679 149.468 54.9024 146.422 54.9024C143.891 54.9024 141.753 56.6115 141.107 58.9338H114.016V51.0387H126.368L133.752 43.6832H150.094C150.74 46.0056 152.878 47.7146 155.409 47.7146C158.455 47.7146 160.929 45.2492 160.929 42.2154C160.929 39.1816 158.455 36.7162 155.409 36.7162C152.878 36.7162 150.74 38.4252 150.094 40.7476H132.529L125.145 48.1071H114.016V43.5647C114.016 40.3265 111.37 37.6893 108.116 37.6893H98.8592V28.8946L109.866 17.9248H129.217C129.863 20.2472 132.006 21.9603 134.537 21.9603C137.579 21.9603 140.056 19.4908 140.056 16.457C140.056 13.4273 137.579 10.9578 134.537 10.9578C132.006 10.9578 129.863 12.6709 129.217 14.9892H108.647L95.9153 27.6803V37.6934H86.6546V15.856C88.9728 15.2059 90.6778 13.0798 90.6778 10.5653C90.6778 7.5315 88.2001 5.06196 85.1581 5.06196C82.1121 5.06196 79.6385 7.5315 79.6385 10.5653C79.6385 13.0961 81.3639 15.2345 83.7067 15.8682V37.6934H78.0398V23.3913C78.0398 17.3933 75.697 11.7551 71.4408 7.51514C67.1845 3.27522 61.5258 0.936523 55.5073 0.936523C46.3447 0.936523 38.2042 6.45209 34.7371 14.6743C34.6716 14.7684 34.6144 14.8706 34.5694 14.981C34.3609 15.5166 34.1769 16.0563 34.0134 16.6042C23.1458 16.9885 14.4288 25.914 14.4288 36.8348C14.4288 38.0041 14.5269 39.1653 14.7273 40.306C10.4178 43.2498 6.81985 47.1749 4.27263 51.7174C1.48009 56.7055 0 62.3806 0 68.1292C0 75.2066 2.16698 81.9488 6.26788 87.6811C5.87128 89.4637 5.66685 91.2954 5.66685 93.1394C5.66685 99.3051 7.94831 105.225 12.0901 109.805C15.9702 114.102 21.1914 116.898 26.8828 117.761C26.9973 117.945 27.1485 118.096 27.3244 118.211C29.5322 122.132 32.6968 125.456 36.532 127.864C40.8455 130.575 45.8336 132.006 50.9567 132.006C58.1895 132.006 64.993 129.201 70.1079 124.103C75.2227 119.008 78.0398 112.229 78.0398 105.021V95.2532H83.7067V117.074C81.3639 117.712 79.6385 119.85 79.6385 122.381C79.6385 125.415 82.1121 127.881 85.154 127.881C88.2001 127.881 90.6737 125.415 90.6737 122.381C90.6737 119.867 88.9728 117.741 86.6546 117.091V95.2532H95.9153V105.266L108.647 117.953H128.78C129.426 120.276 131.564 121.989 134.099 121.989C137.141 121.989 139.619 119.519 139.619 116.486C139.619 113.456 137.141 110.986 134.099 110.986C131.564 110.986 129.426 112.699 128.78 115.018H109.866L98.8592 104.052V95.2532H108.116C111.37 95.2532 114.016 92.616 114.016 89.3778V84.8395H125.145L132.529 92.1949H150.004C150.523 94.6972 152.751 96.582 155.409 96.582C158.455 96.582 160.929 94.1166 160.929 91.0828C160.929 88.049 158.455 85.5836 155.409 85.5836ZM146.426 69.9773C147.845 69.9773 148.998 71.1303 148.998 72.5449C148.998 73.9596 147.845 75.1085 146.426 75.1085C145.004 75.1085 143.851 73.9555 143.851 72.5449C143.851 71.1303 145.004 69.9773 146.426 69.9773ZM146.426 57.8381C147.845 57.8381 148.998 58.987 148.998 60.4017C148.998 61.8163 147.845 62.9652 146.426 62.9652C145.004 62.9652 143.851 61.8163 143.851 60.4017C143.851 58.987 145.004 57.8381 146.426 57.8381ZM155.409 39.6518C156.832 39.6518 157.985 40.8048 157.985 42.2154C157.985 43.6301 156.828 44.7831 155.409 44.7831C153.99 44.7831 152.837 43.6301 152.837 42.2154C152.837 40.8048 153.99 39.6518 155.409 39.6518ZM134.537 13.8934C135.955 13.8934 137.112 15.0464 137.112 16.457C137.112 17.8717 135.955 19.0247 134.537 19.0247C133.118 19.0247 131.965 17.8717 131.965 16.457C131.965 15.0464 133.118 13.8934 134.537 13.8934ZM82.5823 10.5653C82.5823 9.1506 83.7394 7.9976 85.1581 7.9976C86.5769 7.9976 87.7299 9.1506 87.7299 10.5653C87.7299 11.9758 86.5769 13.1288 85.1581 13.1288C83.7394 13.1288 82.5823 11.9799 82.5823 10.5653ZM87.7299 122.381C87.7299 123.796 86.5769 124.949 85.1581 124.949C83.7394 124.949 82.5823 123.796 82.5823 122.381C82.5823 120.967 83.7394 119.818 85.1581 119.818C86.5769 119.818 87.7299 120.967 87.7299 122.381ZM134.099 113.922C135.518 113.922 136.675 115.071 136.675 116.486C136.675 117.9 135.518 119.053 134.099 119.053C132.68 119.053 131.527 117.9 131.527 116.486C131.527 115.071 132.68 113.922 134.099 113.922ZM75.096 100.564C69.9893 100.683 65.1524 102.605 61.3336 106.064C57.1346 109.866 54.6733 115.071 54.3993 120.721C54.3625 121.531 54.9881 122.218 55.8017 122.259C55.8262 122.259 55.8508 122.259 55.8712 122.259C56.6562 122.259 57.3063 121.645 57.3431 120.86C57.8011 111.285 65.6308 103.766 75.096 103.5V105.021C75.096 118.285 64.2693 129.074 50.9608 129.074C41.7613 129.074 33.4859 123.98 29.3646 115.778L29.2297 115.516C28.0767 111.183 28.5469 106.64 30.5953 102.609C32.8072 98.2624 36.581 95.0324 41.2257 93.5155C41.9985 93.262 42.4196 92.4361 42.1661 91.6634C41.9126 90.8947 41.0826 90.4736 40.3099 90.7271C34.917 92.4893 30.5339 96.2345 27.9704 101.28C25.8484 105.454 25.1819 110.103 26.016 114.625C15.9539 112.483 8.61476 103.606 8.61476 93.1394C8.61476 91.3036 8.83963 89.4841 9.28938 87.726L9.46111 87.0473L9.03998 86.4872C5.05356 81.1515 2.94791 74.8018 2.94791 68.1292C2.94791 57.605 8.25905 47.9191 17.16 42.2195L18.0268 41.6634L17.7978 40.6617C17.5157 39.4188 17.3726 38.1309 17.3726 36.8348C17.3726 27.758 24.4214 20.2921 33.3469 19.5807C32.7663 23.4854 33.3019 27.484 34.9374 31.1843C35.5998 32.6766 36.4175 34.0708 37.3783 35.3465C32.7336 35.9516 28.4487 38.0532 25.0961 41.4181C21.0974 45.4291 18.9018 50.7525 18.9222 56.4071C18.9222 57.2166 19.5805 57.8708 20.3941 57.8708H20.3982C21.2118 57.8708 21.8701 57.2084 21.866 56.3989C21.8333 46.4267 29.8798 38.278 39.8519 38.1063C41.8104 39.9299 44.1205 41.3854 46.6922 42.379C46.868 42.4485 47.0479 42.4812 47.2278 42.4812C47.8166 42.4812 48.3727 42.1255 48.5975 41.5449C48.8919 40.7885 48.5158 39.938 47.7594 39.6437C43.2005 37.8815 39.6066 34.4552 37.6318 29.9986C35.9391 26.1675 35.6161 21.9644 36.6833 17.9739C39.0915 9.64941 46.7617 3.87217 55.5073 3.87217C66.3095 3.87217 75.096 12.63 75.096 23.3913V27.3123C65.6063 29.3975 56.0225 23.6734 53.4794 14.2246C53.2668 13.4437 52.4572 12.9776 51.6722 13.1902C50.8872 13.3987 50.4211 14.2042 50.6337 14.9851C52.1056 20.4475 55.6218 25.0145 60.5364 27.8398C63.8114 29.7205 67.4421 30.6814 71.1218 30.6814C72.4425 30.6814 73.7713 30.5587 75.096 30.3052V37.6934H62.1473C58.8968 37.6934 56.2515 40.3265 56.2515 43.5687V89.3778C56.2515 92.616 58.8968 95.2532 62.1473 95.2532H75.096V100.564ZM111.068 89.3778C111.068 91.001 109.747 92.3176 108.116 92.3176H62.1473C60.52 92.3176 59.1953 91.001 59.1953 89.3778V43.5687C59.1953 41.9456 60.52 40.6249 62.1473 40.6249H108.116C109.743 40.6249 111.068 41.9456 111.068 43.5687V89.3778ZM155.409 93.6464C153.99 93.6464 152.837 92.4975 152.837 91.0828C152.837 89.6681 153.99 88.5192 155.409 88.5192C156.832 88.5192 157.985 89.6681 157.985 91.0828C157.985 92.4975 156.828 93.6464 155.409 93.6464Z" fill="url(#paint2_linear_3328_12137)"/>
</g>
<path d="M49.1382 75.6526C44.5834 73.8904 40.9854 70.4682 39.0106 66.0075C37.0399 61.5509 36.9295 56.5955 38.6958 52.053C38.9902 51.2966 38.614 50.4462 37.8576 50.1518C37.0971 49.8615 36.2467 50.2336 35.9523 50.99C33.9325 56.1703 34.0266 61.8167 36.2017 66.9193C31.279 67.3895 26.7202 69.5319 23.1917 73.0727C19.1889 77.0836 16.9974 82.4071 17.0138 88.0657C17.0179 88.8753 17.6761 89.5254 18.4857 89.5254C18.4898 89.5254 18.4898 89.5254 18.4898 89.5254C19.3034 89.5254 19.9617 88.863 19.9576 88.0535C19.929 78.1753 27.8282 70.0798 37.6736 69.7691C40.0859 73.686 43.7003 76.6993 48.0751 78.392C48.251 78.4574 48.4308 78.4901 48.6067 78.4901C49.1954 78.4901 49.7515 78.1344 49.9804 77.5538C50.2748 76.7974 49.8987 75.947 49.1382 75.6526Z" fill="url(#paint3_linear_3328_12137)"/>
<mask id="mask1_3328_12137" style="mask-type:luminance" maskUnits="userSpaceOnUse" x="160" y="50" width="89" height="83">
<path d="M160.771 50.0415H248.305V132.105H160.771V50.0415Z" fill="white"/>
</mask>
<g mask="url(#mask1_3328_12137)">
<path d="M246.258 52.7076C245.783 52.4949 234.388 47.5845 223.926 52.7525C215.196 57.066 204.059 69.0458 207.645 81.1195C206.496 83.5645 205.637 86.1199 205.04 88.7652C204.043 85.11 199.189 69.9044 186.412 64.2293C171.861 57.7734 162.089 66.0161 161.692 66.3677C161.034 66.936 160.756 67.8232 160.973 68.6655C161.046 68.9394 168.034 95.0086 195.943 95.0086C197.611 95.0086 199.357 94.9186 201.197 94.7183C201.258 94.7183 201.303 94.6856 201.364 94.6856C202.419 96.5091 203.217 98.4512 203.63 100.471C202.358 116.458 203.11 129.631 203.11 129.782C203.188 131.005 204.198 131.941 205.408 131.941C205.453 131.941 205.498 131.941 205.547 131.941C206.815 131.864 207.784 130.776 207.706 129.509C207.706 129.341 206.708 111.915 208.99 92.9725C209.313 90.3271 209.942 87.8044 210.875 85.3553C210.936 85.3553 210.997 85.3839 211.075 85.3839C211.136 85.3839 211.198 85.3839 211.259 85.3839C211.627 85.3553 248.617 82.248 247.668 54.6946C247.636 53.8238 247.1 53.0306 246.307 52.6789L246.258 52.7076ZM165.887 69.0171C168.508 67.3939 175.324 64.3193 184.56 68.4202C191.744 71.6011 196.078 78.699 198.437 84.0224C191.041 77.1413 182.172 73.1017 181.575 72.84C180.427 72.3207 179.061 72.84 178.542 74.0053C178.018 75.1664 178.542 76.5116 179.703 77.0309C179.858 77.1085 191.102 82.2193 198.208 90.3721C175.524 91.5987 167.727 74.3078 165.887 69.0171ZM213.156 80.5839C216.803 74.3405 222.715 68.8004 231.019 63.8614C232.107 63.2194 232.459 61.7966 231.817 60.709C231.171 59.6214 229.748 59.2698 228.66 59.9117C221.337 64.2743 215.699 69.1071 211.688 74.4632C212.804 66.5394 220.785 59.4252 225.978 56.8534C228.811 55.4633 231.784 54.989 234.495 54.989C238.142 54.989 241.327 55.8272 243.044 56.3955C242.521 74.9538 220.434 79.5576 213.144 80.5675L213.156 80.5839Z" fill="url(#paint4_linear_3328_12137)"/>
</g>
<defs>
<linearGradient id="paint0_linear_3328_12137" x1="80.4346" y1="50.4297" x2="80.4346" y2="82.7054" gradientUnits="userSpaceOnUse">
<stop stop-color="#2AB673"/>
<stop offset="1" stop-color="#86D72F"/>
</linearGradient>
<linearGradient id="paint1_linear_3328_12137" x1="101.909" y1="50.2417" x2="101.909" y2="82.7055" gradientUnits="userSpaceOnUse">
<stop stop-color="#2AB673"/>
<stop offset="1" stop-color="#86D72F"/>
</linearGradient>
<linearGradient id="paint2_linear_3328_12137" x1="80.4644" y1="0.936523" x2="80.4644" y2="132.006" gradientUnits="userSpaceOnUse">
<stop stop-color="#2AB673"/>
<stop offset="1" stop-color="#86D72F"/>
</linearGradient>
<linearGradient id="paint3_linear_3328_12137" x1="33.5472" y1="50.0532" x2="33.5472" y2="89.5254" gradientUnits="userSpaceOnUse">
<stop stop-color="#2AB673"/>
<stop offset="1" stop-color="#86D72F"/>
</linearGradient>
<linearGradient id="paint4_linear_3328_12137" x1="204.293" y1="50.3955" x2="204.293" y2="131.941" gradientUnits="userSpaceOnUse">
<stop stop-color="#28C878"/>
<stop offset="1" stop-color="#C4E930"/>
</linearGradient>
</defs>
</svg>
