<svg width="30" height="30" viewBox="0 0 30 30" fill="none" xmlns="http://www.w3.org/2000/svg">
<path d="M4.12375 21.995C4.66375 23.66 6.305 24.7225 8.05625 24.7225H8.125C8.28566 25.5066 8.71211 26.2113 9.33228 26.7174C9.95245 27.2234 10.7283 27.4999 11.5287 27.5C12.1 27.5 12.6337 27.3562 13.1062 27.1087C13.3036 27.0008 13.4678 26.8412 13.5813 26.6469C13.6947 26.4527 13.753 26.2312 13.75 26.0062V3.78374C13.7518 3.49755 13.6554 3.21939 13.4768 2.99575C13.2982 2.7721 13.0483 2.61652 12.7688 2.55499C12.1416 2.43281 11.4917 2.52113 10.92 2.80624C9.99 3.25124 9.445 4.24499 9.445 5.27874V5.34749C8.74902 5.20544 8.02621 5.28025 7.37407 5.56183C6.72193 5.84341 6.17183 6.31821 5.79796 6.9222C5.4241 7.52619 5.24446 8.2303 5.28327 8.93957C5.32208 9.64885 5.57747 10.3292 6.015 10.8887C5.03543 11.043 4.14311 11.5419 3.4987 12.2956C2.85429 13.0493 2.50014 14.0084 2.5 15C2.5 16.4725 3.26375 17.7637 4.41625 18.515C3.87875 19.4787 3.7025 20.6975 4.12375 21.995ZM23.985 10.8887C24.4225 10.3292 24.6779 9.64885 24.7167 8.93957C24.7555 8.2303 24.5759 7.52619 24.202 6.9222C23.8282 6.31821 23.2781 5.84341 22.6259 5.56183C21.9738 5.28025 21.251 5.20544 20.555 5.34749V5.27874C20.555 4.24624 20.0087 3.25124 19.0787 2.80624C18.5074 2.52141 17.858 2.43309 17.2312 2.55499C16.9517 2.61652 16.7018 2.7721 16.5232 2.99575C16.3446 3.21939 16.2482 3.49755 16.25 3.78374V26.005C16.25 26.4612 16.49 26.895 16.895 27.1075C17.3675 27.3562 17.9 27.5 18.4713 27.5C19.2719 27.4998 20.0479 27.2232 20.6681 26.7169C21.2882 26.2106 21.7146 25.5056 21.875 24.7212H21.945C23.695 24.7212 25.3375 23.6587 25.8775 21.9937C26.2987 20.6962 26.1225 19.4775 25.585 18.5137C26.1721 18.1344 26.6549 17.6142 26.9894 17.0004C27.3239 16.3867 27.4994 15.699 27.5 15C27.4999 14.0084 27.1457 13.0493 26.5013 12.2956C25.8569 11.5419 24.9646 11.043 23.985 10.8887Z" fill="#2AB673"/>
</svg>
