<svg width="131" height="127" viewBox="0 0 131 127" fill="none" xmlns="http://www.w3.org/2000/svg">
<path d="M130.211 66.7986C127.72 52.9961 119.928 41.4856 109.25 34.0636C98.6087 26.6416 85.1164 23.2407 71.3274 25.6911H71.2937C57.5081 28.1786 45.9808 35.9916 38.5454 46.6224C31.0796 57.2801 27.7056 70.7557 30.1628 84.5211V84.5548C32.6503 98.3202 40.4464 109.831 51.1209 117.256C61.7989 124.712 75.2912 128.079 89.0768 125.625C102.93 123.141 114.427 115.325 121.825 104.664C129.261 94.0362 132.665 80.564 130.211 66.7986ZM118.455 102.277C111.643 112.022 101.096 119.184 88.4869 121.442L88.3252 121.473C75.6519 123.697 63.3358 120.623 53.5443 113.821C43.7866 107.053 36.5803 96.5237 34.3558 83.8672L34.3221 83.7054C32.1278 71.0489 35.1748 58.7531 42.017 49.0087C48.8626 39.2644 59.3754 32.102 71.9813 29.847L72.1465 29.8133C84.8198 27.5888 97.1324 30.6627 106.894 37.4645C116.651 44.2663 123.824 54.796 126.082 67.4188L126.116 67.5502C128.31 80.2034 125.266 92.4992 118.455 102.277Z" fill="url(#paint0_linear_3102_14111)"/>
<mask id="mask0_3102_14111" style="mask-type:luminance" maskUnits="userSpaceOnUse" x="0" y="0" width="43" height="43">
<path d="M0 0H42.7994V42.5433H0V0Z" fill="white"/>
</mask>
<g mask="url(#mask0_3102_14111)">
<path d="M25.7106 7.24651C30.0654 5.35225 35.01 4.27367 40.413 4.23996C41.5927 4.23996 42.5095 3.29283 42.5095 2.14684C42.5095 0.970506 41.559 0.0537109 40.413 0.0537109C34.3864 0.117752 28.9194 1.32779 24.0725 3.39058C18.865 5.61178 14.3788 8.88461 10.6779 12.872C7.33771 16.4684 4.61767 20.6546 2.75375 25.4611C1.04824 29.9102 0.0674103 34.8818 0 40.4062C0 41.5522 0.916792 42.4993 2.09649 42.4993C3.24248 42.4993 4.19298 41.5825 4.19298 40.4062C4.22668 35.4043 5.10977 30.9248 6.68045 26.9677C8.31854 22.7141 10.742 18.9862 13.7553 15.7505C17.0314 12.1844 21.093 9.27559 25.7106 7.24651Z" fill="url(#paint1_linear_3102_14111)"/>
</g>
<path d="M40.3487 15.2588C41.525 15.3262 42.4755 14.4094 42.5429 13.2668C42.5733 12.0871 41.6902 11.1399 40.5442 11.0759C36.4827 10.9107 32.4886 11.5006 28.7877 12.8724C25.1845 14.2139 21.9084 16.2733 19.0939 19.054C16.3099 21.8348 14.2471 25.1345 12.9056 28.7343C11.527 32.4285 10.9406 36.4192 11.1024 40.474C11.1698 41.6166 12.1169 42.5334 13.2966 42.466C14.4426 42.402 15.3594 41.4548 15.2953 40.2751C15.1302 36.7765 15.656 33.3115 16.866 30.1398C17.9817 27.1299 19.7175 24.3526 22.1072 21.9628C24.4632 19.6102 27.2473 17.8777 30.2943 16.7317C33.3716 15.6531 36.8096 15.1307 40.3487 15.2588Z" fill="url(#paint2_linear_3102_14111)"/>
<path d="M27.8707 33.6385C28.2314 32.3307 28.9189 31.0533 29.9672 30.0421C31.0154 29.0275 32.2592 28.3096 33.567 27.949C34.9421 27.5883 36.4184 27.5883 37.7936 27.949C38.9396 28.2422 40.0856 27.5883 40.3789 26.476C40.6755 25.3334 40.0182 24.1874 38.9059 23.8942C36.8094 23.338 34.6152 23.338 32.5524 23.8942C30.557 24.4503 28.6223 25.4952 27.0517 27.0996C25.481 28.6669 24.399 30.5982 23.8429 32.5902C23.2867 34.6834 23.2867 36.8742 23.8429 38.937C24.1361 40.0459 25.3158 40.7335 26.4281 40.4066C27.5438 40.1133 28.2314 38.937 27.9044 37.8247C27.5438 36.4832 27.5438 35.0103 27.8707 33.6385Z" fill="url(#paint3_linear_3102_14111)"/>
<path d="M86.6532 110.811C81.9041 111.664 77.2561 111.532 72.8676 110.552C68.2837 109.571 63.9592 107.673 60.1606 105.091C59.2101 104.437 57.899 104.663 57.2451 105.647C56.5912 106.628 56.8204 107.936 57.8012 108.556C62.0583 111.465 66.8748 113.558 71.9812 114.67C76.9292 115.719 82.103 115.88 87.4082 114.933C88.5542 114.738 89.3059 113.656 89.1104 112.513C88.8812 111.367 87.7689 110.616 86.6532 110.811Z" fill="url(#paint4_linear_3102_14111)"/>
<path d="M101.097 41.5522C93.7293 37.0727 84.8547 34.9459 75.6834 36.0244C74.5374 36.1559 73.7183 37.2008 73.8498 38.3468C73.9812 39.4928 75.0295 40.3084 76.1755 40.177C84.43 39.2299 92.3542 41.1275 98.9369 45.1149C105.651 49.1697 110.987 55.4153 113.838 63.0362C114.229 64.0811 115.442 64.6372 116.521 64.2462C117.569 63.8519 118.159 62.6452 117.734 61.5633C114.556 53.0964 108.631 46.0957 101.097 41.5522Z" fill="url(#paint5_linear_3102_14111)"/>
<path d="M63.9591 62.3831C65.0714 61.3045 66.5781 60.6169 68.2836 60.6169C69.9857 60.6169 71.4923 61.2708 72.6046 62.3831L72.7024 62.4809C73.7506 63.5594 74.3742 65.0627 74.3742 66.7008C74.3742 67.8771 75.3213 68.7906 76.4707 68.7906C77.6167 68.7906 78.5638 67.8434 78.5638 66.7008C78.5638 63.9201 77.4852 61.4023 75.682 59.5383L75.5505 59.4069C73.6866 57.543 71.1317 56.397 68.2836 56.397C65.4321 56.397 62.8469 57.5767 61.0133 59.4069C59.146 61.3045 58 63.8527 58 66.6671V84.5851C58 87.3995 59.1763 90.015 61.0133 91.8453C62.9109 93.7092 65.4658 94.8552 68.2836 94.8552C71.098 94.8552 73.7169 93.7092 75.5505 91.8453C77.4178 89.9813 78.5638 87.4332 78.5638 84.5851C78.5638 83.4087 77.6167 82.4953 76.4707 82.4953C75.291 82.4953 74.3742 83.4424 74.3742 84.5851C74.3742 86.2535 73.6866 87.7905 72.5709 88.9028C71.4586 89.9813 69.952 90.7026 68.2499 90.7026C66.5477 90.7026 65.0411 90.0488 63.9254 88.9028C62.8469 87.7905 62.1593 86.2872 62.1593 84.5851V66.6671C62.1896 64.9987 62.8469 63.4954 63.9591 62.3831Z" fill="url(#paint6_linear_3102_14111)"/>
<path d="M99.3625 59.4069C97.4648 57.543 94.91 56.397 92.0922 56.397C89.244 56.397 86.6555 57.5767 84.8219 59.4069C82.9546 61.3045 81.8086 63.8527 81.8086 66.6671V84.5851C81.8086 87.3995 82.9883 90.015 84.8219 91.8453C86.7229 93.7092 89.2778 94.8552 92.0922 94.8552C94.9403 94.8552 97.5289 93.6789 99.3625 91.8453C101.23 89.951 102.376 87.3995 102.376 84.5851V66.6671C102.409 63.8527 101.23 61.2708 99.3625 59.4069ZM98.1828 84.5851C98.1828 86.2535 97.4952 87.7905 96.3829 88.9028C95.2706 89.9813 93.764 90.7026 92.0585 90.7026C90.39 90.7026 88.8497 90.015 87.7374 88.9028C86.6555 87.7905 85.9342 86.2872 85.9342 84.5851V66.6671C85.9342 64.9987 86.5914 63.4617 87.7374 62.3494C88.8497 61.2708 90.3563 60.5832 92.0585 60.5832C93.7303 60.5832 95.2706 61.2708 96.3829 62.3494C97.4648 63.4617 98.1828 64.965 98.1828 66.6671V84.5851Z" fill="url(#paint7_linear_3102_14111)"/>
<defs>
<linearGradient id="paint0_linear_3102_14111" x1="50.7136" y1="24.9038" x2="112.687" y2="124.532" gradientUnits="userSpaceOnUse">
<stop stop-color="#2AB673"/>
<stop offset="0.843196" stop-color="#86D72F"/>
</linearGradient>
<linearGradient id="paint1_linear_3102_14111" x1="8.92786" y1="0.0537107" x2="34.8363" y2="41.7191" gradientUnits="userSpaceOnUse">
<stop stop-color="#2AB673"/>
<stop offset="0.843196" stop-color="#86D72F"/>
</linearGradient>
<linearGradient id="paint2_linear_3102_14111" x1="17.685" y1="11.0488" x2="36.8641" y2="41.8917" gradientUnits="userSpaceOnUse">
<stop stop-color="#2AB673"/>
<stop offset="0.843196" stop-color="#86D72F"/>
</linearGradient>
<linearGradient id="paint3_linear_3102_14111" x1="27.0012" y1="23.4771" x2="37.3881" y2="40.1687" gradientUnits="userSpaceOnUse">
<stop stop-color="#2AB673"/>
<stop offset="0.843196" stop-color="#86D72F"/>
</linearGradient>
<linearGradient id="paint4_linear_3102_14111" x1="63.6516" y1="104.72" x2="66.6083" y2="118.855" gradientUnits="userSpaceOnUse">
<stop stop-color="#2AB673"/>
<stop offset="0.843196" stop-color="#86D72F"/>
</linearGradient>
<linearGradient id="paint5_linear_3102_14111" x1="83.0847" y1="35.748" x2="96.6355" y2="69.2247" gradientUnits="userSpaceOnUse">
<stop stop-color="#2AB673"/>
<stop offset="0.843196" stop-color="#86D72F"/>
</linearGradient>
<linearGradient id="paint6_linear_3102_14111" x1="62.3188" y1="56.397" x2="88.1918" y2="78.6117" gradientUnits="userSpaceOnUse">
<stop stop-color="#2AB673"/>
<stop offset="0.843196" stop-color="#86D72F"/>
</linearGradient>
<linearGradient id="paint7_linear_3102_14111" x1="86.1283" y1="56.397" x2="112.002" y2="78.6167" gradientUnits="userSpaceOnUse">
<stop stop-color="#2AB673"/>
<stop offset="0.843196" stop-color="#86D72F"/>
</linearGradient>
</defs>
</svg>
