<svg width="210" height="209" viewBox="0 0 210 209" fill="none" xmlns="http://www.w3.org/2000/svg">
<path d="M92.2676 164.874H106.286V169.686H92.2676V164.874Z" fill="url(#paint0_linear_3328_12151)"/>
<mask id="mask0_3328_12151" style="mask-type:luminance" maskUnits="userSpaceOnUse" x="0" y="0" width="210" height="209">
<path d="M0 0H210V208.25H0V0Z" fill="white"/>
</mask>
<g mask="url(#mask0_3328_12151)">
<path d="M199.992 65.9895C205.497 65.9439 209.954 61.4596 210 55.9635V10.026C210 4.49341 205.534 0.0454939 199.992 0.0090332H129.099C123.557 0.0090332 119.055 4.49341 119.055 10.026V41.371H23.8164C19.1133 41.4166 15.3398 45.1809 15.3034 49.8749V122.582L2.00521 137.092L1.88672 137.256C0.683591 138.824 0 140.747 0 142.707V207.53H4.82161V142.707C4.82161 141.823 5.14063 140.984 5.66016 140.264L15.3034 129.719V155.577C12.168 157.865 9.76172 161.064 8.43099 164.719L12.9336 166.396C13.4896 164.874 14.3008 163.47 15.3034 162.194C16.5885 160.544 18.2292 159.186 20.125 158.302L20.3984 158.184L21.0091 157.983L25.7031 152.45L30.5247 146.836L36.832 139.499H36.8685C38.4818 137.493 41.5716 137.174 43.7773 138.697C44.8255 139.426 45.5456 140.547 45.7461 141.786C45.9466 142.907 45.6276 144.074 44.944 144.949L38.8828 153.371L35.4648 158.184L32.2109 162.713L32.4115 163.716C32.4115 163.789 33.5781 170.087 32.9766 175.738C32.8581 176.941 32.612 178.144 32.2565 179.302C32.1289 179.749 32.0104 180.15 31.8464 180.551C28.7565 189.483 23.6159 191.771 19.8424 193.493L19.2409 193.74L21.2461 198.142L21.8112 197.868C26.0677 195.945 33.1771 192.737 36.8685 180.751C36.9141 180.669 36.9141 180.633 36.9141 180.551H60.4935C60.293 181.389 60.0469 182.228 59.7643 183.075C58.0417 188.845 53.2565 193.211 47.3594 194.414L45.3086 194.742V207.53H50.1302V198.707C56.957 196.665 62.2982 191.37 64.3854 184.561C64.7865 183.312 65.1055 181.954 65.4336 180.551H114.434L114.962 180.988H115.035L143.956 201.551V208.204H148.777V199.108L122.628 180.551L117.97 177.224C117.451 176.777 117.004 176.303 116.603 175.738C115.801 174.736 115.163 173.496 115.6 172.73C118.253 167.881 123.758 169.85 124.596 170.206L135.689 175.738L145.286 180.551L148.859 182.31V180.551L148.777 175.738L148.54 158.184V153.371L148.221 131.204C148.221 130.202 148.577 129.281 149.26 128.561C149.944 127.878 150.865 127.476 151.831 127.476H155.048C157.099 127.476 158.785 129.163 158.785 131.204L158.904 153.371V168H163.725V157.7L174.326 157.819V168H179.147V157.901L185.217 157.983H189.027V167.963H193.849V158.065H194.852C195.335 158.065 195.854 158.101 196.337 158.184C200.594 158.986 203.647 162.668 203.693 166.961V208.25H208.514V166.997C208.469 160.025 203.246 154.21 196.337 153.371V65.9895H199.992ZM123.876 10.026C123.876 7.14575 126.21 4.82153 129.099 4.82153H199.992C202.845 4.85799 205.178 7.18221 205.178 10.026V55.9635C205.178 58.8072 202.845 61.1405 199.992 61.177H191.361C190.632 61.177 189.957 61.496 189.51 62.0611L185.217 67.2655L180.396 73.1991L179.667 74.1197V63.5833C179.667 62.2616 178.582 61.177 177.26 61.177H129.099C126.21 61.1405 123.913 58.8528 123.876 55.9635V10.026ZM20.125 151.566V49.8749C20.125 47.8241 21.7656 46.1835 23.8164 46.1835H119.055V50.8775H25.7031V145.077L20.125 151.566ZM143.919 174.453L126.684 165.84H126.529C122.992 164.318 115.281 163.315 111.38 170.443C110.378 172.247 110.496 174.098 111.107 175.775H37.7982C38.0807 171.81 37.9167 167.845 37.3151 163.917L41.3711 158.184H143.682L143.919 174.453ZM163.725 152.888L163.607 131.168C163.561 126.474 159.742 122.664 155.048 122.664H151.831C147.137 122.664 143.318 126.474 143.318 131.168C143.318 131.204 143.318 131.241 143.318 131.286L143.637 153.371H44.8255L48.8451 147.756C50.2852 145.797 50.8867 143.391 50.5312 140.984C50.1302 138.46 48.681 136.172 46.5482 134.732C42.2552 131.724 36.3854 132.444 33.1771 136.418L30.5247 139.462V55.6809H119.055V55.9635C119.1 61.496 123.557 65.9439 129.099 65.9895H174.845V80.8554C174.845 81.858 175.456 82.7786 176.413 83.1432L177.26 83.2616C177.98 83.2616 178.664 82.9426 179.111 82.3775L180.396 80.8189V153.088L163.725 152.888ZM185.217 74.8853L191.516 67.1926V153.253L185.217 153.171V74.8853Z" fill="url(#paint1_linear_3328_12151)"/>
</g>
<path d="M191.196 52.436H156.971L161.71 46.9035L169.704 51.9985L174.926 47.3866L176.54 49.8748L190.075 44.7798L188.343 40.2954L178.508 44.0233L175.975 40.0493L169.23 45.9829L160.753 40.5688L154.965 47.3501L148.941 42.9751L140.464 49.8748V41.6535H135.643V57.2485H191.196V52.436ZM149.141 49.0272L153.799 52.436H144.967L149.141 49.0272ZM140.464 50.9139L141.667 52.436H140.464V50.9139Z" fill="url(#paint2_linear_3328_12151)"/>
<path d="M184.205 14.8384H189.027V38.4452H184.205V14.8384Z" fill="url(#paint3_linear_3328_12151)"/>
<path d="M155.131 8.06641H159.943V38.4453H155.131V8.06641Z" fill="url(#paint4_linear_3328_12151)"/>
<path d="M141.186 30.1143H146.007V38.126H141.186V30.1143Z" fill="url(#paint5_linear_3328_12151)"/>
<path d="M170.471 21.811H175.292V38.4907H170.471V21.811Z" fill="url(#paint6_linear_3328_12151)"/>
<path d="M98.0912 96.7327C97.6081 96.6506 86.0417 94.4085 77 100.944C74.4297 102.821 72.224 105.109 70.4102 107.716V92.3577C75.7513 93.2053 81.2201 91.8381 85.513 88.5569C94.1081 81.7392 94.2721 72.3238 94.2721 71.9228C94.2721 70.7926 93.5065 69.79 92.3854 69.553C91.9388 69.471 82.3776 67.4293 74.9128 73.3629C71.9779 75.7236 69.6081 78.7314 68.0039 82.1402C66.4362 78.7314 64.0664 75.7236 61.1315 73.3629C53.6576 67.4293 44.0599 69.471 43.6589 69.553C42.5378 69.79 41.7357 70.7926 41.7721 71.9228C41.7721 72.3238 41.9362 81.7392 50.5313 88.5569C53.9036 91.2366 58.1237 92.6858 62.4622 92.6038C63.5013 92.6038 64.5495 92.5217 65.5885 92.3577V107.716C63.7839 105.109 61.5781 102.785 59.0078 100.944C50.0026 94.4085 38.4362 96.6506 37.9167 96.7327C36.7956 96.9696 35.9844 97.9358 35.9844 99.0933C35.9844 99.54 36.1849 110.204 46.7487 117.815C51.6159 121.388 56.957 122.263 61.0951 122.263C62.5807 122.263 64.1029 122.144 65.5885 121.944V133.565H56.0273V138.377H80.0078V133.565H70.4102V121.944C71.8958 122.144 73.4271 122.263 74.9128 122.263C79.0872 122.263 84.3919 121.388 89.2956 117.815C99.8594 110.204 100.014 99.54 100.014 99.0933C100.06 97.9358 99.2122 96.9332 98.0912 96.7327ZM49.5651 113.932C43.5404 109.557 41.6536 104.106 41.0885 101.181C44.4245 100.944 50.9688 101.062 56.1914 104.826C61.4141 108.6 63.9479 114.169 64.9049 117.177C61.5781 117.66 55.1068 117.933 49.5651 113.932ZM77.8841 77.1272C81.7031 74.0829 86.4792 73.846 89.168 74.0009C88.3294 78.2939 85.9596 82.1038 82.5052 84.7835C78.3672 88.0738 73.7096 88.0282 71.0573 87.6363C71.8594 84.984 73.7461 80.4176 77.8841 77.1272ZM53.5391 84.7835C50.0846 82.1038 47.7148 78.2939 46.8763 74.0009C49.5651 73.846 54.3047 74.0829 58.1237 77.1272C61.9336 80.1806 64.1849 84.9475 64.987 87.6363C62.3346 87.9918 57.6406 88.0738 53.5391 84.7835ZM86.4792 113.932C80.8919 117.933 74.4661 117.66 71.1393 117.177C72.0964 114.169 74.4661 108.718 79.8529 104.826C85.2305 100.944 91.5833 100.944 94.9557 101.181C94.3542 104.143 92.4675 109.602 86.4792 113.932Z" fill="url(#paint7_linear_3328_12151)"/>
<path d="M155.649 80.4544C154.801 74.0833 149.542 69.1523 143.153 69.1523C139.215 69.1523 135.524 71.0391 133.191 74.2018C131.951 73.7187 130.62 73.4453 129.262 73.4453C123.876 73.4453 119.373 77.3281 118.288 82.6237C114.916 84.6289 112.865 88.2292 112.865 92.1211C112.865 98.1367 117.568 102.986 123.356 102.986H155.403C155.768 102.986 156.087 102.904 156.415 102.785C160.425 100.98 163.196 96.332 163.196 91.4831C163.196 86.6341 160.152 82.0586 155.649 80.4544ZM154.847 98.1732H123.356C120.221 98.1732 117.687 95.4479 117.687 92.1211C117.65 89.6784 119.136 87.4362 121.387 86.4701C122.226 86.151 122.791 85.349 122.873 84.4648C123.192 80.9375 125.926 78.2487 129.262 78.2487C130.502 78.2487 131.705 78.6497 132.717 79.3333C133.273 79.7344 134.002 79.8529 134.676 79.6979C135.36 79.4974 135.925 79.0508 136.244 78.4128C137.493 75.724 140.182 73.9648 143.153 73.9648C147.455 73.9648 150.946 77.6471 150.946 82.2227V82.3411C150.946 83.5078 151.794 84.5469 152.96 84.7018C156.05 85.2305 158.383 88.1562 158.383 91.4831C158.383 94.8099 156.898 97.0156 154.847 98.1732Z" fill="url(#paint8_linear_3328_12151)"/>
<path d="M156.772 107.269C155.688 106.476 154.202 106.713 153.4 107.798L146.974 116.612C146.172 117.696 146.409 119.182 147.494 119.984C147.895 120.257 148.423 120.421 148.906 120.421C149.663 120.421 150.428 120.057 150.866 119.419L157.301 110.642C158.103 109.557 157.857 108.071 156.772 107.269Z" fill="url(#paint9_linear_3328_12151)"/>
<path d="M134.642 107.27C133.64 106.477 132.154 106.668 131.389 107.716C131.352 107.753 131.352 107.798 131.307 107.798L124.844 116.612C124.079 117.697 124.316 119.182 125.364 119.984C125.81 120.258 126.284 120.422 126.813 120.422C127.57 120.422 128.299 120.057 128.736 119.419L135.162 110.642C135.964 109.557 135.727 108.072 134.642 107.27Z" fill="url(#paint10_linear_3328_12151)"/>
<path d="M144.838 107.27C143.799 106.477 142.313 106.668 141.511 107.716C141.511 107.753 141.466 107.753 141.466 107.798L138.257 112.2C137.455 113.285 137.692 114.771 138.777 115.573C139.178 115.855 139.697 116.01 140.18 116.01C140.946 116.01 141.666 115.655 142.149 115.053L145.367 110.642C146.169 109.557 145.923 108.072 144.838 107.27Z" fill="url(#paint11_linear_3328_12151)"/>
<path d="M124.315 107.27C123.275 106.477 121.79 106.668 120.988 107.716C120.988 107.753 120.942 107.753 120.942 107.798L117.734 112.2C116.932 113.285 117.169 114.771 118.253 115.573C118.654 115.855 119.174 116.01 119.657 116.01C120.423 116.01 121.143 115.655 121.626 115.053L124.843 110.642C125.6 109.557 125.363 108.072 124.315 107.27Z" fill="url(#paint12_linear_3328_12151)"/>
<path d="M53.4199 31.9556L56.3548 35.7655C59.8457 33.0767 64.5488 32.9947 67.8027 35.565L70.7741 31.7915C65.7884 27.8631 58.6426 27.9087 53.4199 31.9556Z" fill="url(#paint13_linear_3328_12151)"/>
<path d="M77.9655 24.1809C69.6895 15.6406 55.6712 15.7226 46.748 24.3815L50.1296 27.8268C57.1113 21.0091 68.0853 20.8906 74.5111 27.5442L77.9655 24.1809Z" fill="url(#paint14_linear_3328_12151)"/>
<path d="M62.416 12.5509C69.6895 12.4324 76.6803 15.2762 81.7389 20.4897L85.1934 17.1264C79.2871 11.0744 71.1387 7.66551 62.6621 7.74754H62.3796C53.6204 7.86603 45.2259 11.3113 38.9551 17.4455L42.3366 20.8908C47.6777 15.6043 54.9056 12.633 62.416 12.5509Z" fill="url(#paint15_linear_3328_12151)"/>
<defs>
<linearGradient id="paint0_linear_3328_12151" x1="99.2767" y1="164.874" x2="99.2767" y2="169.686" gradientUnits="userSpaceOnUse">
<stop stop-color="#28C878"/>
<stop offset="1" stop-color="#C4E930"/>
</linearGradient>
<linearGradient id="paint1_linear_3328_12151" x1="105" y1="0.0090332" x2="105" y2="208.25" gradientUnits="userSpaceOnUse">
<stop stop-color="#28C878"/>
<stop offset="1" stop-color="#C4E930"/>
</linearGradient>
<linearGradient id="paint2_linear_3328_12151" x1="163.419" y1="40.0493" x2="163.419" y2="57.2485" gradientUnits="userSpaceOnUse">
<stop stop-color="#28C878"/>
<stop offset="1" stop-color="#C4E930"/>
</linearGradient>
<linearGradient id="paint3_linear_3328_12151" x1="186.616" y1="14.8384" x2="186.616" y2="38.4452" gradientUnits="userSpaceOnUse">
<stop stop-color="#28C878"/>
<stop offset="1" stop-color="#C4E930"/>
</linearGradient>
<linearGradient id="paint4_linear_3328_12151" x1="157.537" y1="8.06641" x2="157.537" y2="38.4453" gradientUnits="userSpaceOnUse">
<stop stop-color="#28C878"/>
<stop offset="1" stop-color="#C4E930"/>
</linearGradient>
<linearGradient id="paint5_linear_3328_12151" x1="143.596" y1="30.1143" x2="143.596" y2="38.126" gradientUnits="userSpaceOnUse">
<stop stop-color="#28C878"/>
<stop offset="1" stop-color="#C4E930"/>
</linearGradient>
<linearGradient id="paint6_linear_3328_12151" x1="172.882" y1="21.811" x2="172.882" y2="38.4907" gradientUnits="userSpaceOnUse">
<stop stop-color="#28C878"/>
<stop offset="1" stop-color="#C4E930"/>
</linearGradient>
<linearGradient id="paint7_linear_3328_12151" x1="68.0002" y1="69.1484" x2="68.0002" y2="138.377" gradientUnits="userSpaceOnUse">
<stop stop-color="#28C878"/>
<stop offset="1" stop-color="#C4E930"/>
</linearGradient>
<linearGradient id="paint8_linear_3328_12151" x1="138.031" y1="69.1523" x2="138.031" y2="102.986" gradientUnits="userSpaceOnUse">
<stop stop-color="#28C878"/>
<stop offset="1" stop-color="#C4E930"/>
</linearGradient>
<linearGradient id="paint9_linear_3328_12151" x1="152.136" y1="106.8" x2="152.136" y2="120.421" gradientUnits="userSpaceOnUse">
<stop stop-color="#28C878"/>
<stop offset="1" stop-color="#C4E930"/>
</linearGradient>
<linearGradient id="paint10_linear_3328_12151" x1="130.016" y1="106.782" x2="130.016" y2="120.422" gradientUnits="userSpaceOnUse">
<stop stop-color="#28C878"/>
<stop offset="1" stop-color="#C4E930"/>
</linearGradient>
<linearGradient id="paint11_linear_3328_12151" x1="141.81" y1="106.782" x2="141.81" y2="116.01" gradientUnits="userSpaceOnUse">
<stop stop-color="#28C878"/>
<stop offset="1" stop-color="#C4E930"/>
</linearGradient>
<linearGradient id="paint12_linear_3328_12151" x1="121.272" y1="106.782" x2="121.272" y2="116.01" gradientUnits="userSpaceOnUse">
<stop stop-color="#28C878"/>
<stop offset="1" stop-color="#C4E930"/>
</linearGradient>
<linearGradient id="paint13_linear_3328_12151" x1="62.097" y1="28.8823" x2="62.097" y2="35.7655" gradientUnits="userSpaceOnUse">
<stop stop-color="#28C878"/>
<stop offset="1" stop-color="#C4E930"/>
</linearGradient>
<linearGradient id="paint14_linear_3328_12151" x1="62.3568" y1="17.8311" x2="62.3568" y2="27.8268" gradientUnits="userSpaceOnUse">
<stop stop-color="#28C878"/>
<stop offset="1" stop-color="#C4E930"/>
</linearGradient>
<linearGradient id="paint15_linear_3328_12151" x1="62.0742" y1="7.74609" x2="62.0742" y2="20.8908" gradientUnits="userSpaceOnUse">
<stop stop-color="#28C878"/>
<stop offset="1" stop-color="#C4E930"/>
</linearGradient>
</defs>
</svg>
