<svg width="124" height="126" viewBox="0 0 124 126" fill="none" xmlns="http://www.w3.org/2000/svg">
<mask id="mask0_3102_14097" style="mask-type:luminance" maskUnits="userSpaceOnUse" x="0" y="0" width="124" height="126">
<path d="M0 0H124V126H0V0Z" fill="white"/>
</mask>
<g mask="url(#mask0_3102_14097)">
<path d="M24.6615 40.8022C35.5104 40.8022 44.3073 32.0106 44.3073 21.1668C44.3073 10.3231 35.5104 1.53141 24.6615 1.53141C13.8125 1.53141 5.02083 10.3231 5.02083 21.1668C5.02083 32.0106 13.8125 40.8022 24.6615 40.8022ZM13.5729 18.5106C14.7083 17.3752 16.5573 17.3752 17.6927 18.5106L22.0833 22.9012L31.6354 13.2554C32.7656 12.1147 34.6094 12.1095 35.75 13.245C36.8854 14.3752 36.8906 16.2137 35.7604 17.3543C31.8854 21.2606 28.0417 25.1929 24.151 29.0835C23.0104 30.2189 21.1667 30.2189 20.0312 29.0835L13.5729 22.6304C12.4375 21.495 12.4375 19.6512 13.5729 18.5106ZM1.44271 48.922C1.88021 46.9012 2.41667 44.9116 3.05208 42.9429C3.40104 41.8543 4.5625 41.2606 5.64583 41.6095C6.73438 41.9585 7.33333 43.12 6.98438 44.2033C6.39583 46.0366 5.89583 47.9116 5.48958 49.797C5.25 50.9116 4.14583 51.62 3.03125 51.3804C1.91146 51.1408 1.20313 50.0366 1.44271 48.922ZM0.140625 65.0262C0.0416666 62.9533 0.0416666 60.922 0.140625 58.8439C0.192708 57.7033 1.16146 56.8231 2.30208 56.8804C3.44271 56.9325 4.32292 57.9012 4.26563 59.0366C4.17708 60.9533 4.17708 62.9168 4.26563 64.8335L2.30208 66.995C1.16146 67.047 0.192708 66.1668 0.140625 65.0262ZM87.4635 7.72933C87.9896 6.7137 89.2344 6.31787 90.25 6.8387C92.0833 7.78141 93.875 8.81266 95.6094 9.93246C96.5677 10.547 96.849 11.8231 96.2292 12.7866C95.6146 13.745 94.3333 14.0262 93.375 13.4064C91.75 12.3595 90.0781 11.396 88.3542 10.5106C87.3385 9.98975 86.9427 8.74496 87.4635 7.72933ZM36.5312 116.146C36.0104 117.156 34.7656 117.557 33.75 117.031C31.9219 116.094 30.1146 115.052 28.3906 113.943C27.4323 113.328 27.151 112.047 27.7656 111.089C28.3854 110.125 29.6615 109.849 30.625 110.464C32.2604 111.516 33.9115 112.474 35.6406 113.36C36.6562 113.886 37.0573 115.13 36.5312 116.146ZM72.5573 2.98975C72.8021 1.86995 73.901 1.16162 75.0208 1.4012C77.0417 1.8387 79.0312 2.38037 81 3.01058C82.0885 3.35954 82.6823 4.521 82.3333 5.60433C81.9844 6.69287 80.8229 7.29183 79.7396 6.94287C77.901 6.35433 76.026 5.85433 74.1458 5.44808C73.026 5.2085 72.3177 4.10433 72.5573 2.98975ZM56.9375 2.26058C56.8854 1.11995 57.7656 0.156413 58.9062 0.0991213C60.9844 0.000162676 63.0156 0.000162676 65.0938 0.0991213C66.2344 0.156413 67.1146 1.11995 67.0573 2.26058C67.0052 3.40121 66.0365 4.28141 64.8958 4.22933C62.9688 4.13037 61.0313 4.13037 59.099 4.22933C57.9635 4.28141 56.9948 3.40121 56.9375 2.26058ZM41.6615 5.60433C41.3125 4.521 41.9115 3.35954 43 3.01058C44.9688 2.38037 46.9583 1.84391 48.9792 1.4012C50.099 1.16162 51.1979 1.86995 51.4375 2.98975C51.6823 4.10433 50.9688 5.2085 49.8542 5.44808C47.9688 5.85433 46.0938 6.35433 44.2604 6.94287C43.1771 7.29183 42.0104 6.69287 41.6615 5.60433ZM117.016 44.2033C116.667 43.12 117.266 41.9585 118.349 41.6095C119.438 41.2606 120.599 41.8595 120.948 42.9429C121.578 44.9116 122.115 46.9012 122.557 48.922C122.797 50.0366 122.083 51.1408 120.969 51.3804C119.854 51.62 118.75 50.9116 118.51 49.797C118.104 47.9116 117.604 46.0366 117.016 44.2033ZM79.8646 19.2866H72.6354V27.8387H97.9688V19.2866H90.7396C90.1458 16.8335 87.9375 15.0158 85.3021 15.0158C82.6667 15.0158 80.4583 16.8335 79.8646 19.2866ZM85.3021 18.12C86.1198 18.12 86.7812 18.7814 86.7812 19.5991C86.7812 20.4116 86.1198 21.0783 85.3021 21.0783C84.4844 21.0783 83.8229 20.4116 83.8229 19.5991C83.8229 18.7814 84.4844 18.12 85.3021 18.12ZM117.12 90.1772C116.177 92.0002 115.135 93.8075 114.026 95.5314C113.406 96.4897 112.13 96.771 111.167 96.1564C110.208 95.5366 109.927 94.2606 110.547 93.297C111.599 91.6668 112.557 90.0106 113.443 88.2814C113.969 87.2658 115.214 86.87 116.229 87.3908C117.24 87.9168 117.641 89.1616 117.12 90.1772ZM111.911 82.9481V26.6929C111.911 25.0106 110.536 23.6356 108.854 23.6356H102.109V31.9793H68.4948V23.6356H61.75C60.0677 23.6356 58.6927 25.0106 58.6927 26.6929V82.9481C58.6927 84.6304 60.0677 86.0054 61.75 86.0054H108.854C110.536 86.0054 111.911 84.6304 111.911 82.9481ZM78.2083 74.1408C78.2083 75.1512 77.3854 75.9741 76.3802 75.9741H70.8333C69.8229 75.9741 69 75.1512 69 74.1408V68.5991C69 67.5887 69.8229 66.7658 70.8333 66.7658H76.3802C77.3854 66.7658 78.2083 67.5887 78.2083 68.5991V74.1408ZM78.2083 58.5887C78.2083 59.5939 77.3854 60.4168 76.3802 60.4168H70.8333C69.8229 60.4168 69 59.5939 69 58.5887V53.0418C69 52.0366 69.8229 51.2137 70.8333 51.2137H76.3802C77.3854 51.2137 78.2083 52.0366 78.2083 53.0418V58.5887ZM78.2083 43.0314C78.2083 44.0418 77.3854 44.8647 76.3802 44.8647H70.8333C69.8229 44.8647 69 44.0418 69 43.0314V37.4845C69 36.4793 69.8229 35.6564 70.8333 35.6564H76.3802C77.3854 35.6564 78.2083 36.4793 78.2083 37.4845V43.0314ZM101.604 76.7293H86.1458C85 76.7293 84.0729 75.8022 84.0729 74.6564C84.0729 73.5158 85 72.5887 86.1458 72.5887H101.604C102.745 72.5887 103.677 73.5158 103.677 74.6564C103.677 75.8022 102.745 76.7293 101.604 76.7293ZM101.604 70.1512H86.1458C85 70.1512 84.0729 69.2241 84.0729 68.0835C84.0729 66.9377 85 66.0106 86.1458 66.0106H101.604C102.745 66.0106 103.677 66.9377 103.677 68.0835C103.677 69.2241 102.745 70.1512 101.604 70.1512ZM101.604 61.172H86.1458C85 61.172 84.0729 60.245 84.0729 59.1043C84.0729 57.9585 85 57.0314 86.1458 57.0314H101.604C102.745 57.0314 103.677 57.9585 103.677 59.1043C103.677 60.245 102.745 61.172 101.604 61.172ZM101.604 54.5991H86.1458C85 54.5991 84.0729 53.672 84.0729 52.5262C84.0729 51.3804 85 50.4533 86.1458 50.4533H101.604C102.745 50.4533 103.677 51.3804 103.677 52.5262C103.677 53.672 102.745 54.5991 101.604 54.5991ZM101.604 45.62H86.1458C85 45.62 84.0729 44.6929 84.0729 43.547C84.0729 42.4064 85 41.4793 86.1458 41.4793H101.604C102.745 41.4793 103.677 42.4064 103.677 43.547C103.677 44.6929 102.745 45.62 101.604 45.62ZM101.604 39.0418H86.1458C85 39.0418 84.0729 38.1147 84.0729 36.9741C84.0729 35.8283 85 34.9012 86.1458 34.9012H101.604C102.745 34.9012 103.677 35.8283 103.677 36.9741C103.677 38.1147 102.745 39.0418 101.604 39.0418ZM123.859 65.0262C123.802 66.1668 122.839 67.047 121.698 66.995C120.557 66.9377 119.677 65.9741 119.729 64.8335C119.823 62.9168 119.823 60.9533 119.729 59.0366C119.677 57.9012 120.557 56.9325 121.698 56.8804C122.839 56.8231 123.802 57.7033 123.859 58.8439C123.958 60.922 123.958 62.9533 123.859 65.0262ZM122.557 74.9481C122.12 76.9741 121.578 78.9585 120.948 80.9325C120.599 82.0158 119.438 82.6147 118.349 82.2658C117.266 81.9168 116.667 80.7554 117.016 79.6668C117.604 77.8335 118.104 75.9585 118.51 74.0783C118.75 72.9585 119.854 72.2502 120.969 72.4897C122.089 72.7345 122.797 73.8335 122.557 74.9481ZM51.4375 120.886C51.1979 122 50.099 122.708 48.9792 122.469C46.9583 122.031 44.9688 121.495 43 120.86C41.9115 120.516 41.3125 119.349 41.6615 118.266C42.0104 117.177 43.1771 116.583 44.2604 116.932C46.0938 117.521 47.9688 118.016 49.8542 118.422C50.9688 118.667 51.6823 119.766 51.4375 120.886ZM107.781 100.557C108.625 101.318 108.693 102.62 107.927 103.469C106.521 105.016 105.094 106.443 103.547 107.849C102.703 108.61 101.396 108.547 100.635 107.703C99.8698 106.86 99.9323 105.552 100.776 104.792C102.193 103.511 103.589 102.115 104.87 100.698C105.635 99.8543 106.938 99.7918 107.781 100.557ZM22.5938 75.8387C25.0365 75.8387 27.4844 75.8387 29.9271 75.8387C29.9271 83.521 29.9271 83.2658 29.9271 90.9481C27.4844 90.9481 25.0365 90.9481 22.5938 90.9481C22.5938 83.271 22.5938 83.521 22.5938 75.8387ZM12.6719 81.0991H20.0052V90.9481H12.6719V81.0991ZM58.9115 102.781C57.9896 101.886 56.5 101.906 55.6042 102.833L55.3125 103.13L47.2396 95.3022C50.1719 91.1252 51.8906 86.0366 51.8906 80.547C51.8906 66.3335 40.3646 54.8075 26.1458 54.8075C11.9271 54.8075 0.401042 66.3335 0.401042 80.547C0.401042 94.7606 11.9271 106.281 26.1458 106.281C32.5312 106.281 38.3698 103.958 42.8698 100.11L50.7865 107.792L50.5 108.089C49.599 109.016 49.625 110.505 50.5469 111.401L64.6875 125.115C65.6094 126.011 67.099 125.99 67.9948 125.063L73.099 119.807C73.9948 118.88 73.974 117.391 73.0521 116.495L58.9115 102.781ZM26.1458 100.479C15.1302 100.479 6.20312 91.5575 6.20312 80.547C6.20312 69.5366 15.1302 60.6095 26.1458 60.6095C37.1615 60.6095 46.0885 69.5366 46.0885 80.547C46.0885 91.5575 37.1615 100.479 26.1458 100.479ZM96.2292 111.089C96.849 112.047 96.5677 113.323 95.6094 113.943C93.8802 115.052 92.0729 116.094 90.25 117.031C89.2344 117.557 87.9896 117.156 87.4635 116.146C86.9427 115.13 87.3438 113.886 88.3542 113.36C90.1042 112.464 91.724 111.526 93.375 110.464C94.3333 109.849 95.6146 110.125 96.2292 111.089ZM32.5156 70.2502H39.849V90.9481H32.5156V70.2502Z" fill="url(#paint0_linear_3102_14097)"/>
</g>
<defs>
<linearGradient id="paint0_linear_3102_14097" x1="17.1169" y1="0.0249042" x2="106.772" y2="125.852" gradientUnits="userSpaceOnUse">
<stop stop-color="#2AB673"/>
<stop offset="1" stop-color="#86D72F"/>
</linearGradient>
</defs>
</svg>
