<svg width="919" height="83" viewBox="0 0 919 83" fill="none" xmlns="http://www.w3.org/2000/svg">
<mask id="path-1-outside-1_3102_13923" maskUnits="userSpaceOnUse" x="0" y="0" width="919" height="83" fill="black">
<rect fill="white" width="919" height="83"/>
<path d="M24.7109 5.98438V15.75H20.0234V52.2344H24.7109V62H2.71875V52.2344H7.40625V15.75H2.71875V5.98438H24.7109ZM95.1016 62H82.7969V39.1875C82.7969 33.3802 80.6615 30.4766 76.3906 30.4766C74.3594 30.4766 72.7057 31.349 71.4297 33.0938C70.1536 34.8385 69.5156 37.013 69.5156 39.6172V62H57.1719V38.9531C57.1719 33.3021 55.0755 30.4766 50.8828 30.4766C48.7734 30.4766 47.0807 31.3099 45.8047 32.9766C44.5547 34.6432 43.9297 36.9089 43.9297 39.7734V62H31.5859V22H43.9297V28.25H44.0859C45.362 26.1146 47.1458 24.3828 49.4375 23.0547C51.7552 21.7005 54.2812 21.0234 57.0156 21.0234C62.6667 21.0234 66.5339 23.5104 68.6172 28.4844C71.6641 23.5104 76.1432 21.0234 82.0547 21.0234C90.7526 21.0234 95.1016 26.388 95.1016 37.1172V62ZM117.367 57.3516H117.211V80.3984H104.867V22H117.211V28.0156H117.367C120.414 23.3542 124.698 21.0234 130.219 21.0234C135.401 21.0234 139.398 22.8073 142.211 26.375C145.049 29.9167 146.469 34.7474 146.469 40.8672C146.469 47.5339 144.815 52.8854 141.508 56.9219C138.227 60.9583 133.852 62.9766 128.383 62.9766C123.565 62.9766 119.893 61.1016 117.367 57.3516ZM117.016 40.9453V44.1484C117.016 46.9089 117.745 49.1615 119.203 50.9062C120.661 52.651 122.576 53.5234 124.945 53.5234C127.758 53.5234 129.932 52.4427 131.469 50.2812C133.031 48.0938 133.812 45.0078 133.812 41.0234C133.812 33.9922 131.078 30.4766 125.609 30.4766C123.083 30.4766 121.013 31.4401 119.398 33.3672C117.81 35.2682 117.016 37.7943 117.016 40.9453ZM186.977 62H175.297V56.2578H175.141C172.458 60.737 168.487 62.9766 163.227 62.9766C159.346 62.9766 156.286 61.8828 154.047 59.6953C151.833 57.4818 150.727 54.5391 150.727 50.8672C150.727 43.1068 155.323 38.6276 164.516 37.4297L175.375 35.9844C175.375 31.6094 173.005 29.4219 168.266 29.4219C163.5 29.4219 158.969 30.8411 154.672 33.6797V24.3828C156.391 23.4974 158.734 22.7161 161.703 22.0391C164.698 21.362 167.419 21.0234 169.867 21.0234C181.273 21.0234 186.977 26.7135 186.977 38.0938V62ZM175.375 45.75V43.0547L168.109 43.9922C164.099 44.513 162.094 46.3229 162.094 49.4219C162.094 50.8281 162.576 51.987 163.539 52.8984C164.529 53.7839 165.857 54.2266 167.523 54.2266C169.841 54.2266 171.729 53.4323 173.188 51.8438C174.646 50.2292 175.375 48.1979 175.375 45.75ZM227.055 60.5547C224.268 62.1693 220.245 62.9766 214.984 62.9766C208.839 62.9766 203.865 61.1146 200.062 57.3906C196.26 53.6667 194.359 48.862 194.359 42.9766C194.359 36.1797 196.391 30.8281 200.453 26.9219C204.542 22.9896 209.997 21.0234 216.82 21.0234C221.534 21.0234 224.945 21.6484 227.055 22.8984V33.3672C224.477 31.4401 221.599 30.4766 218.422 30.4766C214.88 30.4766 212.068 31.5182 209.984 33.6016C207.927 35.6589 206.898 38.5104 206.898 42.1562C206.898 45.6979 207.888 48.4844 209.867 50.5156C211.846 52.5208 214.568 53.5234 218.031 53.5234C221.104 53.5234 224.112 52.5599 227.055 50.6328V60.5547ZM259.359 61.5312C257.536 62.4948 254.789 62.9766 251.117 62.9766C242.419 62.9766 238.07 58.4583 238.07 49.4219V31.1016H231.586V22H238.07V13.3672L250.375 9.85156V22H259.359V31.1016H250.375V47.2734C250.375 51.4401 252.029 53.5234 255.336 53.5234C256.638 53.5234 257.979 53.1458 259.359 52.3906V61.5312ZM321.742 62H310.062V56.2578H309.906C307.224 60.737 303.253 62.9766 297.992 62.9766C294.112 62.9766 291.052 61.8828 288.812 59.6953C286.599 57.4818 285.492 54.5391 285.492 50.8672C285.492 43.1068 290.089 38.6276 299.281 37.4297L310.141 35.9844C310.141 31.6094 307.771 29.4219 303.031 29.4219C298.266 29.4219 293.734 30.8411 289.438 33.6797V24.3828C291.156 23.4974 293.5 22.7161 296.469 22.0391C299.464 21.362 302.185 21.0234 304.633 21.0234C316.039 21.0234 321.742 26.7135 321.742 38.0938V62ZM310.141 45.75V43.0547L302.875 43.9922C298.865 44.513 296.859 46.3229 296.859 49.4219C296.859 50.8281 297.341 51.987 298.305 52.8984C299.294 53.7839 300.622 54.2266 302.289 54.2266C304.607 54.2266 306.495 53.4323 307.953 51.8438C309.411 50.2292 310.141 48.1979 310.141 45.75ZM370.141 62H357.836V39.7734C357.836 33.5755 355.622 30.4766 351.195 30.4766C349.06 30.4766 347.302 31.2969 345.922 32.9375C344.542 34.5781 343.852 36.6615 343.852 39.1875V62H331.508V22H343.852V28.3281H344.008C346.951 23.4583 351.234 21.0234 356.859 21.0234C365.714 21.0234 370.141 26.5182 370.141 37.5078V62ZM419.086 62H406.742V56.4922H406.586C403.773 60.8151 399.646 62.9766 394.203 62.9766C389.203 62.9766 385.18 61.2188 382.133 57.7031C379.086 54.1615 377.562 49.2266 377.562 42.8984C377.562 36.2839 379.242 30.9844 382.602 27C385.961 23.0156 390.362 21.0234 395.805 21.0234C400.961 21.0234 404.555 22.8724 406.586 26.5703H406.742V2.78125H419.086V62ZM406.977 42.5469V39.5391C406.977 36.9349 406.221 34.7734 404.711 33.0547C403.201 31.3359 401.234 30.4766 398.812 30.4766C396.078 30.4766 393.943 31.5573 392.406 33.7188C390.87 35.8542 390.102 38.7969 390.102 42.5469C390.102 46.0625 390.844 48.7708 392.328 50.6719C393.812 52.5729 395.87 53.5234 398.5 53.5234C401 53.5234 403.031 52.5208 404.594 50.5156C406.182 48.5104 406.977 45.8542 406.977 42.5469ZM486.391 62H452.797V5.98438H485.102V16.2578H465.414V28.7188H483.734V38.9531H465.414V51.7656H486.391V62ZM527.445 62H515.766V56.2578H515.609C512.927 60.737 508.956 62.9766 503.695 62.9766C499.815 62.9766 496.755 61.8828 494.516 59.6953C492.302 57.4818 491.195 54.5391 491.195 50.8672C491.195 43.1068 495.792 38.6276 504.984 37.4297L515.844 35.9844C515.844 31.6094 513.474 29.4219 508.734 29.4219C503.969 29.4219 499.438 30.8411 495.141 33.6797V24.3828C496.859 23.4974 499.203 22.7161 502.172 22.0391C505.167 21.362 507.888 21.0234 510.336 21.0234C521.742 21.0234 527.445 26.7135 527.445 38.0938V62ZM515.844 45.75V43.0547L508.578 43.9922C504.568 44.513 502.562 46.3229 502.562 49.4219C502.562 50.8281 503.044 51.987 504.008 52.8984C504.997 53.7839 506.326 54.2266 507.992 54.2266C510.31 54.2266 512.198 53.4323 513.656 51.8438C515.115 50.2292 515.844 48.1979 515.844 45.75ZM563.305 33.1328C561.82 32.3255 560.089 31.9219 558.109 31.9219C555.427 31.9219 553.331 32.9115 551.82 34.8906C550.31 36.8438 549.555 39.513 549.555 42.8984V62H537.211V22H549.555V29.4219H549.711C551.664 24.0052 555.18 21.2969 560.258 21.2969C561.56 21.2969 562.576 21.4531 563.305 21.7656V33.1328ZM581.43 62H569.086V2.78125H581.43V62ZM629.906 22L613.656 65.2031C609.75 75.5938 603.865 80.7891 596 80.7891C593.005 80.7891 590.544 80.4505 588.617 79.7734V69.9297C590.258 70.8932 592.042 71.375 593.969 71.375C597.146 71.375 599.359 69.8776 600.609 66.8828L602.719 61.9219L586.469 22H600.141L607.602 46.3359C608.07 47.8464 608.435 49.6302 608.695 51.6875H608.852C609.086 50.1771 609.516 48.4193 610.141 46.4141L617.68 22H629.906ZM705.18 62H690.688L681.977 47.5859C681.326 46.4922 680.701 45.5156 680.102 44.6562C679.503 43.7969 678.891 43.0677 678.266 42.4688C677.667 41.8438 677.029 41.375 676.352 41.0625C675.701 40.724 674.984 40.5547 674.203 40.5547H670.805V62H658.188V5.98438H678.188C691.781 5.98438 698.578 11.0625 698.578 21.2188C698.578 23.1719 698.279 24.9818 697.68 26.6484C697.081 28.2891 696.234 29.7734 695.141 31.1016C694.047 32.4297 692.719 33.5755 691.156 34.5391C689.62 35.5026 687.901 36.2578 686 36.8047V36.9609C686.833 37.2214 687.641 37.651 688.422 38.25C689.203 38.8229 689.958 39.5 690.688 40.2812C691.417 41.0625 692.107 41.9089 692.758 42.8203C693.435 43.7057 694.047 44.5781 694.594 45.4375L705.18 62ZM670.805 15.4375V31.0234H676.273C678.982 31.0234 681.156 30.2422 682.797 28.6797C684.464 27.0911 685.297 25.125 685.297 22.7812C685.297 17.8854 682.367 15.4375 676.508 15.4375H670.805ZM743.148 45.5156H717.055C717.471 51.3229 721.13 54.2266 728.031 54.2266C732.432 54.2266 736.299 53.1849 739.633 51.1016V60.0078C735.935 61.987 731.13 62.9766 725.219 62.9766C718.76 62.9766 713.747 61.1927 710.18 57.625C706.612 54.0312 704.828 49.0312 704.828 42.625C704.828 35.9844 706.755 30.724 710.609 26.8438C714.464 22.9635 719.203 21.0234 724.828 21.0234C730.661 21.0234 735.167 22.7552 738.344 26.2188C741.547 29.6823 743.148 34.3828 743.148 40.3203V45.5156ZM731.703 37.9375C731.703 32.2083 729.385 29.3438 724.75 29.3438C722.771 29.3438 721.052 30.1641 719.594 31.8047C718.161 33.4453 717.289 35.4896 716.977 37.9375H731.703ZM747.875 60.9453V50.9453C749.906 52.1693 751.924 53.0807 753.93 53.6797C755.961 54.2786 757.875 54.5781 759.672 54.5781C761.859 54.5781 763.578 54.2786 764.828 53.6797C766.104 53.0807 766.742 52.1693 766.742 50.9453C766.742 50.1641 766.456 49.513 765.883 48.9922C765.31 48.4714 764.568 48.0156 763.656 47.625C762.771 47.2344 761.794 46.8828 760.727 46.5703C759.659 46.2578 758.63 45.9062 757.641 45.5156C756.052 44.9167 754.646 44.2786 753.422 43.6016C752.224 42.8984 751.208 42.0911 750.375 41.1797C749.568 40.2682 748.943 39.2135 748.5 38.0156C748.083 36.8177 747.875 35.3984 747.875 33.7578C747.875 31.5182 748.357 29.5911 749.32 27.9766C750.31 26.362 751.612 25.0469 753.227 24.0312C754.867 22.9896 756.729 22.2344 758.812 21.7656C760.922 21.2708 763.109 21.0234 765.375 21.0234C767.146 21.0234 768.943 21.1667 770.766 21.4531C772.589 21.7135 774.385 22.1042 776.156 22.625V32.1562C774.594 31.2448 772.914 30.5677 771.117 30.125C769.346 29.6562 767.602 29.4219 765.883 29.4219C765.076 29.4219 764.307 29.5 763.578 29.6562C762.875 29.7865 762.25 29.9948 761.703 30.2812C761.156 30.5417 760.727 30.8932 760.414 31.3359C760.102 31.7526 759.945 32.2344 759.945 32.7812C759.945 33.5104 760.18 34.1354 760.648 34.6562C761.117 35.1771 761.729 35.6328 762.484 36.0234C763.24 36.388 764.073 36.7266 764.984 37.0391C765.922 37.3255 766.846 37.625 767.758 37.9375C769.398 38.5104 770.883 39.1354 772.211 39.8125C773.539 40.4896 774.672 41.2839 775.609 42.1953C776.573 43.1068 777.302 44.1745 777.797 45.3984C778.318 46.6224 778.578 48.0807 778.578 49.7734C778.578 52.1432 778.057 54.1745 777.016 55.8672C776 57.5339 774.633 58.901 772.914 59.9688C771.221 61.0104 769.255 61.7656 767.016 62.2344C764.802 62.7292 762.497 62.9766 760.102 62.9766C755.701 62.9766 751.625 62.2995 747.875 60.9453ZM823.734 62H811.43V55.9062H811.234C808.188 60.6198 804.112 62.9766 799.008 62.9766C789.737 62.9766 785.102 57.3646 785.102 46.1406V22H797.406V45.0469C797.406 50.6979 799.646 53.5234 804.125 53.5234C806.339 53.5234 808.109 52.7552 809.438 51.2188C810.766 49.6562 811.43 47.5469 811.43 44.8906V22H823.734V62ZM846.508 62H834.164V2.78125H846.508V62ZM881.078 61.5312C879.255 62.4948 876.508 62.9766 872.836 62.9766C864.138 62.9766 859.789 58.4583 859.789 49.4219V31.1016H853.305V22H859.789V13.3672L872.094 9.85156V22H881.078V31.1016H872.094V47.2734C872.094 51.4401 873.747 53.5234 877.055 53.5234C878.357 53.5234 879.698 53.1458 881.078 52.3906V61.5312ZM885.453 60.9453V50.9453C887.484 52.1693 889.503 53.0807 891.508 53.6797C893.539 54.2786 895.453 54.5781 897.25 54.5781C899.438 54.5781 901.156 54.2786 902.406 53.6797C903.682 53.0807 904.32 52.1693 904.32 50.9453C904.32 50.1641 904.034 49.513 903.461 48.9922C902.888 48.4714 902.146 48.0156 901.234 47.625C900.349 47.2344 899.372 46.8828 898.305 46.5703C897.237 46.2578 896.208 45.9062 895.219 45.5156C893.63 44.9167 892.224 44.2786 891 43.6016C889.802 42.8984 888.786 42.0911 887.953 41.1797C887.146 40.2682 886.521 39.2135 886.078 38.0156C885.661 36.8177 885.453 35.3984 885.453 33.7578C885.453 31.5182 885.935 29.5911 886.898 27.9766C887.888 26.362 889.19 25.0469 890.805 24.0312C892.445 22.9896 894.307 22.2344 896.391 21.7656C898.5 21.2708 900.688 21.0234 902.953 21.0234C904.724 21.0234 906.521 21.1667 908.344 21.4531C910.167 21.7135 911.964 22.1042 913.734 22.625V32.1562C912.172 31.2448 910.492 30.5677 908.695 30.125C906.924 29.6562 905.18 29.4219 903.461 29.4219C902.654 29.4219 901.885 29.5 901.156 29.6562C900.453 29.7865 899.828 29.9948 899.281 30.2812C898.734 30.5417 898.305 30.8932 897.992 31.3359C897.68 31.7526 897.523 32.2344 897.523 32.7812C897.523 33.5104 897.758 34.1354 898.227 34.6562C898.695 35.1771 899.307 35.6328 900.062 36.0234C900.818 36.388 901.651 36.7266 902.562 37.0391C903.5 37.3255 904.424 37.625 905.336 37.9375C906.977 38.5104 908.461 39.1354 909.789 39.8125C911.117 40.4896 912.25 41.2839 913.188 42.1953C914.151 43.1068 914.88 44.1745 915.375 45.3984C915.896 46.6224 916.156 48.0807 916.156 49.7734C916.156 52.1432 915.635 54.1745 914.594 55.8672C913.578 57.5339 912.211 58.901 910.492 59.9688C908.799 61.0104 906.833 61.7656 904.594 62.2344C902.38 62.7292 900.076 62.9766 897.68 62.9766C893.279 62.9766 889.203 62.2995 885.453 60.9453Z"/>
</mask>
<path d="M24.7109 5.98438H26.7109V3.98438H24.7109V5.98438ZM24.7109 15.75V17.75H26.7109V15.75H24.7109ZM20.0234 15.75V13.75H18.0234V15.75H20.0234ZM20.0234 52.2344H18.0234V54.2344H20.0234V52.2344ZM24.7109 52.2344H26.7109V50.2344H24.7109V52.2344ZM24.7109 62V64H26.7109V62H24.7109ZM2.71875 62H0.71875V64H2.71875V62ZM2.71875 52.2344V50.2344H0.71875V52.2344H2.71875ZM7.40625 52.2344V54.2344H9.40625V52.2344H7.40625ZM7.40625 15.75H9.40625V13.75H7.40625V15.75ZM2.71875 15.75H0.71875V17.75H2.71875V15.75ZM2.71875 5.98438V3.98438H0.71875V5.98438H2.71875ZM24.7109 5.98438H22.7109V15.75H24.7109H26.7109V5.98438H24.7109ZM24.7109 15.75V13.75H20.0234V15.75V17.75H24.7109V15.75ZM20.0234 15.75H18.0234V52.2344H20.0234H22.0234V15.75H20.0234ZM20.0234 52.2344V54.2344H24.7109V52.2344V50.2344H20.0234V52.2344ZM24.7109 52.2344H22.7109V62H24.7109H26.7109V52.2344H24.7109ZM24.7109 62V60H2.71875V62V64H24.7109V62ZM2.71875 62H4.71875V52.2344H2.71875H0.71875V62H2.71875ZM2.71875 52.2344V54.2344H7.40625V52.2344V50.2344H2.71875V52.2344ZM7.40625 52.2344H9.40625V15.75H7.40625H5.40625V52.2344H7.40625ZM7.40625 15.75V13.75H2.71875V15.75V17.75H7.40625V15.75ZM2.71875 15.75H4.71875V5.98438H2.71875H0.71875V15.75H2.71875ZM2.71875 5.98438V7.98438H24.7109V5.98438V3.98438H2.71875V5.98438ZM95.1016 62V64H97.1016V62H95.1016ZM82.7969 62H80.7969V64H82.7969V62ZM69.5156 62V64H71.5156V62H69.5156ZM57.1719 62H55.1719V64H57.1719V62ZM45.8047 32.9766L44.2167 31.7607L44.2106 31.7686L44.2047 31.7766L45.8047 32.9766ZM43.9297 62V64H45.9297V62H43.9297ZM31.5859 62H29.5859V64H31.5859V62ZM31.5859 22V20H29.5859V22H31.5859ZM43.9297 22H45.9297V20H43.9297V22ZM43.9297 28.25H41.9297V30.25H43.9297V28.25ZM44.0859 28.25V30.25H45.2207L45.8028 29.2759L44.0859 28.25ZM49.4375 23.0547L50.4404 24.7851L50.4464 24.7815L49.4375 23.0547ZM68.6172 28.4844L66.7725 29.257L68.2818 32.8607L70.3226 29.5291L68.6172 28.4844ZM95.1016 62V60H82.7969V62V64H95.1016V62ZM82.7969 62H84.7969V39.1875H82.7969H80.7969V62H82.7969ZM82.7969 39.1875H84.7969C84.7969 36.0976 84.2393 33.4175 82.8065 31.4694C81.2894 29.4065 79.0289 28.4766 76.3906 28.4766V30.4766V32.4766C78.0232 32.4766 78.9658 32.9985 79.5841 33.8392C80.2868 34.7947 80.7969 36.4701 80.7969 39.1875H82.7969ZM76.3906 30.4766V28.4766C73.6749 28.4766 71.4397 29.692 69.8153 31.9131L71.4297 33.0938L73.044 34.2744C73.9717 33.0059 75.0438 32.4766 76.3906 32.4766V30.4766ZM71.4297 33.0938L69.8153 31.9131C68.2408 34.066 67.5156 36.6775 67.5156 39.6172H69.5156H71.5156C71.5156 37.3485 72.0665 35.6111 73.044 34.2744L71.4297 33.0938ZM69.5156 39.6172H67.5156V62H69.5156H71.5156V39.6172H69.5156ZM69.5156 62V60H57.1719V62V64H69.5156V62ZM57.1719 62H59.1719V38.9531H57.1719H55.1719V62H57.1719ZM57.1719 38.9531H59.1719C59.1719 35.9386 58.6231 33.3142 57.2058 31.404C55.7056 29.3819 53.4753 28.4766 50.8828 28.4766V30.4766V32.4766C52.483 32.4766 53.3973 32.9839 53.9934 33.7874C54.6725 34.7027 55.1719 36.3166 55.1719 38.9531H57.1719ZM50.8828 30.4766V28.4766C48.1545 28.4766 45.8733 29.5969 44.2167 31.7607L45.8047 32.9766L47.3927 34.1924C48.2881 33.0229 49.3924 32.4766 50.8828 32.4766V30.4766ZM45.8047 32.9766L44.2047 31.7766C42.6134 33.8983 41.9297 36.6355 41.9297 39.7734H43.9297H45.9297C45.9297 37.1822 46.496 35.3882 47.4047 34.1766L45.8047 32.9766ZM43.9297 39.7734H41.9297V62H43.9297H45.9297V39.7734H43.9297ZM43.9297 62V60H31.5859V62V64H43.9297V62ZM31.5859 62H33.5859V22H31.5859H29.5859V62H31.5859ZM31.5859 22V24H43.9297V22V20H31.5859V22ZM43.9297 22H41.9297V28.25H43.9297H45.9297V22H43.9297ZM43.9297 28.25V30.25H44.0859V28.25V26.25H43.9297V28.25ZM44.0859 28.25L45.8028 29.2759C46.8932 27.4511 48.423 25.9542 50.4403 24.7851L49.4375 23.0547L48.4347 21.3243C45.8687 22.8114 43.8307 24.7781 42.3691 27.2241L44.0859 28.25ZM49.4375 23.0547L50.4464 24.7815C52.4521 23.6097 54.6289 23.0234 57.0156 23.0234V21.0234V19.0234C53.9336 19.0234 51.0584 19.7913 48.4286 21.3278L49.4375 23.0547ZM57.0156 21.0234V23.0234C59.5457 23.0234 61.5285 23.5779 63.0725 24.5708C64.6099 25.5595 65.8595 27.0773 66.7725 29.257L68.6172 28.4844L70.4619 27.7117C69.2916 24.9175 67.5659 22.7048 65.2361 21.2065C62.9129 19.7125 60.1366 19.0234 57.0156 19.0234V21.0234ZM68.6172 28.4844L70.3226 29.5291C73 25.1583 76.8277 23.0234 82.0547 23.0234V21.0234V19.0234C75.4587 19.0234 70.3281 21.8625 66.9117 27.4397L68.6172 28.4844ZM82.0547 21.0234V23.0234C85.9713 23.0234 88.5873 24.2107 90.2862 26.3064C92.0502 28.4823 93.1016 31.971 93.1016 37.1172H95.1016H97.1016C97.1016 31.5342 95.9784 26.9761 93.3935 23.7874C90.7434 20.5184 86.8359 19.0234 82.0547 19.0234V21.0234ZM95.1016 37.1172H93.1016V62H95.1016H97.1016V37.1172H95.1016ZM117.367 57.3516L119.026 56.2342L118.431 55.3516H117.367V57.3516ZM117.211 57.3516V55.3516H115.211V57.3516H117.211ZM117.211 80.3984V82.3984H119.211V80.3984H117.211ZM104.867 80.3984H102.867V82.3984H104.867V80.3984ZM104.867 22V20H102.867V22H104.867ZM117.211 22H119.211V20H117.211V22ZM117.211 28.0156H115.211V30.0156H117.211V28.0156ZM117.367 28.0156V30.0156H118.449L119.041 29.1099L117.367 28.0156ZM142.211 26.375L140.64 27.6132L140.645 27.6195L140.65 27.6258L142.211 26.375ZM141.508 56.9219L139.961 55.6543L139.956 55.6603L141.508 56.9219ZM119.203 50.9062L117.669 52.1889L119.203 50.9062ZM131.469 50.2812L129.841 49.1188L129.839 49.1225L131.469 50.2812ZM119.398 33.3672L117.865 32.0827L117.864 32.0848L119.398 33.3672ZM117.367 57.3516V55.3516H117.211V57.3516V59.3516H117.367V57.3516ZM117.211 57.3516H115.211V80.3984H117.211H119.211V57.3516H117.211ZM117.211 80.3984V78.3984H104.867V80.3984V82.3984H117.211V80.3984ZM104.867 80.3984H106.867V22H104.867H102.867V80.3984H104.867ZM104.867 22V24H117.211V22V20H104.867V22ZM117.211 22H115.211V28.0156H117.211H119.211V22H117.211ZM117.211 28.0156V30.0156H117.367V28.0156V26.0156H117.211V28.0156ZM117.367 28.0156L119.041 29.1099C121.723 25.0076 125.38 23.0234 130.219 23.0234V21.0234V19.0234C124.016 19.0234 119.105 21.7008 115.693 26.9214L117.367 28.0156ZM130.219 21.0234V23.0234C134.886 23.0234 138.264 24.5983 140.64 27.6132L142.211 26.375L143.782 25.1368C140.533 21.0163 135.916 19.0234 130.219 19.0234V21.0234ZM142.211 26.375L140.65 27.6258C143.119 30.7063 144.469 35.0442 144.469 40.8672H146.469H148.469C148.469 34.4506 146.98 29.127 143.772 25.1242L142.211 26.375ZM146.469 40.8672H144.469C144.469 47.2024 142.902 52.0648 139.961 55.6543L141.508 56.9219L143.055 58.1894C146.728 53.706 148.469 47.8653 148.469 40.8672H146.469ZM141.508 56.9219L139.956 55.6603C137.076 59.2027 133.285 60.9766 128.383 60.9766V62.9766V64.9766C134.418 64.9766 139.377 62.714 143.06 58.1834L141.508 56.9219ZM128.383 62.9766V60.9766C124.179 60.9766 121.152 59.3908 119.026 56.2342L117.367 57.3516L115.708 58.4689C118.634 62.8123 122.952 64.9766 128.383 64.9766V62.9766ZM117.016 40.9453H115.016V44.1484H117.016H119.016V40.9453H117.016ZM117.016 44.1484H115.016C115.016 47.2735 115.849 50.0117 117.669 52.1889L119.203 50.9062L120.738 49.6236C119.641 48.3112 119.016 46.5442 119.016 44.1484H117.016ZM119.203 50.9062L117.669 52.1889C119.525 54.4099 122.012 55.5234 124.945 55.5234V53.5234V51.5234C123.139 51.5234 121.798 50.8922 120.738 49.6236L119.203 50.9062ZM124.945 53.5234V55.5234C128.359 55.5234 131.161 54.1658 133.099 51.44L131.469 50.2812L129.839 49.1225C128.703 50.7196 127.156 51.5234 124.945 51.5234V53.5234ZM131.469 50.2812L133.096 51.4437C134.992 48.7892 135.812 45.2338 135.812 41.0234H133.812H131.812C131.812 44.7818 131.07 47.3983 129.841 49.1188L131.469 50.2812ZM133.812 41.0234H135.812C135.812 37.3037 135.099 34.146 133.34 31.8854C131.508 29.5293 128.805 28.4766 125.609 28.4766V30.4766V32.4766C127.882 32.4766 129.281 33.1816 130.183 34.3412C131.159 35.5962 131.812 37.7119 131.812 41.0234H133.812ZM125.609 30.4766V28.4766C122.495 28.4766 119.862 29.6996 117.865 32.0827L119.398 33.3672L120.931 34.6516C122.164 33.1806 123.672 32.4766 125.609 32.4766V30.4766ZM119.398 33.3672L117.864 32.0848C115.9 34.4343 115.016 37.4559 115.016 40.9453H117.016H119.016C119.016 38.1326 119.719 36.1021 120.933 34.6496L119.398 33.3672ZM186.977 62V64H188.977V62H186.977ZM175.297 62H173.297V64H175.297V62ZM175.297 56.2578H177.297V54.2578H175.297V56.2578ZM175.141 56.2578V54.2578H174.007L173.425 55.2303L175.141 56.2578ZM154.047 59.6953L152.633 61.1095L152.641 61.1178L152.649 61.1261L154.047 59.6953ZM164.516 37.4297L164.774 39.4129L164.779 39.4122L164.516 37.4297ZM175.375 35.9844L175.639 37.9669L177.375 37.7358V35.9844H175.375ZM154.672 33.6797H152.672V37.3979L155.774 35.3484L154.672 33.6797ZM154.672 24.3828L153.756 22.6049L152.672 23.1633V24.3828H154.672ZM161.703 22.0391L161.262 20.0883L161.258 20.0891L161.703 22.0391ZM175.375 43.0547H177.375V40.78L175.119 41.0711L175.375 43.0547ZM168.109 43.9922L167.853 42.0086L167.852 42.0088L168.109 43.9922ZM163.539 52.8984L162.165 54.3514L162.185 54.3704L162.205 54.3889L163.539 52.8984ZM173.188 51.8438L174.661 53.1963L174.666 53.1903L174.672 53.1843L173.188 51.8438ZM186.977 62V60H175.297V62V64H186.977V62ZM175.297 62H177.297V56.2578H175.297H173.297V62H175.297ZM175.297 56.2578V54.2578H175.141V56.2578V58.2578H175.297V56.2578ZM175.141 56.2578L173.425 55.2303C171.107 59.1006 167.79 60.9766 163.227 60.9766V62.9766V64.9766C169.184 64.9766 173.81 62.3734 176.856 57.2853L175.141 56.2578ZM163.227 62.9766V60.9766C159.737 60.9766 157.225 60.0043 155.444 58.2646L154.047 59.6953L152.649 61.1261C155.347 63.7614 158.956 64.9766 163.227 64.9766V62.9766ZM154.047 59.6953L155.461 58.2811C153.687 56.5072 152.727 54.1075 152.727 50.8672H150.727H148.727C148.727 54.9706 149.979 58.4563 152.633 61.1095L154.047 59.6953ZM150.727 50.8672H152.727C152.727 47.4054 153.737 44.9062 155.57 43.1199C157.448 41.2898 160.423 39.98 164.774 39.4129L164.516 37.4297L164.257 35.4465C159.416 36.0773 155.496 37.606 152.778 40.2551C150.015 42.948 148.727 46.5686 148.727 50.8672H150.727ZM164.516 37.4297L164.779 39.4122L175.639 37.9669L175.375 35.9844L175.111 34.0019L164.252 35.4472L164.516 37.4297ZM175.375 35.9844H177.375C177.375 33.4456 176.68 31.1859 174.954 29.5929C173.259 28.0278 170.906 27.4219 168.266 27.4219V29.4219V31.4219C170.365 31.4219 171.567 31.9097 172.241 32.5321C172.885 33.1266 173.375 34.1481 173.375 35.9844H175.375ZM168.266 29.4219V27.4219C163.076 27.4219 158.166 28.9745 153.569 32.0109L154.672 33.6797L155.774 35.3484C159.772 32.7077 163.924 31.4219 168.266 31.4219V29.4219ZM154.672 33.6797H156.672V24.3828H154.672H152.672V33.6797H154.672ZM154.672 24.3828L155.588 26.1608C157.097 25.3831 159.261 24.6475 162.148 23.989L161.703 22.0391L161.258 20.0891C158.208 20.7848 155.684 21.6117 153.756 22.6049L154.672 24.3828ZM161.703 22.0391L162.144 23.9898C165.029 23.3376 167.6 23.0234 169.867 23.0234V21.0234V19.0234C167.239 19.0234 164.367 19.3864 161.262 20.0883L161.703 22.0391ZM169.867 21.0234V23.0234C175.263 23.0234 178.943 24.3682 181.287 26.7068C183.63 29.0447 184.977 32.7131 184.977 38.0938H186.977H188.977C188.977 32.0942 187.472 27.2274 184.112 23.8752C180.753 20.5238 175.877 19.0234 169.867 19.0234V21.0234ZM186.977 38.0938H184.977V62H186.977H188.977V38.0938H186.977ZM175.375 45.75H177.375V43.0547H175.375H173.375V45.75H175.375ZM175.375 43.0547L175.119 41.0711L167.853 42.0086L168.109 43.9922L168.365 45.9757L175.631 45.0382L175.375 43.0547ZM168.109 43.9922L167.852 42.0088C165.632 42.2971 163.678 42.9737 162.258 44.2556C160.771 45.5973 160.094 47.3984 160.094 49.4219H162.094H164.094C164.094 48.3464 164.419 47.6931 164.938 47.2249C165.523 46.6969 166.576 46.2081 168.367 45.9755L168.109 43.9922ZM162.094 49.4219H160.094C160.094 51.3407 160.776 53.0374 162.165 54.3514L163.539 52.8984L164.913 51.4455C164.375 50.9366 164.094 50.3155 164.094 49.4219H162.094ZM163.539 52.8984L162.205 54.3889C163.648 55.68 165.495 56.2266 167.523 56.2266V54.2266V52.2266C166.219 52.2266 165.409 51.8877 164.873 51.408L163.539 52.8984ZM167.523 54.2266V56.2266C170.354 56.2266 172.793 55.2308 174.661 53.1963L173.188 51.8438L171.714 50.4912C170.665 51.6338 169.328 52.2266 167.523 52.2266V54.2266ZM173.188 51.8438L174.672 53.1843C176.504 51.1556 177.375 48.6266 177.375 45.75H175.375H173.375C173.375 47.7692 172.788 49.3028 171.703 50.5032L173.188 51.8438ZM227.055 60.5547L228.057 62.2852L229.055 61.7073V60.5547H227.055ZM200.453 26.9219L201.839 28.3635L201.84 28.3634L200.453 26.9219ZM227.055 22.8984H229.055V21.7588L228.074 21.1779L227.055 22.8984ZM227.055 33.3672L225.857 34.9691L229.055 37.3591V33.3672H227.055ZM209.984 33.6016L211.399 35.0158L209.984 33.6016ZM209.867 50.5156L208.435 51.9114L208.444 51.9206L209.867 50.5156ZM227.055 50.6328H229.055V46.9324L225.959 48.9597L227.055 50.6328ZM227.055 60.5547L226.052 58.8242C223.706 60.1837 220.092 60.9766 214.984 60.9766V62.9766V64.9766C220.397 64.9766 224.831 64.1549 228.057 62.2852L227.055 60.5547ZM214.984 62.9766V60.9766C209.274 60.9766 204.832 59.2627 201.462 55.9618L200.062 57.3906L198.663 58.8194C202.897 62.9665 208.403 64.9766 214.984 64.9766V62.9766ZM200.062 57.3906L201.462 55.9618C198.087 52.6557 196.359 48.387 196.359 42.9766H194.359H192.359C192.359 49.337 194.434 54.6776 198.663 58.8194L200.062 57.3906ZM194.359 42.9766H196.359C196.359 36.6032 198.248 31.8166 201.839 28.3635L200.453 26.9219L199.067 25.4802C194.533 29.8396 192.359 35.7562 192.359 42.9766H194.359ZM200.453 26.9219L201.84 28.3634C205.482 24.8599 210.403 23.0234 216.82 23.0234V21.0234V19.0234C209.592 19.0234 203.601 21.1193 199.067 25.4804L200.453 26.9219ZM216.82 21.0234V23.0234C221.451 23.0234 224.407 23.6543 226.035 24.619L227.055 22.8984L228.074 21.1779C225.484 19.6426 221.617 19.0234 216.82 19.0234V21.0234ZM227.055 22.8984H225.055V33.3672H227.055H229.055V22.8984H227.055ZM227.055 33.3672L228.252 31.7653C225.333 29.5834 222.037 28.4766 218.422 28.4766V30.4766V32.4766C221.161 32.4766 223.62 33.2968 225.857 34.9691L227.055 33.3672ZM218.422 30.4766V28.4766C214.464 28.4766 211.103 29.655 208.57 32.1873L209.984 33.6016L211.399 35.0158C213.033 33.3815 215.296 32.4766 218.422 32.4766V30.4766ZM209.984 33.6016L208.57 32.1873C206.048 34.7093 204.898 38.1217 204.898 42.1562H206.898H208.898C208.898 38.8992 209.806 36.6085 211.399 35.0158L209.984 33.6016ZM206.898 42.1562H204.898C204.898 46.0828 206.006 49.4191 208.435 51.9114L209.867 50.5156L211.3 49.1199C209.77 47.5497 208.898 45.313 208.898 42.1562H206.898ZM209.867 50.5156L208.444 51.9206C210.881 54.3904 214.163 55.5234 218.031 55.5234V53.5234V51.5234C214.972 51.5234 212.811 50.6513 211.291 49.1107L209.867 50.5156ZM218.031 53.5234V55.5234C221.548 55.5234 224.93 54.4146 228.15 52.306L227.055 50.6328L225.959 48.9597C223.294 50.7052 220.661 51.5234 218.031 51.5234V53.5234ZM227.055 50.6328H225.055V60.5547H227.055H229.055V50.6328H227.055ZM259.359 61.5312L260.294 63.2994L261.359 62.7363V61.5312H259.359ZM238.07 31.1016H240.07V29.1016H238.07V31.1016ZM231.586 31.1016H229.586V33.1016H231.586V31.1016ZM231.586 22V20H229.586V22H231.586ZM238.07 22V24H240.07V22H238.07ZM238.07 13.3672L237.521 11.4441L236.07 11.8586V13.3672H238.07ZM250.375 9.85156H252.375V7.2001L249.826 7.92852L250.375 9.85156ZM250.375 22H248.375V24H250.375V22ZM259.359 22H261.359V20H259.359V22ZM259.359 31.1016V33.1016H261.359V31.1016H259.359ZM250.375 31.1016V29.1016H248.375V31.1016H250.375ZM259.359 52.3906H261.359V49.0165L258.399 50.6361L259.359 52.3906ZM259.359 61.5312L258.425 59.7631C257.035 60.4977 254.681 60.9766 251.117 60.9766V62.9766V64.9766C254.897 64.9766 258.038 64.4919 260.294 63.2994L259.359 61.5312ZM251.117 62.9766V60.9766C247.096 60.9766 244.443 59.9363 242.773 58.2009C241.089 56.4513 240.07 53.6505 240.07 49.4219H238.07H236.07C236.07 54.2297 237.226 58.2062 239.891 60.9749C242.57 63.7577 246.44 64.9766 251.117 64.9766V62.9766ZM238.07 49.4219H240.07V31.1016H238.07H236.07V49.4219H238.07ZM238.07 31.1016V29.1016H231.586V31.1016V33.1016H238.07V31.1016ZM231.586 31.1016H233.586V22H231.586H229.586V31.1016H231.586ZM231.586 22V24H238.07V22V20H231.586V22ZM238.07 22H240.07V13.3672H238.07H236.07V22H238.07ZM238.07 13.3672L238.62 15.2902L250.924 11.7746L250.375 9.85156L249.826 7.92852L237.521 11.4441L238.07 13.3672ZM250.375 9.85156H248.375V22H250.375H252.375V9.85156H250.375ZM250.375 22V24H259.359V22V20H250.375V22ZM259.359 22H257.359V31.1016H259.359H261.359V22H259.359ZM259.359 31.1016V29.1016H250.375V31.1016V33.1016H259.359V31.1016ZM250.375 31.1016H248.375V47.2734H250.375H252.375V31.1016H250.375ZM250.375 47.2734H248.375C248.375 49.5677 248.821 51.658 250.049 53.2043C251.346 54.8388 253.235 55.5234 255.336 55.5234V53.5234V51.5234C254.129 51.5234 253.538 51.1664 253.182 50.7175C252.755 50.1805 252.375 49.1458 252.375 47.2734H250.375ZM255.336 53.5234V55.5234C257.037 55.5234 258.706 55.0281 260.319 54.1451L259.359 52.3906L258.399 50.6361C257.253 51.2636 256.239 51.5234 255.336 51.5234V53.5234ZM259.359 52.3906H257.359V61.5312H259.359H261.359V52.3906H259.359ZM321.742 62V64H323.742V62H321.742ZM310.062 62H308.062V64H310.062V62ZM310.062 56.2578H312.062V54.2578H310.062V56.2578ZM309.906 56.2578V54.2578H308.773L308.19 55.2303L309.906 56.2578ZM288.812 59.6953L287.398 61.1095L287.407 61.1178L287.415 61.1261L288.812 59.6953ZM299.281 37.4297L299.54 39.4129L299.545 39.4122L299.281 37.4297ZM310.141 35.9844L310.404 37.9669L312.141 37.7358V35.9844H310.141ZM289.438 33.6797H287.438V37.3979L290.54 35.3484L289.438 33.6797ZM289.438 24.3828L288.522 22.6049L287.438 23.1633V24.3828H289.438ZM296.469 22.0391L296.028 20.0883L296.024 20.0891L296.469 22.0391ZM310.141 43.0547H312.141V40.78L309.885 41.0711L310.141 43.0547ZM302.875 43.9922L302.619 42.0086L302.617 42.0088L302.875 43.9922ZM298.305 52.8984L296.93 54.3514L296.95 54.3704L296.971 54.3889L298.305 52.8984ZM307.953 51.8438L309.426 53.1963L309.432 53.1903L309.437 53.1843L307.953 51.8438ZM321.742 62V60H310.062V62V64H321.742V62ZM310.062 62H312.062V56.2578H310.062H308.062V62H310.062ZM310.062 56.2578V54.2578H309.906V56.2578V58.2578H310.062V56.2578ZM309.906 56.2578L308.19 55.2303C305.873 59.1006 302.556 60.9766 297.992 60.9766V62.9766V64.9766C303.949 64.9766 308.575 62.3734 311.622 57.2853L309.906 56.2578ZM297.992 62.9766V60.9766C294.502 60.9766 291.991 60.0043 290.21 58.2646L288.812 59.6953L287.415 61.1261C290.113 63.7614 293.722 64.9766 297.992 64.9766V62.9766ZM288.812 59.6953L290.227 58.2811C288.453 56.5072 287.492 54.1075 287.492 50.8672H285.492H283.492C283.492 54.9706 284.745 58.4563 287.398 61.1095L288.812 59.6953ZM285.492 50.8672H287.492C287.492 47.4054 288.502 44.9062 290.335 43.1199C292.213 41.2898 295.188 39.98 299.54 39.4129L299.281 37.4297L299.023 35.4465C294.181 36.0773 290.262 37.606 287.544 40.2551C284.78 42.948 283.492 46.5686 283.492 50.8672H285.492ZM299.281 37.4297L299.545 39.4122L310.404 37.9669L310.141 35.9844L309.877 34.0019L299.017 35.4472L299.281 37.4297ZM310.141 35.9844H312.141C312.141 33.4456 311.446 31.1859 309.72 29.5929C308.024 28.0278 305.671 27.4219 303.031 27.4219V29.4219V31.4219C305.131 31.4219 306.332 31.9097 307.007 32.5321C307.651 33.1266 308.141 34.1481 308.141 35.9844H310.141ZM303.031 29.4219V27.4219C297.842 27.4219 292.931 28.9745 288.335 32.0109L289.438 33.6797L290.54 35.3484C294.537 32.7077 298.689 31.4219 303.031 31.4219V29.4219ZM289.438 33.6797H291.438V24.3828H289.438H287.438V33.6797H289.438ZM289.438 24.3828L290.353 26.1608C291.863 25.3831 294.026 24.6475 296.913 23.989L296.469 22.0391L296.024 20.0891C292.974 20.7848 290.449 21.6117 288.522 22.6049L289.438 24.3828ZM296.469 22.0391L296.91 23.9898C299.795 23.3376 302.365 23.0234 304.633 23.0234V21.0234V19.0234C302.005 19.0234 299.132 19.3864 296.028 20.0883L296.469 22.0391ZM304.633 21.0234V23.0234C310.029 23.0234 313.708 24.3682 316.052 26.7068C318.395 29.0447 319.742 32.7131 319.742 38.0938H321.742H323.742C323.742 32.0942 322.237 27.2274 318.877 23.8752C315.518 20.5238 310.643 19.0234 304.633 19.0234V21.0234ZM321.742 38.0938H319.742V62H321.742H323.742V38.0938H321.742ZM310.141 45.75H312.141V43.0547H310.141H308.141V45.75H310.141ZM310.141 43.0547L309.885 41.0711L302.619 42.0086L302.875 43.9922L303.131 45.9757L310.397 45.0382L310.141 43.0547ZM302.875 43.9922L302.617 42.0088C300.398 42.2971 298.443 42.9737 297.023 44.2556C295.537 45.5973 294.859 47.3984 294.859 49.4219H296.859H298.859C298.859 48.3464 299.185 47.6931 299.703 47.2249C300.288 46.6969 301.342 46.2081 303.133 45.9755L302.875 43.9922ZM296.859 49.4219H294.859C294.859 51.3407 295.541 53.0374 296.93 54.3514L298.305 52.8984L299.679 51.4455C299.141 50.9366 298.859 50.3155 298.859 49.4219H296.859ZM298.305 52.8984L296.971 54.3889C298.414 55.68 300.261 56.2266 302.289 56.2266V54.2266V52.2266C300.984 52.2266 300.174 51.8877 299.638 51.408L298.305 52.8984ZM302.289 54.2266V56.2266C305.12 56.2266 307.559 55.2308 309.426 53.1963L307.953 51.8438L306.48 50.4912C305.431 51.6338 304.094 52.2266 302.289 52.2266V54.2266ZM307.953 51.8438L309.437 53.1843C311.27 51.1556 312.141 48.6266 312.141 45.75H310.141H308.141C308.141 47.7692 307.553 49.3028 306.469 50.5032L307.953 51.8438ZM370.141 62V64H372.141V62H370.141ZM357.836 62H355.836V64H357.836V62ZM345.922 32.9375L344.391 31.65L345.922 32.9375ZM343.852 62V64H345.852V62H343.852ZM331.508 62H329.508V64H331.508V62ZM331.508 22V20H329.508V22H331.508ZM343.852 22H345.852V20H343.852V22ZM343.852 28.3281H341.852V30.3281H343.852V28.3281ZM344.008 28.3281V30.3281H345.136L345.72 29.3625L344.008 28.3281ZM370.141 62V60H357.836V62V64H370.141V62ZM357.836 62H359.836V39.7734H357.836H355.836V62H357.836ZM357.836 39.7734H359.836C359.836 36.4968 359.262 33.6801 357.803 31.6383C356.256 29.4725 353.935 28.4766 351.195 28.4766V30.4766V32.4766C352.883 32.4766 353.882 33.0301 354.548 33.9633C355.303 35.0204 355.836 36.8522 355.836 39.7734H357.836ZM351.195 30.4766V28.4766C348.467 28.4766 346.15 29.5597 344.391 31.65L345.922 32.9375L347.452 34.225C348.454 33.034 349.653 32.4766 351.195 32.4766V30.4766ZM345.922 32.9375L344.391 31.65C342.656 33.7132 341.852 36.2785 341.852 39.1875H343.852H345.852C345.852 37.0444 346.428 35.443 347.452 34.225L345.922 32.9375ZM343.852 39.1875H341.852V62H343.852H345.852V39.1875H343.852ZM343.852 62V60H331.508V62V64H343.852V62ZM331.508 62H333.508V22H331.508H329.508V62H331.508ZM331.508 22V24H343.852V22V20H331.508V22ZM343.852 22H341.852V28.3281H343.852H345.852V22H343.852ZM343.852 28.3281V30.3281H344.008V28.3281V26.3281H343.852V28.3281ZM344.008 28.3281L345.72 29.3625C348.305 25.0836 351.945 23.0234 356.859 23.0234V21.0234V19.0234C350.524 19.0234 345.596 21.8331 342.296 27.2938L344.008 28.3281ZM356.859 21.0234V23.0234C360.85 23.0234 363.523 24.2404 365.263 26.3993C367.069 28.6408 368.141 32.2292 368.141 37.5078H370.141H372.141C372.141 31.7968 370.999 27.1431 368.378 23.8897C365.69 20.5539 361.723 19.0234 356.859 19.0234V21.0234ZM370.141 37.5078H368.141V62H370.141H372.141V37.5078H370.141ZM419.086 62V64H421.086V62H419.086ZM406.742 62H404.742V64H406.742V62ZM406.742 56.4922H408.742V54.4922H406.742V56.4922ZM406.586 56.4922V54.4922H405.501L404.91 55.4015L406.586 56.4922ZM382.133 57.7031L380.617 59.0075L380.621 59.013L382.133 57.7031ZM406.586 26.5703L404.833 27.5332L405.403 28.5703H406.586V26.5703ZM406.742 26.5703V28.5703H408.742V26.5703H406.742ZM406.742 2.78125V0.78125H404.742V2.78125H406.742ZM419.086 2.78125H421.086V0.78125H419.086V2.78125ZM392.406 33.7188L394.03 34.8869L394.036 34.8775L392.406 33.7188ZM392.328 50.6719L390.752 51.9027L392.328 50.6719ZM404.594 50.5156L403.026 49.2737L403.021 49.28L403.016 49.2863L404.594 50.5156ZM419.086 62V60H406.742V62V64H419.086V62ZM406.742 62H408.742V56.4922H406.742H404.742V62H406.742ZM406.742 56.4922V54.4922H406.586V56.4922V58.4922H406.742V56.4922ZM406.586 56.4922L404.91 55.4015C402.49 59.1206 399.014 60.9766 394.203 60.9766V62.9766V64.9766C400.278 64.9766 405.057 62.5096 408.262 57.5829L406.586 56.4922ZM394.203 62.9766V60.9766C389.734 60.9766 386.28 59.4348 383.644 56.3933L382.133 57.7031L380.621 59.013C384.079 63.0027 388.672 64.9766 394.203 64.9766V62.9766ZM382.133 57.7031L383.649 56.3988C381.01 53.3312 379.562 48.9184 379.562 42.8984H377.562H375.562C375.562 49.5347 377.162 54.9917 380.617 59.0075L382.133 57.7031ZM377.562 42.8984H379.562C379.562 36.6255 381.15 31.8244 384.131 28.2892L382.602 27L381.073 25.7108C377.334 30.1443 375.562 35.9422 375.562 42.8984H377.562ZM382.602 27L384.131 28.2892C387.091 24.778 390.922 23.0234 395.805 23.0234V21.0234V19.0234C389.802 19.0234 384.831 21.2533 381.073 25.7108L382.602 27ZM395.805 21.0234V23.0234C400.423 23.0234 403.237 24.6272 404.833 27.5332L406.586 26.5703L408.339 25.6074C405.873 21.1176 401.499 19.0234 395.805 19.0234V21.0234ZM406.586 26.5703V28.5703H406.742V26.5703V24.5703H406.586V26.5703ZM406.742 26.5703H408.742V2.78125H406.742H404.742V26.5703H406.742ZM406.742 2.78125V4.78125H419.086V2.78125V0.78125H406.742V2.78125ZM419.086 2.78125H417.086V62H419.086H421.086V2.78125H419.086ZM406.977 42.5469H408.977V39.5391H406.977H404.977V42.5469H406.977ZM406.977 39.5391H408.977C408.977 36.5206 408.089 33.8686 406.213 31.7345L404.711 33.0547L403.209 34.3749C404.354 35.6782 404.977 37.3492 404.977 39.5391H406.977ZM404.711 33.0547L406.213 31.7345C404.299 29.5558 401.771 28.4766 398.812 28.4766V30.4766V32.4766C400.697 32.4766 402.102 33.1161 403.209 34.3749L404.711 33.0547ZM398.812 30.4766V28.4766C395.454 28.4766 392.701 29.8516 390.776 32.56L392.406 33.7188L394.036 34.8775C395.184 33.263 396.702 32.4766 398.812 32.4766V30.4766ZM392.406 33.7188L390.783 32.5507C388.917 35.1435 388.102 38.5497 388.102 42.5469H390.102H392.102C392.102 39.044 392.822 36.5648 394.03 34.8868L392.406 33.7188ZM390.102 42.5469H388.102C388.102 46.3114 388.892 49.5212 390.752 51.9027L392.328 50.6719L393.905 49.441C392.795 48.0205 392.102 45.8136 392.102 42.5469H390.102ZM392.328 50.6719L390.752 51.9027C392.653 54.3375 395.318 55.5234 398.5 55.5234V53.5234V51.5234C396.422 51.5234 394.972 50.8083 393.905 49.441L392.328 50.6719ZM398.5 53.5234V55.5234C401.629 55.5234 404.237 54.2269 406.171 51.7449L404.594 50.5156L403.016 49.2863C401.825 50.8148 400.371 51.5234 398.5 51.5234V53.5234ZM404.594 50.5156L406.161 51.7576C408.103 49.3069 408.977 46.1716 408.977 42.5469H406.977H404.977C404.977 45.5367 404.262 47.7139 403.026 49.2737L404.594 50.5156ZM486.391 62V64H488.391V62H486.391ZM452.797 62H450.797V64H452.797V62ZM452.797 5.98438V3.98438H450.797V5.98438H452.797ZM485.102 5.98438H487.102V3.98438H485.102V5.98438ZM485.102 16.2578V18.2578H487.102V16.2578H485.102ZM465.414 16.2578V14.2578H463.414V16.2578H465.414ZM465.414 28.7188H463.414V30.7188H465.414V28.7188ZM483.734 28.7188H485.734V26.7188H483.734V28.7188ZM483.734 38.9531V40.9531H485.734V38.9531H483.734ZM465.414 38.9531V36.9531H463.414V38.9531H465.414ZM465.414 51.7656H463.414V53.7656H465.414V51.7656ZM486.391 51.7656H488.391V49.7656H486.391V51.7656ZM486.391 62V60H452.797V62V64H486.391V62ZM452.797 62H454.797V5.98438H452.797H450.797V62H452.797ZM452.797 5.98438V7.98438H485.102V5.98438V3.98438H452.797V5.98438ZM485.102 5.98438H483.102V16.2578H485.102H487.102V5.98438H485.102ZM485.102 16.2578V14.2578H465.414V16.2578V18.2578H485.102V16.2578ZM465.414 16.2578H463.414V28.7188H465.414H467.414V16.2578H465.414ZM465.414 28.7188V30.7188H483.734V28.7188V26.7188H465.414V28.7188ZM483.734 28.7188H481.734V38.9531H483.734H485.734V28.7188H483.734ZM483.734 38.9531V36.9531H465.414V38.9531V40.9531H483.734V38.9531ZM465.414 38.9531H463.414V51.7656H465.414H467.414V38.9531H465.414ZM465.414 51.7656V53.7656H486.391V51.7656V49.7656H465.414V51.7656ZM486.391 51.7656H484.391V62H486.391H488.391V51.7656H486.391ZM527.445 62V64H529.445V62H527.445ZM515.766 62H513.766V64H515.766V62ZM515.766 56.2578H517.766V54.2578H515.766V56.2578ZM515.609 56.2578V54.2578H514.476L513.893 55.2303L515.609 56.2578ZM494.516 59.6953L493.101 61.1095L493.11 61.1178L493.118 61.1261L494.516 59.6953ZM504.984 37.4297L505.243 39.4129L505.248 39.4122L504.984 37.4297ZM515.844 35.9844L516.108 37.9669L517.844 37.7358V35.9844H515.844ZM495.141 33.6797H493.141V37.3979L496.243 35.3484L495.141 33.6797ZM495.141 24.3828L494.225 22.6049L493.141 23.1633V24.3828H495.141ZM502.172 22.0391L501.731 20.0883L501.727 20.0891L502.172 22.0391ZM515.844 43.0547H517.844V40.78L515.588 41.0711L515.844 43.0547ZM508.578 43.9922L508.322 42.0086L508.321 42.0088L508.578 43.9922ZM504.008 52.8984L502.633 54.3514L502.654 54.3704L502.674 54.3889L504.008 52.8984ZM513.656 51.8438L515.13 53.1963L515.135 53.1903L515.14 53.1843L513.656 51.8438ZM527.445 62V60H515.766V62V64H527.445V62ZM515.766 62H517.766V56.2578H515.766H513.766V62H515.766ZM515.766 56.2578V54.2578H515.609V56.2578V58.2578H515.766V56.2578ZM515.609 56.2578L513.893 55.2303C511.576 59.1006 508.259 60.9766 503.695 60.9766V62.9766V64.9766C509.652 64.9766 514.278 62.3734 517.325 57.2853L515.609 56.2578ZM503.695 62.9766V60.9766C500.205 60.9766 497.694 60.0043 495.913 58.2646L494.516 59.6953L493.118 61.1261C495.816 63.7614 499.425 64.9766 503.695 64.9766V62.9766ZM494.516 59.6953L495.93 58.2811C494.156 56.5072 493.195 54.1075 493.195 50.8672H491.195H489.195C489.195 54.9706 490.448 58.4563 493.101 61.1095L494.516 59.6953ZM491.195 50.8672H493.195C493.195 47.4054 494.205 44.9062 496.038 43.1199C497.916 41.2898 500.891 39.98 505.243 39.4129L504.984 37.4297L504.726 35.4465C499.885 36.0773 495.965 37.606 493.247 40.2551C490.483 42.948 489.195 46.5686 489.195 50.8672H491.195ZM504.984 37.4297L505.248 39.4122L516.108 37.9669L515.844 35.9844L515.58 34.0019L504.721 35.4472L504.984 37.4297ZM515.844 35.9844H517.844C517.844 33.4456 517.149 31.1859 515.423 29.5929C513.727 28.0278 511.375 27.4219 508.734 27.4219V29.4219V31.4219C510.834 31.4219 512.036 31.9097 512.71 32.5321C513.354 33.1266 513.844 34.1481 513.844 35.9844H515.844ZM508.734 29.4219V27.4219C503.545 27.4219 498.635 28.9745 494.038 32.0109L495.141 33.6797L496.243 35.3484C500.24 32.7077 504.393 31.4219 508.734 31.4219V29.4219ZM495.141 33.6797H497.141V24.3828H495.141H493.141V33.6797H495.141ZM495.141 24.3828L496.057 26.1608C497.566 25.3831 499.729 24.6475 502.617 23.989L502.172 22.0391L501.727 20.0891C498.677 20.7848 496.153 21.6117 494.225 22.6049L495.141 24.3828ZM502.172 22.0391L502.613 23.9898C505.498 23.3376 508.068 23.0234 510.336 23.0234V21.0234V19.0234C507.708 19.0234 504.836 19.3864 501.731 20.0883L502.172 22.0391ZM510.336 21.0234V23.0234C515.732 23.0234 519.411 24.3682 521.755 26.7068C524.099 29.0447 525.445 32.7131 525.445 38.0938H527.445H529.445C529.445 32.0942 527.94 27.2274 524.581 23.8752C521.221 20.5238 516.346 19.0234 510.336 19.0234V21.0234ZM527.445 38.0938H525.445V62H527.445H529.445V38.0938H527.445ZM515.844 45.75H517.844V43.0547H515.844H513.844V45.75H515.844ZM515.844 43.0547L515.588 41.0711L508.322 42.0086L508.578 43.9922L508.834 45.9757L516.1 45.0382L515.844 43.0547ZM508.578 43.9922L508.321 42.0088C506.101 42.2971 504.147 42.9737 502.726 44.2556C501.24 45.5973 500.562 47.3984 500.562 49.4219H502.562H504.562C504.562 48.3464 504.888 47.6931 505.406 47.2249C505.991 46.6969 507.045 46.2081 508.836 45.9755L508.578 43.9922ZM502.562 49.4219H500.562C500.562 51.3407 501.244 53.0374 502.633 54.3514L504.008 52.8984L505.382 51.4455C504.844 50.9366 504.562 50.3155 504.562 49.4219H502.562ZM504.008 52.8984L502.674 54.3889C504.117 55.68 505.964 56.2266 507.992 56.2266V54.2266V52.2266C506.687 52.2266 505.878 51.8877 505.341 51.408L504.008 52.8984ZM507.992 54.2266V56.2266C510.823 56.2266 513.262 55.2308 515.13 53.1963L513.656 51.8438L512.183 50.4912C511.134 51.6338 509.797 52.2266 507.992 52.2266V54.2266ZM513.656 51.8438L515.14 53.1843C516.973 51.1556 517.844 48.6266 517.844 45.75H515.844H513.844C513.844 47.7692 513.256 49.3028 512.172 50.5032L513.656 51.8438ZM563.305 33.1328L562.349 34.8898L565.305 36.4972V33.1328H563.305ZM551.82 34.8906L553.402 36.1141L553.41 36.104L551.82 34.8906ZM549.555 62V64H551.555V62H549.555ZM537.211 62H535.211V64H537.211V62ZM537.211 22V20H535.211V22H537.211ZM549.555 22H551.555V20H549.555V22ZM549.555 29.4219H547.555V31.4219H549.555V29.4219ZM549.711 29.4219V31.4219H551.116L551.592 30.1003L549.711 29.4219ZM563.305 21.7656H565.305V20.4468L564.093 19.9273L563.305 21.7656ZM563.305 33.1328L564.26 31.3758C562.436 30.3837 560.365 29.9219 558.109 29.9219V31.9219V33.9219C559.812 33.9219 561.205 34.2673 562.349 34.8898L563.305 33.1328ZM558.109 31.9219V29.9219C554.859 29.9219 552.152 31.1596 550.23 33.6773L551.82 34.8906L553.41 36.104C554.51 34.6633 555.995 33.9219 558.109 33.9219V31.9219ZM551.82 34.8906L550.238 33.6671C548.372 36.0803 547.555 39.2324 547.555 42.8984H549.555H551.555C551.555 39.7937 552.248 37.6072 553.402 36.1141L551.82 34.8906ZM549.555 42.8984H547.555V62H549.555H551.555V42.8984H549.555ZM549.555 62V60H537.211V62V64H549.555V62ZM537.211 62H539.211V22H537.211H535.211V62H537.211ZM537.211 22V24H549.555V22V20H537.211V22ZM549.555 22H547.555V29.4219H549.555H551.555V22H549.555ZM549.555 29.4219V31.4219H549.711V29.4219V27.4219H549.555V29.4219ZM549.711 29.4219L551.592 30.1003C552.477 27.6456 553.655 25.974 555.033 24.9125C556.392 23.8659 558.094 23.2969 560.258 23.2969V21.2969V19.2969C557.344 19.2969 554.749 20.082 552.592 21.7438C550.454 23.3906 548.898 25.7815 547.83 28.7435L549.711 29.4219ZM560.258 21.2969V23.2969C561.441 23.2969 562.146 23.445 562.517 23.6039L563.305 21.7656L564.093 19.9273C563.005 19.4612 561.679 19.2969 560.258 19.2969V21.2969ZM563.305 21.7656H561.305V33.1328H563.305H565.305V21.7656H563.305ZM581.43 62V64H583.43V62H581.43ZM569.086 62H567.086V64H569.086V62ZM569.086 2.78125V0.78125H567.086V2.78125H569.086ZM581.43 2.78125H583.43V0.78125H581.43V2.78125ZM581.43 62V60H569.086V62V64H581.43V62ZM569.086 62H571.086V2.78125H569.086H567.086V62H569.086ZM569.086 2.78125V4.78125H581.43V2.78125V0.78125H569.086V2.78125ZM581.43 2.78125H579.43V62H581.43H583.43V2.78125H581.43ZM629.906 22L631.778 22.7041L632.795 20H629.906V22ZM613.656 65.2031L611.784 64.499L611.784 64.4993L613.656 65.2031ZM588.617 79.7734H586.617V81.1906L587.954 81.6604L588.617 79.7734ZM588.617 69.9297L589.63 68.2051L586.617 66.4357V69.9297H588.617ZM600.609 66.8828L598.769 66.1002L598.764 66.1124L600.609 66.8828ZM602.719 61.9219L604.559 62.7045L604.885 61.9386L604.571 61.1679L602.719 61.9219ZM586.469 22V20H583.495L584.616 22.754L586.469 22ZM600.141 22L602.053 21.4138L601.619 20H600.141V22ZM607.602 46.3359L605.689 46.9222L605.691 46.9287L607.602 46.3359ZM608.695 51.6875L606.711 51.9387L606.932 53.6875H608.695V51.6875ZM608.852 51.6875V53.6875H610.565L610.828 51.9942L608.852 51.6875ZM610.141 46.4141L612.05 47.0092L612.052 47.0042L610.141 46.4141ZM617.68 22V20H616.204L615.769 21.4099L617.68 22ZM629.906 22L628.034 21.2959L611.784 64.499L613.656 65.2031L615.528 65.9072L631.778 22.7041L629.906 22ZM613.656 65.2031L611.784 64.4993C609.901 69.5077 607.606 73.0828 604.989 75.3932C602.412 77.6676 599.446 78.7891 596 78.7891V80.7891V82.7891C600.419 82.7891 604.327 81.3129 607.636 78.392C610.904 75.507 613.505 71.2891 615.528 65.9069L613.656 65.2031ZM596 80.7891V78.7891C593.136 78.7891 590.92 78.4626 589.28 77.8865L588.617 79.7734L587.954 81.6604C590.169 82.4385 592.875 82.7891 596 82.7891V80.7891ZM588.617 79.7734H590.617V69.9297H588.617H586.617V79.7734H588.617ZM588.617 69.9297L587.604 71.6543C589.556 72.8006 591.69 73.375 593.969 73.375V71.375V69.375C592.393 69.375 590.959 68.9859 589.63 68.2051L588.617 69.9297ZM593.969 71.375V73.375C595.88 73.375 597.636 72.9206 599.132 71.9085C600.625 70.8985 601.712 69.4325 602.455 67.6532L600.609 66.8828L598.764 66.1124C598.256 67.3279 597.612 68.108 596.891 68.5954C596.174 69.0807 595.235 69.375 593.969 69.375V71.375ZM600.609 66.8828L602.45 67.6654L604.559 62.7045L602.719 61.9219L600.878 61.1393L598.769 66.1002L600.609 66.8828ZM602.719 61.9219L604.571 61.1679L588.321 21.246L586.469 22L584.616 22.754L600.866 62.6759L602.719 61.9219ZM586.469 22V24H600.141V22V20H586.469V22ZM600.141 22L598.228 22.5862L605.689 46.9222L607.602 46.3359L609.514 45.7497L602.053 21.4138L600.141 22ZM607.602 46.3359L605.691 46.9287C606.117 48.2995 606.461 49.9637 606.711 51.9387L608.695 51.6875L610.68 51.4363C610.409 49.2967 610.024 47.3932 609.512 45.7431L607.602 46.3359ZM608.695 51.6875V53.6875H608.852V51.6875V49.6875H608.695V51.6875ZM608.852 51.6875L610.828 51.9942C611.043 50.6099 611.444 48.9523 612.05 47.0092L610.141 46.4141L608.231 45.8189C607.587 47.8863 607.129 49.7443 606.875 51.3808L608.852 51.6875ZM610.141 46.4141L612.052 47.0042L619.591 22.5901L617.68 22L615.769 21.4099L608.23 45.824L610.141 46.4141ZM617.68 22V24H629.906V22V20H617.68V22ZM705.18 62V64H708.832L706.865 60.9229L705.18 62ZM690.688 62L688.976 63.0344L689.559 64H690.688V62ZM681.977 47.5859L680.258 48.6089L680.265 48.6204L681.977 47.5859ZM678.266 42.4688L676.822 43.8526L676.851 43.8833L676.882 43.9127L678.266 42.4688ZM676.352 41.0625L675.429 42.8369L675.471 42.8587L675.513 42.8784L676.352 41.0625ZM670.805 40.5547V38.5547H668.805V40.5547H670.805ZM670.805 62V64H672.805V62H670.805ZM658.188 62H656.188V64H658.188V62ZM658.188 5.98438V3.98438H656.188V5.98438H658.188ZM697.68 26.6484L699.558 27.3343L699.562 27.3248L697.68 26.6484ZM691.156 34.5391L690.106 32.8367L690.1 32.8407L690.094 32.8447L691.156 34.5391ZM686 36.8047L685.447 34.8826L684 35.2989V36.8047H686ZM686 36.9609H684V38.4313L685.403 38.8699L686 36.9609ZM688.422 38.25L687.205 39.8372L687.222 39.8502L687.239 39.8628L688.422 38.25ZM692.758 42.8203L691.13 43.9828L691.149 44.0093L691.169 44.0352L692.758 42.8203ZM694.594 45.4375L692.906 46.5113L692.909 46.5146L694.594 45.4375ZM670.805 15.4375V13.4375H668.805V15.4375H670.805ZM670.805 31.0234H668.805V33.0234H670.805V31.0234ZM682.797 28.6797L684.176 30.128L684.177 30.1274L682.797 28.6797ZM705.18 62V60H690.688V62V64H705.18V62ZM690.688 62L692.399 60.9656L683.688 46.5515L681.977 47.5859L680.265 48.6204L688.976 63.0344L690.688 62ZM681.977 47.5859L683.695 46.563C683.025 45.4365 682.374 44.4186 681.742 43.5127L680.102 44.6562L678.461 45.7998C679.027 46.6127 679.626 47.5479 680.258 48.6089L681.977 47.5859ZM680.102 44.6562L681.742 43.5127C681.083 42.5667 680.387 41.7318 679.649 41.0248L678.266 42.4688L676.882 43.9127C677.394 44.4036 677.922 45.0271 678.461 45.7998L680.102 44.6562ZM678.266 42.4688L679.71 41.0849C678.965 40.3079 678.127 39.6794 677.19 39.2466L676.352 41.0625L675.513 42.8784C675.93 43.0706 676.368 43.3796 676.822 43.8526L678.266 42.4688ZM676.352 41.0625L677.274 39.2881C676.32 38.7918 675.284 38.5547 674.203 38.5547V40.5547V42.5547C674.685 42.5547 675.081 42.6561 675.429 42.8369L676.352 41.0625ZM674.203 40.5547V38.5547H670.805V40.5547V42.5547H674.203V40.5547ZM670.805 40.5547H668.805V62H670.805H672.805V40.5547H670.805ZM670.805 62V60H658.188V62V64H670.805V62ZM658.188 62H660.188V5.98438H658.188H656.188V62H658.188ZM658.188 5.98438V7.98438H678.188V5.98438V3.98438H658.188V5.98438ZM678.188 5.98438V7.98438C684.793 7.98438 689.383 9.22843 692.283 11.3952C695.074 13.4801 696.578 16.6315 696.578 21.2188H698.578H700.578C700.578 15.6498 698.684 11.184 694.677 8.19076C690.781 5.27938 685.175 3.98438 678.188 3.98438V5.98438ZM698.578 21.2188H696.578C696.578 22.9649 696.311 24.5435 695.798 25.972L697.68 26.6484L699.562 27.3248C700.246 25.42 700.578 23.3788 700.578 21.2188H698.578ZM697.68 26.6484L695.801 25.9626C695.279 27.3937 694.544 28.6795 693.597 29.8301L695.141 31.1016L696.685 32.373C697.924 30.8674 698.883 29.1844 699.558 27.3343L697.68 26.6484ZM695.141 31.1016L693.597 29.8301C692.652 30.9774 691.494 31.9809 690.106 32.8367L691.156 34.5391L692.206 36.2414C693.943 35.1701 695.442 33.882 696.685 32.373L695.141 31.1016ZM691.156 34.5391L690.094 32.8447C688.729 33.7003 687.185 34.3828 685.447 34.8826L686 36.8047L686.553 38.7267C688.617 38.1328 690.51 37.3049 692.219 36.2334L691.156 34.5391ZM686 36.8047H684V36.9609H686H688V36.8047H686ZM686 36.9609L685.403 38.8699C685.986 39.052 686.586 39.363 687.205 39.8372L688.422 38.25L689.639 36.6628C688.695 35.9391 687.681 35.3907 686.597 35.052L686 36.9609ZM688.422 38.25L687.239 39.8628C687.91 40.3548 688.573 40.9467 689.225 41.6459L690.688 40.2812L692.15 38.9166C691.344 38.0533 690.496 37.291 689.605 36.6372L688.422 38.25ZM690.688 40.2812L689.225 41.6459C689.892 42.3605 690.528 43.1389 691.13 43.9828L692.758 42.8203L694.385 41.6578C693.686 40.6788 692.941 39.7645 692.15 38.9166L690.688 40.2812ZM692.758 42.8203L691.169 44.0352C691.815 44.8792 692.393 45.7046 692.906 46.5113L694.594 45.4375L696.281 44.3637C695.701 43.4517 695.055 42.5322 694.347 41.6054L692.758 42.8203ZM694.594 45.4375L692.909 46.5146L703.495 63.0771L705.18 62L706.865 60.9229L696.279 44.3604L694.594 45.4375ZM670.805 15.4375H668.805V31.0234H670.805H672.805V15.4375H670.805ZM670.805 31.0234V33.0234H676.273V31.0234V29.0234H670.805V31.0234ZM676.273 31.0234V33.0234C679.389 33.0234 682.093 32.112 684.176 30.128L682.797 28.6797L681.418 27.2314C680.22 28.3724 678.575 29.0234 676.273 29.0234V31.0234ZM682.797 28.6797L684.177 30.1274C686.247 28.1538 687.297 25.661 687.297 22.7812H685.297H683.297C683.297 24.589 682.68 26.0285 681.417 27.2319L682.797 28.6797ZM685.297 22.7812H687.297C687.297 19.9212 686.424 17.4449 684.382 15.7387C682.409 14.09 679.667 13.4375 676.508 13.4375V15.4375V17.4375C679.208 17.4375 680.861 18.009 681.817 18.8082C682.705 19.5499 683.297 20.7455 683.297 22.7812H685.297ZM676.508 15.4375V13.4375H670.805V15.4375V17.4375H676.508V15.4375ZM743.148 45.5156V47.5156H745.148V45.5156H743.148ZM717.055 45.5156V43.5156H714.906L715.06 45.6588L717.055 45.5156ZM739.633 51.1016H741.633V47.4931L738.573 49.4056L739.633 51.1016ZM739.633 60.0078L740.577 61.7711L741.633 61.2058V60.0078H739.633ZM710.18 57.625L708.76 59.0341L708.766 59.0392L710.18 57.625ZM710.609 26.8438L709.19 25.4343L710.609 26.8438ZM738.344 26.2188L736.87 27.5707L736.875 27.5767L738.344 26.2188ZM731.703 37.9375V39.9375H733.703V37.9375H731.703ZM719.594 31.8047L718.099 30.476L718.093 30.4826L718.087 30.4894L719.594 31.8047ZM716.977 37.9375L714.993 37.6842L714.705 39.9375H716.977V37.9375ZM743.148 45.5156V43.5156H717.055V45.5156V47.5156H743.148V45.5156ZM717.055 45.5156L715.06 45.6588C715.298 48.9736 716.496 51.7329 718.868 53.6154C721.185 55.4542 724.337 56.2266 728.031 56.2266V54.2266V52.2266C724.825 52.2266 722.696 51.5471 721.355 50.4822C720.068 49.4611 719.228 47.865 719.05 45.3725L717.055 45.5156ZM728.031 54.2266V56.2266C732.761 56.2266 737.005 55.1027 740.693 52.7976L739.633 51.1016L738.573 49.4056C735.594 51.2671 732.104 52.2266 728.031 52.2266V54.2266ZM739.633 51.1016H737.633V60.0078H739.633H741.633V51.1016H739.633ZM739.633 60.0078L738.689 58.2445C735.376 60.0177 730.928 60.9766 725.219 60.9766V62.9766V64.9766C731.333 64.9766 736.494 63.9562 740.577 61.7711L739.633 60.0078ZM725.219 62.9766V60.9766C719.135 60.9766 714.689 59.3061 711.594 56.2108L710.18 57.625L708.766 59.0392C712.806 63.0793 718.386 64.9766 725.219 64.9766V62.9766ZM710.18 57.625L711.599 56.2159C708.495 53.0897 706.828 48.6504 706.828 42.625H704.828H702.828C702.828 49.4121 704.729 54.9728 708.76 59.0341L710.18 57.625ZM704.828 42.625H706.828C706.828 36.392 708.623 31.6811 712.028 28.2532L710.609 26.8438L709.19 25.4343C704.887 29.7668 702.828 35.5768 702.828 42.625H704.828ZM710.609 26.8438L712.028 28.2532C715.495 24.7629 719.719 23.0234 724.828 23.0234V21.0234V19.0234C718.687 19.0234 713.432 21.1642 709.19 25.4343L710.609 26.8438ZM724.828 21.0234V23.0234C730.246 23.0234 734.16 24.6161 736.87 27.5707L738.344 26.2188L739.818 24.8668C736.174 20.8943 731.077 19.0234 724.828 19.0234V21.0234ZM738.344 26.2188L736.875 27.5767C739.655 30.5819 741.148 34.7507 741.148 40.3203H743.148H745.148C745.148 34.015 743.439 28.7827 739.812 24.8608L738.344 26.2188ZM743.148 40.3203H741.148V45.5156H743.148H745.148V40.3203H743.148ZM731.703 37.9375H733.703C733.703 34.8552 733.088 32.1727 731.52 30.2342C729.886 28.2147 727.501 27.3438 724.75 27.3438V29.3438V31.3438C726.634 31.3438 727.726 31.9051 728.41 32.7502C729.159 33.6762 729.703 35.2906 729.703 37.9375H731.703ZM724.75 29.3438V27.3438C722.133 27.3438 719.891 28.4604 718.099 30.476L719.594 31.8047L721.089 33.1334C722.214 31.8677 723.408 31.3438 724.75 31.3438V29.3438ZM719.594 31.8047L718.087 30.4894C716.36 32.4675 715.349 34.8969 714.993 37.6842L716.977 37.9375L718.96 38.1908C719.23 36.0822 719.963 34.4232 721.1 33.12L719.594 31.8047ZM716.977 37.9375V39.9375H731.703V37.9375V35.9375H716.977V37.9375ZM747.875 60.9453H745.875V62.3495L747.196 62.8264L747.875 60.9453ZM747.875 50.9453L748.907 49.2323L745.875 47.4052V50.9453H747.875ZM753.93 53.6797L753.357 55.596L753.364 55.598L753.93 53.6797ZM764.828 53.6797L763.978 51.8692L763.971 51.8726L763.964 51.8761L764.828 53.6797ZM763.656 47.625L762.849 49.4548L762.859 49.4591L762.868 49.4633L763.656 47.625ZM757.641 45.5156L758.375 43.6553L758.361 43.6497L758.346 43.6442L757.641 45.5156ZM753.422 43.6016L752.409 45.3264L752.431 45.3393L752.454 45.3516L753.422 43.6016ZM750.375 41.1797L748.878 42.5058L748.888 42.5176L748.899 42.5292L750.375 41.1797ZM748.5 38.0156L746.611 38.6727L746.617 38.6909L746.624 38.7089L748.5 38.0156ZM749.32 27.9766L747.615 26.9314L747.609 26.9415L747.603 26.9516L749.32 27.9766ZM753.227 24.0312L754.292 25.7242L754.299 25.7197L753.227 24.0312ZM758.812 21.7656L759.252 23.7168L759.26 23.7149L759.269 23.7128L758.812 21.7656ZM770.766 21.4531L770.455 23.4289L770.469 23.431L770.483 23.433L770.766 21.4531ZM776.156 22.625H778.156V21.1285L776.721 20.7063L776.156 22.625ZM776.156 32.1562L775.148 33.8838L778.156 35.6383V32.1562H776.156ZM771.117 30.125L770.605 32.0584L770.622 32.0628L770.639 32.0669L771.117 30.125ZM763.578 29.6562L763.942 31.6228L763.97 31.6177L763.997 31.6119L763.578 29.6562ZM761.703 30.2812L762.563 32.087L762.597 32.0706L762.631 32.0529L761.703 30.2812ZM760.414 31.3359L762.014 32.5359L762.031 32.5129L762.048 32.4893L760.414 31.3359ZM762.484 36.0234L761.566 37.7999L761.59 37.8125L761.615 37.8245L762.484 36.0234ZM764.984 37.0391L764.336 38.931L764.368 38.9419L764.4 38.9518L764.984 37.0391ZM767.758 37.9375L768.417 36.0493L768.406 36.0456L767.758 37.9375ZM775.609 42.1953L774.215 43.6293L774.225 43.6388L774.235 43.6482L775.609 42.1953ZM777.797 45.3984L775.943 46.148L775.949 46.1648L775.957 46.1815L777.797 45.3984ZM777.016 55.8672L775.312 54.819L775.308 54.8264L777.016 55.8672ZM772.914 59.9688L773.962 61.6721L773.969 61.6676L772.914 59.9688ZM767.016 62.2344L766.606 60.2768L766.593 60.2796L766.579 60.2825L767.016 62.2344ZM747.875 60.9453H749.875V50.9453H747.875H745.875V60.9453H747.875ZM747.875 50.9453L746.843 52.6584C748.999 53.9578 751.171 54.943 753.357 55.596L753.93 53.6797L754.502 51.7634C752.678 51.2184 750.813 50.3807 748.907 49.2323L747.875 50.9453ZM753.93 53.6797L753.364 55.598C755.547 56.2418 757.653 56.5781 759.672 56.5781V54.5781V52.5781C758.097 52.5781 756.375 52.3155 754.495 51.7613L753.93 53.6797ZM759.672 54.5781V56.5781C762.004 56.5781 764.061 56.2649 765.692 55.4833L764.828 53.6797L763.964 51.8761C763.095 52.2924 761.715 52.5781 759.672 52.5781V54.5781ZM764.828 53.6797L765.678 55.4902C766.549 55.0812 767.336 54.5026 767.902 53.6938C768.48 52.8683 768.742 51.9246 768.742 50.9453H766.742H764.742C764.742 51.19 764.685 51.314 764.625 51.3999C764.553 51.5026 764.383 51.6792 763.978 51.8692L764.828 53.6797ZM766.742 50.9453H768.742C768.742 49.6064 768.222 48.4161 767.228 47.5123L765.883 48.9922L764.537 50.4721C764.689 50.61 764.742 50.7218 764.742 50.9453H766.742ZM765.883 48.9922L767.228 47.5123C766.452 46.8065 765.505 46.2416 764.444 45.7867L763.656 47.625L762.868 49.4633C763.63 49.7897 764.168 50.1362 764.537 50.4721L765.883 48.9922ZM763.656 47.625L764.464 45.7952C763.488 45.3646 762.428 44.9843 761.288 44.6508L760.727 46.5703L760.165 48.4898C761.161 48.7813 762.054 49.1042 762.849 49.4548L763.656 47.625ZM760.727 46.5703L761.288 44.6508C760.276 44.3547 759.305 44.0226 758.375 43.6553L757.641 45.5156L756.906 47.3759C757.955 47.7899 759.041 48.161 760.165 48.4898L760.727 46.5703ZM757.641 45.5156L758.346 43.6442C756.83 43.0724 755.514 42.4732 754.39 41.8515L753.422 43.6016L752.454 45.3516C753.778 46.0841 755.275 46.7609 756.935 47.387L757.641 45.5156ZM753.422 43.6016L754.434 41.8767C753.388 41.2624 752.534 40.5769 751.851 39.8301L750.375 41.1797L748.899 42.5292C749.883 43.6054 751.06 44.5345 752.409 45.3264L753.422 43.6016ZM750.375 41.1797L751.872 39.8536C751.237 39.1368 750.737 38.2992 750.376 37.3223L748.5 38.0156L746.624 38.7089C747.148 40.1279 747.898 41.3997 748.878 42.5058L750.375 41.1797ZM748.5 38.0156L750.389 37.3586C750.064 36.4236 749.875 35.237 749.875 33.7578H747.875H745.875C745.875 35.5599 746.103 37.2118 746.611 38.6727L748.5 38.0156ZM747.875 33.7578H749.875C749.875 31.8097 750.292 30.2516 751.038 29.0015L749.32 27.9766L747.603 26.9516C746.422 28.9307 745.875 31.2268 745.875 33.7578H747.875ZM749.32 27.9766L751.026 29.0217C751.853 27.6714 752.935 26.5772 754.291 25.7242L753.227 24.0312L752.162 22.3383C750.289 23.5165 748.767 25.0526 747.615 26.9314L749.32 27.9766ZM753.227 24.0312L754.299 25.7197C755.727 24.813 757.371 24.1401 759.252 23.7168L758.812 21.7656L758.373 19.8144C756.088 20.3287 754.008 21.1662 752.155 22.3428L753.227 24.0312ZM758.812 21.7656L759.269 23.7128C761.222 23.2547 763.256 23.0234 765.375 23.0234V21.0234V19.0234C762.963 19.0234 760.622 19.287 758.356 19.8185L758.812 21.7656ZM765.375 21.0234V23.0234C767.038 23.0234 768.731 23.1579 770.455 23.4289L770.766 21.4531L771.076 19.4774C769.155 19.1754 767.254 19.0234 765.375 19.0234V21.0234ZM770.766 21.4531L770.483 23.433C772.21 23.6798 773.913 24.05 775.592 24.5437L776.156 22.625L776.721 20.7063C774.858 20.1584 772.967 19.7473 771.048 19.4732L770.766 21.4531ZM776.156 22.625H774.156V32.1562H776.156H778.156V22.625H776.156ZM776.156 32.1562L777.164 30.4287C775.432 29.4186 773.574 28.6705 771.596 28.1831L771.117 30.125L770.639 32.0669C772.254 32.4649 773.755 33.071 775.148 33.8838L776.156 32.1562ZM771.117 30.125L771.629 28.1916C769.702 27.6815 767.785 27.4219 765.883 27.4219V29.4219V31.4219C767.418 31.4219 768.991 31.631 770.605 32.0584L771.117 30.125ZM765.883 29.4219V27.4219C764.946 27.4219 764.037 27.5126 763.159 27.7006L763.578 29.6562L763.997 31.6119C764.578 31.4874 765.205 31.4219 765.883 31.4219V29.4219ZM763.578 29.6562L763.214 27.6897C762.345 27.8507 761.525 28.117 760.775 28.5096L761.703 30.2812L762.631 32.0529C762.975 31.8726 763.405 31.7222 763.942 31.6228L763.578 29.6562ZM761.703 30.2812L760.843 28.4755C760.024 28.8657 759.313 29.4278 758.78 30.1826L760.414 31.3359L762.048 32.4893C762.14 32.3587 762.289 32.2176 762.563 32.087L761.703 30.2812ZM760.414 31.3359L758.814 30.1359C758.228 30.9169 757.945 31.8248 757.945 32.7812H759.945H761.945C761.945 32.644 761.975 32.5884 762.014 32.5359L760.414 31.3359ZM759.945 32.7812H757.945C757.945 33.9825 758.348 35.09 759.162 35.9942L760.648 34.6562L762.135 33.3183C762.011 33.1808 761.945 33.0384 761.945 32.7812H759.945ZM760.648 34.6562L759.162 35.9942C759.822 36.7279 760.641 37.3214 761.566 37.7999L762.484 36.0234L763.403 34.247C762.818 33.9442 762.412 33.6263 762.135 33.3183L760.648 34.6562ZM762.484 36.0234L761.615 37.8245C762.451 38.2284 763.36 38.5963 764.336 38.931L764.984 37.0391L765.633 35.1472C764.786 34.8568 764.028 34.5476 763.354 34.2223L762.484 36.0234ZM764.984 37.0391L764.4 38.9518C765.316 39.2318 766.219 39.5243 767.109 39.8294L767.758 37.9375L768.406 36.0456C767.473 35.7257 766.527 35.4193 765.569 35.1264L764.984 37.0391ZM767.758 37.9375L767.098 39.8257C768.667 40.3736 770.067 40.9643 771.303 41.5943L772.211 39.8125L773.119 38.0307C771.699 37.3065 770.13 36.6473 768.417 36.0493L767.758 37.9375ZM772.211 39.8125L771.303 41.5943C772.477 42.1929 773.44 42.8754 774.215 43.6293L775.609 42.1953L777.004 40.7613C775.904 39.6923 774.601 38.7862 773.119 38.0307L772.211 39.8125ZM775.609 42.1953L774.235 43.6482C774.991 44.3634 775.556 45.1915 775.943 46.148L777.797 45.3984L779.651 44.6489C779.048 43.1574 778.155 41.8502 776.984 40.7424L775.609 42.1953ZM777.797 45.3984L775.957 46.1815C776.348 47.1003 776.578 48.2793 776.578 49.7734H778.578H780.578C780.578 47.8821 780.288 46.1445 779.637 44.6153L777.797 45.3984ZM778.578 49.7734H776.578C776.578 51.8449 776.126 53.4975 775.312 54.819L777.016 55.8672L778.719 56.9154C779.989 54.8514 780.578 52.4415 780.578 49.7734H778.578ZM777.016 55.8672L775.308 54.8264C774.461 56.2157 773.321 57.3612 771.859 58.2699L772.914 59.9688L773.969 61.6676C775.944 60.4409 777.539 58.852 778.724 56.9079L777.016 55.8672ZM772.914 59.9688L771.866 58.2654C770.397 59.1694 768.653 59.8483 766.606 60.2768L767.016 62.2344L767.425 64.192C769.857 63.683 772.046 62.8515 773.962 61.6721L772.914 59.9688ZM767.016 62.2344L766.579 60.2825C764.517 60.7436 762.359 60.9766 760.102 60.9766V62.9766V64.9766C762.636 64.9766 765.087 64.7148 767.452 64.1862L767.016 62.2344ZM760.102 62.9766V60.9766C755.908 60.9766 752.065 60.332 748.554 59.0642L747.875 60.9453L747.196 62.8264C751.185 64.267 755.493 64.9766 760.102 64.9766V62.9766ZM823.734 62V64H825.734V62H823.734ZM811.43 62H809.43V64H811.43V62ZM811.43 55.9062H813.43V53.9062H811.43V55.9062ZM811.234 55.9062V53.9062H810.146L809.555 54.8205L811.234 55.9062ZM785.102 22V20H783.102V22H785.102ZM797.406 22H799.406V20H797.406V22ZM809.438 51.2188L810.951 52.5267L810.956 52.5204L810.961 52.514L809.438 51.2188ZM811.43 22V20H809.43V22H811.43ZM823.734 22H825.734V20H823.734V22ZM823.734 62V60H811.43V62V64H823.734V62ZM811.43 62H813.43V55.9062H811.43H809.43V62H811.43ZM811.43 55.9062V53.9062H811.234V55.9062V57.9062H811.43V55.9062ZM811.234 55.9062L809.555 54.8205C806.833 59.0314 803.357 60.9766 799.008 60.9766V62.9766V64.9766C804.867 64.9766 809.542 62.2082 812.914 56.992L811.234 55.9062ZM799.008 62.9766V60.9766C794.792 60.9766 791.958 59.719 790.12 57.4939C788.222 55.1956 787.102 51.5274 787.102 46.1406H785.102H783.102C783.102 51.9778 784.299 56.7276 787.036 60.0413C789.834 63.4281 793.953 64.9766 799.008 64.9766V62.9766ZM785.102 46.1406H787.102V22H785.102H783.102V46.1406H785.102ZM785.102 22V24H797.406V22V20H785.102V22ZM797.406 22H795.406V45.0469H797.406H799.406V22H797.406ZM797.406 45.0469H795.406C795.406 48.0829 795.999 50.7293 797.519 52.6466C799.109 54.6526 801.438 55.5234 804.125 55.5234V53.5234V51.5234C802.333 51.5234 801.303 50.9816 800.653 50.162C799.933 49.2538 799.406 47.6619 799.406 45.0469H797.406ZM804.125 53.5234V55.5234C806.861 55.5234 809.206 54.5453 810.951 52.5267L809.438 51.2188L807.924 49.9108C807.013 50.9651 805.817 51.5234 804.125 51.5234V53.5234ZM809.438 51.2188L810.961 52.514C812.678 50.4943 813.43 47.8786 813.43 44.8906H811.43H809.43C809.43 47.2151 808.853 48.8182 807.914 49.9235L809.438 51.2188ZM811.43 44.8906H813.43V22H811.43H809.43V44.8906H811.43ZM811.43 22V24H823.734V22V20H811.43V22ZM823.734 22H821.734V62H823.734H825.734V22H823.734ZM846.508 62V64H848.508V62H846.508ZM834.164 62H832.164V64H834.164V62ZM834.164 2.78125V0.78125H832.164V2.78125H834.164ZM846.508 2.78125H848.508V0.78125H846.508V2.78125ZM846.508 62V60H834.164V62V64H846.508V62ZM834.164 62H836.164V2.78125H834.164H832.164V62H834.164ZM834.164 2.78125V4.78125H846.508V2.78125V0.78125H834.164V2.78125ZM846.508 2.78125H844.508V62H846.508H848.508V2.78125H846.508ZM881.078 61.5312L882.013 63.2994L883.078 62.7363V61.5312H881.078ZM859.789 31.1016H861.789V29.1016H859.789V31.1016ZM853.305 31.1016H851.305V33.1016H853.305V31.1016ZM853.305 22V20H851.305V22H853.305ZM859.789 22V24H861.789V22H859.789ZM859.789 13.3672L859.24 11.4441L857.789 11.8586V13.3672H859.789ZM872.094 9.85156H874.094V7.2001L871.544 7.92852L872.094 9.85156ZM872.094 22H870.094V24H872.094V22ZM881.078 22H883.078V20H881.078V22ZM881.078 31.1016V33.1016H883.078V31.1016H881.078ZM872.094 31.1016V29.1016H870.094V31.1016H872.094ZM881.078 52.3906H883.078V49.0165L880.118 50.6361L881.078 52.3906ZM881.078 61.5312L880.143 59.7631C878.754 60.4977 876.4 60.9766 872.836 60.9766V62.9766V64.9766C876.616 64.9766 879.757 64.4919 882.013 63.2994L881.078 61.5312ZM872.836 62.9766V60.9766C868.815 60.9766 866.162 59.9363 864.492 58.2009C862.808 56.4513 861.789 53.6505 861.789 49.4219H859.789H857.789C857.789 54.2297 858.945 58.2062 861.61 60.9749C864.288 63.7577 868.159 64.9766 872.836 64.9766V62.9766ZM859.789 49.4219H861.789V31.1016H859.789H857.789V49.4219H859.789ZM859.789 31.1016V29.1016H853.305V31.1016V33.1016H859.789V31.1016ZM853.305 31.1016H855.305V22H853.305H851.305V31.1016H853.305ZM853.305 22V24H859.789V22V20H853.305V22ZM859.789 22H861.789V13.3672H859.789H857.789V22H859.789ZM859.789 13.3672L860.339 15.2902L872.643 11.7746L872.094 9.85156L871.544 7.92852L859.24 11.4441L859.789 13.3672ZM872.094 9.85156H870.094V22H872.094H874.094V9.85156H872.094ZM872.094 22V24H881.078V22V20H872.094V22ZM881.078 22H879.078V31.1016H881.078H883.078V22H881.078ZM881.078 31.1016V29.1016H872.094V31.1016V33.1016H881.078V31.1016ZM872.094 31.1016H870.094V47.2734H872.094H874.094V31.1016H872.094ZM872.094 47.2734H870.094C870.094 49.5677 870.54 51.658 871.767 53.2043C873.065 54.8388 874.954 55.5234 877.055 55.5234V53.5234V51.5234C875.848 51.5234 875.257 51.1664 874.901 50.7175C874.474 50.1805 874.094 49.1458 874.094 47.2734H872.094ZM877.055 53.5234V55.5234C878.756 55.5234 880.425 55.0281 882.038 54.1451L881.078 52.3906L880.118 50.6361C878.971 51.2636 877.958 51.5234 877.055 51.5234V53.5234ZM881.078 52.3906H879.078V61.5312H881.078H883.078V52.3906H881.078ZM885.453 60.9453H883.453V62.3495L884.774 62.8264L885.453 60.9453ZM885.453 50.9453L886.485 49.2323L883.453 47.4052V50.9453H885.453ZM891.508 53.6797L890.935 55.596L890.942 55.598L891.508 53.6797ZM902.406 53.6797L901.556 51.8692L901.549 51.8726L901.542 51.8761L902.406 53.6797ZM901.234 47.625L900.427 49.4548L900.437 49.4591L900.447 49.4633L901.234 47.625ZM895.219 45.5156L895.953 43.6553L895.939 43.6497L895.924 43.6442L895.219 45.5156ZM891 43.6016L889.988 45.3264L890.01 45.3393L890.032 45.3516L891 43.6016ZM887.953 41.1797L886.456 42.5058L886.466 42.5176L886.477 42.5292L887.953 41.1797ZM886.078 38.0156L884.189 38.6727L884.195 38.6909L884.202 38.7089L886.078 38.0156ZM886.898 27.9766L885.193 26.9314L885.187 26.9415L885.181 26.9516L886.898 27.9766ZM890.805 24.0312L891.87 25.7242L891.877 25.7197L890.805 24.0312ZM896.391 21.7656L896.83 23.7168L896.839 23.7149L896.847 23.7128L896.391 21.7656ZM908.344 21.4531L908.033 23.4289L908.047 23.431L908.061 23.433L908.344 21.4531ZM913.734 22.625H915.734V21.1285L914.299 20.7063L913.734 22.625ZM913.734 32.1562L912.727 33.8838L915.734 35.6383V32.1562H913.734ZM908.695 30.125L908.184 32.0584L908.2 32.0628L908.217 32.0669L908.695 30.125ZM901.156 29.6562L901.52 31.6228L901.548 31.6177L901.575 31.6119L901.156 29.6562ZM899.281 30.2812L900.141 32.087L900.176 32.0706L900.209 32.0529L899.281 30.2812ZM897.992 31.3359L899.592 32.5359L899.609 32.5129L899.626 32.4893L897.992 31.3359ZM900.062 36.0234L899.144 37.7999L899.168 37.8125L899.193 37.8245L900.062 36.0234ZM902.562 37.0391L901.914 38.931L901.946 38.9419L901.978 38.9518L902.562 37.0391ZM905.336 37.9375L905.995 36.0493L905.985 36.0456L905.336 37.9375ZM913.188 42.1953L911.793 43.6293L911.803 43.6388L911.813 43.6482L913.188 42.1953ZM915.375 45.3984L913.521 46.148L913.528 46.1648L913.535 46.1815L915.375 45.3984ZM914.594 55.8672L912.89 54.819L912.886 54.8264L914.594 55.8672ZM910.492 59.9688L911.54 61.6721L911.548 61.6676L910.492 59.9688ZM904.594 62.2344L904.184 60.2768L904.171 60.2796L904.157 60.2825L904.594 62.2344ZM885.453 60.9453H887.453V50.9453H885.453H883.453V60.9453H885.453ZM885.453 50.9453L884.421 52.6584C886.577 53.9578 888.749 54.943 890.935 55.596L891.508 53.6797L892.08 51.7634C890.256 51.2184 888.391 50.3807 886.485 49.2323L885.453 50.9453ZM891.508 53.6797L890.942 55.598C893.125 56.2418 895.231 56.5781 897.25 56.5781V54.5781V52.5781C895.675 52.5781 893.953 52.3155 892.073 51.7613L891.508 53.6797ZM897.25 54.5781V56.5781C899.582 56.5781 901.639 56.2649 903.271 55.4833L902.406 53.6797L901.542 51.8761C900.673 52.2924 899.293 52.5781 897.25 52.5781V54.5781ZM902.406 53.6797L903.256 55.4902C904.127 55.0812 904.914 54.5026 905.48 53.6938C906.058 52.8683 906.32 51.9246 906.32 50.9453H904.32H902.32C902.32 51.19 902.263 51.314 902.203 51.3999C902.131 51.5026 901.961 51.6792 901.556 51.8692L902.406 53.6797ZM904.32 50.9453H906.32C906.32 49.6064 905.8 48.4161 904.806 47.5123L903.461 48.9922L902.116 50.4721C902.267 50.61 902.32 50.7218 902.32 50.9453H904.32ZM903.461 48.9922L904.806 47.5123C904.03 46.8065 903.084 46.2416 902.022 45.7867L901.234 47.625L900.447 49.4633C901.208 49.7897 901.746 50.1362 902.116 50.4721L903.461 48.9922ZM901.234 47.625L902.042 45.7952C901.066 45.3646 900.006 44.9843 898.866 44.6508L898.305 46.5703L897.743 48.4898C898.739 48.7813 899.632 49.1042 900.427 49.4548L901.234 47.625ZM898.305 46.5703L898.866 44.6508C897.854 44.3547 896.884 44.0226 895.953 43.6553L895.219 45.5156L894.484 47.3759C895.533 47.7899 896.619 48.161 897.743 48.4898L898.305 46.5703ZM895.219 45.5156L895.924 43.6442C894.408 43.0724 893.092 42.4732 891.968 41.8515L891 43.6016L890.032 45.3516C891.356 46.0841 892.853 46.7609 894.513 47.387L895.219 45.5156ZM891 43.6016L892.012 41.8767C890.966 41.2624 890.112 40.5769 889.429 39.8301L887.953 41.1797L886.477 42.5292C887.461 43.6054 888.638 44.5345 889.988 45.3264L891 43.6016ZM887.953 41.1797L889.45 39.8536C888.815 39.1368 888.315 38.2992 887.954 37.3223L886.078 38.0156L884.202 38.7089C884.727 40.1279 885.476 41.3997 886.456 42.5058L887.953 41.1797ZM886.078 38.0156L887.967 37.3586C887.642 36.4236 887.453 35.237 887.453 33.7578H885.453H883.453C883.453 35.5599 883.681 37.2118 884.189 38.6727L886.078 38.0156ZM885.453 33.7578H887.453C887.453 31.8097 887.87 30.2516 888.616 29.0015L886.898 27.9766L885.181 26.9516C884 28.9307 883.453 31.2268 883.453 33.7578H885.453ZM886.898 27.9766L888.604 29.0217C889.431 27.6714 890.513 26.5772 891.87 25.7242L890.805 24.0312L889.74 22.3383C887.867 23.5165 886.345 25.0526 885.193 26.9314L886.898 27.9766ZM890.805 24.0312L891.877 25.7197C893.305 24.813 894.949 24.1401 896.83 23.7168L896.391 21.7656L895.952 19.8144C893.666 20.3287 891.586 21.1662 889.733 22.3428L890.805 24.0312ZM896.391 21.7656L896.847 23.7128C898.8 23.2547 900.834 23.0234 902.953 23.0234V21.0234V19.0234C900.541 19.0234 898.2 19.287 895.934 19.8185L896.391 21.7656ZM902.953 21.0234V23.0234C904.616 23.0234 906.309 23.1579 908.033 23.4289L908.344 21.4531L908.654 19.4774C906.733 19.1754 904.832 19.0234 902.953 19.0234V21.0234ZM908.344 21.4531L908.061 23.433C909.788 23.6798 911.491 24.05 913.17 24.5437L913.734 22.625L914.299 20.7063C912.436 20.1584 910.545 19.7473 908.627 19.4732L908.344 21.4531ZM913.734 22.625H911.734V32.1562H913.734H915.734V22.625H913.734ZM913.734 32.1562L914.742 30.4287C913.011 29.4186 911.152 28.6705 909.174 28.1831L908.695 30.125L908.217 32.0669C909.832 32.4649 911.333 33.071 912.727 33.8838L913.734 32.1562ZM908.695 30.125L909.207 28.1916C907.28 27.6815 905.363 27.4219 903.461 27.4219V29.4219V31.4219C904.996 31.4219 906.569 31.631 908.184 32.0584L908.695 30.125ZM903.461 29.4219V27.4219C902.524 27.4219 901.615 27.5126 900.737 27.7006L901.156 29.6562L901.575 31.6119C902.156 31.4874 902.783 31.4219 903.461 31.4219V29.4219ZM901.156 29.6562L900.792 27.6897C899.923 27.8507 899.103 28.117 898.353 28.5096L899.281 30.2812L900.209 32.0529C900.554 31.8726 900.984 31.7222 901.52 31.6228L901.156 29.6562ZM899.281 30.2812L898.421 28.4755C897.602 28.8657 896.891 29.4278 896.358 30.1826L897.992 31.3359L899.626 32.4893C899.718 32.3587 899.867 32.2176 900.141 32.087L899.281 30.2812ZM897.992 31.3359L896.392 30.1359C895.807 30.9169 895.523 31.8248 895.523 32.7812H897.523H899.523C899.523 32.644 899.553 32.5884 899.592 32.5359L897.992 31.3359ZM897.523 32.7812H895.523C895.523 33.9825 895.926 35.09 896.74 35.9942L898.227 34.6562L899.713 33.3183C899.589 33.1808 899.523 33.0384 899.523 32.7812H897.523ZM898.227 34.6562L896.74 35.9942C897.4 36.7279 898.219 37.3214 899.144 37.7999L900.062 36.0234L900.981 34.247C900.396 33.9442 899.99 33.6263 899.713 33.3183L898.227 34.6562ZM900.062 36.0234L899.193 37.8245C900.03 38.2284 900.938 38.5963 901.914 38.931L902.562 37.0391L903.211 35.1472C902.364 34.8568 901.606 34.5476 900.932 34.2223L900.062 36.0234ZM902.562 37.0391L901.978 38.9518C902.894 39.2318 903.797 39.5243 904.687 39.8294L905.336 37.9375L905.985 36.0456C905.051 35.7257 904.106 35.4193 903.147 35.1264L902.562 37.0391ZM905.336 37.9375L904.677 39.8257C906.245 40.3736 907.645 40.9643 908.881 41.5943L909.789 39.8125L910.697 38.0307C909.277 37.3065 907.708 36.6473 905.995 36.0493L905.336 37.9375ZM909.789 39.8125L908.881 41.5943C910.055 42.1929 911.018 42.8754 911.793 43.6293L913.188 42.1953L914.582 40.7613C913.482 39.6923 912.179 38.7862 910.697 38.0307L909.789 39.8125ZM913.188 42.1953L911.813 43.6482C912.569 44.3634 913.134 45.1915 913.521 46.148L915.375 45.3984L917.229 44.6489C916.626 43.1574 915.733 41.8502 914.562 40.7424L913.188 42.1953ZM915.375 45.3984L913.535 46.1815C913.926 47.1003 914.156 48.2793 914.156 49.7734H916.156H918.156C918.156 47.8821 917.866 46.1445 917.215 44.6153L915.375 45.3984ZM916.156 49.7734H914.156C914.156 51.8449 913.704 53.4975 912.89 54.819L914.594 55.8672L916.297 56.9154C917.567 54.8514 918.156 52.4415 918.156 49.7734H916.156ZM914.594 55.8672L912.886 54.8264C912.039 56.2157 910.9 57.3612 909.437 58.2699L910.492 59.9688L911.548 61.6676C913.522 60.4409 915.117 58.852 916.302 56.9079L914.594 55.8672ZM910.492 59.9688L909.444 58.2654C907.975 59.1694 906.231 59.8483 904.184 60.2768L904.594 62.2344L905.003 64.192C907.435 63.683 909.624 62.8515 911.54 61.6721L910.492 59.9688ZM904.594 62.2344L904.157 60.2825C902.095 60.7436 899.937 60.9766 897.68 60.9766V62.9766V64.9766C900.214 64.9766 902.665 64.7148 905.03 64.1862L904.594 62.2344ZM897.68 62.9766V60.9766C893.486 60.9766 889.643 60.332 886.132 59.0642L885.453 60.9453L884.774 62.8264C888.763 64.267 893.071 64.9766 897.68 64.9766V62.9766Z" fill="url(#paint0_linear_3102_13923)" mask="url(#path-1-outside-1_3102_13923)"/>
<defs>
<linearGradient id="paint0_linear_3102_13923" x1="465.021" y1="-38" x2="464.948" y2="95" gradientUnits="userSpaceOnUse">
<stop offset="0.427887" stop-color="#E1ECF3"/>
<stop offset="0.858273" stop-color="white"/>
</linearGradient>
</defs>
</svg>
