<svg width="436" height="83" viewBox="0 0 436 83" fill="none" xmlns="http://www.w3.org/2000/svg">
<mask id="path-1-outside-1_3279_11202" maskUnits="userSpaceOnUse" x="0" y="0" width="436" height="83" fill="black">
<rect fill="white" width="436" height="83"/>
<path d="M48.9688 62H33.0312L16.7031 37.6641C16.3906 37.1953 15.8958 36.1667 15.2188 34.5781H15.0234V62H2.40625V5.98438H15.0234V32.4688H15.2188C15.5312 31.7396 16.0521 30.6979 16.7812 29.3438L32.25 5.98438H47.2891L27.7578 32.7031L48.9688 62ZM88.3047 45.5156H62.2109C62.6276 51.3229 66.2865 54.2266 73.1875 54.2266C77.5885 54.2266 81.4557 53.1849 84.7891 51.1016V60.0078C81.0911 61.987 76.2865 62.9766 70.375 62.9766C63.9167 62.9766 58.9036 61.1927 55.3359 57.625C51.7682 54.0312 49.9844 49.0312 49.9844 42.625C49.9844 35.9844 51.9115 30.724 55.7656 26.8438C59.6198 22.9635 64.3594 21.0234 69.9844 21.0234C75.8177 21.0234 80.3229 22.7552 83.5 26.2188C86.7031 29.6823 88.3047 34.3828 88.3047 40.3203V45.5156ZM76.8594 37.9375C76.8594 32.2083 74.5417 29.3438 69.9062 29.3438C67.9271 29.3438 66.2083 30.1641 64.75 31.8047C63.3177 33.4453 62.4453 35.4896 62.1328 37.9375H76.8594ZM133.734 22L117.484 65.2031C113.578 75.5938 107.693 80.7891 99.8281 80.7891C96.8333 80.7891 94.3724 80.4505 92.4453 79.7734V69.9297C94.0859 70.8932 95.8698 71.375 97.7969 71.375C100.974 71.375 103.188 69.8776 104.438 66.8828L106.547 61.9219L90.2969 22H103.969L111.43 46.3359C111.898 47.8464 112.263 49.6302 112.523 51.6875H112.68C112.914 50.1771 113.344 48.4193 113.969 46.4141L121.508 22H133.734ZM225.844 62H213.383V28.4844C213.383 24.8646 213.539 20.8672 213.852 16.4922H213.539C212.888 19.9297 212.302 22.4036 211.781 23.9141L198.656 62H188.344L174.984 24.3047C174.62 23.2891 174.034 20.6849 173.227 16.4922H172.875C173.214 22.013 173.383 26.8568 173.383 31.0234V62H162.016V5.98438H180.492L191.938 39.1875C192.849 41.8438 193.513 44.513 193.93 47.1953H194.164C194.867 44.0964 195.609 41.401 196.391 39.1094L207.836 5.98438H225.844V62ZM273.305 45.5156H247.211C247.628 51.3229 251.286 54.2266 258.188 54.2266C262.589 54.2266 266.456 53.1849 269.789 51.1016V60.0078C266.091 61.987 261.286 62.9766 255.375 62.9766C248.917 62.9766 243.904 61.1927 240.336 57.625C236.768 54.0312 234.984 49.0312 234.984 42.625C234.984 35.9844 236.911 30.724 240.766 26.8438C244.62 22.9635 249.359 21.0234 254.984 21.0234C260.818 21.0234 265.323 22.7552 268.5 26.2188C271.703 29.6823 273.305 34.3828 273.305 40.3203V45.5156ZM261.859 37.9375C261.859 32.2083 259.542 29.3438 254.906 29.3438C252.927 29.3438 251.208 30.1641 249.75 31.8047C248.318 33.4453 247.445 35.4896 247.133 37.9375H261.859ZM304.828 61.5312C303.005 62.4948 300.258 62.9766 296.586 62.9766C287.888 62.9766 283.539 58.4583 283.539 49.4219V31.1016H277.055V22H283.539V13.3672L295.844 9.85156V22H304.828V31.1016H295.844V47.2734C295.844 51.4401 297.497 53.5234 300.805 53.5234C302.107 53.5234 303.448 53.1458 304.828 52.3906V61.5312ZM337.914 33.1328C336.43 32.3255 334.698 31.9219 332.719 31.9219C330.036 31.9219 327.94 32.9115 326.43 34.8906C324.919 36.8438 324.164 39.513 324.164 42.8984V62H311.82V22H324.164V29.4219H324.32C326.273 24.0052 329.789 21.2969 334.867 21.2969C336.169 21.2969 337.185 21.4531 337.914 21.7656V33.1328ZM350.258 15.6719C348.174 15.6719 346.469 15.0599 345.141 13.8359C343.812 12.5859 343.148 11.0625 343.148 9.26562C343.148 7.41667 343.812 5.90625 345.141 4.73438C346.469 3.5625 348.174 2.97656 350.258 2.97656C352.367 2.97656 354.073 3.5625 355.375 4.73438C356.703 5.90625 357.367 7.41667 357.367 9.26562C357.367 11.1406 356.703 12.6771 355.375 13.875C354.073 15.0729 352.367 15.6719 350.258 15.6719ZM356.352 62H344.008V22H356.352V62ZM397.055 60.5547C394.268 62.1693 390.245 62.9766 384.984 62.9766C378.839 62.9766 373.865 61.1146 370.062 57.3906C366.26 53.6667 364.359 48.862 364.359 42.9766C364.359 36.1797 366.391 30.8281 370.453 26.9219C374.542 22.9896 379.997 21.0234 386.82 21.0234C391.534 21.0234 394.945 21.6484 397.055 22.8984V33.3672C394.477 31.4401 391.599 30.4766 388.422 30.4766C384.88 30.4766 382.068 31.5182 379.984 33.6016C377.927 35.6589 376.898 38.5104 376.898 42.1562C376.898 45.6979 377.888 48.4844 379.867 50.5156C381.846 52.5208 384.568 53.5234 388.031 53.5234C391.104 53.5234 394.112 52.5599 397.055 50.6328V60.5547ZM402.562 60.9453V50.9453C404.594 52.1693 406.612 53.0807 408.617 53.6797C410.648 54.2786 412.562 54.5781 414.359 54.5781C416.547 54.5781 418.266 54.2786 419.516 53.6797C420.792 53.0807 421.43 52.1693 421.43 50.9453C421.43 50.1641 421.143 49.513 420.57 48.9922C419.997 48.4714 419.255 48.0156 418.344 47.625C417.458 47.2344 416.482 46.8828 415.414 46.5703C414.346 46.2578 413.318 45.9062 412.328 45.5156C410.74 44.9167 409.333 44.2786 408.109 43.6016C406.911 42.8984 405.896 42.0911 405.062 41.1797C404.255 40.2682 403.63 39.2135 403.188 38.0156C402.771 36.8177 402.562 35.3984 402.562 33.7578C402.562 31.5182 403.044 29.5911 404.008 27.9766C404.997 26.362 406.299 25.0469 407.914 24.0312C409.555 22.9896 411.417 22.2344 413.5 21.7656C415.609 21.2708 417.797 21.0234 420.062 21.0234C421.833 21.0234 423.63 21.1667 425.453 21.4531C427.276 21.7135 429.073 22.1042 430.844 22.625V32.1562C429.281 31.2448 427.602 30.5677 425.805 30.125C424.034 29.6562 422.289 29.4219 420.57 29.4219C419.763 29.4219 418.995 29.5 418.266 29.6562C417.562 29.7865 416.938 29.9948 416.391 30.2812C415.844 30.5417 415.414 30.8932 415.102 31.3359C414.789 31.7526 414.633 32.2344 414.633 32.7812C414.633 33.5104 414.867 34.1354 415.336 34.6562C415.805 35.1771 416.417 35.6328 417.172 36.0234C417.927 36.388 418.76 36.7266 419.672 37.0391C420.609 37.3255 421.534 37.625 422.445 37.9375C424.086 38.5104 425.57 39.1354 426.898 39.8125C428.227 40.4896 429.359 41.2839 430.297 42.1953C431.26 43.1068 431.99 44.1745 432.484 45.3984C433.005 46.6224 433.266 48.0807 433.266 49.7734C433.266 52.1432 432.745 54.1745 431.703 55.8672C430.688 57.5339 429.32 58.901 427.602 59.9688C425.909 61.0104 423.943 61.7656 421.703 62.2344C419.49 62.7292 417.185 62.9766 414.789 62.9766C410.388 62.9766 406.312 62.2995 402.562 60.9453Z"/>
</mask>
<path d="M48.9688 62V64H52.8859L50.5887 60.8271L48.9688 62ZM33.0312 62L31.3704 63.1143L31.9647 64H33.0312V62ZM16.7031 37.6641L15.039 38.7735L15.0423 38.7784L16.7031 37.6641ZM15.2188 34.5781L17.0586 33.7939L16.5404 32.5781H15.2188V34.5781ZM15.0234 34.5781V32.5781H13.0234V34.5781H15.0234ZM15.0234 62V64H17.0234V62H15.0234ZM2.40625 62H0.40625V64H2.40625V62ZM2.40625 5.98438V3.98438H0.40625V5.98438H2.40625ZM15.0234 5.98438H17.0234V3.98438H15.0234V5.98438ZM15.0234 32.4688H13.0234V34.4688H15.0234V32.4688ZM15.2188 32.4688V34.4688H16.5375L17.057 33.2566L15.2188 32.4688ZM16.7812 29.3438L15.1137 28.2395L15.0635 28.3154L15.0203 28.3956L16.7812 29.3438ZM32.25 5.98438V3.98438H31.1756L30.5825 4.88013L32.25 5.98438ZM47.2891 5.98438L48.9037 7.16465L51.2284 3.98438H47.2891V5.98438ZM27.7578 32.7031L26.1432 31.5229L25.2846 32.6975L26.1378 33.876L27.7578 32.7031ZM48.9688 62V60H33.0312V62V64H48.9688V62ZM33.0312 62L34.6921 60.8857L18.3639 36.5497L16.7031 37.6641L15.0423 38.7784L31.3704 63.1143L33.0312 62ZM16.7031 37.6641L18.3672 36.5547C18.1754 36.267 17.7493 35.4144 17.0586 33.7939L15.2188 34.5781L13.3789 35.3623C14.0424 36.919 14.6058 38.1237 15.039 38.7735L16.7031 37.6641ZM15.2188 34.5781V32.5781H15.0234V34.5781V36.5781H15.2188V34.5781ZM15.0234 34.5781H13.0234V62H15.0234H17.0234V34.5781H15.0234ZM15.0234 62V60H2.40625V62V64H15.0234V62ZM2.40625 62H4.40625V5.98438H2.40625H0.40625V62H2.40625ZM2.40625 5.98438V7.98438H15.0234V5.98438V3.98438H2.40625V5.98438ZM15.0234 5.98438H13.0234V32.4688H15.0234H17.0234V5.98438H15.0234ZM15.0234 32.4688V34.4688H15.2188V32.4688V30.4688H15.0234V32.4688ZM15.2188 32.4688L17.057 33.2566C17.3336 32.6113 17.8203 31.6326 18.5422 30.2919L16.7812 29.3438L15.0203 28.3956C14.2839 29.7632 13.7289 30.8678 13.3805 31.6809L15.2188 32.4688ZM16.7812 29.3438L18.4488 30.448L33.9175 7.08862L32.25 5.98438L30.5825 4.88013L15.1137 28.2395L16.7812 29.3438ZM32.25 5.98438V7.98438H47.2891V5.98438V3.98438H32.25V5.98438ZM47.2891 5.98438L45.6745 4.8041L26.1432 31.5229L27.7578 32.7031L29.3724 33.8834L48.9037 7.16465L47.2891 5.98438ZM27.7578 32.7031L26.1378 33.876L47.3488 63.1729L48.9688 62L50.5887 60.8271L29.3778 31.5303L27.7578 32.7031ZM88.3047 45.5156V47.5156H90.3047V45.5156H88.3047ZM62.2109 45.5156V43.5156H60.0623L60.2161 45.6588L62.2109 45.5156ZM84.7891 51.1016H86.7891V47.4931L83.7291 49.4056L84.7891 51.1016ZM84.7891 60.0078L85.7328 61.7711L86.7891 61.2058V60.0078H84.7891ZM55.3359 57.625L53.9166 59.0341L53.9217 59.0392L55.3359 57.625ZM83.5 26.2188L82.0261 27.5707L82.0317 27.5767L83.5 26.2188ZM76.8594 37.9375V39.9375H78.8594V37.9375H76.8594ZM64.75 31.8047L63.2552 30.476L63.2492 30.4826L63.2434 30.4894L64.75 31.8047ZM62.1328 37.9375L60.1489 37.6842L59.8613 39.9375H62.1328V37.9375ZM88.3047 45.5156V43.5156H62.2109V45.5156V47.5156H88.3047V45.5156ZM62.2109 45.5156L60.2161 45.6588C60.4539 48.9736 61.6521 51.7329 64.0243 53.6154C66.3414 55.4542 69.493 56.2266 73.1875 56.2266V54.2266V52.2266C69.9809 52.2266 67.8526 51.5471 66.5108 50.4822C65.2242 49.4611 64.3846 47.865 64.2058 45.3725L62.2109 45.5156ZM73.1875 54.2266V56.2266C77.9172 56.2266 82.1609 55.1027 85.8491 52.7976L84.7891 51.1016L83.7291 49.4056C80.7506 51.2671 77.2599 52.2266 73.1875 52.2266V54.2266ZM84.7891 51.1016H82.7891V60.0078H84.7891H86.7891V51.1016H84.7891ZM84.7891 60.0078L83.8453 58.2445C80.5321 60.0177 76.0842 60.9766 70.375 60.9766V62.9766V64.9766C76.4887 64.9766 81.6502 63.9562 85.7328 61.7711L84.7891 60.0078ZM70.375 62.9766V60.9766C64.2915 60.9766 59.8455 59.3061 56.7502 56.2108L55.3359 57.625L53.9217 59.0392C57.9618 63.0793 63.5419 64.9766 70.375 64.9766V62.9766ZM55.3359 57.625L56.7553 56.2159C53.6517 53.0897 51.9844 48.6504 51.9844 42.625H49.9844H47.9844C47.9844 49.4121 49.8848 54.9728 53.9166 59.0341L55.3359 57.625ZM49.9844 42.625H51.9844C51.9844 36.392 53.7797 31.6811 57.1846 28.2532L55.7656 26.8438L54.3467 25.4343C50.0432 29.7668 47.9844 35.5768 47.9844 42.625H49.9844ZM55.7656 26.8438L57.1846 28.2532C60.6515 24.7629 64.8751 23.0234 69.9844 23.0234V21.0234V19.0234C63.8436 19.0234 58.5881 21.1642 54.3467 25.4343L55.7656 26.8438ZM69.9844 21.0234V23.0234C75.4024 23.0234 79.3159 24.6161 82.0262 27.5707L83.5 26.2188L84.9738 24.8668C81.3299 20.8943 76.233 19.0234 69.9844 19.0234V21.0234ZM83.5 26.2188L82.0317 27.5767C84.8109 30.5819 86.3047 34.7507 86.3047 40.3203H88.3047H90.3047C90.3047 34.015 88.5954 28.7827 84.9683 24.8608L83.5 26.2188ZM88.3047 40.3203H86.3047V45.5156H88.3047H90.3047V40.3203H88.3047ZM76.8594 37.9375H78.8594C78.8594 34.8552 78.2444 32.1727 76.6759 30.2342C75.0419 28.2147 72.6576 27.3438 69.9062 27.3438V29.3438V31.3438C71.7903 31.3438 72.8826 31.9051 73.5663 32.7502C74.3155 33.6762 74.8594 35.2906 74.8594 37.9375H76.8594ZM69.9062 29.3438V27.3438C67.2897 27.3438 65.0468 28.4604 63.2552 30.476L64.75 31.8047L66.2448 33.1334C67.3699 31.8677 68.5645 31.3438 69.9062 31.3438V29.3438ZM64.75 31.8047L63.2434 30.4894C61.5165 32.4675 60.5047 34.8969 60.1489 37.6842L62.1328 37.9375L64.1167 38.1908C64.3859 36.0822 65.119 34.4232 66.2566 33.12L64.75 31.8047ZM62.1328 37.9375V39.9375H76.8594V37.9375V35.9375H62.1328V37.9375ZM133.734 22L135.606 22.7041L136.623 20H133.734V22ZM117.484 65.2031L115.612 64.499L115.612 64.4993L117.484 65.2031ZM92.4453 79.7734H90.4453V81.1906L91.7823 81.6604L92.4453 79.7734ZM92.4453 69.9297L93.4582 68.2051L90.4453 66.4357V69.9297H92.4453ZM104.438 66.8828L102.597 66.1002L102.592 66.1124L104.438 66.8828ZM106.547 61.9219L108.387 62.7045L108.713 61.9386L108.399 61.1679L106.547 61.9219ZM90.2969 22V20H87.3234L88.4445 22.754L90.2969 22ZM103.969 22L105.881 21.4138L105.447 20H103.969V22ZM111.43 46.3359L109.518 46.9222L109.52 46.9287L111.43 46.3359ZM112.523 51.6875L110.539 51.9387L110.761 53.6875H112.523V51.6875ZM112.68 51.6875V53.6875H114.393L114.656 51.9942L112.68 51.6875ZM113.969 46.4141L115.878 47.0092L115.88 47.0042L113.969 46.4141ZM121.508 22V20H120.032L119.597 21.4099L121.508 22ZM133.734 22L131.862 21.2959L115.612 64.499L117.484 65.2031L119.356 65.9072L135.606 22.7041L133.734 22ZM117.484 65.2031L115.612 64.4993C113.729 69.5077 111.434 73.0828 108.817 75.3932C106.241 77.6676 103.274 78.7891 99.8281 78.7891V80.7891V82.7891C104.247 82.7891 108.155 81.3129 111.464 78.392C114.732 75.507 117.333 71.2891 119.356 65.9069L117.484 65.2031ZM99.8281 80.7891V78.7891C96.9637 78.7891 94.7479 78.4626 93.1083 77.8865L92.4453 79.7734L91.7823 81.6604C93.9969 82.4385 96.703 82.7891 99.8281 82.7891V80.7891ZM92.4453 79.7734H94.4453V69.9297H92.4453H90.4453V79.7734H92.4453ZM92.4453 69.9297L91.4325 71.6543C93.3843 72.8006 95.5185 73.375 97.7969 73.375V71.375V69.375C96.2211 69.375 94.7876 68.9859 93.4582 68.2051L92.4453 69.9297ZM97.7969 71.375V73.375C99.708 73.375 101.464 72.9206 102.96 71.9085C104.454 70.8985 105.541 69.4325 106.283 67.6532L104.438 66.8828L102.592 66.1124C102.084 67.3279 101.44 68.108 100.719 68.5954C100.002 69.0807 99.0629 69.375 97.7969 69.375V71.375ZM104.438 66.8828L106.278 67.6654L108.387 62.7045L106.547 61.9219L104.706 61.1393L102.597 66.1002L104.438 66.8828ZM106.547 61.9219L108.399 61.1679L92.1493 21.246L90.2969 22L88.4445 22.754L104.694 62.6759L106.547 61.9219ZM90.2969 22V24H103.969V22V20H90.2969V22ZM103.969 22L102.057 22.5862L109.518 46.9222L111.43 46.3359L113.342 45.7497L105.881 21.4138L103.969 22ZM111.43 46.3359L109.52 46.9287C109.945 48.2995 110.289 49.9637 110.539 51.9387L112.523 51.6875L114.508 51.4363C114.237 49.2967 113.852 47.3932 113.34 45.7431L111.43 46.3359ZM112.523 51.6875V53.6875H112.68V51.6875V49.6875H112.523V51.6875ZM112.68 51.6875L114.656 51.9942C114.871 50.6099 115.273 48.9523 115.878 47.0092L113.969 46.4141L112.059 45.8189C111.415 47.8863 110.957 49.7443 110.703 51.3808L112.68 51.6875ZM113.969 46.4141L115.88 47.0042L123.419 22.5901L121.508 22L119.597 21.4099L112.058 45.824L113.969 46.4141ZM121.508 22V24H133.734V22V20H121.508V22ZM225.844 62V64H227.844V62H225.844ZM213.383 62H211.383V64H213.383V62ZM213.852 16.4922L215.846 16.6347L216 14.4922H213.852V16.4922ZM213.539 16.4922V14.4922H211.882L211.574 16.12L213.539 16.4922ZM211.781 23.9141L209.891 23.2621L209.89 23.2624L211.781 23.9141ZM198.656 62V64H200.082L200.547 62.6516L198.656 62ZM188.344 62L186.459 62.6681L186.931 64H188.344V62ZM174.984 24.3047L176.87 23.6366L176.867 23.629L174.984 24.3047ZM173.227 16.4922L175.19 16.114L174.878 14.4922H173.227V16.4922ZM172.875 16.4922V14.4922H170.749L170.879 16.6146L172.875 16.4922ZM173.383 62V64H175.383V62H173.383ZM162.016 62H160.016V64H162.016V62ZM162.016 5.98438V3.98438H160.016V5.98438H162.016ZM180.492 5.98438L182.383 5.3326L181.918 3.98438H180.492V5.98438ZM191.938 39.1875L193.829 38.5384L193.828 38.5357L191.938 39.1875ZM193.93 47.1953L191.953 47.5023L192.216 49.1953H193.93V47.1953ZM194.164 47.1953V49.1953H195.761L196.114 47.6378L194.164 47.1953ZM196.391 39.1094L194.5 38.4562L194.498 38.464L196.391 39.1094ZM207.836 5.98438V3.98438H206.411L205.946 5.33123L207.836 5.98438ZM225.844 5.98438H227.844V3.98438H225.844V5.98438ZM225.844 62V60H213.383V62V64H225.844V62ZM213.383 62H215.383V28.4844H213.383H211.383V62H213.383ZM213.383 28.4844H215.383C215.383 24.9208 215.537 20.9718 215.846 16.6347L213.852 16.4922L211.857 16.3497C211.541 20.7626 211.383 24.8084 211.383 28.4844H213.383ZM213.852 16.4922V14.4922H213.539V16.4922V18.4922H213.852V16.4922ZM213.539 16.4922L211.574 16.12C210.925 19.5469 210.361 21.8987 209.891 23.2621L211.781 23.9141L213.672 24.566C214.244 22.9086 214.851 20.3125 215.504 16.8644L213.539 16.4922ZM211.781 23.9141L209.89 23.2624L196.765 61.3484L198.656 62L200.547 62.6516L213.672 24.5657L211.781 23.9141ZM198.656 62V60H188.344V62V64H198.656V62ZM188.344 62L190.229 61.3319L176.869 23.6366L174.984 24.3047L173.099 24.9728L186.459 62.6681L188.344 62ZM174.984 24.3047L176.867 23.629C176.566 22.7917 176.009 20.3628 175.19 16.114L173.227 16.4922L171.263 16.8703C172.059 21.007 172.673 23.7864 173.102 24.9804L174.984 24.3047ZM173.227 16.4922V14.4922H172.875V16.4922V18.4922H173.227V16.4922ZM172.875 16.4922L170.879 16.6146C171.216 22.107 171.383 26.9083 171.383 31.0234H173.383H175.383C175.383 26.8053 175.212 21.9191 174.871 16.3698L172.875 16.4922ZM173.383 31.0234H171.383V62H173.383H175.383V31.0234H173.383ZM173.383 62V60H162.016V62V64H173.383V62ZM162.016 62H164.016V5.98438H162.016H160.016V62H162.016ZM162.016 5.98438V7.98438H180.492V5.98438V3.98438H162.016V5.98438ZM180.492 5.98438L178.601 6.63615L190.047 39.8393L191.938 39.1875L193.828 38.5357L182.383 5.3326L180.492 5.98438ZM191.938 39.1875L190.046 39.8366C190.92 42.3854 191.555 44.9403 191.953 47.5023L193.93 47.1953L195.906 46.8883C195.471 44.0858 194.778 41.3021 193.829 38.5384L191.938 39.1875ZM193.93 47.1953V49.1953H194.164V47.1953V45.1953H193.93V47.1953ZM194.164 47.1953L196.114 47.6378C196.807 44.5876 197.531 41.963 198.284 39.7547L196.391 39.1094L194.498 38.464C193.688 40.8391 192.928 43.6051 192.214 46.7528L194.164 47.1953ZM196.391 39.1094L198.281 39.7625L209.726 6.63752L207.836 5.98438L205.946 5.33123L194.5 38.4562L196.391 39.1094ZM207.836 5.98438V7.98438H225.844V5.98438V3.98438H207.836V5.98438ZM225.844 5.98438H223.844V62H225.844H227.844V5.98438H225.844ZM273.305 45.5156V47.5156H275.305V45.5156H273.305ZM247.211 45.5156V43.5156H245.062L245.216 45.6588L247.211 45.5156ZM269.789 51.1016H271.789V47.4931L268.729 49.4056L269.789 51.1016ZM269.789 60.0078L270.733 61.7711L271.789 61.2058V60.0078H269.789ZM240.336 57.625L238.917 59.0341L238.922 59.0392L240.336 57.625ZM268.5 26.2188L267.026 27.5707L267.032 27.5767L268.5 26.2188ZM261.859 37.9375V39.9375H263.859V37.9375H261.859ZM249.75 31.8047L248.255 30.476L248.249 30.4826L248.243 30.4894L249.75 31.8047ZM247.133 37.9375L245.149 37.6842L244.861 39.9375H247.133V37.9375ZM273.305 45.5156V43.5156H247.211V45.5156V47.5156H273.305V45.5156ZM247.211 45.5156L245.216 45.6588C245.454 48.9736 246.652 51.7329 249.024 53.6154C251.341 55.4542 254.493 56.2266 258.188 56.2266V54.2266V52.2266C254.981 52.2266 252.853 51.5471 251.511 50.4822C250.224 49.4611 249.385 47.865 249.206 45.3725L247.211 45.5156ZM258.188 54.2266V56.2266C262.917 56.2266 267.161 55.1027 270.849 52.7976L269.789 51.1016L268.729 49.4056C265.751 51.2671 262.26 52.2266 258.188 52.2266V54.2266ZM269.789 51.1016H267.789V60.0078H269.789H271.789V51.1016H269.789ZM269.789 60.0078L268.845 58.2445C265.532 60.0177 261.084 60.9766 255.375 60.9766V62.9766V64.9766C261.489 64.9766 266.65 63.9562 270.733 61.7711L269.789 60.0078ZM255.375 62.9766V60.9766C249.291 60.9766 244.845 59.3061 241.75 56.2108L240.336 57.625L238.922 59.0392C242.962 63.0793 248.542 64.9766 255.375 64.9766V62.9766ZM240.336 57.625L241.755 56.2159C238.652 53.0897 236.984 48.6504 236.984 42.625H234.984H232.984C232.984 49.4121 234.885 54.9728 238.917 59.0341L240.336 57.625ZM234.984 42.625H236.984C236.984 36.392 238.78 31.6811 242.185 28.2532L240.766 26.8438L239.347 25.4343C235.043 29.7668 232.984 35.5768 232.984 42.625H234.984ZM240.766 26.8438L242.185 28.2532C245.651 24.7629 249.875 23.0234 254.984 23.0234V21.0234V19.0234C248.844 19.0234 243.588 21.1642 239.347 25.4343L240.766 26.8438ZM254.984 21.0234V23.0234C260.402 23.0234 264.316 24.6161 267.026 27.5707L268.5 26.2188L269.974 24.8668C266.33 20.8943 261.233 19.0234 254.984 19.0234V21.0234ZM268.5 26.2188L267.032 27.5767C269.811 30.5819 271.305 34.7507 271.305 40.3203H273.305H275.305C275.305 34.015 273.595 28.7827 269.968 24.8608L268.5 26.2188ZM273.305 40.3203H271.305V45.5156H273.305H275.305V40.3203H273.305ZM261.859 37.9375H263.859C263.859 34.8552 263.244 32.1727 261.676 30.2342C260.042 28.2147 257.658 27.3438 254.906 27.3438V29.3438V31.3438C256.79 31.3438 257.883 31.9051 258.566 32.7502C259.316 33.6762 259.859 35.2906 259.859 37.9375H261.859ZM254.906 29.3438V27.3438C252.29 27.3438 250.047 28.4604 248.255 30.476L249.75 31.8047L251.245 33.1334C252.37 31.8677 253.564 31.3438 254.906 31.3438V29.3438ZM249.75 31.8047L248.243 30.4894C246.516 32.4675 245.505 34.8969 245.149 37.6842L247.133 37.9375L249.117 38.1908C249.386 36.0822 250.119 34.4232 251.257 33.12L249.75 31.8047ZM247.133 37.9375V39.9375H261.859V37.9375V35.9375H247.133V37.9375ZM304.828 61.5312L305.763 63.2994L306.828 62.7363V61.5312H304.828ZM283.539 31.1016H285.539V29.1016H283.539V31.1016ZM277.055 31.1016H275.055V33.1016H277.055V31.1016ZM277.055 22V20H275.055V22H277.055ZM283.539 22V24H285.539V22H283.539ZM283.539 13.3672L282.99 11.4441L281.539 11.8586V13.3672H283.539ZM295.844 9.85156H297.844V7.2001L295.294 7.92852L295.844 9.85156ZM295.844 22H293.844V24H295.844V22ZM304.828 22H306.828V20H304.828V22ZM304.828 31.1016V33.1016H306.828V31.1016H304.828ZM295.844 31.1016V29.1016H293.844V31.1016H295.844ZM304.828 52.3906H306.828V49.0165L303.868 50.6361L304.828 52.3906ZM304.828 61.5312L303.894 59.7631C302.504 60.4977 300.15 60.9766 296.586 60.9766V62.9766V64.9766C300.366 64.9766 303.507 64.4919 305.763 63.2994L304.828 61.5312ZM296.586 62.9766V60.9766C292.565 60.9766 289.912 59.9363 288.242 58.2009C286.558 56.4513 285.539 53.6505 285.539 49.4219H283.539H281.539C281.539 54.2297 282.695 58.2062 285.36 60.9749C288.038 63.7577 291.909 64.9766 296.586 64.9766V62.9766ZM283.539 49.4219H285.539V31.1016H283.539H281.539V49.4219H283.539ZM283.539 31.1016V29.1016H277.055V31.1016V33.1016H283.539V31.1016ZM277.055 31.1016H279.055V22H277.055H275.055V31.1016H277.055ZM277.055 22V24H283.539V22V20H277.055V22ZM283.539 22H285.539V13.3672H283.539H281.539V22H283.539ZM283.539 13.3672L284.089 15.2902L296.393 11.7746L295.844 9.85156L295.294 7.92852L282.99 11.4441L283.539 13.3672ZM295.844 9.85156H293.844V22H295.844H297.844V9.85156H295.844ZM295.844 22V24H304.828V22V20H295.844V22ZM304.828 22H302.828V31.1016H304.828H306.828V22H304.828ZM304.828 31.1016V29.1016H295.844V31.1016V33.1016H304.828V31.1016ZM295.844 31.1016H293.844V47.2734H295.844H297.844V31.1016H295.844ZM295.844 47.2734H293.844C293.844 49.5677 294.29 51.658 295.517 53.2043C296.815 54.8388 298.704 55.5234 300.805 55.5234V53.5234V51.5234C299.598 51.5234 299.007 51.1664 298.65 50.7175C298.224 50.1805 297.844 49.1458 297.844 47.2734H295.844ZM300.805 53.5234V55.5234C302.506 55.5234 304.175 55.0281 305.788 54.1451L304.828 52.3906L303.868 50.6361C302.721 51.2636 301.708 51.5234 300.805 51.5234V53.5234ZM304.828 52.3906H302.828V61.5312H304.828H306.828V52.3906H304.828ZM337.914 33.1328L336.959 34.8898L339.914 36.4972V33.1328H337.914ZM326.43 34.8906L328.012 36.1141L328.02 36.104L326.43 34.8906ZM324.164 62V64H326.164V62H324.164ZM311.82 62H309.82V64H311.82V62ZM311.82 22V20H309.82V22H311.82ZM324.164 22H326.164V20H324.164V22ZM324.164 29.4219H322.164V31.4219H324.164V29.4219ZM324.32 29.4219V31.4219H325.725L326.202 30.1003L324.32 29.4219ZM337.914 21.7656H339.914V20.4468L338.702 19.9273L337.914 21.7656ZM337.914 33.1328L338.87 31.3758C337.045 30.3837 334.974 29.9219 332.719 29.9219V31.9219V33.9219C334.421 33.9219 335.814 34.2673 336.959 34.8898L337.914 33.1328ZM332.719 31.9219V29.9219C329.469 29.9219 326.761 31.1596 324.84 33.6773L326.43 34.8906L328.02 36.104C329.119 34.6633 330.604 33.9219 332.719 33.9219V31.9219ZM326.43 34.8906L324.848 33.6671C322.981 36.0803 322.164 39.2324 322.164 42.8984H324.164H326.164C326.164 39.7937 326.857 37.6072 328.012 36.1141L326.43 34.8906ZM324.164 42.8984H322.164V62H324.164H326.164V42.8984H324.164ZM324.164 62V60H311.82V62V64H324.164V62ZM311.82 62H313.82V22H311.82H309.82V62H311.82ZM311.82 22V24H324.164V22V20H311.82V22ZM324.164 22H322.164V29.4219H324.164H326.164V22H324.164ZM324.164 29.4219V31.4219H324.32V29.4219V27.4219H324.164V29.4219ZM324.32 29.4219L326.202 30.1003C327.087 27.6456 328.265 25.974 329.642 24.9125C331.001 23.8659 332.703 23.2969 334.867 23.2969V21.2969V19.2969C331.953 19.2969 329.358 20.082 327.201 21.7438C325.064 23.3906 323.507 25.7815 322.439 28.7435L324.32 29.4219ZM334.867 21.2969V23.2969C336.05 23.2969 336.755 23.445 337.126 23.6039L337.914 21.7656L338.702 19.9273C337.614 19.4612 336.288 19.2969 334.867 19.2969V21.2969ZM337.914 21.7656H335.914V33.1328H337.914H339.914V21.7656H337.914ZM345.141 13.8359L343.77 15.2923L343.778 15.2995L343.785 15.3066L345.141 13.8359ZM355.375 4.73438L354.037 6.22096L354.044 6.22754L354.052 6.23405L355.375 4.73438ZM355.375 13.875L354.035 12.3899L354.028 12.3965L354.021 12.4031L355.375 13.875ZM356.352 62V64H358.352V62H356.352ZM344.008 62H342.008V64H344.008V62ZM344.008 22V20H342.008V22H344.008ZM356.352 22H358.352V20H356.352V22ZM350.258 15.6719V13.6719C348.594 13.6719 347.398 13.1968 346.496 12.3652L345.141 13.8359L343.785 15.3066C345.539 16.923 347.755 17.6719 350.258 17.6719V15.6719ZM345.141 13.8359L346.511 12.3795C345.578 11.5011 345.148 10.5017 345.148 9.26562H343.148H341.148C341.148 11.6233 342.047 13.6708 343.77 15.2923L345.141 13.8359ZM343.148 9.26562H345.148C345.148 7.96184 345.587 7.00771 346.464 6.23405L345.141 4.73438L343.817 3.2347C342.038 4.80479 341.148 6.87149 341.148 9.26562H343.148ZM345.141 4.73438L346.464 6.23405C347.364 5.43997 348.571 4.97656 350.258 4.97656V2.97656V0.976562C347.778 0.976562 345.574 1.68503 343.817 3.2347L345.141 4.73438ZM350.258 2.97656V4.97656C351.979 4.97656 353.174 5.44434 354.037 6.22096L355.375 4.73438L356.713 3.24779C354.972 1.68066 352.755 0.976562 350.258 0.976562V2.97656ZM355.375 4.73438L354.052 6.23405C354.929 7.00771 355.367 7.96184 355.367 9.26562H357.367H359.367C359.367 6.87149 358.478 4.80479 356.698 3.2347L355.375 4.73438ZM357.367 9.26562H355.367C355.367 10.6054 354.921 11.5914 354.035 12.3899L355.375 13.875L356.715 15.3601C358.486 13.7627 359.367 11.6759 359.367 9.26562H357.367ZM355.375 13.875L354.021 12.4031C353.157 13.1981 351.968 13.6719 350.258 13.6719V15.6719V17.6719C352.767 17.6719 354.989 16.9477 356.729 15.3469L355.375 13.875ZM356.352 62V60H344.008V62V64H356.352V62ZM344.008 62H346.008V22H344.008H342.008V62H344.008ZM344.008 22V24H356.352V22V20H344.008V22ZM356.352 22H354.352V62H356.352H358.352V22H356.352ZM397.055 60.5547L398.057 62.2852L399.055 61.7073V60.5547H397.055ZM370.453 26.9219L371.839 28.3635L371.84 28.3634L370.453 26.9219ZM397.055 22.8984H399.055V21.7588L398.074 21.1779L397.055 22.8984ZM397.055 33.3672L395.857 34.9691L399.055 37.3591V33.3672H397.055ZM379.984 33.6016L381.399 35.0158L379.984 33.6016ZM379.867 50.5156L378.435 51.9114L378.444 51.9206L379.867 50.5156ZM397.055 50.6328H399.055V46.9324L395.959 48.9597L397.055 50.6328ZM397.055 60.5547L396.052 58.8242C393.706 60.1837 390.092 60.9766 384.984 60.9766V62.9766V64.9766C390.397 64.9766 394.831 64.1549 398.057 62.2852L397.055 60.5547ZM384.984 62.9766V60.9766C379.274 60.9766 374.832 59.2627 371.462 55.9618L370.062 57.3906L368.663 58.8194C372.897 62.9665 378.403 64.9766 384.984 64.9766V62.9766ZM370.062 57.3906L371.462 55.9618C368.087 52.6557 366.359 48.387 366.359 42.9766H364.359H362.359C362.359 49.337 364.434 54.6776 368.663 58.8194L370.062 57.3906ZM364.359 42.9766H366.359C366.359 36.6032 368.248 31.8166 371.839 28.3635L370.453 26.9219L369.067 25.4802C364.533 29.8396 362.359 35.7562 362.359 42.9766H364.359ZM370.453 26.9219L371.84 28.3634C375.482 24.8599 380.403 23.0234 386.82 23.0234V21.0234V19.0234C379.592 19.0234 373.601 21.1193 369.067 25.4804L370.453 26.9219ZM386.82 21.0234V23.0234C391.451 23.0234 394.407 23.6543 396.035 24.619L397.055 22.8984L398.074 21.1779C395.484 19.6426 391.617 19.0234 386.82 19.0234V21.0234ZM397.055 22.8984H395.055V33.3672H397.055H399.055V22.8984H397.055ZM397.055 33.3672L398.252 31.7653C395.333 29.5834 392.037 28.4766 388.422 28.4766V30.4766V32.4766C391.161 32.4766 393.62 33.2968 395.857 34.9691L397.055 33.3672ZM388.422 30.4766V28.4766C384.464 28.4766 381.103 29.655 378.57 32.1873L379.984 33.6016L381.399 35.0158C383.033 33.3815 385.296 32.4766 388.422 32.4766V30.4766ZM379.984 33.6016L378.57 32.1873C376.048 34.7093 374.898 38.1217 374.898 42.1562H376.898H378.898C378.898 38.8992 379.806 36.6085 381.399 35.0158L379.984 33.6016ZM376.898 42.1562H374.898C374.898 46.0828 376.006 49.4191 378.435 51.9114L379.867 50.5156L381.3 49.1199C379.77 47.5497 378.898 45.313 378.898 42.1562H376.898ZM379.867 50.5156L378.444 51.9206C380.881 54.3904 384.163 55.5234 388.031 55.5234V53.5234V51.5234C384.972 51.5234 382.811 50.6513 381.291 49.1107L379.867 50.5156ZM388.031 53.5234V55.5234C391.548 55.5234 394.93 54.4146 398.15 52.306L397.055 50.6328L395.959 48.9597C393.294 50.7052 390.661 51.5234 388.031 51.5234V53.5234ZM397.055 50.6328H395.055V60.5547H397.055H399.055V50.6328H397.055ZM402.562 60.9453H400.562V62.3495L401.883 62.8264L402.562 60.9453ZM402.562 50.9453L403.595 49.2323L400.562 47.4052V50.9453H402.562ZM408.617 53.6797L408.045 55.596L408.052 55.598L408.617 53.6797ZM419.516 53.6797L418.666 51.8692L418.659 51.8726L418.651 51.8761L419.516 53.6797ZM418.344 47.625L417.536 49.4548L417.546 49.4591L417.556 49.4633L418.344 47.625ZM412.328 45.5156L413.062 43.6553L413.048 43.6497L413.034 43.6442L412.328 45.5156ZM408.109 43.6016L407.097 45.3264L407.119 45.3393L407.141 45.3516L408.109 43.6016ZM405.062 41.1797L403.565 42.5058L403.576 42.5176L403.586 42.5292L405.062 41.1797ZM403.188 38.0156L401.298 38.6727L401.305 38.6909L401.312 38.7089L403.188 38.0156ZM404.008 27.9766L402.303 26.9314L402.296 26.9415L402.29 26.9516L404.008 27.9766ZM407.914 24.0312L408.979 25.7242L408.986 25.7197L407.914 24.0312ZM413.5 21.7656L413.939 23.7168L413.948 23.7149L413.957 23.7128L413.5 21.7656ZM425.453 21.4531L425.143 23.4289L425.156 23.431L425.17 23.433L425.453 21.4531ZM430.844 22.625H432.844V21.1285L431.408 20.7063L430.844 22.625ZM430.844 32.1562L429.836 33.8838L432.844 35.6383V32.1562H430.844ZM425.805 30.125L425.293 32.0584L425.31 32.0628L425.326 32.0669L425.805 30.125ZM418.266 29.6562L418.63 31.6228L418.657 31.6177L418.685 31.6119L418.266 29.6562ZM416.391 30.2812L417.25 32.087L417.285 32.0706L417.319 32.0529L416.391 30.2812ZM415.102 31.3359L416.702 32.5359L416.719 32.5129L416.736 32.4893L415.102 31.3359ZM417.172 36.0234L416.253 37.7999L416.278 37.8125L416.302 37.8245L417.172 36.0234ZM419.672 37.0391L419.023 38.931L419.055 38.9419L419.087 38.9518L419.672 37.0391ZM422.445 37.9375L423.105 36.0493L423.094 36.0456L422.445 37.9375ZM430.297 42.1953L428.903 43.6293L428.913 43.6388L428.922 43.6482L430.297 42.1953ZM432.484 45.3984L430.63 46.148L430.637 46.1648L430.644 46.1815L432.484 45.3984ZM431.703 55.8672L430 54.819L429.995 54.8264L431.703 55.8672ZM427.602 59.9688L428.65 61.6721L428.657 61.6676L427.602 59.9688ZM421.703 62.2344L421.293 60.2768L421.28 60.2796L421.267 60.2825L421.703 62.2344ZM402.562 60.9453H404.562V50.9453H402.562H400.562V60.9453H402.562ZM402.562 50.9453L401.53 52.6584C403.687 53.9578 405.859 54.943 408.045 55.596L408.617 53.6797L409.19 51.7634C407.365 51.2184 405.501 50.3807 403.595 49.2323L402.562 50.9453ZM408.617 53.6797L408.052 55.598C410.235 56.2418 412.34 56.5781 414.359 56.5781V54.5781V52.5781C412.785 52.5781 411.062 52.3155 409.183 51.7613L408.617 53.6797ZM414.359 54.5781V56.5781C416.691 56.5781 418.749 56.2649 420.38 55.4833L419.516 53.6797L418.651 51.8761C417.783 52.2924 416.402 52.5781 414.359 52.5781V54.5781ZM419.516 53.6797L420.365 55.4902C421.237 55.0812 422.023 54.5026 422.59 53.6938C423.167 52.8683 423.43 51.9246 423.43 50.9453H421.43H419.43C419.43 51.19 419.373 51.314 419.313 51.3999C419.241 51.5026 419.071 51.6792 418.666 51.8692L419.516 53.6797ZM421.43 50.9453H423.43C423.43 49.6064 422.91 48.4161 421.916 47.5123L420.57 48.9922L419.225 50.4721C419.377 50.61 419.43 50.7218 419.43 50.9453H421.43ZM420.57 48.9922L421.916 47.5123C421.139 46.8065 420.193 46.2416 419.132 45.7867L418.344 47.625L417.556 49.4633C418.317 49.7897 418.855 50.1362 419.225 50.4721L420.57 48.9922ZM418.344 47.625L419.151 45.7952C418.175 45.3646 417.115 44.9843 415.976 44.6508L415.414 46.5703L414.852 48.4898C415.848 48.7813 416.742 49.1042 417.536 49.4548L418.344 47.625ZM415.414 46.5703L415.976 44.6508C414.964 44.3547 413.993 44.0226 413.062 43.6553L412.328 45.5156L411.594 47.3759C412.642 47.7899 413.729 48.161 414.852 48.4898L415.414 46.5703ZM412.328 45.5156L413.034 43.6442C411.517 43.0724 410.201 42.4732 409.077 41.8515L408.109 43.6016L407.141 45.3516C408.465 46.0841 409.962 46.7609 411.623 47.387L412.328 45.5156ZM408.109 43.6016L409.122 41.8767C408.075 41.2624 407.221 40.5769 406.539 39.8301L405.062 41.1797L403.586 42.5292C404.57 43.6054 405.748 44.5345 407.097 45.3264L408.109 43.6016ZM405.062 41.1797L406.56 39.8536C405.925 39.1368 405.424 38.2992 405.063 37.3223L403.188 38.0156L401.312 38.7089C401.836 40.1279 402.586 41.3997 403.565 42.5058L405.062 41.1797ZM403.188 38.0156L405.077 37.3586C404.751 36.4236 404.562 35.237 404.562 33.7578H402.562H400.562C400.562 35.5599 400.79 37.2118 401.298 38.6727L403.188 38.0156ZM402.562 33.7578H404.562C404.562 31.8097 404.979 30.2516 405.725 29.0015L404.008 27.9766L402.29 26.9516C401.109 28.9307 400.562 31.2268 400.562 33.7578H402.562ZM404.008 27.9766L405.713 29.0217C406.541 27.6714 407.623 26.5772 408.979 25.7242L407.914 24.0312L406.849 22.3383C404.976 23.5165 403.454 25.0526 402.303 26.9314L404.008 27.9766ZM407.914 24.0312L408.986 25.7197C410.414 24.813 412.058 24.1401 413.939 23.7168L413.5 21.7656L413.061 19.8144C410.775 20.3287 408.695 21.1662 406.842 22.3428L407.914 24.0312ZM413.5 21.7656L413.957 23.7128C415.91 23.2547 417.944 23.0234 420.062 23.0234V21.0234V19.0234C417.65 19.0234 415.309 19.287 413.043 19.8185L413.5 21.7656ZM420.062 21.0234V23.0234C421.725 23.0234 423.418 23.1579 425.143 23.4289L425.453 21.4531L425.764 19.4774C423.842 19.1754 421.942 19.0234 420.062 19.0234V21.0234ZM425.453 21.4531L425.17 23.433C426.898 23.6798 428.601 24.05 430.279 24.5437L430.844 22.625L431.408 20.7063C429.545 20.1584 427.654 19.7473 425.736 19.4732L425.453 21.4531ZM430.844 22.625H428.844V32.1562H430.844H432.844V22.625H430.844ZM430.844 32.1562L431.852 30.4287C430.12 29.4186 428.261 28.6705 426.283 28.1831L425.805 30.125L425.326 32.0669C426.942 32.4649 428.443 33.071 429.836 33.8838L430.844 32.1562ZM425.805 30.125L426.316 28.1916C424.39 27.6815 422.473 27.4219 420.57 27.4219V29.4219V31.4219C422.105 31.4219 423.678 31.631 425.293 32.0584L425.805 30.125ZM420.57 29.4219V27.4219C419.634 27.4219 418.724 27.5126 417.847 27.7006L418.266 29.6562L418.685 31.6119C419.265 31.4874 419.892 31.4219 420.57 31.4219V29.4219ZM418.266 29.6562L417.901 27.6897C417.032 27.8507 416.212 28.117 415.463 28.5096L416.391 30.2812L417.319 32.0529C417.663 31.8726 418.093 31.7222 418.63 31.6228L418.266 29.6562ZM416.391 30.2812L415.531 28.4755C414.711 28.8657 414 29.4278 413.468 30.1826L415.102 31.3359L416.736 32.4893C416.828 32.3587 416.976 32.2176 417.25 32.087L416.391 30.2812ZM415.102 31.3359L413.502 30.1359C412.916 30.9169 412.633 31.8248 412.633 32.7812H414.633H416.633C416.633 32.644 416.662 32.5884 416.702 32.5359L415.102 31.3359ZM414.633 32.7812H412.633C412.633 33.9825 413.036 35.09 413.849 35.9942L415.336 34.6562L416.823 33.3183C416.699 33.1808 416.633 33.0384 416.633 32.7812H414.633ZM415.336 34.6562L413.849 35.9942C414.51 36.7279 415.328 37.3214 416.253 37.7999L417.172 36.0234L418.091 34.247C417.505 33.9442 417.1 33.6263 416.823 33.3183L415.336 34.6562ZM417.172 36.0234L416.302 37.8245C417.139 38.2284 418.047 38.5963 419.023 38.931L419.672 37.0391L420.321 35.1472C419.474 34.8568 418.715 34.5476 418.041 34.2223L417.172 36.0234ZM419.672 37.0391L419.087 38.9518C420.004 39.2318 420.907 39.5243 421.797 39.8294L422.445 37.9375L423.094 36.0456C422.161 35.7257 421.215 35.4193 420.256 35.1264L419.672 37.0391ZM422.445 37.9375L421.786 39.8257C423.355 40.3736 424.754 40.9643 425.99 41.5943L426.898 39.8125L427.807 38.0307C426.386 37.3065 424.817 36.6473 423.105 36.0493L422.445 37.9375ZM426.898 39.8125L425.99 41.5943C427.164 42.1929 428.127 42.8754 428.903 43.6293L430.297 42.1953L431.691 40.7613C430.591 39.6923 429.289 38.7862 427.807 38.0307L426.898 39.8125ZM430.297 42.1953L428.922 43.6482C429.678 44.3634 430.243 45.1915 430.63 46.148L432.484 45.3984L434.339 44.6489C433.736 43.1574 432.842 41.8502 431.671 40.7424L430.297 42.1953ZM432.484 45.3984L430.644 46.1815C431.035 47.1003 431.266 48.2793 431.266 49.7734H433.266H435.266C435.266 47.8821 434.975 46.1445 434.325 44.6153L432.484 45.3984ZM433.266 49.7734H431.266C431.266 51.8449 430.813 53.4975 430 54.819L431.703 55.8672L433.406 56.9154C434.677 54.8514 435.266 52.4415 435.266 49.7734H433.266ZM431.703 55.8672L429.995 54.8264C429.149 56.2157 428.009 57.3612 426.546 58.2699L427.602 59.9688L428.657 61.6676C430.632 60.4409 432.226 58.852 433.411 56.9079L431.703 55.8672ZM427.602 59.9688L426.553 58.2654C425.084 59.1694 423.341 59.8483 421.293 60.2768L421.703 62.2344L422.113 64.192C424.545 63.683 426.733 62.8515 428.65 61.6721L427.602 59.9688ZM421.703 62.2344L421.267 60.2825C419.204 60.7436 417.046 60.9766 414.789 60.9766V62.9766V64.9766C417.323 64.9766 419.775 64.7148 422.139 64.1862L421.703 62.2344ZM414.789 62.9766V60.9766C410.596 60.9766 406.753 60.332 403.242 59.0642L402.562 60.9453L401.883 62.8264C405.872 64.267 410.18 64.9766 414.789 64.9766V62.9766Z" fill="url(#paint0_linear_3279_11202)" mask="url(#path-1-outside-1_3279_11202)"/>
<defs>
<linearGradient id="paint0_linear_3279_11202" x1="222.51" y1="-38" x2="222.361" y2="94.9999" gradientUnits="userSpaceOnUse">
<stop offset="0.427887" stop-color="#E1ECF3"/>
<stop offset="0.858273" stop-color="white"/>
</linearGradient>
</defs>
</svg>
