<svg width="192" height="192" viewBox="0 0 192 192" fill="none" xmlns="http://www.w3.org/2000/svg">
<path fill-rule="evenodd" clip-rule="evenodd" d="M140.981 137.068C142.388 137.943 142.819 139.799 141.944 141.202C141.069 142.619 139.212 143.049 137.805 142.174L35.7009 78.6913C34.8027 78.1357 34.2657 77.1542 34.2796 76.094C34.2981 75.0384 34.8675 74.0662 35.7842 73.5384L116.193 27.0837C117.629 26.2457 119.471 26.7457 120.3 28.181C121.129 29.6115 120.638 31.4495 119.203 32.2875L43.127 76.2375L140.981 137.068Z" fill="#93BCBA"/>
<mask id="mask0_3281_11894" style="mask-type:luminance" maskUnits="userSpaceOnUse" x="0" y="42" width="75" height="77">
<path d="M0 42.4355H74.7932V118.289H0V42.4355Z" fill="white"/>
</mask>
<g mask="url(#mask0_3281_11894)">
<path d="M74.5803 80.2146C74.5803 81.4368 74.5201 82.6544 74.3997 83.8721C74.2794 85.0851 74.0988 86.2934 73.8627 87.4925C73.6266 88.687 73.3256 89.8722 72.9738 91.0389C72.6173 92.2102 72.2099 93.3584 71.7423 94.4834C71.2747 95.6131 70.7515 96.7149 70.1774 97.7937C69.5987 98.8724 68.9737 99.9187 68.2931 100.933C67.6172 101.947 66.8903 102.928 66.1125 103.872C65.3393 104.817 64.5199 105.72 63.6588 106.581C62.793 107.447 61.8902 108.266 60.9457 109.039C60.0013 109.817 59.0244 110.544 58.0059 111.22C56.9919 111.9 55.9456 112.525 54.8669 113.1C53.7928 113.678 52.6863 114.197 51.5613 114.664C50.4316 115.132 49.2834 115.544 48.1121 115.901C46.9454 116.252 45.7602 116.549 44.5658 116.789C43.3667 117.026 42.1583 117.206 40.9453 117.326C39.7277 117.447 38.5101 117.502 37.2878 117.502C36.0702 117.502 34.8526 117.447 33.635 117.326C32.4174 117.206 31.2136 117.026 30.0145 116.789C28.8154 116.549 27.6348 116.252 26.4635 115.901C25.2968 115.544 24.1487 115.132 23.019 114.664C21.894 114.197 20.7875 113.678 19.7134 113.1C18.6347 112.525 17.5883 111.9 16.5744 111.22C15.5559 110.544 14.579 109.817 13.6345 109.039C12.6901 108.266 11.7873 107.447 10.9215 106.581C10.0604 105.72 9.24094 104.817 8.46314 103.872C7.68998 102.928 6.96311 101.947 6.28717 100.933C5.6066 99.9187 4.98159 98.8724 4.40287 97.7937C3.82878 96.7149 3.30563 95.6131 2.83802 94.4834C2.37042 93.3584 1.963 92.2102 1.60652 91.0389C1.25003 89.8722 0.953724 88.687 0.717608 87.4925C0.476862 86.2934 0.300933 85.0851 0.180559 83.8721C0.0601859 82.6544 0 81.4368 0 80.2146C0 78.9923 0.0601859 77.7747 0.180559 76.5617C0.300933 75.3441 0.476862 74.1404 0.717608 72.9413C0.953724 71.7422 1.25003 70.5616 1.60652 69.3903C1.963 68.2236 2.37042 67.0754 2.83802 65.9458C3.30563 64.8161 3.82878 63.7142 4.40287 62.6355C4.98159 61.5614 5.6066 60.5151 6.28717 59.4966C6.96311 58.4826 7.68998 57.5058 8.46314 56.5613C9.24094 55.6168 10.0604 54.7094 10.9215 53.8483C11.7873 52.9825 12.6901 52.1677 13.6345 51.3899C14.579 50.6167 15.5559 49.8899 16.5744 49.2093C17.5883 48.5334 18.6347 47.9037 19.7134 47.3296C20.7875 46.7555 21.894 46.2324 23.019 45.7648C24.1487 45.2972 25.2968 44.8851 26.4635 44.5333C27.6348 44.1768 28.8154 43.8805 30.0145 43.6444C31.2136 43.4036 32.4174 43.2277 33.635 43.1073C34.8526 42.9869 36.0702 42.9268 37.2878 42.9268C38.5101 42.9268 39.7277 42.9869 40.9453 43.1073C42.1583 43.2277 43.3667 43.4036 44.5658 43.6444C45.7602 43.8805 46.9454 44.1768 48.1121 44.5333C49.2834 44.8851 50.4316 45.2972 51.5613 45.7648C52.6863 46.2324 53.7928 46.7555 54.8669 47.3296C55.9456 47.9037 56.9919 48.5334 58.0059 49.2093C59.0244 49.8899 60.0013 50.6167 60.9457 51.3899C61.8902 52.1677 62.793 52.9825 63.6588 53.8483C64.5199 54.7094 65.3393 55.6168 66.1171 56.5613C66.8903 57.5058 67.6172 58.4826 68.2931 59.4966C68.9737 60.5151 69.5987 61.5614 70.1774 62.6355C70.7515 63.7142 71.2747 64.8161 71.7423 65.9458C72.2099 67.0754 72.6173 68.2236 72.9738 69.3903C73.3256 70.5616 73.6266 71.7422 73.8627 72.9413C74.0988 74.1404 74.2794 75.3441 74.3997 76.5617C74.5201 77.7747 74.5803 78.9923 74.5803 80.2146Z" fill="#C4FFE1"/>
</g>
<path fill-rule="evenodd" clip-rule="evenodd" d="M18.6487 47.9175C18.6672 47.5193 18.7227 47.135 18.8246 46.7739C19.5653 44.1489 21.0191 43.5887 22.1811 42.8201C22.0932 42.5007 21.3432 39.7229 24.0006 37.7969C28.1257 34.82 34.1258 34.6811 37.2879 34.8292C42.3899 35.0607 52.154 36.1487 55.0429 46.76C55.1078 47.0008 55.1587 47.2462 55.1957 47.5054C55.617 50.4638 54.3253 54.6445 54.1911 55.2787C60.7236 53.8482 57.7837 64.9271 51.6771 65.4502C51.0892 72.2189 46.8807 75.3764 43.4871 77.3116C43.3344 78.2237 43.3251 79.2052 43.427 80.2793C51.5197 83.5941 61.0384 88.0341 63.4829 91.9601C65.4135 95.062 65.3024 100.891 64.8394 105.331C58.1587 112.655 48.5984 117.312 37.9592 117.498C37.737 117.498 37.5148 117.493 37.2879 117.484C37.0657 117.493 36.8389 117.498 36.6166 117.498C25.9775 117.312 16.4218 112.655 9.73643 105.331C9.27346 100.891 9.16698 95.062 11.0929 91.9601C13.5421 88.0341 23.0608 83.5941 31.1489 80.2793C31.2508 79.2052 31.2461 78.2237 31.0934 77.3116C27.6998 75.3764 23.4914 72.2189 22.8987 65.4502C16.7968 64.9271 13.8569 53.8482 20.3894 55.2787C20.2552 54.6722 18.5051 50.8342 18.6487 47.9175Z" fill="#28C878"/>
<path fill-rule="evenodd" clip-rule="evenodd" d="M10.1905 104.84C10.2183 105.113 10.0146 105.358 9.74141 105.381C9.46825 105.409 9.22288 105.205 9.1951 104.932C9.18584 104.858 9.17195 104.692 9.16732 104.622C8.7599 100.182 8.80157 94.6959 10.672 91.6959C11.6766 90.0755 13.8433 88.3579 16.6212 86.6819C20.612 84.2744 25.876 81.9086 30.677 79.9317C30.7465 79.0197 30.728 78.1817 30.5983 77.3947C30.552 77.1215 30.7372 76.8622 31.0104 76.8206C31.2835 76.7743 31.5428 76.9595 31.5891 77.2326C31.7465 78.1817 31.7558 79.2049 31.6493 80.3253C31.6308 80.5105 31.5104 80.6679 31.3391 80.742C26.5103 82.7281 21.1676 85.1078 17.1397 87.5384C14.5239 89.1171 12.4683 90.7005 11.5192 92.2283C9.74604 95.0802 9.77844 100.307 10.1627 104.525C10.172 104.599 10.1859 104.766 10.1905 104.84Z" fill="#191928" fill-opacity="0.99"/>
<path fill-rule="evenodd" clip-rule="evenodd" d="M22.9444 64.955C23.2176 64.9735 23.4213 65.2189 23.3981 65.492C23.375 65.7698 23.1342 65.9735 22.8564 65.9504C20.8842 65.7837 19.2082 64.6031 18.0323 63.0568C16.8702 61.529 16.2035 59.6539 16.1896 58.0937C16.1804 56.9594 16.523 55.9826 17.2221 55.3622C17.7776 54.8714 18.5786 54.5844 19.6527 54.6631C19.1434 53.2557 18.0276 50.2787 18.148 47.8944C18.1665 47.45 18.2313 47.0333 18.3425 46.6444C19.1341 43.8388 20.6666 43.2277 21.9027 42.4036C22.1342 42.2508 22.4444 42.311 22.5972 42.5425C22.75 42.7693 22.6898 43.0795 22.4583 43.2323C21.3749 43.9545 19.9999 44.4592 19.3054 46.9129C19.2128 47.2324 19.1666 47.5842 19.148 47.9454C19.0045 50.8158 20.7499 54.5798 20.8749 55.1724C20.912 55.339 20.861 55.515 20.7407 55.64C20.6203 55.7603 20.449 55.8066 20.2823 55.7696C19.1804 55.5242 18.3888 55.6677 17.8841 56.1168C17.3841 56.5566 17.185 57.2696 17.1943 58.0891C17.2035 59.4595 17.8054 61.1077 18.8286 62.4503C19.8332 63.7744 21.2546 64.8068 22.9444 64.955Z" fill="#191928" fill-opacity="0.99"/>
<path fill-rule="evenodd" clip-rule="evenodd" d="M44.8475 116.225C45.1206 116.169 45.3845 116.341 45.4401 116.614C45.4956 116.882 45.3243 117.151 45.0512 117.206C42.5465 117.729 39.9492 118.007 37.2871 118.007C37.014 118.007 36.7871 117.78 36.7871 117.503C36.7871 117.229 37.014 117.003 37.2871 117.003C39.8798 117.003 42.4076 116.734 44.8475 116.225Z" fill="#191928" fill-opacity="0.99"/>
<path fill-rule="evenodd" clip-rule="evenodd" d="M66.8952 58.3806C66.7286 58.1584 66.7749 57.8436 66.9971 57.6815C67.2193 57.5149 67.5341 57.5658 67.7008 57.788C72.3352 64.0613 75.0806 71.8207 75.0806 80.2144C75.0806 95.0018 66.5712 107.817 54.1866 114.021C53.9366 114.146 53.6357 114.044 53.5153 113.798C53.3903 113.553 53.4876 113.252 53.7376 113.127C65.7934 107.085 74.0806 94.6082 74.0806 80.2144C74.0806 72.0429 71.4092 64.4919 66.8952 58.3806Z" fill="#191928" fill-opacity="0.99"/>
<path d="M144.471 32.607C144.471 33.482 144.429 34.357 144.346 35.2274C144.258 36.1024 144.128 36.9682 143.957 37.8293C143.786 38.6858 143.573 39.5377 143.318 40.3757C143.068 41.2136 142.772 42.0377 142.434 42.8479C142.101 43.6581 141.726 44.4498 141.314 45.223C140.897 45.9961 140.448 46.7462 139.962 47.4777C139.476 48.2045 138.952 48.9082 138.397 49.5842C137.841 50.2648 137.253 50.9129 136.633 51.5333C136.013 52.1537 135.364 52.7417 134.688 53.2972C134.008 53.8528 133.304 54.3759 132.577 54.8621C131.85 55.3482 131.096 55.7973 130.323 56.214C129.549 56.626 128.758 57.001 127.948 57.3343C127.137 57.6723 126.313 57.964 125.475 58.2186C124.637 58.4733 123.79 58.6862 122.929 58.8575C122.068 59.0288 121.202 59.1585 120.332 59.2418C119.457 59.3298 118.582 59.3714 117.707 59.3714C116.832 59.3714 115.957 59.3298 115.082 59.2418C114.211 59.1585 113.345 59.0288 112.484 58.8575C111.623 58.6862 110.776 58.4733 109.938 58.2186C109.095 57.964 108.271 57.6723 107.461 57.3343C106.655 57.001 105.864 56.626 105.091 56.214C104.317 55.7973 103.563 55.3482 102.836 54.8621C102.104 54.3759 101.405 53.8528 100.725 53.2972C100.049 52.7417 99.4006 52.1537 98.7803 51.5333C98.1599 50.9129 97.5719 50.2648 97.0163 49.5842C96.4608 48.9082 95.9376 48.2045 95.4515 47.4777C94.9654 46.7462 94.5117 45.9961 94.0996 45.223C93.6876 44.4498 93.3125 43.6581 92.9792 42.8479C92.6412 42.0377 92.3449 41.2136 92.0903 40.3757C91.8357 39.5377 91.6273 38.6858 91.456 37.8293C91.2847 36.9682 91.1551 36.1024 91.0671 35.2274C90.9838 34.357 90.9375 33.482 90.9375 32.607C90.9375 31.7273 90.9838 30.8523 91.0671 29.9819C91.1551 29.1115 91.2847 28.2411 91.456 27.3846C91.6227 26.5235 91.8357 25.6763 92.0903 24.8337C92.3449 23.9957 92.6412 23.1716 92.9792 22.3614C93.3125 21.5512 93.6876 20.7595 94.0996 19.9863C94.5117 19.2132 94.9654 18.4632 95.4515 17.7363C95.9376 17.0048 96.4608 16.3011 97.0163 15.6251C97.5719 14.9492 98.1599 14.2964 98.7803 13.6806C99.4006 13.0603 100.049 12.4723 100.725 11.9167C101.405 11.3565 102.104 10.838 102.836 10.3519C103.563 9.86112 104.317 9.41204 105.091 8.99999C105.864 8.58795 106.655 8.21294 107.461 7.87497C108.271 7.54163 109.095 7.24533 109.938 6.99069C110.776 6.73606 111.623 6.52309 112.484 6.35179C113.345 6.18049 114.211 6.05549 115.082 5.96752C115.957 5.87956 116.832 5.83789 117.707 5.83789C118.582 5.83789 119.457 5.87956 120.332 5.96752C121.202 6.05549 122.068 6.18049 122.929 6.35179C123.79 6.52309 124.637 6.73606 125.475 6.99069C126.313 7.24533 127.137 7.54163 127.948 7.87497C128.758 8.21294 129.549 8.58795 130.323 8.99999C131.096 9.41204 131.85 9.86112 132.577 10.3519C133.304 10.838 134.008 11.3565 134.688 11.9167C135.364 12.4723 136.013 13.0603 136.633 13.6806C137.253 14.2964 137.841 14.9492 138.397 15.6251C138.952 16.3011 139.476 17.0048 139.962 17.7363C140.448 18.4632 140.897 19.2132 141.314 19.9863C141.726 20.7595 142.101 21.5512 142.434 22.3614C142.772 23.1716 143.068 23.9957 143.318 24.8337C143.573 25.6763 143.786 26.5235 143.957 27.3846C144.128 28.2411 144.258 29.1115 144.346 29.9819C144.429 30.8523 144.471 31.7273 144.471 32.607Z" fill="#C4FFE1"/>
<mask id="mask1_3281_11894" style="mask-type:luminance" maskUnits="userSpaceOnUse" x="97" y="0" width="42" height="61">
<path d="M97.3125 0H138.795V60.2142H97.3125V0Z" fill="white"/>
</mask>
<g mask="url(#mask1_3281_11894)">
<path fill-rule="evenodd" clip-rule="evenodd" d="M104.323 9.4216C104.341 9.13455 104.378 8.8614 104.452 8.60213C104.985 6.71783 106.026 6.31505 106.86 5.76411C106.8 5.53725 106.258 3.54184 108.165 2.15755C111.128 0.0186197 115.434 -0.0786058 117.707 0.0232488C121.369 0.189919 128.374 0.972343 130.453 8.59287C130.499 8.76418 130.532 8.9401 130.559 9.12529C130.86 11.2503 129.934 14.2504 129.837 14.7087C134.527 13.6809 132.416 21.6302 128.036 22.0098C127.61 26.8664 124.592 29.1303 122.156 30.5239C122.045 31.1767 122.041 31.8804 122.115 32.6536C127.92 35.0332 134.754 38.2185 136.509 41.038C137.893 43.2603 137.814 47.4455 137.481 50.6354C132.684 55.8902 125.828 59.2328 118.189 59.3671C118.027 59.3671 117.869 59.3625 117.707 59.3578C117.545 59.3625 117.383 59.3671 117.226 59.3671C109.587 59.2328 102.725 55.8902 97.9291 50.6354C97.5957 47.4455 97.517 43.2603 98.906 41.038C100.661 38.2185 107.494 35.0332 113.3 32.6536C113.374 31.8804 113.369 31.1767 113.258 30.5239C110.823 29.1303 107.8 26.8664 107.378 22.0098C102.994 21.6302 100.887 13.6809 105.573 14.7087C105.48 14.2689 104.221 11.5189 104.323 9.4216Z" fill="#28C878"/>
</g>
<path fill-rule="evenodd" clip-rule="evenodd" d="M98.3961 50.2649C98.4239 50.5426 98.2202 50.788 97.9424 50.8112C97.6693 50.8389 97.4239 50.6352 97.4007 50.3621C97.3915 50.3112 97.3822 50.1908 97.3776 50.1352C97.0813 46.9222 97.123 42.9406 98.4795 40.7693C99.211 39.5933 100.776 38.3479 102.799 37.1257C105.642 35.4081 109.392 33.7228 112.827 32.3015C112.869 31.695 112.85 31.1302 112.762 30.6024C112.721 30.3339 112.906 30.0746 113.174 30.0283C113.447 29.9866 113.707 30.1718 113.753 30.4404C113.869 31.1302 113.873 31.8802 113.799 32.6997C113.781 32.8849 113.66 33.0469 113.489 33.1117C110.026 34.5377 106.202 36.2414 103.318 37.9868C101.461 39.1026 100.003 40.223 99.3267 41.3017C98.0674 43.3295 98.0998 47.0472 98.373 50.0426C98.3776 50.0936 98.3915 50.2139 98.3961 50.2649Z" fill="#191928" fill-opacity="0.99"/>
<path fill-rule="evenodd" clip-rule="evenodd" d="M107.418 21.5092C107.696 21.5324 107.9 21.7731 107.876 22.0509C107.853 22.3287 107.608 22.5324 107.335 22.5093C105.876 22.3796 104.636 21.5139 103.77 20.3749C102.918 19.2546 102.427 17.8749 102.418 16.7267C102.413 15.8656 102.677 15.1295 103.205 14.6572C103.594 14.3193 104.131 14.1063 104.844 14.1156C104.455 13.0415 103.742 11.0275 103.821 9.39787C103.839 9.06915 103.886 8.75896 103.969 8.46729C104.552 6.40706 105.673 5.94872 106.58 5.34222C106.812 5.19407 107.122 5.25426 107.275 5.48112C107.427 5.7126 107.367 6.02742 107.136 6.17558C106.381 6.68022 105.413 7.02745 104.932 8.74044C104.867 8.95804 104.835 9.19879 104.821 9.44879C104.724 11.4905 105.969 14.1757 106.062 14.6017C106.099 14.7683 106.048 14.9396 105.927 15.0647C105.807 15.185 105.631 15.2313 105.464 15.1989C104.733 15.0369 104.205 15.1109 103.872 15.4119C103.538 15.7036 103.418 16.1804 103.423 16.7221C103.427 17.6804 103.853 18.8286 104.566 19.7685C105.265 20.6851 106.247 21.4074 107.418 21.5092Z" fill="#191928" fill-opacity="0.99"/>
<path fill-rule="evenodd" clip-rule="evenodd" d="M123.103 58.3161C123.372 58.2606 123.636 58.4319 123.696 58.705C123.752 58.9735 123.576 59.2374 123.307 59.2976C121.497 59.6726 119.626 59.8717 117.705 59.8717C117.427 59.8717 117.205 59.6495 117.205 59.3717C117.205 59.0939 117.427 58.8717 117.705 58.8717C119.552 58.8717 121.358 58.6819 123.103 58.3161Z" fill="#191928" fill-opacity="0.99"/>
<path fill-rule="evenodd" clip-rule="evenodd" d="M138.841 17.019C138.679 16.7968 138.726 16.4819 138.948 16.3153C139.17 16.1532 139.485 16.1995 139.647 16.4218C142.994 20.9496 144.976 26.547 144.976 32.6073C144.976 43.2742 138.832 52.5197 129.897 57.0013C129.651 57.1217 129.35 57.0245 129.225 56.7745C129.1 56.5291 129.202 56.2282 129.448 56.1031C138.059 51.7882 143.971 42.8853 143.971 32.6073C143.971 26.7692 142.068 21.3802 138.841 17.019Z" fill="#191928" fill-opacity="0.99"/>
<mask id="mask2_3281_11894" style="mask-type:luminance" maskUnits="userSpaceOnUse" x="86" y="86" width="106" height="106">
<path d="M86.6465 86.2886H192.001V191.772H86.6465V86.2886Z" fill="white"/>
</mask>
<g mask="url(#mask2_3281_11894)">
<path d="M191.508 139.396C191.508 141.1 191.425 142.804 191.258 144.503C191.091 146.202 190.841 147.887 190.508 149.558C190.175 151.234 189.758 152.887 189.263 154.521C188.767 156.156 188.193 157.758 187.54 159.336C186.888 160.91 186.161 162.452 185.355 163.957C184.55 165.462 183.675 166.925 182.726 168.346C181.776 169.763 180.763 171.133 179.679 172.452C178.596 173.772 177.452 175.031 176.244 176.24C175.04 177.448 173.776 178.591 172.457 179.675C171.137 180.758 169.767 181.772 168.35 182.721C166.929 183.67 165.471 184.545 163.966 185.351C162.457 186.152 160.92 186.883 159.341 187.536C157.767 188.189 156.16 188.763 154.526 189.258C152.892 189.754 151.239 190.166 149.567 190.499C147.891 190.832 146.206 191.082 144.507 191.249C142.808 191.42 141.109 191.504 139.401 191.504C137.692 191.504 135.993 191.42 134.294 191.249C132.595 191.082 130.91 190.832 129.234 190.499C127.562 190.166 125.91 189.754 124.275 189.258C122.641 188.763 121.039 188.189 119.46 187.536C117.882 186.883 116.345 186.152 114.84 185.351C113.331 184.545 111.872 183.67 110.451 182.721C109.034 181.772 107.664 180.758 106.344 179.675C105.025 178.591 103.761 177.448 102.557 176.24C101.349 175.031 100.205 173.772 99.1219 172.452C98.0386 171.133 97.0247 169.763 96.0756 168.346C95.1265 166.925 94.2514 165.462 93.4459 163.957C92.6403 162.452 91.9134 160.91 91.2606 159.336C90.6079 157.758 90.0338 156.156 89.5384 154.521C89.043 152.887 88.6263 151.234 88.293 149.558C87.9643 147.887 87.7096 146.202 87.543 144.503C87.3763 142.804 87.293 141.1 87.293 139.396C87.293 137.688 87.3763 135.984 87.543 134.29C87.7096 132.59 87.9643 130.905 88.293 129.229C88.6263 127.553 89.043 125.9 89.5384 124.271C90.0338 122.637 90.6079 121.03 91.2606 119.456C91.9134 117.877 92.6403 116.335 93.4459 114.831C94.2514 113.326 95.1265 111.863 96.0756 110.446C97.0247 109.025 98.0386 107.659 99.1219 106.34C100.205 105.02 101.349 103.757 102.557 102.548C103.761 101.344 105.025 100.196 106.344 99.1175C107.664 98.0342 109.034 97.0156 110.451 96.0712C111.872 95.1221 113.331 94.2471 114.84 93.4415C116.345 92.6359 117.882 91.909 119.46 91.2563C121.039 90.5988 122.641 90.0247 124.275 89.5294C125.91 89.034 127.562 88.6219 129.234 88.2886C130.91 87.9553 132.595 87.7052 134.294 87.5386C135.993 87.3719 137.692 87.2886 139.401 87.2886C141.109 87.2886 142.808 87.3719 144.507 87.5386C146.206 87.7052 147.891 87.9553 149.567 88.2886C151.239 88.6219 152.892 89.034 154.526 89.5294C156.16 90.0247 157.767 90.5988 159.341 91.2563C160.92 91.909 162.457 92.6359 163.966 93.4415C165.471 94.2471 166.929 95.1221 168.35 96.0712C169.767 97.0156 171.137 98.0342 172.457 99.1175C173.776 100.196 175.04 101.344 176.244 102.548C177.452 103.757 178.596 105.02 179.679 106.34C180.763 107.659 181.776 109.025 182.726 110.446C183.675 111.863 184.55 113.326 185.355 114.831C186.161 116.335 186.888 117.877 187.54 119.456C188.193 121.03 188.767 122.637 189.263 124.271C189.758 125.9 190.175 127.553 190.508 129.229C190.841 130.905 191.091 132.59 191.258 134.29C191.425 135.984 191.508 137.688 191.508 139.396Z" fill="#C4FFE1"/>
</g>
<path fill-rule="evenodd" clip-rule="evenodd" d="M113.349 94.2608C113.377 93.7053 113.455 93.1682 113.594 92.6682C114.636 88.9968 116.664 88.2144 118.289 87.1403C118.164 86.6959 117.117 82.8115 120.831 80.1216C126.595 75.9595 134.979 75.7651 139.4 75.9688C146.53 76.2929 160.169 77.816 164.211 92.6497C164.299 92.983 164.368 93.3256 164.419 93.6867C165.012 97.8211 163.206 103.659 163.017 104.553C172.146 102.548 168.04 118.03 159.507 118.761C158.683 128.22 152.799 132.632 148.058 135.34C147.845 136.609 147.836 137.979 147.979 139.484C159.285 144.118 172.586 150.322 176.003 155.808C178.697 160.137 178.549 168.286 177.897 174.489C168.563 184.726 155.206 191.23 140.34 191.49C140.025 191.49 139.715 191.48 139.4 191.471C139.086 191.48 138.771 191.49 138.461 191.49C123.594 191.23 110.238 184.726 100.9 174.489C100.251 168.286 100.099 160.137 102.798 155.808C106.214 150.322 119.516 144.118 130.821 139.484C130.965 137.979 130.951 136.609 130.743 135.34C125.997 132.632 120.118 128.22 119.293 118.761C110.761 118.03 106.654 102.548 115.784 104.553C115.599 103.696 113.15 98.3396 113.349 94.2608Z" fill="#28C878"/>
<path fill-rule="evenodd" clip-rule="evenodd" d="M101.336 173.823C101.364 174.091 101.16 174.341 100.887 174.369C100.609 174.388 100.369 174.193 100.341 173.916C100.332 173.814 100.309 173.582 100.299 173.48C99.7344 167.323 99.7807 159.702 102.373 155.54C103.772 153.295 106.772 150.924 110.624 148.596C116.221 145.22 123.619 141.901 130.351 139.142C130.462 137.794 130.439 136.572 130.249 135.424C130.203 135.146 130.388 134.896 130.661 134.85C130.934 134.804 131.193 134.989 131.235 135.257C131.453 136.572 131.467 137.98 131.323 139.531C131.305 139.716 131.184 139.882 131.013 139.947C124.253 142.72 116.776 146.058 111.142 149.457C107.457 151.684 104.559 153.929 103.221 156.068C100.721 160.082 100.753 167.443 101.299 173.388C101.309 173.49 101.327 173.721 101.336 173.823Z" fill="#191928" fill-opacity="0.99"/>
<path fill-rule="evenodd" clip-rule="evenodd" d="M119.335 118.262C119.608 118.289 119.817 118.53 119.794 118.808C119.766 119.081 119.525 119.285 119.252 119.266C116.548 119.035 114.256 117.41 112.65 115.299C111.053 113.201 110.131 110.623 110.117 108.484C110.104 106.951 110.557 105.646 111.493 104.822C112.289 104.109 113.456 103.734 115.048 103.923C114.391 102.095 112.678 97.7103 112.849 94.2426C112.877 93.6408 112.965 93.0667 113.113 92.5389C114.201 88.6823 116.312 87.8536 118.011 86.724C118.238 86.5666 118.553 86.6314 118.706 86.8629C118.858 87.0851 118.794 87.3999 118.567 87.5481C117.02 88.5897 115.067 89.312 114.076 92.8074C113.946 93.2704 113.877 93.7704 113.849 94.2889C113.65 98.3214 116.09 103.604 116.27 104.451C116.307 104.618 116.257 104.785 116.136 104.905C116.016 105.025 115.84 105.081 115.673 105.044C114.053 104.683 112.9 104.914 112.155 105.562C111.418 106.22 111.108 107.266 111.118 108.474C111.131 110.428 111.988 112.775 113.446 114.692C114.886 116.586 116.919 118.058 119.335 118.262Z" fill="#191928" fill-opacity="0.99"/>
<mask id="mask3_3281_11894" style="mask-type:luminance" maskUnits="userSpaceOnUse" x="138" y="189" width="13" height="4">
<path d="M138.795 189.402H150.647V192.004H138.795V189.402Z" fill="white"/>
</mask>
<g mask="url(#mask3_3281_11894)">
<path fill-rule="evenodd" clip-rule="evenodd" d="M150.002 189.907C150.276 189.851 150.54 190.027 150.595 190.296C150.655 190.569 150.479 190.833 150.211 190.888C146.72 191.62 143.104 192.004 139.4 192.004C139.123 192.004 138.9 191.777 138.9 191.499C138.9 191.226 139.123 190.999 139.4 190.999C143.035 190.999 146.581 190.624 150.002 189.907Z" fill="#191928" fill-opacity="0.99"/>
</g>
<mask id="mask4_3281_11894" style="mask-type:luminance" maskUnits="userSpaceOnUse" x="161" y="107" width="31" height="81">
<path d="M161.314 107.623H192V187.032H161.314V107.623Z" fill="white"/>
</mask>
<g mask="url(#mask4_3281_11894)">
<path fill-rule="evenodd" clip-rule="evenodd" d="M180.93 108.766C180.763 108.544 180.809 108.229 181.032 108.067C181.254 107.9 181.569 107.951 181.735 108.173C188.189 116.905 192.009 127.706 192.009 139.396C192.009 159.98 180.161 177.818 162.92 186.457C162.675 186.582 162.374 186.48 162.249 186.235C162.124 185.985 162.226 185.684 162.471 185.564C179.388 177.087 191.009 159.586 191.009 139.396C191.009 127.933 187.263 117.335 180.93 108.766Z" fill="#191928" fill-opacity="0.99"/>
</g>
</svg>
