<svg width="30" height="30" viewBox="0 0 30 30" fill="none" xmlns="http://www.w3.org/2000/svg">
<path d="M17.5312 29C17.1771 29 16.875 28.8804 16.625 28.6412C16.375 28.4021 16.25 28.105 16.25 27.75C16.25 27.395 16.37 27.0983 16.61 26.86C16.85 26.6217 17.1467 26.5017 17.5 26.5C19.9375 26.5 22.0054 25.6512 23.7037 23.9537C25.4021 22.2562 26.2508 20.1883 26.25 17.75C26.25 17.3958 26.37 17.0992 26.61 16.86C26.85 16.6208 27.1467 16.5008 27.5 16.5C27.8533 16.4992 28.1504 16.6192 28.3912 16.86C28.6321 17.1008 28.7517 17.3975 28.75 17.75C28.75 19.2917 28.4533 20.745 27.86 22.11C27.2667 23.475 26.4646 24.6675 25.4538 25.6875C24.4429 26.7075 23.2554 27.515 21.8913 28.11C20.5271 28.705 19.0737 29.0017 17.5312 29ZM17.5312 24C17.1771 24 16.875 23.8804 16.625 23.6412C16.375 23.4021 16.25 23.105 16.25 22.75C16.25 22.395 16.37 22.0983 16.61 21.86C16.85 21.6217 17.1467 21.5017 17.5 21.5C18.5417 21.5 19.4271 21.1354 20.1562 20.4062C20.8854 19.6771 21.25 18.7917 21.25 17.75C21.25 17.3958 21.37 17.0992 21.61 16.86C21.85 16.6208 22.1467 16.5008 22.5 16.5C22.8533 16.4992 23.1504 16.6192 23.3912 16.86C23.6321 17.1008 23.7517 17.3975 23.75 17.75C23.7292 19.4792 23.1196 20.9479 21.9213 22.1562C20.7229 23.3646 19.26 23.9792 17.5325 24M6.9375 28.2188C6.625 28.2188 6.3125 28.1562 6 28.0312C5.6875 27.9062 5.40625 27.7292 5.15625 27.5L0.71875 23.0625C0.489583 22.8125 0.3125 22.5312 0.1875 22.2187C0.0625 21.9062 0 21.5937 0 21.2812C0 20.9479 0.0625 20.63 0.1875 20.3275C0.3125 20.025 0.489583 19.7596 0.71875 19.5312L4.6875 15.5625C5.16667 15.0833 5.76042 14.8387 6.46875 14.8288C7.17708 14.8188 7.77083 15.0529 8.25 15.5312L9.8125 17.0938L10.6875 16.2188L9.125 14.6563C8.64583 14.1771 8.40625 13.5938 8.40625 12.9062C8.40625 12.2188 8.64583 11.6354 9.125 11.1562L10.9062 9.375C11.3854 8.89583 11.9742 8.65625 12.6725 8.65625C13.3708 8.65625 13.9592 8.89583 14.4375 9.375L16 10.9375L16.875 10.0625L15.3125 8.5C14.8333 8.02083 14.5938 7.4325 14.5938 6.735C14.5938 6.0375 14.8333 5.44875 15.3125 4.96875L19.2812 1C19.5312 0.75 19.8125 0.5625 20.125 0.4375C20.4375 0.3125 20.75 0.25 21.0625 0.25C21.375 0.25 21.6825 0.3125 21.985 0.4375C22.2875 0.5625 22.5633 0.75 22.8125 1L27.25 5.4375C27.5 5.66667 27.6825 5.9325 27.7975 6.235C27.9125 6.5375 27.9696 6.855 27.9688 7.1875C27.9688 7.5 27.9117 7.8125 27.7975 8.125C27.6833 8.4375 27.5008 8.71875 27.25 8.96875L23.2812 12.9375C22.8021 13.4167 22.2137 13.6562 21.5162 13.6562C20.8187 13.6562 20.23 13.4167 19.75 12.9375L18.1875 11.375L17.3125 12.25L18.875 13.8125C19.3542 14.2917 19.5888 14.8804 19.5788 15.5788C19.5688 16.2771 19.3237 16.8654 18.8438 17.3438L17.0938 19.0938C16.6146 19.5729 16.0262 19.8125 15.3287 19.8125C14.6312 19.8125 14.0425 19.5729 13.5625 19.0938L12 17.5312L11.125 18.4062L12.6875 19.9688C13.1667 20.4479 13.4013 21.0417 13.3913 21.75C13.3813 22.4583 13.1362 23.0521 12.6562 23.5312L8.6875 27.5C8.45833 27.7292 8.1925 27.9062 7.89 28.0312C7.5875 28.1562 7.27 28.2188 6.9375 28.2188ZM6.9375 25.75L8.25 24.4375L3.8125 20L2.5 21.3125L6.9375 25.75ZM9.59375 23.0938L10.9062 21.7812L6.46875 17.3438L5.15625 18.6562L9.59375 23.0938ZM21.5312 11.1562L22.8438 9.84375L18.4062 5.40625L17.0938 6.71875L21.5312 11.1562ZM24.1875 8.5L25.5 7.1875L21.0625 2.75L19.75 4.0625L24.1875 8.5Z" fill="#2AB673"/>
</svg>
