<svg width="554" height="65" viewBox="0 0 554 65" fill="none" xmlns="http://www.w3.org/2000/svg">
<mask id="path-1-outside-1_3102_13893" maskUnits="userSpaceOnUse" x="0" y="0" width="554" height="65" fill="black">
<rect fill="white" width="554" height="65"/>
<path d="M66.2344 62H53.7734V28.4844C53.7734 24.8646 53.9297 20.8672 54.2422 16.4922H53.9297C53.2786 19.9297 52.6927 22.4036 52.1719 23.9141L39.0469 62H28.7344L15.375 24.3047C15.0104 23.2891 14.4245 20.6849 13.6172 16.4922H13.2656C13.6042 22.013 13.7734 26.8568 13.7734 31.0234V62H2.40625V5.98438H20.8828L32.3281 39.1875C33.2396 41.8438 33.9036 44.513 34.3203 47.1953H34.5547C35.2578 44.0964 36 41.401 36.7812 39.1094L48.2266 5.98438H66.2344V62ZM113.695 45.5156H87.6016C88.0182 51.3229 91.6771 54.2266 98.5781 54.2266C102.979 54.2266 106.846 53.1849 110.18 51.1016V60.0078C106.482 61.987 101.677 62.9766 95.7656 62.9766C89.3073 62.9766 84.2943 61.1927 80.7266 57.625C77.1589 54.0312 75.375 49.0312 75.375 42.625C75.375 35.9844 77.3021 30.724 81.1562 26.8438C85.0104 22.9635 89.75 21.0234 95.375 21.0234C101.208 21.0234 105.714 22.7552 108.891 26.2188C112.094 29.6823 113.695 34.3828 113.695 40.3203V45.5156ZM102.25 37.9375C102.25 32.2083 99.9323 29.3438 95.2969 29.3438C93.3177 29.3438 91.599 30.1641 90.1406 31.8047C88.7083 33.4453 87.8359 35.4896 87.5234 37.9375H102.25ZM156.977 45.5156H130.883C131.299 51.3229 134.958 54.2266 141.859 54.2266C146.26 54.2266 150.128 53.1849 153.461 51.1016V60.0078C149.763 61.987 144.958 62.9766 139.047 62.9766C132.589 62.9766 127.576 61.1927 124.008 57.625C120.44 54.0312 118.656 49.0312 118.656 42.625C118.656 35.9844 120.583 30.724 124.438 26.8438C128.292 22.9635 133.031 21.0234 138.656 21.0234C144.49 21.0234 148.995 22.7552 152.172 26.2188C155.375 29.6823 156.977 34.3828 156.977 40.3203V45.5156ZM145.531 37.9375C145.531 32.2083 143.214 29.3438 138.578 29.3438C136.599 29.3438 134.88 30.1641 133.422 31.8047C131.99 33.4453 131.117 35.4896 130.805 37.9375H145.531ZM188.5 61.5312C186.677 62.4948 183.93 62.9766 180.258 62.9766C171.56 62.9766 167.211 58.4583 167.211 49.4219V31.1016H160.727V22H167.211V13.3672L179.516 9.85156V22H188.5V31.1016H179.516V47.2734C179.516 51.4401 181.169 53.5234 184.477 53.5234C185.779 53.5234 187.12 53.1458 188.5 52.3906V61.5312ZM241.781 61.5312C239.958 62.4948 237.211 62.9766 233.539 62.9766C224.841 62.9766 220.492 58.4583 220.492 49.4219V31.1016H214.008V22H220.492V13.3672L232.797 9.85156V22H241.781V31.1016H232.797V47.2734C232.797 51.4401 234.451 53.5234 237.758 53.5234C239.06 53.5234 240.401 53.1458 241.781 52.3906V61.5312ZM287.172 62H274.867V39.2656C274.867 33.4062 272.732 30.4766 268.461 30.4766C266.273 30.4766 264.503 31.2969 263.148 32.9375C261.794 34.5781 261.117 36.6615 261.117 39.1875V62H248.773V2.78125H261.117V27.9375H261.273C264.294 23.3281 268.396 21.0234 273.578 21.0234C282.641 21.0234 287.172 26.4922 287.172 37.4297V62ZM332.914 45.5156H306.82C307.237 51.3229 310.896 54.2266 317.797 54.2266C322.198 54.2266 326.065 53.1849 329.398 51.1016V60.0078C325.701 61.987 320.896 62.9766 314.984 62.9766C308.526 62.9766 303.513 61.1927 299.945 57.625C296.378 54.0312 294.594 49.0312 294.594 42.625C294.594 35.9844 296.521 30.724 300.375 26.8438C304.229 22.9635 308.969 21.0234 314.594 21.0234C320.427 21.0234 324.932 22.7552 328.109 26.2188C331.312 29.6823 332.914 34.3828 332.914 40.3203V45.5156ZM321.469 37.9375C321.469 32.2083 319.151 29.3438 314.516 29.3438C312.536 29.3438 310.818 30.1641 309.359 31.8047C307.927 33.4453 307.055 35.4896 306.742 37.9375H321.469ZM402.914 16.2578H386.938V62H374.281V16.2578H358.383V5.98438H402.914V16.2578ZM437.992 45.5156H411.898C412.315 51.3229 415.974 54.2266 422.875 54.2266C427.276 54.2266 431.143 53.1849 434.477 51.1016V60.0078C430.779 61.987 425.974 62.9766 420.062 62.9766C413.604 62.9766 408.591 61.1927 405.023 57.625C401.456 54.0312 399.672 49.0312 399.672 42.625C399.672 35.9844 401.599 30.724 405.453 26.8438C409.307 22.9635 414.047 21.0234 419.672 21.0234C425.505 21.0234 430.01 22.7552 433.188 26.2188C436.391 29.6823 437.992 34.3828 437.992 40.3203V45.5156ZM426.547 37.9375C426.547 32.2083 424.229 29.3438 419.594 29.3438C417.615 29.3438 415.896 30.1641 414.438 31.8047C413.005 33.4453 412.133 35.4896 411.82 37.9375H426.547ZM478.617 62H466.938V56.2578H466.781C464.099 60.737 460.128 62.9766 454.867 62.9766C450.987 62.9766 447.927 61.8828 445.688 59.6953C443.474 57.4818 442.367 54.5391 442.367 50.8672C442.367 43.1068 446.964 38.6276 456.156 37.4297L467.016 35.9844C467.016 31.6094 464.646 29.4219 459.906 29.4219C455.141 29.4219 450.609 30.8411 446.312 33.6797V24.3828C448.031 23.4974 450.375 22.7161 453.344 22.0391C456.339 21.362 459.06 21.0234 461.508 21.0234C472.914 21.0234 478.617 26.7135 478.617 38.0938V62ZM467.016 45.75V43.0547L459.75 43.9922C455.74 44.513 453.734 46.3229 453.734 49.4219C453.734 50.8281 454.216 51.987 455.18 52.8984C456.169 53.7839 457.497 54.2266 459.164 54.2266C461.482 54.2266 463.37 53.4323 464.828 51.8438C466.286 50.2292 467.016 48.1979 467.016 45.75ZM551.898 62H539.594V39.1875C539.594 33.3802 537.458 30.4766 533.188 30.4766C531.156 30.4766 529.503 31.349 528.227 33.0938C526.951 34.8385 526.312 37.013 526.312 39.6172V62H513.969V38.9531C513.969 33.3021 511.872 30.4766 507.68 30.4766C505.57 30.4766 503.878 31.3099 502.602 32.9766C501.352 34.6432 500.727 36.9089 500.727 39.7734V62H488.383V22H500.727V28.25H500.883C502.159 26.1146 503.943 24.3828 506.234 23.0547C508.552 21.7005 511.078 21.0234 513.812 21.0234C519.464 21.0234 523.331 23.5104 525.414 28.4844C528.461 23.5104 532.94 21.0234 538.852 21.0234C547.549 21.0234 551.898 26.388 551.898 37.1172V62Z"/>
</mask>
<path d="M66.2344 62V64H68.2344V62H66.2344ZM53.7734 62H51.7734V64H53.7734V62ZM54.2422 16.4922L56.2371 16.6347L56.3901 14.4922H54.2422V16.4922ZM53.9297 16.4922V14.4922H52.2729L51.9646 16.12L53.9297 16.4922ZM52.1719 23.9141L50.2811 23.2621L50.281 23.2624L52.1719 23.9141ZM39.0469 62V64H40.4731L40.9377 62.6516L39.0469 62ZM28.7344 62L26.8493 62.6681L27.3213 64H28.7344V62ZM15.375 24.3047L17.2601 23.6366L17.2574 23.629L15.375 24.3047ZM13.6172 16.4922L15.5811 16.114L15.2688 14.4922H13.6172V16.4922ZM13.2656 16.4922V14.4922H11.1392L11.2694 16.6146L13.2656 16.4922ZM13.7734 62V64H15.7734V62H13.7734ZM2.40625 62H0.40625V64H2.40625V62ZM2.40625 5.98438V3.98438H0.40625V5.98438H2.40625ZM20.8828 5.98438L22.7736 5.3326L22.3089 3.98438H20.8828V5.98438ZM32.3281 39.1875L34.2199 38.5384L34.2189 38.5357L32.3281 39.1875ZM34.3203 47.1953L32.344 47.5023L32.607 49.1953H34.3203V47.1953ZM34.5547 47.1953V49.1953H36.1517L36.5051 47.6378L34.5547 47.1953ZM36.7812 39.1094L34.8909 38.4562L34.8882 38.464L36.7812 39.1094ZM48.2266 5.98438V3.98438H46.8016L46.3362 5.33123L48.2266 5.98438ZM66.2344 5.98438H68.2344V3.98438H66.2344V5.98438ZM66.2344 62V60H53.7734V62V64H66.2344V62ZM53.7734 62H55.7734V28.4844H53.7734H51.7734V62H53.7734ZM53.7734 28.4844H55.7734C55.7734 24.9208 55.9273 20.9718 56.2371 16.6347L54.2422 16.4922L52.2473 16.3497C51.9321 20.7626 51.7734 24.8084 51.7734 28.4844H53.7734ZM54.2422 16.4922V14.4922H53.9297V16.4922V18.4922H54.2422V16.4922ZM53.9297 16.4922L51.9646 16.12C51.3156 19.5469 50.7513 21.8987 50.2811 23.2621L52.1719 23.9141L54.0626 24.566C54.6341 22.9086 55.2417 20.3125 55.8948 16.8644L53.9297 16.4922ZM52.1719 23.9141L50.281 23.2624L37.156 61.3484L39.0469 62L40.9377 62.6516L54.0627 24.5657L52.1719 23.9141ZM39.0469 62V60H28.7344V62V64H39.0469V62ZM28.7344 62L30.6195 61.3319L17.2601 23.6366L15.375 24.3047L13.4899 24.9728L26.8493 62.6681L28.7344 62ZM15.375 24.3047L17.2574 23.629C16.9569 22.7917 16.3992 20.3628 15.5811 16.114L13.6172 16.4922L11.6533 16.8703C12.4498 21.007 13.064 23.7864 13.4926 24.9804L15.375 24.3047ZM13.6172 16.4922V14.4922H13.2656V16.4922V18.4922H13.6172V16.4922ZM13.2656 16.4922L11.2694 16.6146C11.6062 22.107 11.7734 26.9083 11.7734 31.0234H13.7734H15.7734C15.7734 26.8053 15.6022 21.9191 15.2619 16.3698L13.2656 16.4922ZM13.7734 31.0234H11.7734V62H13.7734H15.7734V31.0234H13.7734ZM13.7734 62V60H2.40625V62V64H13.7734V62ZM2.40625 62H4.40625V5.98438H2.40625H0.40625V62H2.40625ZM2.40625 5.98438V7.98438H20.8828V5.98438V3.98438H2.40625V5.98438ZM20.8828 5.98438L18.992 6.63615L30.4373 39.8393L32.3281 39.1875L34.2189 38.5357L22.7736 5.3326L20.8828 5.98438ZM32.3281 39.1875L30.4364 39.8366C31.311 42.3854 31.946 44.9403 32.344 47.5023L34.3203 47.1953L36.2966 46.8883C35.8613 44.0858 35.1682 41.3021 34.2199 38.5384L32.3281 39.1875ZM34.3203 47.1953V49.1953H34.5547V47.1953V45.1953H34.3203V47.1953ZM34.5547 47.1953L36.5051 47.6378C37.1972 44.5876 37.9214 41.963 38.6743 39.7547L36.7812 39.1094L34.8882 38.464C34.0786 40.8391 33.3184 43.6051 32.6043 46.7528L34.5547 47.1953ZM36.7812 39.1094L38.6716 39.7625L50.1169 6.63752L48.2266 5.98438L46.3362 5.33123L34.8909 38.4562L36.7812 39.1094ZM48.2266 5.98438V7.98438H66.2344V5.98438V3.98438H48.2266V5.98438ZM66.2344 5.98438H64.2344V62H66.2344H68.2344V5.98438H66.2344ZM113.695 45.5156V47.5156H115.695V45.5156H113.695ZM87.6016 45.5156V43.5156H85.4529L85.6067 45.6588L87.6016 45.5156ZM110.18 51.1016H112.18V47.4931L109.12 49.4056L110.18 51.1016ZM110.18 60.0078L111.123 61.7711L112.18 61.2058V60.0078H110.18ZM80.7266 57.625L79.3072 59.0341L79.3123 59.0392L80.7266 57.625ZM81.1562 26.8438L79.7373 25.4343L81.1562 26.8438ZM108.891 26.2188L107.417 27.5707L107.422 27.5767L108.891 26.2188ZM102.25 37.9375V39.9375H104.25V37.9375H102.25ZM90.1406 31.8047L88.6458 30.476L88.6399 30.4826L88.634 30.4894L90.1406 31.8047ZM87.5234 37.9375L85.5395 37.6842L85.2519 39.9375H87.5234V37.9375ZM113.695 45.5156V43.5156H87.6016V45.5156V47.5156H113.695V45.5156ZM87.6016 45.5156L85.6067 45.6588C85.8445 48.9736 87.0428 51.7329 89.4149 53.6154C91.732 55.4542 94.8836 56.2266 98.5781 56.2266V54.2266V52.2266C95.3716 52.2266 93.2433 51.5471 91.9015 50.4822C90.6148 49.4611 89.7753 47.865 89.5964 45.3725L87.6016 45.5156ZM98.5781 54.2266V56.2266C103.308 56.2266 107.551 55.1027 111.24 52.7976L110.18 51.1016L109.12 49.4056C106.141 51.2671 102.65 52.2266 98.5781 52.2266V54.2266ZM110.18 51.1016H108.18V60.0078H110.18H112.18V51.1016H110.18ZM110.18 60.0078L109.236 58.2445C105.923 60.0177 101.475 60.9766 95.7656 60.9766V62.9766V64.9766C101.879 64.9766 107.041 63.9562 111.123 61.7711L110.18 60.0078ZM95.7656 62.9766V60.9766C89.6821 60.9766 85.2361 59.3061 82.1408 56.2108L80.7266 57.625L79.3123 59.0392C83.3525 63.0793 88.9325 64.9766 95.7656 64.9766V62.9766ZM80.7266 57.625L82.1459 56.2159C79.0423 53.0897 77.375 48.6504 77.375 42.625H75.375H73.375C73.375 49.4121 75.2754 54.9728 79.3072 59.0341L80.7266 57.625ZM75.375 42.625H77.375C77.375 36.392 79.1703 31.6811 82.5752 28.2532L81.1562 26.8438L79.7373 25.4343C75.4339 29.7668 73.375 35.5768 73.375 42.625H75.375ZM81.1562 26.8438L82.5752 28.2532C86.0421 24.7629 90.2658 23.0234 95.375 23.0234V21.0234V19.0234C89.2342 19.0234 83.9787 21.1642 79.7373 25.4343L81.1562 26.8438ZM95.375 21.0234V23.0234C100.793 23.0234 104.707 24.6161 107.417 27.5707L108.891 26.2188L110.364 24.8668C106.721 20.8943 101.624 19.0234 95.375 19.0234V21.0234ZM108.891 26.2188L107.422 27.5767C110.202 30.5819 111.695 34.7507 111.695 40.3203H113.695H115.695C115.695 34.015 113.986 28.7827 110.359 24.8608L108.891 26.2188ZM113.695 40.3203H111.695V45.5156H113.695H115.695V40.3203H113.695ZM102.25 37.9375H104.25C104.25 34.8552 103.635 32.1727 102.067 30.2342C100.433 28.2147 98.0482 27.3438 95.2969 27.3438V29.3438V31.3438C97.1809 31.3438 98.2732 31.9051 98.9569 32.7502C99.7062 33.6762 100.25 35.2906 100.25 37.9375H102.25ZM95.2969 29.3438V27.3438C92.6803 27.3438 90.4374 28.4604 88.6458 30.476L90.1406 31.8047L91.6354 33.1334C92.7605 31.8677 93.9551 31.3438 95.2969 31.3438V29.3438ZM90.1406 31.8047L88.634 30.4894C86.9071 32.4675 85.8954 34.8969 85.5395 37.6842L87.5234 37.9375L89.5073 38.1908C89.7765 36.0822 90.5096 34.4232 91.6473 33.12L90.1406 31.8047ZM87.5234 37.9375V39.9375H102.25V37.9375V35.9375H87.5234V37.9375ZM156.977 45.5156V47.5156H158.977V45.5156H156.977ZM130.883 45.5156V43.5156H128.734L128.888 45.6588L130.883 45.5156ZM153.461 51.1016H155.461V47.4931L152.401 49.4056L153.461 51.1016ZM153.461 60.0078L154.405 61.7711L155.461 61.2058V60.0078H153.461ZM124.008 57.625L122.588 59.0341L122.594 59.0392L124.008 57.625ZM124.438 26.8438L123.019 25.4343L124.438 26.8438ZM152.172 26.2188L150.698 27.5707L150.704 27.5767L152.172 26.2188ZM145.531 37.9375V39.9375H147.531V37.9375H145.531ZM133.422 31.8047L131.927 30.476L131.921 30.4826L131.915 30.4894L133.422 31.8047ZM130.805 37.9375L128.821 37.6842L128.533 39.9375H130.805V37.9375ZM156.977 45.5156V43.5156H130.883V45.5156V47.5156H156.977V45.5156ZM130.883 45.5156L128.888 45.6588C129.126 48.9736 130.324 51.7329 132.696 53.6154C135.013 55.4542 138.165 56.2266 141.859 56.2266V54.2266V52.2266C138.653 52.2266 136.525 51.5471 135.183 50.4822C133.896 49.4611 133.057 47.865 132.878 45.3725L130.883 45.5156ZM141.859 54.2266V56.2266C146.589 56.2266 150.833 55.1027 154.521 52.7976L153.461 51.1016L152.401 49.4056C149.422 51.2671 145.932 52.2266 141.859 52.2266V54.2266ZM153.461 51.1016H151.461V60.0078H153.461H155.461V51.1016H153.461ZM153.461 60.0078L152.517 58.2445C149.204 60.0177 144.756 60.9766 139.047 60.9766V62.9766V64.9766C145.161 64.9766 150.322 63.9562 154.405 61.7711L153.461 60.0078ZM139.047 62.9766V60.9766C132.963 60.9766 128.517 59.3061 125.422 56.2108L124.008 57.625L122.594 59.0392C126.634 63.0793 132.214 64.9766 139.047 64.9766V62.9766ZM124.008 57.625L125.427 56.2159C122.324 53.0897 120.656 48.6504 120.656 42.625H118.656H116.656C116.656 49.4121 118.557 54.9728 122.588 59.0341L124.008 57.625ZM118.656 42.625H120.656C120.656 36.392 122.452 31.6811 125.856 28.2532L124.438 26.8438L123.019 25.4343C118.715 29.7668 116.656 35.5768 116.656 42.625H118.656ZM124.438 26.8438L125.856 28.2532C129.323 24.7629 133.547 23.0234 138.656 23.0234V21.0234V19.0234C132.516 19.0234 127.26 21.1642 123.019 25.4343L124.438 26.8438ZM138.656 21.0234V23.0234C144.074 23.0234 147.988 24.6161 150.698 27.5707L152.172 26.2188L153.646 24.8668C150.002 20.8943 144.905 19.0234 138.656 19.0234V21.0234ZM152.172 26.2188L150.704 27.5767C153.483 30.5819 154.977 34.7507 154.977 40.3203H156.977H158.977C158.977 34.015 157.267 28.7827 153.64 24.8608L152.172 26.2188ZM156.977 40.3203H154.977V45.5156H156.977H158.977V40.3203H156.977ZM145.531 37.9375H147.531C147.531 34.8552 146.916 32.1727 145.348 30.2342C143.714 28.2147 141.329 27.3438 138.578 27.3438V29.3438V31.3438C140.462 31.3438 141.554 31.9051 142.238 32.7502C142.987 33.6762 143.531 35.2906 143.531 37.9375H145.531ZM138.578 29.3438V27.3438C135.962 27.3438 133.719 28.4604 131.927 30.476L133.422 31.8047L134.917 33.1334C136.042 31.8677 137.236 31.3438 138.578 31.3438V29.3438ZM133.422 31.8047L131.915 30.4894C130.188 32.4675 129.177 34.8969 128.821 37.6842L130.805 37.9375L132.789 38.1908C133.058 36.0822 133.791 34.4232 134.929 33.12L133.422 31.8047ZM130.805 37.9375V39.9375H145.531V37.9375V35.9375H130.805V37.9375ZM188.5 61.5312L189.435 63.2994L190.5 62.7363V61.5312H188.5ZM167.211 31.1016H169.211V29.1016H167.211V31.1016ZM160.727 31.1016H158.727V33.1016H160.727V31.1016ZM160.727 22V20H158.727V22H160.727ZM167.211 22V24H169.211V22H167.211ZM167.211 13.3672L166.661 11.4441L165.211 11.8586V13.3672H167.211ZM179.516 9.85156H181.516V7.2001L178.966 7.92852L179.516 9.85156ZM179.516 22H177.516V24H179.516V22ZM188.5 22H190.5V20H188.5V22ZM188.5 31.1016V33.1016H190.5V31.1016H188.5ZM179.516 31.1016V29.1016H177.516V31.1016H179.516ZM188.5 52.3906H190.5V49.0165L187.54 50.6361L188.5 52.3906ZM188.5 61.5312L187.565 59.7631C186.176 60.4977 183.822 60.9766 180.258 60.9766V62.9766V64.9766C184.038 64.9766 187.179 64.4919 189.435 63.2994L188.5 61.5312ZM180.258 62.9766V60.9766C176.237 60.9766 173.584 59.9363 171.914 58.2009C170.23 56.4513 169.211 53.6505 169.211 49.4219H167.211H165.211C165.211 54.2297 166.367 58.2062 169.032 60.9749C171.71 63.7577 175.581 64.9766 180.258 64.9766V62.9766ZM167.211 49.4219H169.211V31.1016H167.211H165.211V49.4219H167.211ZM167.211 31.1016V29.1016H160.727V31.1016V33.1016H167.211V31.1016ZM160.727 31.1016H162.727V22H160.727H158.727V31.1016H160.727ZM160.727 22V24H167.211V22V20H160.727V22ZM167.211 22H169.211V13.3672H167.211H165.211V22H167.211ZM167.211 13.3672L167.76 15.2902L180.065 11.7746L179.516 9.85156L178.966 7.92852L166.661 11.4441L167.211 13.3672ZM179.516 9.85156H177.516V22H179.516H181.516V9.85156H179.516ZM179.516 22V24H188.5V22V20H179.516V22ZM188.5 22H186.5V31.1016H188.5H190.5V22H188.5ZM188.5 31.1016V29.1016H179.516V31.1016V33.1016H188.5V31.1016ZM179.516 31.1016H177.516V47.2734H179.516H181.516V31.1016H179.516ZM179.516 47.2734H177.516C177.516 49.5677 177.962 51.658 179.189 53.2043C180.487 54.8388 182.376 55.5234 184.477 55.5234V53.5234V51.5234C183.27 51.5234 182.679 51.1664 182.322 50.7175C181.896 50.1805 181.516 49.1458 181.516 47.2734H179.516ZM184.477 53.5234V55.5234C186.177 55.5234 187.846 55.0281 189.46 54.1451L188.5 52.3906L187.54 50.6361C186.393 51.2636 185.38 51.5234 184.477 51.5234V53.5234ZM188.5 52.3906H186.5V61.5312H188.5H190.5V52.3906H188.5ZM241.781 61.5312L242.716 63.2994L243.781 62.7363V61.5312H241.781ZM220.492 31.1016H222.492V29.1016H220.492V31.1016ZM214.008 31.1016H212.008V33.1016H214.008V31.1016ZM214.008 22V20H212.008V22H214.008ZM220.492 22V24H222.492V22H220.492ZM220.492 13.3672L219.943 11.4441L218.492 11.8586V13.3672H220.492ZM232.797 9.85156H234.797V7.2001L232.247 7.92852L232.797 9.85156ZM232.797 22H230.797V24H232.797V22ZM241.781 22H243.781V20H241.781V22ZM241.781 31.1016V33.1016H243.781V31.1016H241.781ZM232.797 31.1016V29.1016H230.797V31.1016H232.797ZM241.781 52.3906H243.781V49.0165L240.821 50.6361L241.781 52.3906ZM241.781 61.5312L240.847 59.7631C239.457 60.4977 237.103 60.9766 233.539 60.9766V62.9766V64.9766C237.319 64.9766 240.46 64.4919 242.716 63.2994L241.781 61.5312ZM233.539 62.9766V60.9766C229.518 60.9766 226.865 59.9363 225.195 58.2009C223.511 56.4513 222.492 53.6505 222.492 49.4219H220.492H218.492C218.492 54.2297 219.648 58.2062 222.313 60.9749C224.992 63.7577 228.862 64.9766 233.539 64.9766V62.9766ZM220.492 49.4219H222.492V31.1016H220.492H218.492V49.4219H220.492ZM220.492 31.1016V29.1016H214.008V31.1016V33.1016H220.492V31.1016ZM214.008 31.1016H216.008V22H214.008H212.008V31.1016H214.008ZM214.008 22V24H220.492V22V20H214.008V22ZM220.492 22H222.492V13.3672H220.492H218.492V22H220.492ZM220.492 13.3672L221.042 15.2902L233.346 11.7746L232.797 9.85156L232.247 7.92852L219.943 11.4441L220.492 13.3672ZM232.797 9.85156H230.797V22H232.797H234.797V9.85156H232.797ZM232.797 22V24H241.781V22V20H232.797V22ZM241.781 22H239.781V31.1016H241.781H243.781V22H241.781ZM241.781 31.1016V29.1016H232.797V31.1016V33.1016H241.781V31.1016ZM232.797 31.1016H230.797V47.2734H232.797H234.797V31.1016H232.797ZM232.797 47.2734H230.797C230.797 49.5677 231.243 51.658 232.471 53.2043C233.768 54.8388 235.657 55.5234 237.758 55.5234V53.5234V51.5234C236.551 51.5234 235.96 51.1664 235.604 50.7175C235.177 50.1805 234.797 49.1458 234.797 47.2734H232.797ZM237.758 53.5234V55.5234C239.459 55.5234 241.128 55.0281 242.741 54.1451L241.781 52.3906L240.821 50.6361C239.674 51.2636 238.661 51.5234 237.758 51.5234V53.5234ZM241.781 52.3906H239.781V61.5312H241.781H243.781V52.3906H241.781ZM287.172 62V64H289.172V62H287.172ZM274.867 62H272.867V64H274.867V62ZM263.148 32.9375L264.691 34.2106L263.148 32.9375ZM261.117 62V64H263.117V62H261.117ZM248.773 62H246.773V64H248.773V62ZM248.773 2.78125V0.78125H246.773V2.78125H248.773ZM261.117 2.78125H263.117V0.78125H261.117V2.78125ZM261.117 27.9375H259.117V29.9375H261.117V27.9375ZM261.273 27.9375V29.9375H262.354L262.946 29.0338L261.273 27.9375ZM287.172 62V60H274.867V62V64H287.172V62ZM274.867 62H276.867V39.2656H274.867H272.867V62H274.867ZM274.867 39.2656H276.867C276.867 36.1523 276.31 33.4558 274.882 31.4958C273.367 29.4181 271.106 28.4766 268.461 28.4766V30.4766V32.4766C270.087 32.4766 271.028 32.9998 271.649 33.8519C272.356 34.8216 272.867 36.5195 272.867 39.2656H274.867ZM268.461 30.4766V28.4766C265.696 28.4766 263.352 29.5486 261.606 31.6644L263.148 32.9375L264.691 34.2106C265.653 33.0452 266.851 32.4766 268.461 32.4766V30.4766ZM263.148 32.9375L261.606 31.6644C259.903 33.7277 259.117 36.2878 259.117 39.1875H261.117H263.117C263.117 37.0351 263.686 35.4285 264.691 34.2106L263.148 32.9375ZM261.117 39.1875H259.117V62H261.117H263.117V39.1875H261.117ZM261.117 62V60H248.773V62V64H261.117V62ZM248.773 62H250.773V2.78125H248.773H246.773V62H248.773ZM248.773 2.78125V4.78125H261.117V2.78125V0.78125H248.773V2.78125ZM261.117 2.78125H259.117V27.9375H261.117H263.117V2.78125H261.117ZM261.117 27.9375V29.9375H261.273V27.9375V25.9375H261.117V27.9375ZM261.273 27.9375L262.946 29.0338C265.625 24.9456 269.12 23.0234 273.578 23.0234V21.0234V19.0234C267.672 19.0234 262.963 21.7106 259.601 26.8412L261.273 27.9375ZM273.578 21.0234V23.0234C277.692 23.0234 280.448 24.2466 282.233 26.401C284.078 28.6275 285.172 32.1873 285.172 37.4297H287.172H289.172C289.172 31.7346 288 27.0912 285.313 23.849C282.567 20.5347 278.527 19.0234 273.578 19.0234V21.0234ZM287.172 37.4297H285.172V62H287.172H289.172V37.4297H287.172ZM332.914 45.5156V47.5156H334.914V45.5156H332.914ZM306.82 45.5156V43.5156H304.672L304.825 45.6588L306.82 45.5156ZM329.398 51.1016H331.398V47.4931L328.338 49.4056L329.398 51.1016ZM329.398 60.0078L330.342 61.7711L331.398 61.2058V60.0078H329.398ZM299.945 57.625L298.526 59.0341L298.531 59.0392L299.945 57.625ZM300.375 26.8438L298.956 25.4343L300.375 26.8438ZM328.109 26.2188L326.636 27.5707L326.641 27.5767L328.109 26.2188ZM321.469 37.9375V39.9375H323.469V37.9375H321.469ZM309.359 31.8047L307.865 30.476L307.859 30.4826L307.853 30.4894L309.359 31.8047ZM306.742 37.9375L304.758 37.6842L304.471 39.9375H306.742V37.9375ZM332.914 45.5156V43.5156H306.82V45.5156V47.5156H332.914V45.5156ZM306.82 45.5156L304.825 45.6588C305.063 48.9736 306.262 51.7329 308.634 53.6154C310.951 55.4542 314.102 56.2266 317.797 56.2266V54.2266V52.2266C314.59 52.2266 312.462 51.5471 311.12 50.4822C309.834 49.4611 308.994 47.865 308.815 45.3725L306.82 45.5156ZM317.797 54.2266V56.2266C322.527 56.2266 326.77 55.1027 330.458 52.7976L329.398 51.1016L328.338 49.4056C325.36 51.2671 321.869 52.2266 317.797 52.2266V54.2266ZM329.398 51.1016H327.398V60.0078H329.398H331.398V51.1016H329.398ZM329.398 60.0078L328.455 58.2445C325.142 60.0177 320.694 60.9766 314.984 60.9766V62.9766V64.9766C321.098 64.9766 326.26 63.9562 330.342 61.7711L329.398 60.0078ZM314.984 62.9766V60.9766C308.901 60.9766 304.455 59.3061 301.36 56.2108L299.945 57.625L298.531 59.0392C302.571 63.0793 308.151 64.9766 314.984 64.9766V62.9766ZM299.945 57.625L301.365 56.2159C298.261 53.0897 296.594 48.6504 296.594 42.625H294.594H292.594C292.594 49.4121 294.494 54.9728 298.526 59.0341L299.945 57.625ZM294.594 42.625H296.594C296.594 36.392 298.389 31.6811 301.794 28.2532L300.375 26.8438L298.956 25.4343C294.653 29.7668 292.594 35.5768 292.594 42.625H294.594ZM300.375 26.8438L301.794 28.2532C305.261 24.7629 309.484 23.0234 314.594 23.0234V21.0234V19.0234C308.453 19.0234 303.197 21.1642 298.956 25.4343L300.375 26.8438ZM314.594 21.0234V23.0234C320.012 23.0234 323.925 24.6161 326.636 27.5707L328.109 26.2188L329.583 24.8668C325.939 20.8943 320.842 19.0234 314.594 19.0234V21.0234ZM328.109 26.2188L326.641 27.5767C329.42 30.5819 330.914 34.7507 330.914 40.3203H332.914H334.914C334.914 34.015 333.205 28.7827 329.578 24.8608L328.109 26.2188ZM332.914 40.3203H330.914V45.5156H332.914H334.914V40.3203H332.914ZM321.469 37.9375H323.469C323.469 34.8552 322.854 32.1727 321.285 30.2342C319.651 28.2147 317.267 27.3438 314.516 27.3438V29.3438V31.3438C316.4 31.3438 317.492 31.9051 318.176 32.7502C318.925 33.6762 319.469 35.2906 319.469 37.9375H321.469ZM314.516 29.3438V27.3438C311.899 27.3438 309.656 28.4604 307.865 30.476L309.359 31.8047L310.854 33.1334C311.979 31.8677 313.174 31.3438 314.516 31.3438V29.3438ZM309.359 31.8047L307.853 30.4894C306.126 32.4675 305.114 34.8969 304.758 37.6842L306.742 37.9375L308.726 38.1908C308.995 36.0822 309.728 34.4232 310.866 33.12L309.359 31.8047ZM306.742 37.9375V39.9375H321.469V37.9375V35.9375H306.742V37.9375ZM402.914 16.2578V18.2578H404.914V16.2578H402.914ZM386.938 16.2578V14.2578H384.938V16.2578H386.938ZM386.938 62V64H388.938V62H386.938ZM374.281 62H372.281V64H374.281V62ZM374.281 16.2578H376.281V14.2578H374.281V16.2578ZM358.383 16.2578H356.383V18.2578H358.383V16.2578ZM358.383 5.98438V3.98438H356.383V5.98438H358.383ZM402.914 5.98438H404.914V3.98438H402.914V5.98438ZM402.914 16.2578V14.2578H386.938V16.2578V18.2578H402.914V16.2578ZM386.938 16.2578H384.938V62H386.938H388.938V16.2578H386.938ZM386.938 62V60H374.281V62V64H386.938V62ZM374.281 62H376.281V16.2578H374.281H372.281V62H374.281ZM374.281 16.2578V14.2578H358.383V16.2578V18.2578H374.281V16.2578ZM358.383 16.2578H360.383V5.98438H358.383H356.383V16.2578H358.383ZM358.383 5.98438V7.98438H402.914V5.98438V3.98438H358.383V5.98438ZM402.914 5.98438H400.914V16.2578H402.914H404.914V5.98438H402.914ZM437.992 45.5156V47.5156H439.992V45.5156H437.992ZM411.898 45.5156V43.5156H409.75L409.904 45.6588L411.898 45.5156ZM434.477 51.1016H436.477V47.4931L433.417 49.4056L434.477 51.1016ZM434.477 60.0078L435.42 61.7711L436.477 61.2058V60.0078H434.477ZM405.023 57.625L403.604 59.0341L403.609 59.0392L405.023 57.625ZM405.453 26.8438L404.034 25.4343L405.453 26.8438ZM433.188 26.2188L431.714 27.5707L431.719 27.5767L433.188 26.2188ZM426.547 37.9375V39.9375H428.547V37.9375H426.547ZM414.438 31.8047L412.943 30.476L412.937 30.4826L412.931 30.4894L414.438 31.8047ZM411.82 37.9375L409.836 37.6842L409.549 39.9375H411.82V37.9375ZM437.992 45.5156V43.5156H411.898V45.5156V47.5156H437.992V45.5156ZM411.898 45.5156L409.904 45.6588C410.141 48.9736 411.34 51.7329 413.712 53.6154C416.029 55.4542 419.181 56.2266 422.875 56.2266V54.2266V52.2266C419.668 52.2266 417.54 51.5471 416.198 50.4822C414.912 49.4611 414.072 47.865 413.893 45.3725L411.898 45.5156ZM422.875 54.2266V56.2266C427.605 56.2266 431.848 55.1027 435.537 52.7976L434.477 51.1016L433.417 49.4056C430.438 51.2671 426.947 52.2266 422.875 52.2266V54.2266ZM434.477 51.1016H432.477V60.0078H434.477H436.477V51.1016H434.477ZM434.477 60.0078L433.533 58.2445C430.22 60.0177 425.772 60.9766 420.062 60.9766V62.9766V64.9766C426.176 64.9766 431.338 63.9562 435.42 61.7711L434.477 60.0078ZM420.062 62.9766V60.9766C413.979 60.9766 409.533 59.3061 406.438 56.2108L405.023 57.625L403.609 59.0392C407.649 63.0793 413.229 64.9766 420.062 64.9766V62.9766ZM405.023 57.625L406.443 56.2159C403.339 53.0897 401.672 48.6504 401.672 42.625H399.672H397.672C397.672 49.4121 399.572 54.9728 403.604 59.0341L405.023 57.625ZM399.672 42.625H401.672C401.672 36.392 403.467 31.6811 406.872 28.2532L405.453 26.8438L404.034 25.4343C399.731 29.7668 397.672 35.5768 397.672 42.625H399.672ZM405.453 26.8438L406.872 28.2532C410.339 24.7629 414.563 23.0234 419.672 23.0234V21.0234V19.0234C413.531 19.0234 408.276 21.1642 404.034 25.4343L405.453 26.8438ZM419.672 21.0234V23.0234C425.09 23.0234 429.003 24.6161 431.714 27.5707L433.188 26.2188L434.661 24.8668C431.017 20.8943 425.921 19.0234 419.672 19.0234V21.0234ZM433.188 26.2188L431.719 27.5767C434.498 30.5819 435.992 34.7507 435.992 40.3203H437.992H439.992C439.992 34.015 438.283 28.7827 434.656 24.8608L433.188 26.2188ZM437.992 40.3203H435.992V45.5156H437.992H439.992V40.3203H437.992ZM426.547 37.9375H428.547C428.547 34.8552 427.932 32.1727 426.363 30.2342C424.729 28.2147 422.345 27.3438 419.594 27.3438V29.3438V31.3438C421.478 31.3438 422.57 31.9051 423.254 32.7502C424.003 33.6762 424.547 35.2906 424.547 37.9375H426.547ZM419.594 29.3438V27.3438C416.977 27.3438 414.734 28.4604 412.943 30.476L414.438 31.8047L415.932 33.1334C417.057 31.8677 418.252 31.3438 419.594 31.3438V29.3438ZM414.438 31.8047L412.931 30.4894C411.204 32.4675 410.192 34.8969 409.836 37.6842L411.82 37.9375L413.804 38.1908C414.073 36.0822 414.806 34.4232 415.944 33.12L414.438 31.8047ZM411.82 37.9375V39.9375H426.547V37.9375V35.9375H411.82V37.9375ZM478.617 62V64H480.617V62H478.617ZM466.938 62H464.938V64H466.938V62ZM466.938 56.2578H468.938V54.2578H466.938V56.2578ZM466.781 56.2578V54.2578H465.648L465.065 55.2303L466.781 56.2578ZM445.688 59.6953L444.273 61.1095L444.282 61.1178L444.29 61.1261L445.688 59.6953ZM456.156 37.4297L456.415 39.4129L456.42 39.4122L456.156 37.4297ZM467.016 35.9844L467.279 37.9669L469.016 37.7358V35.9844H467.016ZM446.312 33.6797H444.312V37.3979L447.415 35.3484L446.312 33.6797ZM446.312 24.3828L445.397 22.6049L444.312 23.1633V24.3828H446.312ZM453.344 22.0391L452.903 20.0883L452.899 20.0891L453.344 22.0391ZM467.016 43.0547H469.016V40.78L466.76 41.0711L467.016 43.0547ZM459.75 43.9922L459.494 42.0086L459.492 42.0088L459.75 43.9922ZM455.18 52.8984L453.805 54.3514L453.825 54.3704L453.846 54.3889L455.18 52.8984ZM464.828 51.8438L466.301 53.1963L466.307 53.1903L466.312 53.1843L464.828 51.8438ZM478.617 62V60H466.938V62V64H478.617V62ZM466.938 62H468.938V56.2578H466.938H464.938V62H466.938ZM466.938 56.2578V54.2578H466.781V56.2578V58.2578H466.938V56.2578ZM466.781 56.2578L465.065 55.2303C462.748 59.1006 459.431 60.9766 454.867 60.9766V62.9766V64.9766C460.824 64.9766 465.45 62.3734 468.497 57.2853L466.781 56.2578ZM454.867 62.9766V60.9766C451.377 60.9766 448.866 60.0043 447.085 58.2646L445.688 59.6953L444.29 61.1261C446.988 63.7614 450.597 64.9766 454.867 64.9766V62.9766ZM445.688 59.6953L447.102 58.2811C445.328 56.5072 444.367 54.1075 444.367 50.8672H442.367H440.367C440.367 54.9706 441.62 58.4563 444.273 61.1095L445.688 59.6953ZM442.367 50.8672H444.367C444.367 47.4054 445.377 44.9062 447.21 43.1199C449.088 41.2898 452.063 39.98 456.415 39.4129L456.156 37.4297L455.898 35.4465C451.056 36.0773 447.137 37.606 444.419 40.2551C441.655 42.948 440.367 46.5686 440.367 50.8672H442.367ZM456.156 37.4297L456.42 39.4122L467.279 37.9669L467.016 35.9844L466.752 34.0019L455.892 35.4472L456.156 37.4297ZM467.016 35.9844H469.016C469.016 33.4456 468.321 31.1859 466.595 29.5929C464.899 28.0278 462.546 27.4219 459.906 27.4219V29.4219V31.4219C462.006 31.4219 463.207 31.9097 463.882 32.5321C464.526 33.1266 465.016 34.1481 465.016 35.9844H467.016ZM459.906 29.4219V27.4219C454.717 27.4219 449.806 28.9745 445.21 32.0109L446.312 33.6797L447.415 35.3484C451.412 32.7077 455.564 31.4219 459.906 31.4219V29.4219ZM446.312 33.6797H448.312V24.3828H446.312H444.312V33.6797H446.312ZM446.312 24.3828L447.228 26.1608C448.738 25.3831 450.901 24.6475 453.788 23.989L453.344 22.0391L452.899 20.0891C449.849 20.7848 447.324 21.6117 445.397 22.6049L446.312 24.3828ZM453.344 22.0391L453.785 23.9898C456.67 23.3376 459.24 23.0234 461.508 23.0234V21.0234V19.0234C458.88 19.0234 456.007 19.3864 452.903 20.0883L453.344 22.0391ZM461.508 21.0234V23.0234C466.904 23.0234 470.583 24.3682 472.927 26.7068C475.27 29.0447 476.617 32.7131 476.617 38.0938H478.617H480.617C480.617 32.0942 479.112 27.2274 475.752 23.8752C472.393 20.5238 467.518 19.0234 461.508 19.0234V21.0234ZM478.617 38.0938H476.617V62H478.617H480.617V38.0938H478.617ZM467.016 45.75H469.016V43.0547H467.016H465.016V45.75H467.016ZM467.016 43.0547L466.76 41.0711L459.494 42.0086L459.75 43.9922L460.006 45.9757L467.272 45.0382L467.016 43.0547ZM459.75 43.9922L459.492 42.0088C457.273 42.2971 455.318 42.9737 453.898 44.2556C452.412 45.5973 451.734 47.3984 451.734 49.4219H453.734H455.734C455.734 48.3464 456.06 47.6931 456.578 47.2249C457.163 46.6969 458.217 46.2081 460.008 45.9755L459.75 43.9922ZM453.734 49.4219H451.734C451.734 51.3407 452.416 53.0374 453.805 54.3514L455.18 52.8984L456.554 51.4455C456.016 50.9366 455.734 50.3155 455.734 49.4219H453.734ZM455.18 52.8984L453.846 54.3889C455.289 55.68 457.136 56.2266 459.164 56.2266V54.2266V52.2266C457.859 52.2266 457.049 51.8877 456.513 51.408L455.18 52.8984ZM459.164 54.2266V56.2266C461.995 56.2266 464.434 55.2308 466.301 53.1963L464.828 51.8438L463.355 50.4912C462.306 51.6338 460.969 52.2266 459.164 52.2266V54.2266ZM464.828 51.8438L466.312 53.1843C468.145 51.1556 469.016 48.6266 469.016 45.75H467.016H465.016C465.016 47.7692 464.428 49.3028 463.344 50.5032L464.828 51.8438ZM551.898 62V64H553.898V62H551.898ZM539.594 62H537.594V64H539.594V62ZM526.312 62V64H528.312V62H526.312ZM513.969 62H511.969V64H513.969V62ZM502.602 32.9766L501.014 31.7607L501.008 31.7686L501.002 31.7766L502.602 32.9766ZM500.727 62V64H502.727V62H500.727ZM488.383 62H486.383V64H488.383V62ZM488.383 22V20H486.383V22H488.383ZM500.727 22H502.727V20H500.727V22ZM500.727 28.25H498.727V30.25H500.727V28.25ZM500.883 28.25V30.25H502.018L502.6 29.2759L500.883 28.25ZM506.234 23.0547L507.237 24.7851L507.243 24.7815L506.234 23.0547ZM525.414 28.4844L523.569 29.257L525.079 32.8607L527.12 29.5291L525.414 28.4844ZM551.898 62V60H539.594V62V64H551.898V62ZM539.594 62H541.594V39.1875H539.594H537.594V62H539.594ZM539.594 39.1875H541.594C541.594 36.0976 541.036 33.4175 539.603 31.4694C538.086 29.4065 535.826 28.4766 533.188 28.4766V30.4766V32.4766C534.82 32.4766 535.763 32.9985 536.381 33.8392C537.084 34.7947 537.594 36.4701 537.594 39.1875H539.594ZM533.188 30.4766V28.4766C530.472 28.4766 528.237 29.692 526.612 31.9131L528.227 33.0938L529.841 34.2744C530.769 33.0059 531.841 32.4766 533.188 32.4766V30.4766ZM528.227 33.0938L526.612 31.9131C525.038 34.066 524.312 36.6775 524.312 39.6172H526.312H528.312C528.312 37.3485 528.863 35.6111 529.841 34.2744L528.227 33.0938ZM526.312 39.6172H524.312V62H526.312H528.312V39.6172H526.312ZM526.312 62V60H513.969V62V64H526.312V62ZM513.969 62H515.969V38.9531H513.969H511.969V62H513.969ZM513.969 38.9531H515.969C515.969 35.9386 515.42 33.3142 514.003 31.404C512.502 29.3819 510.272 28.4766 507.68 28.4766V30.4766V32.4766C509.28 32.4766 510.194 32.9839 510.79 33.7874C511.469 34.7027 511.969 36.3166 511.969 38.9531H513.969ZM507.68 30.4766V28.4766C504.951 28.4766 502.67 29.5969 501.014 31.7607L502.602 32.9766L504.19 34.1924C505.085 33.0229 506.189 32.4766 507.68 32.4766V30.4766ZM502.602 32.9766L501.002 31.7766C499.41 33.8983 498.727 36.6355 498.727 39.7734H500.727H502.727C502.727 37.1822 503.293 35.3882 504.202 34.1766L502.602 32.9766ZM500.727 39.7734H498.727V62H500.727H502.727V39.7734H500.727ZM500.727 62V60H488.383V62V64H500.727V62ZM488.383 62H490.383V22H488.383H486.383V62H488.383ZM488.383 22V24H500.727V22V20H488.383V22ZM500.727 22H498.727V28.25H500.727H502.727V22H500.727ZM500.727 28.25V30.25H500.883V28.25V26.25H500.727V28.25ZM500.883 28.25L502.6 29.2759C503.69 27.4511 505.22 25.9542 507.237 24.7851L506.234 23.0547L505.232 21.3243C502.666 22.8114 500.628 24.7781 499.166 27.2241L500.883 28.25ZM506.234 23.0547L507.243 24.7815C509.249 23.6097 511.426 23.0234 513.812 23.0234V21.0234V19.0234C510.73 19.0234 507.855 19.7913 505.225 21.3278L506.234 23.0547ZM513.812 21.0234V23.0234C516.343 23.0234 518.325 23.5779 519.869 24.5708C521.407 25.5595 522.656 27.0773 523.569 29.257L525.414 28.4844L527.259 27.7117C526.088 24.9175 524.363 22.7048 522.033 21.2065C519.71 19.7125 516.933 19.0234 513.812 19.0234V21.0234ZM525.414 28.4844L527.12 29.5291C529.797 25.1583 533.625 23.0234 538.852 23.0234V21.0234V19.0234C532.256 19.0234 527.125 21.8625 523.709 27.4397L525.414 28.4844ZM538.852 21.0234V23.0234C542.768 23.0234 545.384 24.2107 547.083 26.3064C548.847 28.4823 549.898 31.971 549.898 37.1172H551.898H553.898C553.898 31.5342 552.775 26.9761 550.19 23.7874C547.54 20.5184 543.633 19.0234 538.852 19.0234V21.0234ZM551.898 37.1172H549.898V62H551.898H553.898V37.1172H551.898Z" fill="url(#paint0_linear_3102_13893)" mask="url(#path-1-outside-1_3102_13893)"/>
<defs>
<linearGradient id="paint0_linear_3102_13893" x1="284.513" y1="-38" x2="284.396" y2="94.9999" gradientUnits="userSpaceOnUse">
<stop offset="0.427887" stop-color="#E1ECF3"/>
<stop offset="0.858273" stop-color="white"/>
</linearGradient>
</defs>
</svg>
