<svg width="940" height="65" viewBox="0 0 940 65" fill="none" xmlns="http://www.w3.org/2000/svg">
<mask id="path-1-outside-1_3102_13573" maskUnits="userSpaceOnUse" x="0" y="0" width="940" height="65" fill="black">
<rect fill="white" width="940" height="65"/>
<path d="M30.0781 62.9766C22.0573 62.9766 15.5208 60.3724 10.4688 55.1641C5.41667 49.9297 2.89062 43.1198 2.89062 34.7344C2.89062 25.8802 5.45573 18.7188 10.5859 13.25C15.7161 7.78125 22.513 5.04688 30.9766 5.04688C38.9714 5.04688 45.4297 7.66406 50.3516 12.8984C55.2995 18.1328 57.7734 25.0339 57.7734 33.6016C57.7734 42.4036 55.2083 49.5 50.0781 54.8906C44.974 60.2812 38.3073 62.9766 30.0781 62.9766ZM30.625 15.9062C26.1979 15.9062 22.6823 17.5729 20.0781 20.9062C17.474 24.2135 16.1719 28.6016 16.1719 34.0703C16.1719 39.6172 17.474 44.0052 20.0781 47.2344C22.6823 50.4635 26.0938 52.0781 30.3125 52.0781C34.6615 52.0781 38.112 50.5156 40.6641 47.3906C43.2161 44.2396 44.4922 39.8776 44.4922 34.3047C44.4922 28.4974 43.2552 23.9792 40.7812 20.75C38.3073 17.5208 34.9219 15.9062 30.625 15.9062ZM103.906 62H91.6016V55.9062H91.4062C88.3594 60.6198 84.2839 62.9766 79.1797 62.9766C69.9089 62.9766 65.2734 57.3646 65.2734 46.1406V22H77.5781V45.0469C77.5781 50.6979 79.8177 53.5234 84.2969 53.5234C86.5104 53.5234 88.2812 52.7552 89.6094 51.2188C90.9375 49.6562 91.6016 47.5469 91.6016 44.8906V22H103.906V62ZM140.43 33.1328C138.945 32.3255 137.214 31.9219 135.234 31.9219C132.552 31.9219 130.456 32.9115 128.945 34.8906C127.435 36.8438 126.68 39.513 126.68 42.8984V62H114.336V22H126.68V29.4219H126.836C128.789 24.0052 132.305 21.2969 137.383 21.2969C138.685 21.2969 139.701 21.4531 140.43 21.7656V33.1328ZM218.789 62H205.039L201.055 49.5391H181.133L177.188 62H163.516L183.906 5.98438H198.867L218.789 62ZM198.164 39.8516L192.148 21.0234C191.706 19.6172 191.393 17.9375 191.211 15.9844H190.898C190.768 17.625 190.443 19.2526 189.922 20.8672L183.828 39.8516H198.164ZM243.086 5.98438V15.75H238.398V52.2344H243.086V62H221.094V52.2344H225.781V15.75H221.094V5.98438H243.086ZM271.719 44.9688H250.352V36.3359H271.719V44.9688ZM296.133 42.7031V62H283.516V5.98438H303.281C317.396 5.98438 324.453 11.9349 324.453 23.8359C324.453 29.4609 322.422 34.0182 318.359 37.5078C314.323 40.9714 308.919 42.7031 302.148 42.7031H296.133ZM296.133 15.6719V33.1328H301.094C307.812 33.1328 311.172 30.1901 311.172 24.3047C311.172 18.5495 307.812 15.6719 301.094 15.6719H296.133ZM348.086 62.9766C341.419 62.9766 336.172 61.1146 332.344 57.3906C328.542 53.6406 326.641 48.5625 326.641 42.1562C326.641 35.5417 328.62 30.3724 332.578 26.6484C336.536 22.8984 341.888 21.0234 348.633 21.0234C355.273 21.0234 360.482 22.8984 364.258 26.6484C368.034 30.3724 369.922 35.3073 369.922 41.4531C369.922 48.0938 367.969 53.3411 364.062 57.1953C360.182 61.0495 354.857 62.9766 348.086 62.9766ZM348.398 30.4766C345.482 30.4766 343.216 31.4792 341.602 33.4844C339.987 35.4896 339.18 38.3281 339.18 42C339.18 49.6823 342.279 53.5234 348.477 53.5234C354.388 53.5234 357.344 49.5781 357.344 41.6875C357.344 34.2135 354.362 30.4766 348.398 30.4766ZM435.859 22L424.336 62H411.367L405.469 38.5625C405.078 37 404.857 35.2943 404.805 33.4453H404.57C404.388 35.4766 404.128 37.1302 403.789 38.4062L397.461 62H384.648L373.359 22H385.938L391.445 48.0938C391.706 49.3177 391.901 50.8021 392.031 52.5469H392.266C392.396 50.724 392.63 49.1875 392.969 47.9375L399.844 22H411.602L417.773 48.0938C417.93 48.7448 418.112 50.2552 418.32 52.625H418.594C418.724 51.1146 418.932 49.6042 419.219 48.0938L424.414 22H435.859ZM477.305 45.5156H451.211C451.628 51.3229 455.286 54.2266 462.188 54.2266C466.589 54.2266 470.456 53.1849 473.789 51.1016V60.0078C470.091 61.987 465.286 62.9766 459.375 62.9766C452.917 62.9766 447.904 61.1927 444.336 57.625C440.768 54.0312 438.984 49.0312 438.984 42.625C438.984 35.9844 440.911 30.724 444.766 26.8438C448.62 22.9635 453.359 21.0234 458.984 21.0234C464.818 21.0234 469.323 22.7552 472.5 26.2188C475.703 29.6823 477.305 34.3828 477.305 40.3203V45.5156ZM465.859 37.9375C465.859 32.2083 463.542 29.3438 458.906 29.3438C456.927 29.3438 455.208 30.1641 453.75 31.8047C452.318 33.4453 451.445 35.4896 451.133 37.9375H465.859ZM510.742 33.1328C509.258 32.3255 507.526 31.9219 505.547 31.9219C502.865 31.9219 500.768 32.9115 499.258 34.8906C497.747 36.8438 496.992 39.513 496.992 42.8984V62H484.648V22H496.992V29.4219H497.148C499.102 24.0052 502.617 21.2969 507.695 21.2969C508.997 21.2969 510.013 21.4531 510.742 21.7656V33.1328ZM552.148 45.5156H526.055C526.471 51.3229 530.13 54.2266 537.031 54.2266C541.432 54.2266 545.299 53.1849 548.633 51.1016V60.0078C544.935 61.987 540.13 62.9766 534.219 62.9766C527.76 62.9766 522.747 61.1927 519.18 57.625C515.612 54.0312 513.828 49.0312 513.828 42.625C513.828 35.9844 515.755 30.724 519.609 26.8438C523.464 22.9635 528.203 21.0234 533.828 21.0234C539.661 21.0234 544.167 22.7552 547.344 26.2188C550.547 29.6823 552.148 34.3828 552.148 40.3203V45.5156ZM540.703 37.9375C540.703 32.2083 538.385 29.3438 533.75 29.3438C531.771 29.3438 530.052 30.1641 528.594 31.8047C527.161 33.4453 526.289 35.4896 525.977 37.9375H540.703ZM598.633 62H586.289V56.4922H586.133C583.32 60.8151 579.193 62.9766 573.75 62.9766C568.75 62.9766 564.727 61.2188 561.68 57.7031C558.633 54.1615 557.109 49.2266 557.109 42.8984C557.109 36.2839 558.789 30.9844 562.148 27C565.508 23.0156 569.909 21.0234 575.352 21.0234C580.508 21.0234 584.102 22.8724 586.133 26.5703H586.289V2.78125H598.633V62ZM586.523 42.5469V39.5391C586.523 36.9349 585.768 34.7734 584.258 33.0547C582.747 31.3359 580.781 30.4766 578.359 30.4766C575.625 30.4766 573.49 31.5573 571.953 33.7188C570.417 35.8542 569.648 38.7969 569.648 42.5469C569.648 46.0625 570.391 48.7708 571.875 50.6719C573.359 52.5729 575.417 53.5234 578.047 53.5234C580.547 53.5234 582.578 52.5208 584.141 50.5156C585.729 48.5104 586.523 45.8542 586.523 42.5469ZM629.766 59.8516V47.3516C632.031 49.2526 634.492 50.6849 637.148 51.6484C639.805 52.5859 642.487 53.0547 645.195 53.0547C646.784 53.0547 648.164 52.9115 649.336 52.625C650.534 52.3385 651.523 51.9479 652.305 51.4531C653.112 50.9323 653.711 50.3333 654.102 49.6562C654.492 48.9531 654.688 48.1979 654.688 47.3906C654.688 46.2969 654.375 45.3203 653.75 44.4609C653.125 43.6016 652.266 42.8073 651.172 42.0781C650.104 41.349 648.828 40.6458 647.344 39.9688C645.859 39.2917 644.258 38.6016 642.539 37.8984C638.164 36.0755 634.896 33.849 632.734 31.2188C630.599 28.5885 629.531 25.4115 629.531 21.6875C629.531 18.7708 630.117 16.2708 631.289 14.1875C632.461 12.0781 634.049 10.3464 636.055 8.99219C638.086 7.63802 640.43 6.64844 643.086 6.02344C645.742 5.3724 648.555 5.04688 651.523 5.04688C654.44 5.04688 657.018 5.22917 659.258 5.59375C661.523 5.93229 663.607 6.46615 665.508 7.19531V18.875C664.57 18.224 663.542 17.651 662.422 17.1562C661.328 16.6615 660.195 16.2578 659.023 15.9453C657.852 15.6068 656.68 15.3594 655.508 15.2031C654.362 15.0469 653.268 14.9688 652.227 14.9688C650.794 14.9688 649.492 15.112 648.32 15.3984C647.148 15.6589 646.159 16.0365 645.352 16.5312C644.544 17.026 643.919 17.625 643.477 18.3281C643.034 19.0052 642.812 19.7734 642.812 20.6328C642.812 21.5703 643.06 22.4167 643.555 23.1719C644.049 23.901 644.753 24.6042 645.664 25.2812C646.576 25.9323 647.682 26.5833 648.984 27.2344C650.286 27.8594 651.758 28.5104 653.398 29.1875C655.638 30.125 657.643 31.1276 659.414 32.1953C661.211 33.237 662.747 34.4219 664.023 35.75C665.299 37.0781 666.276 38.6016 666.953 40.3203C667.63 42.013 667.969 43.9922 667.969 46.2578C667.969 49.3828 667.37 52.013 666.172 54.1484C665 56.2578 663.398 57.9766 661.367 59.3047C659.336 60.6068 656.966 61.5443 654.258 62.1172C651.576 62.6901 648.737 62.9766 645.742 62.9766C642.669 62.9766 639.74 62.7161 636.953 62.1953C634.193 61.6745 631.797 60.8932 629.766 59.8516ZM695.039 62.9766C688.372 62.9766 683.125 61.1146 679.297 57.3906C675.495 53.6406 673.594 48.5625 673.594 42.1562C673.594 35.5417 675.573 30.3724 679.531 26.6484C683.49 22.8984 688.841 21.0234 695.586 21.0234C702.227 21.0234 707.435 22.8984 711.211 26.6484C714.987 30.3724 716.875 35.3073 716.875 41.4531C716.875 48.0938 714.922 53.3411 711.016 57.1953C707.135 61.0495 701.81 62.9766 695.039 62.9766ZM695.352 30.4766C692.435 30.4766 690.169 31.4792 688.555 33.4844C686.94 35.4896 686.133 38.3281 686.133 42C686.133 49.6823 689.232 53.5234 695.43 53.5234C701.341 53.5234 704.297 49.5781 704.297 41.6875C704.297 34.2135 701.315 30.4766 695.352 30.4766ZM737.227 62H724.883V2.78125H737.227V62ZM785.625 62H773.32V55.9062H773.125C770.078 60.6198 766.003 62.9766 760.898 62.9766C751.628 62.9766 746.992 57.3646 746.992 46.1406V22H759.297V45.0469C759.297 50.6979 761.536 53.5234 766.016 53.5234C768.229 53.5234 770 52.7552 771.328 51.2188C772.656 49.6562 773.32 47.5469 773.32 44.8906V22H785.625V62ZM820.234 61.5312C818.411 62.4948 815.664 62.9766 811.992 62.9766C803.294 62.9766 798.945 58.4583 798.945 49.4219V31.1016H792.461V22H798.945V13.3672L811.25 9.85156V22H820.234V31.1016H811.25V47.2734C811.25 51.4401 812.904 53.5234 816.211 53.5234C817.513 53.5234 818.854 53.1458 820.234 52.3906V61.5312ZM833.477 15.6719C831.393 15.6719 829.688 15.0599 828.359 13.8359C827.031 12.5859 826.367 11.0625 826.367 9.26562C826.367 7.41667 827.031 5.90625 828.359 4.73438C829.688 3.5625 831.393 2.97656 833.477 2.97656C835.586 2.97656 837.292 3.5625 838.594 4.73438C839.922 5.90625 840.586 7.41667 840.586 9.26562C840.586 11.1406 839.922 12.6771 838.594 13.875C837.292 15.0729 835.586 15.6719 833.477 15.6719ZM839.57 62H827.227V22H839.57V62ZM869.023 62.9766C862.357 62.9766 857.109 61.1146 853.281 57.3906C849.479 53.6406 847.578 48.5625 847.578 42.1562C847.578 35.5417 849.557 30.3724 853.516 26.6484C857.474 22.8984 862.826 21.0234 869.57 21.0234C876.211 21.0234 881.419 22.8984 885.195 26.6484C888.971 30.3724 890.859 35.3073 890.859 41.4531C890.859 48.0938 888.906 53.3411 885 57.1953C881.12 61.0495 875.794 62.9766 869.023 62.9766ZM869.336 30.4766C866.419 30.4766 864.154 31.4792 862.539 33.4844C860.924 35.4896 860.117 38.3281 860.117 42C860.117 49.6823 863.216 53.5234 869.414 53.5234C875.326 53.5234 878.281 49.5781 878.281 41.6875C878.281 34.2135 875.299 30.4766 869.336 30.4766ZM937.5 62H925.195V39.7734C925.195 33.5755 922.982 30.4766 918.555 30.4766C916.419 30.4766 914.661 31.2969 913.281 32.9375C911.901 34.5781 911.211 36.6615 911.211 39.1875V62H898.867V22H911.211V28.3281H911.367C914.31 23.4583 918.594 21.0234 924.219 21.0234C933.073 21.0234 937.5 26.5182 937.5 37.5078V62Z"/>
</mask>
<path d="M10.4688 55.1641L9.0297 56.553L9.03317 56.5566L10.4688 55.1641ZM50.3516 12.8984L48.8945 14.2685L48.8981 14.2723L50.3516 12.8984ZM50.0781 54.8906L48.6293 53.5118L48.6259 53.5155L50.0781 54.8906ZM20.0781 20.9062L21.6495 22.1435L21.6542 22.1375L20.0781 20.9062ZM40.6641 47.3906L42.2131 48.6557L42.2183 48.6494L40.6641 47.3906ZM30.0781 62.9766V60.9766C22.5354 60.9766 16.5381 58.5486 11.9043 53.7715L10.4688 55.1641L9.03317 56.5566C14.5036 62.1962 21.5792 64.9766 30.0781 64.9766V62.9766ZM10.4688 55.1641L11.9078 53.7751C7.27072 48.9707 4.89062 42.6869 4.89062 34.7344H2.89062H0.890625C0.890625 43.5527 3.56261 50.8886 9.0297 56.553L10.4688 55.1641ZM2.89062 34.7344H4.89062C4.89062 26.2906 7.32382 19.6506 12.0446 14.6183L10.5859 13.25L9.1273 11.8817C3.58764 17.7869 0.890625 25.4698 0.890625 34.7344H2.89062ZM10.5859 13.25L12.0446 14.6183C16.7462 9.60641 22.9873 7.04688 30.9766 7.04688V5.04688V3.04688C22.0388 3.04688 14.686 5.95609 9.1273 11.8817L10.5859 13.25ZM30.9766 5.04688V7.04688C38.4883 7.04688 44.3953 9.4836 48.8945 14.2685L50.3516 12.8984L51.8086 11.5284C46.4641 5.84452 39.4544 3.04688 30.9766 3.04688V5.04688ZM50.3516 12.8984L48.8981 14.2723C53.4301 19.0667 55.7734 25.4418 55.7734 33.6016H57.7734H59.7734C59.7734 24.6259 57.1688 17.1989 51.805 11.5246L50.3516 12.8984ZM57.7734 33.6016H55.7734C55.7734 41.9905 53.3422 48.5597 48.6293 53.5118L50.0781 54.8906L51.5269 56.2694C57.0745 50.4403 59.7734 42.8168 59.7734 33.6016H57.7734ZM50.0781 54.8906L48.6259 53.5155C43.9425 58.4618 37.8238 60.9766 30.0781 60.9766V62.9766V64.9766C38.7907 64.9766 46.0055 62.1007 51.5304 56.2657L50.0781 54.8906ZM30.625 15.9062V13.9062C25.6156 13.9062 21.5053 15.8308 18.5021 19.675L20.0781 20.9062L21.6542 22.1375C23.8593 19.315 26.7803 17.9062 30.625 17.9062V15.9062ZM20.0781 20.9062L18.5068 19.669C15.5514 23.4223 14.1719 28.2881 14.1719 34.0703H16.1719H18.1719C18.1719 28.9151 19.3965 25.0048 21.6495 22.1435L20.0781 20.9062ZM16.1719 34.0703H14.1719C14.1719 39.9199 15.5466 44.8012 18.5213 48.4899L20.0781 47.2344L21.635 45.9789C19.4013 43.2092 18.1719 39.3145 18.1719 34.0703H16.1719ZM20.0781 47.2344L18.5213 48.4899C21.5126 52.1991 25.5009 54.0781 30.3125 54.0781V52.0781V50.0781C26.6866 50.0781 23.852 48.728 21.635 45.9789L20.0781 47.2344ZM30.3125 52.0781V54.0781C35.2085 54.0781 39.2486 52.2857 42.2131 48.6557L40.6641 47.3906L39.115 46.1256C36.9753 48.7456 34.1144 50.0781 30.3125 50.0781V52.0781ZM40.6641 47.3906L42.2183 48.6494C45.1502 45.0293 46.4922 40.1657 46.4922 34.3047H44.4922H42.4922C42.4922 39.5895 41.2821 43.4499 39.1099 46.1319L40.6641 47.3906ZM44.4922 34.3047H46.4922C46.4922 28.2403 45.2034 23.2334 42.3689 19.5337L40.7812 20.75L39.1936 21.9663C41.307 24.7249 42.4922 28.7545 42.4922 34.3047H44.4922ZM40.7812 20.75L42.3689 19.5337C39.4924 15.7791 35.5035 13.9062 30.625 13.9062V15.9062V17.9062C34.3403 17.9062 37.1222 19.2626 39.1936 21.9663L40.7812 20.75ZM103.906 62V64H105.906V62H103.906ZM91.6016 62H89.6016V64H91.6016V62ZM91.6016 55.9062H93.6016V53.9062H91.6016V55.9062ZM91.4062 55.9062V53.9062H90.3176L89.7266 54.8205L91.4062 55.9062ZM65.2734 22V20H63.2734V22H65.2734ZM77.5781 22H79.5781V20H77.5781V22ZM89.6094 51.2188L91.1224 52.5267L91.1279 52.5204L91.1333 52.514L89.6094 51.2188ZM91.6016 22V20H89.6016V22H91.6016ZM103.906 22H105.906V20H103.906V22ZM103.906 62V60H91.6016V62V64H103.906V62ZM91.6016 62H93.6016V55.9062H91.6016H89.6016V62H91.6016ZM91.6016 55.9062V53.9062H91.4062V55.9062V57.9062H91.6016V55.9062ZM91.4062 55.9062L89.7266 54.8205C87.0046 59.0314 83.5286 60.9766 79.1797 60.9766V62.9766V64.9766C85.0391 64.9766 89.7141 62.2082 93.0859 56.992L91.4062 55.9062ZM79.1797 62.9766V60.9766C74.964 60.9766 72.1299 59.719 70.292 57.4939C68.3936 55.1956 67.2734 51.5274 67.2734 46.1406H65.2734H63.2734C63.2734 51.9778 64.471 56.7276 67.208 60.0413C70.0055 63.4281 74.1245 64.9766 79.1797 64.9766V62.9766ZM65.2734 46.1406H67.2734V22H65.2734H63.2734V46.1406H65.2734ZM65.2734 22V24H77.5781V22V20H65.2734V22ZM77.5781 22H75.5781V45.0469H77.5781H79.5781V22H77.5781ZM77.5781 45.0469H75.5781C75.5781 48.0829 76.1707 50.7293 77.6905 52.6466C79.2804 54.6526 81.6094 55.5234 84.2969 55.5234V53.5234V51.5234C82.5052 51.5234 81.4748 50.9816 80.8252 50.162C80.1053 49.2538 79.5781 47.6619 79.5781 45.0469H77.5781ZM84.2969 53.5234V55.5234C87.0324 55.5234 89.3775 54.5453 91.1224 52.5267L89.6094 51.2188L88.0963 49.9108C87.185 50.9651 85.9884 51.5234 84.2969 51.5234V53.5234ZM89.6094 51.2188L91.1333 52.514C92.8501 50.4943 93.6016 47.8786 93.6016 44.8906H91.6016H89.6016C89.6016 47.2151 89.0249 48.8182 88.0855 49.9235L89.6094 51.2188ZM91.6016 44.8906H93.6016V22H91.6016H89.6016V44.8906H91.6016ZM91.6016 22V24H103.906V22V20H91.6016V22ZM103.906 22H101.906V62H103.906H105.906V22H103.906ZM140.43 33.1328L139.474 34.8898L142.43 36.4972V33.1328H140.43ZM128.945 34.8906L130.527 36.1141L130.535 36.104L128.945 34.8906ZM126.68 62V64H128.68V62H126.68ZM114.336 62H112.336V64H114.336V62ZM114.336 22V20H112.336V22H114.336ZM126.68 22H128.68V20H126.68V22ZM126.68 29.4219H124.68V31.4219H126.68V29.4219ZM126.836 29.4219V31.4219H128.241L128.717 30.1003L126.836 29.4219ZM140.43 21.7656H142.43V20.4468L141.218 19.9273L140.43 21.7656ZM140.43 33.1328L141.385 31.3758C139.561 30.3837 137.49 29.9219 135.234 29.9219V31.9219V33.9219C136.937 33.9219 138.33 34.2673 139.474 34.8898L140.43 33.1328ZM135.234 31.9219V29.9219C131.984 29.9219 129.277 31.1596 127.355 33.6773L128.945 34.8906L130.535 36.104C131.635 34.6633 133.12 33.9219 135.234 33.9219V31.9219ZM128.945 34.8906L127.363 33.6671C125.497 36.0803 124.68 39.2324 124.68 42.8984H126.68H128.68C128.68 39.7937 129.373 37.6072 130.527 36.1141L128.945 34.8906ZM126.68 42.8984H124.68V62H126.68H128.68V42.8984H126.68ZM126.68 62V60H114.336V62V64H126.68V62ZM114.336 62H116.336V22H114.336H112.336V62H114.336ZM114.336 22V24H126.68V22V20H114.336V22ZM126.68 22H124.68V29.4219H126.68H128.68V22H126.68ZM126.68 29.4219V31.4219H126.836V29.4219V27.4219H126.68V29.4219ZM126.836 29.4219L128.717 30.1003C129.602 27.6456 130.78 25.974 132.158 24.9125C133.517 23.8659 135.219 23.2969 137.383 23.2969V21.2969V19.2969C134.469 19.2969 131.874 20.082 129.717 21.7438C127.579 23.3906 126.023 25.7815 124.955 28.7435L126.836 29.4219ZM137.383 21.2969V23.2969C138.566 23.2969 139.271 23.445 139.642 23.6039L140.43 21.7656L141.218 19.9273C140.13 19.4612 138.804 19.2969 137.383 19.2969V21.2969ZM140.43 21.7656H138.43V33.1328H140.43H142.43V21.7656H140.43ZM218.789 62V64H221.623L220.673 61.3298L218.789 62ZM205.039 62L203.134 62.6091L203.579 64H205.039V62ZM201.055 49.5391L202.96 48.9299L202.515 47.5391H201.055V49.5391ZM181.133 49.5391V47.5391H179.668L179.226 48.9354L181.133 49.5391ZM177.188 62V64H178.652L179.094 62.6037L177.188 62ZM163.516 62L161.636 61.3159L160.659 64H163.516V62ZM183.906 5.98438V3.98438H182.506L182.027 5.30026L183.906 5.98438ZM198.867 5.98438L200.752 5.3142L200.279 3.98438H198.867V5.98438ZM198.164 39.8516V41.8516H200.903L200.069 39.2429L198.164 39.8516ZM192.148 21.0234L190.241 21.624L190.243 21.6321L192.148 21.0234ZM191.211 15.9844L193.202 15.7985L193.033 13.9844H191.211V15.9844ZM190.898 15.9844V13.9844H189.051L188.905 15.8261L190.898 15.9844ZM189.922 20.8672L188.018 20.2532L188.018 20.2559L189.922 20.8672ZM183.828 39.8516L181.924 39.2403L181.086 41.8516H183.828V39.8516ZM218.789 62V60H205.039V62V64H218.789V62ZM205.039 62L206.944 61.3909L202.96 48.9299L201.055 49.5391L199.15 50.1482L203.134 62.6091L205.039 62ZM201.055 49.5391V47.5391H181.133V49.5391V51.5391H201.055V49.5391ZM181.133 49.5391L179.226 48.9354L175.281 61.3963L177.188 62L179.094 62.6037L183.04 50.1428L181.133 49.5391ZM177.188 62V60H163.516V62V64H177.188V62ZM163.516 62L165.395 62.6841L185.786 6.66849L183.906 5.98438L182.027 5.30026L161.636 61.3159L163.516 62ZM183.906 5.98438V7.98438H198.867V5.98438V3.98438H183.906V5.98438ZM198.867 5.98438L196.983 6.65455L216.905 62.6702L218.789 62L220.673 61.3298L200.752 5.3142L198.867 5.98438ZM198.164 39.8516L200.069 39.2429L194.054 20.4147L192.148 21.0234L190.243 21.6321L196.259 40.4603L198.164 39.8516ZM192.148 21.0234L194.056 20.4229C193.667 19.1874 193.375 17.654 193.202 15.7985L191.211 15.9844L189.22 16.1702C189.411 18.221 189.744 20.047 190.241 21.624L192.148 21.0234ZM191.211 15.9844V13.9844H190.898V15.9844V17.9844H191.211V15.9844ZM190.898 15.9844L188.905 15.8261C188.787 17.3071 188.493 18.7819 188.018 20.2532L189.922 20.8672L191.825 21.4812C192.392 19.7233 192.749 17.9429 192.892 16.1426L190.898 15.9844ZM189.922 20.8672L188.018 20.2559L181.924 39.2403L183.828 39.8516L185.732 40.4628L191.826 21.4784L189.922 20.8672ZM183.828 39.8516V41.8516H198.164V39.8516V37.8516H183.828V39.8516ZM243.086 5.98438H245.086V3.98438H243.086V5.98438ZM243.086 15.75V17.75H245.086V15.75H243.086ZM238.398 15.75V13.75H236.398V15.75H238.398ZM238.398 52.2344H236.398V54.2344H238.398V52.2344ZM243.086 52.2344H245.086V50.2344H243.086V52.2344ZM243.086 62V64H245.086V62H243.086ZM221.094 62H219.094V64H221.094V62ZM221.094 52.2344V50.2344H219.094V52.2344H221.094ZM225.781 52.2344V54.2344H227.781V52.2344H225.781ZM225.781 15.75H227.781V13.75H225.781V15.75ZM221.094 15.75H219.094V17.75H221.094V15.75ZM221.094 5.98438V3.98438H219.094V5.98438H221.094ZM243.086 5.98438H241.086V15.75H243.086H245.086V5.98438H243.086ZM243.086 15.75V13.75H238.398V15.75V17.75H243.086V15.75ZM238.398 15.75H236.398V52.2344H238.398H240.398V15.75H238.398ZM238.398 52.2344V54.2344H243.086V52.2344V50.2344H238.398V52.2344ZM243.086 52.2344H241.086V62H243.086H245.086V52.2344H243.086ZM243.086 62V60H221.094V62V64H243.086V62ZM221.094 62H223.094V52.2344H221.094H219.094V62H221.094ZM221.094 52.2344V54.2344H225.781V52.2344V50.2344H221.094V52.2344ZM225.781 52.2344H227.781V15.75H225.781H223.781V52.2344H225.781ZM225.781 15.75V13.75H221.094V15.75V17.75H225.781V15.75ZM221.094 15.75H223.094V5.98438H221.094H219.094V15.75H221.094ZM221.094 5.98438V7.98438H243.086V5.98438V3.98438H221.094V5.98438ZM271.719 44.9688V46.9688H273.719V44.9688H271.719ZM250.352 44.9688H248.352V46.9688H250.352V44.9688ZM250.352 36.3359V34.3359H248.352V36.3359H250.352ZM271.719 36.3359H273.719V34.3359H271.719V36.3359ZM271.719 44.9688V42.9688H250.352V44.9688V46.9688H271.719V44.9688ZM250.352 44.9688H252.352V36.3359H250.352H248.352V44.9688H250.352ZM250.352 36.3359V38.3359H271.719V36.3359V34.3359H250.352V36.3359ZM271.719 36.3359H269.719V44.9688H271.719H273.719V36.3359H271.719ZM296.133 42.7031V40.7031H294.133V42.7031H296.133ZM296.133 62V64H298.133V62H296.133ZM283.516 62H281.516V64H283.516V62ZM283.516 5.98438V3.98438H281.516V5.98438H283.516ZM318.359 37.5078L319.662 39.0256L319.663 39.0249L318.359 37.5078ZM296.133 15.6719V13.6719H294.133V15.6719H296.133ZM296.133 33.1328H294.133V35.1328H296.133V33.1328ZM296.133 42.7031H294.133V62H296.133H298.133V42.7031H296.133ZM296.133 62V60H283.516V62V64H296.133V62ZM283.516 62H285.516V5.98438H283.516H281.516V62H283.516ZM283.516 5.98438V7.98438H303.281V5.98438V3.98438H283.516V5.98438ZM303.281 5.98438V7.98438C310.106 7.98438 314.851 9.43006 317.871 11.9763C320.825 14.4674 322.453 18.2916 322.453 23.8359H324.453H326.453C326.453 17.4792 324.552 12.3776 320.449 8.91825C316.412 5.51395 310.571 3.98438 303.281 3.98438V5.98438ZM324.453 23.8359H322.453C322.453 28.9113 320.652 32.9023 317.056 35.9907L318.359 37.5078L319.663 39.0249C324.192 35.1341 326.453 30.0106 326.453 23.8359H324.453ZM318.359 37.5078L317.057 35.99C313.473 39.0651 308.575 40.7031 302.148 40.7031V42.7031V44.7031C309.263 44.7031 315.173 42.8776 319.662 39.0256L318.359 37.5078ZM302.148 42.7031V40.7031H296.133V42.7031V44.7031H302.148V42.7031ZM296.133 15.6719H294.133V33.1328H296.133H298.133V15.6719H296.133ZM296.133 33.1328V35.1328H301.094V33.1328V31.1328H296.133V33.1328ZM301.094 33.1328V35.1328C304.701 35.1328 307.78 34.3485 309.97 32.4302C312.211 30.4676 313.172 27.6296 313.172 24.3047H311.172H309.172C309.172 26.8652 308.453 28.4413 307.335 29.4213C306.165 30.4457 304.205 31.1328 301.094 31.1328V33.1328ZM311.172 24.3047H313.172C313.172 21.031 312.202 18.2372 309.953 16.3111C307.764 14.4359 304.692 13.6719 301.094 13.6719V15.6719V17.6719C304.214 17.6719 306.181 18.3467 307.351 19.349C308.462 20.3006 309.172 21.8232 309.172 24.3047H311.172ZM301.094 15.6719V13.6719H296.133V15.6719V17.6719H301.094V15.6719ZM332.344 57.3906L330.939 58.8146L330.949 58.8242L332.344 57.3906ZM332.578 26.6484L333.949 28.1051L333.954 28.1003L332.578 26.6484ZM364.258 26.6484L362.848 28.0675L362.853 28.0724L364.258 26.6484ZM364.062 57.1953L362.658 55.7716L362.653 55.7763L364.062 57.1953ZM348.086 62.9766V60.9766C341.804 60.9766 337.106 59.2328 333.738 55.957L332.344 57.3906L330.949 58.8242C335.238 62.9963 341.034 64.9766 348.086 64.9766V62.9766ZM332.344 57.3906L333.748 55.9667C330.402 52.666 328.641 48.1419 328.641 42.1562H326.641H324.641C324.641 48.9831 326.682 54.6152 330.939 58.8146L332.344 57.3906ZM326.641 42.1562H328.641C328.641 35.9644 330.477 31.3711 333.949 28.1051L332.578 26.6484L331.208 25.1918C326.763 29.3737 324.641 35.1189 324.641 42.1562H326.641ZM332.578 26.6484L333.954 28.1003C337.457 24.7811 342.272 23.0234 348.633 23.0234V21.0234V19.0234C341.504 19.0234 335.616 21.0157 331.203 25.1965L332.578 26.6484ZM348.633 21.0234V23.0234C354.884 23.0234 359.535 24.7768 362.849 28.0675L364.258 26.6484L365.667 25.2293C361.429 21.0201 355.663 19.0234 348.633 19.0234V21.0234ZM364.258 26.6484L362.853 28.0724C366.187 31.3604 367.922 35.7504 367.922 41.4531H369.922H371.922C371.922 34.8642 369.88 29.3844 365.662 25.2244L364.258 26.6484ZM369.922 41.4531H367.922C367.922 47.6789 366.105 52.3701 362.658 55.7716L364.062 57.1953L365.467 58.619C369.832 54.3122 371.922 48.5086 371.922 41.4531H369.922ZM364.062 57.1953L362.653 55.7763C359.232 59.174 354.462 60.9766 348.086 60.9766V62.9766V64.9766C355.252 64.9766 361.132 62.9249 365.472 58.6143L364.062 57.1953ZM348.398 30.4766V28.4766C344.967 28.4766 342.092 29.6868 340.044 32.2301L341.602 33.4844L343.159 34.7387C344.341 33.2715 345.996 32.4766 348.398 32.4766V30.4766ZM341.602 33.4844L340.044 32.2301C338.043 34.7149 337.18 38.062 337.18 42H339.18H341.18C341.18 38.5943 341.931 36.2643 343.159 34.7387L341.602 33.4844ZM339.18 42H337.18C337.18 46.0578 337.99 49.4718 339.947 51.8984C341.971 54.4071 344.942 55.5234 348.477 55.5234V53.5234V51.5234C345.813 51.5234 344.135 50.7192 343.06 49.3868C341.919 47.9722 341.18 45.6245 341.18 42H339.18ZM348.477 53.5234V55.5234C351.921 55.5234 354.795 54.3435 356.728 51.7636C358.579 49.2923 359.344 45.8248 359.344 41.6875H357.344H355.344C355.344 45.4408 354.631 47.8913 353.526 49.3653C352.503 50.7307 350.943 51.5234 348.477 51.5234V53.5234ZM357.344 41.6875H359.344C359.344 37.7377 358.565 34.4055 356.671 32.0319C354.708 29.5721 351.823 28.4766 348.398 28.4766V30.4766V32.4766C350.937 32.4766 352.525 33.2495 353.544 34.5267C354.632 35.8901 355.344 38.1633 355.344 41.6875H357.344ZM435.859 22L437.781 22.5537L438.517 20H435.859V22ZM424.336 62V64H425.841L426.258 62.5537L424.336 62ZM411.367 62L409.428 62.4881L409.808 64H411.367V62ZM405.469 38.5625L403.528 39.0476L403.529 39.0506L405.469 38.5625ZM404.805 33.4453L406.804 33.389L406.749 31.4453H404.805V33.4453ZM404.57 33.4453V31.4453H402.742L402.578 33.2665L404.57 33.4453ZM403.789 38.4062L405.721 38.9244L405.722 38.9191L403.789 38.4062ZM397.461 62V64H398.995L399.393 62.5181L397.461 62ZM384.648 62L382.724 62.5432L383.135 64H384.648V62ZM373.359 22V20H370.717L371.435 22.5432L373.359 22ZM385.938 22L387.894 21.5869L387.559 20H385.938V22ZM391.445 48.0938L389.488 48.5068L389.489 48.51L391.445 48.0938ZM392.031 52.5469L390.037 52.6957L390.175 54.5469H392.031V52.5469ZM392.266 52.5469V54.5469H394.128L394.261 52.6894L392.266 52.5469ZM392.969 47.9375L394.899 48.4603L394.902 48.4499L392.969 47.9375ZM399.844 22V20H398.305L397.911 21.4876L399.844 22ZM411.602 22L413.548 21.5396L413.184 20H411.602V22ZM417.773 48.0938L415.827 48.5541L415.829 48.5605L417.773 48.0938ZM418.32 52.625L416.328 52.8001L416.488 54.625H418.32V52.625ZM418.594 52.625V54.625H420.429L420.586 52.7968L418.594 52.625ZM419.219 48.0938L417.257 47.7032L417.255 47.7121L417.254 47.7211L419.219 48.0938ZM424.414 22V20H422.773L422.453 21.6095L424.414 22ZM435.859 22L433.938 21.4463L422.414 61.4463L424.336 62L426.258 62.5537L437.781 22.5537L435.859 22ZM424.336 62V60H411.367V62V64H424.336V62ZM411.367 62L413.307 61.5119L407.408 38.0744L405.469 38.5625L403.529 39.0506L409.428 62.4881L411.367 62ZM405.469 38.5625L407.409 38.0774C407.058 36.6742 406.852 35.1142 406.804 33.389L404.805 33.4453L402.805 33.5016C402.861 35.4744 403.098 37.3258 403.528 39.0476L405.469 38.5625ZM404.805 33.4453V31.4453H404.57V33.4453V35.4453H404.805V33.4453ZM404.57 33.4453L402.578 33.2665C402.401 35.2387 402.154 36.7689 401.856 37.8934L403.789 38.4062L405.722 38.9191C406.101 37.4915 406.375 35.7144 406.562 33.6241L404.57 33.4453ZM403.789 38.4062L401.857 37.8881L395.529 61.4819L397.461 62L399.393 62.5181L405.721 38.9244L403.789 38.4062ZM397.461 62V60H384.648V62V64H397.461V62ZM384.648 62L386.573 61.4568L375.284 21.4568L373.359 22L371.435 22.5432L382.724 62.5432L384.648 62ZM373.359 22V24H385.938V22V20H373.359V22ZM385.938 22L383.981 22.4131L389.488 48.5068L391.445 48.0938L393.402 47.6807L387.894 21.5869L385.938 22ZM391.445 48.0938L389.489 48.51C389.725 49.6188 389.911 51.0084 390.037 52.6957L392.031 52.5469L394.026 52.398C393.891 50.5958 393.686 49.0166 393.402 47.6775L391.445 48.0938ZM392.031 52.5469V54.5469H392.266V52.5469V50.5469H392.031V52.5469ZM392.266 52.5469L394.261 52.6894C394.385 50.9471 394.605 49.5468 394.899 48.4603L392.969 47.9375L391.038 47.4147C390.655 48.8282 390.407 50.5008 390.271 52.4044L392.266 52.5469ZM392.969 47.9375L394.902 48.4499L401.777 22.5124L399.844 22L397.911 21.4876L391.036 47.4251L392.969 47.9375ZM399.844 22V24H411.602V22V20H399.844V22ZM411.602 22L409.655 22.4604L415.827 48.5541L417.773 48.0938L419.72 47.6334L413.548 21.5396L411.602 22ZM417.773 48.0938L415.829 48.5605C415.943 49.038 416.116 50.3871 416.328 52.8001L418.32 52.625L420.313 52.4499C420.108 50.1233 419.916 48.4516 419.718 47.627L417.773 48.0938ZM418.32 52.625V54.625H418.594V52.625V50.625H418.32V52.625ZM418.594 52.625L420.586 52.7968C420.711 51.3547 420.91 49.9113 421.184 48.4664L419.219 48.0938L417.254 47.7211C416.955 49.297 416.737 50.8745 416.601 52.4532L418.594 52.625ZM419.219 48.0938L421.18 48.4843L426.376 22.3905L424.414 22L422.453 21.6095L417.257 47.7032L419.219 48.0938ZM424.414 22V24H435.859V22V20H424.414V22ZM477.305 45.5156V47.5156H479.305V45.5156H477.305ZM451.211 45.5156V43.5156H449.062L449.216 45.6588L451.211 45.5156ZM473.789 51.1016H475.789V47.4931L472.729 49.4056L473.789 51.1016ZM473.789 60.0078L474.733 61.7711L475.789 61.2058V60.0078H473.789ZM444.336 57.625L442.917 59.0341L442.922 59.0392L444.336 57.625ZM444.766 26.8438L443.347 25.4343L444.766 26.8438ZM472.5 26.2188L471.026 27.5707L471.032 27.5767L472.5 26.2188ZM465.859 37.9375V39.9375H467.859V37.9375H465.859ZM453.75 31.8047L452.255 30.476L452.249 30.4826L452.243 30.4894L453.75 31.8047ZM451.133 37.9375L449.149 37.6842L448.861 39.9375H451.133V37.9375ZM477.305 45.5156V43.5156H451.211V45.5156V47.5156H477.305V45.5156ZM451.211 45.5156L449.216 45.6588C449.454 48.9736 450.652 51.7329 453.024 53.6154C455.341 55.4542 458.493 56.2266 462.188 56.2266V54.2266V52.2266C458.981 52.2266 456.853 51.5471 455.511 50.4822C454.224 49.4611 453.385 47.865 453.206 45.3725L451.211 45.5156ZM462.188 54.2266V56.2266C466.917 56.2266 471.161 55.1027 474.849 52.7976L473.789 51.1016L472.729 49.4056C469.751 51.2671 466.26 52.2266 462.188 52.2266V54.2266ZM473.789 51.1016H471.789V60.0078H473.789H475.789V51.1016H473.789ZM473.789 60.0078L472.845 58.2445C469.532 60.0177 465.084 60.9766 459.375 60.9766V62.9766V64.9766C465.489 64.9766 470.65 63.9562 474.733 61.7711L473.789 60.0078ZM459.375 62.9766V60.9766C453.291 60.9766 448.845 59.3061 445.75 56.2108L444.336 57.625L442.922 59.0392C446.962 63.0793 452.542 64.9766 459.375 64.9766V62.9766ZM444.336 57.625L445.755 56.2159C442.652 53.0897 440.984 48.6504 440.984 42.625H438.984H436.984C436.984 49.4121 438.885 54.9728 442.917 59.0341L444.336 57.625ZM438.984 42.625H440.984C440.984 36.392 442.78 31.6811 446.185 28.2532L444.766 26.8438L443.347 25.4343C439.043 29.7668 436.984 35.5768 436.984 42.625H438.984ZM444.766 26.8438L446.185 28.2532C449.651 24.7629 453.875 23.0234 458.984 23.0234V21.0234V19.0234C452.844 19.0234 447.588 21.1642 443.347 25.4343L444.766 26.8438ZM458.984 21.0234V23.0234C464.402 23.0234 468.316 24.6161 471.026 27.5707L472.5 26.2188L473.974 24.8668C470.33 20.8943 465.233 19.0234 458.984 19.0234V21.0234ZM472.5 26.2188L471.032 27.5767C473.811 30.5819 475.305 34.7507 475.305 40.3203H477.305H479.305C479.305 34.015 477.595 28.7827 473.968 24.8608L472.5 26.2188ZM477.305 40.3203H475.305V45.5156H477.305H479.305V40.3203H477.305ZM465.859 37.9375H467.859C467.859 34.8552 467.244 32.1727 465.676 30.2342C464.042 28.2147 461.658 27.3438 458.906 27.3438V29.3438V31.3438C460.79 31.3438 461.883 31.9051 462.566 32.7502C463.316 33.6762 463.859 35.2906 463.859 37.9375H465.859ZM458.906 29.3438V27.3438C456.29 27.3438 454.047 28.4604 452.255 30.476L453.75 31.8047L455.245 33.1334C456.37 31.8677 457.564 31.3438 458.906 31.3438V29.3438ZM453.75 31.8047L452.243 30.4894C450.516 32.4675 449.505 34.8969 449.149 37.6842L451.133 37.9375L453.117 38.1908C453.386 36.0822 454.119 34.4232 455.257 33.12L453.75 31.8047ZM451.133 37.9375V39.9375H465.859V37.9375V35.9375H451.133V37.9375ZM510.742 33.1328L509.787 34.8898L512.742 36.4972V33.1328H510.742ZM499.258 34.8906L500.84 36.1141L500.848 36.104L499.258 34.8906ZM496.992 62V64H498.992V62H496.992ZM484.648 62H482.648V64H484.648V62ZM484.648 22V20H482.648V22H484.648ZM496.992 22H498.992V20H496.992V22ZM496.992 29.4219H494.992V31.4219H496.992V29.4219ZM497.148 29.4219V31.4219H498.553L499.03 30.1003L497.148 29.4219ZM510.742 21.7656H512.742V20.4468L511.53 19.9273L510.742 21.7656ZM510.742 33.1328L511.698 31.3758C509.874 30.3837 507.802 29.9219 505.547 29.9219V31.9219V33.9219C507.25 33.9219 508.642 34.2673 509.787 34.8898L510.742 33.1328ZM505.547 31.9219V29.9219C502.297 29.9219 499.589 31.1596 497.668 33.6773L499.258 34.8906L500.848 36.104C501.947 34.6633 503.432 33.9219 505.547 33.9219V31.9219ZM499.258 34.8906L497.676 33.6671C495.81 36.0803 494.992 39.2324 494.992 42.8984H496.992H498.992C498.992 39.7937 499.685 37.6072 500.84 36.1141L499.258 34.8906ZM496.992 42.8984H494.992V62H496.992H498.992V42.8984H496.992ZM496.992 62V60H484.648V62V64H496.992V62ZM484.648 62H486.648V22H484.648H482.648V62H484.648ZM484.648 22V24H496.992V22V20H484.648V22ZM496.992 22H494.992V29.4219H496.992H498.992V22H496.992ZM496.992 29.4219V31.4219H497.148V29.4219V27.4219H496.992V29.4219ZM497.148 29.4219L499.03 30.1003C499.915 27.6456 501.093 25.974 502.471 24.9125C503.829 23.8659 505.531 23.2969 507.695 23.2969V21.2969V19.2969C504.781 19.2969 502.186 20.082 500.029 21.7438C497.892 23.3906 496.335 25.7815 495.267 28.7435L497.148 29.4219ZM507.695 21.2969V23.2969C508.878 23.2969 509.584 23.445 509.954 23.6039L510.742 21.7656L511.53 19.9273C510.442 19.4612 509.116 19.2969 507.695 19.2969V21.2969ZM510.742 21.7656H508.742V33.1328H510.742H512.742V21.7656H510.742ZM552.148 45.5156V47.5156H554.148V45.5156H552.148ZM526.055 45.5156V43.5156H523.906L524.06 45.6588L526.055 45.5156ZM548.633 51.1016H550.633V47.4931L547.573 49.4056L548.633 51.1016ZM548.633 60.0078L549.577 61.7711L550.633 61.2058V60.0078H548.633ZM519.18 57.625L517.76 59.0341L517.766 59.0392L519.18 57.625ZM519.609 26.8438L518.19 25.4343L519.609 26.8438ZM547.344 26.2188L545.87 27.5707L545.875 27.5767L547.344 26.2188ZM540.703 37.9375V39.9375H542.703V37.9375H540.703ZM528.594 31.8047L527.099 30.476L527.093 30.4826L527.087 30.4894L528.594 31.8047ZM525.977 37.9375L523.993 37.6842L523.705 39.9375H525.977V37.9375ZM552.148 45.5156V43.5156H526.055V45.5156V47.5156H552.148V45.5156ZM526.055 45.5156L524.06 45.6588C524.298 48.9736 525.496 51.7329 527.868 53.6154C530.185 55.4542 533.337 56.2266 537.031 56.2266V54.2266V52.2266C533.825 52.2266 531.696 51.5471 530.355 50.4822C529.068 49.4611 528.228 47.865 528.05 45.3725L526.055 45.5156ZM537.031 54.2266V56.2266C541.761 56.2266 546.005 55.1027 549.693 52.7976L548.633 51.1016L547.573 49.4056C544.594 51.2671 541.104 52.2266 537.031 52.2266V54.2266ZM548.633 51.1016H546.633V60.0078H548.633H550.633V51.1016H548.633ZM548.633 60.0078L547.689 58.2445C544.376 60.0177 539.928 60.9766 534.219 60.9766V62.9766V64.9766C540.333 64.9766 545.494 63.9562 549.577 61.7711L548.633 60.0078ZM534.219 62.9766V60.9766C528.135 60.9766 523.689 59.3061 520.594 56.2108L519.18 57.625L517.766 59.0392C521.806 63.0793 527.386 64.9766 534.219 64.9766V62.9766ZM519.18 57.625L520.599 56.2159C517.495 53.0897 515.828 48.6504 515.828 42.625H513.828H511.828C511.828 49.4121 513.729 54.9728 517.76 59.0341L519.18 57.625ZM513.828 42.625H515.828C515.828 36.392 517.623 31.6811 521.028 28.2532L519.609 26.8438L518.19 25.4343C513.887 29.7668 511.828 35.5768 511.828 42.625H513.828ZM519.609 26.8438L521.028 28.2532C524.495 24.7629 528.719 23.0234 533.828 23.0234V21.0234V19.0234C527.687 19.0234 522.432 21.1642 518.19 25.4343L519.609 26.8438ZM533.828 21.0234V23.0234C539.246 23.0234 543.16 24.6161 545.87 27.5707L547.344 26.2188L548.818 24.8668C545.174 20.8943 540.077 19.0234 533.828 19.0234V21.0234ZM547.344 26.2188L545.875 27.5767C548.655 30.5819 550.148 34.7507 550.148 40.3203H552.148H554.148C554.148 34.015 552.439 28.7827 548.812 24.8608L547.344 26.2188ZM552.148 40.3203H550.148V45.5156H552.148H554.148V40.3203H552.148ZM540.703 37.9375H542.703C542.703 34.8552 542.088 32.1727 540.52 30.2342C538.886 28.2147 536.501 27.3438 533.75 27.3438V29.3438V31.3438C535.634 31.3438 536.726 31.9051 537.41 32.7502C538.159 33.6762 538.703 35.2906 538.703 37.9375H540.703ZM533.75 29.3438V27.3438C531.133 27.3438 528.891 28.4604 527.099 30.476L528.594 31.8047L530.089 33.1334C531.214 31.8677 532.408 31.3438 533.75 31.3438V29.3438ZM528.594 31.8047L527.087 30.4894C525.36 32.4675 524.349 34.8969 523.993 37.6842L525.977 37.9375L527.96 38.1908C528.23 36.0822 528.963 34.4232 530.1 33.12L528.594 31.8047ZM525.977 37.9375V39.9375H540.703V37.9375V35.9375H525.977V37.9375ZM598.633 62V64H600.633V62H598.633ZM586.289 62H584.289V64H586.289V62ZM586.289 56.4922H588.289V54.4922H586.289V56.4922ZM586.133 56.4922V54.4922H585.048L584.456 55.4015L586.133 56.4922ZM561.68 57.7031L560.164 59.0075L560.168 59.013L561.68 57.7031ZM586.133 26.5703L584.38 27.5332L584.95 28.5703H586.133V26.5703ZM586.289 26.5703V28.5703H588.289V26.5703H586.289ZM586.289 2.78125V0.78125H584.289V2.78125H586.289ZM598.633 2.78125H600.633V0.78125H598.633V2.78125ZM571.953 33.7188L573.577 34.8869L573.583 34.8775L571.953 33.7188ZM571.875 50.6719L570.299 51.9027L571.875 50.6719ZM584.141 50.5156L582.573 49.2737L582.568 49.28L582.563 49.2863L584.141 50.5156ZM598.633 62V60H586.289V62V64H598.633V62ZM586.289 62H588.289V56.4922H586.289H584.289V62H586.289ZM586.289 56.4922V54.4922H586.133V56.4922V58.4922H586.289V56.4922ZM586.133 56.4922L584.456 55.4015C582.037 59.1206 578.561 60.9766 573.75 60.9766V62.9766V64.9766C579.824 64.9766 584.604 62.5096 587.809 57.5829L586.133 56.4922ZM573.75 62.9766V60.9766C569.281 60.9766 565.827 59.4348 563.191 56.3933L561.68 57.7031L560.168 59.013C563.626 63.0027 568.219 64.9766 573.75 64.9766V62.9766ZM561.68 57.7031L563.196 56.3988C560.557 53.3312 559.109 48.9184 559.109 42.8984H557.109H555.109C555.109 49.5347 556.709 54.9917 560.164 59.0075L561.68 57.7031ZM557.109 42.8984H559.109C559.109 36.6255 560.697 31.8244 563.677 28.2892L562.148 27L560.619 25.7108C556.881 30.1443 555.109 35.9422 555.109 42.8984H557.109ZM562.148 27L563.677 28.2892C566.638 24.778 570.468 23.0234 575.352 23.0234V21.0234V19.0234C569.349 19.0234 564.378 21.2533 560.619 25.7108L562.148 27ZM575.352 21.0234V23.0234C579.97 23.0234 582.784 24.6272 584.38 27.5332L586.133 26.5703L587.886 25.6074C585.419 21.1176 581.046 19.0234 575.352 19.0234V21.0234ZM586.133 26.5703V28.5703H586.289V26.5703V24.5703H586.133V26.5703ZM586.289 26.5703H588.289V2.78125H586.289H584.289V26.5703H586.289ZM586.289 2.78125V4.78125H598.633V2.78125V0.78125H586.289V2.78125ZM598.633 2.78125H596.633V62H598.633H600.633V2.78125H598.633ZM586.523 42.5469H588.523V39.5391H586.523H584.523V42.5469H586.523ZM586.523 39.5391H588.523C588.523 36.5206 587.636 33.8686 585.76 31.7345L584.258 33.0547L582.755 34.3749C583.901 35.6782 584.523 37.3492 584.523 39.5391H586.523ZM584.258 33.0547L585.76 31.7345C583.846 29.5558 581.318 28.4766 578.359 28.4766V30.4766V32.4766C580.244 32.4766 581.649 33.1161 582.755 34.3749L584.258 33.0547ZM578.359 30.4766V28.4766C575.001 28.4766 572.248 29.8516 570.323 32.56L571.953 33.7188L573.583 34.8775C574.731 33.263 576.249 32.4766 578.359 32.4766V30.4766ZM571.953 33.7188L570.33 32.5507C568.464 35.1435 567.648 38.5497 567.648 42.5469H569.648H571.648C571.648 39.044 572.369 36.5648 573.577 34.8868L571.953 33.7188ZM569.648 42.5469H567.648C567.648 46.3114 568.439 49.5212 570.299 51.9027L571.875 50.6719L573.451 49.441C572.342 48.0205 571.648 45.8136 571.648 42.5469H569.648ZM571.875 50.6719L570.299 51.9027C572.2 54.3375 574.865 55.5234 578.047 55.5234V53.5234V51.5234C575.969 51.5234 574.519 50.8083 573.451 49.441L571.875 50.6719ZM578.047 53.5234V55.5234C581.175 55.5234 583.784 54.2269 585.718 51.7449L584.141 50.5156L582.563 49.2863C581.372 50.8148 579.918 51.5234 578.047 51.5234V53.5234ZM584.141 50.5156L585.708 51.7576C587.65 49.3069 588.523 46.1716 588.523 42.5469H586.523H584.523C584.523 45.5367 583.809 47.7139 582.573 49.2737L584.141 50.5156ZM629.766 59.8516H627.766V61.0736L628.853 61.6312L629.766 59.8516ZM629.766 47.3516L631.051 45.8195L627.766 43.0626V47.3516H629.766ZM637.148 51.6484L636.466 53.5286L636.475 53.5315L636.483 53.5344L637.148 51.6484ZM649.336 52.625L648.871 50.6798L648.861 50.6822L649.336 52.625ZM652.305 51.4531L653.375 53.1428L653.382 53.1383L653.389 53.1337L652.305 51.4531ZM654.102 49.6562L655.834 50.6557L655.842 50.6417L655.85 50.6275L654.102 49.6562ZM651.172 42.0781L650.044 43.7297L650.053 43.736L650.062 43.7422L651.172 42.0781ZM642.539 37.8984L641.77 39.7446L641.782 39.7495L642.539 37.8984ZM632.734 31.2188L631.182 32.4794L631.189 32.4886L632.734 31.2188ZM631.289 14.1875L633.032 15.168L633.037 15.1588L631.289 14.1875ZM636.055 8.99219L634.945 7.32806L634.935 7.33474L636.055 8.99219ZM643.086 6.02344L643.544 7.97027L643.553 7.96815L643.562 7.96594L643.086 6.02344ZM659.258 5.59375L658.936 7.56776L658.949 7.56986L658.962 7.57179L659.258 5.59375ZM665.508 7.19531H667.508V5.82036L666.224 5.32796L665.508 7.19531ZM665.508 18.875L664.367 20.5177L667.508 22.6988V18.875H665.508ZM662.422 17.1562L661.598 18.9785L661.606 18.9821L661.614 18.9856L662.422 17.1562ZM659.023 15.9453L658.468 17.8667L658.488 17.8725L658.508 17.8778L659.023 15.9453ZM655.508 15.2031L655.238 17.1848L655.243 17.1856L655.508 15.2031ZM648.32 15.3984L648.754 17.3508L648.775 17.3462L648.795 17.3412L648.32 15.3984ZM645.352 16.5312L646.397 18.2365L645.352 16.5312ZM643.477 18.3281L645.151 19.4226L645.16 19.4083L645.169 19.3938L643.477 18.3281ZM643.555 23.1719L641.882 24.2679L641.891 24.2815L641.9 24.2949L643.555 23.1719ZM645.664 25.2812L644.471 26.8867L644.486 26.8979L644.502 26.9087L645.664 25.2812ZM648.984 27.2344L648.09 29.0232L648.104 29.0304L648.119 29.0374L648.984 27.2344ZM653.398 29.1875L654.171 27.3426L654.161 27.3388L653.398 29.1875ZM659.414 32.1953L658.381 33.9081L658.396 33.917L658.411 33.9256L659.414 32.1953ZM666.953 40.3203L665.092 41.0534L665.096 41.0631L666.953 40.3203ZM666.172 54.1484L664.428 53.1699L664.424 53.1772L666.172 54.1484ZM661.367 59.3047L662.447 60.9884L662.454 60.9836L662.462 60.9786L661.367 59.3047ZM654.258 62.1172L653.844 60.1605L653.84 60.1613L654.258 62.1172ZM636.953 62.1953L636.582 64.1606L636.586 64.1613L636.953 62.1953ZM629.766 59.8516H631.766V47.3516H629.766H627.766V59.8516H629.766ZM629.766 47.3516L628.48 48.8837C630.917 50.928 633.58 52.4815 636.466 53.5286L637.148 51.6484L637.83 49.7683C635.404 48.8883 633.146 47.5772 631.051 45.8195L629.766 47.3516ZM637.148 51.6484L636.483 53.5344C639.344 54.5443 642.251 55.0547 645.195 55.0547V53.0547V51.0547C642.723 51.0547 640.265 50.6276 637.814 49.7625L637.148 51.6484ZM645.195 53.0547V55.0547C646.897 55.0547 648.443 54.902 649.811 54.5678L649.336 52.625L648.861 50.6822C647.885 50.9209 646.671 51.0547 645.195 51.0547V53.0547ZM649.336 52.625L649.801 54.5702C651.147 54.2484 652.357 53.7873 653.375 53.1428L652.305 51.4531L651.235 49.7635C650.69 50.1085 649.921 50.4287 648.871 50.6798L649.336 52.625ZM652.305 51.4531L653.389 53.1337C654.403 52.4794 655.252 51.6641 655.834 50.6557L654.102 49.6562L652.369 48.6568C652.17 49.0026 651.821 49.3852 651.22 49.7725L652.305 51.4531ZM654.102 49.6562L655.85 50.6275C656.406 49.6262 656.688 48.5365 656.688 47.3906H654.688H652.688C652.688 47.8593 652.578 48.2801 652.353 48.685L654.102 49.6562ZM654.688 47.3906H656.688C656.688 45.8875 656.249 44.4964 655.367 43.2846L653.75 44.4609L652.133 45.6373C652.501 46.1442 652.688 46.7063 652.688 47.3906H654.688ZM653.75 44.4609L655.367 43.2846C654.575 42.1945 653.527 41.2445 652.281 40.414L651.172 42.0781L650.062 43.7422C651.004 44.3701 651.675 45.0086 652.133 45.6373L653.75 44.4609ZM651.172 42.0781L652.3 40.4265C651.117 39.6188 649.736 38.8619 648.174 38.1491L647.344 39.9688L646.514 41.7884C647.92 42.4297 649.091 43.0791 650.044 43.7297L651.172 42.0781ZM647.344 39.9688L648.174 38.1491C646.662 37.4597 645.036 36.7591 643.296 36.0473L642.539 37.8984L641.782 39.7495C643.479 40.444 645.056 41.1236 646.514 41.7884L647.344 39.9688ZM642.539 37.8984L643.308 36.0523C639.123 34.3085 636.168 32.247 634.28 29.9489L632.734 31.2188L631.189 32.4886C633.624 35.4509 637.205 37.8425 641.77 39.7446L642.539 37.8984ZM632.734 31.2188L634.287 29.9581C632.47 27.7203 631.531 25.0009 631.531 21.6875H629.531H627.531C627.531 25.822 628.728 29.4568 631.182 32.4794L632.734 31.2188ZM629.531 21.6875H631.531C631.531 19.0392 632.062 16.8927 633.032 15.168L631.289 14.1875L629.546 13.207C628.172 15.649 627.531 18.5025 627.531 21.6875H629.531ZM631.289 14.1875L633.037 15.1588C634.056 13.3252 635.429 11.8282 637.174 10.6496L636.055 8.99219L634.935 7.33474C632.67 8.86447 630.866 10.8311 629.541 13.2162L631.289 14.1875ZM636.055 8.99219L637.164 10.6563C638.975 9.44912 641.093 8.54703 643.544 7.97027L643.086 6.02344L642.628 4.0766C639.767 4.74985 637.197 5.82692 634.945 7.32809L636.055 8.99219ZM643.086 6.02344L643.562 7.96594C646.05 7.35619 648.702 7.04688 651.523 7.04688V5.04688V3.04688C648.408 3.04688 645.435 3.3886 642.61 4.08093L643.086 6.02344ZM651.523 5.04688V7.04688C654.361 7.04688 656.828 7.22454 658.936 7.56776L659.258 5.59375L659.579 3.61974C657.208 3.23379 654.519 3.04688 651.523 3.04688V5.04688ZM659.258 5.59375L658.962 7.57179C661.102 7.89147 663.042 8.39158 664.792 9.06266L665.508 7.19531L666.224 5.32796C664.172 4.54071 661.945 3.97312 659.553 3.61571L659.258 5.59375ZM665.508 7.19531H663.508V18.875H665.508H667.508V7.19531H665.508ZM665.508 18.875L666.649 17.2323C665.599 16.5035 664.458 15.8695 663.23 15.3269L662.422 17.1562L661.614 18.9856C662.625 19.4326 663.541 19.9444 664.367 20.5177L665.508 18.875ZM662.422 17.1562L663.246 15.334C662.052 14.7936 660.815 14.3533 659.539 14.0128L659.023 15.9453L658.508 17.8778C659.575 18.1623 660.605 18.5293 661.598 18.9785L662.422 17.1562ZM659.023 15.9453L659.578 14.0239C658.314 13.6587 657.045 13.3904 655.772 13.2207L655.508 15.2031L655.243 17.1856C656.314 17.3283 657.389 17.5549 658.468 17.8667L659.023 15.9453ZM655.508 15.2031L655.778 13.2215C654.552 13.0543 653.368 12.9688 652.227 12.9688V14.9688V16.9688C653.169 16.9688 654.172 17.0394 655.238 17.1848L655.508 15.2031ZM652.227 14.9688V12.9688C650.663 12.9688 649.198 13.1249 647.845 13.4556L648.32 15.3984L648.795 17.3412C649.786 17.0991 650.925 16.9688 652.227 16.9688V14.9688ZM648.32 15.3984L647.886 13.4461C646.554 13.7422 645.345 14.1894 644.306 14.826L645.352 16.5312L646.397 18.2365C646.972 17.8835 647.743 17.5755 648.754 17.3508L648.32 15.3984ZM645.352 16.5312L644.306 14.826C643.274 15.4589 642.412 16.2651 641.784 17.2625L643.477 18.3281L645.169 19.3938C645.426 18.9849 645.815 18.5931 646.397 18.2365L645.352 16.5312ZM643.477 18.3281L641.803 17.2336C641.134 18.2567 640.812 19.4101 640.812 20.6328H642.812H644.812C644.812 20.1368 644.934 19.7537 645.151 19.4226L643.477 18.3281ZM642.812 20.6328H640.812C640.812 21.9439 641.165 23.174 641.882 24.2679L643.555 23.1719L645.228 22.0758C644.955 21.6593 644.812 21.1967 644.812 20.6328H642.812ZM643.555 23.1719L641.9 24.2949C642.551 25.2544 643.429 26.1125 644.471 26.8867L645.664 25.2812L646.857 23.6758C646.076 23.0958 645.548 22.5476 645.21 22.0489L643.555 23.1719ZM645.664 25.2812L644.502 26.9087C645.519 27.6353 646.721 28.3385 648.09 29.0232L648.984 27.2344L649.879 25.4455C648.644 24.8282 647.632 24.2293 646.827 23.6538L645.664 25.2812ZM648.984 27.2344L648.119 29.0374C649.461 29.6818 650.968 30.348 652.635 31.0362L653.398 29.1875L654.161 27.3388C652.548 26.6729 651.112 26.037 649.85 25.4313L648.984 27.2344ZM653.398 29.1875L652.626 31.0324C654.791 31.9385 656.707 32.8985 658.381 33.9081L659.414 32.1953L660.447 30.4826C658.58 29.3568 656.485 28.3115 654.171 27.3426L653.398 29.1875ZM659.414 32.1953L658.411 33.9256C660.066 34.8852 661.45 35.9583 662.581 37.1357L664.023 35.75L665.466 34.3643C664.045 32.8855 662.355 31.5887 660.417 30.465L659.414 32.1953ZM664.023 35.75L662.581 37.1357C663.676 38.2751 664.511 39.5766 665.092 41.0534L666.953 40.3203L668.814 39.5873C668.042 37.6265 666.923 35.8812 665.466 34.3643L664.023 35.75ZM666.953 40.3203L665.096 41.0631C665.659 42.4699 665.969 44.187 665.969 46.2578H667.969H669.969C669.969 43.7974 669.602 41.5562 668.81 39.5775L666.953 40.3203ZM667.969 46.2578H665.969C665.969 49.1328 665.418 51.405 664.428 53.1699L666.172 54.1484L667.916 55.1269C669.322 52.6211 669.969 49.6328 669.969 46.2578H667.969ZM666.172 54.1484L664.424 53.1772C663.41 55.001 662.034 56.4792 660.273 57.6307L661.367 59.3047L662.462 60.9786C664.763 59.4739 666.59 57.5146 667.92 55.1197L666.172 54.1484ZM661.367 59.3047L660.288 57.6209C658.488 58.7749 656.35 59.6303 653.844 60.1605L654.258 62.1172L654.672 64.0739C657.582 63.4582 660.184 62.4387 662.447 60.9884L661.367 59.3047ZM654.258 62.1172L653.84 60.1613C651.307 60.7024 648.609 60.9766 645.742 60.9766V62.9766V64.9766C648.865 64.9766 651.844 64.6779 654.676 64.0731L654.258 62.1172ZM645.742 62.9766V60.9766C642.782 60.9766 639.976 60.7257 637.321 60.2294L636.953 62.1953L636.586 64.1613C639.503 64.7066 642.556 64.9766 645.742 64.9766V62.9766ZM636.953 62.1953L637.324 60.23C634.71 59.7369 632.505 59.0086 630.678 58.0719L629.766 59.8516L628.853 61.6312C631.089 62.7779 633.675 63.6121 636.582 64.1606L636.953 62.1953ZM679.297 57.3906L677.892 58.8146L677.902 58.8242L679.297 57.3906ZM679.531 26.6484L680.902 28.1051L680.907 28.1003L679.531 26.6484ZM711.211 26.6484L709.802 28.0675L709.807 28.0724L711.211 26.6484ZM711.016 57.1953L709.611 55.7716L709.606 55.7763L711.016 57.1953ZM695.039 62.9766V60.9766C688.757 60.9766 684.059 59.2328 680.691 55.957L679.297 57.3906L677.902 58.8242C682.191 62.9963 687.988 64.9766 695.039 64.9766V62.9766ZM679.297 57.3906L680.701 55.9667C677.355 52.666 675.594 48.1419 675.594 42.1562H673.594H671.594C671.594 48.9831 673.635 54.6152 677.892 58.8146L679.297 57.3906ZM673.594 42.1562H675.594C675.594 35.9644 677.43 31.3711 680.902 28.1051L679.531 26.6484L678.161 25.1918C673.716 29.3737 671.594 35.1189 671.594 42.1562H673.594ZM679.531 26.6484L680.907 28.1003C684.41 24.7811 689.225 23.0234 695.586 23.0234V21.0234V19.0234C688.457 19.0234 682.569 21.0157 678.156 25.1965L679.531 26.6484ZM695.586 21.0234V23.0234C701.837 23.0234 706.488 24.7768 709.802 28.0675L711.211 26.6484L712.62 25.2293C708.382 21.0201 702.616 19.0234 695.586 19.0234V21.0234ZM711.211 26.6484L709.807 28.0724C713.141 31.3604 714.875 35.7504 714.875 41.4531H716.875H718.875C718.875 34.8642 716.833 29.3844 712.615 25.2244L711.211 26.6484ZM716.875 41.4531H714.875C714.875 47.6789 713.058 52.3701 709.611 55.7716L711.016 57.1953L712.42 58.619C716.785 54.3122 718.875 48.5086 718.875 41.4531H716.875ZM711.016 57.1953L709.606 55.7763C706.186 59.174 701.415 60.9766 695.039 60.9766V62.9766V64.9766C702.205 64.9766 708.085 62.9249 712.425 58.6143L711.016 57.1953ZM695.352 30.4766V28.4766C691.92 28.4766 689.045 29.6868 686.997 32.2301L688.555 33.4844L690.112 34.7387C691.294 33.2715 692.949 32.4766 695.352 32.4766V30.4766ZM688.555 33.4844L686.997 32.2301C684.996 34.7149 684.133 38.062 684.133 42H686.133H688.133C688.133 38.5943 688.884 36.2643 690.112 34.7387L688.555 33.4844ZM686.133 42H684.133C684.133 46.0578 684.943 49.4718 686.9 51.8984C688.924 54.4071 691.895 55.5234 695.43 55.5234V53.5234V51.5234C692.766 51.5234 691.089 50.7192 690.014 49.3868C688.872 47.9722 688.133 45.6245 688.133 42H686.133ZM695.43 53.5234V55.5234C698.874 55.5234 701.748 54.3435 703.681 51.7636C705.532 49.2923 706.297 45.8248 706.297 41.6875H704.297H702.297C702.297 45.4408 701.584 47.8913 700.479 49.3653C699.456 50.7307 697.897 51.5234 695.43 51.5234V53.5234ZM704.297 41.6875H706.297C706.297 37.7377 705.518 34.4055 703.624 32.0319C701.661 29.5721 698.777 28.4766 695.352 28.4766V30.4766V32.4766C697.89 32.4766 699.478 33.2495 700.497 34.5267C701.585 35.8901 702.297 38.1633 702.297 41.6875H704.297ZM737.227 62V64H739.227V62H737.227ZM724.883 62H722.883V64H724.883V62ZM724.883 2.78125V0.78125H722.883V2.78125H724.883ZM737.227 2.78125H739.227V0.78125H737.227V2.78125ZM737.227 62V60H724.883V62V64H737.227V62ZM724.883 62H726.883V2.78125H724.883H722.883V62H724.883ZM724.883 2.78125V4.78125H737.227V2.78125V0.78125H724.883V2.78125ZM737.227 2.78125H735.227V62H737.227H739.227V2.78125H737.227ZM785.625 62V64H787.625V62H785.625ZM773.32 62H771.32V64H773.32V62ZM773.32 55.9062H775.32V53.9062H773.32V55.9062ZM773.125 55.9062V53.9062H772.036L771.445 54.8205L773.125 55.9062ZM746.992 22V20H744.992V22H746.992ZM759.297 22H761.297V20H759.297V22ZM771.328 51.2188L772.841 52.5267L772.847 52.5204L772.852 52.514L771.328 51.2188ZM773.32 22V20H771.32V22H773.32ZM785.625 22H787.625V20H785.625V22ZM785.625 62V60H773.32V62V64H785.625V62ZM773.32 62H775.32V55.9062H773.32H771.32V62H773.32ZM773.32 55.9062V53.9062H773.125V55.9062V57.9062H773.32V55.9062ZM773.125 55.9062L771.445 54.8205C768.723 59.0314 765.247 60.9766 760.898 60.9766V62.9766V64.9766C766.758 64.9766 771.433 62.2082 774.805 56.992L773.125 55.9062ZM760.898 62.9766V60.9766C756.683 60.9766 753.849 59.719 752.011 57.4939C750.112 55.1956 748.992 51.5274 748.992 46.1406H746.992H744.992C744.992 51.9778 746.19 56.7276 748.927 60.0413C751.724 63.4281 755.843 64.9766 760.898 64.9766V62.9766ZM746.992 46.1406H748.992V22H746.992H744.992V46.1406H746.992ZM746.992 22V24H759.297V22V20H746.992V22ZM759.297 22H757.297V45.0469H759.297H761.297V22H759.297ZM759.297 45.0469H757.297C757.297 48.0829 757.89 50.7293 759.409 52.6466C760.999 54.6526 763.328 55.5234 766.016 55.5234V53.5234V51.5234C764.224 51.5234 763.194 50.9816 762.544 50.162C761.824 49.2538 761.297 47.6619 761.297 45.0469H759.297ZM766.016 53.5234V55.5234C768.751 55.5234 771.096 54.5453 772.841 52.5267L771.328 51.2188L769.815 49.9108C768.904 50.9651 767.707 51.5234 766.016 51.5234V53.5234ZM771.328 51.2188L772.852 52.514C774.569 50.4943 775.32 47.8786 775.32 44.8906H773.32H771.32C771.32 47.2151 770.744 48.8182 769.804 49.9235L771.328 51.2188ZM773.32 44.8906H775.32V22H773.32H771.32V44.8906H773.32ZM773.32 22V24H785.625V22V20H773.32V22ZM785.625 22H783.625V62H785.625H787.625V22H785.625ZM820.234 61.5312L821.169 63.2994L822.234 62.7363V61.5312H820.234ZM798.945 31.1016H800.945V29.1016H798.945V31.1016ZM792.461 31.1016H790.461V33.1016H792.461V31.1016ZM792.461 22V20H790.461V22H792.461ZM798.945 22V24H800.945V22H798.945ZM798.945 13.3672L798.396 11.4441L796.945 11.8586V13.3672H798.945ZM811.25 9.85156H813.25V7.2001L810.701 7.92852L811.25 9.85156ZM811.25 22H809.25V24H811.25V22ZM820.234 22H822.234V20H820.234V22ZM820.234 31.1016V33.1016H822.234V31.1016H820.234ZM811.25 31.1016V29.1016H809.25V31.1016H811.25ZM820.234 52.3906H822.234V49.0165L819.274 50.6361L820.234 52.3906ZM820.234 61.5312L819.3 59.7631C817.91 60.4977 815.556 60.9766 811.992 60.9766V62.9766V64.9766C815.772 64.9766 818.913 64.4919 821.169 63.2994L820.234 61.5312ZM811.992 62.9766V60.9766C807.971 60.9766 805.318 59.9363 803.648 58.2009C801.964 56.4513 800.945 53.6505 800.945 49.4219H798.945H796.945C796.945 54.2297 798.101 58.2062 800.766 60.9749C803.445 63.7577 807.315 64.9766 811.992 64.9766V62.9766ZM798.945 49.4219H800.945V31.1016H798.945H796.945V49.4219H798.945ZM798.945 31.1016V29.1016H792.461V31.1016V33.1016H798.945V31.1016ZM792.461 31.1016H794.461V22H792.461H790.461V31.1016H792.461ZM792.461 22V24H798.945V22V20H792.461V22ZM798.945 22H800.945V13.3672H798.945H796.945V22H798.945ZM798.945 13.3672L799.495 15.2902L811.799 11.7746L811.25 9.85156L810.701 7.92852L798.396 11.4441L798.945 13.3672ZM811.25 9.85156H809.25V22H811.25H813.25V9.85156H811.25ZM811.25 22V24H820.234V22V20H811.25V22ZM820.234 22H818.234V31.1016H820.234H822.234V22H820.234ZM820.234 31.1016V29.1016H811.25V31.1016V33.1016H820.234V31.1016ZM811.25 31.1016H809.25V47.2734H811.25H813.25V31.1016H811.25ZM811.25 47.2734H809.25C809.25 49.5677 809.696 51.658 810.924 53.2043C812.221 54.8388 814.11 55.5234 816.211 55.5234V53.5234V51.5234C815.004 51.5234 814.413 51.1664 814.057 50.7175C813.63 50.1805 813.25 49.1458 813.25 47.2734H811.25ZM816.211 53.5234V55.5234C817.912 55.5234 819.581 55.0281 821.194 54.1451L820.234 52.3906L819.274 50.6361C818.128 51.2636 817.114 51.5234 816.211 51.5234V53.5234ZM820.234 52.3906H818.234V61.5312H820.234H822.234V52.3906H820.234ZM828.359 13.8359L826.989 15.2923L826.996 15.2995L827.004 15.3066L828.359 13.8359ZM838.594 4.73438L837.256 6.22096L837.263 6.22754L837.271 6.23405L838.594 4.73438ZM838.594 13.875L837.254 12.3899L837.247 12.3965L837.24 12.4031L838.594 13.875ZM839.57 62V64H841.57V62H839.57ZM827.227 62H825.227V64H827.227V62ZM827.227 22V20H825.227V22H827.227ZM839.57 22H841.57V20H839.57V22ZM833.477 15.6719V13.6719C831.813 13.6719 830.617 13.1968 829.715 12.3652L828.359 13.8359L827.004 15.3066C828.758 16.923 830.974 17.6719 833.477 17.6719V15.6719ZM828.359 13.8359L829.73 12.3795C828.797 11.5011 828.367 10.5017 828.367 9.26562H826.367H824.367C824.367 11.6233 825.266 13.6708 826.989 15.2923L828.359 13.8359ZM826.367 9.26562H828.367C828.367 7.96184 828.806 7.00771 829.683 6.23405L828.359 4.73438L827.036 3.2347C825.257 4.80479 824.367 6.87149 824.367 9.26562H826.367ZM828.359 4.73438L829.683 6.23405C830.583 5.43997 831.79 4.97656 833.477 4.97656V2.97656V0.976562C830.997 0.976562 828.792 1.68503 827.036 3.2347L828.359 4.73438ZM833.477 2.97656V4.97656C835.198 4.97656 836.393 5.44434 837.256 6.22096L838.594 4.73438L839.932 3.24779C838.19 1.68066 835.974 0.976562 833.477 0.976562V2.97656ZM838.594 4.73438L837.271 6.23405C838.147 7.00771 838.586 7.96184 838.586 9.26562H840.586H842.586C842.586 6.87149 841.696 4.80479 839.917 3.2347L838.594 4.73438ZM840.586 9.26562H838.586C838.586 10.6054 838.139 11.5914 837.254 12.3899L838.594 13.875L839.933 15.3601C841.704 13.7627 842.586 11.6759 842.586 9.26562H840.586ZM838.594 13.875L837.24 12.4031C836.376 13.1981 835.186 13.6719 833.477 13.6719V15.6719V17.6719C835.985 17.6719 838.208 16.9477 839.948 15.3469L838.594 13.875ZM839.57 62V60H827.227V62V64H839.57V62ZM827.227 62H829.227V22H827.227H825.227V62H827.227ZM827.227 22V24H839.57V22V20H827.227V22ZM839.57 22H837.57V62H839.57H841.57V22H839.57ZM853.281 57.3906L851.877 58.8146L851.887 58.8242L853.281 57.3906ZM853.516 26.6484L854.886 28.1051L854.891 28.1003L853.516 26.6484ZM885.195 26.6484L883.786 28.0675L883.791 28.0724L885.195 26.6484ZM885 57.1953L883.595 55.7716L883.591 55.7763L885 57.1953ZM869.023 62.9766V60.9766C862.742 60.9766 858.043 59.2328 854.676 55.957L853.281 57.3906L851.887 58.8242C856.175 62.9963 861.972 64.9766 869.023 64.9766V62.9766ZM853.281 57.3906L854.686 55.9667C851.339 52.666 849.578 48.1419 849.578 42.1562H847.578H845.578C845.578 48.9831 847.619 54.6152 851.877 58.8146L853.281 57.3906ZM847.578 42.1562H849.578C849.578 35.9644 851.415 31.3711 854.886 28.1051L853.516 26.6484L852.145 25.1918C847.7 29.3737 845.578 35.1189 845.578 42.1562H847.578ZM853.516 26.6484L854.891 28.1003C858.395 24.7811 863.21 23.0234 869.57 23.0234V21.0234V19.0234C862.441 19.0234 856.553 21.0157 852.14 25.1965L853.516 26.6484ZM869.57 21.0234V23.0234C875.821 23.0234 880.472 24.7768 883.786 28.0675L885.195 26.6484L886.605 25.2293C882.366 21.0201 876.601 19.0234 869.57 19.0234V21.0234ZM885.195 26.6484L883.791 28.0724C887.125 31.3604 888.859 35.7504 888.859 41.4531H890.859H892.859C892.859 34.8642 890.818 29.3844 886.6 25.2244L885.195 26.6484ZM890.859 41.4531H888.859C888.859 47.6789 887.043 52.3701 883.595 55.7716L885 57.1953L886.405 58.619C890.77 54.3122 892.859 48.5086 892.859 41.4531H890.859ZM885 57.1953L883.591 55.7763C880.17 59.174 875.399 60.9766 869.023 60.9766V62.9766V64.9766C876.189 64.9766 882.07 62.9249 886.409 58.6143L885 57.1953ZM869.336 30.4766V28.4766C865.905 28.4766 863.029 29.6868 860.981 32.2301L862.539 33.4844L864.097 34.7387C865.278 33.2715 866.934 32.4766 869.336 32.4766V30.4766ZM862.539 33.4844L860.981 32.2301C858.981 34.7149 858.117 38.062 858.117 42H860.117H862.117C862.117 38.5943 862.868 36.2643 864.097 34.7387L862.539 33.4844ZM860.117 42H858.117C858.117 46.0578 858.927 49.4718 860.885 51.8984C862.909 54.4071 865.88 55.5234 869.414 55.5234V53.5234V51.5234C866.751 51.5234 865.073 50.7192 863.998 49.3868C862.857 47.9722 862.117 45.6245 862.117 42H860.117ZM869.414 53.5234V55.5234C872.859 55.5234 875.732 54.3435 877.665 51.7636C879.517 49.2923 880.281 45.8248 880.281 41.6875H878.281H876.281C876.281 45.4408 875.568 47.8913 874.464 49.3653C873.441 50.7307 871.881 51.5234 869.414 51.5234V53.5234ZM878.281 41.6875H880.281C880.281 37.7377 879.502 34.4055 877.608 32.0319C875.646 29.5721 872.761 28.4766 869.336 28.4766V30.4766V32.4766C871.875 32.4766 873.463 33.2495 874.482 34.5267C875.569 35.8901 876.281 38.1633 876.281 41.6875H878.281ZM937.5 62V64H939.5V62H937.5ZM925.195 62H923.195V64H925.195V62ZM913.281 32.9375L911.751 31.65L913.281 32.9375ZM911.211 62V64H913.211V62H911.211ZM898.867 62H896.867V64H898.867V62ZM898.867 22V20H896.867V22H898.867ZM911.211 22H913.211V20H911.211V22ZM911.211 28.3281H909.211V30.3281H911.211V28.3281ZM911.367 28.3281V30.3281H912.495L913.079 29.3625L911.367 28.3281ZM937.5 62V60H925.195V62V64H937.5V62ZM925.195 62H927.195V39.7734H925.195H923.195V62H925.195ZM925.195 39.7734H927.195C927.195 36.4968 926.621 33.6801 925.163 31.6383C923.616 29.4725 921.294 28.4766 918.555 28.4766V30.4766V32.4766C920.243 32.4766 921.241 33.0301 921.908 33.9633C922.663 35.0204 923.195 36.8522 923.195 39.7734H925.195ZM918.555 30.4766V28.4766C915.826 28.4766 913.509 29.5597 911.751 31.65L913.281 32.9375L914.812 34.225C915.814 33.034 917.012 32.4766 918.555 32.4766V30.4766ZM913.281 32.9375L911.751 31.65C910.015 33.7132 909.211 36.2785 909.211 39.1875H911.211H913.211C913.211 37.0444 913.787 35.443 914.812 34.225L913.281 32.9375ZM911.211 39.1875H909.211V62H911.211H913.211V39.1875H911.211ZM911.211 62V60H898.867V62V64H911.211V62ZM898.867 62H900.867V22H898.867H896.867V62H898.867ZM898.867 22V24H911.211V22V20H898.867V22ZM911.211 22H909.211V28.3281H911.211H913.211V22H911.211ZM911.211 28.3281V30.3281H911.367V28.3281V26.3281H911.211V28.3281ZM911.367 28.3281L913.079 29.3625C915.665 25.0836 919.304 23.0234 924.219 23.0234V21.0234V19.0234C917.884 19.0234 912.955 21.8331 909.655 27.2938L911.367 28.3281ZM924.219 21.0234V23.0234C928.209 23.0234 930.883 24.2404 932.622 26.3993C934.428 28.6408 935.5 32.2292 935.5 37.5078H937.5H939.5C939.5 31.7968 938.358 27.1431 935.737 23.8897C933.049 20.5539 929.082 19.0234 924.219 19.0234V21.0234ZM937.5 37.5078H935.5V62H937.5H939.5V37.5078H937.5Z" fill="url(#paint0_linear_3102_13573)" mask="url(#path-1-outside-1_3102_13573)"/>
<defs>
<linearGradient id="paint0_linear_3102_13573" x1="472.022" y1="-38" x2="471.95" y2="95" gradientUnits="userSpaceOnUse">
<stop offset="0.427887" stop-color="#E1ECF3"/>
<stop offset="0.858273" stop-color="white"/>
</linearGradient>
</defs>
</svg>
