<svg width="1106" height="74" viewBox="0 0 1106 74" fill="none" xmlns="http://www.w3.org/2000/svg">
<mask id="path-1-outside-1_3102_13758" maskUnits="userSpaceOnUse" x="0" y="0" width="1106" height="74" fill="black">
<rect fill="white" width="1106" height="74"/>
<path d="M15.0234 42.7031V62H2.40625V5.98438H22.1719C36.2865 5.98438 43.3438 11.9349 43.3438 23.8359C43.3438 29.4609 41.3125 34.0182 37.25 37.5078C33.2135 40.9714 27.8099 42.7031 21.0391 42.7031H15.0234ZM15.0234 15.6719V33.1328H19.9844C26.7031 33.1328 30.0625 30.1901 30.0625 24.3047C30.0625 18.5495 26.7031 15.6719 19.9844 15.6719H15.0234ZM56.5859 15.6719C54.5026 15.6719 52.7969 15.0599 51.4688 13.8359C50.1406 12.5859 49.4766 11.0625 49.4766 9.26562C49.4766 7.41667 50.1406 5.90625 51.4688 4.73438C52.7969 3.5625 54.5026 2.97656 56.5859 2.97656C58.6953 2.97656 60.401 3.5625 61.7031 4.73438C63.0312 5.90625 63.6953 7.41667 63.6953 9.26562C63.6953 11.1406 63.0312 12.6771 61.7031 13.875C60.401 15.0729 58.6953 15.6719 56.5859 15.6719ZM62.6797 62H50.3359V22H62.6797V62ZM85.4141 62H73.0703V2.78125H85.4141V62ZM114.867 62.9766C108.201 62.9766 102.953 61.1146 99.125 57.3906C95.3229 53.6406 93.4219 48.5625 93.4219 42.1562C93.4219 35.5417 95.401 30.3724 99.3594 26.6484C103.318 22.8984 108.669 21.0234 115.414 21.0234C122.055 21.0234 127.263 22.8984 131.039 26.6484C134.815 30.3724 136.703 35.3073 136.703 41.4531C136.703 48.0938 134.75 53.3411 130.844 57.1953C126.964 61.0495 121.638 62.9766 114.867 62.9766ZM115.18 30.4766C112.263 30.4766 109.997 31.4792 108.383 33.4844C106.768 35.4896 105.961 38.3281 105.961 42C105.961 49.6823 109.06 53.5234 115.258 53.5234C121.169 53.5234 124.125 49.5781 124.125 41.6875C124.125 34.2135 121.143 30.4766 115.18 30.4766ZM168.891 61.5312C167.068 62.4948 164.32 62.9766 160.648 62.9766C151.951 62.9766 147.602 58.4583 147.602 49.4219V31.1016H141.117V22H147.602V13.3672L159.906 9.85156V22H168.891V31.1016H159.906V47.2734C159.906 51.4401 161.56 53.5234 164.867 53.5234C166.169 53.5234 167.51 53.1458 168.891 52.3906V61.5312ZM231.273 62H219.594V56.2578H219.438C216.755 60.737 212.784 62.9766 207.523 62.9766C203.643 62.9766 200.583 61.8828 198.344 59.6953C196.13 57.4818 195.023 54.5391 195.023 50.8672C195.023 43.1068 199.62 38.6276 208.812 37.4297L219.672 35.9844C219.672 31.6094 217.302 29.4219 212.562 29.4219C207.797 29.4219 203.266 30.8411 198.969 33.6797V24.3828C200.688 23.4974 203.031 22.7161 206 22.0391C208.995 21.362 211.716 21.0234 214.164 21.0234C225.57 21.0234 231.273 26.7135 231.273 38.0938V62ZM219.672 45.75V43.0547L212.406 43.9922C208.396 44.513 206.391 46.3229 206.391 49.4219C206.391 50.8281 206.872 51.987 207.836 52.8984C208.826 53.7839 210.154 54.2266 211.82 54.2266C214.138 54.2266 216.026 53.4323 217.484 51.8438C218.943 50.2292 219.672 48.1979 219.672 45.75ZM265.219 61.5312C263.396 62.4948 260.648 62.9766 256.977 62.9766C248.279 62.9766 243.93 58.4583 243.93 49.4219V31.1016H237.445V22H243.93V13.3672L256.234 9.85156V22H265.219V31.1016H256.234V47.2734C256.234 51.4401 257.888 53.5234 261.195 53.5234C262.497 53.5234 263.839 53.1458 265.219 52.3906V61.5312ZM368.812 5.98438L354.008 62H340.023L330.727 26.0625C330.232 24.1875 329.932 22.0911 329.828 19.7734H329.672C329.438 22.3255 329.099 24.4219 328.656 26.0625L319.125 62H304.555L289.828 5.98438H303.617L311.508 43.2891C311.846 44.8776 312.094 47.013 312.25 49.6953H312.484C312.589 47.6901 312.966 45.5026 313.617 43.1328L323.773 5.98438H337.289L346.469 43.6016C346.807 44.9818 347.107 46.987 347.367 49.6172H347.523C347.628 47.5599 347.901 45.4766 348.344 43.3672L356.078 5.98438H368.812ZM404.789 62H393.109V56.2578H392.953C390.271 60.737 386.299 62.9766 381.039 62.9766C377.159 62.9766 374.099 61.8828 371.859 59.6953C369.646 57.4818 368.539 54.5391 368.539 50.8672C368.539 43.1068 373.135 38.6276 382.328 37.4297L393.188 35.9844C393.188 31.6094 390.818 29.4219 386.078 29.4219C381.312 29.4219 376.781 30.8411 372.484 33.6797V24.3828C374.203 23.4974 376.547 22.7161 379.516 22.0391C382.51 21.362 385.232 21.0234 387.68 21.0234C399.086 21.0234 404.789 26.7135 404.789 38.0938V62ZM393.188 45.75V43.0547L385.922 43.9922C381.911 44.513 379.906 46.3229 379.906 49.4219C379.906 50.8281 380.388 51.987 381.352 52.8984C382.341 53.7839 383.669 54.2266 385.336 54.2266C387.654 54.2266 389.542 53.4323 391 51.8438C392.458 50.2292 393.188 48.1979 393.188 45.75ZM411.938 60.9453V50.9453C413.969 52.1693 415.987 53.0807 417.992 53.6797C420.023 54.2786 421.938 54.5781 423.734 54.5781C425.922 54.5781 427.641 54.2786 428.891 53.6797C430.167 53.0807 430.805 52.1693 430.805 50.9453C430.805 50.1641 430.518 49.513 429.945 48.9922C429.372 48.4714 428.63 48.0156 427.719 47.625C426.833 47.2344 425.857 46.8828 424.789 46.5703C423.721 46.2578 422.693 45.9062 421.703 45.5156C420.115 44.9167 418.708 44.2786 417.484 43.6016C416.286 42.8984 415.271 42.0911 414.438 41.1797C413.63 40.2682 413.005 39.2135 412.562 38.0156C412.146 36.8177 411.938 35.3984 411.938 33.7578C411.938 31.5182 412.419 29.5911 413.383 27.9766C414.372 26.362 415.674 25.0469 417.289 24.0312C418.93 22.9896 420.792 22.2344 422.875 21.7656C424.984 21.2708 427.172 21.0234 429.438 21.0234C431.208 21.0234 433.005 21.1667 434.828 21.4531C436.651 21.7135 438.448 22.1042 440.219 22.625V32.1562C438.656 31.2448 436.977 30.5677 435.18 30.125C433.409 29.6562 431.664 29.4219 429.945 29.4219C429.138 29.4219 428.37 29.5 427.641 29.6562C426.938 29.7865 426.312 29.9948 425.766 30.2812C425.219 30.5417 424.789 30.8932 424.477 31.3359C424.164 31.7526 424.008 32.2344 424.008 32.7812C424.008 33.5104 424.242 34.1354 424.711 34.6562C425.18 35.1771 425.792 35.6328 426.547 36.0234C427.302 36.388 428.135 36.7266 429.047 37.0391C429.984 37.3255 430.909 37.625 431.82 37.9375C433.461 38.5104 434.945 39.1354 436.273 39.8125C437.602 40.4896 438.734 41.2839 439.672 42.1953C440.635 43.1068 441.365 44.1745 441.859 45.3984C442.38 46.6224 442.641 48.0807 442.641 49.7734C442.641 52.1432 442.12 54.1745 441.078 55.8672C440.062 57.5339 438.695 58.901 436.977 59.9688C435.284 61.0104 433.318 61.7656 431.078 62.2344C428.865 62.7292 426.56 62.9766 424.164 62.9766C419.763 62.9766 415.688 62.2995 411.938 60.9453ZM488.188 62H475.883V39.2656C475.883 33.4062 473.747 30.4766 469.477 30.4766C467.289 30.4766 465.518 31.2969 464.164 32.9375C462.81 34.5781 462.133 36.6615 462.133 39.1875V62H449.789V2.78125H462.133V27.9375H462.289C465.31 23.3281 469.411 21.0234 474.594 21.0234C483.656 21.0234 488.188 26.4922 488.188 37.4297V62ZM504.242 15.6719C502.159 15.6719 500.453 15.0599 499.125 13.8359C497.797 12.5859 497.133 11.0625 497.133 9.26562C497.133 7.41667 497.797 5.90625 499.125 4.73438C500.453 3.5625 502.159 2.97656 504.242 2.97656C506.352 2.97656 508.057 3.5625 509.359 4.73438C510.688 5.90625 511.352 7.41667 511.352 9.26562C511.352 11.1406 510.688 12.6771 509.359 13.875C508.057 15.0729 506.352 15.6719 504.242 15.6719ZM510.336 62H497.992V22H510.336V62ZM584.242 62H571.938V39.1875C571.938 33.3802 569.802 30.4766 565.531 30.4766C563.5 30.4766 561.846 31.349 560.57 33.0938C559.294 34.8385 558.656 37.013 558.656 39.6172V62H546.312V38.9531C546.312 33.3021 544.216 30.4766 540.023 30.4766C537.914 30.4766 536.221 31.3099 534.945 32.9766C533.695 34.6432 533.07 36.9089 533.07 39.7734V62H520.727V22H533.07V28.25H533.227C534.503 26.1146 536.286 24.3828 538.578 23.0547C540.896 21.7005 543.422 21.0234 546.156 21.0234C551.807 21.0234 555.674 23.5104 557.758 28.4844C560.805 23.5104 565.284 21.0234 571.195 21.0234C579.893 21.0234 584.242 26.388 584.242 37.1172V62ZM605.688 52.1562L599.945 71.9219H590.336L594.32 52.1562H605.688ZM702.875 62H690.414V28.4844C690.414 24.8646 690.57 20.8672 690.883 16.4922H690.57C689.919 19.9297 689.333 22.4036 688.812 23.9141L675.688 62H665.375L652.016 24.3047C651.651 23.2891 651.065 20.6849 650.258 16.4922H649.906C650.245 22.013 650.414 26.8568 650.414 31.0234V62H639.047V5.98438H657.523L668.969 39.1875C669.88 41.8438 670.544 44.513 670.961 47.1953H671.195C671.898 44.0964 672.641 41.401 673.422 39.1094L684.867 5.98438H702.875V62ZM747.68 62H736V56.2578H735.844C733.161 60.737 729.19 62.9766 723.93 62.9766C720.049 62.9766 716.99 61.8828 714.75 59.6953C712.536 57.4818 711.43 54.5391 711.43 50.8672C711.43 43.1068 716.026 38.6276 725.219 37.4297L736.078 35.9844C736.078 31.6094 733.708 29.4219 728.969 29.4219C724.203 29.4219 719.672 30.8411 715.375 33.6797V24.3828C717.094 23.4974 719.438 22.7161 722.406 22.0391C725.401 21.362 728.122 21.0234 730.57 21.0234C741.977 21.0234 747.68 26.7135 747.68 38.0938V62ZM736.078 45.75V43.0547L728.812 43.9922C724.802 44.513 722.797 46.3229 722.797 49.4219C722.797 50.8281 723.279 51.987 724.242 52.8984C725.232 53.7839 726.56 54.2266 728.227 54.2266C730.544 54.2266 732.432 53.4323 733.891 51.8438C735.349 50.2292 736.078 48.1979 736.078 45.75ZM795.844 62H783.539V39.2656C783.539 33.4062 781.404 30.4766 777.133 30.4766C774.945 30.4766 773.174 31.2969 771.82 32.9375C770.466 34.5781 769.789 36.6615 769.789 39.1875V62H757.445V2.78125H769.789V27.9375H769.945C772.966 23.3281 777.068 21.0234 782.25 21.0234C791.312 21.0234 795.844 26.4922 795.844 37.4297V62ZM838.93 62H827.25V56.2578H827.094C824.411 60.737 820.44 62.9766 815.18 62.9766C811.299 62.9766 808.24 61.8828 806 59.6953C803.786 57.4818 802.68 54.5391 802.68 50.8672C802.68 43.1068 807.276 38.6276 816.469 37.4297L827.328 35.9844C827.328 31.6094 824.958 29.4219 820.219 29.4219C815.453 29.4219 810.922 30.8411 806.625 33.6797V24.3828C808.344 23.4974 810.688 22.7161 813.656 22.0391C816.651 21.362 819.372 21.0234 821.82 21.0234C833.227 21.0234 838.93 26.7135 838.93 38.0938V62ZM827.328 45.75V43.0547L820.062 43.9922C816.052 44.513 814.047 46.3229 814.047 49.4219C814.047 50.8281 814.529 51.987 815.492 52.8984C816.482 53.7839 817.81 54.2266 819.477 54.2266C821.794 54.2266 823.682 53.4323 825.141 51.8438C826.599 50.2292 827.328 48.1979 827.328 45.75ZM874.789 33.1328C873.305 32.3255 871.573 31.9219 869.594 31.9219C866.911 31.9219 864.815 32.9115 863.305 34.8906C861.794 36.8438 861.039 39.513 861.039 42.8984V62H848.695V22H861.039V29.4219H861.195C863.148 24.0052 866.664 21.2969 871.742 21.2969C873.044 21.2969 874.06 21.4531 874.789 21.7656V33.1328ZM913.852 62H902.172V56.2578H902.016C899.333 60.737 895.362 62.9766 890.102 62.9766C886.221 62.9766 883.161 61.8828 880.922 59.6953C878.708 57.4818 877.602 54.5391 877.602 50.8672C877.602 43.1068 882.198 38.6276 891.391 37.4297L902.25 35.9844C902.25 31.6094 899.88 29.4219 895.141 29.4219C890.375 29.4219 885.844 30.8411 881.547 33.6797V24.3828C883.266 23.4974 885.609 22.7161 888.578 22.0391C891.573 21.362 894.294 21.0234 896.742 21.0234C908.148 21.0234 913.852 26.7135 913.852 38.0938V62ZM902.25 45.75V43.0547L894.984 43.9922C890.974 44.513 888.969 46.3229 888.969 49.4219C888.969 50.8281 889.451 51.987 890.414 52.8984C891.404 53.7839 892.732 54.2266 894.398 54.2266C896.716 54.2266 898.604 53.4323 900.062 51.8438C901.521 50.2292 902.25 48.1979 902.25 45.75ZM921 60.9453V50.9453C923.031 52.1693 925.049 53.0807 927.055 53.6797C929.086 54.2786 931 54.5781 932.797 54.5781C934.984 54.5781 936.703 54.2786 937.953 53.6797C939.229 53.0807 939.867 52.1693 939.867 50.9453C939.867 50.1641 939.581 49.513 939.008 48.9922C938.435 48.4714 937.693 48.0156 936.781 47.625C935.896 47.2344 934.919 46.8828 933.852 46.5703C932.784 46.2578 931.755 45.9062 930.766 45.5156C929.177 44.9167 927.771 44.2786 926.547 43.6016C925.349 42.8984 924.333 42.0911 923.5 41.1797C922.693 40.2682 922.068 39.2135 921.625 38.0156C921.208 36.8177 921 35.3984 921 33.7578C921 31.5182 921.482 29.5911 922.445 27.9766C923.435 26.362 924.737 25.0469 926.352 24.0312C927.992 22.9896 929.854 22.2344 931.938 21.7656C934.047 21.2708 936.234 21.0234 938.5 21.0234C940.271 21.0234 942.068 21.1667 943.891 21.4531C945.714 21.7135 947.51 22.1042 949.281 22.625V32.1562C947.719 31.2448 946.039 30.5677 944.242 30.125C942.471 29.6562 940.727 29.4219 939.008 29.4219C938.201 29.4219 937.432 29.5 936.703 29.6562C936 29.7865 935.375 29.9948 934.828 30.2812C934.281 30.5417 933.852 30.8932 933.539 31.3359C933.227 31.7526 933.07 32.2344 933.07 32.7812C933.07 33.5104 933.305 34.1354 933.773 34.6562C934.242 35.1771 934.854 35.6328 935.609 36.0234C936.365 36.388 937.198 36.7266 938.109 37.0391C939.047 37.3255 939.971 37.625 940.883 37.9375C942.523 38.5104 944.008 39.1354 945.336 39.8125C946.664 40.4896 947.797 41.2839 948.734 42.1953C949.698 43.1068 950.427 44.1745 950.922 45.3984C951.443 46.6224 951.703 48.0807 951.703 49.7734C951.703 52.1432 951.182 54.1745 950.141 55.8672C949.125 57.5339 947.758 58.901 946.039 59.9688C944.346 61.0104 942.38 61.7656 940.141 62.2344C937.927 62.7292 935.622 62.9766 933.227 62.9766C928.826 62.9766 924.75 62.2995 921 60.9453ZM997.25 62H984.945V39.2656C984.945 33.4062 982.81 30.4766 978.539 30.4766C976.352 30.4766 974.581 31.2969 973.227 32.9375C971.872 34.5781 971.195 36.6615 971.195 39.1875V62H958.852V2.78125H971.195V27.9375H971.352C974.372 23.3281 978.474 21.0234 983.656 21.0234C992.719 21.0234 997.25 26.4922 997.25 37.4297V62ZM1031.23 61.5312C1029.41 62.4948 1026.66 62.9766 1022.99 62.9766C1014.29 62.9766 1009.95 58.4583 1009.95 49.4219V31.1016H1003.46V22H1009.95V13.3672L1022.25 9.85156V22H1031.23V31.1016H1022.25V47.2734C1022.25 51.4401 1023.9 53.5234 1027.21 53.5234C1028.51 53.5234 1029.85 53.1458 1031.23 52.3906V61.5312ZM1064.32 33.1328C1062.84 32.3255 1061.1 31.9219 1059.12 31.9219C1056.44 31.9219 1054.35 32.9115 1052.84 34.8906C1051.33 36.8438 1050.57 39.513 1050.57 42.8984V62H1038.23V22H1050.57V29.4219H1050.73C1052.68 24.0052 1056.2 21.2969 1061.27 21.2969C1062.58 21.2969 1063.59 21.4531 1064.32 21.7656V33.1328ZM1103.38 62H1091.7V56.2578H1091.55C1088.86 60.737 1084.89 62.9766 1079.63 62.9766C1075.75 62.9766 1072.69 61.8828 1070.45 59.6953C1068.24 57.4818 1067.13 54.5391 1067.13 50.8672C1067.13 43.1068 1071.73 38.6276 1080.92 37.4297L1091.78 35.9844C1091.78 31.6094 1089.41 29.4219 1084.67 29.4219C1079.91 29.4219 1075.38 30.8411 1071.08 33.6797V24.3828C1072.8 23.4974 1075.14 22.7161 1078.11 22.0391C1081.1 21.362 1083.83 21.0234 1086.27 21.0234C1097.68 21.0234 1103.38 26.7135 1103.38 38.0938V62ZM1091.78 45.75V43.0547L1084.52 43.9922C1080.51 44.513 1078.5 46.3229 1078.5 49.4219C1078.5 50.8281 1078.98 51.987 1079.95 52.8984C1080.93 53.7839 1082.26 54.2266 1083.93 54.2266C1086.25 54.2266 1088.14 53.4323 1089.59 51.8438C1091.05 50.2292 1091.78 48.1979 1091.78 45.75Z"/>
</mask>
<path d="M15.0234 42.7031V40.7031H13.0234V42.7031H15.0234ZM15.0234 62V64H17.0234V62H15.0234ZM2.40625 62H0.40625V64H2.40625V62ZM2.40625 5.98438V3.98438H0.40625V5.98438H2.40625ZM37.25 37.5078L38.5524 39.0256L38.5532 39.0249L37.25 37.5078ZM15.0234 15.6719V13.6719H13.0234V15.6719H15.0234ZM15.0234 33.1328H13.0234V35.1328H15.0234V33.1328ZM15.0234 42.7031H13.0234V62H15.0234H17.0234V42.7031H15.0234ZM15.0234 62V60H2.40625V62V64H15.0234V62ZM2.40625 62H4.40625V5.98438H2.40625H0.40625V62H2.40625ZM2.40625 5.98438V7.98438H22.1719V5.98438V3.98438H2.40625V5.98438ZM22.1719 5.98438V7.98438C28.9962 7.98438 33.7417 9.43006 36.7616 11.9763C39.716 14.4674 41.3438 18.2916 41.3438 23.8359H43.3438H45.3438C45.3438 17.4792 43.4428 12.3776 39.34 8.91825C35.3025 5.51395 29.4621 3.98438 22.1719 3.98438V5.98438ZM43.3438 23.8359H41.3438C41.3438 28.9113 39.5422 32.9023 35.9468 35.9907L37.25 37.5078L38.5532 39.0249C43.0828 35.1341 45.3438 30.0106 45.3438 23.8359H43.3438ZM37.25 37.5078L35.9476 35.99C32.3639 39.0651 27.466 40.7031 21.0391 40.7031V42.7031V44.7031C28.1538 44.7031 34.0632 42.8776 38.5524 39.0256L37.25 37.5078ZM21.0391 42.7031V40.7031H15.0234V42.7031V44.7031H21.0391V42.7031ZM15.0234 15.6719H13.0234V33.1328H15.0234H17.0234V15.6719H15.0234ZM15.0234 33.1328V35.1328H19.9844V33.1328V31.1328H15.0234V33.1328ZM19.9844 33.1328V35.1328C23.5918 35.1328 26.6708 34.3485 28.8608 32.4302C31.1013 30.4676 32.0625 27.6296 32.0625 24.3047H30.0625H28.0625C28.0625 26.8652 27.344 28.4413 26.2251 29.4213C25.0557 30.4457 23.0957 31.1328 19.9844 31.1328V33.1328ZM30.0625 24.3047H32.0625C32.0625 21.031 31.0926 18.2372 28.8441 16.3111C26.6548 14.4359 23.5828 13.6719 19.9844 13.6719V15.6719V17.6719C23.1047 17.6719 25.0717 18.3467 26.2419 19.349C27.3528 20.3006 28.0625 21.8232 28.0625 24.3047H30.0625ZM19.9844 15.6719V13.6719H15.0234V15.6719V17.6719H19.9844V15.6719ZM51.4688 13.8359L50.098 15.2923L50.1057 15.2995L50.1134 15.3066L51.4688 13.8359ZM61.7031 4.73438L60.3652 6.22096L60.3725 6.22754L60.3799 6.23405L61.7031 4.73438ZM61.7031 13.875L60.3636 12.3899L60.3563 12.3965L60.349 12.4031L61.7031 13.875ZM62.6797 62V64H64.6797V62H62.6797ZM50.3359 62H48.3359V64H50.3359V62ZM50.3359 22V20H48.3359V22H50.3359ZM62.6797 22H64.6797V20H62.6797V22ZM56.5859 15.6719V13.6719C54.9223 13.6719 53.7264 13.1968 52.8241 12.3652L51.4688 13.8359L50.1134 15.3066C51.8673 16.923 54.0829 17.6719 56.5859 17.6719V15.6719ZM51.4688 13.8359L52.8395 12.3795C51.9061 11.5011 51.4766 10.5017 51.4766 9.26562H49.4766H47.4766C47.4766 11.6233 48.3752 13.6708 50.098 15.2923L51.4688 13.8359ZM49.4766 9.26562H51.4766C51.4766 7.96184 51.9152 7.00771 52.792 6.23405L51.4688 4.73438L50.1455 3.2347C48.3661 4.80479 47.4766 6.87149 47.4766 9.26562H49.4766ZM51.4688 4.73438L52.792 6.23405C53.6919 5.43997 54.8991 4.97656 56.5859 4.97656V2.97656V0.976562C54.1061 0.976562 51.9018 1.68503 50.1455 3.2347L51.4688 4.73438ZM56.5859 2.97656V4.97656C58.3074 4.97656 59.5023 5.44434 60.3652 6.22096L61.7031 4.73438L63.0411 3.24779C61.2998 1.68066 59.0833 0.976562 56.5859 0.976562V2.97656ZM61.7031 4.73438L60.3799 6.23405C61.2567 7.00771 61.6953 7.96184 61.6953 9.26562H63.6953H65.6953C65.6953 6.87149 64.8058 4.80479 63.0264 3.2347L61.7031 4.73438ZM63.6953 9.26562H61.6953C61.6953 10.6054 61.2488 11.5914 60.3636 12.3899L61.7031 13.875L63.0427 15.3601C64.8137 13.7627 65.6953 11.6759 65.6953 9.26562H63.6953ZM61.7031 13.875L60.349 12.4031C59.4849 13.1981 58.2958 13.6719 56.5859 13.6719V15.6719V17.6719C59.0948 17.6719 61.3172 16.9477 63.0572 15.3469L61.7031 13.875ZM62.6797 62V60H50.3359V62V64H62.6797V62ZM50.3359 62H52.3359V22H50.3359H48.3359V62H50.3359ZM50.3359 22V24H62.6797V22V20H50.3359V22ZM62.6797 22H60.6797V62H62.6797H64.6797V22H62.6797ZM85.4141 62V64H87.4141V62H85.4141ZM73.0703 62H71.0703V64H73.0703V62ZM73.0703 2.78125V0.78125H71.0703V2.78125H73.0703ZM85.4141 2.78125H87.4141V0.78125H85.4141V2.78125ZM85.4141 62V60H73.0703V62V64H85.4141V62ZM73.0703 62H75.0703V2.78125H73.0703H71.0703V62H73.0703ZM73.0703 2.78125V4.78125H85.4141V2.78125V0.78125H73.0703V2.78125ZM85.4141 2.78125H83.4141V62H85.4141H87.4141V2.78125H85.4141ZM99.125 57.3906L97.7205 58.8146L97.7304 58.8242L99.125 57.3906ZM99.3594 26.6484L100.73 28.1051L100.735 28.1003L99.3594 26.6484ZM131.039 26.6484L129.63 28.0675L129.635 28.0724L131.039 26.6484ZM130.844 57.1953L129.439 55.7716L129.434 55.7763L130.844 57.1953ZM114.867 62.9766V60.9766C108.585 60.9766 103.887 59.2328 100.52 55.957L99.125 57.3906L97.7304 58.8242C102.019 62.9963 107.816 64.9766 114.867 64.9766V62.9766ZM99.125 57.3906L100.529 55.9667C97.1829 52.666 95.4219 48.1419 95.4219 42.1562H93.4219H91.4219C91.4219 48.9831 93.4629 54.6152 97.7206 58.8146L99.125 57.3906ZM93.4219 42.1562H95.4219C95.4219 35.9644 97.2583 31.3711 100.73 28.1051L99.3594 26.6484L97.9889 25.1918C93.5438 29.3737 91.4219 35.1189 91.4219 42.1562H93.4219ZM99.3594 26.6484L100.735 28.1003C104.238 24.7811 109.054 23.0234 115.414 23.0234V21.0234V19.0234C108.285 19.0234 102.397 21.0157 97.9839 25.1965L99.3594 26.6484ZM115.414 21.0234V23.0234C121.665 23.0234 126.316 24.7768 129.63 28.0675L131.039 26.6484L132.448 25.2293C128.21 21.0201 122.445 19.0234 115.414 19.0234V21.0234ZM131.039 26.6484L129.635 28.0724C132.969 31.3604 134.703 35.7504 134.703 41.4531H136.703H138.703C138.703 34.8642 136.662 29.3844 132.443 25.2244L131.039 26.6484ZM136.703 41.4531H134.703C134.703 47.6789 132.887 52.3701 129.439 55.7716L130.844 57.1953L132.248 58.619C136.613 54.3122 138.703 48.5086 138.703 41.4531H136.703ZM130.844 57.1953L129.434 55.7763C126.014 59.174 121.243 60.9766 114.867 60.9766V62.9766V64.9766C122.033 64.9766 127.913 62.9249 132.253 58.6143L130.844 57.1953ZM115.18 30.4766V28.4766C111.749 28.4766 108.873 29.6868 106.825 32.2301L108.383 33.4844L109.941 34.7387C111.122 33.2715 112.777 32.4766 115.18 32.4766V30.4766ZM108.383 33.4844L106.825 32.2301C104.824 34.7149 103.961 38.062 103.961 42H105.961H107.961C107.961 38.5943 108.712 36.2643 109.941 34.7387L108.383 33.4844ZM105.961 42H103.961C103.961 46.0578 104.771 49.4718 106.729 51.8984C108.753 54.4071 111.723 55.5234 115.258 55.5234V53.5234V51.5234C112.594 51.5234 110.917 50.7192 109.842 49.3868C108.7 47.9722 107.961 45.6245 107.961 42H105.961ZM115.258 53.5234V55.5234C118.702 55.5234 121.576 54.3435 123.509 51.7636C125.36 49.2923 126.125 45.8248 126.125 41.6875H124.125H122.125C122.125 45.4408 121.412 47.8913 120.308 49.3653C119.285 50.7307 117.725 51.5234 115.258 51.5234V53.5234ZM124.125 41.6875H126.125C126.125 37.7377 125.346 34.4055 123.452 32.0319C121.489 29.5721 118.605 28.4766 115.18 28.4766V30.4766V32.4766C117.718 32.4766 119.306 33.2495 120.325 34.5267C121.413 35.8901 122.125 38.1633 122.125 41.6875H124.125ZM168.891 61.5312L169.825 63.2994L170.891 62.7363V61.5312H168.891ZM147.602 31.1016H149.602V29.1016H147.602V31.1016ZM141.117 31.1016H139.117V33.1016H141.117V31.1016ZM141.117 22V20H139.117V22H141.117ZM147.602 22V24H149.602V22H147.602ZM147.602 13.3672L147.052 11.4441L145.602 11.8586V13.3672H147.602ZM159.906 9.85156H161.906V7.2001L159.357 7.92852L159.906 9.85156ZM159.906 22H157.906V24H159.906V22ZM168.891 22H170.891V20H168.891V22ZM168.891 31.1016V33.1016H170.891V31.1016H168.891ZM159.906 31.1016V29.1016H157.906V31.1016H159.906ZM168.891 52.3906H170.891V49.0165L167.931 50.6361L168.891 52.3906ZM168.891 61.5312L167.956 59.7631C166.566 60.4977 164.212 60.9766 160.648 60.9766V62.9766V64.9766C164.428 64.9766 167.569 64.4919 169.825 63.2994L168.891 61.5312ZM160.648 62.9766V60.9766C156.628 60.9766 153.975 59.9363 152.304 58.2009C150.62 56.4513 149.602 53.6505 149.602 49.4219H147.602H145.602C145.602 54.2297 146.757 58.2062 149.422 60.9749C152.101 63.7577 155.971 64.9766 160.648 64.9766V62.9766ZM147.602 49.4219H149.602V31.1016H147.602H145.602V49.4219H147.602ZM147.602 31.1016V29.1016H141.117V31.1016V33.1016H147.602V31.1016ZM141.117 31.1016H143.117V22H141.117H139.117V31.1016H141.117ZM141.117 22V24H147.602V22V20H141.117V22ZM147.602 22H149.602V13.3672H147.602H145.602V22H147.602ZM147.602 13.3672L148.151 15.2902L160.456 11.7746L159.906 9.85156L159.357 7.92852L147.052 11.4441L147.602 13.3672ZM159.906 9.85156H157.906V22H159.906H161.906V9.85156H159.906ZM159.906 22V24H168.891V22V20H159.906V22ZM168.891 22H166.891V31.1016H168.891H170.891V22H168.891ZM168.891 31.1016V29.1016H159.906V31.1016V33.1016H168.891V31.1016ZM159.906 31.1016H157.906V47.2734H159.906H161.906V31.1016H159.906ZM159.906 47.2734H157.906C157.906 49.5677 158.353 51.658 159.58 53.2043C160.877 54.8388 162.767 55.5234 164.867 55.5234V53.5234V51.5234C163.66 51.5234 163.069 51.1664 162.713 50.7175C162.287 50.1805 161.906 49.1458 161.906 47.2734H159.906ZM164.867 53.5234V55.5234C166.568 55.5234 168.237 55.0281 169.851 54.1451L168.891 52.3906L167.931 50.6361C166.784 51.2636 165.77 51.5234 164.867 51.5234V53.5234ZM168.891 52.3906H166.891V61.5312H168.891H170.891V52.3906H168.891ZM231.273 62V64H233.273V62H231.273ZM219.594 62H217.594V64H219.594V62ZM219.594 56.2578H221.594V54.2578H219.594V56.2578ZM219.438 56.2578V54.2578H218.304L217.722 55.2303L219.438 56.2578ZM198.344 59.6953L196.93 61.1095L196.938 61.1178L196.946 61.1261L198.344 59.6953ZM208.812 37.4297L209.071 39.4129L209.076 39.4122L208.812 37.4297ZM219.672 35.9844L219.936 37.9669L221.672 37.7358V35.9844H219.672ZM198.969 33.6797H196.969V37.3979L200.071 35.3484L198.969 33.6797ZM198.969 24.3828L198.053 22.6049L196.969 23.1633V24.3828H198.969ZM206 22.0391L205.559 20.0883L205.555 20.0891L206 22.0391ZM219.672 43.0547H221.672V40.78L219.416 41.0711L219.672 43.0547ZM212.406 43.9922L212.15 42.0086L212.149 42.0088L212.406 43.9922ZM207.836 52.8984L206.462 54.3514L206.482 54.3704L206.502 54.3889L207.836 52.8984ZM217.484 51.8438L218.958 53.1963L218.963 53.1903L218.969 53.1843L217.484 51.8438ZM231.273 62V60H219.594V62V64H231.273V62ZM219.594 62H221.594V56.2578H219.594H217.594V62H219.594ZM219.594 56.2578V54.2578H219.438V56.2578V58.2578H219.594V56.2578ZM219.438 56.2578L217.722 55.2303C215.404 59.1006 212.087 60.9766 207.523 60.9766V62.9766V64.9766C213.48 64.9766 218.106 62.3734 221.153 57.2853L219.438 56.2578ZM207.523 62.9766V60.9766C204.034 60.9766 201.522 60.0043 199.741 58.2646L198.344 59.6953L196.946 61.1261C199.644 63.7614 203.253 64.9766 207.523 64.9766V62.9766ZM198.344 59.6953L199.758 58.2811C197.984 56.5072 197.023 54.1075 197.023 50.8672H195.023H193.023C193.023 54.9706 194.276 58.4563 196.93 61.1095L198.344 59.6953ZM195.023 50.8672H197.023C197.023 47.4054 198.033 44.9062 199.867 43.1199C201.744 41.2898 204.72 39.98 209.071 39.4129L208.812 37.4297L208.554 35.4465C203.713 36.0773 199.793 37.606 197.075 40.2551C194.312 42.948 193.023 46.5686 193.023 50.8672H195.023ZM208.812 37.4297L209.076 39.4122L219.936 37.9669L219.672 35.9844L219.408 34.0019L208.549 35.4472L208.812 37.4297ZM219.672 35.9844H221.672C221.672 33.4456 220.977 31.1859 219.251 29.5929C217.556 28.0278 215.203 27.4219 212.562 27.4219V29.4219V31.4219C214.662 31.4219 215.864 31.9097 216.538 32.5321C217.182 33.1266 217.672 34.1481 217.672 35.9844H219.672ZM212.562 29.4219V27.4219C207.373 27.4219 202.463 28.9745 197.866 32.0109L198.969 33.6797L200.071 35.3484C204.069 32.7077 208.221 31.4219 212.562 31.4219V29.4219ZM198.969 33.6797H200.969V24.3828H198.969H196.969V33.6797H198.969ZM198.969 24.3828L199.885 26.1608C201.394 25.3831 203.557 24.6475 206.445 23.989L206 22.0391L205.555 20.0891C202.505 20.7848 199.981 21.6117 198.053 22.6049L198.969 24.3828ZM206 22.0391L206.441 23.9898C209.326 23.3376 211.896 23.0234 214.164 23.0234V21.0234V19.0234C211.536 19.0234 208.664 19.3864 205.559 20.0883L206 22.0391ZM214.164 21.0234V23.0234C219.56 23.0234 223.239 24.3682 225.583 26.7068C227.927 29.0447 229.273 32.7131 229.273 38.0938H231.273H233.273C233.273 32.0942 231.769 27.2274 228.409 23.8752C225.05 20.5238 220.174 19.0234 214.164 19.0234V21.0234ZM231.273 38.0938H229.273V62H231.273H233.273V38.0938H231.273ZM219.672 45.75H221.672V43.0547H219.672H217.672V45.75H219.672ZM219.672 43.0547L219.416 41.0711L212.15 42.0086L212.406 43.9922L212.662 45.9757L219.928 45.0382L219.672 43.0547ZM212.406 43.9922L212.149 42.0088C209.929 42.2971 207.975 42.9737 206.554 44.2556C205.068 45.5973 204.391 47.3984 204.391 49.4219H206.391H208.391C208.391 48.3464 208.716 47.6931 209.235 47.2249C209.82 46.6969 210.873 46.2081 212.664 45.9755L212.406 43.9922ZM206.391 49.4219H204.391C204.391 51.3407 205.072 53.0374 206.462 54.3514L207.836 52.8984L209.21 51.4455C208.672 50.9366 208.391 50.3155 208.391 49.4219H206.391ZM207.836 52.8984L206.502 54.3889C207.945 55.68 209.792 56.2266 211.82 56.2266V54.2266V52.2266C210.515 52.2266 209.706 51.8877 209.17 51.408L207.836 52.8984ZM211.82 54.2266V56.2266C214.651 56.2266 217.09 55.2308 218.958 53.1963L217.484 51.8438L216.011 50.4912C214.962 51.6338 213.625 52.2266 211.82 52.2266V54.2266ZM217.484 51.8438L218.969 53.1843C220.801 51.1556 221.672 48.6266 221.672 45.75H219.672H217.672C217.672 47.7692 217.084 49.3028 216 50.5032L217.484 51.8438ZM265.219 61.5312L266.153 63.2994L267.219 62.7363V61.5312H265.219ZM243.93 31.1016H245.93V29.1016H243.93V31.1016ZM237.445 31.1016H235.445V33.1016H237.445V31.1016ZM237.445 22V20H235.445V22H237.445ZM243.93 22V24H245.93V22H243.93ZM243.93 13.3672L243.38 11.4441L241.93 11.8586V13.3672H243.93ZM256.234 9.85156H258.234V7.2001L255.685 7.92852L256.234 9.85156ZM256.234 22H254.234V24H256.234V22ZM265.219 22H267.219V20H265.219V22ZM265.219 31.1016V33.1016H267.219V31.1016H265.219ZM256.234 31.1016V29.1016H254.234V31.1016H256.234ZM265.219 52.3906H267.219V49.0165L264.259 50.6361L265.219 52.3906ZM265.219 61.5312L264.284 59.7631C262.894 60.4977 260.54 60.9766 256.977 60.9766V62.9766V64.9766C260.757 64.9766 263.897 64.4919 266.153 63.2994L265.219 61.5312ZM256.977 62.9766V60.9766C252.956 60.9766 250.303 59.9363 248.632 58.2009C246.948 56.4513 245.93 53.6505 245.93 49.4219H243.93H241.93C241.93 54.2297 243.086 58.2062 245.75 60.9749C248.429 63.7577 252.299 64.9766 256.977 64.9766V62.9766ZM243.93 49.4219H245.93V31.1016H243.93H241.93V49.4219H243.93ZM243.93 31.1016V29.1016H237.445V31.1016V33.1016H243.93V31.1016ZM237.445 31.1016H239.445V22H237.445H235.445V31.1016H237.445ZM237.445 22V24H243.93V22V20H237.445V22ZM243.93 22H245.93V13.3672H243.93H241.93V22H243.93ZM243.93 13.3672L244.479 15.2902L256.784 11.7746L256.234 9.85156L255.685 7.92852L243.38 11.4441L243.93 13.3672ZM256.234 9.85156H254.234V22H256.234H258.234V9.85156H256.234ZM256.234 22V24H265.219V22V20H256.234V22ZM265.219 22H263.219V31.1016H265.219H267.219V22H265.219ZM265.219 31.1016V29.1016H256.234V31.1016V33.1016H265.219V31.1016ZM256.234 31.1016H254.234V47.2734H256.234H258.234V31.1016H256.234ZM256.234 47.2734H254.234C254.234 49.5677 254.681 51.658 255.908 53.2043C257.205 54.8388 259.095 55.5234 261.195 55.5234V53.5234V51.5234C259.989 51.5234 259.397 51.1664 259.041 50.7175C258.615 50.1805 258.234 49.1458 258.234 47.2734H256.234ZM261.195 53.5234V55.5234C262.896 55.5234 264.565 55.0281 266.179 54.1451L265.219 52.3906L264.259 50.6361C263.112 51.2636 262.099 51.5234 261.195 51.5234V53.5234ZM265.219 52.3906H263.219V61.5312H265.219H267.219V52.3906H265.219ZM368.812 5.98438L370.746 6.49542L371.41 3.98438H368.812V5.98438ZM354.008 62V64H355.548L355.941 62.511L354.008 62ZM340.023 62L338.087 62.5009L338.475 64H340.023V62ZM330.727 26.0625L332.663 25.5616L332.66 25.5522L330.727 26.0625ZM329.828 19.7734L331.826 19.6836L331.74 17.7734H329.828V19.7734ZM329.672 19.7734V17.7734H327.847L327.68 19.5905L329.672 19.7734ZM328.656 26.0625L326.725 25.5415L326.723 25.5498L328.656 26.0625ZM319.125 62V64H320.664L321.058 62.5127L319.125 62ZM304.555 62L302.62 62.5085L303.013 64H304.555V62ZM289.828 5.98438V3.98438H287.234L287.894 6.4929L289.828 5.98438ZM303.617 5.98438L305.574 5.5705L305.238 3.98438H303.617V5.98438ZM311.508 43.2891L309.551 43.7029L309.552 43.7059L311.508 43.2891ZM312.25 49.6953L310.253 49.8116L310.363 51.6953H312.25V49.6953ZM312.484 49.6953V51.6953H314.383L314.482 49.7991L312.484 49.6953ZM313.617 43.1328L315.546 43.6626L315.546 43.6602L313.617 43.1328ZM323.773 5.98438V3.98438H322.247L321.844 5.45694L323.773 5.98438ZM337.289 5.98438L339.232 5.51023L338.86 3.98438H337.289V5.98438ZM346.469 43.6016L344.526 44.0757L344.526 44.078L346.469 43.6016ZM347.367 49.6172L345.377 49.8142L345.555 51.6172H347.367V49.6172ZM347.523 49.6172V51.6172H349.425L349.521 49.7183L347.523 49.6172ZM348.344 43.3672L350.301 43.778L350.302 43.7724L348.344 43.3672ZM356.078 5.98438V3.98438H354.45L354.12 5.57916L356.078 5.98438ZM368.812 5.98438L366.879 5.47333L352.074 61.489L354.008 62L355.941 62.511L370.746 6.49542L368.812 5.98438ZM354.008 62V60H340.023V62V64H354.008V62ZM340.023 62L341.96 61.4991L332.663 25.5616L330.727 26.0625L328.79 26.5634L338.087 62.5009L340.023 62ZM330.727 26.0625L332.66 25.5522C332.208 23.8384 331.925 21.8861 331.826 19.6836L329.828 19.7734L327.83 19.8632C327.939 22.2962 328.255 24.5366 328.793 26.5728L330.727 26.0625ZM329.828 19.7734V17.7734H329.672V19.7734V21.7734H329.828V19.7734ZM329.672 19.7734L327.68 19.5905C327.452 22.0796 327.127 24.0521 326.725 25.5415L328.656 26.0625L330.587 26.5835C331.071 24.7916 331.423 22.5714 331.663 19.9563L329.672 19.7734ZM328.656 26.0625L326.723 25.5498L317.192 61.4873L319.125 62L321.058 62.5127L330.589 26.5752L328.656 26.0625ZM319.125 62V60H304.555V62V64H319.125V62ZM304.555 62L306.489 61.4915L291.762 5.47585L289.828 5.98438L287.894 6.4929L302.62 62.5085L304.555 62ZM289.828 5.98438V7.98438H303.617V5.98438V3.98438H289.828V5.98438ZM303.617 5.98438L301.66 6.39825L309.551 43.7029L311.508 43.2891L313.465 42.8752L305.574 5.5705L303.617 5.98438ZM311.508 43.2891L309.552 43.7059C309.86 45.1525 310.1 47.1742 310.253 49.8116L312.25 49.6953L314.247 49.579C314.088 46.8518 313.833 44.6027 313.464 42.8722L311.508 43.2891ZM312.25 49.6953V51.6953H312.484V49.6953V47.6953H312.25V49.6953ZM312.484 49.6953L314.482 49.7991C314.577 47.9657 314.925 45.923 315.546 43.6626L313.617 43.1328L311.689 42.603C311.008 45.0822 310.6 47.4145 310.487 49.5916L312.484 49.6953ZM313.617 43.1328L315.546 43.6602L325.703 6.51181L323.773 5.98438L321.844 5.45694L311.688 42.6054L313.617 43.1328ZM323.773 5.98438V7.98438H337.289V5.98438V3.98438H323.773V5.98438ZM337.289 5.98438L335.346 6.45852L344.526 44.0757L346.469 43.6016L348.412 43.1274L339.232 5.51023L337.289 5.98438ZM346.469 43.6016L344.526 44.078C344.831 45.3192 345.119 47.2128 345.377 49.8142L347.367 49.6172L349.357 49.4201C349.094 46.7611 348.784 44.6443 348.411 43.1251L346.469 43.6016ZM347.367 49.6172V51.6172H347.523V49.6172V47.6172H347.367V49.6172ZM347.523 49.6172L349.521 49.7183C349.62 47.7698 349.879 45.79 350.301 43.778L348.344 43.3672L346.386 42.9564C345.923 45.1631 345.636 47.35 345.526 49.5161L347.523 49.6172ZM348.344 43.3672L350.302 43.7724L358.037 6.38959L356.078 5.98438L354.12 5.57916L346.385 42.962L348.344 43.3672ZM356.078 5.98438V7.98438H368.812V5.98438V3.98438H356.078V5.98438ZM404.789 62V64H406.789V62H404.789ZM393.109 62H391.109V64H393.109V62ZM393.109 56.2578H395.109V54.2578H393.109V56.2578ZM392.953 56.2578V54.2578H391.82L391.237 55.2303L392.953 56.2578ZM371.859 59.6953L370.445 61.1095L370.453 61.1178L370.462 61.1261L371.859 59.6953ZM382.328 37.4297L382.587 39.4129L382.592 39.4122L382.328 37.4297ZM393.188 35.9844L393.451 37.9669L395.188 37.7358V35.9844H393.188ZM372.484 33.6797H370.484V37.3979L373.587 35.3484L372.484 33.6797ZM372.484 24.3828L371.568 22.6049L370.484 23.1633V24.3828H372.484ZM379.516 22.0391L379.075 20.0883L379.071 20.0891L379.516 22.0391ZM393.188 43.0547H395.188V40.78L392.932 41.0711L393.188 43.0547ZM385.922 43.9922L385.666 42.0086L385.664 42.0088L385.922 43.9922ZM381.352 52.8984L379.977 54.3514L379.997 54.3704L380.018 54.3889L381.352 52.8984ZM391 51.8438L392.473 53.1963L392.479 53.1903L392.484 53.1843L391 51.8438ZM404.789 62V60H393.109V62V64H404.789V62ZM393.109 62H395.109V56.2578H393.109H391.109V62H393.109ZM393.109 56.2578V54.2578H392.953V56.2578V58.2578H393.109V56.2578ZM392.953 56.2578L391.237 55.2303C388.92 59.1006 385.603 60.9766 381.039 60.9766V62.9766V64.9766C386.996 64.9766 391.622 62.3734 394.669 57.2853L392.953 56.2578ZM381.039 62.9766V60.9766C377.549 60.9766 375.038 60.0043 373.257 58.2646L371.859 59.6953L370.462 61.1261C373.16 63.7614 376.769 64.9766 381.039 64.9766V62.9766ZM371.859 59.6953L373.274 58.2811C371.5 56.5072 370.539 54.1075 370.539 50.8672H368.539H366.539C366.539 54.9706 367.792 58.4563 370.445 61.1095L371.859 59.6953ZM368.539 50.8672H370.539C370.539 47.4054 371.549 44.9062 373.382 43.1199C375.26 41.2898 378.235 39.98 382.587 39.4129L382.328 37.4297L382.07 35.4465C377.228 36.0773 373.309 37.606 370.59 40.2551C367.827 42.948 366.539 46.5686 366.539 50.8672H368.539ZM382.328 37.4297L382.592 39.4122L393.451 37.9669L393.188 35.9844L392.924 34.0019L382.064 35.4472L382.328 37.4297ZM393.188 35.9844H395.188C395.188 33.4456 394.492 31.1859 392.767 29.5929C391.071 28.0278 388.718 27.4219 386.078 27.4219V29.4219V31.4219C388.178 31.4219 389.379 31.9097 390.054 32.5321C390.698 33.1266 391.188 34.1481 391.188 35.9844H393.188ZM386.078 29.4219V27.4219C380.889 27.4219 375.978 28.9745 371.382 32.0109L372.484 33.6797L373.587 35.3484C377.584 32.7077 381.736 31.4219 386.078 31.4219V29.4219ZM372.484 33.6797H374.484V24.3828H372.484H370.484V33.6797H372.484ZM372.484 24.3828L373.4 26.1608C374.91 25.3831 377.073 24.6475 379.96 23.989L379.516 22.0391L379.071 20.0891C376.021 20.7848 373.496 21.6117 371.568 22.6049L372.484 24.3828ZM379.516 22.0391L379.957 23.9898C382.842 23.3376 385.412 23.0234 387.68 23.0234V21.0234V19.0234C385.052 19.0234 382.179 19.3864 379.075 20.0883L379.516 22.0391ZM387.68 21.0234V23.0234C393.076 23.0234 396.755 24.3682 399.099 26.7068C401.442 29.0447 402.789 32.7131 402.789 38.0938H404.789H406.789C406.789 32.0942 405.284 27.2274 401.924 23.8752C398.565 20.5238 393.69 19.0234 387.68 19.0234V21.0234ZM404.789 38.0938H402.789V62H404.789H406.789V38.0938H404.789ZM393.188 45.75H395.188V43.0547H393.188H391.188V45.75H393.188ZM393.188 43.0547L392.932 41.0711L385.666 42.0086L385.922 43.9922L386.178 45.9757L393.443 45.0382L393.188 43.0547ZM385.922 43.9922L385.664 42.0088C383.445 42.2971 381.49 42.9737 380.07 44.2556C378.584 45.5973 377.906 47.3984 377.906 49.4219H379.906H381.906C381.906 48.3464 382.232 47.6931 382.75 47.2249C383.335 46.6969 384.388 46.2081 386.179 45.9755L385.922 43.9922ZM379.906 49.4219H377.906C377.906 51.3407 378.588 53.0374 379.977 54.3514L381.352 52.8984L382.726 51.4455C382.188 50.9366 381.906 50.3155 381.906 49.4219H379.906ZM381.352 52.8984L380.018 54.3889C381.461 55.68 383.307 56.2266 385.336 56.2266V54.2266V52.2266C384.031 52.2266 383.221 51.8877 382.685 51.408L381.352 52.8984ZM385.336 54.2266V56.2266C388.167 56.2266 390.606 55.2308 392.473 53.1963L391 51.8438L389.527 50.4912C388.478 51.6338 387.141 52.2266 385.336 52.2266V54.2266ZM391 51.8438L392.484 53.1843C394.317 51.1556 395.188 48.6266 395.188 45.75H393.188H391.188C391.188 47.7692 390.6 49.3028 389.516 50.5032L391 51.8438ZM411.938 60.9453H409.938V62.3495L411.258 62.8264L411.938 60.9453ZM411.938 50.9453L412.97 49.2323L409.938 47.4052V50.9453H411.938ZM417.992 53.6797L417.42 55.596L417.427 55.598L417.992 53.6797ZM428.891 53.6797L428.041 51.8692L428.034 51.8726L428.026 51.8761L428.891 53.6797ZM427.719 47.625L426.911 49.4548L426.921 49.4591L426.931 49.4633L427.719 47.625ZM421.703 45.5156L422.437 43.6553L422.423 43.6497L422.409 43.6442L421.703 45.5156ZM417.484 43.6016L416.472 45.3264L416.494 45.3393L416.516 45.3516L417.484 43.6016ZM414.438 41.1797L412.94 42.5058L412.951 42.5176L412.961 42.5292L414.438 41.1797ZM412.562 38.0156L410.673 38.6727L410.68 38.6909L410.687 38.7089L412.562 38.0156ZM413.383 27.9766L411.678 26.9314L411.671 26.9415L411.665 26.9516L413.383 27.9766ZM417.289 24.0312L418.354 25.7242L418.361 25.7197L417.289 24.0312ZM422.875 21.7656L423.314 23.7168L423.323 23.7149L423.332 23.7128L422.875 21.7656ZM434.828 21.4531L434.518 23.4289L434.531 23.431L434.545 23.433L434.828 21.4531ZM440.219 22.625H442.219V21.1285L440.783 20.7063L440.219 22.625ZM440.219 32.1562L439.211 33.8838L442.219 35.6383V32.1562H440.219ZM435.18 30.125L434.668 32.0584L434.685 32.0628L434.701 32.0669L435.18 30.125ZM427.641 29.6562L428.005 31.6228L428.032 31.6177L428.06 31.6119L427.641 29.6562ZM425.766 30.2812L426.625 32.087L426.66 32.0706L426.694 32.0529L425.766 30.2812ZM424.477 31.3359L426.077 32.5359L426.094 32.5129L426.111 32.4893L424.477 31.3359ZM426.547 36.0234L425.628 37.7999L425.653 37.8125L425.677 37.8245L426.547 36.0234ZM429.047 37.0391L428.398 38.931L428.43 38.9419L428.462 38.9518L429.047 37.0391ZM431.82 37.9375L432.48 36.0493L432.469 36.0456L431.82 37.9375ZM439.672 42.1953L438.278 43.6293L438.288 43.6388L438.297 43.6482L439.672 42.1953ZM441.859 45.3984L440.005 46.148L440.012 46.1648L440.019 46.1815L441.859 45.3984ZM441.078 55.8672L439.375 54.819L439.37 54.8264L441.078 55.8672ZM436.977 59.9688L438.025 61.6721L438.032 61.6676L436.977 59.9688ZM431.078 62.2344L430.668 60.2768L430.655 60.2796L430.642 60.2825L431.078 62.2344ZM411.938 60.9453H413.938V50.9453H411.938H409.938V60.9453H411.938ZM411.938 50.9453L410.905 52.6584C413.062 53.9578 415.234 54.943 417.42 55.596L417.992 53.6797L418.565 51.7634C416.74 51.2184 414.876 50.3807 412.97 49.2323L411.938 50.9453ZM417.992 53.6797L417.427 55.598C419.61 56.2418 421.715 56.5781 423.734 56.5781V54.5781V52.5781C422.16 52.5781 420.437 52.3155 418.558 51.7613L417.992 53.6797ZM423.734 54.5781V56.5781C426.066 56.5781 428.124 56.2649 429.755 55.4833L428.891 53.6797L428.026 51.8761C427.158 52.2924 425.777 52.5781 423.734 52.5781V54.5781ZM428.891 53.6797L429.74 55.4902C430.612 55.0812 431.398 54.5026 431.965 53.6938C432.542 52.8683 432.805 51.9246 432.805 50.9453H430.805H428.805C428.805 51.19 428.748 51.314 428.688 51.3999C428.616 51.5026 428.446 51.6792 428.041 51.8692L428.891 53.6797ZM430.805 50.9453H432.805C432.805 49.6064 432.285 48.4161 431.291 47.5123L429.945 48.9922L428.6 50.4721C428.752 50.61 428.805 50.7218 428.805 50.9453H430.805ZM429.945 48.9922L431.291 47.5123C430.514 46.8065 429.568 46.2416 428.507 45.7867L427.719 47.625L426.931 49.4633C427.692 49.7897 428.23 50.1362 428.6 50.4721L429.945 48.9922ZM427.719 47.625L428.526 45.7952C427.55 45.3646 426.49 44.9843 425.351 44.6508L424.789 46.5703L424.227 48.4898C425.223 48.7813 426.117 49.1042 426.911 49.4548L427.719 47.625ZM424.789 46.5703L425.351 44.6508C424.339 44.3547 423.368 44.0226 422.437 43.6553L421.703 45.5156L420.969 47.3759C422.017 47.7899 423.104 48.161 424.227 48.4898L424.789 46.5703ZM421.703 45.5156L422.409 43.6442C420.892 43.0724 419.576 42.4732 418.452 41.8515L417.484 43.6016L416.516 45.3516C417.84 46.0841 419.337 46.7609 420.998 47.387L421.703 45.5156ZM417.484 43.6016L418.497 41.8767C417.45 41.2624 416.596 40.5769 415.914 39.8301L414.438 41.1797L412.961 42.5292C413.945 43.6054 415.123 44.5345 416.472 45.3264L417.484 43.6016ZM414.438 41.1797L415.935 39.8536C415.3 39.1368 414.799 38.2992 414.438 37.3223L412.562 38.0156L410.687 38.7089C411.211 40.1279 411.961 41.3997 412.94 42.5058L414.438 41.1797ZM412.562 38.0156L414.452 37.3586C414.126 36.4236 413.938 35.237 413.938 33.7578H411.938H409.938C409.938 35.5599 410.165 37.2118 410.673 38.6727L412.562 38.0156ZM411.938 33.7578H413.938C413.938 31.8097 414.354 30.2516 415.1 29.0015L413.383 27.9766L411.665 26.9516C410.484 28.9307 409.938 31.2268 409.938 33.7578H411.938ZM413.383 27.9766L415.088 29.0217C415.916 27.6714 416.998 26.5772 418.354 25.7242L417.289 24.0312L416.224 22.3383C414.351 23.5165 412.829 25.0526 411.678 26.9314L413.383 27.9766ZM417.289 24.0312L418.361 25.7197C419.789 24.813 421.433 24.1401 423.314 23.7168L422.875 21.7656L422.436 19.8144C420.15 20.3287 418.07 21.1662 416.217 22.3428L417.289 24.0312ZM422.875 21.7656L423.332 23.7128C425.285 23.2547 427.319 23.0234 429.438 23.0234V21.0234V19.0234C427.025 19.0234 424.684 19.287 422.418 19.8185L422.875 21.7656ZM429.438 21.0234V23.0234C431.1 23.0234 432.793 23.1579 434.518 23.4289L434.828 21.4531L435.139 19.4774C433.217 19.1754 431.317 19.0234 429.438 19.0234V21.0234ZM434.828 21.4531L434.545 23.433C436.273 23.6798 437.976 24.05 439.654 24.5437L440.219 22.625L440.783 20.7063C438.92 20.1584 437.029 19.7473 435.111 19.4732L434.828 21.4531ZM440.219 22.625H438.219V32.1562H440.219H442.219V22.625H440.219ZM440.219 32.1562L441.227 30.4287C439.495 29.4186 437.636 28.6705 435.658 28.1831L435.18 30.125L434.701 32.0669C436.317 32.4649 437.818 33.071 439.211 33.8838L440.219 32.1562ZM435.18 30.125L435.691 28.1916C433.765 27.6815 431.848 27.4219 429.945 27.4219V29.4219V31.4219C431.48 31.4219 433.053 31.631 434.668 32.0584L435.18 30.125ZM429.945 29.4219V27.4219C429.009 27.4219 428.099 27.5126 427.222 27.7006L427.641 29.6562L428.06 31.6119C428.64 31.4874 429.267 31.4219 429.945 31.4219V29.4219ZM427.641 29.6562L427.276 27.6897C426.407 27.8507 425.587 28.117 424.838 28.5096L425.766 30.2812L426.694 32.0529C427.038 31.8726 427.468 31.7222 428.005 31.6228L427.641 29.6562ZM425.766 30.2812L424.906 28.4755C424.086 28.8657 423.375 29.4278 422.843 30.1826L424.477 31.3359L426.111 32.4893C426.203 32.3587 426.351 32.2176 426.625 32.087L425.766 30.2812ZM424.477 31.3359L422.877 30.1359C422.291 30.9169 422.008 31.8248 422.008 32.7812H424.008H426.008C426.008 32.644 426.037 32.5884 426.077 32.5359L424.477 31.3359ZM424.008 32.7812H422.008C422.008 33.9825 422.411 35.09 423.224 35.9942L424.711 34.6562L426.198 33.3183C426.074 33.1808 426.008 33.0384 426.008 32.7812H424.008ZM424.711 34.6562L423.224 35.9942C423.885 36.7279 424.703 37.3214 425.628 37.7999L426.547 36.0234L427.466 34.247C426.88 33.9442 426.475 33.6263 426.198 33.3183L424.711 34.6562ZM426.547 36.0234L425.677 37.8245C426.514 38.2284 427.422 38.5963 428.398 38.931L429.047 37.0391L429.696 35.1472C428.849 34.8568 428.09 34.5476 427.416 34.2223L426.547 36.0234ZM429.047 37.0391L428.462 38.9518C429.379 39.2318 430.282 39.5243 431.172 39.8294L431.82 37.9375L432.469 36.0456C431.536 35.7257 430.59 35.4193 429.631 35.1264L429.047 37.0391ZM431.82 37.9375L431.161 39.8257C432.73 40.3736 434.129 40.9643 435.365 41.5943L436.273 39.8125L437.182 38.0307C435.761 37.3065 434.192 36.6473 432.48 36.0493L431.82 37.9375ZM436.273 39.8125L435.365 41.5943C436.539 42.1929 437.502 42.8754 438.278 43.6293L439.672 42.1953L441.066 40.7613C439.966 39.6923 438.664 38.7862 437.182 38.0307L436.273 39.8125ZM439.672 42.1953L438.297 43.6482C439.053 44.3634 439.618 45.1915 440.005 46.148L441.859 45.3984L443.714 44.6489C443.111 43.1574 442.217 41.8502 441.046 40.7424L439.672 42.1953ZM441.859 45.3984L440.019 46.1815C440.41 47.1003 440.641 48.2793 440.641 49.7734H442.641H444.641C444.641 47.8821 444.35 46.1445 443.7 44.6153L441.859 45.3984ZM442.641 49.7734H440.641C440.641 51.8449 440.188 53.4975 439.375 54.819L441.078 55.8672L442.781 56.9154C444.052 54.8514 444.641 52.4415 444.641 49.7734H442.641ZM441.078 55.8672L439.37 54.8264C438.524 56.2157 437.384 57.3612 435.921 58.2699L436.977 59.9688L438.032 61.6676C440.007 60.4409 441.601 58.852 442.786 56.9079L441.078 55.8672ZM436.977 59.9688L435.928 58.2654C434.459 59.1694 432.716 59.8483 430.668 60.2768L431.078 62.2344L431.488 64.192C433.92 63.683 436.108 62.8515 438.025 61.6721L436.977 59.9688ZM431.078 62.2344L430.642 60.2825C428.579 60.7436 426.421 60.9766 424.164 60.9766V62.9766V64.9766C426.698 64.9766 429.15 64.7148 431.514 64.1862L431.078 62.2344ZM424.164 62.9766V60.9766C419.971 60.9766 416.128 60.332 412.617 59.0642L411.938 60.9453L411.258 62.8264C415.247 64.267 419.555 64.9766 424.164 64.9766V62.9766ZM488.188 62V64H490.188V62H488.188ZM475.883 62H473.883V64H475.883V62ZM464.164 32.9375L465.707 34.2106L464.164 32.9375ZM462.133 62V64H464.133V62H462.133ZM449.789 62H447.789V64H449.789V62ZM449.789 2.78125V0.78125H447.789V2.78125H449.789ZM462.133 2.78125H464.133V0.78125H462.133V2.78125ZM462.133 27.9375H460.133V29.9375H462.133V27.9375ZM462.289 27.9375V29.9375H463.37L463.962 29.0338L462.289 27.9375ZM488.188 62V60H475.883V62V64H488.188V62ZM475.883 62H477.883V39.2656H475.883H473.883V62H475.883ZM475.883 39.2656H477.883C477.883 36.1523 477.326 33.4558 475.897 31.4958C474.383 29.4181 472.122 28.4766 469.477 28.4766V30.4766V32.4766C471.102 32.4766 472.044 32.9998 472.665 33.8519C473.372 34.8216 473.883 36.5195 473.883 39.2656H475.883ZM469.477 30.4766V28.4766C466.712 28.4766 464.368 29.5486 462.622 31.6644L464.164 32.9375L465.707 34.2106C466.668 33.0452 467.866 32.4766 469.477 32.4766V30.4766ZM464.164 32.9375L462.622 31.6644C460.919 33.7277 460.133 36.2878 460.133 39.1875H462.133H464.133C464.133 37.0351 464.701 35.4285 465.707 34.2106L464.164 32.9375ZM462.133 39.1875H460.133V62H462.133H464.133V39.1875H462.133ZM462.133 62V60H449.789V62V64H462.133V62ZM449.789 62H451.789V2.78125H449.789H447.789V62H449.789ZM449.789 2.78125V4.78125H462.133V2.78125V0.78125H449.789V2.78125ZM462.133 2.78125H460.133V27.9375H462.133H464.133V2.78125H462.133ZM462.133 27.9375V29.9375H462.289V27.9375V25.9375H462.133V27.9375ZM462.289 27.9375L463.962 29.0338C466.641 24.9456 470.135 23.0234 474.594 23.0234V21.0234V19.0234C468.688 19.0234 463.979 21.7106 460.616 26.8412L462.289 27.9375ZM474.594 21.0234V23.0234C478.707 23.0234 481.464 24.2466 483.249 26.401C485.094 28.6275 486.188 32.1873 486.188 37.4297H488.188H490.188C490.188 31.7346 489.016 27.0912 486.329 23.849C483.583 20.5347 479.543 19.0234 474.594 19.0234V21.0234ZM488.188 37.4297H486.188V62H488.188H490.188V37.4297H488.188ZM499.125 13.8359L497.754 15.2923L497.762 15.2995L497.77 15.3066L499.125 13.8359ZM509.359 4.73438L508.021 6.22096L508.029 6.22754L508.036 6.23405L509.359 4.73438ZM509.359 13.875L508.02 12.3899L508.013 12.3965L508.005 12.4031L509.359 13.875ZM510.336 62V64H512.336V62H510.336ZM497.992 62H495.992V64H497.992V62ZM497.992 22V20H495.992V22H497.992ZM510.336 22H512.336V20H510.336V22ZM504.242 15.6719V13.6719C502.579 13.6719 501.383 13.1968 500.48 12.3652L499.125 13.8359L497.77 15.3066C499.524 16.923 501.739 17.6719 504.242 17.6719V15.6719ZM499.125 13.8359L500.496 12.3795C499.562 11.5011 499.133 10.5017 499.133 9.26562H497.133H495.133C495.133 11.6233 496.031 13.6708 497.754 15.2923L499.125 13.8359ZM497.133 9.26562H499.133C499.133 7.96184 499.571 7.00771 500.448 6.23405L499.125 4.73438L497.802 3.2347C496.022 4.80479 495.133 6.87149 495.133 9.26562H497.133ZM499.125 4.73438L500.448 6.23405C501.348 5.43997 502.555 4.97656 504.242 4.97656V2.97656V0.976562C501.762 0.976562 499.558 1.68503 497.802 3.2347L499.125 4.73438ZM504.242 2.97656V4.97656C505.964 4.97656 507.159 5.44434 508.021 6.22096L509.359 4.73438L510.697 3.24779C508.956 1.68066 506.74 0.976562 504.242 0.976562V2.97656ZM509.359 4.73438L508.036 6.23405C508.913 7.00771 509.352 7.96184 509.352 9.26562H511.352H513.352C513.352 6.87149 512.462 4.80479 510.683 3.2347L509.359 4.73438ZM511.352 9.26562H509.352C509.352 10.6054 508.905 11.5914 508.02 12.3899L509.359 13.875L510.699 15.3601C512.47 13.7627 513.352 11.6759 513.352 9.26562H511.352ZM509.359 13.875L508.005 12.4031C507.141 13.1981 505.952 13.6719 504.242 13.6719V15.6719V17.6719C506.751 17.6719 508.973 16.9477 510.714 15.3469L509.359 13.875ZM510.336 62V60H497.992V62V64H510.336V62ZM497.992 62H499.992V22H497.992H495.992V62H497.992ZM497.992 22V24H510.336V22V20H497.992V22ZM510.336 22H508.336V62H510.336H512.336V22H510.336ZM584.242 62V64H586.242V62H584.242ZM571.938 62H569.938V64H571.938V62ZM558.656 62V64H560.656V62H558.656ZM546.312 62H544.312V64H546.312V62ZM534.945 32.9766L533.357 31.7607L533.351 31.7686L533.345 31.7766L534.945 32.9766ZM533.07 62V64H535.07V62H533.07ZM520.727 62H518.727V64H520.727V62ZM520.727 22V20H518.727V22H520.727ZM533.07 22H535.07V20H533.07V22ZM533.07 28.25H531.07V30.25H533.07V28.25ZM533.227 28.25V30.25H534.361L534.943 29.2759L533.227 28.25ZM538.578 23.0547L539.581 24.7851L539.587 24.7815L538.578 23.0547ZM557.758 28.4844L555.913 29.257L557.422 32.8607L559.463 29.5291L557.758 28.4844ZM584.242 62V60H571.938V62V64H584.242V62ZM571.938 62H573.938V39.1875H571.938H569.938V62H571.938ZM571.938 39.1875H573.938C573.938 36.0976 573.38 33.4175 571.947 31.4694C570.43 29.4065 568.17 28.4766 565.531 28.4766V30.4766V32.4766C567.164 32.4766 568.106 32.9985 568.725 33.8392C569.427 34.7947 569.938 36.4701 569.938 39.1875H571.938ZM565.531 30.4766V28.4766C562.816 28.4766 560.58 29.692 558.956 31.9131L560.57 33.0938L562.185 34.2744C563.112 33.0059 564.184 32.4766 565.531 32.4766V30.4766ZM560.57 33.0938L558.956 31.9131C557.381 34.066 556.656 36.6775 556.656 39.6172H558.656H560.656C560.656 37.3485 561.207 35.6111 562.185 34.2744L560.57 33.0938ZM558.656 39.6172H556.656V62H558.656H560.656V39.6172H558.656ZM558.656 62V60H546.312V62V64H558.656V62ZM546.312 62H548.312V38.9531H546.312H544.312V62H546.312ZM546.312 38.9531H548.312C548.312 35.9386 547.764 33.3142 546.346 31.404C544.846 29.3819 542.616 28.4766 540.023 28.4766V30.4766V32.4766C541.624 32.4766 542.538 32.9839 543.134 33.7874C543.813 34.7027 544.312 36.3166 544.312 38.9531H546.312ZM540.023 30.4766V28.4766C537.295 28.4766 535.014 29.5969 533.357 31.7607L534.945 32.9766L536.533 34.1924C537.429 33.0229 538.533 32.4766 540.023 32.4766V30.4766ZM534.945 32.9766L533.345 31.7766C531.754 33.8983 531.07 36.6355 531.07 39.7734H533.07H535.07C535.07 37.1822 535.637 35.3882 536.545 34.1766L534.945 32.9766ZM533.07 39.7734H531.07V62H533.07H535.07V39.7734H533.07ZM533.07 62V60H520.727V62V64H533.07V62ZM520.727 62H522.727V22H520.727H518.727V62H520.727ZM520.727 22V24H533.07V22V20H520.727V22ZM533.07 22H531.07V28.25H533.07H535.07V22H533.07ZM533.07 28.25V30.25H533.227V28.25V26.25H533.07V28.25ZM533.227 28.25L534.943 29.2759C536.034 27.4511 537.564 25.9542 539.581 24.7851L538.578 23.0547L537.575 21.3243C535.009 22.8114 532.971 24.7781 531.51 27.2241L533.227 28.25ZM538.578 23.0547L539.587 24.7815C541.593 23.6097 543.77 23.0234 546.156 23.0234V21.0234V19.0234C543.074 19.0234 540.199 19.7913 537.569 21.3278L538.578 23.0547ZM546.156 21.0234V23.0234C548.686 23.0234 550.669 23.5779 552.213 24.5708C553.75 25.5595 555 27.0773 555.913 29.257L557.758 28.4844L559.603 27.7117C558.432 24.9175 556.707 22.7048 554.377 21.2065C552.054 19.7125 549.277 19.0234 546.156 19.0234V21.0234ZM557.758 28.4844L559.463 29.5291C562.141 25.1583 565.968 23.0234 571.195 23.0234V21.0234V19.0234C564.599 19.0234 559.469 21.8625 556.052 27.4397L557.758 28.4844ZM571.195 21.0234V23.0234C575.112 23.0234 577.728 24.2107 579.427 26.3064C581.191 28.4823 582.242 31.971 582.242 37.1172H584.242H586.242C586.242 31.5342 585.119 26.9761 582.534 23.7874C579.884 20.5184 575.977 19.0234 571.195 19.0234V21.0234ZM584.242 37.1172H582.242V62H584.242H586.242V37.1172H584.242ZM605.688 52.1562L607.608 52.7142L608.351 50.1562H605.688V52.1562ZM599.945 71.9219V73.9219H601.447L601.866 72.4798L599.945 71.9219ZM590.336 71.9219L588.375 71.5267L587.893 73.9219H590.336V71.9219ZM594.32 52.1562V50.1562H592.683L592.36 51.761L594.32 52.1562ZM605.688 52.1562L603.767 51.5983L598.025 71.3639L599.945 71.9219L601.866 72.4798L607.608 52.7142L605.688 52.1562ZM599.945 71.9219V69.9219H590.336V71.9219V73.9219H599.945V71.9219ZM590.336 71.9219L592.297 72.3171L596.281 52.5515L594.32 52.1562L592.36 51.761L588.375 71.5267L590.336 71.9219ZM594.32 52.1562V54.1562H605.688V52.1562V50.1562H594.32V52.1562ZM702.875 62V64H704.875V62H702.875ZM690.414 62H688.414V64H690.414V62ZM690.883 16.4922L692.878 16.6347L693.031 14.4922H690.883V16.4922ZM690.57 16.4922V14.4922H688.914L688.605 16.12L690.57 16.4922ZM688.812 23.9141L686.922 23.2621L686.922 23.2624L688.812 23.9141ZM675.688 62V64H677.114L677.578 62.6516L675.688 62ZM665.375 62L663.49 62.6681L663.962 64H665.375V62ZM652.016 24.3047L653.901 23.6366L653.898 23.629L652.016 24.3047ZM650.258 16.4922L652.222 16.114L651.909 14.4922H650.258V16.4922ZM649.906 16.4922V14.4922H647.78L647.91 16.6146L649.906 16.4922ZM650.414 62V64H652.414V62H650.414ZM639.047 62H637.047V64H639.047V62ZM639.047 5.98438V3.98438H637.047V5.98438H639.047ZM657.523 5.98438L659.414 5.3326L658.95 3.98438H657.523V5.98438ZM668.969 39.1875L670.86 38.5384L670.86 38.5357L668.969 39.1875ZM670.961 47.1953L668.985 47.5023L669.248 49.1953H670.961V47.1953ZM671.195 47.1953V49.1953H672.792L673.146 47.6378L671.195 47.1953ZM673.422 39.1094L671.531 38.4562L671.529 38.464L673.422 39.1094ZM684.867 5.98438V3.98438H683.442L682.977 5.33123L684.867 5.98438ZM702.875 5.98438H704.875V3.98438H702.875V5.98438ZM702.875 62V60H690.414V62V64H702.875V62ZM690.414 62H692.414V28.4844H690.414H688.414V62H690.414ZM690.414 28.4844H692.414C692.414 24.9208 692.568 20.9718 692.878 16.6347L690.883 16.4922L688.888 16.3497C688.573 20.7626 688.414 24.8084 688.414 28.4844H690.414ZM690.883 16.4922V14.4922H690.57V16.4922V18.4922H690.883V16.4922ZM690.57 16.4922L688.605 16.12C687.956 19.5469 687.392 21.8987 686.922 23.2621L688.812 23.9141L690.703 24.566C691.275 22.9086 691.882 20.3125 692.535 16.8644L690.57 16.4922ZM688.812 23.9141L686.922 23.2624L673.797 61.3484L675.688 62L677.578 62.6516L690.703 24.5657L688.812 23.9141ZM675.688 62V60H665.375V62V64H675.688V62ZM665.375 62L667.26 61.3319L653.901 23.6366L652.016 24.3047L650.13 24.9728L663.49 62.6681L665.375 62ZM652.016 24.3047L653.898 23.629C653.597 22.7917 653.04 20.3628 652.222 16.114L650.258 16.4922L648.294 16.8703C649.09 21.007 649.705 23.7864 650.133 24.9804L652.016 24.3047ZM650.258 16.4922V14.4922H649.906V16.4922V18.4922H650.258V16.4922ZM649.906 16.4922L647.91 16.6146C648.247 22.107 648.414 26.9083 648.414 31.0234H650.414H652.414C652.414 26.8053 652.243 21.9191 651.903 16.3698L649.906 16.4922ZM650.414 31.0234H648.414V62H650.414H652.414V31.0234H650.414ZM650.414 62V60H639.047V62V64H650.414V62ZM639.047 62H641.047V5.98438H639.047H637.047V62H639.047ZM639.047 5.98438V7.98438H657.523V5.98438V3.98438H639.047V5.98438ZM657.523 5.98438L655.633 6.63615L667.078 39.8393L668.969 39.1875L670.86 38.5357L659.414 5.3326L657.523 5.98438ZM668.969 39.1875L667.077 39.8366C667.952 42.3854 668.587 44.9403 668.985 47.5023L670.961 47.1953L672.937 46.8883C672.502 44.0858 671.809 41.3021 670.86 38.5384L668.969 39.1875ZM670.961 47.1953V49.1953H671.195V47.1953V45.1953H670.961V47.1953ZM671.195 47.1953L673.146 47.6378C673.838 44.5876 674.562 41.963 675.315 39.7547L673.422 39.1094L671.529 38.464C670.719 40.8391 669.959 43.6051 669.245 46.7528L671.195 47.1953ZM673.422 39.1094L675.312 39.7625L686.758 6.63752L684.867 5.98438L682.977 5.33123L671.532 38.4562L673.422 39.1094ZM684.867 5.98438V7.98438H702.875V5.98438V3.98438H684.867V5.98438ZM702.875 5.98438H700.875V62H702.875H704.875V5.98438H702.875ZM747.68 62V64H749.68V62H747.68ZM736 62H734V64H736V62ZM736 56.2578H738V54.2578H736V56.2578ZM735.844 56.2578V54.2578H734.71L734.128 55.2303L735.844 56.2578ZM714.75 59.6953L713.336 61.1095L713.344 61.1178L713.353 61.1261L714.75 59.6953ZM725.219 37.4297L725.477 39.4129L725.483 39.4122L725.219 37.4297ZM736.078 35.9844L736.342 37.9669L738.078 37.7358V35.9844H736.078ZM715.375 33.6797H713.375V37.3979L716.477 35.3484L715.375 33.6797ZM715.375 24.3828L714.459 22.6049L713.375 23.1633V24.3828H715.375ZM722.406 22.0391L721.965 20.0883L721.962 20.0891L722.406 22.0391ZM736.078 43.0547H738.078V40.78L735.822 41.0711L736.078 43.0547ZM728.812 43.9922L728.557 42.0086L728.555 42.0088L728.812 43.9922ZM724.242 52.8984L722.868 54.3514L722.888 54.3704L722.909 54.3889L724.242 52.8984ZM733.891 51.8438L735.364 53.1963L735.369 53.1903L735.375 53.1843L733.891 51.8438ZM747.68 62V60H736V62V64H747.68V62ZM736 62H738V56.2578H736H734V62H736ZM736 56.2578V54.2578H735.844V56.2578V58.2578H736V56.2578ZM735.844 56.2578L734.128 55.2303C731.81 59.1006 728.494 60.9766 723.93 60.9766V62.9766V64.9766C729.887 64.9766 734.513 62.3734 737.56 57.2853L735.844 56.2578ZM723.93 62.9766V60.9766C720.44 60.9766 717.929 60.0043 716.147 58.2646L714.75 59.6953L713.353 61.1261C716.051 63.7614 719.659 64.9766 723.93 64.9766V62.9766ZM714.75 59.6953L716.164 58.2811C714.39 56.5072 713.43 54.1075 713.43 50.8672H711.43H709.43C709.43 54.9706 710.683 58.4563 713.336 61.1095L714.75 59.6953ZM711.43 50.8672H713.43C713.43 47.4054 714.44 44.9062 716.273 43.1199C718.151 41.2898 721.126 39.98 725.477 39.4129L725.219 37.4297L724.96 35.4465C720.119 36.0773 716.2 37.606 713.481 40.2551C710.718 42.948 709.43 46.5686 709.43 50.8672H711.43ZM725.219 37.4297L725.483 39.4122L736.342 37.9669L736.078 35.9844L735.814 34.0019L724.955 35.4472L725.219 37.4297ZM736.078 35.9844H738.078C738.078 33.4456 737.383 31.1859 735.657 29.5929C733.962 28.0278 731.609 27.4219 728.969 27.4219V29.4219V31.4219C731.068 31.4219 732.27 31.9097 732.944 32.5321C733.588 33.1266 734.078 34.1481 734.078 35.9844H736.078ZM728.969 29.4219V27.4219C723.779 27.4219 718.869 28.9745 714.273 32.0109L715.375 33.6797L716.477 35.3484C720.475 32.7077 724.627 31.4219 728.969 31.4219V29.4219ZM715.375 33.6797H717.375V24.3828H715.375H713.375V33.6797H715.375ZM715.375 24.3828L716.291 26.1608C717.801 25.3831 719.964 24.6475 722.851 23.989L722.406 22.0391L721.962 20.0891C718.911 20.7848 716.387 21.6117 714.459 22.6049L715.375 24.3828ZM722.406 22.0391L722.847 23.9898C725.732 23.3376 728.303 23.0234 730.57 23.0234V21.0234V19.0234C727.942 19.0234 725.07 19.3864 721.965 20.0883L722.406 22.0391ZM730.57 21.0234V23.0234C735.966 23.0234 739.646 24.3682 741.99 26.7068C744.333 29.0447 745.68 32.7131 745.68 38.0938H747.68H749.68C749.68 32.0942 748.175 27.2274 744.815 23.8752C741.456 20.5238 736.581 19.0234 730.57 19.0234V21.0234ZM747.68 38.0938H745.68V62H747.68H749.68V38.0938H747.68ZM736.078 45.75H738.078V43.0547H736.078H734.078V45.75H736.078ZM736.078 43.0547L735.822 41.0711L728.557 42.0086L728.812 43.9922L729.068 45.9757L736.334 45.0382L736.078 43.0547ZM728.812 43.9922L728.555 42.0088C726.336 42.2971 724.381 42.9737 722.961 44.2556C721.474 45.5973 720.797 47.3984 720.797 49.4219H722.797H724.797C724.797 48.3464 725.122 47.6931 725.641 47.2249C726.226 46.6969 727.279 46.2081 729.07 45.9755L728.812 43.9922ZM722.797 49.4219H720.797C720.797 51.3407 721.479 53.0374 722.868 54.3514L724.242 52.8984L725.617 51.4455C725.079 50.9366 724.797 50.3155 724.797 49.4219H722.797ZM724.242 52.8984L722.909 54.3889C724.352 55.68 726.198 56.2266 728.227 56.2266V54.2266V52.2266C726.922 52.2266 726.112 51.8877 725.576 51.408L724.242 52.8984ZM728.227 54.2266V56.2266C731.057 56.2266 733.496 55.2308 735.364 53.1963L733.891 51.8438L732.417 50.4912C731.368 51.6338 730.031 52.2266 728.227 52.2266V54.2266ZM733.891 51.8438L735.375 53.1843C737.207 51.1556 738.078 48.6266 738.078 45.75H736.078H734.078C734.078 47.7692 733.491 49.3028 732.406 50.5032L733.891 51.8438ZM795.844 62V64H797.844V62H795.844ZM783.539 62H781.539V64H783.539V62ZM771.82 32.9375L773.363 34.2106L771.82 32.9375ZM769.789 62V64H771.789V62H769.789ZM757.445 62H755.445V64H757.445V62ZM757.445 2.78125V0.78125H755.445V2.78125H757.445ZM769.789 2.78125H771.789V0.78125H769.789V2.78125ZM769.789 27.9375H767.789V29.9375H769.789V27.9375ZM769.945 27.9375V29.9375H771.026L771.618 29.0338L769.945 27.9375ZM795.844 62V60H783.539V62V64H795.844V62ZM783.539 62H785.539V39.2656H783.539H781.539V62H783.539ZM783.539 39.2656H785.539C785.539 36.1523 784.982 33.4558 783.554 31.4958C782.039 29.4181 779.778 28.4766 777.133 28.4766V30.4766V32.4766C778.758 32.4766 779.7 32.9998 780.321 33.8519C781.028 34.8216 781.539 36.5195 781.539 39.2656H783.539ZM777.133 30.4766V28.4766C774.368 28.4766 772.024 29.5486 770.278 31.6644L771.82 32.9375L773.363 34.2106C774.325 33.0452 775.523 32.4766 777.133 32.4766V30.4766ZM771.82 32.9375L770.278 31.6644C768.575 33.7277 767.789 36.2878 767.789 39.1875H769.789H771.789C771.789 37.0351 772.357 35.4285 773.363 34.2106L771.82 32.9375ZM769.789 39.1875H767.789V62H769.789H771.789V39.1875H769.789ZM769.789 62V60H757.445V62V64H769.789V62ZM757.445 62H759.445V2.78125H757.445H755.445V62H757.445ZM757.445 2.78125V4.78125H769.789V2.78125V0.78125H757.445V2.78125ZM769.789 2.78125H767.789V27.9375H769.789H771.789V2.78125H769.789ZM769.789 27.9375V29.9375H769.945V27.9375V25.9375H769.789V27.9375ZM769.945 27.9375L771.618 29.0338C774.297 24.9456 777.792 23.0234 782.25 23.0234V21.0234V19.0234C776.344 19.0234 771.635 21.7106 768.273 26.8412L769.945 27.9375ZM782.25 21.0234V23.0234C786.364 23.0234 789.12 24.2466 790.905 26.401C792.75 28.6275 793.844 32.1873 793.844 37.4297H795.844H797.844C797.844 31.7346 796.672 27.0912 793.985 23.849C791.239 20.5347 787.199 19.0234 782.25 19.0234V21.0234ZM795.844 37.4297H793.844V62H795.844H797.844V37.4297H795.844ZM838.93 62V64H840.93V62H838.93ZM827.25 62H825.25V64H827.25V62ZM827.25 56.2578H829.25V54.2578H827.25V56.2578ZM827.094 56.2578V54.2578H825.96L825.378 55.2303L827.094 56.2578ZM806 59.6953L804.586 61.1095L804.594 61.1178L804.603 61.1261L806 59.6953ZM816.469 37.4297L816.727 39.4129L816.733 39.4122L816.469 37.4297ZM827.328 35.9844L827.592 37.9669L829.328 37.7358V35.9844H827.328ZM806.625 33.6797H804.625V37.3979L807.727 35.3484L806.625 33.6797ZM806.625 24.3828L805.709 22.6049L804.625 23.1633V24.3828H806.625ZM813.656 22.0391L813.215 20.0883L813.212 20.0891L813.656 22.0391ZM827.328 43.0547H829.328V40.78L827.072 41.0711L827.328 43.0547ZM820.062 43.9922L819.807 42.0086L819.805 42.0088L820.062 43.9922ZM815.492 52.8984L814.118 54.3514L814.138 54.3704L814.159 54.3889L815.492 52.8984ZM825.141 51.8438L826.614 53.1963L826.619 53.1903L826.625 53.1843L825.141 51.8438ZM838.93 62V60H827.25V62V64H838.93V62ZM827.25 62H829.25V56.2578H827.25H825.25V62H827.25ZM827.25 56.2578V54.2578H827.094V56.2578V58.2578H827.25V56.2578ZM827.094 56.2578L825.378 55.2303C823.06 59.1006 819.744 60.9766 815.18 60.9766V62.9766V64.9766C821.137 64.9766 825.763 62.3734 828.81 57.2853L827.094 56.2578ZM815.18 62.9766V60.9766C811.69 60.9766 809.179 60.0043 807.397 58.2646L806 59.6953L804.603 61.1261C807.301 63.7614 810.909 64.9766 815.18 64.9766V62.9766ZM806 59.6953L807.414 58.2811C805.64 56.5072 804.68 54.1075 804.68 50.8672H802.68H800.68C800.68 54.9706 801.933 58.4563 804.586 61.1095L806 59.6953ZM802.68 50.8672H804.68C804.68 47.4054 805.69 44.9062 807.523 43.1199C809.401 41.2898 812.376 39.98 816.727 39.4129L816.469 37.4297L816.21 35.4465C811.369 36.0773 807.45 37.606 804.731 40.2551C801.968 42.948 800.68 46.5686 800.68 50.8672H802.68ZM816.469 37.4297L816.733 39.4122L827.592 37.9669L827.328 35.9844L827.064 34.0019L816.205 35.4472L816.469 37.4297ZM827.328 35.9844H829.328C829.328 33.4456 828.633 31.1859 826.907 29.5929C825.212 28.0278 822.859 27.4219 820.219 27.4219V29.4219V31.4219C822.318 31.4219 823.52 31.9097 824.194 32.5321C824.838 33.1266 825.328 34.1481 825.328 35.9844H827.328ZM820.219 29.4219V27.4219C815.029 27.4219 810.119 28.9745 805.523 32.0109L806.625 33.6797L807.727 35.3484C811.725 32.7077 815.877 31.4219 820.219 31.4219V29.4219ZM806.625 33.6797H808.625V24.3828H806.625H804.625V33.6797H806.625ZM806.625 24.3828L807.541 26.1608C809.051 25.3831 811.214 24.6475 814.101 23.989L813.656 22.0391L813.212 20.0891C810.161 20.7848 807.637 21.6117 805.709 22.6049L806.625 24.3828ZM813.656 22.0391L814.097 23.9898C816.982 23.3376 819.553 23.0234 821.82 23.0234V21.0234V19.0234C819.192 19.0234 816.32 19.3864 813.215 20.0883L813.656 22.0391ZM821.82 21.0234V23.0234C827.216 23.0234 830.896 24.3682 833.24 26.7068C835.583 29.0447 836.93 32.7131 836.93 38.0938H838.93H840.93C840.93 32.0942 839.425 27.2274 836.065 23.8752C832.706 20.5238 827.831 19.0234 821.82 19.0234V21.0234ZM838.93 38.0938H836.93V62H838.93H840.93V38.0938H838.93ZM827.328 45.75H829.328V43.0547H827.328H825.328V45.75H827.328ZM827.328 43.0547L827.072 41.0711L819.807 42.0086L820.062 43.9922L820.318 45.9757L827.584 45.0382L827.328 43.0547ZM820.062 43.9922L819.805 42.0088C817.586 42.2971 815.631 42.9737 814.211 44.2556C812.724 45.5973 812.047 47.3984 812.047 49.4219H814.047H816.047C816.047 48.3464 816.372 47.6931 816.891 47.2249C817.476 46.6969 818.529 46.2081 820.32 45.9755L820.062 43.9922ZM814.047 49.4219H812.047C812.047 51.3407 812.729 53.0374 814.118 54.3514L815.492 52.8984L816.867 51.4455C816.329 50.9366 816.047 50.3155 816.047 49.4219H814.047ZM815.492 52.8984L814.159 54.3889C815.602 55.68 817.448 56.2266 819.477 56.2266V54.2266V52.2266C818.172 52.2266 817.362 51.8877 816.826 51.408L815.492 52.8984ZM819.477 54.2266V56.2266C822.307 56.2266 824.746 55.2308 826.614 53.1963L825.141 51.8438L823.667 50.4912C822.618 51.6338 821.281 52.2266 819.477 52.2266V54.2266ZM825.141 51.8438L826.625 53.1843C828.457 51.1556 829.328 48.6266 829.328 45.75H827.328H825.328C825.328 47.7692 824.741 49.3028 823.656 50.5032L825.141 51.8438ZM874.789 33.1328L873.833 34.8898L876.789 36.4972V33.1328H874.789ZM863.305 34.8906L864.887 36.1141L864.895 36.104L863.305 34.8906ZM861.039 62V64H863.039V62H861.039ZM848.695 62H846.695V64H848.695V62ZM848.695 22V20H846.695V22H848.695ZM861.039 22H863.039V20H861.039V22ZM861.039 29.4219H859.039V31.4219H861.039V29.4219ZM861.195 29.4219V31.4219H862.6L863.077 30.1003L861.195 29.4219ZM874.789 21.7656H876.789V20.4468L875.577 19.9273L874.789 21.7656ZM874.789 33.1328L875.745 31.3758C873.92 30.3837 871.849 29.9219 869.594 29.9219V31.9219V33.9219C871.297 33.9219 872.689 34.2673 873.833 34.8898L874.789 33.1328ZM869.594 31.9219V29.9219C866.344 29.9219 863.636 31.1596 861.715 33.6773L863.305 34.8906L864.895 36.104C865.994 34.6633 867.479 33.9219 869.594 33.9219V31.9219ZM863.305 34.8906L861.723 33.6671C859.856 36.0803 859.039 39.2324 859.039 42.8984H861.039H863.039C863.039 39.7937 863.732 37.6072 864.887 36.1141L863.305 34.8906ZM861.039 42.8984H859.039V62H861.039H863.039V42.8984H861.039ZM861.039 62V60H848.695V62V64H861.039V62ZM848.695 62H850.695V22H848.695H846.695V62H848.695ZM848.695 22V24H861.039V22V20H848.695V22ZM861.039 22H859.039V29.4219H861.039H863.039V22H861.039ZM861.039 29.4219V31.4219H861.195V29.4219V27.4219H861.039V29.4219ZM861.195 29.4219L863.077 30.1003C863.962 27.6456 865.14 25.974 866.517 24.9125C867.876 23.8659 869.578 23.2969 871.742 23.2969V21.2969V19.2969C868.828 19.2969 866.233 20.082 864.076 21.7438C861.939 23.3906 860.382 25.7815 859.314 28.7435L861.195 29.4219ZM871.742 21.2969V23.2969C872.925 23.2969 873.63 23.445 874.001 23.6039L874.789 21.7656L875.577 19.9273C874.489 19.4612 873.163 19.2969 871.742 19.2969V21.2969ZM874.789 21.7656H872.789V33.1328H874.789H876.789V21.7656H874.789ZM913.852 62V64H915.852V62H913.852ZM902.172 62H900.172V64H902.172V62ZM902.172 56.2578H904.172V54.2578H902.172V56.2578ZM902.016 56.2578V54.2578H900.882L900.3 55.2303L902.016 56.2578ZM880.922 59.6953L879.508 61.1095L879.516 61.1178L879.524 61.1261L880.922 59.6953ZM891.391 37.4297L891.649 39.4129L891.654 39.4122L891.391 37.4297ZM902.25 35.9844L902.514 37.9669L904.25 37.7358V35.9844H902.25ZM881.547 33.6797H879.547V37.3979L882.649 35.3484L881.547 33.6797ZM881.547 24.3828L880.631 22.6049L879.547 23.1633V24.3828H881.547ZM888.578 22.0391L888.137 20.0883L888.133 20.0891L888.578 22.0391ZM902.25 43.0547H904.25V40.78L901.994 41.0711L902.25 43.0547ZM894.984 43.9922L894.728 42.0086L894.727 42.0088L894.984 43.9922ZM890.414 52.8984L889.04 54.3514L889.06 54.3704L889.08 54.3889L890.414 52.8984ZM900.062 51.8438L901.536 53.1963L901.541 53.1903L901.547 53.1843L900.062 51.8438ZM913.852 62V60H902.172V62V64H913.852V62ZM902.172 62H904.172V56.2578H902.172H900.172V62H902.172ZM902.172 56.2578V54.2578H902.016V56.2578V58.2578H902.172V56.2578ZM902.016 56.2578L900.3 55.2303C897.982 59.1006 894.665 60.9766 890.102 60.9766V62.9766V64.9766C896.059 64.9766 900.685 62.3734 903.732 57.2853L902.016 56.2578ZM890.102 62.9766V60.9766C886.612 60.9766 884.1 60.0043 882.319 58.2646L880.922 59.6953L879.524 61.1261C882.222 63.7614 885.831 64.9766 890.102 64.9766V62.9766ZM880.922 59.6953L882.336 58.2811C880.562 56.5072 879.602 54.1075 879.602 50.8672H877.602H875.602C875.602 54.9706 876.854 58.4563 879.508 61.1095L880.922 59.6953ZM877.602 50.8672H879.602C879.602 47.4054 880.612 44.9062 882.445 43.1199C884.323 41.2898 887.298 39.98 891.649 39.4129L891.391 37.4297L891.132 35.4465C886.291 36.0773 882.371 37.606 879.653 40.2551C876.89 42.948 875.602 46.5686 875.602 50.8672H877.602ZM891.391 37.4297L891.654 39.4122L902.514 37.9669L902.25 35.9844L901.986 34.0019L891.127 35.4472L891.391 37.4297ZM902.25 35.9844H904.25C904.25 33.4456 903.555 31.1859 901.829 29.5929C900.134 28.0278 897.781 27.4219 895.141 27.4219V29.4219V31.4219C897.24 31.4219 898.442 31.9097 899.116 32.5321C899.76 33.1266 900.25 34.1481 900.25 35.9844H902.25ZM895.141 29.4219V27.4219C889.951 27.4219 885.041 28.9745 880.444 32.0109L881.547 33.6797L882.649 35.3484C886.647 32.7077 890.799 31.4219 895.141 31.4219V29.4219ZM881.547 33.6797H883.547V24.3828H881.547H879.547V33.6797H881.547ZM881.547 24.3828L882.463 26.1608C883.972 25.3831 886.136 24.6475 889.023 23.989L888.578 22.0391L888.133 20.0891C885.083 20.7848 882.559 21.6117 880.631 22.6049L881.547 24.3828ZM888.578 22.0391L889.019 23.9898C891.904 23.3376 894.475 23.0234 896.742 23.0234V21.0234V19.0234C894.114 19.0234 891.242 19.3864 888.137 20.0883L888.578 22.0391ZM896.742 21.0234V23.0234C902.138 23.0234 905.818 24.3682 908.162 26.7068C910.505 29.0447 911.852 32.7131 911.852 38.0938H913.852H915.852C915.852 32.0942 914.347 27.2274 910.987 23.8752C907.628 20.5238 902.752 19.0234 896.742 19.0234V21.0234ZM913.852 38.0938H911.852V62H913.852H915.852V38.0938H913.852ZM902.25 45.75H904.25V43.0547H902.25H900.25V45.75H902.25ZM902.25 43.0547L901.994 41.0711L894.728 42.0086L894.984 43.9922L895.24 45.9757L902.506 45.0382L902.25 43.0547ZM894.984 43.9922L894.727 42.0088C892.507 42.2971 890.553 42.9737 889.133 44.2556C887.646 45.5973 886.969 47.3984 886.969 49.4219H888.969H890.969C890.969 48.3464 891.294 47.6931 891.813 47.2249C892.398 46.6969 893.451 46.2081 895.242 45.9755L894.984 43.9922ZM888.969 49.4219H886.969C886.969 51.3407 887.651 53.0374 889.04 54.3514L890.414 52.8984L891.788 51.4455C891.25 50.9366 890.969 50.3155 890.969 49.4219H888.969ZM890.414 52.8984L889.08 54.3889C890.523 55.68 892.37 56.2266 894.398 56.2266V54.2266V52.2266C893.094 52.2266 892.284 51.8877 891.748 51.408L890.414 52.8984ZM894.398 54.2266V56.2266C897.229 56.2266 899.668 55.2308 901.536 53.1963L900.062 51.8438L898.589 50.4912C897.54 51.6338 896.203 52.2266 894.398 52.2266V54.2266ZM900.062 51.8438L901.547 53.1843C903.379 51.1556 904.25 48.6266 904.25 45.75H902.25H900.25C900.25 47.7692 899.663 49.3028 898.578 50.5032L900.062 51.8438ZM921 60.9453H919V62.3495L920.321 62.8264L921 60.9453ZM921 50.9453L922.032 49.2323L919 47.4052V50.9453H921ZM927.055 53.6797L926.482 55.596L926.489 55.598L927.055 53.6797ZM937.953 53.6797L937.103 51.8692L937.096 51.8726L937.089 51.8761L937.953 53.6797ZM936.781 47.625L935.974 49.4548L935.984 49.4591L935.993 49.4633L936.781 47.625ZM930.766 45.5156L931.5 43.6553L931.486 43.6497L931.471 43.6442L930.766 45.5156ZM926.547 43.6016L925.534 45.3264L925.556 45.3393L925.579 45.3516L926.547 43.6016ZM923.5 41.1797L922.003 42.5058L922.013 42.5176L922.024 42.5292L923.5 41.1797ZM921.625 38.0156L919.736 38.6727L919.742 38.6909L919.749 38.7089L921.625 38.0156ZM922.445 27.9766L920.74 26.9314L920.734 26.9415L920.728 26.9516L922.445 27.9766ZM926.352 24.0312L927.417 25.7242L927.424 25.7197L926.352 24.0312ZM931.938 21.7656L932.377 23.7168L932.385 23.7149L932.394 23.7128L931.938 21.7656ZM943.891 21.4531L943.58 23.4289L943.594 23.431L943.608 23.433L943.891 21.4531ZM949.281 22.625H951.281V21.1285L949.846 20.7063L949.281 22.625ZM949.281 32.1562L948.273 33.8838L951.281 35.6383V32.1562H949.281ZM944.242 30.125L943.73 32.0584L943.747 32.0628L943.764 32.0669L944.242 30.125ZM936.703 29.6562L937.067 31.6228L937.095 31.6177L937.122 31.6119L936.703 29.6562ZM934.828 30.2812L935.688 32.087L935.722 32.0706L935.756 32.0529L934.828 30.2812ZM933.539 31.3359L935.139 32.5359L935.156 32.5129L935.173 32.4893L933.539 31.3359ZM935.609 36.0234L934.691 37.7999L934.715 37.8125L934.74 37.8245L935.609 36.0234ZM938.109 37.0391L937.461 38.931L937.493 38.9419L937.525 38.9518L938.109 37.0391ZM940.883 37.9375L941.542 36.0493L941.531 36.0456L940.883 37.9375ZM948.734 42.1953L947.34 43.6293L947.35 43.6388L947.36 43.6482L948.734 42.1953ZM950.922 45.3984L949.068 46.148L949.074 46.1648L949.082 46.1815L950.922 45.3984ZM950.141 55.8672L948.437 54.819L948.433 54.8264L950.141 55.8672ZM946.039 59.9688L947.087 61.6721L947.094 61.6676L946.039 59.9688ZM940.141 62.2344L939.731 60.2768L939.718 60.2796L939.704 60.2825L940.141 62.2344ZM921 60.9453H923V50.9453H921H919V60.9453H921ZM921 50.9453L919.968 52.6584C922.124 53.9578 924.296 54.943 926.482 55.596L927.055 53.6797L927.627 51.7634C925.803 51.2184 923.938 50.3807 922.032 49.2323L921 50.9453ZM927.055 53.6797L926.489 55.598C928.672 56.2418 930.778 56.5781 932.797 56.5781V54.5781V52.5781C931.222 52.5781 929.5 52.3155 927.62 51.7613L927.055 53.6797ZM932.797 54.5781V56.5781C935.129 56.5781 937.186 56.2649 938.817 55.4833L937.953 53.6797L937.089 51.8761C936.22 52.2924 934.84 52.5781 932.797 52.5781V54.5781ZM937.953 53.6797L938.803 55.4902C939.674 55.0812 940.461 54.5026 941.027 53.6938C941.605 52.8683 941.867 51.9246 941.867 50.9453H939.867H937.867C937.867 51.19 937.81 51.314 937.75 51.3999C937.678 51.5026 937.508 51.6792 937.103 51.8692L937.953 53.6797ZM939.867 50.9453H941.867C941.867 49.6064 941.347 48.4161 940.353 47.5123L939.008 48.9922L937.662 50.4721C937.814 50.61 937.867 50.7218 937.867 50.9453H939.867ZM939.008 48.9922L940.353 47.5123C939.577 46.8065 938.63 46.2416 937.569 45.7867L936.781 47.625L935.993 49.4633C936.755 49.7897 937.293 50.1362 937.662 50.4721L939.008 48.9922ZM936.781 47.625L937.589 45.7952C936.613 45.3646 935.553 44.9843 934.413 44.6508L933.852 46.5703L933.29 48.4898C934.286 48.7813 935.179 49.1042 935.974 49.4548L936.781 47.625ZM933.852 46.5703L934.413 44.6508C933.401 44.3547 932.43 44.0226 931.5 43.6553L930.766 45.5156L930.031 47.3759C931.08 47.7899 932.166 48.161 933.29 48.4898L933.852 46.5703ZM930.766 45.5156L931.471 43.6442C929.955 43.0724 928.639 42.4732 927.515 41.8515L926.547 43.6016L925.579 45.3516C926.903 46.0841 928.4 46.7609 930.06 47.387L930.766 45.5156ZM926.547 43.6016L927.559 41.8767C926.513 41.2624 925.659 40.5769 924.976 39.8301L923.5 41.1797L922.024 42.5292C923.008 43.6054 924.185 44.5345 925.534 45.3264L926.547 43.6016ZM923.5 41.1797L924.997 39.8536C924.362 39.1368 923.862 38.2992 923.501 37.3223L921.625 38.0156L919.749 38.7089C920.273 40.1279 921.023 41.3997 922.003 42.5058L923.5 41.1797ZM921.625 38.0156L923.514 37.3586C923.189 36.4236 923 35.237 923 33.7578H921H919C919 35.5599 919.228 37.2118 919.736 38.6727L921.625 38.0156ZM921 33.7578H923C923 31.8097 923.417 30.2516 924.163 29.0015L922.445 27.9766L920.728 26.9516C919.547 28.9307 919 31.2268 919 33.7578H921ZM922.445 27.9766L924.151 29.0217C924.978 27.6714 926.06 26.5772 927.416 25.7242L926.352 24.0312L925.287 22.3383C923.414 23.5165 921.892 25.0526 920.74 26.9314L922.445 27.9766ZM926.352 24.0312L927.424 25.7197C928.852 24.813 930.496 24.1401 932.377 23.7168L931.938 21.7656L931.498 19.8144C929.213 20.3287 927.133 21.1662 925.28 22.3428L926.352 24.0312ZM931.938 21.7656L932.394 23.7128C934.347 23.2547 936.381 23.0234 938.5 23.0234V21.0234V19.0234C936.088 19.0234 933.747 19.287 931.481 19.8185L931.938 21.7656ZM938.5 21.0234V23.0234C940.163 23.0234 941.856 23.1579 943.58 23.4289L943.891 21.4531L944.201 19.4774C942.28 19.1754 940.379 19.0234 938.5 19.0234V21.0234ZM943.891 21.4531L943.608 23.433C945.335 23.6798 947.038 24.05 948.717 24.5437L949.281 22.625L949.846 20.7063C947.983 20.1584 946.092 19.7473 944.173 19.4732L943.891 21.4531ZM949.281 22.625H947.281V32.1562H949.281H951.281V22.625H949.281ZM949.281 32.1562L950.289 30.4287C948.557 29.4186 946.699 28.6705 944.721 28.1831L944.242 30.125L943.764 32.0669C945.379 32.4649 946.88 33.071 948.273 33.8838L949.281 32.1562ZM944.242 30.125L944.754 28.1916C942.827 27.6815 940.91 27.4219 939.008 27.4219V29.4219V31.4219C940.543 31.4219 942.116 31.631 943.73 32.0584L944.242 30.125ZM939.008 29.4219V27.4219C938.071 27.4219 937.162 27.5126 936.284 27.7006L936.703 29.6562L937.122 31.6119C937.703 31.4874 938.33 31.4219 939.008 31.4219V29.4219ZM936.703 29.6562L936.339 27.6897C935.47 27.8507 934.65 28.117 933.9 28.5096L934.828 30.2812L935.756 32.0529C936.1 31.8726 936.53 31.7222 937.067 31.6228L936.703 29.6562ZM934.828 30.2812L933.968 28.4755C933.149 28.8657 932.438 29.4278 931.905 30.1826L933.539 31.3359L935.173 32.4893C935.265 32.3587 935.414 32.2176 935.688 32.087L934.828 30.2812ZM933.539 31.3359L931.939 30.1359C931.353 30.9169 931.07 31.8248 931.07 32.7812H933.07H935.07C935.07 32.644 935.1 32.5884 935.139 32.5359L933.539 31.3359ZM933.07 32.7812H931.07C931.07 33.9825 931.473 35.09 932.287 35.9942L933.773 34.6562L935.26 33.3183C935.136 33.1808 935.07 33.0384 935.07 32.7812H933.07ZM933.773 34.6562L932.287 35.9942C932.947 36.7279 933.766 37.3214 934.691 37.7999L935.609 36.0234L936.528 34.247C935.943 33.9442 935.537 33.6263 935.26 33.3183L933.773 34.6562ZM935.609 36.0234L934.74 37.8245C935.576 38.2284 936.485 38.5963 937.461 38.931L938.109 37.0391L938.758 35.1472C937.911 34.8568 937.153 34.5476 936.479 34.2223L935.609 36.0234ZM938.109 37.0391L937.525 38.9518C938.441 39.2318 939.344 39.5243 940.234 39.8294L940.883 37.9375L941.531 36.0456C940.598 35.7257 939.652 35.4193 938.694 35.1264L938.109 37.0391ZM940.883 37.9375L940.223 39.8257C941.792 40.3736 943.192 40.9643 944.428 41.5943L945.336 39.8125L946.244 38.0307C944.824 37.3065 943.255 36.6473 941.542 36.0493L940.883 37.9375ZM945.336 39.8125L944.428 41.5943C945.602 42.1929 946.565 42.8754 947.34 43.6293L948.734 42.1953L950.129 40.7613C949.029 39.6923 947.726 38.7862 946.244 38.0307L945.336 39.8125ZM948.734 42.1953L947.36 43.6482C948.116 44.3634 948.681 45.1915 949.068 46.148L950.922 45.3984L952.776 44.6489C952.173 43.1574 951.28 41.8502 950.109 40.7424L948.734 42.1953ZM950.922 45.3984L949.082 46.1815C949.473 47.1003 949.703 48.2793 949.703 49.7734H951.703H953.703C953.703 47.8821 953.413 46.1445 952.762 44.6153L950.922 45.3984ZM951.703 49.7734H949.703C949.703 51.8449 949.251 53.4975 948.437 54.819L950.141 55.8672L951.844 56.9154C953.114 54.8514 953.703 52.4415 953.703 49.7734H951.703ZM950.141 55.8672L948.433 54.8264C947.586 56.2157 946.446 57.3612 944.984 58.2699L946.039 59.9688L947.094 61.6676C949.069 60.4409 950.664 58.852 951.849 56.9079L950.141 55.8672ZM946.039 59.9688L944.991 58.2654C943.522 59.1694 941.778 59.8483 939.731 60.2768L940.141 62.2344L940.55 64.192C942.982 63.683 945.171 62.8515 947.087 61.6721L946.039 59.9688ZM940.141 62.2344L939.704 60.2825C937.642 60.7436 935.484 60.9766 933.227 60.9766V62.9766V64.9766C935.761 64.9766 938.212 64.7148 940.577 64.1862L940.141 62.2344ZM933.227 62.9766V60.9766C929.033 60.9766 925.19 60.332 921.679 59.0642L921 60.9453L920.321 62.8264C924.31 64.267 928.618 64.9766 933.227 64.9766V62.9766ZM997.25 62V64H999.25V62H997.25ZM984.945 62H982.945V64H984.945V62ZM973.227 32.9375L974.769 34.2106L973.227 32.9375ZM971.195 62V64H973.195V62H971.195ZM958.852 62H956.852V64H958.852V62ZM958.852 2.78125V0.78125H956.852V2.78125H958.852ZM971.195 2.78125H973.195V0.78125H971.195V2.78125ZM971.195 27.9375H969.195V29.9375H971.195V27.9375ZM971.352 27.9375V29.9375H972.432L973.024 29.0338L971.352 27.9375ZM997.25 62V60H984.945V62V64H997.25V62ZM984.945 62H986.945V39.2656H984.945H982.945V62H984.945ZM984.945 39.2656H986.945C986.945 36.1523 986.389 33.4558 984.96 31.4958C983.446 29.4181 981.184 28.4766 978.539 28.4766V30.4766V32.4766C980.165 32.4766 981.107 32.9998 981.728 33.8519C982.434 34.8216 982.945 36.5195 982.945 39.2656H984.945ZM978.539 30.4766V28.4766C975.774 28.4766 973.43 29.5486 971.684 31.6644L973.227 32.9375L974.769 34.2106C975.731 33.0452 976.929 32.4766 978.539 32.4766V30.4766ZM973.227 32.9375L971.684 31.6644C969.981 33.7277 969.195 36.2878 969.195 39.1875H971.195H973.195C973.195 37.0351 973.764 35.4285 974.769 34.2106L973.227 32.9375ZM971.195 39.1875H969.195V62H971.195H973.195V39.1875H971.195ZM971.195 62V60H958.852V62V64H971.195V62ZM958.852 62H960.852V2.78125H958.852H956.852V62H958.852ZM958.852 2.78125V4.78125H971.195V2.78125V0.78125H958.852V2.78125ZM971.195 2.78125H969.195V27.9375H971.195H973.195V2.78125H971.195ZM971.195 27.9375V29.9375H971.352V27.9375V25.9375H971.195V27.9375ZM971.352 27.9375L973.024 29.0338C975.704 24.9456 979.198 23.0234 983.656 23.0234V21.0234V19.0234C977.75 19.0234 973.041 21.7106 969.679 26.8412L971.352 27.9375ZM983.656 21.0234V23.0234C987.77 23.0234 990.526 24.2466 992.312 26.401C994.156 28.6275 995.25 32.1873 995.25 37.4297H997.25H999.25C999.25 31.7346 998.078 27.0912 995.392 23.849C992.646 20.5347 988.605 19.0234 983.656 19.0234V21.0234ZM997.25 37.4297H995.25V62H997.25H999.25V37.4297H997.25ZM1031.23 61.5312L1032.17 63.2994L1033.23 62.7363V61.5312H1031.23ZM1009.95 31.1016H1011.95V29.1016H1009.95V31.1016ZM1003.46 31.1016H1001.46V33.1016H1003.46V31.1016ZM1003.46 22V20H1001.46V22H1003.46ZM1009.95 22V24H1011.95V22H1009.95ZM1009.95 13.3672L1009.4 11.4441L1007.95 11.8586V13.3672H1009.95ZM1022.25 9.85156H1024.25V7.2001L1021.7 7.92852L1022.25 9.85156ZM1022.25 22H1020.25V24H1022.25V22ZM1031.23 22H1033.23V20H1031.23V22ZM1031.23 31.1016V33.1016H1033.23V31.1016H1031.23ZM1022.25 31.1016V29.1016H1020.25V31.1016H1022.25ZM1031.23 52.3906H1033.23V49.0165L1030.27 50.6361L1031.23 52.3906ZM1031.23 61.5312L1030.3 59.7631C1028.91 60.4977 1026.56 60.9766 1022.99 60.9766V62.9766V64.9766C1026.77 64.9766 1029.91 64.4919 1032.17 63.2994L1031.23 61.5312ZM1022.99 62.9766V60.9766C1018.97 60.9766 1016.32 59.9363 1014.65 58.2009C1012.96 56.4513 1011.95 53.6505 1011.95 49.4219H1009.95H1007.95C1007.95 54.2297 1009.1 58.2062 1011.77 60.9749C1014.44 63.7577 1018.32 64.9766 1022.99 64.9766V62.9766ZM1009.95 49.4219H1011.95V31.1016H1009.95H1007.95V49.4219H1009.95ZM1009.95 31.1016V29.1016H1003.46V31.1016V33.1016H1009.95V31.1016ZM1003.46 31.1016H1005.46V22H1003.46H1001.46V31.1016H1003.46ZM1003.46 22V24H1009.95V22V20H1003.46V22ZM1009.95 22H1011.95V13.3672H1009.95H1007.95V22H1009.95ZM1009.95 13.3672L1010.49 15.2902L1022.8 11.7746L1022.25 9.85156L1021.7 7.92852L1009.4 11.4441L1009.95 13.3672ZM1022.25 9.85156H1020.25V22H1022.25H1024.25V9.85156H1022.25ZM1022.25 22V24H1031.23V22V20H1022.25V22ZM1031.23 22H1029.23V31.1016H1031.23H1033.23V22H1031.23ZM1031.23 31.1016V29.1016H1022.25V31.1016V33.1016H1031.23V31.1016ZM1022.25 31.1016H1020.25V47.2734H1022.25H1024.25V31.1016H1022.25ZM1022.25 47.2734H1020.25C1020.25 49.5677 1020.7 51.658 1021.92 53.2043C1023.22 54.8388 1025.11 55.5234 1027.21 55.5234V53.5234V51.5234C1026 51.5234 1025.41 51.1664 1025.06 50.7175C1024.63 50.1805 1024.25 49.1458 1024.25 47.2734H1022.25ZM1027.21 53.5234V55.5234C1028.91 55.5234 1030.58 55.0281 1032.19 54.1451L1031.23 52.3906L1030.27 50.6361C1029.13 51.2636 1028.11 51.5234 1027.21 51.5234V53.5234ZM1031.23 52.3906H1029.23V61.5312H1031.23H1033.23V52.3906H1031.23ZM1064.32 33.1328L1063.36 34.8898L1066.32 36.4972V33.1328H1064.32ZM1052.84 34.8906L1054.42 36.1141L1054.43 36.104L1052.84 34.8906ZM1050.57 62V64H1052.57V62H1050.57ZM1038.23 62H1036.23V64H1038.23V62ZM1038.23 22V20H1036.23V22H1038.23ZM1050.57 22H1052.57V20H1050.57V22ZM1050.57 29.4219H1048.57V31.4219H1050.57V29.4219ZM1050.73 29.4219V31.4219H1052.13L1052.61 30.1003L1050.73 29.4219ZM1064.32 21.7656H1066.32V20.4468L1065.11 19.9273L1064.32 21.7656ZM1064.32 33.1328L1065.28 31.3758C1063.45 30.3837 1061.38 29.9219 1059.12 29.9219V31.9219V33.9219C1060.83 33.9219 1062.22 34.2673 1063.36 34.8898L1064.32 33.1328ZM1059.12 31.9219V29.9219C1055.87 29.9219 1053.17 31.1596 1051.25 33.6773L1052.84 34.8906L1054.43 36.104C1055.53 34.6633 1057.01 33.9219 1059.12 33.9219V31.9219ZM1052.84 34.8906L1051.25 33.6671C1049.39 36.0803 1048.57 39.2324 1048.57 42.8984H1050.57H1052.57C1052.57 39.7937 1053.26 37.6072 1054.42 36.1141L1052.84 34.8906ZM1050.57 42.8984H1048.57V62H1050.57H1052.57V42.8984H1050.57ZM1050.57 62V60H1038.23V62V64H1050.57V62ZM1038.23 62H1040.23V22H1038.23H1036.23V62H1038.23ZM1038.23 22V24H1050.57V22V20H1038.23V22ZM1050.57 22H1048.57V29.4219H1050.57H1052.57V22H1050.57ZM1050.57 29.4219V31.4219H1050.73V29.4219V27.4219H1050.57V29.4219ZM1050.73 29.4219L1052.61 30.1003C1053.49 27.6456 1054.67 25.974 1056.05 24.9125C1057.41 23.8659 1059.11 23.2969 1061.27 23.2969V21.2969V19.2969C1058.36 19.2969 1055.76 20.082 1053.61 21.7438C1051.47 23.3906 1049.91 25.7815 1048.85 28.7435L1050.73 29.4219ZM1061.27 21.2969V23.2969C1062.46 23.2969 1063.16 23.445 1063.53 23.6039L1064.32 21.7656L1065.11 19.9273C1064.02 19.4612 1062.69 19.2969 1061.27 19.2969V21.2969ZM1064.32 21.7656H1062.32V33.1328H1064.32H1066.32V21.7656H1064.32ZM1103.38 62V64H1105.38V62H1103.38ZM1091.7 62H1089.7V64H1091.7V62ZM1091.7 56.2578H1093.7V54.2578H1091.7V56.2578ZM1091.55 56.2578V54.2578H1090.41L1089.83 55.2303L1091.55 56.2578ZM1070.45 59.6953L1069.04 61.1095L1069.05 61.1178L1069.06 61.1261L1070.45 59.6953ZM1080.92 37.4297L1081.18 39.4129L1081.19 39.4122L1080.92 37.4297ZM1091.78 35.9844L1092.05 37.9669L1093.78 37.7358V35.9844H1091.78ZM1071.08 33.6797H1069.08V37.3979L1072.18 35.3484L1071.08 33.6797ZM1071.08 24.3828L1070.16 22.6049L1069.08 23.1633V24.3828H1071.08ZM1078.11 22.0391L1077.67 20.0883L1077.66 20.0891L1078.11 22.0391ZM1091.78 43.0547H1093.78V40.78L1091.53 41.0711L1091.78 43.0547ZM1084.52 43.9922L1084.26 42.0086L1084.26 42.0088L1084.52 43.9922ZM1079.95 52.8984L1078.57 54.3514L1078.59 54.3704L1078.61 54.3889L1079.95 52.8984ZM1089.59 51.8438L1091.07 53.1963L1091.07 53.1903L1091.08 53.1843L1089.59 51.8438ZM1103.38 62V60H1091.7V62V64H1103.38V62ZM1091.7 62H1093.7V56.2578H1091.7H1089.7V62H1091.7ZM1091.7 56.2578V54.2578H1091.55V56.2578V58.2578H1091.7V56.2578ZM1091.55 56.2578L1089.83 55.2303C1087.51 59.1006 1084.2 60.9766 1079.63 60.9766V62.9766V64.9766C1085.59 64.9766 1090.22 62.3734 1093.26 57.2853L1091.55 56.2578ZM1079.63 62.9766V60.9766C1076.14 60.9766 1073.63 60.0043 1071.85 58.2646L1070.45 59.6953L1069.06 61.1261C1071.75 63.7614 1075.36 64.9766 1079.63 64.9766V62.9766ZM1070.45 59.6953L1071.87 58.2811C1070.09 56.5072 1069.13 54.1075 1069.13 50.8672H1067.13H1065.13C1065.13 54.9706 1066.39 58.4563 1069.04 61.1095L1070.45 59.6953ZM1067.13 50.8672H1069.13C1069.13 47.4054 1070.14 44.9062 1071.98 43.1199C1073.85 41.2898 1076.83 39.98 1081.18 39.4129L1080.92 37.4297L1080.66 35.4465C1075.82 36.0773 1071.9 37.606 1069.18 40.2551C1066.42 42.948 1065.13 46.5686 1065.13 50.8672H1067.13ZM1080.92 37.4297L1081.19 39.4122L1092.05 37.9669L1091.78 35.9844L1091.52 34.0019L1080.66 35.4472L1080.92 37.4297ZM1091.78 35.9844H1093.78C1093.78 33.4456 1093.09 31.1859 1091.36 29.5929C1089.66 28.0278 1087.31 27.4219 1084.67 27.4219V29.4219V31.4219C1086.77 31.4219 1087.97 31.9097 1088.65 32.5321C1089.29 33.1266 1089.78 34.1481 1089.78 35.9844H1091.78ZM1084.67 29.4219V27.4219C1079.48 27.4219 1074.57 28.9745 1069.98 32.0109L1071.08 33.6797L1072.18 35.3484C1076.18 32.7077 1080.33 31.4219 1084.67 31.4219V29.4219ZM1071.08 33.6797H1073.08V24.3828H1071.08H1069.08V33.6797H1071.08ZM1071.08 24.3828L1071.99 26.1608C1073.5 25.3831 1075.67 24.6475 1078.55 23.989L1078.11 22.0391L1077.66 20.0891C1074.61 20.7848 1072.09 21.6117 1070.16 22.6049L1071.08 24.3828ZM1078.11 22.0391L1078.55 23.9898C1081.44 23.3376 1084.01 23.0234 1086.27 23.0234V21.0234V19.0234C1083.65 19.0234 1080.77 19.3864 1077.67 20.0883L1078.11 22.0391ZM1086.27 21.0234V23.0234C1091.67 23.0234 1095.35 24.3682 1097.69 26.7068C1100.04 29.0447 1101.38 32.7131 1101.38 38.0938H1103.38H1105.38C1105.38 32.0942 1103.88 27.2274 1100.52 23.8752C1097.16 20.5238 1092.28 19.0234 1086.27 19.0234V21.0234ZM1103.38 38.0938H1101.38V62H1103.38H1105.38V38.0938H1103.38ZM1091.78 45.75H1093.78V43.0547H1091.78H1089.78V45.75H1091.78ZM1091.78 43.0547L1091.53 41.0711L1084.26 42.0086L1084.52 43.9922L1084.77 45.9757L1092.04 45.0382L1091.78 43.0547ZM1084.52 43.9922L1084.26 42.0088C1082.04 42.2971 1080.08 42.9737 1078.66 44.2556C1077.18 45.5973 1076.5 47.3984 1076.5 49.4219H1078.5H1080.5C1080.5 48.3464 1080.83 47.6931 1081.34 47.2249C1081.93 46.6969 1082.98 46.2081 1084.77 45.9755L1084.52 43.9922ZM1078.5 49.4219H1076.5C1076.5 51.3407 1077.18 53.0374 1078.57 54.3514L1079.95 52.8984L1081.32 51.4455C1080.78 50.9366 1080.5 50.3155 1080.5 49.4219H1078.5ZM1079.95 52.8984L1078.61 54.3889C1080.05 55.68 1081.9 56.2266 1083.93 56.2266V54.2266V52.2266C1082.62 52.2266 1081.82 51.8877 1081.28 51.408L1079.95 52.8984ZM1083.93 54.2266V56.2266C1086.76 56.2266 1089.2 55.2308 1091.07 53.1963L1089.59 51.8438L1088.12 50.4912C1087.07 51.6338 1085.73 52.2266 1083.93 52.2266V54.2266ZM1089.59 51.8438L1091.08 53.1843C1092.91 51.1556 1093.78 48.6266 1093.78 45.75H1091.78H1089.78C1089.78 47.7692 1089.19 49.3028 1088.11 50.5032L1089.59 51.8438Z" fill="url(#paint0_linear_3102_13758)" mask="url(#path-1-outside-1_3102_13758)"/>
<defs>
<linearGradient id="paint0_linear_3102_13758" x1="566.026" y1="-38" x2="565.967" y2="95" gradientUnits="userSpaceOnUse">
<stop offset="0.427887" stop-color="#E1ECF3"/>
<stop offset="0.858273" stop-color="white"/>
</linearGradient>
</defs>
</svg>
