<svg width="100" height="100" viewBox="0 0 100 100" fill="none" xmlns="http://www.w3.org/2000/svg">
<path d="M80.2376 62.1368C76.4911 64.4141 72.1882 65.6118 67.804 65.5977C64.131 65.5687 60.4995 64.8174 57.1165 63.3868C54.5091 67.0677 53.1137 71.4697 53.1243 75.9805V87.5C53.1252 87.9284 53.0381 88.3525 52.8682 88.7458C52.6984 89.139 52.4495 89.4932 52.1371 89.7863C51.8246 90.0794 51.4552 90.305 51.0518 90.4493C50.6484 90.5936 50.2197 90.6534 49.7923 90.625C48.989 90.5551 48.2419 90.1841 47.7007 89.5864C47.1596 88.9888 46.8644 88.2086 46.8743 87.4024V82.543L31.7884 67.4571C29.5458 68.2937 27.174 68.7313 24.7805 68.75C21.4854 68.7586 18.252 67.857 15.4368 66.1446C6.92507 60.9727 2.34304 49.0704 3.22976 34.293C3.27441 33.5285 3.59822 32.807 4.13974 32.2655C4.68125 31.724 5.40275 31.4002 6.16726 31.3555C20.9446 30.4844 32.8469 35.0508 38.0032 43.5625C40.029 46.8988 40.9135 50.804 40.5227 54.6875C40.4984 54.9884 40.3875 55.2758 40.2033 55.515C40.0192 55.7542 39.7697 55.9349 39.485 56.0353C39.2003 56.1357 38.8926 56.1515 38.5992 56.0808C38.3057 56.0101 38.039 55.8558 37.8313 55.6368L30.3313 47.7852C29.7405 47.2239 28.9538 46.9156 28.1389 46.926C27.324 46.9364 26.5455 47.2648 25.9692 47.841C25.3929 48.4173 25.0646 49.1959 25.0542 50.0107C25.0437 50.8256 25.352 51.6123 25.9134 52.2032L46.9602 73.7852C46.9837 73.4805 47.011 73.1758 47.0423 72.875C47.7256 67.0811 50.2823 61.6688 54.3235 57.461L74.0852 36.5782C74.6716 35.9923 75.0012 35.1975 75.0016 34.3686C75.002 33.5397 74.673 32.7446 74.0872 32.1582C73.5013 31.5719 72.7065 31.2422 71.8776 31.2419C71.0487 31.2415 70.2536 31.5704 69.6673 32.1563L50.5266 52.3985C50.335 52.6014 50.0926 52.7493 49.8245 52.8268C49.5564 52.9044 49.2724 52.9087 49.0021 52.8393C48.7317 52.7699 48.4849 52.6294 48.2873 52.4323C48.0896 52.2353 47.9484 51.9889 47.8782 51.7188C46.0266 44.8907 46.843 38.0938 50.3782 32.2579C57.3548 20.7422 73.5891 14.5782 93.8079 15.7657C94.5724 15.8103 95.2939 16.1341 95.8354 16.6756C96.3769 17.2171 96.7007 17.9387 96.7454 18.7032C97.9173 38.9258 91.7532 55.1602 80.2376 62.1368Z" fill="white"/>
</svg>
