<svg width="180" height="182" viewBox="0 0 180 182" fill="none" xmlns="http://www.w3.org/2000/svg">
<mask id="mask0_3328_12121" style="mask-type:luminance" maskUnits="userSpaceOnUse" x="10" y="0" width="93" height="51">
<path d="M10.9199 0.989258H102.208V50.9651H10.9199V0.989258Z" fill="white"/>
</mask>
<g mask="url(#mask0_3328_12121)">
<path d="M13.5612 47.9936C14.1027 48.3238 14.6706 48.4031 15.2781 48.2578C15.8856 48.0993 16.3479 47.7559 16.678 47.2144C32.2757 21.2491 59.6541 5.75713 89.9116 5.75713C92.3153 5.75713 94.7587 5.84958 97.1492 6.06089C97.7699 6.11372 98.3246 5.94203 98.8133 5.53261C99.2887 5.12319 99.5529 4.6081 99.6057 3.98737C99.6585 3.35343 99.4868 2.79873 99.0774 2.32327C98.668 1.8346 98.1529 1.57046 97.519 1.53084C95.0096 1.31952 92.4474 1.21387 89.9116 1.21387C86.0419 1.21387 82.1855 1.4516 78.3554 1.95347C74.5121 2.44214 70.7349 3.18174 66.9973 4.17227C63.2464 5.1496 59.588 6.37787 56.0089 7.83065C52.4298 9.28344 48.9563 10.974 45.5885 12.8758C42.2207 14.7776 38.9981 16.8908 35.9076 19.2152C32.804 21.5397 29.8852 24.049 27.1117 26.7565C24.3382 29.4508 21.7628 32.3167 19.3591 35.3544C16.9686 38.392 14.7762 41.5617 12.7819 44.8767C12.465 45.4182 12.3725 45.9861 12.531 46.5937C12.6763 47.2012 13.0197 47.6767 13.5612 47.9936Z" fill="url(#paint0_linear_3328_12121)"/>
</g>
<mask id="mask1_3328_12121" style="mask-type:luminance" maskUnits="userSpaceOnUse" x="0" y="50" width="180" height="132">
<path d="M0 50.9648H179.974V181.029H0V50.9648Z" fill="white"/>
</mask>
<g mask="url(#mask1_3328_12121)">
<path d="M179.829 91.1279C179.829 87.0469 179.551 82.9791 179.01 78.9245C178.917 78.3037 178.627 77.8018 178.138 77.432C177.636 77.049 177.068 76.9038 176.448 76.983C175.827 77.0622 175.325 77.366 174.955 77.8547C174.572 78.3565 174.427 78.9112 174.506 79.532C175.021 83.3885 175.286 87.245 175.286 91.1279C175.286 92.7788 175.233 94.4032 175.14 96.0277H97.6143V94.324C98.7501 94.0731 99.8199 93.624 100.824 93.0033C101.814 92.3825 102.686 91.6033 103.412 90.692C104.152 89.7807 104.707 88.7638 105.103 87.6544C105.486 86.545 105.684 85.4092 105.684 84.2337C105.684 79.7037 102.012 66.0607 95.3427 66.0607C88.6599 66.0607 84.9883 79.7169 84.9883 84.2337C84.9883 85.4092 85.1864 86.545 85.5826 87.6544C85.9656 88.7638 86.5335 89.7807 87.2599 90.692C87.9995 91.6165 88.858 92.3825 89.8617 93.0033C90.8522 93.624 91.922 94.0731 93.071 94.324V96.0277H74.3565V94.324C75.5055 94.0731 76.5753 93.624 77.5659 93.0033C78.5564 92.3825 79.4281 91.6165 80.1545 90.692C80.8941 89.7807 81.462 88.7638 81.845 87.6544C82.2412 86.545 82.4261 85.4092 82.4261 84.2337C82.4261 79.7169 78.7677 66.0607 72.0849 66.0607C65.4021 66.0607 61.7437 79.7169 61.7437 84.2337C61.7437 85.4092 61.9418 86.545 62.3248 87.6544C62.721 88.7638 63.2757 89.7807 64.0153 90.692C64.7417 91.6165 65.6134 92.3825 66.6039 93.0033C67.5945 93.624 68.6642 94.0731 69.8133 94.324V96.0277H60.2513L36.7294 72.519C36.2803 72.0699 35.752 71.8454 35.1181 71.8454C34.4974 71.8454 33.9559 72.0699 33.52 72.519L30.0201 76.0189L16.6677 62.6797C16.2187 62.2306 15.6904 62.0061 15.0565 62.0061C14.4357 62.0061 13.8942 62.2306 13.4584 62.6797L7.54159 68.5965C8.79627 63.974 10.4472 59.4967 12.4679 55.1516C12.7452 54.5837 12.7716 53.9893 12.5603 53.395C12.349 52.8007 11.9528 52.3781 11.3717 52.1007C10.8038 51.8366 10.2226 51.8102 9.62832 52.0347C9.03399 52.2592 8.61137 52.6554 8.34722 53.2365C5.13789 60.1307 2.83985 67.3154 1.4663 74.8038C1.21537 75.2529 1.13613 75.7283 1.21537 76.2434C0.396526 81.1697 -0.0128967 86.1356 0.000309553 91.1279C0.000309553 93.5844 0.0927587 96.0277 0.290867 98.4446C0.290867 98.4975 0.304074 98.5371 0.304074 98.5767C0.528594 101.363 0.898393 104.124 1.38706 106.871C1.87572 109.618 2.48325 112.339 3.22285 115.02C3.96245 117.714 4.83412 120.355 5.82466 122.97C6.80199 125.572 7.91139 128.134 9.13965 130.644C10.3679 133.14 11.7018 135.583 13.1546 137.974C14.6074 140.351 16.1659 142.662 17.8432 144.894C19.5073 147.126 21.277 149.279 23.1392 151.353C25.0146 153.426 26.9693 155.407 29.0296 157.296C31.0767 159.184 33.2163 160.967 35.4351 162.658C37.6539 164.348 39.9387 165.933 42.3028 167.412C44.6801 168.892 47.1102 170.252 49.5931 171.507C52.0893 172.748 54.6383 173.884 57.2401 174.901C59.8287 175.918 62.4701 176.803 65.1511 177.569C67.8322 178.335 70.5529 178.982 73.2867 179.497C76.0338 180.012 78.7941 180.395 81.5676 180.659C84.3411 180.923 87.1278 181.042 89.9145 181.042C92.7012 181.042 95.488 180.91 98.2615 180.659C101.035 180.395 103.795 180.012 106.542 179.497C109.276 178.982 111.997 178.335 114.678 177.569C117.359 176.803 120 175.905 122.589 174.901C125.191 173.884 127.74 172.748 130.236 171.493C132.719 170.252 135.149 168.892 137.526 167.412C139.89 165.933 142.175 164.348 144.394 162.658C146.613 160.967 148.752 159.184 150.799 157.296C152.86 155.407 154.814 153.426 156.69 151.353C158.552 149.279 160.322 147.126 161.986 144.894C163.65 142.649 165.222 140.351 166.674 137.96C168.127 135.583 169.461 133.14 170.689 130.63C171.918 128.134 173.014 125.572 174.004 122.97C174.995 120.355 175.853 117.701 176.593 115.02C177.333 112.325 177.953 109.618 178.442 106.871C178.931 104.124 179.287 101.35 179.525 98.5767C179.525 98.5371 179.525 98.4975 179.525 98.4578C179.723 96.0277 179.829 93.5844 179.829 91.1279ZM89.5315 84.2337C89.5315 82.4772 90.2975 78.8188 91.7107 75.5038C93.2427 71.9379 94.7484 70.6039 95.3427 70.6039C95.9238 70.6039 97.4294 71.9379 98.9614 75.5038C100.375 78.8188 101.141 82.4772 101.141 84.2337C101.141 85.396 100.824 86.4657 100.176 87.4299C99.5293 88.4072 98.6841 89.1204 97.6143 89.5694V80.3244C97.6143 79.6905 97.3898 79.1622 96.9407 78.7131C96.5049 78.2773 95.9634 78.0528 95.3427 78.0528C94.7087 78.0528 94.1804 78.2773 93.7314 78.7131C93.2824 79.1622 93.071 79.6905 93.071 80.3244V89.5694C92.0013 89.1204 91.1428 88.4072 90.4957 87.4299C89.8617 86.4657 89.5315 85.396 89.5315 84.2337ZM66.2738 84.2337C66.2738 82.4772 67.0398 78.8188 68.4661 75.5038C69.985 71.9379 71.4906 70.6039 72.0849 70.6039C72.6792 70.6039 74.1848 71.9379 75.7037 75.5038C77.13 78.8188 77.8828 82.4772 77.8828 84.2337C77.8828 85.396 77.5659 86.4657 76.9187 87.4299C76.2848 88.4072 75.4263 89.1204 74.3565 89.5694V80.3244C74.3565 79.6905 74.132 79.1622 73.6962 78.7131C73.2471 78.2773 72.7056 78.0528 72.0849 78.0528C71.451 78.0528 70.9227 78.2773 70.4736 78.7131C70.0378 79.1622 69.8133 79.6905 69.8133 80.3244V89.5694C68.7435 89.1204 67.885 88.4072 67.2511 87.4299C66.6039 86.4657 66.287 85.396 66.287 84.2337H66.2738ZM173.965 106.131H148.449L146.283 100.571H174.757C174.559 102.446 174.282 104.295 173.965 106.131ZM170.993 117.859C170.927 117.859 170.861 117.859 170.808 117.859H152.992L150.205 110.674H173.027C172.446 113.118 171.772 115.508 170.993 117.859ZM165.063 131.608H158.328L154.748 122.402H169.356C168.114 125.559 166.674 128.623 165.063 131.608ZM160.969 138.409L160.097 136.151H162.422C161.946 136.904 161.458 137.657 160.969 138.409ZM153.547 147.971H116.316L114.784 136.151H155.211L157.812 142.821C156.452 144.59 155.039 146.307 153.547 147.971ZM119.327 171.282L116.897 152.515H149.175C140.551 160.862 130.593 167.122 119.327 171.282ZM30.6409 152.515H62.9191L60.5022 171.282C49.2233 167.122 39.2784 160.862 30.6409 152.515ZM26.2693 147.971C24.7901 146.307 23.3637 144.59 22.0166 142.821L24.6052 136.151H65.0455L63.5135 147.971H26.2693ZM6.80199 110.674H29.6107L26.8372 117.859H9.02079C8.95475 117.859 8.88872 117.859 8.83589 117.859C8.05667 115.508 7.3699 113.118 6.80199 110.674ZM69.6416 100.571L68.9284 106.131H36.2539L38.4067 100.571H69.6416ZM105.605 100.571L106.318 106.131H73.4981L74.2245 100.571H105.605ZM141.409 100.571L143.575 106.131H110.901L110.174 100.571H141.409ZM67.4096 117.859H31.7107L34.4842 110.674H68.3341L67.4096 117.859ZM72.9169 110.674H106.912L107.837 117.859H71.9924L72.9169 110.674ZM66.8152 122.402L65.6266 131.608H26.375L29.9409 122.402H66.8152ZM71.3981 122.402H108.418L109.62 131.608H70.2095L71.3981 122.402ZM113.001 122.402H149.875L153.454 131.608H114.189L113.001 122.402ZM112.42 117.859L111.495 110.674H145.332L148.118 117.859H112.42ZM31.3805 106.131H5.86428C5.5341 104.309 5.26996 102.446 5.05865 100.571H33.5465L31.3805 106.131ZM25.0675 122.402L21.5015 131.608H14.7659C13.1414 128.623 11.715 125.559 10.4736 122.402H25.0675ZM17.4073 136.151H19.7318L18.8601 138.409C18.3582 137.657 17.8828 136.904 17.4073 136.151ZM69.6152 136.151H110.201L111.733 147.971H68.0963L69.6152 136.151ZM15.0565 67.4871L26.7976 79.2282L21.911 84.1281C21.4487 84.5639 21.2242 85.1054 21.2242 85.7393C21.211 86.3733 21.4355 86.9148 21.8845 87.3638C22.3336 87.8129 22.8751 88.0242 23.509 88.0242C24.143 88.0242 24.6845 87.7865 25.1203 87.3374L35.1181 77.3396L53.8194 96.0277H4.67564C4.58319 94.4032 4.54357 92.7788 4.54357 91.1279C4.53036 86.3337 4.92657 81.5659 5.719 76.8245L15.0565 67.4871ZM64.887 172.761L67.502 152.515H112.314L114.942 172.761C106.78 175.257 98.4464 176.499 89.9145 176.499C81.3827 176.499 73.0358 175.257 64.887 172.761Z" fill="url(#paint1_linear_3328_12121)"/>
</g>
<mask id="mask2_3328_12121" style="mask-type:luminance" maskUnits="userSpaceOnUse" x="92" y="0" width="88" height="89">
<path d="M92.0645 0.989258H179.971V88.1565H92.0645V0.989258Z" fill="white"/>
</mask>
<g mask="url(#mask2_3328_12121)">
<path d="M104.387 10.5381L95.7229 19.202C95.287 19.6379 95.0625 20.1793 95.0625 20.8001C95.0625 21.434 95.287 21.9623 95.7229 22.4114L120.116 46.805C119.549 47.4521 119.113 48.1785 118.809 48.9974C118.518 49.8162 118.386 50.6483 118.413 51.5199C118.426 52.3784 118.611 53.2104 118.954 54.0029C119.298 54.8085 119.773 55.5085 120.394 56.116L121.041 56.7764L116.775 61.0423C116.128 60.7914 115.468 60.6593 114.781 60.6461C114.081 60.6329 113.407 60.7385 112.76 60.9763C112.113 61.2008 111.519 61.5442 110.99 61.98C110.462 62.429 110.026 62.9573 109.696 63.5517C109.353 64.1592 109.128 64.7931 109.022 65.4799C108.917 66.1667 108.93 66.8402 109.075 67.5138C109.207 68.2006 109.471 68.8213 109.841 69.4156C110.211 69.9967 110.66 70.4986 111.215 70.908C111.77 71.3307 112.377 71.6344 113.037 71.8325C113.698 72.0306 114.371 72.1099 115.058 72.0571C115.745 72.0174 116.405 71.8457 117.039 71.5684C117.673 71.2778 118.228 70.8948 118.716 70.4062C119.522 69.6005 120.037 68.6364 120.275 67.5138C120.499 66.4044 120.407 65.3214 119.984 64.2516L124.25 59.9857L124.911 60.6461C125.518 61.2536 126.231 61.7423 127.024 62.0725C127.816 62.4158 128.648 62.6007 129.52 62.6272C130.378 62.6536 131.224 62.5215 132.042 62.2177C132.848 61.9272 133.575 61.4913 134.222 60.9102L158.615 85.3038C159.064 85.7529 159.593 85.9642 160.227 85.9642C160.847 85.9642 161.389 85.7529 161.825 85.3038L179.152 67.9761C179.601 67.5402 179.826 66.9987 179.826 66.378C179.826 65.744 179.601 65.2158 179.152 64.7667L154.759 40.3731C155.34 39.7259 155.776 38.9995 156.079 38.1807C156.37 37.3751 156.502 36.5298 156.476 35.6581C156.463 34.7997 156.278 33.9676 155.934 33.1752C155.591 32.3696 155.102 31.6696 154.495 31.062L149.965 26.532C149.357 25.9245 148.657 25.449 147.851 25.1056C147.059 24.7622 146.227 24.5773 145.369 24.5509C144.497 24.5245 143.665 24.6566 142.846 24.9603C142.027 25.2509 141.301 25.6867 140.654 26.2678L116.26 1.87423C115.824 1.43839 115.283 1.21387 114.662 1.21387C114.028 1.21387 113.5 1.43839 113.051 1.87423L104.387 10.5381ZM115.507 67.1836C115.269 67.4081 114.992 67.527 114.675 67.527C114.358 67.527 114.081 67.4081 113.843 67.1836C113.619 66.9591 113.5 66.6817 113.5 66.3648C113.5 66.0346 113.619 65.7572 113.843 65.5327C114.081 65.295 114.358 65.1893 114.675 65.1893C115.005 65.1893 115.283 65.295 115.507 65.5327C115.732 65.7572 115.851 66.0346 115.851 66.3648C115.851 66.6817 115.732 66.9591 115.507 67.1836ZM105.998 15.3587L111.453 20.8001L105.998 26.2546L100.543 20.8001L105.998 15.3587ZM128.767 20.8001L123.313 26.2546L117.871 20.8001L123.313 15.3587L128.767 20.8001ZM120.103 29.464L114.662 34.9185L109.207 29.464L114.662 24.0226L120.103 29.464ZM123.326 43.5824L117.871 38.1279L123.326 32.6733L128.767 38.1279L123.326 43.5824ZM165.681 57.7141L160.227 63.1686L154.772 57.7141L160.227 52.2727L165.681 57.7141ZM146.121 66.378L151.563 60.9234L157.017 66.378L151.563 71.8325L146.121 66.378ZM151.563 54.5048L146.121 49.0502L151.563 43.6088L157.017 49.0502L151.563 54.5048ZM142.912 52.2595L148.353 57.7141L142.912 63.1686L137.457 57.7141L142.912 52.2595ZM160.227 80.4832L154.785 75.0419L160.227 69.5873L165.681 75.0419L160.227 80.4832ZM168.89 71.8325L163.436 66.378L168.89 60.9234L174.345 66.378L168.89 71.8325ZM145.17 29.0942C145.791 29.081 146.319 29.3055 146.768 29.7545L151.285 34.2714C151.721 34.7072 151.946 35.2487 151.946 35.8694C151.946 36.4902 151.721 37.0185 151.285 37.4543L149.965 38.775V38.7882L131.316 57.4367C130.867 57.8726 130.339 58.0971 129.718 58.0971C129.097 58.0971 128.569 57.8726 128.12 57.4367L123.603 52.9067C123.167 52.4708 122.943 51.9426 122.943 51.3218C122.943 50.6879 123.167 50.1596 123.603 49.7238L133.588 39.7391L142.238 31.0753L143.572 29.7545C144.008 29.3055 144.536 29.081 145.17 29.0942ZM131.976 34.9185L126.535 29.464L131.976 24.0226L137.431 29.464L131.976 34.9185ZM114.662 6.69484L120.103 12.1494L114.662 17.5907L109.207 12.1494L114.662 6.69484Z" fill="url(#paint2_linear_3328_12121)"/>
</g>
<defs>
<linearGradient id="paint0_linear_3328_12121" x1="56.035" y1="1.21387" x2="56.035" y2="48.3274" gradientUnits="userSpaceOnUse">
<stop stop-color="#2AB673"/>
<stop offset="1" stop-color="#86D72F"/>
</linearGradient>
<linearGradient id="paint1_linear_3328_12121" x1="89.9144" y1="51.8828" x2="89.9144" y2="181.042" gradientUnits="userSpaceOnUse">
<stop stop-color="#2AB673"/>
<stop offset="1" stop-color="#86D72F"/>
</linearGradient>
<linearGradient id="paint2_linear_3328_12121" x1="137.444" y1="1.21387" x2="137.444" y2="85.9642" gradientUnits="userSpaceOnUse">
<stop stop-color="#2AB673"/>
<stop offset="1" stop-color="#86D72F"/>
</linearGradient>
</defs>
</svg>
