<svg width="695" height="65" viewBox="0 0 695 65" fill="none" xmlns="http://www.w3.org/2000/svg">
<mask id="path-1-outside-1_3279_11801" maskUnits="userSpaceOnUse" x="0" y="0" width="695" height="65" fill="black">
<rect fill="white" width="695" height="65"/>
<path d="M2.82812 59.8516V47.3516C5.09375 49.2526 7.55469 50.6849 10.2109 51.6484C12.8672 52.5859 15.5495 53.0547 18.2578 53.0547C19.8464 53.0547 21.2266 52.9115 22.3984 52.625C23.5964 52.3385 24.5859 51.9479 25.3672 51.4531C26.1745 50.9323 26.7734 50.3333 27.1641 49.6562C27.5547 48.9531 27.75 48.1979 27.75 47.3906C27.75 46.2969 27.4375 45.3203 26.8125 44.4609C26.1875 43.6016 25.3281 42.8073 24.2344 42.0781C23.1667 41.349 21.8906 40.6458 20.4062 39.9688C18.9219 39.2917 17.3203 38.6016 15.6016 37.8984C11.2266 36.0755 7.95833 33.849 5.79688 31.2188C3.66146 28.5885 2.59375 25.4115 2.59375 21.6875C2.59375 18.7708 3.17969 16.2708 4.35156 14.1875C5.52344 12.0781 7.11198 10.3464 9.11719 8.99219C11.1484 7.63802 13.4922 6.64844 16.1484 6.02344C18.8047 5.3724 21.6172 5.04688 24.5859 5.04688C27.5026 5.04688 30.0807 5.22917 32.3203 5.59375C34.5859 5.93229 36.6693 6.46615 38.5703 7.19531V18.875C37.6328 18.224 36.6042 17.651 35.4844 17.1562C34.3906 16.6615 33.2578 16.2578 32.0859 15.9453C30.9141 15.6068 29.7422 15.3594 28.5703 15.2031C27.4245 15.0469 26.3307 14.9688 25.2891 14.9688C23.8568 14.9688 22.5547 15.112 21.3828 15.3984C20.2109 15.6589 19.2214 16.0365 18.4141 16.5312C17.6068 17.026 16.9818 17.625 16.5391 18.3281C16.0964 19.0052 15.875 19.7734 15.875 20.6328C15.875 21.5703 16.1224 22.4167 16.6172 23.1719C17.112 23.901 17.8151 24.6042 18.7266 25.2812C19.638 25.9323 20.7448 26.5833 22.0469 27.2344C23.349 27.8594 24.8203 28.5104 26.4609 29.1875C28.7005 30.125 30.7057 31.1276 32.4766 32.1953C34.2734 33.237 35.8099 34.4219 37.0859 35.75C38.362 37.0781 39.3385 38.6016 40.0156 40.3203C40.6927 42.013 41.0312 43.9922 41.0312 46.2578C41.0312 49.3828 40.4323 52.013 39.2344 54.1484C38.0625 56.2578 36.4609 57.9766 34.4297 59.3047C32.3984 60.6068 30.0286 61.5443 27.3203 62.1172C24.638 62.6901 21.7995 62.9766 18.8047 62.9766C15.7318 62.9766 12.8021 62.7161 10.0156 62.1953C7.25521 61.6745 4.85938 60.8932 2.82812 59.8516ZM68.1016 62.9766C61.4349 62.9766 56.1875 61.1146 52.3594 57.3906C48.5573 53.6406 46.6562 48.5625 46.6562 42.1562C46.6562 35.5417 48.6354 30.3724 52.5938 26.6484C56.5521 22.8984 61.9036 21.0234 68.6484 21.0234C75.2891 21.0234 80.4974 22.8984 84.2734 26.6484C88.0495 30.3724 89.9375 35.3073 89.9375 41.4531C89.9375 48.0938 87.9844 53.3411 84.0781 57.1953C80.1979 61.0495 74.8724 62.9766 68.1016 62.9766ZM68.4141 30.4766C65.4974 30.4766 63.2318 31.4792 61.6172 33.4844C60.0026 35.4896 59.1953 38.3281 59.1953 42C59.1953 49.6823 62.2943 53.5234 68.4922 53.5234C74.4036 53.5234 77.3594 49.5781 77.3594 41.6875C77.3594 34.2135 74.3776 30.4766 68.4141 30.4766ZM110.289 62H97.9453V2.78125H110.289V62ZM158.688 62H146.383V55.9062H146.188C143.141 60.6198 139.065 62.9766 133.961 62.9766C124.69 62.9766 120.055 57.3646 120.055 46.1406V22H132.359V45.0469C132.359 50.6979 134.599 53.5234 139.078 53.5234C141.292 53.5234 143.062 52.7552 144.391 51.2188C145.719 49.6562 146.383 47.5469 146.383 44.8906V22H158.688V62ZM193.297 61.5312C191.474 62.4948 188.727 62.9766 185.055 62.9766C176.357 62.9766 172.008 58.4583 172.008 49.4219V31.1016H165.523V22H172.008V13.3672L184.312 9.85156V22H193.297V31.1016H184.312V47.2734C184.312 51.4401 185.966 53.5234 189.273 53.5234C190.576 53.5234 191.917 53.1458 193.297 52.3906V61.5312ZM206.539 15.6719C204.456 15.6719 202.75 15.0599 201.422 13.8359C200.094 12.5859 199.43 11.0625 199.43 9.26562C199.43 7.41667 200.094 5.90625 201.422 4.73438C202.75 3.5625 204.456 2.97656 206.539 2.97656C208.648 2.97656 210.354 3.5625 211.656 4.73438C212.984 5.90625 213.648 7.41667 213.648 9.26562C213.648 11.1406 212.984 12.6771 211.656 13.875C210.354 15.0729 208.648 15.6719 206.539 15.6719ZM212.633 62H200.289V22H212.633V62ZM242.086 62.9766C235.419 62.9766 230.172 61.1146 226.344 57.3906C222.542 53.6406 220.641 48.5625 220.641 42.1562C220.641 35.5417 222.62 30.3724 226.578 26.6484C230.536 22.8984 235.888 21.0234 242.633 21.0234C249.273 21.0234 254.482 22.8984 258.258 26.6484C262.034 30.3724 263.922 35.3073 263.922 41.4531C263.922 48.0938 261.969 53.3411 258.062 57.1953C254.182 61.0495 248.857 62.9766 242.086 62.9766ZM242.398 30.4766C239.482 30.4766 237.216 31.4792 235.602 33.4844C233.987 35.4896 233.18 38.3281 233.18 42C233.18 49.6823 236.279 53.5234 242.477 53.5234C248.388 53.5234 251.344 49.5781 251.344 41.6875C251.344 34.2135 248.362 30.4766 242.398 30.4766ZM310.562 62H298.258V39.7734C298.258 33.5755 296.044 30.4766 291.617 30.4766C289.482 30.4766 287.724 31.2969 286.344 32.9375C284.964 34.5781 284.273 36.6615 284.273 39.1875V62H271.93V22H284.273V28.3281H284.43C287.372 23.4583 291.656 21.0234 297.281 21.0234C306.135 21.0234 310.562 26.5182 310.562 37.5078V62ZM367.359 62.9766C359.339 62.9766 352.802 60.3724 347.75 55.1641C342.698 49.9297 340.172 43.1198 340.172 34.7344C340.172 25.8802 342.737 18.7188 347.867 13.25C352.997 7.78125 359.794 5.04688 368.258 5.04688C376.253 5.04688 382.711 7.66406 387.633 12.8984C392.581 18.1328 395.055 25.0339 395.055 33.6016C395.055 42.4036 392.49 49.5 387.359 54.8906C382.255 60.2812 375.589 62.9766 367.359 62.9766ZM367.906 15.9062C363.479 15.9062 359.964 17.5729 357.359 20.9062C354.755 24.2135 353.453 28.6016 353.453 34.0703C353.453 39.6172 354.755 44.0052 357.359 47.2344C359.964 50.4635 363.375 52.0781 367.594 52.0781C371.943 52.0781 375.393 50.5156 377.945 47.3906C380.497 44.2396 381.773 39.8776 381.773 34.3047C381.773 28.4974 380.536 23.9792 378.062 20.75C375.589 17.5208 372.203 15.9062 367.906 15.9062ZM441.266 22L426.383 62H412.32L398.141 22H411.344L418.297 46.6484C419.078 49.4349 419.534 51.8047 419.664 53.7578H419.82C420.003 51.9089 420.484 49.6172 421.266 46.8828L428.375 22H441.266ZM481.695 45.5156H455.602C456.018 51.3229 459.677 54.2266 466.578 54.2266C470.979 54.2266 474.846 53.1849 478.18 51.1016V60.0078C474.482 61.987 469.677 62.9766 463.766 62.9766C457.307 62.9766 452.294 61.1927 448.727 57.625C445.159 54.0312 443.375 49.0312 443.375 42.625C443.375 35.9844 445.302 30.724 449.156 26.8438C453.01 22.9635 457.75 21.0234 463.375 21.0234C469.208 21.0234 473.714 22.7552 476.891 26.2188C480.094 29.6823 481.695 34.3828 481.695 40.3203V45.5156ZM470.25 37.9375C470.25 32.2083 467.932 29.3438 463.297 29.3438C461.318 29.3438 459.599 30.1641 458.141 31.8047C456.708 33.4453 455.836 35.4896 455.523 37.9375H470.25ZM515.133 33.1328C513.648 32.3255 511.917 31.9219 509.938 31.9219C507.255 31.9219 505.159 32.9115 503.648 34.8906C502.138 36.8438 501.383 39.513 501.383 42.8984V62H489.039V22H501.383V29.4219H501.539C503.492 24.0052 507.008 21.2969 512.086 21.2969C513.388 21.2969 514.404 21.4531 515.133 21.7656V33.1328ZM562.203 22L547.32 62H533.258L519.078 22H532.281L539.234 46.6484C540.016 49.4349 540.471 51.8047 540.602 53.7578H540.758C540.94 51.9089 541.422 49.6172 542.203 46.8828L549.312 22H562.203ZM573.727 15.6719C571.643 15.6719 569.938 15.0599 568.609 13.8359C567.281 12.5859 566.617 11.0625 566.617 9.26562C566.617 7.41667 567.281 5.90625 568.609 4.73438C569.938 3.5625 571.643 2.97656 573.727 2.97656C575.836 2.97656 577.542 3.5625 578.844 4.73438C580.172 5.90625 580.836 7.41667 580.836 9.26562C580.836 11.1406 580.172 12.6771 578.844 13.875C577.542 15.0729 575.836 15.6719 573.727 15.6719ZM579.82 62H567.477V22H579.82V62ZM626.148 45.5156H600.055C600.471 51.3229 604.13 54.2266 611.031 54.2266C615.432 54.2266 619.299 53.1849 622.633 51.1016V60.0078C618.935 61.987 614.13 62.9766 608.219 62.9766C601.76 62.9766 596.747 61.1927 593.18 57.625C589.612 54.0312 587.828 49.0312 587.828 42.625C587.828 35.9844 589.755 30.724 593.609 26.8438C597.464 22.9635 602.203 21.0234 607.828 21.0234C613.661 21.0234 618.167 22.7552 621.344 26.2188C624.547 29.6823 626.148 34.3828 626.148 40.3203V45.5156ZM614.703 37.9375C614.703 32.2083 612.385 29.3438 607.75 29.3438C605.771 29.3438 604.052 30.1641 602.594 31.8047C601.161 33.4453 600.289 35.4896 599.977 37.9375H614.703ZM691.422 22L679.898 62H666.93L661.031 38.5625C660.641 37 660.419 35.2943 660.367 33.4453H660.133C659.951 35.4766 659.69 37.1302 659.352 38.4062L653.023 62H640.211L628.922 22H641.5L647.008 48.0938C647.268 49.3177 647.464 50.8021 647.594 52.5469H647.828C647.958 50.724 648.193 49.1875 648.531 47.9375L655.406 22H667.164L673.336 48.0938C673.492 48.7448 673.674 50.2552 673.883 52.625H674.156C674.286 51.1146 674.495 49.6042 674.781 48.0938L679.977 22H691.422Z"/>
</mask>
<path d="M2.82812 59.8516H0.828125V61.0736L1.91549 61.6312L2.82812 59.8516ZM2.82812 47.3516L4.11368 45.8195L0.828125 43.0626V47.3516H2.82812ZM10.2109 51.6484L9.52893 53.5286L9.5371 53.5315L9.5453 53.5344L10.2109 51.6484ZM22.3984 52.625L21.9333 50.6798L21.9235 50.6822L22.3984 52.625ZM25.3672 51.4531L26.4373 53.1428L26.4444 53.1383L26.4514 53.1337L25.3672 51.4531ZM27.1641 49.6562L28.8964 50.6557L28.9045 50.6417L28.9124 50.6275L27.1641 49.6562ZM24.2344 42.0781L23.1065 43.7297L23.1157 43.736L23.125 43.7422L24.2344 42.0781ZM15.6016 37.8984L14.8323 39.7446L14.8443 39.7495L15.6016 37.8984ZM5.79688 31.2188L4.24415 32.4794L4.25169 32.4886L5.79688 31.2188ZM4.35156 14.1875L6.09474 15.168L6.09988 15.1588L4.35156 14.1875ZM9.11719 8.99219L8.00777 7.32806L7.99787 7.33474L9.11719 8.99219ZM16.1484 6.02344L16.6065 7.97027L16.6155 7.96815L16.6245 7.96594L16.1484 6.02344ZM32.3203 5.59375L31.999 7.56776L32.0118 7.56986L32.0247 7.57179L32.3203 5.59375ZM38.5703 7.19531H40.5703V5.82036L39.2866 5.32796L38.5703 7.19531ZM38.5703 18.875L37.4295 20.5177L40.5703 22.6988V18.875H38.5703ZM35.4844 17.1562L34.66 18.9785L34.668 18.9821L34.676 18.9856L35.4844 17.1562ZM32.0859 15.9453L31.5309 17.8667L31.5507 17.8725L31.5706 17.8778L32.0859 15.9453ZM28.5703 15.2031L28.3001 17.1848L28.306 17.1856L28.5703 15.2031ZM21.3828 15.3984L21.8167 17.3508L21.8372 17.3462L21.8577 17.3412L21.3828 15.3984ZM18.4141 16.5312L19.4592 18.2365L18.4141 16.5312ZM16.5391 18.3281L18.213 19.4226L18.2224 19.4083L18.2315 19.3938L16.5391 18.3281ZM16.6172 23.1719L14.9443 24.2679L14.9531 24.2815L14.9622 24.2949L16.6172 23.1719ZM18.7266 25.2812L17.5339 26.8867L17.5489 26.8979L17.5641 26.9087L18.7266 25.2812ZM22.0469 27.2344L21.1524 29.0232L21.1669 29.0304L21.1814 29.0374L22.0469 27.2344ZM26.4609 29.1875L27.2332 27.3426L27.2239 27.3388L26.4609 29.1875ZM32.4766 32.1953L31.4439 33.9081L31.4586 33.917L31.4735 33.9256L32.4766 32.1953ZM40.0156 40.3203L38.1548 41.0534L38.1587 41.0631L40.0156 40.3203ZM39.2344 54.1484L37.4901 53.1699L37.4861 53.1772L39.2344 54.1484ZM34.4297 59.3047L35.509 60.9884L35.5166 60.9836L35.5242 60.9786L34.4297 59.3047ZM27.3203 62.1172L26.9064 60.1605L26.9026 60.1613L27.3203 62.1172ZM10.0156 62.1953L9.64481 64.1606L9.64816 64.1613L10.0156 62.1953ZM2.82812 59.8516H4.82812V47.3516H2.82812H0.828125V59.8516H2.82812ZM2.82812 47.3516L1.54257 48.8837C3.979 50.928 6.64253 52.4815 9.52893 53.5286L10.2109 51.6484L10.8929 49.7683C8.46684 48.8883 6.2085 47.5772 4.11368 45.8195L2.82812 47.3516ZM10.2109 51.6484L9.5453 53.5344C12.4067 54.5443 15.3137 55.0547 18.2578 55.0547V53.0547V51.0547C15.7852 51.0547 13.3277 50.6276 10.8766 49.7625L10.2109 51.6484ZM18.2578 53.0547V55.0547C19.9591 55.0547 21.506 54.902 22.8733 54.5678L22.3984 52.625L21.9235 50.6822C20.9471 50.9209 19.7336 51.0547 18.2578 51.0547V53.0547ZM22.3984 52.625L22.8636 54.5702C24.2092 54.2484 25.4196 53.7873 26.4373 53.1428L25.3672 51.4531L24.2971 49.7635C23.7523 50.1085 22.9836 50.4287 21.9333 50.6798L22.3984 52.625ZM25.3672 51.4531L26.4514 53.1337C27.4656 52.4794 28.3147 51.6641 28.8964 50.6557L27.1641 49.6562L25.4317 48.6568C25.2322 49.0026 24.8833 49.3852 24.2829 49.7725L25.3672 51.4531ZM27.1641 49.6562L28.9124 50.6275C29.4687 49.6262 29.75 48.5365 29.75 47.3906H27.75H25.75C25.75 47.8593 25.6407 48.2801 25.4157 48.685L27.1641 49.6562ZM27.75 47.3906H29.75C29.75 45.8875 29.3113 44.4964 28.43 43.2846L26.8125 44.4609L25.195 45.6373C25.5637 46.1442 25.75 46.7063 25.75 47.3906H27.75ZM26.8125 44.4609L28.43 43.2846C27.6372 42.1945 26.5894 41.2445 25.3438 40.414L24.2344 42.0781L23.125 43.7422C24.0668 44.3701 24.7378 45.0086 25.195 45.6373L26.8125 44.4609ZM24.2344 42.0781L25.3623 40.4265C24.1796 39.6188 22.799 38.8619 21.2363 38.1491L20.4062 39.9688L19.5762 41.7884C20.9823 42.4297 22.1538 43.0791 23.1065 43.7297L24.2344 42.0781ZM20.4062 39.9688L21.2363 38.1491C19.7248 37.4597 18.0988 36.7591 16.3588 36.0473L15.6016 37.8984L14.8443 39.7495C16.5419 40.444 18.1189 41.1236 19.5762 41.7884L20.4062 39.9688ZM15.6016 37.8984L16.3708 36.0523C12.1857 34.3085 9.23054 32.247 7.34206 29.9489L5.79688 31.2188L4.25169 32.4886C6.68613 35.4509 10.2674 37.8425 14.8323 39.7446L15.6016 37.8984ZM5.79688 31.2188L7.34957 29.9581C5.53271 27.7203 4.59375 25.0009 4.59375 21.6875H2.59375H0.59375C0.59375 25.822 1.79021 29.4568 4.24418 32.4794L5.79688 31.2188ZM2.59375 21.6875H4.59375C4.59375 19.0392 5.12459 16.8927 6.09471 15.168L4.35156 14.1875L2.60841 13.207C1.23478 15.649 0.59375 18.5025 0.59375 21.6875H2.59375ZM4.35156 14.1875L6.09988 15.1588C7.11854 13.3252 8.49127 11.8282 10.2365 10.6496L9.11719 8.99219L7.99787 7.33474C5.73269 8.86447 3.92834 10.8311 2.60325 13.2162L4.35156 14.1875ZM9.11719 8.99219L10.2266 10.6563C12.0373 9.44912 14.1553 8.54703 16.6065 7.97027L16.1484 6.02344L15.6904 4.0766C12.8291 4.74985 10.2595 5.82692 8.00779 7.32809L9.11719 8.99219ZM16.1484 6.02344L16.6245 7.96594C19.1123 7.35619 21.764 7.04688 24.5859 7.04688V5.04688V3.04688C21.4703 3.04688 18.4971 3.3886 15.6723 4.08093L16.1484 6.02344ZM24.5859 5.04688V7.04688C27.4237 7.04688 29.8906 7.22454 31.999 7.56776L32.3203 5.59375L32.6417 3.61974C30.2708 3.23379 27.5815 3.04688 24.5859 3.04688V5.04688ZM32.3203 5.59375L32.0247 7.57179C34.1641 7.89147 36.1045 8.39158 37.8541 9.06266L38.5703 7.19531L39.2866 5.32796C37.2341 4.54071 35.0078 3.97312 32.6159 3.61571L32.3203 5.59375ZM38.5703 7.19531H36.5703V18.875H38.5703H40.5703V7.19531H38.5703ZM38.5703 18.875L39.7111 17.2323C38.6617 16.5035 37.5206 15.8695 36.2927 15.3269L35.4844 17.1562L34.676 18.9856C35.6877 19.4326 36.6039 19.9444 37.4295 20.5177L38.5703 18.875ZM35.4844 17.1562L36.3087 15.334C35.1141 14.7936 33.8779 14.3533 32.6013 14.0128L32.0859 15.9453L31.5706 17.8778C32.6377 18.1623 33.6671 18.5293 34.66 18.9785L35.4844 17.1562ZM32.0859 15.9453L32.641 14.0239C31.3769 13.6587 30.1079 13.3904 28.8346 13.2207L28.5703 15.2031L28.306 17.1856C29.3765 17.3283 30.4512 17.5549 31.5309 17.8667L32.0859 15.9453ZM28.5703 15.2031L28.8405 13.2215C27.6148 13.0543 26.4303 12.9688 25.2891 12.9688V14.9688V16.9688C26.2311 16.9688 27.2342 17.0394 28.3001 17.1848L28.5703 15.2031ZM25.2891 14.9688V12.9688C23.7256 12.9688 22.261 13.1249 20.9079 13.4556L21.3828 15.3984L21.8577 17.3412C22.8484 17.0991 23.9879 16.9688 25.2891 16.9688V14.9688ZM21.3828 15.3984L20.949 13.4461C19.6162 13.7422 18.4077 14.1894 17.3689 14.826L18.4141 16.5312L19.4592 18.2365C20.035 17.8835 20.8057 17.5755 21.8167 17.3508L21.3828 15.3984ZM18.4141 16.5312L17.3689 14.826C16.3363 15.4589 15.4746 16.2651 14.8466 17.2625L16.5391 18.3281L18.2315 19.3938C18.489 18.9849 18.8772 18.5931 19.4592 18.2365L18.4141 16.5312ZM16.5391 18.3281L14.8651 17.2336C14.1962 18.2567 13.875 19.4101 13.875 20.6328H15.875H17.875C17.875 20.1368 17.9965 19.7537 18.213 19.4226L16.5391 18.3281ZM15.875 20.6328H13.875C13.875 21.9439 14.2276 23.174 14.9443 24.2679L16.6172 23.1719L18.2901 22.0758C18.0172 21.6593 17.875 21.1967 17.875 20.6328H15.875ZM16.6172 23.1719L14.9622 24.2949C15.6134 25.2544 16.4917 26.1125 17.5339 26.8867L18.7266 25.2812L19.9192 23.6758C19.1385 23.0958 18.6106 22.5476 18.2721 22.0489L16.6172 23.1719ZM18.7266 25.2812L17.5641 26.9087C18.5813 27.6353 19.783 28.3385 21.1524 29.0232L22.0469 27.2344L22.9413 25.4455C21.7066 24.8282 20.6947 24.2293 19.889 23.6538L18.7266 25.2812ZM22.0469 27.2344L21.1814 29.0374C22.5238 29.6818 24.0302 30.348 25.698 31.0362L26.4609 29.1875L27.2239 27.3388C25.6104 26.6729 24.1741 26.037 22.9123 25.4313L22.0469 27.2344ZM26.4609 29.1875L25.6887 31.0324C27.8534 31.9385 29.7694 32.8985 31.4439 33.9081L32.4766 32.1953L33.5093 30.4826C31.6421 29.3568 29.5477 28.3115 27.2332 27.3426L26.4609 29.1875ZM32.4766 32.1953L31.4735 33.9256C33.1289 34.8852 34.5125 35.9583 35.6437 37.1357L37.0859 35.75L38.5281 34.3643C37.1072 32.8855 35.418 31.5887 33.4796 30.465L32.4766 32.1953ZM37.0859 35.75L35.6437 37.1357C36.7384 38.2751 37.5731 39.5766 38.1548 41.0534L40.0156 40.3203L41.8764 39.5873C41.104 37.6265 39.9855 35.8812 38.5281 34.3643L37.0859 35.75ZM40.0156 40.3203L38.1587 41.0631C38.7214 42.4699 39.0312 44.187 39.0312 46.2578H41.0312H43.0312C43.0312 43.7974 42.664 41.5562 41.8726 39.5775L40.0156 40.3203ZM41.0312 46.2578H39.0312C39.0312 49.1328 38.4802 51.405 37.4901 53.1699L39.2344 54.1484L40.9787 55.1269C42.3844 52.6211 43.0312 49.6328 43.0312 46.2578H41.0312ZM39.2344 54.1484L37.4861 53.1772C36.4728 55.001 35.0963 56.4792 33.3352 57.6307L34.4297 59.3047L35.5242 60.9786C37.8255 59.4739 39.6522 57.5146 40.9827 55.1197L39.2344 54.1484ZM34.4297 59.3047L33.3504 57.6209C31.5502 58.7749 29.4127 59.6303 26.9064 60.1605L27.3203 62.1172L27.7342 64.0739C30.6446 63.4582 33.2466 62.4387 35.509 60.9884L34.4297 59.3047ZM27.3203 62.1172L26.9026 60.1613C24.3695 60.7024 21.6718 60.9766 18.8047 60.9766V62.9766V64.9766C21.9272 64.9766 24.9066 64.6779 27.7381 64.0731L27.3203 62.1172ZM18.8047 62.9766V60.9766C15.8448 60.9766 13.0387 60.7257 10.3831 60.2294L10.0156 62.1953L9.64816 64.1613C12.5654 64.7066 15.6187 64.9766 18.8047 64.9766V62.9766ZM10.0156 62.1953L10.3864 60.23C7.77296 59.7369 5.56725 59.0086 3.74076 58.0719L2.82812 59.8516L1.91549 61.6312C4.1515 62.7779 6.73745 63.6121 9.64481 64.1606L10.0156 62.1953ZM52.3594 57.3906L50.9549 58.8146L50.9648 58.8242L52.3594 57.3906ZM52.5938 26.6484L53.9642 28.1051L53.9692 28.1003L52.5938 26.6484ZM84.2734 26.6484L82.8641 28.0675L82.8691 28.0724L84.2734 26.6484ZM84.0781 57.1953L82.6734 55.7716L82.6687 55.7763L84.0781 57.1953ZM68.1016 62.9766V60.9766C61.8197 60.9766 57.1214 59.2328 53.7539 55.957L52.3594 57.3906L50.9648 58.8242C55.2536 62.9963 61.0501 64.9766 68.1016 64.9766V62.9766ZM52.3594 57.3906L53.7638 55.9667C50.4173 52.666 48.6562 48.1419 48.6562 42.1562H46.6562H44.6562C44.6562 48.9831 46.6973 54.6152 50.9549 58.8146L52.3594 57.3906ZM46.6562 42.1562H48.6562C48.6562 35.9644 50.4927 31.3711 53.9642 28.1051L52.5938 26.6484L51.2233 25.1918C46.7781 29.3737 44.6562 35.1189 44.6562 42.1562H46.6562ZM52.5938 26.6484L53.9692 28.1003C57.4728 24.7811 62.2879 23.0234 68.6484 23.0234V21.0234V19.0234C61.5194 19.0234 55.6313 21.0157 51.2183 25.1965L52.5938 26.6484ZM68.6484 21.0234V23.0234C74.8992 23.0234 79.5505 24.7768 82.8641 28.0675L84.2734 26.6484L85.6827 25.2293C81.4443 21.0201 75.6789 19.0234 68.6484 19.0234V21.0234ZM84.2734 26.6484L82.8691 28.0724C86.203 31.3604 87.9375 35.7504 87.9375 41.4531H89.9375H91.9375C91.9375 34.8642 89.8959 29.3844 85.6778 25.2244L84.2734 26.6484ZM89.9375 41.4531H87.9375C87.9375 47.6789 86.1209 52.3701 82.6734 55.7716L84.0781 57.1953L85.4828 58.619C89.8478 54.3122 91.9375 48.5086 91.9375 41.4531H89.9375ZM84.0781 57.1953L82.6687 55.7763C79.248 59.174 74.4774 60.9766 68.1016 60.9766V62.9766V64.9766C75.2674 64.9766 81.1478 62.9249 85.4876 58.6143L84.0781 57.1953ZM68.4141 30.4766V28.4766C64.9829 28.4766 62.1072 29.6868 60.0594 32.2301L61.6172 33.4844L63.175 34.7387C64.3563 33.2715 66.0118 32.4766 68.4141 32.4766V30.4766ZM61.6172 33.4844L60.0594 32.2301C58.0586 34.7149 57.1953 38.062 57.1953 42H59.1953H61.1953C61.1953 38.5943 61.9466 36.2643 63.175 34.7387L61.6172 33.4844ZM59.1953 42H57.1953C57.1953 46.0578 58.0052 49.4718 59.963 51.8984C61.9869 54.4071 64.9576 55.5234 68.4922 55.5234V53.5234V51.5234C65.8288 51.5234 64.1511 50.7192 63.0761 49.3868C61.9349 47.9722 61.1953 45.6245 61.1953 42H59.1953ZM68.4922 53.5234V55.5234C71.9367 55.5234 74.8104 54.3435 76.7432 51.7636C78.5947 49.2923 79.3594 45.8248 79.3594 41.6875H77.3594H75.3594C75.3594 45.4408 74.6462 47.8913 73.5419 49.3653C72.519 50.7307 70.9591 51.5234 68.4922 51.5234V53.5234ZM77.3594 41.6875H79.3594C79.3594 37.7377 78.5803 34.4055 76.6864 32.0319C74.7237 29.5721 71.8391 28.4766 68.4141 28.4766V30.4766V32.4766C70.9526 32.4766 72.5406 33.2495 73.5597 34.5267C74.6476 35.8901 75.3594 38.1633 75.3594 41.6875H77.3594ZM110.289 62V64H112.289V62H110.289ZM97.9453 62H95.9453V64H97.9453V62ZM97.9453 2.78125V0.78125H95.9453V2.78125H97.9453ZM110.289 2.78125H112.289V0.78125H110.289V2.78125ZM110.289 62V60H97.9453V62V64H110.289V62ZM97.9453 62H99.9453V2.78125H97.9453H95.9453V62H97.9453ZM97.9453 2.78125V4.78125H110.289V2.78125V0.78125H97.9453V2.78125ZM110.289 2.78125H108.289V62H110.289H112.289V2.78125H110.289ZM158.688 62V64H160.688V62H158.688ZM146.383 62H144.383V64H146.383V62ZM146.383 55.9062H148.383V53.9062H146.383V55.9062ZM146.188 55.9062V53.9062H145.099L144.508 54.8205L146.188 55.9062ZM120.055 22V20H118.055V22H120.055ZM132.359 22H134.359V20H132.359V22ZM144.391 51.2188L145.904 52.5267L145.909 52.5204L145.915 52.514L144.391 51.2188ZM146.383 22V20H144.383V22H146.383ZM158.688 22H160.688V20H158.688V22ZM158.688 62V60H146.383V62V64H158.688V62ZM146.383 62H148.383V55.9062H146.383H144.383V62H146.383ZM146.383 55.9062V53.9062H146.188V55.9062V57.9062H146.383V55.9062ZM146.188 55.9062L144.508 54.8205C141.786 59.0314 138.31 60.9766 133.961 60.9766V62.9766V64.9766C139.82 64.9766 144.495 62.2082 147.867 56.992L146.188 55.9062ZM133.961 62.9766V60.9766C129.745 60.9766 126.911 59.719 125.073 57.4939C123.175 55.1956 122.055 51.5274 122.055 46.1406H120.055H118.055C118.055 51.9778 119.252 56.7276 121.989 60.0413C124.787 63.4281 128.906 64.9766 133.961 64.9766V62.9766ZM120.055 46.1406H122.055V22H120.055H118.055V46.1406H120.055ZM120.055 22V24H132.359V22V20H120.055V22ZM132.359 22H130.359V45.0469H132.359H134.359V22H132.359ZM132.359 45.0469H130.359C130.359 48.0829 130.952 50.7293 132.472 52.6466C134.062 54.6526 136.391 55.5234 139.078 55.5234V53.5234V51.5234C137.286 51.5234 136.256 50.9816 135.606 50.162C134.887 49.2538 134.359 47.6619 134.359 45.0469H132.359ZM139.078 53.5234V55.5234C141.814 55.5234 144.159 54.5453 145.904 52.5267L144.391 51.2188L142.878 49.9108C141.966 50.9651 140.77 51.5234 139.078 51.5234V53.5234ZM144.391 51.2188L145.915 52.514C147.631 50.4943 148.383 47.8786 148.383 44.8906H146.383H144.383C144.383 47.2151 143.806 48.8182 142.867 49.9235L144.391 51.2188ZM146.383 44.8906H148.383V22H146.383H144.383V44.8906H146.383ZM146.383 22V24H158.688V22V20H146.383V22ZM158.688 22H156.688V62H158.688H160.688V22H158.688ZM193.297 61.5312L194.231 63.2994L195.297 62.7363V61.5312H193.297ZM172.008 31.1016H174.008V29.1016H172.008V31.1016ZM165.523 31.1016H163.523V33.1016H165.523V31.1016ZM165.523 22V20H163.523V22H165.523ZM172.008 22V24H174.008V22H172.008ZM172.008 13.3672L171.458 11.4441L170.008 11.8586V13.3672H172.008ZM184.312 9.85156H186.312V7.2001L183.763 7.92852L184.312 9.85156ZM184.312 22H182.312V24H184.312V22ZM193.297 22H195.297V20H193.297V22ZM193.297 31.1016V33.1016H195.297V31.1016H193.297ZM184.312 31.1016V29.1016H182.312V31.1016H184.312ZM193.297 52.3906H195.297V49.0165L192.337 50.6361L193.297 52.3906ZM193.297 61.5312L192.362 59.7631C190.972 60.4977 188.618 60.9766 185.055 60.9766V62.9766V64.9766C188.835 64.9766 191.975 64.4919 194.231 63.2994L193.297 61.5312ZM185.055 62.9766V60.9766C181.034 60.9766 178.381 59.9363 176.71 58.2009C175.026 56.4513 174.008 53.6505 174.008 49.4219H172.008H170.008C170.008 54.2297 171.164 58.2062 173.829 60.9749C176.507 63.7577 180.378 64.9766 185.055 64.9766V62.9766ZM172.008 49.4219H174.008V31.1016H172.008H170.008V49.4219H172.008ZM172.008 31.1016V29.1016H165.523V31.1016V33.1016H172.008V31.1016ZM165.523 31.1016H167.523V22H165.523H163.523V31.1016H165.523ZM165.523 22V24H172.008V22V20H165.523V22ZM172.008 22H174.008V13.3672H172.008H170.008V22H172.008ZM172.008 13.3672L172.557 15.2902L184.862 11.7746L184.312 9.85156L183.763 7.92852L171.458 11.4441L172.008 13.3672ZM184.312 9.85156H182.312V22H184.312H186.312V9.85156H184.312ZM184.312 22V24H193.297V22V20H184.312V22ZM193.297 22H191.297V31.1016H193.297H195.297V22H193.297ZM193.297 31.1016V29.1016H184.312V31.1016V33.1016H193.297V31.1016ZM184.312 31.1016H182.312V47.2734H184.312H186.312V31.1016H184.312ZM184.312 47.2734H182.312C182.312 49.5677 182.759 51.658 183.986 53.2043C185.284 54.8388 187.173 55.5234 189.273 55.5234V53.5234V51.5234C188.067 51.5234 187.476 51.1664 187.119 50.7175C186.693 50.1805 186.312 49.1458 186.312 47.2734H184.312ZM189.273 53.5234V55.5234C190.974 55.5234 192.643 55.0281 194.257 54.1451L193.297 52.3906L192.337 50.6361C191.19 51.2636 190.177 51.5234 189.273 51.5234V53.5234ZM193.297 52.3906H191.297V61.5312H193.297H195.297V52.3906H193.297ZM201.422 13.8359L200.051 15.2923L200.059 15.2995L200.067 15.3066L201.422 13.8359ZM211.656 4.73438L210.318 6.22096L210.326 6.22754L210.333 6.23405L211.656 4.73438ZM211.656 13.875L210.317 12.3899L210.309 12.3965L210.302 12.4031L211.656 13.875ZM212.633 62V64H214.633V62H212.633ZM200.289 62H198.289V64H200.289V62ZM200.289 22V20H198.289V22H200.289ZM212.633 22H214.633V20H212.633V22ZM206.539 15.6719V13.6719C204.875 13.6719 203.68 13.1968 202.777 12.3652L201.422 13.8359L200.067 15.3066C201.82 16.923 204.036 17.6719 206.539 17.6719V15.6719ZM201.422 13.8359L202.793 12.3795C201.859 11.5011 201.43 10.5017 201.43 9.26562H199.43H197.43C197.43 11.6233 198.328 13.6708 200.051 15.2923L201.422 13.8359ZM199.43 9.26562H201.43C201.43 7.96184 201.868 7.00771 202.745 6.23405L201.422 4.73438L200.099 3.2347C198.319 4.80479 197.43 6.87149 197.43 9.26562H199.43ZM201.422 4.73438L202.745 6.23405C203.645 5.43997 204.852 4.97656 206.539 4.97656V2.97656V0.976562C204.059 0.976562 201.855 1.68503 200.099 3.2347L201.422 4.73438ZM206.539 2.97656V4.97656C208.26 4.97656 209.455 5.44434 210.318 6.22096L211.656 4.73438L212.994 3.24779C211.253 1.68066 209.036 0.976562 206.539 0.976562V2.97656ZM211.656 4.73438L210.333 6.23405C211.21 7.00771 211.648 7.96184 211.648 9.26562H213.648H215.648C215.648 6.87149 214.759 4.80479 212.979 3.2347L211.656 4.73438ZM213.648 9.26562H211.648C211.648 10.6054 211.202 11.5914 210.317 12.3899L211.656 13.875L212.996 15.3601C214.767 13.7627 215.648 11.6759 215.648 9.26562H213.648ZM211.656 13.875L210.302 12.4031C209.438 13.1981 208.249 13.6719 206.539 13.6719V15.6719V17.6719C209.048 17.6719 211.27 16.9477 213.01 15.3469L211.656 13.875ZM212.633 62V60H200.289V62V64H212.633V62ZM200.289 62H202.289V22H200.289H198.289V62H200.289ZM200.289 22V24H212.633V22V20H200.289V22ZM212.633 22H210.633V62H212.633H214.633V22H212.633ZM226.344 57.3906L224.939 58.8146L224.949 58.8242L226.344 57.3906ZM226.578 26.6484L227.949 28.1051L227.954 28.1003L226.578 26.6484ZM258.258 26.6484L256.848 28.0675L256.853 28.0724L258.258 26.6484ZM258.062 57.1953L256.658 55.7716L256.653 55.7763L258.062 57.1953ZM242.086 62.9766V60.9766C235.804 60.9766 231.106 59.2328 227.738 55.957L226.344 57.3906L224.949 58.8242C229.238 62.9963 235.034 64.9766 242.086 64.9766V62.9766ZM226.344 57.3906L227.748 55.9667C224.402 52.666 222.641 48.1419 222.641 42.1562H220.641H218.641C218.641 48.9831 220.682 54.6152 224.939 58.8146L226.344 57.3906ZM220.641 42.1562H222.641C222.641 35.9644 224.477 31.3711 227.949 28.1051L226.578 26.6484L225.208 25.1918C220.763 29.3737 218.641 35.1189 218.641 42.1562H220.641ZM226.578 26.6484L227.954 28.1003C231.457 24.7811 236.272 23.0234 242.633 23.0234V21.0234V19.0234C235.504 19.0234 229.616 21.0157 225.203 25.1965L226.578 26.6484ZM242.633 21.0234V23.0234C248.884 23.0234 253.535 24.7768 256.849 28.0675L258.258 26.6484L259.667 25.2293C255.429 21.0201 249.663 19.0234 242.633 19.0234V21.0234ZM258.258 26.6484L256.853 28.0724C260.187 31.3604 261.922 35.7504 261.922 41.4531H263.922H265.922C265.922 34.8642 263.88 29.3844 259.662 25.2244L258.258 26.6484ZM263.922 41.4531H261.922C261.922 47.6789 260.105 52.3701 256.658 55.7716L258.062 57.1953L259.467 58.619C263.832 54.3122 265.922 48.5086 265.922 41.4531H263.922ZM258.062 57.1953L256.653 55.7763C253.232 59.174 248.462 60.9766 242.086 60.9766V62.9766V64.9766C249.252 64.9766 255.132 62.9249 259.472 58.6143L258.062 57.1953ZM242.398 30.4766V28.4766C238.967 28.4766 236.092 29.6868 234.044 32.2301L235.602 33.4844L237.159 34.7387C238.341 33.2715 239.996 32.4766 242.398 32.4766V30.4766ZM235.602 33.4844L234.044 32.2301C232.043 34.7149 231.18 38.062 231.18 42H233.18H235.18C235.18 38.5943 235.931 36.2643 237.159 34.7387L235.602 33.4844ZM233.18 42H231.18C231.18 46.0578 231.99 49.4718 233.947 51.8984C235.971 54.4071 238.942 55.5234 242.477 55.5234V53.5234V51.5234C239.813 51.5234 238.135 50.7192 237.06 49.3868C235.919 47.9722 235.18 45.6245 235.18 42H233.18ZM242.477 53.5234V55.5234C245.921 55.5234 248.795 54.3435 250.728 51.7636C252.579 49.2923 253.344 45.8248 253.344 41.6875H251.344H249.344C249.344 45.4408 248.631 47.8913 247.526 49.3653C246.503 50.7307 244.943 51.5234 242.477 51.5234V53.5234ZM251.344 41.6875H253.344C253.344 37.7377 252.565 34.4055 250.671 32.0319C248.708 29.5721 245.823 28.4766 242.398 28.4766V30.4766V32.4766C244.937 32.4766 246.525 33.2495 247.544 34.5267C248.632 35.8901 249.344 38.1633 249.344 41.6875H251.344ZM310.562 62V64H312.562V62H310.562ZM298.258 62H296.258V64H298.258V62ZM286.344 32.9375L284.813 31.65L286.344 32.9375ZM284.273 62V64H286.273V62H284.273ZM271.93 62H269.93V64H271.93V62ZM271.93 22V20H269.93V22H271.93ZM284.273 22H286.273V20H284.273V22ZM284.273 28.3281H282.273V30.3281H284.273V28.3281ZM284.43 28.3281V30.3281H285.558L286.141 29.3625L284.43 28.3281ZM310.562 62V60H298.258V62V64H310.562V62ZM298.258 62H300.258V39.7734H298.258H296.258V62H298.258ZM298.258 39.7734H300.258C300.258 36.4968 299.684 33.6801 298.225 31.6383C296.678 29.4725 294.356 28.4766 291.617 28.4766V30.4766V32.4766C293.305 32.4766 294.304 33.0301 294.97 33.9633C295.725 35.0204 296.258 36.8522 296.258 39.7734H298.258ZM291.617 30.4766V28.4766C288.889 28.4766 286.572 29.5597 284.813 31.65L286.344 32.9375L287.874 34.225C288.876 33.034 290.075 32.4766 291.617 32.4766V30.4766ZM286.344 32.9375L284.813 31.65C283.078 33.7132 282.273 36.2785 282.273 39.1875H284.273H286.273C286.273 37.0444 286.85 35.443 287.874 34.225L286.344 32.9375ZM284.273 39.1875H282.273V62H284.273H286.273V39.1875H284.273ZM284.273 62V60H271.93V62V64H284.273V62ZM271.93 62H273.93V22H271.93H269.93V62H271.93ZM271.93 22V24H284.273V22V20H271.93V22ZM284.273 22H282.273V28.3281H284.273H286.273V22H284.273ZM284.273 28.3281V30.3281H284.43V28.3281V26.3281H284.273V28.3281ZM284.43 28.3281L286.141 29.3625C288.727 25.0836 292.366 23.0234 297.281 23.0234V21.0234V19.0234C290.946 19.0234 286.018 21.8331 282.718 27.2938L284.43 28.3281ZM297.281 21.0234V23.0234C301.272 23.0234 303.945 24.2404 305.685 26.3993C307.491 28.6408 308.562 32.2292 308.562 37.5078H310.562H312.562C312.562 31.7968 311.421 27.1431 308.8 23.8897C306.112 20.5539 302.145 19.0234 297.281 19.0234V21.0234ZM310.562 37.5078H308.562V62H310.562H312.562V37.5078H310.562ZM347.75 55.1641L346.311 56.553L346.314 56.5566L347.75 55.1641ZM387.633 12.8984L386.176 14.2685L386.179 14.2723L387.633 12.8984ZM387.359 54.8906L385.911 53.5118L385.907 53.5155L387.359 54.8906ZM357.359 20.9062L358.931 22.1435L358.935 22.1375L357.359 20.9062ZM377.945 47.3906L379.494 48.6557L379.5 48.6494L377.945 47.3906ZM367.359 62.9766V60.9766C359.817 60.9766 353.819 58.5486 349.186 53.7715L347.75 55.1641L346.314 56.5566C351.785 62.1962 358.86 64.9766 367.359 64.9766V62.9766ZM347.75 55.1641L349.189 53.7751C344.552 48.9707 342.172 42.6869 342.172 34.7344H340.172H338.172C338.172 43.5527 340.844 50.8886 346.311 56.553L347.75 55.1641ZM340.172 34.7344H342.172C342.172 26.2906 344.605 19.6506 349.326 14.6183L347.867 13.25L346.409 11.8817C340.869 17.7869 338.172 25.4698 338.172 34.7344H340.172ZM347.867 13.25L349.326 14.6183C354.027 9.60641 360.268 7.04688 368.258 7.04688V5.04688V3.04688C359.32 3.04688 351.967 5.95609 346.409 11.8817L347.867 13.25ZM368.258 5.04688V7.04688C375.77 7.04688 381.677 9.4836 386.176 14.2685L387.633 12.8984L389.09 11.5284C383.745 5.84452 376.736 3.04688 368.258 3.04688V5.04688ZM387.633 12.8984L386.179 14.2723C390.711 19.0667 393.055 25.4418 393.055 33.6016H395.055H397.055C397.055 24.6259 394.45 17.1989 389.086 11.5246L387.633 12.8984ZM395.055 33.6016H393.055C393.055 41.9905 390.623 48.5597 385.911 53.5118L387.359 54.8906L388.808 56.2694C394.356 50.4403 397.055 42.8168 397.055 33.6016H395.055ZM387.359 54.8906L385.907 53.5155C381.224 58.4618 375.105 60.9766 367.359 60.9766V62.9766V64.9766C376.072 64.9766 383.287 62.1007 388.812 56.2657L387.359 54.8906ZM367.906 15.9062V13.9062C362.897 13.9062 358.787 15.8308 355.783 19.675L357.359 20.9062L358.935 22.1375C361.141 19.315 364.062 17.9062 367.906 17.9062V15.9062ZM357.359 20.9062L355.788 19.669C352.833 23.4223 351.453 28.2881 351.453 34.0703H353.453H355.453C355.453 28.9151 356.678 25.0048 358.931 22.1435L357.359 20.9062ZM353.453 34.0703H351.453C351.453 39.9199 352.828 44.8012 355.803 48.4899L357.359 47.2344L358.916 45.9789C356.683 43.2092 355.453 39.3145 355.453 34.0703H353.453ZM357.359 47.2344L355.803 48.4899C358.794 52.1991 362.782 54.0781 367.594 54.0781V52.0781V50.0781C363.968 50.0781 361.133 48.728 358.916 45.9789L357.359 47.2344ZM367.594 52.0781V54.0781C372.49 54.0781 376.53 52.2857 379.494 48.6557L377.945 47.3906L376.396 46.1256C374.257 48.7456 371.396 50.0781 367.594 50.0781V52.0781ZM377.945 47.3906L379.5 48.6494C382.431 45.0293 383.773 40.1657 383.773 34.3047H381.773H379.773C379.773 39.5895 378.563 43.4499 376.391 46.1319L377.945 47.3906ZM381.773 34.3047H383.773C383.773 28.2403 382.485 23.2334 379.65 19.5337L378.062 20.75L376.475 21.9663C378.588 24.7249 379.773 28.7545 379.773 34.3047H381.773ZM378.062 20.75L379.65 19.5337C376.774 15.7791 372.785 13.9062 367.906 13.9062V15.9062V17.9062C371.622 17.9062 374.403 19.2626 376.475 21.9663L378.062 20.75ZM441.266 22L443.14 22.6974L444.144 20H441.266V22ZM426.383 62V64H427.773L428.257 62.6974L426.383 62ZM412.32 62L410.435 62.6682L410.907 64H412.32V62ZM398.141 22V20H395.31L396.256 22.6682L398.141 22ZM411.344 22L413.269 21.457L412.858 20H411.344V22ZM418.297 46.6484L420.223 46.1085L420.222 46.1054L418.297 46.6484ZM419.664 53.7578L417.668 53.8909L417.793 55.7578H419.664V53.7578ZM419.82 53.7578V55.7578H421.633L421.811 53.954L419.82 53.7578ZM428.375 22V20H426.866L426.452 21.4506L428.375 22ZM441.266 22L439.391 21.3026L424.508 61.3026L426.383 62L428.257 62.6974L443.14 22.6974L441.266 22ZM426.383 62V60H412.32V62V64H426.383V62ZM412.32 62L414.205 61.3318L400.026 21.3318L398.141 22L396.256 22.6682L410.435 62.6682L412.32 62ZM398.141 22V24H411.344V22V20H398.141V22ZM411.344 22L409.419 22.543L416.372 47.1914L418.297 46.6484L420.222 46.1054L413.269 21.457L411.344 22ZM418.297 46.6484L416.371 47.1884C417.131 49.8987 417.551 52.1238 417.668 53.8909L419.664 53.7578L421.66 53.6248C421.517 51.4856 421.025 48.9711 420.223 46.1085L418.297 46.6484ZM419.664 53.7578V55.7578H419.82V53.7578V51.7578H419.664V53.7578ZM419.82 53.7578L421.811 53.954C421.977 52.2697 422.425 50.105 423.189 47.4323L421.266 46.8828L419.343 46.3334C418.544 49.1294 418.028 51.548 417.83 53.5616L419.82 53.7578ZM421.266 46.8828L423.189 47.4323L430.298 22.5494L428.375 22L426.452 21.4506L419.343 46.3334L421.266 46.8828ZM428.375 22V24H441.266V22V20H428.375V22ZM481.695 45.5156V47.5156H483.695V45.5156H481.695ZM455.602 45.5156V43.5156H453.453L453.607 45.6588L455.602 45.5156ZM478.18 51.1016H480.18V47.4931L477.12 49.4056L478.18 51.1016ZM478.18 60.0078L479.123 61.7711L480.18 61.2058V60.0078H478.18ZM448.727 57.625L447.307 59.0341L447.312 59.0392L448.727 57.625ZM476.891 26.2188L475.417 27.5707L475.422 27.5767L476.891 26.2188ZM470.25 37.9375V39.9375H472.25V37.9375H470.25ZM458.141 31.8047L456.646 30.476L456.64 30.4826L456.634 30.4894L458.141 31.8047ZM455.523 37.9375L453.54 37.6842L453.252 39.9375H455.523V37.9375ZM481.695 45.5156V43.5156H455.602V45.5156V47.5156H481.695V45.5156ZM455.602 45.5156L453.607 45.6588C453.845 48.9736 455.043 51.7329 457.415 53.6154C459.732 55.4542 462.884 56.2266 466.578 56.2266V54.2266V52.2266C463.372 52.2266 461.243 51.5471 459.901 50.4822C458.615 49.4611 457.775 47.865 457.596 45.3725L455.602 45.5156ZM466.578 54.2266V56.2266C471.308 56.2266 475.551 55.1027 479.24 52.7976L478.18 51.1016L477.12 49.4056C474.141 51.2671 470.65 52.2266 466.578 52.2266V54.2266ZM478.18 51.1016H476.18V60.0078H478.18H480.18V51.1016H478.18ZM478.18 60.0078L477.236 58.2445C473.923 60.0177 469.475 60.9766 463.766 60.9766V62.9766V64.9766C469.879 64.9766 475.041 63.9562 479.123 61.7711L478.18 60.0078ZM463.766 62.9766V60.9766C457.682 60.9766 453.236 59.3061 450.141 56.2108L448.727 57.625L447.312 59.0392C451.352 63.0793 456.932 64.9766 463.766 64.9766V62.9766ZM448.727 57.625L450.146 56.2159C447.042 53.0897 445.375 48.6504 445.375 42.625H443.375H441.375C441.375 49.4121 443.275 54.9728 447.307 59.0341L448.727 57.625ZM443.375 42.625H445.375C445.375 36.392 447.17 31.6811 450.575 28.2532L449.156 26.8438L447.737 25.4343C443.434 29.7668 441.375 35.5768 441.375 42.625H443.375ZM449.156 26.8438L450.575 28.2532C454.042 24.7629 458.266 23.0234 463.375 23.0234V21.0234V19.0234C457.234 19.0234 451.979 21.1642 447.737 25.4343L449.156 26.8438ZM463.375 21.0234V23.0234C468.793 23.0234 472.707 24.6161 475.417 27.5707L476.891 26.2188L478.364 24.8668C474.721 20.8943 469.624 19.0234 463.375 19.0234V21.0234ZM476.891 26.2188L475.422 27.5767C478.202 30.5819 479.695 34.7507 479.695 40.3203H481.695H483.695C483.695 34.015 481.986 28.7827 478.359 24.8608L476.891 26.2188ZM481.695 40.3203H479.695V45.5156H481.695H483.695V40.3203H481.695ZM470.25 37.9375H472.25C472.25 34.8552 471.635 32.1727 470.067 30.2342C468.433 28.2147 466.048 27.3438 463.297 27.3438V29.3438V31.3438C465.181 31.3438 466.273 31.9051 466.957 32.7502C467.706 33.6762 468.25 35.2906 468.25 37.9375H470.25ZM463.297 29.3438V27.3438C460.68 27.3438 458.437 28.4604 456.646 30.476L458.141 31.8047L459.635 33.1334C460.76 31.8677 461.955 31.3438 463.297 31.3438V29.3438ZM458.141 31.8047L456.634 30.4894C454.907 32.4675 453.895 34.8969 453.54 37.6842L455.523 37.9375L457.507 38.1908C457.777 36.0822 458.51 34.4232 459.647 33.12L458.141 31.8047ZM455.523 37.9375V39.9375H470.25V37.9375V35.9375H455.523V37.9375ZM515.133 33.1328L514.177 34.8898L517.133 36.4972V33.1328H515.133ZM503.648 34.8906L505.231 36.1141L505.238 36.104L503.648 34.8906ZM501.383 62V64H503.383V62H501.383ZM489.039 62H487.039V64H489.039V62ZM489.039 22V20H487.039V22H489.039ZM501.383 22H503.383V20H501.383V22ZM501.383 29.4219H499.383V31.4219H501.383V29.4219ZM501.539 29.4219V31.4219H502.944L503.421 30.1003L501.539 29.4219ZM515.133 21.7656H517.133V20.4468L515.921 19.9273L515.133 21.7656ZM515.133 33.1328L516.088 31.3758C514.264 30.3837 512.193 29.9219 509.938 29.9219V31.9219V33.9219C511.64 33.9219 513.033 34.2673 514.177 34.8898L515.133 33.1328ZM509.938 31.9219V29.9219C506.687 29.9219 503.98 31.1596 502.059 33.6773L503.648 34.8906L505.238 36.104C506.338 34.6633 507.823 33.9219 509.938 33.9219V31.9219ZM503.648 34.8906L502.066 33.6671C500.2 36.0803 499.383 39.2324 499.383 42.8984H501.383H503.383C503.383 39.7937 504.076 37.6072 505.231 36.1141L503.648 34.8906ZM501.383 42.8984H499.383V62H501.383H503.383V42.8984H501.383ZM501.383 62V60H489.039V62V64H501.383V62ZM489.039 62H491.039V22H489.039H487.039V62H489.039ZM489.039 22V24H501.383V22V20H489.039V22ZM501.383 22H499.383V29.4219H501.383H503.383V22H501.383ZM501.383 29.4219V31.4219H501.539V29.4219V27.4219H501.383V29.4219ZM501.539 29.4219L503.421 30.1003C504.306 27.6456 505.483 25.974 506.861 24.9125C508.22 23.8659 509.922 23.2969 512.086 23.2969V21.2969V19.2969C509.172 19.2969 506.577 20.082 504.42 21.7438C502.282 23.3906 500.726 25.7815 499.658 28.7435L501.539 29.4219ZM512.086 21.2969V23.2969C513.269 23.2969 513.974 23.445 514.345 23.6039L515.133 21.7656L515.921 19.9273C514.833 19.4612 513.507 19.2969 512.086 19.2969V21.2969ZM515.133 21.7656H513.133V33.1328H515.133H517.133V21.7656H515.133ZM562.203 22L564.078 22.6974L565.081 20H562.203V22ZM547.32 62V64H548.71L549.195 62.6974L547.32 62ZM533.258 62L531.373 62.6682L531.845 64H533.258V62ZM519.078 22V20H516.247L517.193 22.6682L519.078 22ZM532.281 22L534.206 21.457L533.795 20H532.281V22ZM539.234 46.6484L541.16 46.1085L541.159 46.1054L539.234 46.6484ZM540.602 53.7578L538.606 53.8909L538.73 55.7578H540.602V53.7578ZM540.758 53.7578V55.7578H542.57L542.748 53.954L540.758 53.7578ZM549.312 22V20H547.804L547.389 21.4506L549.312 22ZM562.203 22L560.329 21.3026L545.446 61.3026L547.32 62L549.195 62.6974L564.078 22.6974L562.203 22ZM547.32 62V60H533.258V62V64H547.32V62ZM533.258 62L535.143 61.3318L520.963 21.3318L519.078 22L517.193 22.6682L531.373 62.6682L533.258 62ZM519.078 22V24H532.281V22V20H519.078V22ZM532.281 22L530.356 22.543L537.31 47.1914L539.234 46.6484L541.159 46.1054L534.206 21.457L532.281 22ZM539.234 46.6484L537.309 47.1884C538.069 49.8987 538.488 52.1238 538.606 53.8909L540.602 53.7578L542.597 53.6248C542.455 51.4856 541.963 48.9711 541.16 46.1085L539.234 46.6484ZM540.602 53.7578V55.7578H540.758V53.7578V51.7578H540.602V53.7578ZM540.758 53.7578L542.748 53.954C542.914 52.2697 543.363 50.105 544.126 47.4323L542.203 46.8828L540.28 46.3334C539.481 49.1294 538.966 51.548 538.767 53.5616L540.758 53.7578ZM542.203 46.8828L544.126 47.4323L551.236 22.5494L549.312 22L547.389 21.4506L540.28 46.3334L542.203 46.8828ZM549.312 22V24H562.203V22V20H549.312V22ZM568.609 13.8359L567.239 15.2923L567.246 15.2995L567.254 15.3066L568.609 13.8359ZM578.844 4.73438L577.506 6.22096L577.513 6.22754L577.521 6.23405L578.844 4.73438ZM578.844 13.875L577.504 12.3899L577.497 12.3965L577.49 12.4031L578.844 13.875ZM579.82 62V64H581.82V62H579.82ZM567.477 62H565.477V64H567.477V62ZM567.477 22V20H565.477V22H567.477ZM579.82 22H581.82V20H579.82V22ZM573.727 15.6719V13.6719C572.063 13.6719 570.867 13.1968 569.965 12.3652L568.609 13.8359L567.254 15.3066C569.008 16.923 571.224 17.6719 573.727 17.6719V15.6719ZM568.609 13.8359L569.98 12.3795C569.047 11.5011 568.617 10.5017 568.617 9.26562H566.617H564.617C564.617 11.6233 565.516 13.6708 567.239 15.2923L568.609 13.8359ZM566.617 9.26562H568.617C568.617 7.96184 569.056 7.00771 569.933 6.23405L568.609 4.73438L567.286 3.2347C565.507 4.80479 564.617 6.87149 564.617 9.26562H566.617ZM568.609 4.73438L569.933 6.23405C570.833 5.43997 572.04 4.97656 573.727 4.97656V2.97656V0.976562C571.247 0.976562 569.042 1.68503 567.286 3.2347L568.609 4.73438ZM573.727 2.97656V4.97656C575.448 4.97656 576.643 5.44434 577.506 6.22096L578.844 4.73438L580.182 3.24779C578.44 1.68066 576.224 0.976562 573.727 0.976562V2.97656ZM578.844 4.73438L577.521 6.23405C578.397 7.00771 578.836 7.96184 578.836 9.26562H580.836H582.836C582.836 6.87149 581.946 4.80479 580.167 3.2347L578.844 4.73438ZM580.836 9.26562H578.836C578.836 10.6054 578.389 11.5914 577.504 12.3899L578.844 13.875L580.183 15.3601C581.954 13.7627 582.836 11.6759 582.836 9.26562H580.836ZM578.844 13.875L577.49 12.4031C576.626 13.1981 575.436 13.6719 573.727 13.6719V15.6719V17.6719C576.235 17.6719 578.458 16.9477 580.198 15.3469L578.844 13.875ZM579.82 62V60H567.477V62V64H579.82V62ZM567.477 62H569.477V22H567.477H565.477V62H567.477ZM567.477 22V24H579.82V22V20H567.477V22ZM579.82 22H577.82V62H579.82H581.82V22H579.82ZM626.148 45.5156V47.5156H628.148V45.5156H626.148ZM600.055 45.5156V43.5156H597.906L598.06 45.6588L600.055 45.5156ZM622.633 51.1016H624.633V47.4931L621.573 49.4056L622.633 51.1016ZM622.633 60.0078L623.577 61.7711L624.633 61.2058V60.0078H622.633ZM593.18 57.625L591.76 59.0341L591.766 59.0392L593.18 57.625ZM621.344 26.2188L619.87 27.5707L619.875 27.5767L621.344 26.2188ZM614.703 37.9375V39.9375H616.703V37.9375H614.703ZM602.594 31.8047L601.099 30.476L601.093 30.4826L601.087 30.4894L602.594 31.8047ZM599.977 37.9375L597.993 37.6842L597.705 39.9375H599.977V37.9375ZM626.148 45.5156V43.5156H600.055V45.5156V47.5156H626.148V45.5156ZM600.055 45.5156L598.06 45.6588C598.298 48.9736 599.496 51.7329 601.868 53.6154C604.185 55.4542 607.337 56.2266 611.031 56.2266V54.2266V52.2266C607.825 52.2266 605.696 51.5471 604.355 50.4822C603.068 49.4611 602.228 47.865 602.05 45.3725L600.055 45.5156ZM611.031 54.2266V56.2266C615.761 56.2266 620.005 55.1027 623.693 52.7976L622.633 51.1016L621.573 49.4056C618.594 51.2671 615.104 52.2266 611.031 52.2266V54.2266ZM622.633 51.1016H620.633V60.0078H622.633H624.633V51.1016H622.633ZM622.633 60.0078L621.689 58.2445C618.376 60.0177 613.928 60.9766 608.219 60.9766V62.9766V64.9766C614.333 64.9766 619.494 63.9562 623.577 61.7711L622.633 60.0078ZM608.219 62.9766V60.9766C602.135 60.9766 597.689 59.3061 594.594 56.2108L593.18 57.625L591.766 59.0392C595.806 63.0793 601.386 64.9766 608.219 64.9766V62.9766ZM593.18 57.625L594.599 56.2159C591.495 53.0897 589.828 48.6504 589.828 42.625H587.828H585.828C585.828 49.4121 587.729 54.9728 591.76 59.0341L593.18 57.625ZM587.828 42.625H589.828C589.828 36.392 591.623 31.6811 595.028 28.2532L593.609 26.8438L592.19 25.4343C587.887 29.7668 585.828 35.5768 585.828 42.625H587.828ZM593.609 26.8438L595.028 28.2532C598.495 24.7629 602.719 23.0234 607.828 23.0234V21.0234V19.0234C601.687 19.0234 596.432 21.1642 592.19 25.4343L593.609 26.8438ZM607.828 21.0234V23.0234C613.246 23.0234 617.16 24.6161 619.87 27.5707L621.344 26.2188L622.818 24.8668C619.174 20.8943 614.077 19.0234 607.828 19.0234V21.0234ZM621.344 26.2188L619.875 27.5767C622.655 30.5819 624.148 34.7507 624.148 40.3203H626.148H628.148C628.148 34.015 626.439 28.7827 622.812 24.8608L621.344 26.2188ZM626.148 40.3203H624.148V45.5156H626.148H628.148V40.3203H626.148ZM614.703 37.9375H616.703C616.703 34.8552 616.088 32.1727 614.52 30.2342C612.886 28.2147 610.501 27.3438 607.75 27.3438V29.3438V31.3438C609.634 31.3438 610.726 31.9051 611.41 32.7502C612.159 33.6762 612.703 35.2906 612.703 37.9375H614.703ZM607.75 29.3438V27.3438C605.133 27.3438 602.891 28.4604 601.099 30.476L602.594 31.8047L604.089 33.1334C605.214 31.8677 606.408 31.3438 607.75 31.3438V29.3438ZM602.594 31.8047L601.087 30.4894C599.36 32.4675 598.349 34.8969 597.993 37.6842L599.977 37.9375L601.96 38.1908C602.23 36.0822 602.963 34.4232 604.1 33.12L602.594 31.8047ZM599.977 37.9375V39.9375H614.703V37.9375V35.9375H599.977V37.9375ZM691.422 22L693.344 22.5537L694.079 20H691.422V22ZM679.898 62V64H681.404L681.82 62.5537L679.898 62ZM666.93 62L664.99 62.4881L665.371 64H666.93V62ZM661.031 38.5625L659.091 39.0476L659.092 39.0506L661.031 38.5625ZM660.367 33.4453L662.366 33.389L662.312 31.4453H660.367V33.4453ZM660.133 33.4453V31.4453H658.304L658.141 33.2665L660.133 33.4453ZM659.352 38.4062L661.283 38.9244L661.285 38.9191L659.352 38.4062ZM653.023 62V64H654.558L654.955 62.5181L653.023 62ZM640.211 62L638.286 62.5432L638.697 64H640.211V62ZM628.922 22V20H626.279L626.997 22.5432L628.922 22ZM641.5 22L643.457 21.5869L643.122 20H641.5V22ZM647.008 48.0938L645.051 48.5068L645.052 48.51L647.008 48.0938ZM647.594 52.5469L645.599 52.6957L645.737 54.5469H647.594V52.5469ZM647.828 52.5469V54.5469H649.69L649.823 52.6894L647.828 52.5469ZM648.531 47.9375L650.462 48.4603L650.464 48.4499L648.531 47.9375ZM655.406 22V20H653.867L653.473 21.4876L655.406 22ZM667.164 22L669.11 21.5396L668.746 20H667.164V22ZM673.336 48.0938L671.39 48.5541L671.391 48.5605L673.336 48.0938ZM673.883 52.625L671.891 52.8001L672.051 54.625H673.883V52.625ZM674.156 52.625V54.625H675.991L676.149 52.7968L674.156 52.625ZM674.781 48.0938L672.82 47.7032L672.818 47.7121L672.816 47.7211L674.781 48.0938ZM679.977 22V20H678.336L678.015 21.6095L679.977 22ZM691.422 22L689.5 21.4463L677.977 61.4463L679.898 62L681.82 62.5537L693.344 22.5537L691.422 22ZM679.898 62V60H666.93V62V64H679.898V62ZM666.93 62L668.869 61.5119L662.971 38.0744L661.031 38.5625L659.092 39.0506L664.99 62.4881L666.93 62ZM661.031 38.5625L662.972 38.0774C662.621 36.6742 662.415 35.1142 662.366 33.389L660.367 33.4453L658.368 33.5016C658.424 35.4744 658.661 37.3258 659.091 39.0476L661.031 38.5625ZM660.367 33.4453V31.4453H660.133V33.4453V35.4453H660.367V33.4453ZM660.133 33.4453L658.141 33.2665C657.964 35.2387 657.717 36.7689 657.418 37.8934L659.352 38.4062L661.285 38.9191C661.663 37.4915 661.937 35.7144 662.125 33.6241L660.133 33.4453ZM659.352 38.4062L657.42 37.8881L651.092 61.4819L653.023 62L654.955 62.5181L661.283 38.9244L659.352 38.4062ZM653.023 62V60H640.211V62V64H653.023V62ZM640.211 62L642.136 61.4568L630.847 21.4568L628.922 22L626.997 22.5432L638.286 62.5432L640.211 62ZM628.922 22V24H641.5V22V20H628.922V22ZM641.5 22L639.543 22.4131L645.051 48.5068L647.008 48.0938L648.965 47.6807L643.457 21.5869L641.5 22ZM647.008 48.0938L645.052 48.51C645.288 49.6188 645.473 51.0084 645.599 52.6957L647.594 52.5469L649.588 52.398C649.454 50.5958 649.249 49.0166 648.964 47.6775L647.008 48.0938ZM647.594 52.5469V54.5469H647.828V52.5469V50.5469H647.594V52.5469ZM647.828 52.5469L649.823 52.6894C649.948 50.9471 650.167 49.5468 650.462 48.4603L648.531 47.9375L646.601 47.4147C646.218 48.8282 645.969 50.5008 645.833 52.4044L647.828 52.5469ZM648.531 47.9375L650.464 48.4499L657.339 22.5124L655.406 22L653.473 21.4876L646.598 47.4251L648.531 47.9375ZM655.406 22V24H667.164V22V20H655.406V22ZM667.164 22L665.218 22.4604L671.39 48.5541L673.336 48.0938L675.282 47.6334L669.11 21.5396L667.164 22ZM673.336 48.0938L671.391 48.5605C671.506 49.038 671.678 50.3871 671.891 52.8001L673.883 52.625L675.875 52.4499C675.671 50.1233 675.479 48.4516 675.281 47.627L673.336 48.0938ZM673.883 52.625V54.625H674.156V52.625V50.625H673.883V52.625ZM674.156 52.625L676.149 52.7968C676.273 51.3547 676.472 49.9113 676.746 48.4664L674.781 48.0938L672.816 47.7211C672.517 49.297 672.3 50.8745 672.164 52.4532L674.156 52.625ZM674.781 48.0938L676.743 48.4843L681.938 22.3905L679.977 22L678.015 21.6095L672.82 47.7032L674.781 48.0938ZM679.977 22V24H691.422V22V20H679.977V22Z" fill="url(#paint0_linear_3279_11801)" mask="url(#path-1-outside-1_3279_11801)"/>
<defs>
<linearGradient id="paint0_linear_3279_11801" x1="350.516" y1="-38" x2="350.42" y2="95" gradientUnits="userSpaceOnUse">
<stop offset="0.427887" stop-color="#E1ECF3"/>
<stop offset="0.858273" stop-color="white"/>
</linearGradient>
</defs>
</svg>
