<svg width="30" height="30" viewBox="0 0 30 30" fill="none" xmlns="http://www.w3.org/2000/svg">
<g clip-path="url(#clip0_3279_11795)">
<path fill-rule="evenodd" clip-rule="evenodd" d="M3.37249 1.92428C3.37249 1.49804 3.20317 1.08926 2.90177 0.78786C2.60037 0.486462 2.19159 0.317139 1.76535 0.317139C1.33911 0.317139 0.930322 0.486462 0.628924 0.78786C0.327527 1.08926 0.158203 1.49804 0.158203 1.92428V28.0757C0.158203 28.9629 0.878203 29.6829 1.76535 29.6829H27.9168C28.343 29.6829 28.7518 29.5135 29.0532 29.2121C29.3546 28.9107 29.5239 28.502 29.5239 28.0757C29.5239 27.6495 29.3546 27.2407 29.0532 26.9393C28.7518 26.6379 28.343 26.4686 27.9168 26.4686H3.37035L3.37249 1.92428ZM21.9018 5.20928C21.6679 5.04254 21.403 4.92449 21.1226 4.86217C20.8423 4.79985 20.5523 4.79451 20.2698 4.84649C19.9874 4.89846 19.7183 5.00668 19.4785 5.16471C19.2387 5.32274 19.0331 5.52737 18.8739 5.76642L12.2782 15.6579L9.0982 12.4779C8.89911 12.2786 8.66272 12.1205 8.40254 12.0127C8.14236 11.9048 7.86348 11.8492 7.58182 11.8491C7.30016 11.849 7.02124 11.9044 6.76098 12.0121C6.50072 12.1198 6.26422 12.2777 6.06499 12.4768C5.86575 12.6759 5.70769 12.9123 5.59981 13.1724C5.49193 13.4326 5.43635 13.7115 5.43625 13.9932C5.43615 14.2748 5.49153 14.5537 5.59923 14.814C5.70692 15.0743 5.86482 15.3108 6.06392 15.51L11.0932 20.5371C11.3173 20.7617 11.5885 20.9337 11.8872 21.0407C12.1859 21.1477 12.5046 21.187 12.8203 21.1558C13.1361 21.1247 13.441 21.0238 13.713 20.8605C13.985 20.6971 14.2173 20.4755 14.3932 20.2114L21.2096 9.98357L26.4511 13.7271C26.9137 14.0573 27.4885 14.1902 28.0491 14.0966C28.6097 14.003 29.1102 13.6905 29.4403 13.2279C29.7705 12.7652 29.9034 12.1904 29.8098 11.6298C29.7162 11.0692 29.4037 10.5688 28.9411 10.2386L21.9018 5.20928Z" fill="#2AB673"/>
</g>
<defs>
<clipPath id="clip0_3279_11795">
<rect width="30" height="30" fill="white"/>
</clipPath>
</defs>
</svg>
