<svg width="1066" height="83" viewBox="0 0 1066 83" fill="none" xmlns="http://www.w3.org/2000/svg">
<mask id="path-1-outside-1_3102_13540" maskUnits="userSpaceOnUse" x="0" y="0" width="1067" height="83" fill="black">
<rect fill="white" width="1067" height="83"/>
<path d="M46.7422 16.2578H30.7656V62H18.1094V16.2578H2.21094V5.98438H46.7422V16.2578ZM91.4688 62H79.1641V39.2656C79.1641 33.4062 77.0286 30.4766 72.7578 30.4766C70.5703 30.4766 68.7995 31.2969 67.4453 32.9375C66.0911 34.5781 65.4141 36.6615 65.4141 39.1875V62H53.0703V2.78125H65.4141V27.9375H65.5703C68.5911 23.3281 72.6927 21.0234 77.875 21.0234C86.9375 21.0234 91.4688 26.4922 91.4688 37.4297V62ZM137.211 45.5156H111.117C111.534 51.3229 115.193 54.2266 122.094 54.2266C126.495 54.2266 130.362 53.1849 133.695 51.1016V60.0078C129.997 61.987 125.193 62.9766 119.281 62.9766C112.823 62.9766 107.81 61.1927 104.242 57.625C100.674 54.0312 98.8906 49.0312 98.8906 42.625C98.8906 35.9844 100.818 30.724 104.672 26.8438C108.526 22.9635 113.266 21.0234 118.891 21.0234C124.724 21.0234 129.229 22.7552 132.406 26.2188C135.609 29.6823 137.211 34.3828 137.211 40.3203V45.5156ZM125.766 37.9375C125.766 32.2083 123.448 29.3438 118.812 29.3438C116.833 29.3438 115.115 30.1641 113.656 31.8047C112.224 33.4453 111.352 35.4896 111.039 37.9375H125.766ZM208.031 60.0078C203.943 61.987 198.604 62.9766 192.016 62.9766C183.422 62.9766 176.664 60.4505 171.742 55.3984C166.82 50.3464 164.359 43.6146 164.359 35.2031C164.359 26.2448 167.12 18.9792 172.641 13.4062C178.188 7.83333 185.375 5.04688 194.203 5.04688C199.672 5.04688 204.281 5.73698 208.031 7.11719V19.2656C204.281 17.026 200.01 15.9062 195.219 15.9062C189.958 15.9062 185.714 17.5599 182.484 20.8672C179.255 24.1745 177.641 28.6536 177.641 34.3047C177.641 39.7214 179.164 44.0443 182.211 47.2734C185.258 50.4766 189.359 52.0781 194.516 52.0781C199.438 52.0781 203.943 50.8802 208.031 48.4844V60.0078ZM254.984 62H242.68V39.2656C242.68 33.4062 240.544 30.4766 236.273 30.4766C234.086 30.4766 232.315 31.2969 230.961 32.9375C229.607 34.5781 228.93 36.6615 228.93 39.1875V62H216.586V2.78125H228.93V27.9375H229.086C232.107 23.3281 236.208 21.0234 241.391 21.0234C250.453 21.0234 254.984 26.4922 254.984 37.4297V62ZM298.07 62H286.391V56.2578H286.234C283.552 60.737 279.581 62.9766 274.32 62.9766C270.44 62.9766 267.38 61.8828 265.141 59.6953C262.927 57.4818 261.82 54.5391 261.82 50.8672C261.82 43.1068 266.417 38.6276 275.609 37.4297L286.469 35.9844C286.469 31.6094 284.099 29.4219 279.359 29.4219C274.594 29.4219 270.062 30.8411 265.766 33.6797V24.3828C267.484 23.4974 269.828 22.7161 272.797 22.0391C275.792 21.362 278.513 21.0234 280.961 21.0234C292.367 21.0234 298.07 26.7135 298.07 38.0938V62ZM286.469 45.75V43.0547L279.203 43.9922C275.193 44.513 273.188 46.3229 273.188 49.4219C273.188 50.8281 273.669 51.987 274.633 52.8984C275.622 53.7839 276.951 54.2266 278.617 54.2266C280.935 54.2266 282.823 53.4323 284.281 51.8438C285.74 50.2292 286.469 48.1979 286.469 45.75ZM320.18 62H307.836V2.78125H320.18V62ZM342.914 62H330.57V2.78125H342.914V62ZM389.242 45.5156H363.148C363.565 51.3229 367.224 54.2266 374.125 54.2266C378.526 54.2266 382.393 53.1849 385.727 51.1016V60.0078C382.029 61.987 377.224 62.9766 371.312 62.9766C364.854 62.9766 359.841 61.1927 356.273 57.625C352.706 54.0312 350.922 49.0312 350.922 42.625C350.922 35.9844 352.849 30.724 356.703 26.8438C360.557 22.9635 365.297 21.0234 370.922 21.0234C376.755 21.0234 381.26 22.7552 384.438 26.2188C387.641 29.6823 389.242 34.3828 389.242 40.3203V45.5156ZM377.797 37.9375C377.797 32.2083 375.479 29.3438 370.844 29.3438C368.865 29.3438 367.146 30.1641 365.688 31.8047C364.255 33.4453 363.383 35.4896 363.07 37.9375H377.797ZM435.219 62H422.914V39.7734C422.914 33.5755 420.701 30.4766 416.273 30.4766C414.138 30.4766 412.38 31.2969 411 32.9375C409.62 34.5781 408.93 36.6615 408.93 39.1875V62H396.586V22H408.93V28.3281H409.086C412.029 23.4583 416.312 21.0234 421.938 21.0234C430.792 21.0234 435.219 26.5182 435.219 37.5078V62ZM484.242 57.4297C484.242 64.8516 482.094 70.5938 477.797 74.6562C473.5 78.7448 467.276 80.7891 459.125 80.7891C453.734 80.7891 449.464 80.0208 446.312 78.4844V68.0938C450.427 70.4896 454.581 71.6875 458.773 71.6875C462.94 71.6875 466.169 70.5807 468.461 68.3672C470.753 66.1797 471.898 63.1979 471.898 59.4219V56.2578H471.742C468.93 60.737 464.776 62.9766 459.281 62.9766C454.177 62.9766 450.128 61.1797 447.133 57.5859C444.138 53.9922 442.641 49.1745 442.641 43.1328C442.641 36.362 444.307 30.9844 447.641 27C450.974 23.0156 455.362 21.0234 460.805 21.0234C465.674 21.0234 469.32 22.8984 471.742 26.6484H471.898V22H484.242V57.4297ZM472.055 42.7812V39.6172C472.055 37.0911 471.299 34.9427 469.789 33.1719C468.305 31.375 466.365 30.4766 463.969 30.4766C461.234 30.4766 459.086 31.5443 457.523 33.6797C455.961 35.8151 455.18 38.8229 455.18 42.7031C455.18 46.0365 455.922 48.6797 457.406 50.6328C458.891 52.5599 460.922 53.5234 463.5 53.5234C466.052 53.5234 468.109 52.5469 469.672 50.5938C471.26 48.6146 472.055 46.0104 472.055 42.7812ZM530.492 45.5156H504.398C504.815 51.3229 508.474 54.2266 515.375 54.2266C519.776 54.2266 523.643 53.1849 526.977 51.1016V60.0078C523.279 61.987 518.474 62.9766 512.562 62.9766C506.104 62.9766 501.091 61.1927 497.523 57.625C493.956 54.0312 492.172 49.0312 492.172 42.625C492.172 35.9844 494.099 30.724 497.953 26.8438C501.807 22.9635 506.547 21.0234 512.172 21.0234C518.005 21.0234 522.51 22.7552 525.688 26.2188C528.891 29.6823 530.492 34.3828 530.492 40.3203V45.5156ZM519.047 37.9375C519.047 32.2083 516.729 29.3438 512.094 29.3438C510.115 29.3438 508.396 30.1641 506.938 31.8047C505.505 33.4453 504.633 35.4896 504.32 37.9375H519.047ZM634.438 5.98438L619.633 62H605.648L596.352 26.0625C595.857 24.1875 595.557 22.0911 595.453 19.7734H595.297C595.062 22.3255 594.724 24.4219 594.281 26.0625L584.75 62H570.18L555.453 5.98438H569.242L577.133 43.2891C577.471 44.8776 577.719 47.013 577.875 49.6953H578.109C578.214 47.6901 578.591 45.5026 579.242 43.1328L589.398 5.98438H602.914L612.094 43.6016C612.432 44.9818 612.732 46.987 612.992 49.6172H613.148C613.253 47.5599 613.526 45.4766 613.969 43.3672L621.703 5.98438H634.438ZM674.086 45.5156H647.992C648.409 51.3229 652.068 54.2266 658.969 54.2266C663.37 54.2266 667.237 53.1849 670.57 51.1016V60.0078C666.872 61.987 662.068 62.9766 656.156 62.9766C649.698 62.9766 644.685 61.1927 641.117 57.625C637.549 54.0312 635.766 49.0312 635.766 42.625C635.766 35.9844 637.693 30.724 641.547 26.8438C645.401 22.9635 650.141 21.0234 655.766 21.0234C661.599 21.0234 666.104 22.7552 669.281 26.2188C672.484 29.6823 674.086 34.3828 674.086 40.3203V45.5156ZM662.641 37.9375C662.641 32.2083 660.323 29.3438 655.688 29.3438C653.708 29.3438 651.99 30.1641 650.531 31.8047C649.099 33.4453 648.227 35.4896 647.914 37.9375H662.641ZM687.406 5.28125L686.195 22.5469H678.383L677.25 5.28125H687.406ZM722.914 33.1328C721.43 32.3255 719.698 31.9219 717.719 31.9219C715.036 31.9219 712.94 32.9115 711.43 34.8906C709.919 36.8438 709.164 39.513 709.164 42.8984V62H696.82V22H709.164V29.4219H709.32C711.273 24.0052 714.789 21.2969 719.867 21.2969C721.169 21.2969 722.185 21.4531 722.914 21.7656V33.1328ZM764.32 45.5156H738.227C738.643 51.3229 742.302 54.2266 749.203 54.2266C753.604 54.2266 757.471 53.1849 760.805 51.1016V60.0078C757.107 61.987 752.302 62.9766 746.391 62.9766C739.932 62.9766 734.919 61.1927 731.352 57.625C727.784 54.0312 726 49.0312 726 42.625C726 35.9844 727.927 30.724 731.781 26.8438C735.635 22.9635 740.375 21.0234 746 21.0234C751.833 21.0234 756.339 22.7552 759.516 26.2188C762.719 29.6823 764.32 34.3828 764.32 40.3203V45.5156ZM752.875 37.9375C752.875 32.2083 750.557 29.3438 745.922 29.3438C743.943 29.3438 742.224 30.1641 740.766 31.8047C739.333 33.4453 738.461 35.4896 738.148 37.9375H752.875ZM792.406 59.8516V47.3516C794.672 49.2526 797.133 50.6849 799.789 51.6484C802.445 52.5859 805.128 53.0547 807.836 53.0547C809.424 53.0547 810.805 52.9115 811.977 52.625C813.174 52.3385 814.164 51.9479 814.945 51.4531C815.753 50.9323 816.352 50.3333 816.742 49.6562C817.133 48.9531 817.328 48.1979 817.328 47.3906C817.328 46.2969 817.016 45.3203 816.391 44.4609C815.766 43.6016 814.906 42.8073 813.812 42.0781C812.745 41.349 811.469 40.6458 809.984 39.9688C808.5 39.2917 806.898 38.6016 805.18 37.8984C800.805 36.0755 797.536 33.849 795.375 31.2188C793.24 28.5885 792.172 25.4115 792.172 21.6875C792.172 18.7708 792.758 16.2708 793.93 14.1875C795.102 12.0781 796.69 10.3464 798.695 8.99219C800.727 7.63802 803.07 6.64844 805.727 6.02344C808.383 5.3724 811.195 5.04688 814.164 5.04688C817.081 5.04688 819.659 5.22917 821.898 5.59375C824.164 5.93229 826.247 6.46615 828.148 7.19531V18.875C827.211 18.224 826.182 17.651 825.062 17.1562C823.969 16.6615 822.836 16.2578 821.664 15.9453C820.492 15.6068 819.32 15.3594 818.148 15.2031C817.003 15.0469 815.909 14.9688 814.867 14.9688C813.435 14.9688 812.133 15.112 810.961 15.3984C809.789 15.6589 808.799 16.0365 807.992 16.5312C807.185 17.026 806.56 17.625 806.117 18.3281C805.674 19.0052 805.453 19.7734 805.453 20.6328C805.453 21.5703 805.701 22.4167 806.195 23.1719C806.69 23.901 807.393 24.6042 808.305 25.2812C809.216 25.9323 810.323 26.5833 811.625 27.2344C812.927 27.8594 814.398 28.5104 816.039 29.1875C818.279 30.125 820.284 31.1276 822.055 32.1953C823.852 33.237 825.388 34.4219 826.664 35.75C827.94 37.0781 828.917 38.6016 829.594 40.3203C830.271 42.013 830.609 43.9922 830.609 46.2578C830.609 49.3828 830.01 52.013 828.812 54.1484C827.641 56.2578 826.039 57.9766 824.008 59.3047C821.977 60.6068 819.607 61.5443 816.898 62.1172C814.216 62.6901 811.378 62.9766 808.383 62.9766C805.31 62.9766 802.38 62.7161 799.594 62.1953C796.833 61.6745 794.438 60.8932 792.406 59.8516ZM857.68 62.9766C851.013 62.9766 845.766 61.1146 841.938 57.3906C838.135 53.6406 836.234 48.5625 836.234 42.1562C836.234 35.5417 838.214 30.3724 842.172 26.6484C846.13 22.8984 851.482 21.0234 858.227 21.0234C864.867 21.0234 870.076 22.8984 873.852 26.6484C877.628 30.3724 879.516 35.3073 879.516 41.4531C879.516 48.0938 877.562 53.3411 873.656 57.1953C869.776 61.0495 864.451 62.9766 857.68 62.9766ZM857.992 30.4766C855.076 30.4766 852.81 31.4792 851.195 33.4844C849.581 35.4896 848.773 38.3281 848.773 42C848.773 49.6823 851.872 53.5234 858.07 53.5234C863.982 53.5234 866.938 49.5781 866.938 41.6875C866.938 34.2135 863.956 30.4766 857.992 30.4766ZM899.867 62H887.523V2.78125H899.867V62ZM948.344 22L933.461 62H919.398L905.219 22H918.422L925.375 46.6484C926.156 49.4349 926.612 51.8047 926.742 53.7578H926.898C927.081 51.9089 927.562 49.6172 928.344 46.8828L935.453 22H948.344ZM959.867 15.6719C957.784 15.6719 956.078 15.0599 954.75 13.8359C953.422 12.5859 952.758 11.0625 952.758 9.26562C952.758 7.41667 953.422 5.90625 954.75 4.73438C956.078 3.5625 957.784 2.97656 959.867 2.97656C961.977 2.97656 963.682 3.5625 964.984 4.73438C966.312 5.90625 966.977 7.41667 966.977 9.26562C966.977 11.1406 966.312 12.6771 964.984 13.875C963.682 15.0729 961.977 15.6719 959.867 15.6719ZM965.961 62H953.617V22H965.961V62ZM1014.98 62H1002.68V39.7734C1002.68 33.5755 1000.47 30.4766 996.039 30.4766C993.904 30.4766 992.146 31.2969 990.766 32.9375C989.385 34.5781 988.695 36.6615 988.695 39.1875V62H976.352V22H988.695V28.3281H988.852C991.794 23.4583 996.078 21.0234 1001.7 21.0234C1010.56 21.0234 1014.98 26.5182 1014.98 37.5078V62ZM1064.01 57.4297C1064.01 64.8516 1061.86 70.5938 1057.56 74.6562C1053.27 78.7448 1047.04 80.7891 1038.89 80.7891C1033.5 80.7891 1029.23 80.0208 1026.08 78.4844V68.0938C1030.19 70.4896 1034.35 71.6875 1038.54 71.6875C1042.71 71.6875 1045.93 70.5807 1048.23 68.3672C1050.52 66.1797 1051.66 63.1979 1051.66 59.4219V56.2578H1051.51C1048.7 60.737 1044.54 62.9766 1039.05 62.9766C1033.94 62.9766 1029.89 61.1797 1026.9 57.5859C1023.9 53.9922 1022.41 49.1745 1022.41 43.1328C1022.41 36.362 1024.07 30.9844 1027.41 27C1030.74 23.0156 1035.13 21.0234 1040.57 21.0234C1045.44 21.0234 1049.09 22.8984 1051.51 26.6484H1051.66V22H1064.01V57.4297ZM1051.82 42.7812V39.6172C1051.82 37.0911 1051.07 34.9427 1049.55 33.1719C1048.07 31.375 1046.13 30.4766 1043.73 30.4766C1041 30.4766 1038.85 31.5443 1037.29 33.6797C1035.73 35.8151 1034.95 38.8229 1034.95 42.7031C1034.95 46.0365 1035.69 48.6797 1037.17 50.6328C1038.66 52.5599 1040.69 53.5234 1043.27 53.5234C1045.82 53.5234 1047.88 52.5469 1049.44 50.5938C1051.03 48.6146 1051.82 46.0104 1051.82 42.7812Z"/>
</mask>
<path d="M46.7422 16.2578V18.2578H48.7422V16.2578H46.7422ZM30.7656 16.2578V14.2578H28.7656V16.2578H30.7656ZM30.7656 62V64H32.7656V62H30.7656ZM18.1094 62H16.1094V64H18.1094V62ZM18.1094 16.2578H20.1094V14.2578H18.1094V16.2578ZM2.21094 16.2578H0.210938V18.2578H2.21094V16.2578ZM2.21094 5.98438V3.98438H0.210938V5.98438H2.21094ZM46.7422 5.98438H48.7422V3.98438H46.7422V5.98438ZM46.7422 16.2578V14.2578H30.7656V16.2578V18.2578H46.7422V16.2578ZM30.7656 16.2578H28.7656V62H30.7656H32.7656V16.2578H30.7656ZM30.7656 62V60H18.1094V62V64H30.7656V62ZM18.1094 62H20.1094V16.2578H18.1094H16.1094V62H18.1094ZM18.1094 16.2578V14.2578H2.21094V16.2578V18.2578H18.1094V16.2578ZM2.21094 16.2578H4.21094V5.98438H2.21094H0.210938V16.2578H2.21094ZM2.21094 5.98438V7.98438H46.7422V5.98438V3.98438H2.21094V5.98438ZM46.7422 5.98438H44.7422V16.2578H46.7422H48.7422V5.98438H46.7422ZM91.4688 62V64H93.4688V62H91.4688ZM79.1641 62H77.1641V64H79.1641V62ZM67.4453 32.9375L68.9878 34.2106L67.4453 32.9375ZM65.4141 62V64H67.4141V62H65.4141ZM53.0703 62H51.0703V64H53.0703V62ZM53.0703 2.78125V0.78125H51.0703V2.78125H53.0703ZM65.4141 2.78125H67.4141V0.78125H65.4141V2.78125ZM65.4141 27.9375H63.4141V29.9375H65.4141V27.9375ZM65.5703 27.9375V29.9375H66.6508L67.2431 29.0338L65.5703 27.9375ZM91.4688 62V60H79.1641V62V64H91.4688V62ZM79.1641 62H81.1641V39.2656H79.1641H77.1641V62H79.1641ZM79.1641 39.2656H81.1641C81.1641 36.1523 80.6074 33.4558 79.1787 31.4958C77.6644 29.4181 75.403 28.4766 72.7578 28.4766V30.4766V32.4766C74.3834 32.4766 75.3252 32.9998 75.9463 33.8519C76.6531 34.8216 77.1641 36.5195 77.1641 39.2656H79.1641ZM72.7578 30.4766V28.4766C69.993 28.4766 67.6492 29.5486 65.9029 31.6644L67.4453 32.9375L68.9878 34.2106C69.9497 33.0452 71.1476 32.4766 72.7578 32.4766V30.4766ZM67.4453 32.9375L65.9029 31.6644C64.1998 33.7277 63.4141 36.2878 63.4141 39.1875H65.4141H67.4141C67.4141 37.0351 67.9825 35.4285 68.9878 34.2106L67.4453 32.9375ZM65.4141 39.1875H63.4141V62H65.4141H67.4141V39.1875H65.4141ZM65.4141 62V60H53.0703V62V64H65.4141V62ZM53.0703 62H55.0703V2.78125H53.0703H51.0703V62H53.0703ZM53.0703 2.78125V4.78125H65.4141V2.78125V0.78125H53.0703V2.78125ZM65.4141 2.78125H63.4141V27.9375H65.4141H67.4141V2.78125H65.4141ZM65.4141 27.9375V29.9375H65.5703V27.9375V25.9375H65.4141V27.9375ZM65.5703 27.9375L67.2431 29.0338C69.9223 24.9456 73.4165 23.0234 77.875 23.0234V21.0234V19.0234C71.9689 19.0234 67.26 21.7106 63.8975 26.8412L65.5703 27.9375ZM77.875 21.0234V23.0234C81.9886 23.0234 84.7451 24.2466 86.5303 26.401C88.3751 28.6275 89.4688 32.1873 89.4688 37.4297H91.4688H93.4688C93.4688 31.7346 92.2968 27.0912 89.6104 23.849C86.8642 20.5347 82.8239 19.0234 77.875 19.0234V21.0234ZM91.4688 37.4297H89.4688V62H91.4688H93.4688V37.4297H91.4688ZM137.211 45.5156V47.5156H139.211V45.5156H137.211ZM111.117 45.5156V43.5156H108.969L109.122 45.6588L111.117 45.5156ZM133.695 51.1016H135.695V47.4931L132.635 49.4056L133.695 51.1016ZM133.695 60.0078L134.639 61.7711L135.695 61.2058V60.0078H133.695ZM104.242 57.625L102.823 59.0341L102.828 59.0392L104.242 57.625ZM104.672 26.8438L103.253 25.4343L104.672 26.8438ZM132.406 26.2188L130.932 27.5707L130.938 27.5767L132.406 26.2188ZM125.766 37.9375V39.9375H127.766V37.9375H125.766ZM113.656 31.8047L112.161 30.476L112.155 30.4826L112.15 30.4894L113.656 31.8047ZM111.039 37.9375L109.055 37.6842L108.768 39.9375H111.039V37.9375ZM137.211 45.5156V43.5156H111.117V45.5156V47.5156H137.211V45.5156ZM111.117 45.5156L109.122 45.6588C109.36 48.9736 110.558 51.7329 112.931 53.6154C115.248 55.4542 118.399 56.2266 122.094 56.2266V54.2266V52.2266C118.887 52.2266 116.759 51.5471 115.417 50.4822C114.13 49.4611 113.291 47.865 113.112 45.3725L111.117 45.5156ZM122.094 54.2266V56.2266C126.823 56.2266 131.067 55.1027 134.755 52.7976L133.695 51.1016L132.635 49.4056C129.657 51.2671 126.166 52.2266 122.094 52.2266V54.2266ZM133.695 51.1016H131.695V60.0078H133.695H135.695V51.1016H133.695ZM133.695 60.0078L132.752 58.2445C129.438 60.0177 124.99 60.9766 119.281 60.9766V62.9766V64.9766C125.395 64.9766 130.556 63.9562 134.639 61.7711L133.695 60.0078ZM119.281 62.9766V60.9766C113.198 60.9766 108.752 59.3061 105.656 56.2108L104.242 57.625L102.828 59.0392C106.868 63.0793 112.448 64.9766 119.281 64.9766V62.9766ZM104.242 57.625L105.662 56.2159C102.558 53.0897 100.891 48.6504 100.891 42.625H98.8906H96.8906C96.8906 49.4121 98.791 54.9728 102.823 59.0341L104.242 57.625ZM98.8906 42.625H100.891C100.891 36.392 102.686 31.6811 106.091 28.2532L104.672 26.8438L103.253 25.4343C98.9495 29.7668 96.8906 35.5768 96.8906 42.625H98.8906ZM104.672 26.8438L106.091 28.2532C109.558 24.7629 113.781 23.0234 118.891 23.0234V21.0234V19.0234C112.75 19.0234 107.494 21.1642 103.253 25.4343L104.672 26.8438ZM118.891 21.0234V23.0234C124.309 23.0234 128.222 24.6161 130.932 27.5707L132.406 26.2188L133.88 24.8668C130.236 20.8943 125.139 19.0234 118.891 19.0234V21.0234ZM132.406 26.2188L130.938 27.5767C133.717 30.5819 135.211 34.7507 135.211 40.3203H137.211H139.211C139.211 34.015 137.502 28.7827 133.875 24.8608L132.406 26.2188ZM137.211 40.3203H135.211V45.5156H137.211H139.211V40.3203H137.211ZM125.766 37.9375H127.766C127.766 34.8552 127.151 32.1727 125.582 30.2342C123.948 28.2147 121.564 27.3438 118.812 27.3438V29.3438V31.3438C120.697 31.3438 121.789 31.9051 122.473 32.7502C123.222 33.6762 123.766 35.2906 123.766 37.9375H125.766ZM118.812 29.3438V27.3438C116.196 27.3438 113.953 28.4604 112.161 30.476L113.656 31.8047L115.151 33.1334C116.276 31.8677 117.471 31.3438 118.812 31.3438V29.3438ZM113.656 31.8047L112.15 30.4894C110.423 32.4675 109.411 34.8969 109.055 37.6842L111.039 37.9375L113.023 38.1908C113.292 36.0822 114.025 34.4232 115.163 33.12L113.656 31.8047ZM111.039 37.9375V39.9375H125.766V37.9375V35.9375H111.039V37.9375ZM208.031 60.0078L208.903 61.808L210.031 61.2617V60.0078H208.031ZM172.641 13.4062L171.223 11.9953L171.22 11.9987L172.641 13.4062ZM208.031 7.11719H210.031V5.72213L208.722 5.24028L208.031 7.11719ZM208.031 19.2656L207.006 20.9827L210.031 22.7896V19.2656H208.031ZM182.484 20.8672L183.915 22.2644L182.484 20.8672ZM182.211 47.2734L180.756 48.646L180.762 48.6519L182.211 47.2734ZM208.031 48.4844H210.031V44.9943L207.02 46.7588L208.031 48.4844ZM208.031 60.0078L207.16 58.2076C203.437 60.0097 198.428 60.9766 192.016 60.9766V62.9766V64.9766C198.78 64.9766 204.448 63.9643 208.903 61.808L208.031 60.0078ZM192.016 62.9766V60.9766C183.835 60.9766 177.64 58.5867 173.175 54.0028L171.742 55.3984L170.31 56.7941C175.688 62.3144 183.008 64.9766 192.016 64.9766V62.9766ZM171.742 55.3984L173.175 54.0028C168.685 49.3945 166.359 43.2004 166.359 35.2031H164.359H162.359C162.359 44.0287 164.955 51.2982 170.31 56.7941L171.742 55.3984ZM164.359 35.2031H166.359C166.359 26.6908 168.965 19.9582 174.061 14.8138L172.641 13.4062L171.22 11.9987C165.274 18.0001 162.359 25.7988 162.359 35.2031H164.359ZM172.641 13.4062L174.058 14.8171C179.182 9.66909 185.836 7.04688 194.203 7.04688V5.04688V3.04688C184.914 3.04688 177.193 5.99758 171.223 11.9954L172.641 13.4062ZM194.203 5.04688V7.04688C199.517 7.04688 203.877 7.71922 207.34 8.99409L208.031 7.11719L208.722 5.24028C204.686 3.75474 199.827 3.04688 194.203 3.04688V5.04688ZM208.031 7.11719H206.031V19.2656H208.031H210.031V7.11719H208.031ZM208.031 19.2656L209.057 17.5485C204.967 15.1061 200.335 13.9062 195.219 13.9062V15.9062V17.9062C199.685 17.9062 203.595 18.946 207.006 20.9827L208.031 19.2656ZM195.219 15.9062V13.9062C189.501 13.9062 184.712 15.7228 181.053 19.47L182.484 20.8672L183.915 22.2644C186.715 19.397 190.416 17.9062 195.219 17.9062V15.9062ZM182.484 20.8672L181.053 19.47C177.382 23.2306 175.641 28.2547 175.641 34.3047H177.641H179.641C179.641 29.0526 181.129 25.1183 183.915 22.2644L182.484 20.8672ZM177.641 34.3047H175.641C175.641 40.1132 177.286 44.9676 180.756 48.646L182.211 47.2734L183.666 45.9009C181.043 43.121 179.641 39.3295 179.641 34.3047H177.641ZM182.211 47.2734L180.762 48.6519C184.25 52.3184 188.911 54.0781 194.516 54.0781V52.0781V50.0781C189.808 50.0781 186.266 48.6347 183.66 45.895L182.211 47.2734ZM194.516 52.0781V54.0781C199.779 54.0781 204.635 52.7926 209.042 50.2099L208.031 48.4844L207.02 46.7588C203.25 48.9678 199.096 50.0781 194.516 50.0781V52.0781ZM208.031 48.4844H206.031V60.0078H208.031H210.031V48.4844H208.031ZM254.984 62V64H256.984V62H254.984ZM242.68 62H240.68V64H242.68V62ZM230.961 32.9375L232.503 34.2106L230.961 32.9375ZM228.93 62V64H230.93V62H228.93ZM216.586 62H214.586V64H216.586V62ZM216.586 2.78125V0.78125H214.586V2.78125H216.586ZM228.93 2.78125H230.93V0.78125H228.93V2.78125ZM228.93 27.9375H226.93V29.9375H228.93V27.9375ZM229.086 27.9375V29.9375H230.166L230.759 29.0338L229.086 27.9375ZM254.984 62V60H242.68V62V64H254.984V62ZM242.68 62H244.68V39.2656H242.68H240.68V62H242.68ZM242.68 39.2656H244.68C244.68 36.1523 244.123 33.4558 242.694 31.4958C241.18 29.4181 238.919 28.4766 236.273 28.4766V30.4766V32.4766C237.899 32.4766 238.841 32.9998 239.462 33.8519C240.169 34.8216 240.68 36.5195 240.68 39.2656H242.68ZM236.273 30.4766V28.4766C233.509 28.4766 231.165 29.5486 229.418 31.6644L230.961 32.9375L232.503 34.2106C233.465 33.0452 234.663 32.4766 236.273 32.4766V30.4766ZM230.961 32.9375L229.418 31.6644C227.715 33.7277 226.93 36.2878 226.93 39.1875H228.93H230.93C230.93 37.0351 231.498 35.4285 232.503 34.2106L230.961 32.9375ZM228.93 39.1875H226.93V62H228.93H230.93V39.1875H228.93ZM228.93 62V60H216.586V62V64H228.93V62ZM216.586 62H218.586V2.78125H216.586H214.586V62H216.586ZM216.586 2.78125V4.78125H228.93V2.78125V0.78125H216.586V2.78125ZM228.93 2.78125H226.93V27.9375H228.93H230.93V2.78125H228.93ZM228.93 27.9375V29.9375H229.086V27.9375V25.9375H228.93V27.9375ZM229.086 27.9375L230.759 29.0338C233.438 24.9456 236.932 23.0234 241.391 23.0234V21.0234V19.0234C235.484 19.0234 230.776 21.7106 227.413 26.8412L229.086 27.9375ZM241.391 21.0234V23.0234C245.504 23.0234 248.261 24.2466 250.046 26.401C251.891 28.6275 252.984 32.1873 252.984 37.4297H254.984H256.984C256.984 31.7346 255.812 27.0912 253.126 23.849C250.38 20.5347 246.34 19.0234 241.391 19.0234V21.0234ZM254.984 37.4297H252.984V62H254.984H256.984V37.4297H254.984ZM298.07 62V64H300.07V62H298.07ZM286.391 62H284.391V64H286.391V62ZM286.391 56.2578H288.391V54.2578H286.391V56.2578ZM286.234 56.2578V54.2578H285.101L284.519 55.2303L286.234 56.2578ZM265.141 59.6953L263.726 61.1095L263.735 61.1178L263.743 61.1261L265.141 59.6953ZM275.609 37.4297L275.868 39.4129L275.873 39.4122L275.609 37.4297ZM286.469 35.9844L286.733 37.9669L288.469 37.7358V35.9844H286.469ZM265.766 33.6797H263.766V37.3979L266.868 35.3484L265.766 33.6797ZM265.766 24.3828L264.85 22.6049L263.766 23.1633V24.3828H265.766ZM272.797 22.0391L272.356 20.0883L272.352 20.0891L272.797 22.0391ZM286.469 43.0547H288.469V40.78L286.213 41.0711L286.469 43.0547ZM279.203 43.9922L278.947 42.0086L278.946 42.0088L279.203 43.9922ZM274.633 52.8984L273.258 54.3514L273.279 54.3704L273.299 54.3889L274.633 52.8984ZM284.281 51.8438L285.755 53.1963L285.76 53.1903L285.765 53.1843L284.281 51.8438ZM298.07 62V60H286.391V62V64H298.07V62ZM286.391 62H288.391V56.2578H286.391H284.391V62H286.391ZM286.391 56.2578V54.2578H286.234V56.2578V58.2578H286.391V56.2578ZM286.234 56.2578L284.519 55.2303C282.201 59.1006 278.884 60.9766 274.32 60.9766V62.9766V64.9766C280.277 64.9766 284.903 62.3734 287.95 57.2853L286.234 56.2578ZM274.32 62.9766V60.9766C270.83 60.9766 268.319 60.0043 266.538 58.2646L265.141 59.6953L263.743 61.1261C266.441 63.7614 270.05 64.9766 274.32 64.9766V62.9766ZM265.141 59.6953L266.555 58.2811C264.781 56.5072 263.82 54.1075 263.82 50.8672H261.82H259.82C259.82 54.9706 261.073 58.4563 263.726 61.1095L265.141 59.6953ZM261.82 50.8672H263.82C263.82 47.4054 264.83 44.9062 266.663 43.1199C268.541 41.2898 271.516 39.98 275.868 39.4129L275.609 37.4297L275.351 35.4465C270.51 36.0773 266.59 37.606 263.872 40.2551C261.108 42.948 259.82 46.5686 259.82 50.8672H261.82ZM275.609 37.4297L275.873 39.4122L286.733 37.9669L286.469 35.9844L286.205 34.0019L275.346 35.4472L275.609 37.4297ZM286.469 35.9844H288.469C288.469 33.4456 287.774 31.1859 286.048 29.5929C284.352 28.0278 282 27.4219 279.359 27.4219V29.4219V31.4219C281.459 31.4219 282.661 31.9097 283.335 32.5321C283.979 33.1266 284.469 34.1481 284.469 35.9844H286.469ZM279.359 29.4219V27.4219C274.17 27.4219 269.26 28.9745 264.663 32.0109L265.766 33.6797L266.868 35.3484C270.865 32.7077 275.018 31.4219 279.359 31.4219V29.4219ZM265.766 33.6797H267.766V24.3828H265.766H263.766V33.6797H265.766ZM265.766 24.3828L266.682 26.1608C268.191 25.3831 270.354 24.6475 273.242 23.989L272.797 22.0391L272.352 20.0891C269.302 20.7848 266.778 21.6117 264.85 22.6049L265.766 24.3828ZM272.797 22.0391L273.238 23.9898C276.123 23.3376 278.693 23.0234 280.961 23.0234V21.0234V19.0234C278.333 19.0234 275.461 19.3864 272.356 20.0883L272.797 22.0391ZM280.961 21.0234V23.0234C286.357 23.0234 290.036 24.3682 292.38 26.7068C294.724 29.0447 296.07 32.7131 296.07 38.0938H298.07H300.07C300.07 32.0942 298.565 27.2274 295.206 23.8752C291.846 20.5238 286.971 19.0234 280.961 19.0234V21.0234ZM298.07 38.0938H296.07V62H298.07H300.07V38.0938H298.07ZM286.469 45.75H288.469V43.0547H286.469H284.469V45.75H286.469ZM286.469 43.0547L286.213 41.0711L278.947 42.0086L279.203 43.9922L279.459 45.9757L286.725 45.0382L286.469 43.0547ZM279.203 43.9922L278.946 42.0088C276.726 42.2971 274.772 42.9737 273.351 44.2556C271.865 45.5973 271.188 47.3984 271.188 49.4219H273.188H275.188C275.188 48.3464 275.513 47.6931 276.031 47.2249C276.616 46.6969 277.67 46.2081 279.461 45.9755L279.203 43.9922ZM273.188 49.4219H271.188C271.188 51.3407 271.869 53.0374 273.258 54.3514L274.633 52.8984L276.007 51.4455C275.469 50.9366 275.188 50.3155 275.188 49.4219H273.188ZM274.633 52.8984L273.299 54.3889C274.742 55.68 276.589 56.2266 278.617 56.2266V54.2266V52.2266C277.312 52.2266 276.503 51.8877 275.966 51.408L274.633 52.8984ZM278.617 54.2266V56.2266C281.448 56.2266 283.887 55.2308 285.755 53.1963L284.281 51.8438L282.808 50.4912C281.759 51.6338 280.422 52.2266 278.617 52.2266V54.2266ZM284.281 51.8438L285.765 53.1843C287.598 51.1556 288.469 48.6266 288.469 45.75H286.469H284.469C284.469 47.7692 283.881 49.3028 282.797 50.5032L284.281 51.8438ZM320.18 62V64H322.18V62H320.18ZM307.836 62H305.836V64H307.836V62ZM307.836 2.78125V0.78125H305.836V2.78125H307.836ZM320.18 2.78125H322.18V0.78125H320.18V2.78125ZM320.18 62V60H307.836V62V64H320.18V62ZM307.836 62H309.836V2.78125H307.836H305.836V62H307.836ZM307.836 2.78125V4.78125H320.18V2.78125V0.78125H307.836V2.78125ZM320.18 2.78125H318.18V62H320.18H322.18V2.78125H320.18ZM342.914 62V64H344.914V62H342.914ZM330.57 62H328.57V64H330.57V62ZM330.57 2.78125V0.78125H328.57V2.78125H330.57ZM342.914 2.78125H344.914V0.78125H342.914V2.78125ZM342.914 62V60H330.57V62V64H342.914V62ZM330.57 62H332.57V2.78125H330.57H328.57V62H330.57ZM330.57 2.78125V4.78125H342.914V2.78125V0.78125H330.57V2.78125ZM342.914 2.78125H340.914V62H342.914H344.914V2.78125H342.914ZM389.242 45.5156V47.5156H391.242V45.5156H389.242ZM363.148 45.5156V43.5156H361L361.154 45.6588L363.148 45.5156ZM385.727 51.1016H387.727V47.4931L384.667 49.4056L385.727 51.1016ZM385.727 60.0078L386.67 61.7711L387.727 61.2058V60.0078H385.727ZM356.273 57.625L354.854 59.0341L354.859 59.0392L356.273 57.625ZM356.703 26.8438L355.284 25.4343L356.703 26.8438ZM384.438 26.2188L382.964 27.5707L382.969 27.5767L384.438 26.2188ZM377.797 37.9375V39.9375H379.797V37.9375H377.797ZM365.688 31.8047L364.193 30.476L364.187 30.4826L364.181 30.4894L365.688 31.8047ZM363.07 37.9375L361.086 37.6842L360.799 39.9375H363.07V37.9375ZM389.242 45.5156V43.5156H363.148V45.5156V47.5156H389.242V45.5156ZM363.148 45.5156L361.154 45.6588C361.391 48.9736 362.59 51.7329 364.962 53.6154C367.279 55.4542 370.431 56.2266 374.125 56.2266V54.2266V52.2266C370.918 52.2266 368.79 51.5471 367.448 50.4822C366.162 49.4611 365.322 47.865 365.143 45.3725L363.148 45.5156ZM374.125 54.2266V56.2266C378.855 56.2266 383.098 55.1027 386.787 52.7976L385.727 51.1016L384.667 49.4056C381.688 51.2671 378.197 52.2266 374.125 52.2266V54.2266ZM385.727 51.1016H383.727V60.0078H385.727H387.727V51.1016H385.727ZM385.727 60.0078L384.783 58.2445C381.47 60.0177 377.022 60.9766 371.312 60.9766V62.9766V64.9766C377.426 64.9766 382.588 63.9562 386.67 61.7711L385.727 60.0078ZM371.312 62.9766V60.9766C365.229 60.9766 360.783 59.3061 357.688 56.2108L356.273 57.625L354.859 59.0392C358.899 63.0793 364.479 64.9766 371.312 64.9766V62.9766ZM356.273 57.625L357.693 56.2159C354.589 53.0897 352.922 48.6504 352.922 42.625H350.922H348.922C348.922 49.4121 350.822 54.9728 354.854 59.0341L356.273 57.625ZM350.922 42.625H352.922C352.922 36.392 354.717 31.6811 358.122 28.2532L356.703 26.8438L355.284 25.4343C350.981 29.7668 348.922 35.5768 348.922 42.625H350.922ZM356.703 26.8438L358.122 28.2532C361.589 24.7629 365.813 23.0234 370.922 23.0234V21.0234V19.0234C364.781 19.0234 359.526 21.1642 355.284 25.4343L356.703 26.8438ZM370.922 21.0234V23.0234C376.34 23.0234 380.253 24.6161 382.964 27.5707L384.438 26.2188L385.911 24.8668C382.267 20.8943 377.171 19.0234 370.922 19.0234V21.0234ZM384.438 26.2188L382.969 27.5767C385.748 30.5819 387.242 34.7507 387.242 40.3203H389.242H391.242C391.242 34.015 389.533 28.7827 385.906 24.8608L384.438 26.2188ZM389.242 40.3203H387.242V45.5156H389.242H391.242V40.3203H389.242ZM377.797 37.9375H379.797C379.797 34.8552 379.182 32.1727 377.613 30.2342C375.979 28.2147 373.595 27.3438 370.844 27.3438V29.3438V31.3438C372.728 31.3438 373.82 31.9051 374.504 32.7502C375.253 33.6762 375.797 35.2906 375.797 37.9375H377.797ZM370.844 29.3438V27.3438C368.227 27.3438 365.984 28.4604 364.193 30.476L365.688 31.8047L367.182 33.1334C368.307 31.8677 369.502 31.3438 370.844 31.3438V29.3438ZM365.688 31.8047L364.181 30.4894C362.454 32.4675 361.442 34.8969 361.086 37.6842L363.07 37.9375L365.054 38.1908C365.323 36.0822 366.056 34.4232 367.194 33.12L365.688 31.8047ZM363.07 37.9375V39.9375H377.797V37.9375V35.9375H363.07V37.9375ZM435.219 62V64H437.219V62H435.219ZM422.914 62H420.914V64H422.914V62ZM411 32.9375L409.47 31.65L411 32.9375ZM408.93 62V64H410.93V62H408.93ZM396.586 62H394.586V64H396.586V62ZM396.586 22V20H394.586V22H396.586ZM408.93 22H410.93V20H408.93V22ZM408.93 28.3281H406.93V30.3281H408.93V28.3281ZM409.086 28.3281V30.3281H410.214L410.798 29.3625L409.086 28.3281ZM435.219 62V60H422.914V62V64H435.219V62ZM422.914 62H424.914V39.7734H422.914H420.914V62H422.914ZM422.914 39.7734H424.914C424.914 36.4968 424.34 33.6801 422.881 31.6383C421.334 29.4725 419.013 28.4766 416.273 28.4766V30.4766V32.4766C417.961 32.4766 418.96 33.0301 419.626 33.9633C420.382 35.0204 420.914 36.8522 420.914 39.7734H422.914ZM416.273 30.4766V28.4766C413.545 28.4766 411.228 29.5597 409.47 31.65L411 32.9375L412.53 34.225C413.532 33.034 414.731 32.4766 416.273 32.4766V30.4766ZM411 32.9375L409.47 31.65C407.734 33.7132 406.93 36.2785 406.93 39.1875H408.93H410.93C410.93 37.0444 411.506 35.443 412.53 34.225L411 32.9375ZM408.93 39.1875H406.93V62H408.93H410.93V39.1875H408.93ZM408.93 62V60H396.586V62V64H408.93V62ZM396.586 62H398.586V22H396.586H394.586V62H396.586ZM396.586 22V24H408.93V22V20H396.586V22ZM408.93 22H406.93V28.3281H408.93H410.93V22H408.93ZM408.93 28.3281V30.3281H409.086V28.3281V26.3281H408.93V28.3281ZM409.086 28.3281L410.798 29.3625C413.383 25.0836 417.023 23.0234 421.938 23.0234V21.0234V19.0234C415.602 19.0234 410.674 21.8331 407.374 27.2938L409.086 28.3281ZM421.938 21.0234V23.0234C425.928 23.0234 428.602 24.2404 430.341 26.3993C432.147 28.6408 433.219 32.2292 433.219 37.5078H435.219H437.219C437.219 31.7968 436.077 27.1431 433.456 23.8897C430.768 20.5539 426.801 19.0234 421.938 19.0234V21.0234ZM435.219 37.5078H433.219V62H435.219H437.219V37.5078H435.219ZM477.797 74.6562L476.423 73.2029L476.418 73.2073L477.797 74.6562ZM446.312 78.4844H444.312V79.7343L445.436 80.2821L446.312 78.4844ZM446.312 68.0938L447.319 66.3654L444.312 64.6148V68.0938H446.312ZM468.461 68.3672L467.08 66.9204L467.071 66.9287L468.461 68.3672ZM471.898 56.2578H473.898V54.2578H471.898V56.2578ZM471.742 56.2578V54.2578H470.636L470.048 55.1943L471.742 56.2578ZM447.133 57.5859L445.596 58.8663L447.133 57.5859ZM471.742 26.6484L470.062 27.7335L470.653 28.6484H471.742V26.6484ZM471.898 26.6484V28.6484H473.898V26.6484H471.898ZM471.898 22V20H469.898V22H471.898ZM484.242 22H486.242V20H484.242V22ZM469.789 33.1719L468.247 34.4456L468.257 34.4578L468.267 34.4698L469.789 33.1719ZM457.406 50.6328L455.814 51.843L455.822 51.8533L457.406 50.6328ZM469.672 50.5938L468.112 49.3419L468.11 49.3444L469.672 50.5938ZM484.242 57.4297H482.242C482.242 64.451 480.223 69.6098 476.423 73.203L477.797 74.6562L479.171 76.1095C483.964 71.5777 486.242 65.2521 486.242 57.4297H484.242ZM477.797 74.6562L476.418 73.2073C472.614 76.8274 466.958 78.7891 459.125 78.7891V80.7891V82.7891C467.594 82.7891 474.386 80.6622 479.176 76.1052L477.797 74.6562ZM459.125 80.7891V78.7891C453.89 78.7891 449.96 78.0376 447.189 76.6867L446.312 78.4844L445.436 80.2821C448.967 82.004 453.578 82.7891 459.125 82.7891V80.7891ZM446.312 78.4844H448.312V68.0938H446.312H444.312V78.4844H446.312ZM446.312 68.0938L445.306 69.8221C449.684 72.3713 454.181 73.6875 458.773 73.6875V71.6875V69.6875C454.98 69.6875 451.17 68.6079 447.319 66.3654L446.312 68.0938ZM458.773 71.6875V73.6875C463.293 73.6875 467.082 72.4798 469.85 69.8057L468.461 68.3672L467.071 66.9287C465.257 68.6817 462.587 69.6875 458.773 69.6875V71.6875ZM468.461 68.3672L469.842 69.8139C472.604 67.1773 473.898 63.6311 473.898 59.4219H471.898H469.898C469.898 62.7647 468.901 65.1821 467.08 66.9205L468.461 68.3672ZM471.898 59.4219H473.898V56.2578H471.898H469.898V59.4219H471.898ZM471.898 56.2578V54.2578H471.742V56.2578V58.2578H471.898V56.2578ZM471.742 56.2578L470.048 55.1943C467.619 59.0637 464.12 60.9766 459.281 60.9766V62.9766V64.9766C465.432 64.9766 470.241 62.4102 473.436 57.3214L471.742 56.2578ZM459.281 62.9766V60.9766C454.709 60.9766 451.246 59.3982 448.669 56.3056L447.133 57.5859L445.596 58.8663C449.009 62.9612 453.645 64.9766 459.281 64.9766V62.9766ZM447.133 57.5859L448.669 56.3056C446.052 53.1651 444.641 48.8454 444.641 43.1328H442.641H440.641C440.641 49.5036 442.224 54.8193 445.596 58.8663L447.133 57.5859ZM442.641 43.1328H444.641C444.641 36.6867 446.224 31.8107 449.175 28.2833L447.641 27L446.107 25.7167C442.391 30.158 440.641 36.0372 440.641 43.1328H442.641ZM447.641 27L449.175 28.2833C452.108 24.7775 455.922 23.0234 460.805 23.0234V21.0234V19.0234C454.802 19.0234 449.84 21.2538 446.107 25.7167L447.641 27ZM460.805 21.0234V23.0234C465.069 23.0234 468.047 24.613 470.062 27.7335L471.742 26.6484L473.422 25.5634C470.594 21.1839 466.28 19.0234 460.805 19.0234V21.0234ZM471.742 26.6484V28.6484H471.898V26.6484V24.6484H471.742V26.6484ZM471.898 26.6484H473.898V22H471.898H469.898V26.6484H471.898ZM471.898 22V24H484.242V22V20H471.898V22ZM484.242 22H482.242V57.4297H484.242H486.242V22H484.242ZM472.055 42.7812H474.055V39.6172H472.055H470.055V42.7812H472.055ZM472.055 39.6172H474.055C474.055 36.6591 473.157 34.0387 471.311 31.874L469.789 33.1719L468.267 34.4698C469.442 35.8467 470.055 37.5232 470.055 39.6172H472.055ZM469.789 33.1719L471.331 31.8981C469.455 29.6267 466.942 28.4766 463.969 28.4766V30.4766V32.4766C465.787 32.4766 467.155 33.1233 468.247 34.4456L469.789 33.1719ZM463.969 30.4766V28.4766C460.622 28.4766 457.863 29.8286 455.909 32.4987L457.523 33.6797L459.138 34.8607C460.309 33.26 461.847 32.4766 463.969 32.4766V30.4766ZM457.523 33.6797L455.909 32.4987C454.004 35.1033 453.18 38.5876 453.18 42.7031H455.18H457.18C457.18 39.0582 457.918 36.5269 459.138 34.8607L457.523 33.6797ZM455.18 42.7031H453.18C453.18 46.3186 453.985 49.4359 455.814 51.843L457.406 50.6328L458.999 49.4226C457.859 47.9235 457.18 45.7543 457.18 42.7031H455.18ZM457.406 50.6328L455.822 51.8533C457.71 54.3051 460.345 55.5234 463.5 55.5234V53.5234V51.5234C461.499 51.5234 460.071 50.8147 458.991 49.4124L457.406 50.6328ZM463.5 53.5234V55.5234C466.645 55.5234 469.283 54.2818 471.234 51.8431L469.672 50.5938L468.11 49.3444C466.936 50.8119 465.459 51.5234 463.5 51.5234V53.5234ZM469.672 50.5938L471.232 51.8456C473.175 49.4241 474.055 46.3395 474.055 42.7812H472.055H470.055C470.055 45.6814 469.346 47.805 468.112 49.3419L469.672 50.5938ZM530.492 45.5156V47.5156H532.492V45.5156H530.492ZM504.398 45.5156V43.5156H502.25L502.404 45.6588L504.398 45.5156ZM526.977 51.1016H528.977V47.4931L525.917 49.4056L526.977 51.1016ZM526.977 60.0078L527.92 61.7711L528.977 61.2058V60.0078H526.977ZM497.523 57.625L496.104 59.0341L496.109 59.0392L497.523 57.625ZM497.953 26.8438L496.534 25.4343L497.953 26.8438ZM525.688 26.2188L524.214 27.5707L524.219 27.5767L525.688 26.2188ZM519.047 37.9375V39.9375H521.047V37.9375H519.047ZM506.938 31.8047L505.443 30.476L505.437 30.4826L505.431 30.4894L506.938 31.8047ZM504.32 37.9375L502.336 37.6842L502.049 39.9375H504.32V37.9375ZM530.492 45.5156V43.5156H504.398V45.5156V47.5156H530.492V45.5156ZM504.398 45.5156L502.404 45.6588C502.641 48.9736 503.84 51.7329 506.212 53.6154C508.529 55.4542 511.681 56.2266 515.375 56.2266V54.2266V52.2266C512.168 52.2266 510.04 51.5471 508.698 50.4822C507.412 49.4611 506.572 47.865 506.393 45.3725L504.398 45.5156ZM515.375 54.2266V56.2266C520.105 56.2266 524.348 55.1027 528.037 52.7976L526.977 51.1016L525.917 49.4056C522.938 51.2671 519.447 52.2266 515.375 52.2266V54.2266ZM526.977 51.1016H524.977V60.0078H526.977H528.977V51.1016H526.977ZM526.977 60.0078L526.033 58.2445C522.72 60.0177 518.272 60.9766 512.562 60.9766V62.9766V64.9766C518.676 64.9766 523.838 63.9562 527.92 61.7711L526.977 60.0078ZM512.562 62.9766V60.9766C506.479 60.9766 502.033 59.3061 498.938 56.2108L497.523 57.625L496.109 59.0392C500.149 63.0793 505.729 64.9766 512.562 64.9766V62.9766ZM497.523 57.625L498.943 56.2159C495.839 53.0897 494.172 48.6504 494.172 42.625H492.172H490.172C490.172 49.4121 492.072 54.9728 496.104 59.0341L497.523 57.625ZM492.172 42.625H494.172C494.172 36.392 495.967 31.6811 499.372 28.2532L497.953 26.8438L496.534 25.4343C492.231 29.7668 490.172 35.5768 490.172 42.625H492.172ZM497.953 26.8438L499.372 28.2532C502.839 24.7629 507.063 23.0234 512.172 23.0234V21.0234V19.0234C506.031 19.0234 500.776 21.1642 496.534 25.4343L497.953 26.8438ZM512.172 21.0234V23.0234C517.59 23.0234 521.503 24.6161 524.214 27.5707L525.688 26.2188L527.161 24.8668C523.517 20.8943 518.421 19.0234 512.172 19.0234V21.0234ZM525.688 26.2188L524.219 27.5767C526.998 30.5819 528.492 34.7507 528.492 40.3203H530.492H532.492C532.492 34.015 530.783 28.7827 527.156 24.8608L525.688 26.2188ZM530.492 40.3203H528.492V45.5156H530.492H532.492V40.3203H530.492ZM519.047 37.9375H521.047C521.047 34.8552 520.432 32.1727 518.863 30.2342C517.229 28.2147 514.845 27.3438 512.094 27.3438V29.3438V31.3438C513.978 31.3438 515.07 31.9051 515.754 32.7502C516.503 33.6762 517.047 35.2906 517.047 37.9375H519.047ZM512.094 29.3438V27.3438C509.477 27.3438 507.234 28.4604 505.443 30.476L506.938 31.8047L508.432 33.1334C509.557 31.8677 510.752 31.3438 512.094 31.3438V29.3438ZM506.938 31.8047L505.431 30.4894C503.704 32.4675 502.692 34.8969 502.336 37.6842L504.32 37.9375L506.304 38.1908C506.573 36.0822 507.306 34.4232 508.444 33.12L506.938 31.8047ZM504.32 37.9375V39.9375H519.047V37.9375V35.9375H504.32V37.9375ZM634.438 5.98438L636.371 6.49542L637.035 3.98438H634.438V5.98438ZM619.633 62V64H621.173L621.566 62.511L619.633 62ZM605.648 62L603.712 62.5009L604.1 64H605.648V62ZM596.352 26.0625L598.288 25.5616L598.285 25.5522L596.352 26.0625ZM595.453 19.7734L597.451 19.6836L597.365 17.7734H595.453V19.7734ZM595.297 19.7734V17.7734H593.472L593.305 19.5905L595.297 19.7734ZM594.281 26.0625L592.35 25.5415L592.348 25.5498L594.281 26.0625ZM584.75 62V64H586.289L586.683 62.5127L584.75 62ZM570.18 62L568.245 62.5085L568.638 64H570.18V62ZM555.453 5.98438V3.98438H552.859L553.519 6.4929L555.453 5.98438ZM569.242 5.98438L571.199 5.5705L570.863 3.98438H569.242V5.98438ZM577.133 43.2891L575.176 43.7029L575.177 43.7059L577.133 43.2891ZM577.875 49.6953L575.878 49.8116L575.988 51.6953H577.875V49.6953ZM578.109 49.6953V51.6953H580.008L580.107 49.7991L578.109 49.6953ZM579.242 43.1328L581.171 43.6626L581.171 43.6602L579.242 43.1328ZM589.398 5.98438V3.98438H587.872L587.469 5.45694L589.398 5.98438ZM602.914 5.98438L604.857 5.51023L604.485 3.98438H602.914V5.98438ZM612.094 43.6016L610.151 44.0757L610.151 44.078L612.094 43.6016ZM612.992 49.6172L611.002 49.8142L611.18 51.6172H612.992V49.6172ZM613.148 49.6172V51.6172H615.05L615.146 49.7183L613.148 49.6172ZM613.969 43.3672L615.926 43.778L615.927 43.7724L613.969 43.3672ZM621.703 5.98438V3.98438H620.075L619.745 5.57916L621.703 5.98438ZM634.438 5.98438L632.504 5.47333L617.699 61.489L619.633 62L621.566 62.511L636.371 6.49542L634.438 5.98438ZM619.633 62V60H605.648V62V64H619.633V62ZM605.648 62L607.585 61.4991L598.288 25.5616L596.352 26.0625L594.415 26.5634L603.712 62.5009L605.648 62ZM596.352 26.0625L598.285 25.5522C597.833 23.8384 597.55 21.8861 597.451 19.6836L595.453 19.7734L593.455 19.8632C593.565 22.2962 593.88 24.5366 594.418 26.5728L596.352 26.0625ZM595.453 19.7734V17.7734H595.297V19.7734V21.7734H595.453V19.7734ZM595.297 19.7734L593.305 19.5905C593.077 22.0796 592.752 24.0521 592.35 25.5415L594.281 26.0625L596.212 26.5835C596.696 24.7916 597.048 22.5714 597.289 19.9563L595.297 19.7734ZM594.281 26.0625L592.348 25.5498L582.817 61.4873L584.75 62L586.683 62.5127L596.214 26.5752L594.281 26.0625ZM584.75 62V60H570.18V62V64H584.75V62ZM570.18 62L572.114 61.4915L557.387 5.47585L555.453 5.98438L553.519 6.4929L568.245 62.5085L570.18 62ZM555.453 5.98438V7.98438H569.242V5.98438V3.98438H555.453V5.98438ZM569.242 5.98438L567.285 6.39825L575.176 43.7029L577.133 43.2891L579.09 42.8752L571.199 5.5705L569.242 5.98438ZM577.133 43.2891L575.177 43.7059C575.485 45.1525 575.725 47.1742 575.878 49.8116L577.875 49.6953L579.872 49.579C579.713 46.8518 579.458 44.6027 579.089 42.8722L577.133 43.2891ZM577.875 49.6953V51.6953H578.109V49.6953V47.6953H577.875V49.6953ZM578.109 49.6953L580.107 49.7991C580.202 47.9657 580.55 45.923 581.171 43.6626L579.242 43.1328L577.314 42.603C576.633 45.0822 576.225 47.4145 576.112 49.5916L578.109 49.6953ZM579.242 43.1328L581.171 43.6602L591.328 6.51181L589.398 5.98438L587.469 5.45694L577.313 42.6054L579.242 43.1328ZM589.398 5.98438V7.98438H602.914V5.98438V3.98438H589.398V5.98438ZM602.914 5.98438L600.971 6.45852L610.151 44.0757L612.094 43.6016L614.037 43.1274L604.857 5.51023L602.914 5.98438ZM612.094 43.6016L610.151 44.078C610.456 45.3192 610.744 47.2128 611.002 49.8142L612.992 49.6172L614.982 49.4201C614.719 46.7611 614.409 44.6443 614.036 43.1251L612.094 43.6016ZM612.992 49.6172V51.6172H613.148V49.6172V47.6172H612.992V49.6172ZM613.148 49.6172L615.146 49.7183C615.245 47.7698 615.504 45.79 615.926 43.778L613.969 43.3672L612.011 42.9564C611.548 45.1631 611.261 47.35 611.151 49.5161L613.148 49.6172ZM613.969 43.3672L615.927 43.7724L623.662 6.38959L621.703 5.98438L619.745 5.57916L612.01 42.962L613.969 43.3672ZM621.703 5.98438V7.98438H634.438V5.98438V3.98438H621.703V5.98438ZM674.086 45.5156V47.5156H676.086V45.5156H674.086ZM647.992 45.5156V43.5156H645.844L645.997 45.6588L647.992 45.5156ZM670.57 51.1016H672.57V47.4931L669.51 49.4056L670.57 51.1016ZM670.57 60.0078L671.514 61.7711L672.57 61.2058V60.0078H670.57ZM641.117 57.625L639.698 59.0341L639.703 59.0392L641.117 57.625ZM641.547 26.8438L640.128 25.4343L641.547 26.8438ZM669.281 26.2188L667.807 27.5707L667.813 27.5767L669.281 26.2188ZM662.641 37.9375V39.9375H664.641V37.9375H662.641ZM650.531 31.8047L649.036 30.476L649.031 30.4826L649.025 30.4894L650.531 31.8047ZM647.914 37.9375L645.93 37.6842L645.643 39.9375H647.914V37.9375ZM674.086 45.5156V43.5156H647.992V45.5156V47.5156H674.086V45.5156ZM647.992 45.5156L645.997 45.6588C646.235 48.9736 647.433 51.7329 649.806 53.6154C652.123 55.4542 655.274 56.2266 658.969 56.2266V54.2266V52.2266C655.762 52.2266 653.634 51.5471 652.292 50.4822C651.005 49.4611 650.166 47.865 649.987 45.3725L647.992 45.5156ZM658.969 54.2266V56.2266C663.698 56.2266 667.942 55.1027 671.63 52.7976L670.57 51.1016L669.51 49.4056C666.532 51.2671 663.041 52.2266 658.969 52.2266V54.2266ZM670.57 51.1016H668.57V60.0078H670.57H672.57V51.1016H670.57ZM670.57 60.0078L669.627 58.2445C666.313 60.0177 661.865 60.9766 656.156 60.9766V62.9766V64.9766C662.27 64.9766 667.431 63.9562 671.514 61.7711L670.57 60.0078ZM656.156 62.9766V60.9766C650.073 60.9766 645.627 59.3061 642.531 56.2108L641.117 57.625L639.703 59.0392C643.743 63.0793 649.323 64.9766 656.156 64.9766V62.9766ZM641.117 57.625L642.537 56.2159C639.433 53.0897 637.766 48.6504 637.766 42.625H635.766H633.766C633.766 49.4121 635.666 54.9728 639.698 59.0341L641.117 57.625ZM635.766 42.625H637.766C637.766 36.392 639.561 31.6811 642.966 28.2532L641.547 26.8438L640.128 25.4343C635.824 29.7668 633.766 35.5768 633.766 42.625H635.766ZM641.547 26.8438L642.966 28.2532C646.433 24.7629 650.656 23.0234 655.766 23.0234V21.0234V19.0234C649.625 19.0234 644.369 21.1642 640.128 25.4343L641.547 26.8438ZM655.766 21.0234V23.0234C661.184 23.0234 665.097 24.6161 667.807 27.5707L669.281 26.2188L670.755 24.8668C667.111 20.8943 662.014 19.0234 655.766 19.0234V21.0234ZM669.281 26.2188L667.813 27.5767C670.592 30.5819 672.086 34.7507 672.086 40.3203H674.086H676.086C676.086 34.015 674.377 28.7827 670.75 24.8608L669.281 26.2188ZM674.086 40.3203H672.086V45.5156H674.086H676.086V40.3203H674.086ZM662.641 37.9375H664.641C664.641 34.8552 664.026 32.1727 662.457 30.2342C660.823 28.2147 658.439 27.3438 655.688 27.3438V29.3438V31.3438C657.572 31.3438 658.664 31.9051 659.348 32.7502C660.097 33.6762 660.641 35.2906 660.641 37.9375H662.641ZM655.688 29.3438V27.3438C653.071 27.3438 650.828 28.4604 649.036 30.476L650.531 31.8047L652.026 33.1334C653.151 31.8677 654.346 31.3438 655.688 31.3438V29.3438ZM650.531 31.8047L649.025 30.4894C647.298 32.4675 646.286 34.8969 645.93 37.6842L647.914 37.9375L649.898 38.1908C650.167 36.0822 650.9 34.4232 652.038 33.12L650.531 31.8047ZM647.914 37.9375V39.9375H662.641V37.9375V35.9375H647.914V37.9375ZM687.406 5.28125L689.401 5.42118L689.551 3.28125H687.406V5.28125ZM686.195 22.5469V24.5469H688.06L688.19 22.6868L686.195 22.5469ZM678.383 22.5469L676.387 22.6778L676.51 24.5469H678.383V22.5469ZM677.25 5.28125V3.28125H675.115L675.254 5.41219L677.25 5.28125ZM687.406 5.28125L685.411 5.14132L684.2 22.4069L686.195 22.5469L688.19 22.6868L689.401 5.42118L687.406 5.28125ZM686.195 22.5469V20.5469H678.383V22.5469V24.5469H686.195V22.5469ZM678.383 22.5469L680.379 22.4159L679.246 5.15031L677.25 5.28125L675.254 5.41219L676.387 22.6778L678.383 22.5469ZM677.25 5.28125V7.28125H687.406V5.28125V3.28125H677.25V5.28125ZM722.914 33.1328L721.958 34.8898L724.914 36.4972V33.1328H722.914ZM711.43 34.8906L713.012 36.1141L713.02 36.104L711.43 34.8906ZM709.164 62V64H711.164V62H709.164ZM696.82 62H694.82V64H696.82V62ZM696.82 22V20H694.82V22H696.82ZM709.164 22H711.164V20H709.164V22ZM709.164 29.4219H707.164V31.4219H709.164V29.4219ZM709.32 29.4219V31.4219H710.725L711.202 30.1003L709.32 29.4219ZM722.914 21.7656H724.914V20.4468L723.702 19.9273L722.914 21.7656ZM722.914 33.1328L723.87 31.3758C722.045 30.3837 719.974 29.9219 717.719 29.9219V31.9219V33.9219C719.422 33.9219 720.814 34.2673 721.958 34.8898L722.914 33.1328ZM717.719 31.9219V29.9219C714.469 29.9219 711.761 31.1596 709.84 33.6773L711.43 34.8906L713.02 36.104C714.119 34.6633 715.604 33.9219 717.719 33.9219V31.9219ZM711.43 34.8906L709.848 33.6671C707.981 36.0803 707.164 39.2324 707.164 42.8984H709.164H711.164C711.164 39.7937 711.857 37.6072 713.012 36.1141L711.43 34.8906ZM709.164 42.8984H707.164V62H709.164H711.164V42.8984H709.164ZM709.164 62V60H696.82V62V64H709.164V62ZM696.82 62H698.82V22H696.82H694.82V62H696.82ZM696.82 22V24H709.164V22V20H696.82V22ZM709.164 22H707.164V29.4219H709.164H711.164V22H709.164ZM709.164 29.4219V31.4219H709.32V29.4219V27.4219H709.164V29.4219ZM709.32 29.4219L711.202 30.1003C712.087 27.6456 713.265 25.974 714.642 24.9125C716.001 23.8659 717.703 23.2969 719.867 23.2969V21.2969V19.2969C716.953 19.2969 714.358 20.082 712.201 21.7438C710.064 23.3906 708.507 25.7815 707.439 28.7435L709.32 29.4219ZM719.867 21.2969V23.2969C721.05 23.2969 721.755 23.445 722.126 23.6039L722.914 21.7656L723.702 19.9273C722.614 19.4612 721.288 19.2969 719.867 19.2969V21.2969ZM722.914 21.7656H720.914V33.1328H722.914H724.914V21.7656H722.914ZM764.32 45.5156V47.5156H766.32V45.5156H764.32ZM738.227 45.5156V43.5156H736.078L736.232 45.6588L738.227 45.5156ZM760.805 51.1016H762.805V47.4931L759.745 49.4056L760.805 51.1016ZM760.805 60.0078L761.748 61.7711L762.805 61.2058V60.0078H760.805ZM731.352 57.625L729.932 59.0341L729.937 59.0392L731.352 57.625ZM731.781 26.8438L730.362 25.4343L731.781 26.8438ZM759.516 26.2188L758.042 27.5707L758.047 27.5767L759.516 26.2188ZM752.875 37.9375V39.9375H754.875V37.9375H752.875ZM740.766 31.8047L739.271 30.476L739.265 30.4826L739.259 30.4894L740.766 31.8047ZM738.148 37.9375L736.165 37.6842L735.877 39.9375H738.148V37.9375ZM764.32 45.5156V43.5156H738.227V45.5156V47.5156H764.32V45.5156ZM738.227 45.5156L736.232 45.6588C736.47 48.9736 737.668 51.7329 740.04 53.6154C742.357 55.4542 745.509 56.2266 749.203 56.2266V54.2266V52.2266C745.997 52.2266 743.868 51.5471 742.526 50.4822C741.24 49.4611 740.4 47.865 740.221 45.3725L738.227 45.5156ZM749.203 54.2266V56.2266C753.933 56.2266 758.177 55.1027 761.865 52.7976L760.805 51.1016L759.745 49.4056C756.766 51.2671 753.276 52.2266 749.203 52.2266V54.2266ZM760.805 51.1016H758.805V60.0078H760.805H762.805V51.1016H760.805ZM760.805 60.0078L759.861 58.2445C756.548 60.0177 752.1 60.9766 746.391 60.9766V62.9766V64.9766C752.504 64.9766 757.666 63.9562 761.748 61.7711L760.805 60.0078ZM746.391 62.9766V60.9766C740.307 60.9766 735.861 59.3061 732.766 56.2108L731.352 57.625L729.937 59.0392C733.977 63.0793 739.557 64.9766 746.391 64.9766V62.9766ZM731.352 57.625L732.771 56.2159C729.667 53.0897 728 48.6504 728 42.625H726H724C724 49.4121 725.9 54.9728 729.932 59.0341L731.352 57.625ZM726 42.625H728C728 36.392 729.795 31.6811 733.2 28.2532L731.781 26.8438L730.362 25.4343C726.059 29.7668 724 35.5768 724 42.625H726ZM731.781 26.8438L733.2 28.2532C736.667 24.7629 740.891 23.0234 746 23.0234V21.0234V19.0234C739.859 19.0234 734.604 21.1642 730.362 25.4343L731.781 26.8438ZM746 21.0234V23.0234C751.418 23.0234 755.332 24.6161 758.042 27.5707L759.516 26.2188L760.99 24.8668C757.346 20.8943 752.249 19.0234 746 19.0234V21.0234ZM759.516 26.2188L758.047 27.5767C760.827 30.5819 762.32 34.7507 762.32 40.3203H764.32H766.32C766.32 34.015 764.611 28.7827 760.984 24.8608L759.516 26.2188ZM764.32 40.3203H762.32V45.5156H764.32H766.32V40.3203H764.32ZM752.875 37.9375H754.875C754.875 34.8552 754.26 32.1727 752.692 30.2342C751.058 28.2147 748.673 27.3438 745.922 27.3438V29.3438V31.3438C747.806 31.3438 748.898 31.9051 749.582 32.7502C750.331 33.6762 750.875 35.2906 750.875 37.9375H752.875ZM745.922 29.3438V27.3438C743.305 27.3438 741.062 28.4604 739.271 30.476L740.766 31.8047L742.26 33.1334C743.385 31.8677 744.58 31.3438 745.922 31.3438V29.3438ZM740.766 31.8047L739.259 30.4894C737.532 32.4675 736.52 34.8969 736.165 37.6842L738.148 37.9375L740.132 38.1908C740.401 36.0822 741.135 34.4232 742.272 33.12L740.766 31.8047ZM738.148 37.9375V39.9375H752.875V37.9375V35.9375H738.148V37.9375ZM792.406 59.8516H790.406V61.0736L791.494 61.6312L792.406 59.8516ZM792.406 47.3516L793.692 45.8195L790.406 43.0626V47.3516H792.406ZM799.789 51.6484L799.107 53.5286L799.115 53.5315L799.123 53.5344L799.789 51.6484ZM811.977 52.625L811.511 50.6798L811.502 50.6822L811.977 52.625ZM814.945 51.4531L816.015 53.1428L816.023 53.1383L816.03 53.1337L814.945 51.4531ZM816.742 49.6562L818.475 50.6557L818.483 50.6417L818.49 50.6275L816.742 49.6562ZM813.812 42.0781L812.685 43.7297L812.694 43.736L812.703 43.7422L813.812 42.0781ZM805.18 37.8984L804.41 39.7446L804.422 39.7495L805.18 37.8984ZM795.375 31.2188L793.822 32.4794L793.83 32.4886L795.375 31.2188ZM793.93 14.1875L795.673 15.168L795.678 15.1588L793.93 14.1875ZM798.695 8.99219L797.586 7.32806L797.576 7.33474L798.695 8.99219ZM805.727 6.02344L806.185 7.97027L806.194 7.96815L806.203 7.96594L805.727 6.02344ZM821.898 5.59375L821.577 7.56776L821.59 7.56986L821.603 7.57179L821.898 5.59375ZM828.148 7.19531H830.148V5.82036L828.865 5.32796L828.148 7.19531ZM828.148 18.875L827.008 20.5177L830.148 22.6988V18.875H828.148ZM825.062 17.1562L824.238 18.9785L824.246 18.9821L824.254 18.9856L825.062 17.1562ZM821.664 15.9453L821.109 17.8667L821.129 17.8725L821.149 17.8778L821.664 15.9453ZM818.148 15.2031L817.878 17.1848L817.884 17.1856L818.148 15.2031ZM810.961 15.3984L811.395 17.3508L811.415 17.3462L811.436 17.3412L810.961 15.3984ZM807.992 16.5312L809.037 18.2365L807.992 16.5312ZM806.117 18.3281L807.791 19.4226L807.801 19.4083L807.81 19.3938L806.117 18.3281ZM806.195 23.1719L804.522 24.2679L804.531 24.2815L804.54 24.2949L806.195 23.1719ZM808.305 25.2812L807.112 26.8867L807.127 26.8979L807.142 26.9087L808.305 25.2812ZM811.625 27.2344L810.731 29.0232L810.745 29.0304L810.76 29.0374L811.625 27.2344ZM816.039 29.1875L816.811 27.3426L816.802 27.3388L816.039 29.1875ZM822.055 32.1953L821.022 33.9081L821.037 33.917L821.052 33.9256L822.055 32.1953ZM829.594 40.3203L827.733 41.0534L827.737 41.0631L829.594 40.3203ZM828.812 54.1484L827.068 53.1699L827.064 53.1772L828.812 54.1484ZM824.008 59.3047L825.087 60.9884L825.095 60.9836L825.102 60.9786L824.008 59.3047ZM816.898 62.1172L816.484 60.1605L816.481 60.1613L816.898 62.1172ZM799.594 62.1953L799.223 64.1606L799.226 64.1613L799.594 62.1953ZM792.406 59.8516H794.406V47.3516H792.406H790.406V59.8516H792.406ZM792.406 47.3516L791.121 48.8837C793.557 50.928 796.221 52.4815 799.107 53.5286L799.789 51.6484L800.471 49.7683C798.045 48.8883 795.787 47.5772 793.692 45.8195L792.406 47.3516ZM799.789 51.6484L799.123 53.5344C801.985 54.5443 804.892 55.0547 807.836 55.0547V53.0547V51.0547C805.363 51.0547 802.906 50.6276 800.455 49.7625L799.789 51.6484ZM807.836 53.0547V55.0547C809.537 55.0547 811.084 54.902 812.451 54.5678L811.977 52.625L811.502 50.6822C810.525 50.9209 809.312 51.0547 807.836 51.0547V53.0547ZM811.977 52.625L812.442 54.5702C813.787 54.2484 814.998 53.7873 816.015 53.1428L814.945 51.4531L813.875 49.7635C813.33 50.1085 812.562 50.4287 811.511 50.6798L811.977 52.625ZM814.945 51.4531L816.03 53.1337C817.044 52.4794 817.893 51.6641 818.475 50.6557L816.742 49.6562L815.01 48.6568C814.81 49.0026 814.461 49.3852 813.861 49.7725L814.945 51.4531ZM816.742 49.6562L818.49 50.6275C819.047 49.6262 819.328 48.5365 819.328 47.3906H817.328H815.328C815.328 47.8593 815.219 48.2801 814.994 48.685L816.742 49.6562ZM817.328 47.3906H819.328C819.328 45.8875 818.889 44.4964 818.008 43.2846L816.391 44.4609L814.773 45.6373C815.142 46.1442 815.328 46.7063 815.328 47.3906H817.328ZM816.391 44.4609L818.008 43.2846C817.215 42.1945 816.168 41.2445 814.922 40.414L813.812 42.0781L812.703 43.7422C813.645 44.3701 814.316 45.0086 814.773 45.6373L816.391 44.4609ZM813.812 42.0781L814.94 40.4265C813.758 39.6188 812.377 38.8619 810.814 38.1491L809.984 39.9688L809.154 41.7884C810.56 42.4297 811.732 43.0791 812.685 43.7297L813.812 42.0781ZM809.984 39.9688L810.814 38.1491C809.303 37.4597 807.677 36.7591 805.937 36.0473L805.18 37.8984L804.422 39.7495C806.12 40.444 807.697 41.1236 809.154 41.7884L809.984 39.9688ZM805.18 37.8984L805.949 36.0523C801.764 34.3085 798.809 32.247 796.92 29.9489L795.375 31.2188L793.83 32.4886C796.264 35.4509 799.846 37.8425 804.41 39.7446L805.18 37.8984ZM795.375 31.2188L796.928 29.9581C795.111 27.7203 794.172 25.0009 794.172 21.6875H792.172H790.172C790.172 25.822 791.368 29.4568 793.822 32.4794L795.375 31.2188ZM792.172 21.6875H794.172C794.172 19.0392 794.703 16.8927 795.673 15.168L793.93 14.1875L792.187 13.207C790.813 15.649 790.172 18.5025 790.172 21.6875H792.172ZM793.93 14.1875L795.678 15.1588C796.697 13.3252 798.069 11.8282 799.815 10.6496L798.695 8.99219L797.576 7.33474C795.311 8.86447 793.506 10.8311 792.181 13.2162L793.93 14.1875ZM798.695 8.99219L799.805 10.6563C801.615 9.44912 803.733 8.54703 806.185 7.97027L805.727 6.02344L805.268 4.0766C802.407 4.74985 799.838 5.82692 797.586 7.32809L798.695 8.99219ZM805.727 6.02344L806.203 7.96594C808.69 7.35619 811.342 7.04688 814.164 7.04688V5.04688V3.04688C811.048 3.04688 808.075 3.3886 805.25 4.08093L805.727 6.02344ZM814.164 5.04688V7.04688C817.002 7.04688 819.469 7.22454 821.577 7.56776L821.898 5.59375L822.22 3.61974C819.849 3.23379 817.16 3.04688 814.164 3.04688V5.04688ZM821.898 5.59375L821.603 7.57179C823.742 7.89147 825.683 8.39158 827.432 9.06266L828.148 7.19531L828.865 5.32796C826.812 4.54071 824.586 3.97312 822.194 3.61571L821.898 5.59375ZM828.148 7.19531H826.148V18.875H828.148H830.148V7.19531H828.148ZM828.148 18.875L829.289 17.2323C828.24 16.5035 827.099 15.8695 825.871 15.3269L825.062 17.1562L824.254 18.9856C825.266 19.4326 826.182 19.9444 827.008 20.5177L828.148 18.875ZM825.062 17.1562L825.887 15.334C824.692 14.7936 823.456 14.3533 822.179 14.0128L821.664 15.9453L821.149 17.8778C822.216 18.1623 823.245 18.5293 824.238 18.9785L825.062 17.1562ZM821.664 15.9453L822.219 14.0239C820.955 13.6587 819.686 13.3904 818.413 13.2207L818.148 15.2031L817.884 17.1856C818.955 17.3283 820.029 17.5549 821.109 17.8667L821.664 15.9453ZM818.148 15.2031L818.419 13.2215C817.193 13.0543 816.008 12.9688 814.867 12.9688V14.9688V16.9688C815.809 16.9688 816.812 17.0394 817.878 17.1848L818.148 15.2031ZM814.867 14.9688V12.9688C813.304 12.9688 811.839 13.1249 810.486 13.4556L810.961 15.3984L811.436 17.3412C812.427 17.0991 813.566 16.9688 814.867 16.9688V14.9688ZM810.961 15.3984L810.527 13.4461C809.194 13.7422 807.986 14.1894 806.947 14.826L807.992 16.5312L809.037 18.2365C809.613 17.8835 810.384 17.5755 811.395 17.3508L810.961 15.3984ZM807.992 16.5312L806.947 14.826C805.914 15.4589 805.053 16.2651 804.425 17.2625L806.117 18.3281L807.81 19.3938C808.067 18.9849 808.455 18.5931 809.037 18.2365L807.992 16.5312ZM806.117 18.3281L804.443 17.2336C803.774 18.2567 803.453 19.4101 803.453 20.6328H805.453H807.453C807.453 20.1368 807.575 19.7537 807.791 19.4226L806.117 18.3281ZM805.453 20.6328H803.453C803.453 21.9439 803.806 23.174 804.522 24.2679L806.195 23.1719L807.868 22.0758C807.595 21.6593 807.453 21.1967 807.453 20.6328H805.453ZM806.195 23.1719L804.54 24.2949C805.191 25.2544 806.07 26.1125 807.112 26.8867L808.305 25.2812L809.497 23.6758C808.717 23.0958 808.189 22.5476 807.85 22.0489L806.195 23.1719ZM808.305 25.2812L807.142 26.9087C808.159 27.6353 809.361 28.3385 810.731 29.0232L811.625 27.2344L812.519 25.4455C811.285 24.8282 810.273 24.2293 809.467 23.6538L808.305 25.2812ZM811.625 27.2344L810.76 29.0374C812.102 29.6818 813.608 30.348 815.276 31.0362L816.039 29.1875L816.802 27.3388C815.189 26.6729 813.752 26.037 812.49 25.4313L811.625 27.2344ZM816.039 29.1875L815.267 31.0324C817.432 31.9385 819.348 32.8985 821.022 33.9081L822.055 32.1953L823.087 30.4826C821.22 29.3568 819.126 28.3115 816.811 27.3426L816.039 29.1875ZM822.055 32.1953L821.052 33.9256C822.707 34.8852 824.091 35.9583 825.222 37.1357L826.664 35.75L828.106 34.3643C826.685 32.8855 824.996 31.5887 823.058 30.465L822.055 32.1953ZM826.664 35.75L825.222 37.1357C826.317 38.2751 827.151 39.5766 827.733 41.0534L829.594 40.3203L831.455 39.5873C830.682 37.6265 829.564 35.8812 828.106 34.3643L826.664 35.75ZM829.594 40.3203L827.737 41.0631C828.299 42.4699 828.609 44.187 828.609 46.2578H830.609H832.609C832.609 43.7974 832.242 41.5562 831.451 39.5775L829.594 40.3203ZM830.609 46.2578H828.609C828.609 49.1328 828.058 51.405 827.068 53.1699L828.812 54.1484L830.557 55.1269C831.963 52.6211 832.609 49.6328 832.609 46.2578H830.609ZM828.812 54.1484L827.064 53.1772C826.051 55.001 824.674 56.4792 822.913 57.6307L824.008 59.3047L825.102 60.9786C827.404 59.4739 829.23 57.5146 830.561 55.1197L828.812 54.1484ZM824.008 59.3047L822.928 57.6209C821.128 58.7749 818.991 59.6303 816.484 60.1605L816.898 62.1172L817.312 64.0739C820.223 63.4582 822.825 62.4387 825.087 60.9884L824.008 59.3047ZM816.898 62.1172L816.481 60.1613C813.948 60.7024 811.25 60.9766 808.383 60.9766V62.9766V64.9766C811.505 64.9766 814.485 64.6779 817.316 64.0731L816.898 62.1172ZM808.383 62.9766V60.9766C805.423 60.9766 802.617 60.7257 799.961 60.2294L799.594 62.1953L799.226 64.1613C802.144 64.7066 805.197 64.9766 808.383 64.9766V62.9766ZM799.594 62.1953L799.965 60.23C797.351 59.7369 795.145 59.0086 793.319 58.0719L792.406 59.8516L791.494 61.6312C793.73 62.7779 796.316 63.6121 799.223 64.1606L799.594 62.1953ZM841.938 57.3906L840.533 58.8146L840.543 58.8242L841.938 57.3906ZM842.172 26.6484L843.542 28.1051L843.547 28.1003L842.172 26.6484ZM873.852 26.6484L872.442 28.0675L872.447 28.0724L873.852 26.6484ZM873.656 57.1953L872.252 55.7716L872.247 55.7763L873.656 57.1953ZM857.68 62.9766V60.9766C851.398 60.9766 846.7 59.2328 843.332 55.957L841.938 57.3906L840.543 58.8242C844.832 62.9963 850.628 64.9766 857.68 64.9766V62.9766ZM841.938 57.3906L843.342 55.9667C839.995 52.666 838.234 48.1419 838.234 42.1562H836.234H834.234C834.234 48.9831 836.275 54.6152 840.533 58.8146L841.938 57.3906ZM836.234 42.1562H838.234C838.234 35.9644 840.071 31.3711 843.542 28.1051L842.172 26.6484L840.801 25.1918C836.356 29.3737 834.234 35.1189 834.234 42.1562H836.234ZM842.172 26.6484L843.547 28.1003C847.051 24.7811 851.866 23.0234 858.227 23.0234V21.0234V19.0234C851.098 19.0234 845.209 21.0157 840.796 25.1965L842.172 26.6484ZM858.227 21.0234V23.0234C864.477 23.0234 869.129 24.7768 872.442 28.0675L873.852 26.6484L875.261 25.2293C871.022 21.0201 865.257 19.0234 858.227 19.0234V21.0234ZM873.852 26.6484L872.447 28.0724C875.781 31.3604 877.516 35.7504 877.516 41.4531H879.516H881.516C881.516 34.8642 879.474 29.3844 875.256 25.2244L873.852 26.6484ZM879.516 41.4531H877.516C877.516 47.6789 875.699 52.3701 872.252 55.7716L873.656 57.1953L875.061 58.619C879.426 54.3122 881.516 48.5086 881.516 41.4531H879.516ZM873.656 57.1953L872.247 55.7763C868.826 59.174 864.055 60.9766 857.68 60.9766V62.9766V64.9766C864.846 64.9766 870.726 62.9249 875.066 58.6143L873.656 57.1953ZM857.992 30.4766V28.4766C854.561 28.4766 851.685 29.6868 849.638 32.2301L851.195 33.4844L852.753 34.7387C853.934 33.2715 855.59 32.4766 857.992 32.4766V30.4766ZM851.195 33.4844L849.638 32.2301C847.637 34.7149 846.773 38.062 846.773 42H848.773H850.773C850.773 38.5943 851.525 36.2643 852.753 34.7387L851.195 33.4844ZM848.773 42H846.773C846.773 46.0578 847.583 49.4718 849.541 51.8984C851.565 54.4071 854.536 55.5234 858.07 55.5234V53.5234V51.5234C855.407 51.5234 853.729 50.7192 852.654 49.3868C851.513 47.9722 850.773 45.6245 850.773 42H848.773ZM858.07 53.5234V55.5234C861.515 55.5234 864.389 54.3435 866.321 51.7636C868.173 49.2923 868.938 45.8248 868.938 41.6875H866.938H864.938C864.938 45.4408 864.224 47.8913 863.12 49.3653C862.097 50.7307 860.537 51.5234 858.07 51.5234V53.5234ZM866.938 41.6875H868.938C868.938 37.7377 868.158 34.4055 866.265 32.0319C864.302 29.5721 861.417 28.4766 857.992 28.4766V30.4766V32.4766C860.531 32.4766 862.119 33.2495 863.138 34.5267C864.226 35.8901 864.938 38.1633 864.938 41.6875H866.938ZM899.867 62V64H901.867V62H899.867ZM887.523 62H885.523V64H887.523V62ZM887.523 2.78125V0.78125H885.523V2.78125H887.523ZM899.867 2.78125H901.867V0.78125H899.867V2.78125ZM899.867 62V60H887.523V62V64H899.867V62ZM887.523 62H889.523V2.78125H887.523H885.523V62H887.523ZM887.523 2.78125V4.78125H899.867V2.78125V0.78125H887.523V2.78125ZM899.867 2.78125H897.867V62H899.867H901.867V2.78125H899.867ZM948.344 22L950.218 22.6974L951.222 20H948.344V22ZM933.461 62V64H934.851L935.335 62.6974L933.461 62ZM919.398 62L917.513 62.6682L917.985 64H919.398V62ZM905.219 22V20H902.388L903.334 22.6682L905.219 22ZM918.422 22L920.347 21.457L919.936 20H918.422V22ZM925.375 46.6484L927.301 46.1085L927.3 46.1054L925.375 46.6484ZM926.742 53.7578L924.747 53.8909L924.871 55.7578H926.742V53.7578ZM926.898 53.7578V55.7578H928.711L928.889 53.954L926.898 53.7578ZM935.453 22V20H933.945L933.53 21.4506L935.453 22ZM948.344 22L946.469 21.3026L931.586 61.3026L933.461 62L935.335 62.6974L950.218 22.6974L948.344 22ZM933.461 62V60H919.398V62V64H933.461V62ZM919.398 62L921.284 61.3318L907.104 21.3318L905.219 22L903.334 22.6682L917.513 62.6682L919.398 62ZM905.219 22V24H918.422V22V20H905.219V22ZM918.422 22L916.497 22.543L923.45 47.1914L925.375 46.6484L927.3 46.1054L920.347 21.457L918.422 22ZM925.375 46.6484L923.449 47.1884C924.209 49.8987 924.629 52.1238 924.747 53.8909L926.742 53.7578L928.738 53.6248C928.595 51.4856 928.103 48.9711 927.301 46.1085L925.375 46.6484ZM926.742 53.7578V55.7578H926.898V53.7578V51.7578H926.742V53.7578ZM926.898 53.7578L928.889 53.954C929.055 52.2697 929.503 50.105 930.267 47.4323L928.344 46.8828L926.421 46.3334C925.622 49.1294 925.107 51.548 924.908 53.5616L926.898 53.7578ZM928.344 46.8828L930.267 47.4323L937.376 22.5494L935.453 22L933.53 21.4506L926.421 46.3334L928.344 46.8828ZM935.453 22V24H948.344V22V20H935.453V22ZM954.75 13.8359L953.379 15.2923L953.387 15.2995L953.395 15.3066L954.75 13.8359ZM964.984 4.73438L963.646 6.22096L963.654 6.22754L963.661 6.23405L964.984 4.73438ZM964.984 13.875L963.645 12.3899L963.638 12.3965L963.63 12.4031L964.984 13.875ZM965.961 62V64H967.961V62H965.961ZM953.617 62H951.617V64H953.617V62ZM953.617 22V20H951.617V22H953.617ZM965.961 22H967.961V20H965.961V22ZM959.867 15.6719V13.6719C958.204 13.6719 957.008 13.1968 956.105 12.3652L954.75 13.8359L953.395 15.3066C955.149 16.923 957.364 17.6719 959.867 17.6719V15.6719ZM954.75 13.8359L956.121 12.3795C955.187 11.5011 954.758 10.5017 954.758 9.26562H952.758H950.758C950.758 11.6233 951.656 13.6708 953.379 15.2923L954.75 13.8359ZM952.758 9.26562H954.758C954.758 7.96184 955.196 7.00771 956.073 6.23405L954.75 4.73438L953.427 3.2347C951.647 4.80479 950.758 6.87149 950.758 9.26562H952.758ZM954.75 4.73438L956.073 6.23405C956.973 5.43997 958.18 4.97656 959.867 4.97656V2.97656V0.976562C957.387 0.976562 955.183 1.68503 953.427 3.2347L954.75 4.73438ZM959.867 2.97656V4.97656C961.589 4.97656 962.784 5.44434 963.646 6.22096L964.984 4.73438L966.322 3.24779C964.581 1.68066 962.365 0.976562 959.867 0.976562V2.97656ZM964.984 4.73438L963.661 6.23405C964.538 7.00771 964.977 7.96184 964.977 9.26562H966.977H968.977C968.977 6.87149 968.087 4.80479 966.308 3.2347L964.984 4.73438ZM966.977 9.26562H964.977C964.977 10.6054 964.53 11.5914 963.645 12.3899L964.984 13.875L966.324 15.3601C968.095 13.7627 968.977 11.6759 968.977 9.26562H966.977ZM964.984 13.875L963.63 12.4031C962.766 13.1981 961.577 13.6719 959.867 13.6719V15.6719V17.6719C962.376 17.6719 964.598 16.9477 966.339 15.3469L964.984 13.875ZM965.961 62V60H953.617V62V64H965.961V62ZM953.617 62H955.617V22H953.617H951.617V62H953.617ZM953.617 22V24H965.961V22V20H953.617V22ZM965.961 22H963.961V62H965.961H967.961V22H965.961ZM1014.98 62V64H1016.98V62H1014.98ZM1002.68 62H1000.68V64H1002.68V62ZM990.766 32.9375L989.235 31.65L990.766 32.9375ZM988.695 62V64H990.695V62H988.695ZM976.352 62H974.352V64H976.352V62ZM976.352 22V20H974.352V22H976.352ZM988.695 22H990.695V20H988.695V22ZM988.695 28.3281H986.695V30.3281H988.695V28.3281ZM988.852 28.3281V30.3281H989.98L990.563 29.3625L988.852 28.3281ZM1014.98 62V60H1002.68V62V64H1014.98V62ZM1002.68 62H1004.68V39.7734H1002.68H1000.68V62H1002.68ZM1002.68 39.7734H1004.68C1004.68 36.4968 1004.11 33.6801 1002.65 31.6383C1001.1 29.4725 998.778 28.4766 996.039 28.4766V30.4766V32.4766C997.727 32.4766 998.726 33.0301 999.392 33.9633C1000.15 35.0204 1000.68 36.8522 1000.68 39.7734H1002.68ZM996.039 30.4766V28.4766C993.311 28.4766 990.994 29.5597 989.235 31.65L990.766 32.9375L992.296 34.225C993.298 33.034 994.497 32.4766 996.039 32.4766V30.4766ZM990.766 32.9375L989.235 31.65C987.499 33.7132 986.695 36.2785 986.695 39.1875H988.695H990.695C990.695 37.0444 991.271 35.443 992.296 34.225L990.766 32.9375ZM988.695 39.1875H986.695V62H988.695H990.695V39.1875H988.695ZM988.695 62V60H976.352V62V64H988.695V62ZM976.352 62H978.352V22H976.352H974.352V62H976.352ZM976.352 22V24H988.695V22V20H976.352V22ZM988.695 22H986.695V28.3281H988.695H990.695V22H988.695ZM988.695 28.3281V30.3281H988.852V28.3281V26.3281H988.695V28.3281ZM988.852 28.3281L990.563 29.3625C993.149 25.0836 996.788 23.0234 1001.7 23.0234V21.0234V19.0234C995.368 19.0234 990.44 21.8331 987.14 27.2938L988.852 28.3281ZM1001.7 21.0234V23.0234C1005.69 23.0234 1008.37 24.2404 1010.11 26.3993C1011.91 28.6408 1012.98 32.2292 1012.98 37.5078H1014.98H1016.98C1016.98 31.7968 1015.84 27.1431 1013.22 23.8897C1010.53 20.5539 1006.57 19.0234 1001.7 19.0234V21.0234ZM1014.98 37.5078H1012.98V62H1014.98H1016.98V37.5078H1014.98ZM1057.56 74.6562L1056.19 73.2029L1056.18 73.2073L1057.56 74.6562ZM1026.08 78.4844H1024.08V79.7343L1025.2 80.2821L1026.08 78.4844ZM1026.08 68.0938L1027.08 66.3654L1024.08 64.6148V68.0938H1026.08ZM1048.23 68.3672L1046.85 66.9204L1046.84 66.9287L1048.23 68.3672ZM1051.66 56.2578H1053.66V54.2578H1051.66V56.2578ZM1051.51 56.2578V54.2578H1050.4L1049.81 55.1943L1051.51 56.2578ZM1026.9 57.5859L1025.36 58.8663L1026.9 57.5859ZM1051.51 26.6484L1049.83 27.7335L1050.42 28.6484H1051.51V26.6484ZM1051.66 26.6484V28.6484H1053.66V26.6484H1051.66ZM1051.66 22V20H1049.66V22H1051.66ZM1064.01 22H1066.01V20H1064.01V22ZM1049.55 33.1719L1048.01 34.4456L1048.02 34.4578L1048.03 34.4698L1049.55 33.1719ZM1037.17 50.6328L1035.58 51.843L1035.59 51.8533L1037.17 50.6328ZM1049.44 50.5938L1047.88 49.3419L1047.88 49.3444L1049.44 50.5938ZM1064.01 57.4297H1062.01C1062.01 64.451 1059.99 69.6098 1056.19 73.203L1057.56 74.6562L1058.94 76.1095C1063.73 71.5777 1066.01 65.2521 1066.01 57.4297H1064.01ZM1057.56 74.6562L1056.18 73.2073C1052.38 76.8274 1046.72 78.7891 1038.89 78.7891V80.7891V82.7891C1047.36 82.7891 1054.15 80.6622 1058.94 76.1052L1057.56 74.6562ZM1038.89 80.7891V78.7891C1033.66 78.7891 1029.73 78.0376 1026.95 76.6867L1026.08 78.4844L1025.2 80.2821C1028.73 82.004 1033.34 82.7891 1038.89 82.7891V80.7891ZM1026.08 78.4844H1028.08V68.0938H1026.08H1024.08V78.4844H1026.08ZM1026.08 68.0938L1025.07 69.8221C1029.45 72.3713 1033.95 73.6875 1038.54 73.6875V71.6875V69.6875C1034.75 69.6875 1030.94 68.6079 1027.08 66.3654L1026.08 68.0938ZM1038.54 71.6875V73.6875C1043.06 73.6875 1046.85 72.4798 1049.62 69.8057L1048.23 68.3672L1046.84 66.9287C1045.02 68.6817 1042.35 69.6875 1038.54 69.6875V71.6875ZM1048.23 68.3672L1049.61 69.8139C1052.37 67.1773 1053.66 63.6311 1053.66 59.4219H1051.66H1049.66C1049.66 62.7647 1048.67 65.1821 1046.85 66.9205L1048.23 68.3672ZM1051.66 59.4219H1053.66V56.2578H1051.66H1049.66V59.4219H1051.66ZM1051.66 56.2578V54.2578H1051.51V56.2578V58.2578H1051.66V56.2578ZM1051.51 56.2578L1049.81 55.1943C1047.38 59.0637 1043.89 60.9766 1039.05 60.9766V62.9766V64.9766C1045.2 64.9766 1050.01 62.4102 1053.2 57.3214L1051.51 56.2578ZM1039.05 62.9766V60.9766C1034.47 60.9766 1031.01 59.3982 1028.43 56.3056L1026.9 57.5859L1025.36 58.8663C1028.77 62.9612 1033.41 64.9766 1039.05 64.9766V62.9766ZM1026.9 57.5859L1028.43 56.3056C1025.82 53.1651 1024.41 48.8454 1024.41 43.1328H1022.41H1020.41C1020.41 49.5036 1021.99 54.8193 1025.36 58.8663L1026.9 57.5859ZM1022.41 43.1328H1024.41C1024.41 36.6867 1025.99 31.8107 1028.94 28.2833L1027.41 27L1025.87 25.7167C1022.16 30.158 1020.41 36.0372 1020.41 43.1328H1022.41ZM1027.41 27L1028.94 28.2833C1031.87 24.7775 1035.69 23.0234 1040.57 23.0234V21.0234V19.0234C1034.57 19.0234 1029.61 21.2538 1025.87 25.7167L1027.41 27ZM1040.57 21.0234V23.0234C1044.83 23.0234 1047.81 24.613 1049.83 27.7335L1051.51 26.6484L1053.19 25.5634C1050.36 21.1839 1046.05 19.0234 1040.57 19.0234V21.0234ZM1051.51 26.6484V28.6484H1051.66V26.6484V24.6484H1051.51V26.6484ZM1051.66 26.6484H1053.66V22H1051.66H1049.66V26.6484H1051.66ZM1051.66 22V24H1064.01V22V20H1051.66V22ZM1064.01 22H1062.01V57.4297H1064.01H1066.01V22H1064.01ZM1051.82 42.7812H1053.82V39.6172H1051.82H1049.82V42.7812H1051.82ZM1051.82 39.6172H1053.82C1053.82 36.6591 1052.92 34.0387 1051.08 31.874L1049.55 33.1719L1048.03 34.4698C1049.21 35.8467 1049.82 37.5232 1049.82 39.6172H1051.82ZM1049.55 33.1719L1051.1 31.8981C1049.22 29.6267 1046.71 28.4766 1043.73 28.4766V30.4766V32.4766C1045.55 32.4766 1046.92 33.1233 1048.01 34.4456L1049.55 33.1719ZM1043.73 30.4766V28.4766C1040.39 28.4766 1037.63 29.8286 1035.68 32.4987L1037.29 33.6797L1038.9 34.8607C1040.07 33.26 1041.61 32.4766 1043.73 32.4766V30.4766ZM1037.29 33.6797L1035.68 32.4987C1033.77 35.1033 1032.95 38.5876 1032.95 42.7031H1034.95H1036.95C1036.95 39.0582 1037.68 36.5269 1038.9 34.8607L1037.29 33.6797ZM1034.95 42.7031H1032.95C1032.95 46.3186 1033.75 49.4359 1035.58 51.843L1037.17 50.6328L1038.76 49.4226C1037.62 47.9235 1036.95 45.7543 1036.95 42.7031H1034.95ZM1037.17 50.6328L1035.59 51.8533C1037.48 54.3051 1040.11 55.5234 1043.27 55.5234V53.5234V51.5234C1041.26 51.5234 1039.84 50.8147 1038.76 49.4124L1037.17 50.6328ZM1043.27 53.5234V55.5234C1046.41 55.5234 1049.05 54.2818 1051 51.8431L1049.44 50.5938L1047.88 49.3444C1046.7 50.8119 1045.22 51.5234 1043.27 51.5234V53.5234ZM1049.44 50.5938L1051 51.8456C1052.94 49.4241 1053.82 46.3395 1053.82 42.7812H1051.82H1049.82C1049.82 45.6814 1049.11 47.805 1047.88 49.3419L1049.44 50.5938Z" fill="url(#paint0_linear_3102_13540)" mask="url(#path-1-outside-1_3102_13540)"/>
<defs>
<linearGradient id="paint0_linear_3102_13540" x1="545.025" y1="-38" x2="544.963" y2="95" gradientUnits="userSpaceOnUse">
<stop offset="0.427887" stop-color="#E1ECF3"/>
<stop offset="0.858273" stop-color="white"/>
</linearGradient>
</defs>
</svg>
