<svg width="116" height="184" viewBox="0 0 116 184" fill="none" xmlns="http://www.w3.org/2000/svg">
<path d="M62.1708 108.054C59.6736 108.054 57.6367 110.091 57.6367 112.599C57.6367 115.108 59.6736 117.145 62.1708 117.145C64.6738 117.145 66.705 115.108 66.705 112.599C66.705 110.091 64.6738 108.054 62.1708 108.054Z" fill="#28C878"/>
<path d="M62.1708 170.179C59.6736 170.179 57.6367 172.222 57.6367 174.731C57.6367 177.234 59.6736 179.276 62.1708 179.276C64.6738 179.276 66.705 177.234 66.705 174.731C66.705 172.222 64.6738 170.179 62.1708 170.179Z" fill="#28C878"/>
<path d="M62.1708 138.372C59.6736 138.372 57.6367 140.408 57.6367 142.917C57.6367 145.42 59.6736 147.463 62.1708 147.463C64.6738 147.463 66.705 145.42 66.705 142.917C66.705 140.408 64.6738 138.372 62.1708 138.372Z" fill="#28C878"/>
<mask id="mask0_3281_11895" style="mask-type:luminance" maskUnits="userSpaceOnUse" x="0" y="0" width="116" height="184">
<path d="M0 0H116V183.39H0V0Z" fill="white"/>
</mask>
<g mask="url(#mask0_3281_11895)">
<path d="M107.478 115.701C106.724 109.7 104.653 104.09 101.477 99.4634C100.13 97.5243 98.6977 95.8154 97.0923 94.2446C91.7411 88.9855 85.9239 86.494 81.735 85.3087C81.056 83.4732 79.2838 79.8482 75.2675 77.6386C73.3572 76.5799 71.4872 76.1599 69.9796 76.016V75.8434C72.4481 73.6511 74.3239 70.7684 75.4171 67.4656C75.9235 65.9696 76.4011 64.3815 76.8556 62.7646C76.8614 62.7646 76.8671 62.7646 76.8729 62.7646C81.3264 62.7646 85.3082 59.5194 86.062 55.0428C86.4647 52.6837 85.9181 50.2728 84.5659 48.2991C85.3715 46.1069 85.9354 43.8168 86.2058 41.4807C86.3899 39.8005 86.4245 38.1031 86.3209 36.423H105.562C106.385 36.423 107.185 36.1353 107.806 35.6059L111.903 32.1765C113.054 31.2156 113.474 29.6793 112.956 28.2638C112.45 26.8484 111.155 25.9335 109.659 25.9335H83.5935C83.5878 23.5398 83.2598 21.1519 82.5751 18.8158C79.3471 7.843 69.2143 0.178711 57.9423 0.178711C46.6703 0.178711 36.5433 7.843 33.3096 18.8158C32.6306 21.1519 32.3026 23.5398 32.2911 25.9335H6.24291C4.74113 25.9335 3.44073 26.8484 2.92863 28.2638C2.41652 29.6793 2.83081 31.2099 3.9816 32.1765L8.09569 35.6174C8.73438 36.1353 9.53418 36.423 10.3397 36.423H29.581C29.5465 38.1549 29.5983 39.9099 29.8112 41.6878C30.0931 43.9319 30.5937 46.1357 31.2784 48.2646C29.909 50.244 29.3451 52.6664 29.7479 55.037C30.5074 59.5194 34.4834 62.7646 38.9427 62.7646C38.9715 62.7646 39.0003 62.7589 39.029 62.7589C39.4548 64.2952 39.9209 65.843 40.4675 67.4656C41.5723 70.7511 43.4538 73.5878 45.8762 75.7686V76.016C44.3687 76.1656 42.4929 76.5857 40.5883 77.6386C36.6124 79.8309 34.8344 83.3984 34.1324 85.3029C29.9435 86.494 24.1205 88.9797 18.7693 94.2446C17.1639 95.8154 15.7255 97.5243 14.3733 99.4692C11.2028 104.09 9.13141 109.705 8.38339 115.701L0.0113654 181.578C-0.04042 181.993 0.086167 182.407 0.362357 182.723C0.638548 183.034 1.03557 183.212 1.44986 183.212H114.406C114.826 183.212 115.223 183.034 115.494 182.718C115.77 182.407 115.896 181.987 115.844 181.573L107.478 115.701ZM57.9308 99.6533C56.5729 98.2839 55.4796 96.7245 54.7028 94.9753C53.7304 92.8234 53.2643 90.4872 53.3104 88.0361C53.3104 88.013 53.2989 87.99 53.2989 87.967C53.2989 87.898 53.2816 87.8404 53.2701 87.7771C53.2528 87.6678 53.2298 87.5642 53.1895 87.4607C53.1608 87.3974 53.132 87.3398 53.0975 87.2823C53.0687 87.2305 53.0514 87.1787 53.0169 87.1384L48.7762 81.465V77.9033C49.0639 78.0644 49.3344 78.2428 49.6336 78.3982C52.1884 79.687 55.0596 80.366 57.9423 80.366C60.8251 80.366 63.702 79.687 66.2511 78.3982C66.5387 78.2543 66.8034 78.0817 67.0796 77.9206V81.465L62.8389 87.1327C62.8044 87.1787 62.7929 87.2305 62.7641 87.2823C62.7296 87.3398 62.6951 87.3974 62.6721 87.4607C62.6261 87.5585 62.603 87.6678 62.5858 87.7771C62.5743 87.8404 62.5628 87.898 62.557 87.9613C62.557 87.9843 62.5513 88.013 62.5513 88.0361C62.5973 90.4872 62.1255 92.8234 61.153 94.9811C60.382 96.7245 59.2887 98.2839 57.9308 99.6533ZM42.8324 96.1837C42.8209 93.019 43.2524 90.4412 44.1098 88.623C44.8635 87.0003 45.8935 85.5043 47.1651 84.1521L50.0018 87.9382L42.8324 96.1837ZM68.7022 84.1406C69.9393 85.4468 70.9693 86.9486 71.7518 88.6287C72.6092 90.4412 73.035 93.0132 73.0235 96.1779L65.8598 87.9382L68.7022 84.1406ZM83.208 54.5537C82.7304 57.3732 80.3828 59.4618 77.6324 59.7898C78.1503 57.7241 78.6278 55.6009 79.0249 53.4087C79.3528 51.5386 79.6118 49.6916 79.8304 47.8676C80.5842 48.2646 81.2747 48.794 81.827 49.4672C83.0124 50.8999 83.513 52.7527 83.208 54.5537ZM83.3288 41.1527C83.1332 42.7984 82.7822 44.421 82.2931 45.9976C81.6257 45.52 80.9064 45.1172 80.1354 44.8295C80.3943 41.987 80.5151 39.1734 80.5266 36.423H83.4151C83.5245 37.9938 83.4957 39.5819 83.3288 41.1527ZM57.9423 3.08447C67.2925 3.08447 75.7509 9.03407 79.1572 17.7686H36.7274C40.1338 9.03407 48.5979 3.08447 57.9423 3.08447ZM9.93696 33.3791L5.84014 29.9497C5.54668 29.7023 5.59847 29.4089 5.65025 29.2535C5.70779 29.1039 5.8574 28.8392 6.24291 28.8392H109.659C110.033 28.8392 110.183 29.0982 110.24 29.2535C110.292 29.4031 110.344 29.7023 110.05 29.944L105.948 33.3791C105.844 33.4654 105.7 33.5172 105.562 33.5172H10.3397C10.1556 33.5172 10.006 33.4309 9.93696 33.3791ZM35.3637 36.423C35.3695 39.1676 35.4961 41.9698 35.7493 44.8065C34.984 45.0884 34.2705 45.4682 33.6088 45.9343C33.2003 44.4267 32.8895 42.8904 32.6939 41.3311C32.4925 39.674 32.4407 38.0341 32.4753 36.423H35.3637ZM32.6076 54.5537C32.3026 52.7527 32.809 50.8999 34.0173 49.4499C34.5697 48.771 35.2717 48.2301 36.0542 47.8331C36.2729 49.6628 36.5318 51.5271 36.8655 53.4144C37.2741 55.6412 37.7459 57.7587 38.258 59.8013C35.4731 59.5021 33.0909 57.4019 32.6076 54.5537ZM43.2122 66.5335C42.5505 64.5714 41.9923 62.7128 41.4975 60.837C40.8243 58.3571 40.2258 55.6872 39.7195 52.9023C39.288 50.4626 38.9485 48.046 38.7183 45.7214C38.4018 42.5682 38.2695 39.4611 38.258 36.423H77.6324C77.6209 39.4611 77.4885 42.5682 77.1663 45.7214C76.9362 48.046 76.6024 50.4626 76.1709 52.8966C75.676 55.6412 75.0719 58.3168 74.3872 60.8543C73.8578 62.8279 73.2824 64.744 72.6725 66.545C71.6713 69.5716 69.9221 72.1724 67.609 74.0712C66.8034 74.7386 65.9116 75.3198 64.9564 75.7974C60.6467 77.9724 55.238 77.9666 50.9397 75.8031C49.9616 75.3025 49.0639 74.7156 48.2641 74.0424C45.9741 72.1551 44.2306 69.5543 43.2122 66.5335ZM11.2546 116.064C11.9508 110.523 13.8497 105.355 16.7612 101.126C17.9983 99.3368 19.3159 97.766 20.7947 96.3218C25.0584 92.1271 29.6443 89.8543 33.2981 88.6115C28.2633 111.437 25.7086 128.17 25.7086 138.337C25.7086 146.088 27.1241 150.265 30.1737 151.485C30.7203 151.704 31.3014 151.813 31.9114 151.813C33.7929 151.813 35.9737 150.777 38.5169 148.683C39.3512 147.992 40.5193 147.791 41.6356 148.136C42.5044 148.412 43.402 148.551 44.3169 148.551C45.9165 148.551 47.4241 147.941 48.5691 146.836C49.7199 145.72 50.3759 144.224 50.4161 142.63C50.629 133.717 49.5473 125.385 47.2054 117.876C44.8693 110.373 44.8693 110.373 44.2133 107.398C43.661 104.815 43.2812 102.45 43.0741 100.321L50.6981 91.5575C50.9628 93.1513 51.4001 94.6992 52.0618 96.1664C53.0457 98.3817 54.4612 100.338 56.2334 102.035C55.5372 103.785 54.8352 105.54 54.1332 107.289L53.5751 108.67C53.506 108.842 53.4715 109.027 53.4715 109.216V180.307H22.4806V121.317C22.4806 120.511 21.8304 119.861 21.0364 119.861C20.2366 119.861 19.5864 120.511 19.5864 121.317V171.123C19.2469 170.467 18.8901 169.829 18.4989 169.202C17.3366 167.303 15.9038 165.513 14.2409 163.885C13.6655 163.327 12.7507 163.332 12.1925 163.908C11.6344 164.483 11.6459 165.404 12.2155 165.962C13.7058 167.424 14.9947 169.029 16.0362 170.732C17.8199 173.603 18.9764 176.906 19.4655 180.307H3.09549L11.2546 116.064ZM96.3961 180.307C96.8852 176.9 98.0417 173.603 99.8255 170.726C100.867 169.029 102.156 167.424 103.646 165.962C104.221 165.404 104.233 164.483 103.669 163.908C103.117 163.332 102.196 163.327 101.626 163.885C99.9635 165.513 98.5251 167.303 97.3628 169.196C96.9772 169.823 96.6147 170.467 96.281 171.123V121.317C96.281 120.511 95.6308 119.861 94.831 119.861C94.0312 119.861 93.381 120.511 93.381 121.317V180.307H56.3657V109.493L56.8145 108.376C57.6028 106.42 58.3854 104.469 59.1622 102.507C61.1645 100.712 62.7239 98.5831 63.7941 96.1722C64.4616 94.6992 64.8989 93.1513 65.1636 91.5575L72.7876 100.321C72.5804 102.444 72.2007 104.809 71.6483 107.387C71.3893 108.555 71.2052 109.343 71.1016 109.769C67.4306 125.281 68.9612 143.021 71.7461 146.951C72.2755 147.705 72.9141 148.125 73.6219 148.194C74.0304 148.24 74.3872 148.177 74.7324 148.119C75.1122 148.05 75.5034 147.981 76.1076 148.038C76.4413 148.067 76.8556 148.28 77.3447 148.689C79.888 150.777 82.063 151.813 83.9445 151.813C84.5602 151.813 85.1413 151.704 85.6937 151.485C88.7376 150.265 90.153 146.088 90.153 138.337C90.153 128.181 87.5983 111.472 82.5578 88.6057C86.2116 89.8543 90.7975 92.1271 95.0669 96.3218C96.5399 97.766 97.8633 99.3368 99.0947 101.121C102.006 105.355 103.911 110.523 104.601 116.069L112.766 180.307H96.3961Z" fill="#28C878"/>
</g>
</svg>
