<svg width="100" height="100" viewBox="0 0 100 100" fill="none" xmlns="http://www.w3.org/2000/svg">
<path d="M52.084 95.8334L45.834 89.5834L52.084 83.3334L58.334 89.5834L52.084 95.8334ZM37.709 89.5834L33.334 85.2084L45.6257 72.9167L50.0007 77.2917L37.709 89.5834ZM64.584 83.3334L58.334 77.0834L64.584 70.8334L70.834 77.0834L64.584 83.3334ZM27.084 83.3334L20.834 77.0834L27.084 70.8334L33.334 77.0834L27.084 83.3334ZM31.2507 66.6667C24.9312 66.6667 19.5326 64.4278 15.0548 59.95C10.577 55.4723 8.33676 50.0723 8.33398 43.75C8.33398 37.9862 10.2437 32.9514 14.0632 28.6459C17.8826 24.3403 22.6048 21.8056 28.2298 21.0417C30.452 17.0834 33.4909 13.975 37.3465 11.7167C41.202 9.45838 45.4201 8.3306 50.0007 8.33338C56.2507 8.33338 61.6854 10.3306 66.3048 14.325C70.9243 18.3195 73.7187 23.3014 74.6882 29.2709C79.4798 29.6875 83.5076 31.6667 86.7715 35.2084C90.0354 38.75 91.6673 42.9862 91.6673 47.9167C91.6673 53.125 89.8451 57.5528 86.2007 61.2C82.5562 64.8473 78.1284 66.6695 72.9173 66.6667H31.2507Z" fill="white"/>
</svg>
