<svg width="496" height="65" viewBox="0 0 496 65" fill="none" xmlns="http://www.w3.org/2000/svg">
<mask id="path-1-outside-1_3102_13952" maskUnits="userSpaceOnUse" x="0" y="0" width="496" height="65" fill="black">
<rect fill="white" width="496" height="65"/>
<path d="M81.6875 5.98438L66.8828 62H52.8984L43.6016 26.0625C43.1068 24.1875 42.8073 22.0911 42.7031 19.7734H42.5469C42.3125 22.3255 41.974 24.4219 41.5312 26.0625L32 62H17.4297L2.70312 5.98438H16.4922L24.3828 43.2891C24.7214 44.8776 24.9688 47.013 25.125 49.6953H25.3594C25.4635 47.6901 25.8411 45.5026 26.4922 43.1328L36.6484 5.98438H50.1641L59.3438 43.6016C59.6823 44.9818 59.9818 46.987 60.2422 49.6172H60.3984C60.5026 47.5599 60.776 45.4766 61.2188 43.3672L68.9531 5.98438H81.6875ZM125.984 62H113.68V39.2656C113.68 33.4062 111.544 30.4766 107.273 30.4766C105.086 30.4766 103.315 31.2969 101.961 32.9375C100.607 34.5781 99.9297 36.6615 99.9297 39.1875V62H87.5859V2.78125H99.9297V27.9375H100.086C103.107 23.3281 107.208 21.0234 112.391 21.0234C121.453 21.0234 125.984 26.4922 125.984 37.4297V62ZM169.07 62H157.391V56.2578H157.234C154.552 60.737 150.581 62.9766 145.32 62.9766C141.44 62.9766 138.38 61.8828 136.141 59.6953C133.927 57.4818 132.82 54.5391 132.82 50.8672C132.82 43.1068 137.417 38.6276 146.609 37.4297L157.469 35.9844C157.469 31.6094 155.099 29.4219 150.359 29.4219C145.594 29.4219 141.062 30.8411 136.766 33.6797V24.3828C138.484 23.4974 140.828 22.7161 143.797 22.0391C146.792 21.362 149.513 21.0234 151.961 21.0234C163.367 21.0234 169.07 26.7135 169.07 38.0938V62ZM157.469 45.75V43.0547L150.203 43.9922C146.193 44.513 144.188 46.3229 144.188 49.4219C144.188 50.8281 144.669 51.987 145.633 52.8984C146.622 53.7839 147.951 54.2266 149.617 54.2266C151.935 54.2266 153.823 53.4323 155.281 51.8438C156.74 50.2292 157.469 48.1979 157.469 45.75ZM203.016 61.5312C201.193 62.4948 198.445 62.9766 194.773 62.9766C186.076 62.9766 181.727 58.4583 181.727 49.4219V31.1016H175.242V22H181.727V13.3672L194.031 9.85156V22H203.016V31.1016H194.031V47.2734C194.031 51.4401 195.685 53.5234 198.992 53.5234C200.294 53.5234 201.635 53.1458 203.016 52.3906V61.5312ZM221.609 5.28125L220.398 22.5469H212.586L211.453 5.28125H221.609ZM226.844 60.9453V50.9453C228.875 52.1693 230.893 53.0807 232.898 53.6797C234.93 54.2786 236.844 54.5781 238.641 54.5781C240.828 54.5781 242.547 54.2786 243.797 53.6797C245.073 53.0807 245.711 52.1693 245.711 50.9453C245.711 50.1641 245.424 49.513 244.852 48.9922C244.279 48.4714 243.536 48.0156 242.625 47.625C241.74 47.2344 240.763 46.8828 239.695 46.5703C238.628 46.2578 237.599 45.9062 236.609 45.5156C235.021 44.9167 233.615 44.2786 232.391 43.6016C231.193 42.8984 230.177 42.0911 229.344 41.1797C228.536 40.2682 227.911 39.2135 227.469 38.0156C227.052 36.8177 226.844 35.3984 226.844 33.7578C226.844 31.5182 227.326 29.5911 228.289 27.9766C229.279 26.362 230.581 25.0469 232.195 24.0312C233.836 22.9896 235.698 22.2344 237.781 21.7656C239.891 21.2708 242.078 21.0234 244.344 21.0234C246.115 21.0234 247.911 21.1667 249.734 21.4531C251.557 21.7135 253.354 22.1042 255.125 22.625V32.1562C253.562 31.2448 251.883 30.5677 250.086 30.125C248.315 29.6562 246.57 29.4219 244.852 29.4219C244.044 29.4219 243.276 29.5 242.547 29.6562C241.844 29.7865 241.219 29.9948 240.672 30.2812C240.125 30.5417 239.695 30.8932 239.383 31.3359C239.07 31.7526 238.914 32.2344 238.914 32.7812C238.914 33.5104 239.148 34.1354 239.617 34.6562C240.086 35.1771 240.698 35.6328 241.453 36.0234C242.208 36.388 243.042 36.7266 243.953 37.0391C244.891 37.3255 245.815 37.625 246.727 37.9375C248.367 38.5104 249.852 39.1354 251.18 39.8125C252.508 40.4896 253.641 41.2839 254.578 42.1953C255.542 43.1068 256.271 44.1745 256.766 45.3984C257.286 46.6224 257.547 48.0807 257.547 49.7734C257.547 52.1432 257.026 54.1745 255.984 55.8672C254.969 57.5339 253.602 58.901 251.883 59.9688C250.19 61.0104 248.224 61.7656 245.984 62.2344C243.771 62.7292 241.466 62.9766 239.07 62.9766C234.669 62.9766 230.594 62.2995 226.844 60.9453ZM338.406 62H325.672L302.586 26.8047C301.232 24.7474 300.294 23.1979 299.773 22.1562H299.617C299.826 24.1354 299.93 27.1562 299.93 31.2188V62H288.016V5.98438H301.609L323.836 40.0859C324.852 41.6224 325.789 43.1458 326.648 44.6562H326.805C326.596 43.3542 326.492 40.7891 326.492 36.9609V5.98438H338.406V62ZM385.945 45.5156H359.852C360.268 51.3229 363.927 54.2266 370.828 54.2266C375.229 54.2266 379.096 53.1849 382.43 51.1016V60.0078C378.732 61.987 373.927 62.9766 368.016 62.9766C361.557 62.9766 356.544 61.1927 352.977 57.625C349.409 54.0312 347.625 49.0312 347.625 42.625C347.625 35.9844 349.552 30.724 353.406 26.8438C357.26 22.9635 362 21.0234 367.625 21.0234C373.458 21.0234 377.964 22.7552 381.141 26.2188C384.344 29.6823 385.945 34.3828 385.945 40.3203V45.5156ZM374.5 37.9375C374.5 32.2083 372.182 29.3438 367.547 29.3438C365.568 29.3438 363.849 30.1641 362.391 31.8047C360.958 33.4453 360.086 35.4896 359.773 37.9375H374.5ZM431.922 22L418.719 41.375L431.844 62H417.625L411.844 51.2188C411.375 50.3594 410.815 49.1484 410.164 47.5859H410.008C409.617 48.6797 409.083 49.8516 408.406 51.1016L402.586 62H388.406L401.922 42.0781L389.227 22H403.523L409.227 33.2109C409.982 34.6953 410.516 35.9453 410.828 36.9609H410.984C411.401 35.737 411.961 34.4609 412.664 33.1328L418.484 22H431.922ZM461.688 61.5312C459.865 62.4948 457.117 62.9766 453.445 62.9766C444.747 62.9766 440.398 58.4583 440.398 49.4219V31.1016H433.914V22H440.398V13.3672L452.703 9.85156V22H461.688V31.1016H452.703V47.2734C452.703 51.4401 454.357 53.5234 457.664 53.5234C458.966 53.5234 460.307 53.1458 461.688 52.3906V61.5312ZM470.555 45.7891C470.294 45.112 470.086 44.3568 469.93 43.5234C469.799 42.6641 469.734 41.8568 469.734 41.1016C469.734 39.9036 469.852 38.8099 470.086 37.8203C470.32 36.8307 470.672 35.9062 471.141 35.0469C471.609 34.1615 472.195 33.3281 472.898 32.5469C473.602 31.7396 474.422 30.9453 475.359 30.1641C476.349 29.3307 477.208 28.5625 477.938 27.8594C478.693 27.1302 479.331 26.4141 479.852 25.7109C480.372 24.9818 480.763 24.2396 481.023 23.4844C481.284 22.7031 481.414 21.8438 481.414 20.9062C481.414 20.099 481.271 19.3568 480.984 18.6797C480.698 17.9766 480.281 17.3776 479.734 16.8828C479.214 16.388 478.562 15.9974 477.781 15.7109C477.026 15.4245 476.18 15.2812 475.242 15.2812C473.211 15.2812 471.102 15.7109 468.914 16.5703C466.727 17.4036 464.656 18.6797 462.703 20.3984V8.64062C464.708 7.44271 466.896 6.54427 469.266 5.94531C471.635 5.34635 474.083 5.04688 476.609 5.04688C479.031 5.04688 481.284 5.32031 483.367 5.86719C485.451 6.38802 487.26 7.22135 488.797 8.36719C490.359 9.51302 491.57 10.9844 492.43 12.7812C493.315 14.5521 493.758 16.6875 493.758 19.1875C493.758 20.776 493.576 22.2214 493.211 23.5234C492.846 24.7995 492.312 26.0104 491.609 27.1562C490.906 28.3021 490.034 29.4089 488.992 30.4766C487.951 31.5182 486.753 32.599 485.398 33.7188C484.487 34.474 483.68 35.1771 482.977 35.8281C482.299 36.4792 481.727 37.1302 481.258 37.7812C480.815 38.4062 480.477 39.0833 480.242 39.8125C480.008 40.5156 479.891 41.3229 479.891 42.2344C479.891 42.8594 479.969 43.4974 480.125 44.1484C480.307 44.7995 480.542 45.3464 480.828 45.7891H470.555ZM476.258 62.8984C474.174 62.8984 472.443 62.2734 471.062 61.0234C469.682 59.7214 468.992 58.1849 468.992 56.4141C468.992 54.5911 469.682 53.0677 471.062 51.8438C472.443 50.6198 474.174 50.0078 476.258 50.0078C478.315 50.0078 480.021 50.6198 481.375 51.8438C482.729 53.0417 483.406 54.5651 483.406 56.4141C483.406 58.2891 482.742 59.8385 481.414 61.0625C480.06 62.2865 478.341 62.8984 476.258 62.8984Z"/>
</mask>
<path d="M81.6875 5.98438L83.6211 6.49542L84.2848 3.98438H81.6875V5.98438ZM66.8828 62V64H68.4229L68.8164 62.511L66.8828 62ZM52.8984 62L50.9622 62.5009L51.35 64H52.8984V62ZM43.6016 26.0625L45.5378 25.5616L45.5354 25.5522L43.6016 26.0625ZM42.7031 19.7734L44.7011 19.6836L44.6153 17.7734H42.7031V19.7734ZM42.5469 19.7734V17.7734H40.7221L40.5553 19.5905L42.5469 19.7734ZM41.5312 26.0625L39.6003 25.5415L39.5981 25.5498L41.5312 26.0625ZM32 62V64H33.5387L33.9332 62.5127L32 62ZM17.4297 62L15.4954 62.5085L15.8875 64H17.4297V62ZM2.70312 5.98438V3.98438H0.109361L0.768854 6.4929L2.70312 5.98438ZM16.4922 5.98438L18.4489 5.5705L18.1134 3.98438H16.4922V5.98438ZM24.3828 43.2891L22.4261 43.7029L22.4267 43.7059L24.3828 43.2891ZM25.125 49.6953L23.1284 49.8116L23.2381 51.6953H25.125V49.6953ZM25.3594 49.6953V51.6953H27.2582L27.3567 49.7991L25.3594 49.6953ZM26.4922 43.1328L28.4207 43.6626L28.4214 43.6602L26.4922 43.1328ZM36.6484 5.98438V3.98438H35.1218L34.7192 5.45694L36.6484 5.98438ZM50.1641 5.98438L52.107 5.51023L51.7347 3.98438H50.1641V5.98438ZM59.3438 43.6016L57.4008 44.0757L57.4013 44.078L59.3438 43.6016ZM60.2422 49.6172L58.2519 49.8142L58.4304 51.6172H60.2422V49.6172ZM60.3984 49.6172V51.6172H62.2997L62.3959 49.7183L60.3984 49.6172ZM61.2188 43.3672L63.1761 43.778L63.1773 43.7724L61.2188 43.3672ZM68.9531 5.98438V3.98438H67.3246L66.9946 5.57916L68.9531 5.98438ZM81.6875 5.98438L79.7539 5.47333L64.9492 61.489L66.8828 62L68.8164 62.511L83.6211 6.49542L81.6875 5.98438ZM66.8828 62V60H52.8984V62V64H66.8828V62ZM52.8984 62L54.8347 61.4991L45.5378 25.5616L43.6016 26.0625L41.6653 26.5634L50.9622 62.5009L52.8984 62ZM43.6016 26.0625L45.5354 25.5522C45.0831 23.8384 44.8001 21.8861 44.7011 19.6836L42.7031 19.7734L40.7051 19.8632C40.8145 22.2962 41.1304 24.5366 41.6678 26.5728L43.6016 26.0625ZM42.7031 19.7734V17.7734H42.5469V19.7734V21.7734H42.7031V19.7734ZM42.5469 19.7734L40.5553 19.5905C40.3267 22.0796 40.0022 24.0521 39.6003 25.5415L41.5312 26.0625L43.4622 26.5835C43.9457 24.7916 44.2983 22.5714 44.5385 19.9563L42.5469 19.7734ZM41.5312 26.0625L39.5981 25.5498L30.0668 61.4873L32 62L33.9332 62.5127L43.4644 26.5752L41.5312 26.0625ZM32 62V60H17.4297V62V64H32V62ZM17.4297 62L19.364 61.4915L4.6374 5.47585L2.70312 5.98438L0.768854 6.4929L15.4954 62.5085L17.4297 62ZM2.70312 5.98438V7.98438H16.4922V5.98438V3.98438H2.70312V5.98438ZM16.4922 5.98438L14.5355 6.39825L22.4261 43.7029L24.3828 43.2891L26.3395 42.8752L18.4489 5.5705L16.4922 5.98438ZM24.3828 43.2891L22.4267 43.7059C22.735 45.1525 22.9747 47.1742 23.1284 49.8116L25.125 49.6953L27.1216 49.579C26.9628 46.8518 26.7077 44.6027 26.3389 42.8722L24.3828 43.2891ZM25.125 49.6953V51.6953H25.3594V49.6953V47.6953H25.125V49.6953ZM25.3594 49.6953L27.3567 49.7991C27.4519 47.9657 27.7998 45.923 28.4207 43.6626L26.4922 43.1328L24.5636 42.603C23.8825 45.0822 23.4752 47.4145 23.3621 49.5916L25.3594 49.6953ZM26.4922 43.1328L28.4214 43.6602L38.5776 6.51181L36.6484 5.98438L34.7192 5.45694L24.563 42.6054L26.4922 43.1328ZM36.6484 5.98438V7.98438H50.1641V5.98438V3.98438H36.6484V5.98438ZM50.1641 5.98438L48.2211 6.45852L57.4008 44.0757L59.3438 43.6016L61.2867 43.1274L52.107 5.51023L50.1641 5.98438ZM59.3438 43.6016L57.4013 44.078C57.7058 45.3192 57.9944 47.2128 58.2519 49.8142L60.2422 49.6172L62.2325 49.4201C61.9692 46.7611 61.6588 44.6443 61.2862 43.1251L59.3438 43.6016ZM60.2422 49.6172V51.6172H60.3984V49.6172V47.6172H60.2422V49.6172ZM60.3984 49.6172L62.3959 49.7183C62.4945 47.7698 62.7538 45.79 63.1761 43.778L61.2188 43.3672L59.2614 42.9564C58.7983 45.1631 58.5107 47.35 58.401 49.5161L60.3984 49.6172ZM61.2188 43.3672L63.1773 43.7724L70.9116 6.38959L68.9531 5.98438L66.9946 5.57916L59.2602 42.962L61.2188 43.3672ZM68.9531 5.98438V7.98438H81.6875V5.98438V3.98438H68.9531V5.98438ZM125.984 62V64H127.984V62H125.984ZM113.68 62H111.68V64H113.68V62ZM101.961 32.9375L103.503 34.2106L101.961 32.9375ZM99.9297 62V64H101.93V62H99.9297ZM87.5859 62H85.5859V64H87.5859V62ZM87.5859 2.78125V0.78125H85.5859V2.78125H87.5859ZM99.9297 2.78125H101.93V0.78125H99.9297V2.78125ZM99.9297 27.9375H97.9297V29.9375H99.9297V27.9375ZM100.086 27.9375V29.9375H101.166L101.759 29.0338L100.086 27.9375ZM125.984 62V60H113.68V62V64H125.984V62ZM113.68 62H115.68V39.2656H113.68H111.68V62H113.68ZM113.68 39.2656H115.68C115.68 36.1523 115.123 33.4558 113.694 31.4958C112.18 29.4181 109.919 28.4766 107.273 28.4766V30.4766V32.4766C108.899 32.4766 109.841 32.9998 110.462 33.8519C111.169 34.8216 111.68 36.5195 111.68 39.2656H113.68ZM107.273 30.4766V28.4766C104.509 28.4766 102.165 29.5486 100.418 31.6644L101.961 32.9375L103.503 34.2106C104.465 33.0452 105.663 32.4766 107.273 32.4766V30.4766ZM101.961 32.9375L100.418 31.6644C98.7154 33.7277 97.9297 36.2878 97.9297 39.1875H99.9297H101.93C101.93 37.0351 102.498 35.4285 103.503 34.2106L101.961 32.9375ZM99.9297 39.1875H97.9297V62H99.9297H101.93V39.1875H99.9297ZM99.9297 62V60H87.5859V62V64H99.9297V62ZM87.5859 62H89.5859V2.78125H87.5859H85.5859V62H87.5859ZM87.5859 2.78125V4.78125H99.9297V2.78125V0.78125H87.5859V2.78125ZM99.9297 2.78125H97.9297V27.9375H99.9297H101.93V2.78125H99.9297ZM99.9297 27.9375V29.9375H100.086V27.9375V25.9375H99.9297V27.9375ZM100.086 27.9375L101.759 29.0338C104.438 24.9456 107.932 23.0234 112.391 23.0234V21.0234V19.0234C106.484 19.0234 101.776 21.7106 98.4132 26.8412L100.086 27.9375ZM112.391 21.0234V23.0234C116.504 23.0234 119.261 24.2466 121.046 26.401C122.891 28.6275 123.984 32.1873 123.984 37.4297H125.984H127.984C127.984 31.7346 126.812 27.0912 124.126 23.849C121.38 20.5347 117.34 19.0234 112.391 19.0234V21.0234ZM125.984 37.4297H123.984V62H125.984H127.984V37.4297H125.984ZM169.07 62V64H171.07V62H169.07ZM157.391 62H155.391V64H157.391V62ZM157.391 56.2578H159.391V54.2578H157.391V56.2578ZM157.234 56.2578V54.2578H156.101L155.519 55.2303L157.234 56.2578ZM136.141 59.6953L134.726 61.1095L134.735 61.1178L134.743 61.1261L136.141 59.6953ZM146.609 37.4297L146.868 39.4129L146.873 39.4122L146.609 37.4297ZM157.469 35.9844L157.733 37.9669L159.469 37.7358V35.9844H157.469ZM136.766 33.6797H134.766V37.3979L137.868 35.3484L136.766 33.6797ZM136.766 24.3828L135.85 22.6049L134.766 23.1633V24.3828H136.766ZM143.797 22.0391L143.356 20.0883L143.352 20.0891L143.797 22.0391ZM157.469 43.0547H159.469V40.78L157.213 41.0711L157.469 43.0547ZM150.203 43.9922L149.947 42.0086L149.946 42.0088L150.203 43.9922ZM145.633 52.8984L144.258 54.3514L144.279 54.3704L144.299 54.3889L145.633 52.8984ZM155.281 51.8438L156.755 53.1963L156.76 53.1903L156.765 53.1843L155.281 51.8438ZM169.07 62V60H157.391V62V64H169.07V62ZM157.391 62H159.391V56.2578H157.391H155.391V62H157.391ZM157.391 56.2578V54.2578H157.234V56.2578V58.2578H157.391V56.2578ZM157.234 56.2578L155.519 55.2303C153.201 59.1006 149.884 60.9766 145.32 60.9766V62.9766V64.9766C151.277 64.9766 155.903 62.3734 158.95 57.2853L157.234 56.2578ZM145.32 62.9766V60.9766C141.83 60.9766 139.319 60.0043 137.538 58.2646L136.141 59.6953L134.743 61.1261C137.441 63.7614 141.05 64.9766 145.32 64.9766V62.9766ZM136.141 59.6953L137.555 58.2811C135.781 56.5072 134.82 54.1075 134.82 50.8672H132.82H130.82C130.82 54.9706 132.073 58.4563 134.726 61.1095L136.141 59.6953ZM132.82 50.8672H134.82C134.82 47.4054 135.83 44.9062 137.663 43.1199C139.541 41.2898 142.516 39.98 146.868 39.4129L146.609 37.4297L146.351 35.4465C141.51 36.0773 137.59 37.606 134.872 40.2551C132.108 42.948 130.82 46.5686 130.82 50.8672H132.82ZM146.609 37.4297L146.873 39.4122L157.733 37.9669L157.469 35.9844L157.205 34.0019L146.346 35.4472L146.609 37.4297ZM157.469 35.9844H159.469C159.469 33.4456 158.774 31.1859 157.048 29.5929C155.352 28.0278 152.999 27.4219 150.359 27.4219V29.4219V31.4219C152.459 31.4219 153.661 31.9097 154.335 32.5321C154.979 33.1266 155.469 34.1481 155.469 35.9844H157.469ZM150.359 29.4219V27.4219C145.17 27.4219 140.26 28.9745 135.663 32.0109L136.766 33.6797L137.868 35.3484C141.865 32.7077 146.018 31.4219 150.359 31.4219V29.4219ZM136.766 33.6797H138.766V24.3828H136.766H134.766V33.6797H136.766ZM136.766 24.3828L137.682 26.1608C139.191 25.3831 141.354 24.6475 144.242 23.989L143.797 22.0391L143.352 20.0891C140.302 20.7848 137.778 21.6117 135.85 22.6049L136.766 24.3828ZM143.797 22.0391L144.238 23.9898C147.123 23.3376 149.693 23.0234 151.961 23.0234V21.0234V19.0234C149.333 19.0234 146.461 19.3864 143.356 20.0883L143.797 22.0391ZM151.961 21.0234V23.0234C157.357 23.0234 161.036 24.3682 163.38 26.7068C165.724 29.0447 167.07 32.7131 167.07 38.0938H169.07H171.07C171.07 32.0942 169.565 27.2274 166.206 23.8752C162.846 20.5238 157.971 19.0234 151.961 19.0234V21.0234ZM169.07 38.0938H167.07V62H169.07H171.07V38.0938H169.07ZM157.469 45.75H159.469V43.0547H157.469H155.469V45.75H157.469ZM157.469 43.0547L157.213 41.0711L149.947 42.0086L150.203 43.9922L150.459 45.9757L157.725 45.0382L157.469 43.0547ZM150.203 43.9922L149.946 42.0088C147.726 42.2971 145.772 42.9737 144.351 44.2556C142.865 45.5973 142.188 47.3984 142.188 49.4219H144.188H146.188C146.188 48.3464 146.513 47.6931 147.031 47.2249C147.616 46.6969 148.67 46.2081 150.461 45.9755L150.203 43.9922ZM144.188 49.4219H142.188C142.188 51.3407 142.869 53.0374 144.258 54.3514L145.633 52.8984L147.007 51.4455C146.469 50.9366 146.188 50.3155 146.188 49.4219H144.188ZM145.633 52.8984L144.299 54.3889C145.742 55.68 147.589 56.2266 149.617 56.2266V54.2266V52.2266C148.312 52.2266 147.503 51.8877 146.966 51.408L145.633 52.8984ZM149.617 54.2266V56.2266C152.448 56.2266 154.887 55.2308 156.755 53.1963L155.281 51.8438L153.808 50.4912C152.759 51.6338 151.422 52.2266 149.617 52.2266V54.2266ZM155.281 51.8438L156.765 53.1843C158.598 51.1556 159.469 48.6266 159.469 45.75H157.469H155.469C155.469 47.7692 154.881 49.3028 153.797 50.5032L155.281 51.8438ZM203.016 61.5312L203.95 63.2994L205.016 62.7363V61.5312H203.016ZM181.727 31.1016H183.727V29.1016H181.727V31.1016ZM175.242 31.1016H173.242V33.1016H175.242V31.1016ZM175.242 22V20H173.242V22H175.242ZM181.727 22V24H183.727V22H181.727ZM181.727 13.3672L181.177 11.4441L179.727 11.8586V13.3672H181.727ZM194.031 9.85156H196.031V7.2001L193.482 7.92852L194.031 9.85156ZM194.031 22H192.031V24H194.031V22ZM203.016 22H205.016V20H203.016V22ZM203.016 31.1016V33.1016H205.016V31.1016H203.016ZM194.031 31.1016V29.1016H192.031V31.1016H194.031ZM203.016 52.3906H205.016V49.0165L202.056 50.6361L203.016 52.3906ZM203.016 61.5312L202.081 59.7631C200.691 60.4977 198.337 60.9766 194.773 60.9766V62.9766V64.9766C198.553 64.9766 201.694 64.4919 203.95 63.2994L203.016 61.5312ZM194.773 62.9766V60.9766C190.753 60.9766 188.1 59.9363 186.429 58.2009C184.745 56.4513 183.727 53.6505 183.727 49.4219H181.727H179.727C179.727 54.2297 180.882 58.2062 183.547 60.9749C186.226 63.7577 190.096 64.9766 194.773 64.9766V62.9766ZM181.727 49.4219H183.727V31.1016H181.727H179.727V49.4219H181.727ZM181.727 31.1016V29.1016H175.242V31.1016V33.1016H181.727V31.1016ZM175.242 31.1016H177.242V22H175.242H173.242V31.1016H175.242ZM175.242 22V24H181.727V22V20H175.242V22ZM181.727 22H183.727V13.3672H181.727H179.727V22H181.727ZM181.727 13.3672L182.276 15.2902L194.581 11.7746L194.031 9.85156L193.482 7.92852L181.177 11.4441L181.727 13.3672ZM194.031 9.85156H192.031V22H194.031H196.031V9.85156H194.031ZM194.031 22V24H203.016V22V20H194.031V22ZM203.016 22H201.016V31.1016H203.016H205.016V22H203.016ZM203.016 31.1016V29.1016H194.031V31.1016V33.1016H203.016V31.1016ZM194.031 31.1016H192.031V47.2734H194.031H196.031V31.1016H194.031ZM194.031 47.2734H192.031C192.031 49.5677 192.478 51.658 193.705 53.2043C195.002 54.8388 196.892 55.5234 198.992 55.5234V53.5234V51.5234C197.785 51.5234 197.194 51.1664 196.838 50.7175C196.412 50.1805 196.031 49.1458 196.031 47.2734H194.031ZM198.992 53.5234V55.5234C200.693 55.5234 202.362 55.0281 203.976 54.1451L203.016 52.3906L202.056 50.6361C200.909 51.2636 199.895 51.5234 198.992 51.5234V53.5234ZM203.016 52.3906H201.016V61.5312H203.016H205.016V52.3906H203.016ZM221.609 5.28125L223.604 5.42118L223.755 3.28125H221.609V5.28125ZM220.398 22.5469V24.5469H222.263L222.394 22.6868L220.398 22.5469ZM212.586 22.5469L210.59 22.6778L210.713 24.5469H212.586V22.5469ZM211.453 5.28125V3.28125H209.318L209.457 5.41219L211.453 5.28125ZM221.609 5.28125L219.614 5.14132L218.403 22.4069L220.398 22.5469L222.394 22.6868L223.604 5.42118L221.609 5.28125ZM220.398 22.5469V20.5469H212.586V22.5469V24.5469H220.398V22.5469ZM212.586 22.5469L214.582 22.4159L213.449 5.15031L211.453 5.28125L209.457 5.41219L210.59 22.6778L212.586 22.5469ZM211.453 5.28125V7.28125H221.609V5.28125V3.28125H211.453V5.28125ZM226.844 60.9453H224.844V62.3495L226.164 62.8264L226.844 60.9453ZM226.844 50.9453L227.876 49.2323L224.844 47.4052V50.9453H226.844ZM232.898 53.6797L232.326 55.596L232.333 55.598L232.898 53.6797ZM243.797 53.6797L242.947 51.8692L242.94 51.8726L242.933 51.8761L243.797 53.6797ZM242.625 47.625L241.818 49.4548L241.827 49.4591L241.837 49.4633L242.625 47.625ZM236.609 45.5156L237.344 43.6553L237.329 43.6497L237.315 43.6442L236.609 45.5156ZM232.391 43.6016L231.378 45.3264L231.4 45.3393L231.423 45.3516L232.391 43.6016ZM229.344 41.1797L227.847 42.5058L227.857 42.5176L227.868 42.5292L229.344 41.1797ZM227.469 38.0156L225.58 38.6727L225.586 38.6909L225.593 38.7089L227.469 38.0156ZM228.289 27.9766L226.584 26.9314L226.578 26.9415L226.572 26.9516L228.289 27.9766ZM232.195 24.0312L233.26 25.7242L233.267 25.7197L232.195 24.0312ZM237.781 21.7656L238.22 23.7168L238.229 23.7149L238.238 23.7128L237.781 21.7656ZM249.734 21.4531L249.424 23.4289L249.438 23.431L249.452 23.433L249.734 21.4531ZM255.125 22.625H257.125V21.1285L255.689 20.7063L255.125 22.625ZM255.125 32.1562L254.117 33.8838L257.125 35.6383V32.1562H255.125ZM250.086 30.125L249.574 32.0584L249.591 32.0628L249.607 32.0669L250.086 30.125ZM242.547 29.6562L242.911 31.6228L242.939 31.6177L242.966 31.6119L242.547 29.6562ZM240.672 30.2812L241.532 32.087L241.566 32.0706L241.6 32.0529L240.672 30.2812ZM239.383 31.3359L240.983 32.5359L241 32.5129L241.017 32.4893L239.383 31.3359ZM241.453 36.0234L240.534 37.7999L240.559 37.8125L240.584 37.8245L241.453 36.0234ZM243.953 37.0391L243.304 38.931L243.336 38.9419L243.369 38.9518L243.953 37.0391ZM246.727 37.9375L247.386 36.0493L247.375 36.0456L246.727 37.9375ZM254.578 42.1953L253.184 43.6293L253.194 43.6388L253.204 43.6482L254.578 42.1953ZM256.766 45.3984L254.911 46.148L254.918 46.1648L254.925 46.1815L256.766 45.3984ZM255.984 55.8672L254.281 54.819L254.276 54.8264L255.984 55.8672ZM251.883 59.9688L252.931 61.6721L252.938 61.6676L251.883 59.9688ZM245.984 62.2344L245.575 60.2768L245.561 60.2796L245.548 60.2825L245.984 62.2344ZM226.844 60.9453H228.844V50.9453H226.844H224.844V60.9453H226.844ZM226.844 50.9453L225.812 52.6584C227.968 53.9578 230.14 54.943 232.326 55.596L232.898 53.6797L233.471 51.7634C231.647 51.2184 229.782 50.3807 227.876 49.2323L226.844 50.9453ZM232.898 53.6797L232.333 55.598C234.516 56.2418 236.622 56.5781 238.641 56.5781V54.5781V52.5781C237.066 52.5781 235.344 52.3155 233.464 51.7613L232.898 53.6797ZM238.641 54.5781V56.5781C240.973 56.5781 243.03 56.2649 244.661 55.4833L243.797 53.6797L242.933 51.8761C242.064 52.2924 240.684 52.5781 238.641 52.5781V54.5781ZM243.797 53.6797L244.647 55.4902C245.518 55.0812 246.305 54.5026 246.871 53.6938C247.449 52.8683 247.711 51.9246 247.711 50.9453H245.711H243.711C243.711 51.19 243.654 51.314 243.594 51.3999C243.522 51.5026 243.352 51.6792 242.947 51.8692L243.797 53.6797ZM245.711 50.9453H247.711C247.711 49.6064 247.191 48.4161 246.197 47.5123L244.852 48.9922L243.506 50.4721C243.658 50.61 243.711 50.7218 243.711 50.9453H245.711ZM244.852 48.9922L246.197 47.5123C245.421 46.8065 244.474 46.2416 243.413 45.7867L242.625 47.625L241.837 49.4633C242.599 49.7897 243.137 50.1362 243.506 50.4721L244.852 48.9922ZM242.625 47.625L243.432 45.7952C242.456 45.3646 241.396 44.9843 240.257 44.6508L239.695 46.5703L239.134 48.4898C240.13 48.7813 241.023 49.1042 241.818 49.4548L242.625 47.625ZM239.695 46.5703L240.257 44.6508C239.245 44.3547 238.274 44.0226 237.344 43.6553L236.609 45.5156L235.875 47.3759C236.924 47.7899 238.01 48.161 239.134 48.4898L239.695 46.5703ZM236.609 45.5156L237.315 43.6442C235.798 43.0724 234.483 42.4732 233.359 41.8515L232.391 43.6016L231.423 45.3516C232.747 46.0841 234.243 46.7609 235.904 47.387L236.609 45.5156ZM232.391 43.6016L233.403 41.8767C232.356 41.2624 231.503 40.5769 230.82 39.8301L229.344 41.1797L227.868 42.5292C228.852 43.6054 230.029 44.5345 231.378 45.3264L232.391 43.6016ZM229.344 41.1797L230.841 39.8536C230.206 39.1368 229.706 38.2992 229.345 37.3223L227.469 38.0156L225.593 38.7089C226.117 40.1279 226.867 41.3997 227.847 42.5058L229.344 41.1797ZM227.469 38.0156L229.358 37.3586C229.033 36.4236 228.844 35.237 228.844 33.7578H226.844H224.844C224.844 35.5599 225.072 37.2118 225.58 38.6727L227.469 38.0156ZM226.844 33.7578H228.844C228.844 31.8097 229.26 30.2516 230.006 29.0015L228.289 27.9766L226.572 26.9516C225.391 28.9307 224.844 31.2268 224.844 33.7578H226.844ZM228.289 27.9766L229.994 29.0217C230.822 27.6714 231.904 26.5772 233.26 25.7242L232.195 24.0312L231.13 22.3383C229.257 23.5165 227.735 25.0526 226.584 26.9314L228.289 27.9766ZM232.195 24.0312L233.267 25.7197C234.695 24.813 236.339 24.1401 238.22 23.7168L237.781 21.7656L237.342 19.8144C235.056 20.3287 232.977 21.1662 231.123 22.3428L232.195 24.0312ZM237.781 21.7656L238.238 23.7128C240.191 23.2547 242.225 23.0234 244.344 23.0234V21.0234V19.0234C241.931 19.0234 239.59 19.287 237.325 19.8185L237.781 21.7656ZM244.344 21.0234V23.0234C246.006 23.0234 247.699 23.1579 249.424 23.4289L249.734 21.4531L250.045 19.4774C248.124 19.1754 246.223 19.0234 244.344 19.0234V21.0234ZM249.734 21.4531L249.452 23.433C251.179 23.6798 252.882 24.05 254.561 24.5437L255.125 22.625L255.689 20.7063C253.826 20.1584 251.936 19.7473 250.017 19.4732L249.734 21.4531ZM255.125 22.625H253.125V32.1562H255.125H257.125V22.625H255.125ZM255.125 32.1562L256.133 30.4287C254.401 29.4186 252.543 28.6705 250.564 28.1831L250.086 30.125L249.607 32.0669C251.223 32.4649 252.724 33.071 254.117 33.8838L255.125 32.1562ZM250.086 30.125L250.598 28.1916C248.671 27.6815 246.754 27.4219 244.852 27.4219V29.4219V31.4219C246.387 31.4219 247.959 31.631 249.574 32.0584L250.086 30.125ZM244.852 29.4219V27.4219C243.915 27.4219 243.006 27.5126 242.128 27.7006L242.547 29.6562L242.966 31.6119C243.547 31.4874 244.174 31.4219 244.852 31.4219V29.4219ZM242.547 29.6562L242.183 27.6897C241.313 27.8507 240.493 28.117 239.744 28.5096L240.672 30.2812L241.6 32.0529C241.944 31.8726 242.374 31.7222 242.911 31.6228L242.547 29.6562ZM240.672 30.2812L239.812 28.4755C238.993 28.8657 238.282 29.4278 237.749 30.1826L239.383 31.3359L241.017 32.4893C241.109 32.3587 241.257 32.2176 241.532 32.087L240.672 30.2812ZM239.383 31.3359L237.783 30.1359C237.197 30.9169 236.914 31.8248 236.914 32.7812H238.914H240.914C240.914 32.644 240.943 32.5884 240.983 32.5359L239.383 31.3359ZM238.914 32.7812H236.914C236.914 33.9825 237.317 35.09 238.131 35.9942L239.617 34.6562L241.104 33.3183C240.98 33.1808 240.914 33.0384 240.914 32.7812H238.914ZM239.617 34.6562L238.131 35.9942C238.791 36.7279 239.609 37.3214 240.534 37.7999L241.453 36.0234L242.372 34.247C241.787 33.9442 241.381 33.6263 241.104 33.3183L239.617 34.6562ZM241.453 36.0234L240.584 37.8245C241.42 38.2284 242.328 38.5963 243.304 38.931L243.953 37.0391L244.602 35.1472C243.755 34.8568 242.996 34.5476 242.323 34.2223L241.453 36.0234ZM243.953 37.0391L243.369 38.9518C244.285 39.2318 245.188 39.5243 246.078 39.8294L246.727 37.9375L247.375 36.0456C246.442 35.7257 245.496 35.4193 244.538 35.1264L243.953 37.0391ZM246.727 37.9375L246.067 39.8257C247.636 40.3736 249.036 40.9643 250.271 41.5943L251.18 39.8125L252.088 38.0307C250.668 37.3065 249.098 36.6473 247.386 36.0493L246.727 37.9375ZM251.18 39.8125L250.271 41.5943C251.446 42.1929 252.409 42.8754 253.184 43.6293L254.578 42.1953L255.972 40.7613C254.873 39.6923 253.57 38.7862 252.088 38.0307L251.18 39.8125ZM254.578 42.1953L253.204 43.6482C253.96 44.3634 254.525 45.1915 254.911 46.148L256.766 45.3984L258.62 44.6489C258.017 43.1574 257.124 41.8502 255.953 40.7424L254.578 42.1953ZM256.766 45.3984L254.925 46.1815C255.316 47.1003 255.547 48.2793 255.547 49.7734H257.547H259.547C259.547 47.8821 259.257 46.1445 258.606 44.6153L256.766 45.3984ZM257.547 49.7734H255.547C255.547 51.8449 255.094 53.4975 254.281 54.819L255.984 55.8672L257.688 56.9154C258.958 54.8514 259.547 52.4415 259.547 49.7734H257.547ZM255.984 55.8672L254.276 54.8264C253.43 56.2157 252.29 57.3612 250.827 58.2699L251.883 59.9688L252.938 61.6676C254.913 60.4409 256.508 58.852 257.692 56.9079L255.984 55.8672ZM251.883 59.9688L250.835 58.2654C249.366 59.1694 247.622 59.8483 245.575 60.2768L245.984 62.2344L246.394 64.192C248.826 63.683 251.014 62.8515 252.931 61.6721L251.883 59.9688ZM245.984 62.2344L245.548 60.2825C243.486 60.7436 241.328 60.9766 239.07 60.9766V62.9766V64.9766C241.605 64.9766 244.056 64.7148 246.421 64.1862L245.984 62.2344ZM239.07 62.9766V60.9766C234.877 60.9766 231.034 60.332 227.523 59.0642L226.844 60.9453L226.164 62.8264C230.154 64.267 234.462 64.9766 239.07 64.9766V62.9766ZM338.406 62V64H340.406V62H338.406ZM325.672 62L324 63.0969L324.592 64H325.672V62ZM302.586 26.8047L304.258 25.7077L304.257 25.7051L302.586 26.8047ZM299.773 22.1562L301.562 21.2618L301.009 20.1562H299.773V22.1562ZM299.617 22.1562V20.1562H297.396L297.628 22.3656L299.617 22.1562ZM299.93 62V64H301.93V62H299.93ZM288.016 62H286.016V64H288.016V62ZM288.016 5.98438V3.98438H286.016V5.98438H288.016ZM301.609 5.98438L303.285 4.89231L302.693 3.98438H301.609V5.98438ZM323.836 40.0859L322.16 41.178L322.168 41.1888L323.836 40.0859ZM326.648 44.6562L324.91 45.6453L325.485 46.6562H326.648V44.6562ZM326.805 44.6562V46.6562H329.15L328.78 44.3403L326.805 44.6562ZM326.492 5.98438V3.98438H324.492V5.98438H326.492ZM338.406 5.98438H340.406V3.98438H338.406V5.98438ZM338.406 62V60H325.672V62V64H338.406V62ZM325.672 62L327.344 60.9031L304.258 25.7077L302.586 26.8047L300.914 27.9016L324 63.0969L325.672 62ZM302.586 26.8047L304.257 25.7051C302.909 23.6579 302.027 22.1912 301.562 21.2618L299.773 22.1562L297.985 23.0507C298.562 24.2047 299.555 25.8368 300.915 27.9043L302.586 26.8047ZM299.773 22.1562V20.1562H299.617V22.1562V24.1562H299.773V22.1562ZM299.617 22.1562L297.628 22.3656C297.825 24.2357 297.93 27.17 297.93 31.2188H299.93H301.93C301.93 27.1425 301.826 24.0351 301.606 21.9469L299.617 22.1562ZM299.93 31.2188H297.93V62H299.93H301.93V31.2188H299.93ZM299.93 62V60H288.016V62V64H299.93V62ZM288.016 62H290.016V5.98438H288.016H286.016V62H288.016ZM288.016 5.98438V7.98438H301.609V5.98438V3.98438H288.016V5.98438ZM301.609 5.98438L299.934 7.07644L322.16 41.178L323.836 40.0859L325.511 38.9939L303.285 4.89231L301.609 5.98438ZM323.836 40.0859L322.168 41.1888C323.16 42.6903 324.074 44.1758 324.91 45.6453L326.648 44.6562L328.387 43.6672C327.504 42.1159 326.543 40.5545 325.504 38.9831L323.836 40.0859ZM326.648 44.6562V46.6562H326.805V44.6562V42.6562H326.648V44.6562ZM326.805 44.6562L328.78 44.3403C328.6 43.2201 328.492 40.8121 328.492 36.9609H326.492H324.492C324.492 40.766 324.592 43.4883 324.83 44.9722L326.805 44.6562ZM326.492 36.9609H328.492V5.98438H326.492H324.492V36.9609H326.492ZM326.492 5.98438V7.98438H338.406V5.98438V3.98438H326.492V5.98438ZM338.406 5.98438H336.406V62H338.406H340.406V5.98438H338.406ZM385.945 45.5156V47.5156H387.945V45.5156H385.945ZM359.852 45.5156V43.5156H357.703L357.857 45.6588L359.852 45.5156ZM382.43 51.1016H384.43V47.4931L381.37 49.4056L382.43 51.1016ZM382.43 60.0078L383.373 61.7711L384.43 61.2058V60.0078H382.43ZM352.977 57.625L351.557 59.0341L351.562 59.0392L352.977 57.625ZM353.406 26.8438L351.987 25.4343L353.406 26.8438ZM381.141 26.2188L379.667 27.5707L379.672 27.5767L381.141 26.2188ZM374.5 37.9375V39.9375H376.5V37.9375H374.5ZM362.391 31.8047L360.896 30.476L360.89 30.4826L360.884 30.4894L362.391 31.8047ZM359.773 37.9375L357.79 37.6842L357.502 39.9375H359.773V37.9375ZM385.945 45.5156V43.5156H359.852V45.5156V47.5156H385.945V45.5156ZM359.852 45.5156L357.857 45.6588C358.095 48.9736 359.293 51.7329 361.665 53.6154C363.982 55.4542 367.134 56.2266 370.828 56.2266V54.2266V52.2266C367.622 52.2266 365.493 51.5471 364.151 50.4822C362.865 49.4611 362.025 47.865 361.846 45.3725L359.852 45.5156ZM370.828 54.2266V56.2266C375.558 56.2266 379.801 55.1027 383.49 52.7976L382.43 51.1016L381.37 49.4056C378.391 51.2671 374.9 52.2266 370.828 52.2266V54.2266ZM382.43 51.1016H380.43V60.0078H382.43H384.43V51.1016H382.43ZM382.43 60.0078L381.486 58.2445C378.173 60.0177 373.725 60.9766 368.016 60.9766V62.9766V64.9766C374.129 64.9766 379.291 63.9562 383.373 61.7711L382.43 60.0078ZM368.016 62.9766V60.9766C361.932 60.9766 357.486 59.3061 354.391 56.2108L352.977 57.625L351.562 59.0392C355.602 63.0793 361.182 64.9766 368.016 64.9766V62.9766ZM352.977 57.625L354.396 56.2159C351.292 53.0897 349.625 48.6504 349.625 42.625H347.625H345.625C345.625 49.4121 347.525 54.9728 351.557 59.0341L352.977 57.625ZM347.625 42.625H349.625C349.625 36.392 351.42 31.6811 354.825 28.2532L353.406 26.8438L351.987 25.4343C347.684 29.7668 345.625 35.5768 345.625 42.625H347.625ZM353.406 26.8438L354.825 28.2532C358.292 24.7629 362.516 23.0234 367.625 23.0234V21.0234V19.0234C361.484 19.0234 356.229 21.1642 351.987 25.4343L353.406 26.8438ZM367.625 21.0234V23.0234C373.043 23.0234 376.957 24.6161 379.667 27.5707L381.141 26.2188L382.614 24.8668C378.971 20.8943 373.874 19.0234 367.625 19.0234V21.0234ZM381.141 26.2188L379.672 27.5767C382.452 30.5819 383.945 34.7507 383.945 40.3203H385.945H387.945C387.945 34.015 386.236 28.7827 382.609 24.8608L381.141 26.2188ZM385.945 40.3203H383.945V45.5156H385.945H387.945V40.3203H385.945ZM374.5 37.9375H376.5C376.5 34.8552 375.885 32.1727 374.317 30.2342C372.683 28.2147 370.298 27.3438 367.547 27.3438V29.3438V31.3438C369.431 31.3438 370.523 31.9051 371.207 32.7502C371.956 33.6762 372.5 35.2906 372.5 37.9375H374.5ZM367.547 29.3438V27.3438C364.93 27.3438 362.687 28.4604 360.896 30.476L362.391 31.8047L363.885 33.1334C365.01 31.8677 366.205 31.3438 367.547 31.3438V29.3438ZM362.391 31.8047L360.884 30.4894C359.157 32.4675 358.145 34.8969 357.79 37.6842L359.773 37.9375L361.757 38.1908C362.027 36.0822 362.76 34.4232 363.897 33.12L362.391 31.8047ZM359.773 37.9375V39.9375H374.5V37.9375V35.9375H359.773V37.9375ZM431.922 22L433.575 23.1263L435.705 20H431.922V22ZM418.719 41.375L417.066 40.2487L416.324 41.3374L417.031 42.4488L418.719 41.375ZM431.844 62V64H435.487L433.531 60.9262L431.844 62ZM417.625 62L415.862 62.9452L416.428 64H417.625V62ZM411.844 51.2188L413.606 50.2736L413.603 50.2673L413.6 50.261L411.844 51.2188ZM410.164 47.5859L412.01 46.8167L411.497 45.5859H410.164V47.5859ZM410.008 47.5859V45.5859H408.598L408.124 46.9133L410.008 47.5859ZM408.406 51.1016L406.648 50.149L406.642 50.1594L408.406 51.1016ZM402.586 62V64H403.785L404.35 62.9422L402.586 62ZM388.406 62L386.751 60.8772L384.633 64H388.406V62ZM401.922 42.0781L403.577 43.201L404.313 42.1167L403.612 41.0093L401.922 42.0781ZM389.227 22V20H385.596L387.536 23.0689L389.227 22ZM403.523 22L405.306 21.0932L404.75 20H403.523V22ZM409.227 33.2109L407.444 34.1178L407.444 34.1179L409.227 33.2109ZM410.828 36.9609L408.917 37.5491L409.351 38.9609H410.828V36.9609ZM410.984 36.9609V38.9609H412.416L412.878 37.6055L410.984 36.9609ZM412.664 33.1328L414.432 34.0686L414.436 34.0594L412.664 33.1328ZM418.484 22V20H417.273L416.712 21.0734L418.484 22ZM431.922 22L430.269 20.8737L417.066 40.2487L418.719 41.375L420.371 42.5013L433.575 23.1263L431.922 22ZM418.719 41.375L417.031 42.4488L430.156 63.0738L431.844 62L433.531 60.9262L420.406 40.3012L418.719 41.375ZM431.844 62V60H417.625V62V64H431.844V62ZM417.625 62L419.388 61.0548L413.606 50.2736L411.844 51.2188L410.081 52.1639L415.862 62.9452L417.625 62ZM411.844 51.2188L413.6 50.261C413.18 49.4913 412.651 48.3539 412.01 46.8167L410.164 47.5859L408.318 48.3552C408.979 49.943 409.57 51.2275 410.088 52.1765L411.844 51.2188ZM410.164 47.5859V45.5859H410.008V47.5859V49.5859H410.164V47.5859ZM410.008 47.5859L408.124 46.9133C407.775 47.8921 407.286 48.9698 406.648 50.149L408.406 51.1016L410.165 52.0541C410.88 50.7333 411.46 49.4672 411.891 48.2586L410.008 47.5859ZM408.406 51.1016L406.642 50.1594L400.822 61.0578L402.586 62L404.35 62.9422L410.17 52.0437L408.406 51.1016ZM402.586 62V60H388.406V62V64H402.586V62ZM388.406 62L390.061 63.1228L403.577 43.201L401.922 42.0781L400.267 40.9553L386.751 60.8772L388.406 62ZM401.922 42.0781L403.612 41.0093L390.917 20.9311L389.227 22L387.536 23.0689L400.231 43.147L401.922 42.0781ZM389.227 22V24H403.523V22V20H389.227V22ZM403.523 22L401.741 22.9068L407.444 34.1178L409.227 33.2109L411.009 32.3041L405.306 21.0932L403.523 22ZM409.227 33.2109L407.444 34.1179C408.173 35.5504 408.651 36.6866 408.917 37.5491L410.828 36.9609L412.74 36.3728C412.38 35.204 411.791 33.8402 411.009 32.304L409.227 33.2109ZM410.828 36.9609V38.9609H410.984V36.9609V34.9609H410.828V36.9609ZM410.984 36.9609L412.878 37.6055C413.255 36.4963 413.77 35.3178 414.432 34.0686L412.664 33.1328L410.896 32.197C410.152 33.6041 409.547 34.9776 409.091 36.3164L410.984 36.9609ZM412.664 33.1328L414.436 34.0594L420.257 22.9266L418.484 22L416.712 21.0734L410.892 32.2062L412.664 33.1328ZM418.484 22V24H431.922V22V20H418.484V22ZM461.688 61.5312L462.622 63.2994L463.688 62.7363V61.5312H461.688ZM440.398 31.1016H442.398V29.1016H440.398V31.1016ZM433.914 31.1016H431.914V33.1016H433.914V31.1016ZM433.914 22V20H431.914V22H433.914ZM440.398 22V24H442.398V22H440.398ZM440.398 13.3672L439.849 11.4441L438.398 11.8586V13.3672H440.398ZM452.703 9.85156H454.703V7.2001L452.154 7.92852L452.703 9.85156ZM452.703 22H450.703V24H452.703V22ZM461.688 22H463.688V20H461.688V22ZM461.688 31.1016V33.1016H463.688V31.1016H461.688ZM452.703 31.1016V29.1016H450.703V31.1016H452.703ZM461.688 52.3906H463.688V49.0165L460.727 50.6361L461.688 52.3906ZM461.688 61.5312L460.753 59.7631C459.363 60.4977 457.009 60.9766 453.445 60.9766V62.9766V64.9766C457.225 64.9766 460.366 64.4919 462.622 63.2994L461.688 61.5312ZM453.445 62.9766V60.9766C449.424 60.9766 446.771 59.9363 445.101 58.2009C443.417 56.4513 442.398 53.6505 442.398 49.4219H440.398H438.398C438.398 54.2297 439.554 58.2062 442.219 60.9749C444.898 63.7577 448.768 64.9766 453.445 64.9766V62.9766ZM440.398 49.4219H442.398V31.1016H440.398H438.398V49.4219H440.398ZM440.398 31.1016V29.1016H433.914V31.1016V33.1016H440.398V31.1016ZM433.914 31.1016H435.914V22H433.914H431.914V31.1016H433.914ZM433.914 22V24H440.398V22V20H433.914V22ZM440.398 22H442.398V13.3672H440.398H438.398V22H440.398ZM440.398 13.3672L440.948 15.2902L453.253 11.7746L452.703 9.85156L452.154 7.92852L439.849 11.4441L440.398 13.3672ZM452.703 9.85156H450.703V22H452.703H454.703V9.85156H452.703ZM452.703 22V24H461.688V22V20H452.703V22ZM461.688 22H459.688V31.1016H461.688H463.688V22H461.688ZM461.688 31.1016V29.1016H452.703V31.1016V33.1016H461.688V31.1016ZM452.703 31.1016H450.703V47.2734H452.703H454.703V31.1016H452.703ZM452.703 47.2734H450.703C450.703 49.5677 451.149 51.658 452.377 53.2043C453.674 54.8388 455.564 55.5234 457.664 55.5234V53.5234V51.5234C456.457 51.5234 455.866 51.1664 455.51 50.7175C455.084 50.1805 454.703 49.1458 454.703 47.2734H452.703ZM457.664 53.5234V55.5234C459.365 55.5234 461.034 55.0281 462.648 54.1451L461.688 52.3906L460.727 50.6361C459.581 51.2636 458.567 51.5234 457.664 51.5234V53.5234ZM461.688 52.3906H459.688V61.5312H461.688H463.688V52.3906H461.688ZM470.555 45.7891L468.688 46.507L469.181 47.7891H470.555V45.7891ZM469.93 43.5234L467.952 43.8231L467.957 43.8576L467.964 43.892L469.93 43.5234ZM471.141 35.0469L472.896 36.0046L472.902 35.9937L472.908 35.9827L471.141 35.0469ZM472.898 32.5469L474.385 33.8848L474.396 33.8727L474.407 33.8604L472.898 32.5469ZM475.359 30.1641L476.64 31.7005L476.648 31.6939L475.359 30.1641ZM477.938 27.8594L479.326 29.2991L479.327 29.2982L477.938 27.8594ZM479.852 25.7109L481.459 26.9014L481.469 26.8875L481.479 26.8734L479.852 25.7109ZM481.023 23.4844L482.914 24.1364L482.918 24.1266L482.921 24.1168L481.023 23.4844ZM480.984 18.6797L479.132 19.4343L479.137 19.4467L479.142 19.459L480.984 18.6797ZM479.734 16.8828L478.357 18.3328L478.375 18.3496L478.393 18.3659L479.734 16.8828ZM477.781 15.7109L477.072 17.5809L477.082 17.5849L477.093 17.5887L477.781 15.7109ZM468.914 16.5703L469.626 18.4393L469.636 18.4356L469.645 18.4318L468.914 16.5703ZM462.703 20.3984H460.703V24.8226L464.024 21.8999L462.703 20.3984ZM462.703 8.64062L461.677 6.92368L460.703 7.50572V8.64062H462.703ZM483.367 5.86719L482.859 7.80165L482.871 7.80463L482.882 7.80747L483.367 5.86719ZM488.797 8.36719L487.601 9.97044L487.608 9.97525L487.614 9.98L488.797 8.36719ZM492.43 12.7812L490.625 13.6442L490.633 13.66L490.641 13.6757L492.43 12.7812ZM493.211 23.5234L495.134 24.0729L495.137 24.0627L493.211 23.5234ZM488.992 30.4766L490.406 31.8908L490.415 31.882L490.424 31.8732L488.992 30.4766ZM485.398 33.7188L484.124 32.1775L484.122 32.1787L485.398 33.7188ZM482.977 35.8281L481.618 34.3606L481.604 34.3734L481.59 34.3865L482.977 35.8281ZM481.258 37.7812L479.635 36.6126L479.63 36.6189L479.626 36.6252L481.258 37.7812ZM480.242 39.8125L482.14 40.445L482.143 40.4348L482.146 40.4245L480.242 39.8125ZM480.125 44.1484L478.18 44.6152L478.189 44.6516L478.199 44.6877L480.125 44.1484ZM480.828 45.7891V47.7891H484.504L482.507 44.7026L480.828 45.7891ZM471.062 61.0234L469.69 62.4782L469.705 62.4922L469.72 62.5058L471.062 61.0234ZM471.062 51.8438L469.736 50.3474L471.062 51.8438ZM481.375 51.8438L480.034 53.3275L480.042 53.3347L480.05 53.3417L481.375 51.8438ZM481.414 61.0625L482.755 62.5462L482.762 62.5398L482.769 62.5332L481.414 61.0625ZM470.555 45.7891L472.421 45.0711C472.211 44.5243 472.033 43.8884 471.895 43.1549L469.93 43.5234L467.964 43.892C468.139 44.8252 468.377 45.6997 468.688 46.507L470.555 45.7891ZM469.93 43.5234L471.907 43.2238C471.79 42.4492 471.734 41.7428 471.734 41.1016H469.734H467.734C467.734 41.9707 467.809 42.879 467.952 43.8231L469.93 43.5234ZM469.734 41.1016H471.734C471.734 40.0322 471.839 39.0959 472.032 38.2812L470.086 37.8203L468.14 37.3594C467.864 38.5239 467.734 39.7751 467.734 41.1016H469.734ZM470.086 37.8203L472.032 38.2812C472.227 37.4582 472.516 36.7016 472.896 36.0046L471.141 35.0469L469.385 34.0892C468.828 35.1109 468.414 36.2032 468.14 37.3594L470.086 37.8203ZM471.141 35.0469L472.908 35.9827C473.296 35.2493 473.786 34.55 474.385 33.8848L472.898 32.5469L471.412 31.2089C470.604 32.1062 469.922 33.0737 469.373 34.1111L471.141 35.0469ZM472.898 32.5469L474.407 33.8604C475.031 33.1436 475.773 32.4229 476.64 31.7005L475.359 30.1641L474.079 28.6276C473.071 29.4677 472.172 30.3356 471.39 31.2333L472.898 32.5469ZM475.359 30.1641L476.648 31.6939C477.663 30.8391 478.557 30.0405 479.326 29.2991L477.938 27.8594L476.549 26.4197C475.86 27.0845 475.035 27.8223 474.071 28.6342L475.359 30.1641ZM477.938 27.8594L479.327 29.2982C480.146 28.507 480.861 27.7086 481.459 26.9014L479.852 25.7109L478.244 24.5205C477.801 25.1195 477.239 25.7534 476.548 26.4206L477.938 27.8594ZM479.852 25.7109L481.479 26.8734C482.098 26.0064 482.584 25.0941 482.914 24.1364L481.023 23.4844L479.133 22.8324C478.942 23.3851 478.646 23.9571 478.224 24.5485L479.852 25.7109ZM481.023 23.4844L482.921 24.1168C483.258 23.1056 483.414 22.0294 483.414 20.9062H481.414H479.414C479.414 21.6581 479.31 22.3007 479.126 22.8519L481.023 23.4844ZM481.414 20.9062H483.414C483.414 19.8576 483.227 18.8473 482.826 17.9004L480.984 18.6797L479.142 19.459C479.315 19.8663 479.414 20.3403 479.414 20.9062H481.414ZM480.984 18.6797L482.837 17.9251C482.44 16.9524 481.852 16.102 481.076 15.3997L479.734 16.8828L478.393 18.3659C478.71 18.6532 478.956 19.0008 479.132 19.4343L480.984 18.6797ZM479.734 16.8828L481.112 15.4328C480.364 14.7224 479.467 14.1989 478.47 13.8332L477.781 15.7109L477.093 17.5887C477.658 17.7959 478.063 18.0536 478.357 18.3328L479.734 16.8828ZM477.781 15.7109L478.491 13.8409C477.475 13.4559 476.384 13.2812 475.242 13.2812V15.2812V17.2812C475.976 17.2812 476.577 17.393 477.072 17.5809L477.781 15.7109ZM475.242 15.2812V13.2812C472.925 13.2812 470.567 13.7721 468.183 14.7088L468.914 16.5703L469.645 18.4318C471.636 17.6498 473.497 17.2812 475.242 17.2812V15.2812ZM468.914 16.5703L468.202 14.7013C465.768 15.6287 463.495 17.0378 461.382 18.897L462.703 20.3984L464.024 21.8999C465.818 20.3215 467.685 19.1785 469.626 18.4393L468.914 16.5703ZM462.703 20.3984H464.703V8.64062H462.703H460.703V20.3984H462.703ZM462.703 8.64062L463.729 10.3576C465.56 9.26385 467.566 8.4379 469.756 7.88434L469.266 5.94531L468.776 4.00629C466.226 4.65064 463.857 5.62156 461.677 6.92368L462.703 8.64062ZM469.266 5.94531L469.756 7.88434C471.96 7.32721 474.243 7.04688 476.609 7.04688V5.04688V3.04688C473.924 3.04688 471.311 3.3655 468.776 4.00629L469.266 5.94531ZM476.609 5.04688V7.04688C478.881 7.04688 480.961 7.3033 482.859 7.80165L483.367 5.86719L483.875 3.93272C481.607 3.33733 479.182 3.04688 476.609 3.04688V5.04688ZM483.367 5.86719L482.882 7.80747C484.74 8.27182 486.301 9.00086 487.601 9.97044L488.797 8.36719L489.993 6.76393C488.22 5.44185 486.162 4.50422 483.852 3.9269L483.367 5.86719ZM488.797 8.36719L487.614 9.98C488.903 10.9253 489.904 12.136 490.625 13.6442L492.43 12.7812L494.234 11.9183C493.237 9.83274 491.816 8.10073 489.98 6.75438L488.797 8.36719ZM492.43 12.7812L490.641 13.6757C491.356 15.1055 491.758 16.9186 491.758 19.1875H493.758H495.758C495.758 16.4564 495.274 13.9986 494.219 11.8868L492.43 12.7812ZM493.758 19.1875H491.758C491.758 20.6247 491.593 21.8851 491.285 22.9842L493.211 23.5234L495.137 24.0627C495.558 22.5576 495.758 20.9274 495.758 19.1875H493.758ZM493.211 23.5234L491.288 22.974C490.974 24.0731 490.514 25.1172 489.905 26.1102L491.609 27.1562L493.314 28.2023C494.111 26.9036 494.719 25.5259 495.134 24.0729L493.211 23.5234ZM491.609 27.1562L489.905 26.1102C489.287 27.1165 488.51 28.1071 487.561 29.0799L488.992 30.4766L490.424 31.8732C491.558 30.7106 492.525 29.4877 493.314 28.2023L491.609 27.1562ZM488.992 30.4766L487.578 29.0623C486.588 30.052 485.438 31.0904 484.124 32.1775L485.398 33.7188L486.673 35.26C488.067 34.1075 489.313 32.9845 490.406 31.8908L488.992 30.4766ZM485.398 33.7188L484.122 32.1787C483.189 32.9521 482.353 33.6797 481.618 34.3606L482.977 35.8281L484.335 37.2956C485.006 36.6745 485.785 35.9958 486.674 35.2588L485.398 33.7188ZM482.977 35.8281L481.59 34.3865C480.841 35.1074 480.185 35.8487 479.635 36.6126L481.258 37.7812L482.881 38.9499C483.268 38.4117 483.758 37.8509 484.363 37.2698L482.977 35.8281ZM481.258 37.7812L479.626 36.6252C479.065 37.4166 478.635 38.2772 478.338 39.2005L480.242 39.8125L482.146 40.4245C482.318 39.8895 482.565 39.3959 482.89 38.9373L481.258 37.7812ZM480.242 39.8125L478.345 39.18C478.029 40.1277 477.891 41.1554 477.891 42.2344H479.891H481.891C481.891 41.4904 481.987 40.9035 482.14 40.445L480.242 39.8125ZM479.891 42.2344H477.891C477.891 43.0273 477.99 43.8221 478.18 44.6152L480.125 44.1484L482.07 43.6817C481.948 43.1727 481.891 42.6914 481.891 42.2344H479.891ZM480.125 44.1484L478.199 44.6877C478.421 45.4808 478.727 46.224 479.149 46.8756L480.828 45.7891L482.507 44.7026C482.356 44.4687 482.193 44.1182 482.051 43.6092L480.125 44.1484ZM480.828 45.7891V43.7891H470.555V45.7891V47.7891H480.828V45.7891ZM476.258 62.8984V60.8984C474.607 60.8984 473.373 60.4176 472.405 59.541L471.062 61.0234L469.72 62.5058C471.512 64.1293 473.742 64.8984 476.258 64.8984V62.8984ZM471.062 61.0234L472.435 59.5686C471.423 58.6142 470.992 57.5918 470.992 56.4141H468.992H466.992C466.992 58.778 467.941 60.8285 469.69 62.4782L471.062 61.0234ZM468.992 56.4141H470.992C470.992 55.171 471.431 54.1897 472.389 53.3401L471.062 51.8438L469.736 50.3474C467.933 51.9457 466.992 54.0113 466.992 56.4141H468.992ZM471.062 51.8438L472.389 53.3401C473.356 52.4829 474.596 52.0078 476.258 52.0078V50.0078V48.0078C473.753 48.0078 471.529 48.7567 469.736 50.3474L471.062 51.8438ZM476.258 50.0078V52.0078C477.887 52.0078 479.095 52.4786 480.034 53.3275L481.375 51.8438L482.716 50.36C480.947 48.761 478.743 48.0078 476.258 48.0078V50.0078ZM481.375 51.8438L480.05 53.3417C480.964 54.1503 481.406 55.1232 481.406 56.4141H483.406H485.406C485.406 54.007 484.494 51.933 482.7 50.3458L481.375 51.8438ZM483.406 56.4141H481.406C481.406 57.7544 480.959 58.7625 480.059 59.5918L481.414 61.0625L482.769 62.5332C484.526 60.9146 485.406 58.8237 485.406 56.4141H483.406ZM481.414 61.0625L480.073 59.5788C479.139 60.4234 477.921 60.8984 476.258 60.8984V62.8984V64.8984C478.762 64.8984 480.981 64.1496 482.755 62.5462L481.414 61.0625Z" fill="url(#paint0_linear_3102_13952)" mask="url(#path-1-outside-1_3102_13952)"/>
<defs>
<linearGradient id="paint0_linear_3102_13952" x1="265.512" y1="-38" x2="265.384" y2="94.9999" gradientUnits="userSpaceOnUse">
<stop offset="0.427887" stop-color="#E1ECF3"/>
<stop offset="0.858273" stop-color="white"/>
</linearGradient>
</defs>
</svg>
